M48
; DRILL file {KiCad 7.0.10-7.0.10~ubuntu22.04.1} date Mon Jan  8 22:01:36 2024
; FORMAT={2:4/ absolute / inch / suppress leading zeros}
; #@! TF.CreationDate,2024-01-08T22:01:36+00:00
; #@! TF.GenerationSoftware,Kicad,Pcbnew,7.0.10-7.0.10~ubuntu22.04.1
; #@! TF.FileFunction,MixedPlating,1,2
FMAT,2
INCH,TZ
; #@! TA.AperFunction,Plated,PTH,ComponentDrill
T1C0.0394
; #@! TA.AperFunction,Plated,PTH,ComponentDrill
T2C0.0472
; #@! TA.AperFunction,Plated,PTH,ComponentDrill
T3C0.0512
; #@! TA.AperFunction,Plated,PTH,ComponentDrill
T4C0.0806
; #@! TA.AperFunction,Plated,PTH,ComponentDrill
T5C0.1181
; #@! TA.AperFunction,Plated,PTH,ComponentDrill
T6C0.1200
; #@! TA.AperFunction,Plated,PTH,ComponentDrill
T7C0.1457
; #@! TA.AperFunction,Plated,PTH,ComponentDrill
T8C0.1969
%
G90
G05
T1
X7598Y8677
X7598Y7693
X7598Y5331
X7598Y4346
X8976Y8677
X8976Y7693
X8976Y5331
X8976Y4346
X10354Y8677
X10354Y7693
X10354Y5331
X10354Y4346
X11732Y8677
X11732Y7693
X11732Y5331
X11732Y4346
X13110Y8677
X13110Y7693
X13110Y5331
X13110Y4346
X14291Y8677
X14291Y7693
X14291Y5331
X14291Y4346
X15276Y8677
X15276Y7693
X15276Y5331
X15276Y4346
X16260Y8677
X16260Y7693
X16260Y5331
X16260Y4346
X17244Y8677
X17244Y7693
X17244Y5331
X17244Y4346
X18228Y8677
X18228Y7693
X18228Y5331
X18228Y4346
X19213Y8677
X19213Y7693
X19213Y5331
X19213Y4346
X20197Y8677
X20197Y7693
X20197Y5331
X20197Y4346
X21181Y8677
X21181Y7693
X21181Y5331
X21181Y4346
X22165Y8677
X22165Y7693
X22165Y5331
X22165Y4346
X23346Y8677
X23346Y7693
X23346Y5331
X23346Y4346
X33189Y8677
X33189Y7693
X33189Y5331
X33189Y4346
X34370Y8677
X34370Y7693
X34370Y5331
X34370Y4346
X35354Y8677
X35354Y7693
X35354Y5331
X35354Y4346
X36339Y8677
X36339Y7693
X36339Y5331
X36339Y4346
X37323Y8677
X37323Y7693
X37323Y5331
X37323Y4346
X38307Y8677
X38307Y7693
X38307Y5331
X38307Y4346
X39291Y8677
X39291Y7693
X39291Y5331
X39291Y4346
X40276Y8677
X40276Y7693
X40276Y5331
X40276Y4346
X41260Y8677
X41260Y7693
X41260Y5331
X41260Y4346
X42244Y8677
X42244Y7693
X42244Y5331
X42244Y4346
X43228Y8677
X43228Y7693
X43228Y5331
X43228Y4346
X44213Y8677
X44213Y7693
X44213Y5331
X44213Y4346
X45197Y8677
X45197Y7693
X45197Y5331
X45197Y4346
X46181Y8677
X46181Y7693
X46181Y5331
X46181Y4346
X47165Y8677
X47165Y7693
X47165Y5331
X47165Y4346
X48150Y8677
X48150Y7693
X48150Y5331
X48150Y4346
X49134Y8677
X49134Y7693
X49134Y5331
X49134Y4346
X50118Y8677
X50118Y7693
X50118Y5331
X50118Y4346
X51102Y8677
X51102Y7693
X51102Y5331
X51102Y4346
X52087Y8677
X52087Y7693
X52087Y5331
X52087Y4346
X53071Y8677
X53071Y7693
X53071Y5331
X53071Y4346
X54055Y8677
X54055Y7693
X54055Y5331
X54055Y4346
T2
X7315Y18028
X7315Y16453
X7315Y14878
X7315Y13303
X8394Y18028
X8394Y16453
X8394Y14878
X8394Y13303
X9472Y18028
X9472Y16453
X9472Y14878
X9472Y13303
X10551Y18028
X10551Y16453
X10551Y14878
X10551Y13303
X11630Y18028
X11630Y16453
X11630Y14878
X11630Y13303
X13843Y18028
X13843Y16492
X13843Y14878
X13843Y13303
X14921Y18028
X14921Y16492
X14921Y14878
X14921Y13303
X16000Y18028
X16000Y16492
X16000Y14878
X16000Y13303
X17079Y18028
X17079Y16492
X17079Y14878
X17079Y13303
X18157Y18028
X18157Y16492
X18157Y14878
X18157Y13303
X19236Y18028
X19236Y16492
X19236Y14878
X19236Y13303
X20315Y18028
X20315Y16492
X20315Y14878
X20315Y13303
X21394Y18028
X21394Y16492
X21394Y14878
X21394Y13303
X22472Y18028
X22472Y16492
X22472Y14878
X22472Y13303
X23972Y18028
X23972Y16453
X23972Y14878
X23972Y13303
X33315Y18016
X33315Y16453
X33315Y14866
X33315Y13303
X34354Y18016
X34394Y16453
X34394Y14866
X34394Y13303
X35394Y18016
X35472Y16453
X35472Y14866
X35472Y13303
X36433Y18016
X36551Y16453
X36551Y14866
X36551Y13303
X37472Y18016
X37630Y16453
X37630Y14866
X37630Y13303
X38512Y18016
X38709Y16453
X38709Y14866
X38709Y13303
X39551Y18016
X39787Y16453
X39787Y14866
X39787Y13303
X40591Y18016
X40866Y16453
X40866Y14866
X40866Y13303
X41630Y18016
X41945Y16453
X41945Y14866
X41945Y13303
X42669Y18016
X43024Y16453
X43024Y14866
X43024Y13303
X43709Y18016
X44102Y16453
X44102Y14866
X44102Y13303
X44748Y18016
X45181Y16453
X45181Y14866
X45181Y13303
X45787Y18016
X46260Y16453
X46260Y14866
X46260Y13303
X46827Y18016
X47339Y16453
X47339Y14866
X47339Y13303
X47866Y18016
X48417Y16453
X48417Y14866
X48417Y13303
X48906Y18016
X49496Y16453
X49496Y14866
X49496Y13303
X49945Y18016
X50575Y16453
X50575Y14866
X50575Y13303
X50984Y18016
X51654Y16453
X51654Y14866
X51654Y13303
X52024Y18016
X52732Y16453
X52732Y14866
X52732Y13303
X53063Y18016
X53811Y16453
X53811Y14866
X53811Y13303
X54102Y18016
X54890Y16453
X54890Y14866
X54890Y13303
X55142Y18016
X55969Y16453
X55969Y14866
X55969Y13303
T3
X28543Y8677
X28543Y6512
X28543Y4346
X30591Y8677
X30591Y6512
X30591Y4346
T4
X27472Y18791
X27472Y16291
X27472Y13791
X30472Y18791
X30472Y16291
X30472Y13791
T5
X24843Y10055
T6
X1181Y19209
X57874Y19209
T7
X11929Y1748
X47362Y1748
T8
X5925Y3657
X55138Y10350
M30
