G04 #@! TF.GenerationSoftware,KiCad,Pcbnew,6.0.4-6f826c9f35~116~ubuntu18.04.1*
G04 #@! TF.CreationDate,2022-04-10T17:08:25+03:00*
G04 #@! TF.ProjectId,wideband_controller,77696465-6261-46e6-945f-636f6e74726f,rev?*
G04 #@! TF.SameCoordinates,Original*
G04 #@! TF.FileFunction,Legend,Top*
G04 #@! TF.FilePolarity,Positive*
%FSLAX46Y46*%
G04 Gerber Fmt 4.6, Leading zero omitted, Abs format (unit mm)*
G04 Created by KiCad (PCBNEW 6.0.4-6f826c9f35~116~ubuntu18.04.1) date 2022-04-10 17:08:25*
%MOMM*%
%LPD*%
G01*
G04 APERTURE LIST*
G04 Aperture macros list*
%AMRoundRect*
0 Rectangle with rounded corners*
0 $1 Rounding radius*
0 $2 $3 $4 $5 $6 $7 $8 $9 X,Y pos of 4 corners*
0 Add a 4 corners polygon primitive as box body*
4,1,4,$2,$3,$4,$5,$6,$7,$8,$9,$2,$3,0*
0 Add four circle primitives for the rounded corners*
1,1,$1+$1,$2,$3*
1,1,$1+$1,$4,$5*
1,1,$1+$1,$6,$7*
1,1,$1+$1,$8,$9*
0 Add four rect primitives between the rounded corners*
20,1,$1+$1,$2,$3,$4,$5,0*
20,1,$1+$1,$4,$5,$6,$7,0*
20,1,$1+$1,$6,$7,$8,$9,0*
20,1,$1+$1,$8,$9,$2,$3,0*%
G04 Aperture macros list end*
%ADD10C,0.120000*%
%ADD11C,0.100000*%
%ADD12C,0.150000*%
%ADD13C,0.254000*%
%ADD14C,4.098000*%
%ADD15C,2.248000*%
%ADD16RoundRect,0.267750X-0.218750X-0.256250X0.218750X-0.256250X0.218750X0.256250X-0.218750X0.256250X0*%
%ADD17RoundRect,0.267750X0.256250X-0.218750X0.256250X0.218750X-0.256250X0.218750X-0.256250X-0.218750X0*%
%ADD18RoundRect,0.267750X-0.256250X0.218750X-0.256250X-0.218750X0.256250X-0.218750X0.256250X0.218750X0*%
%ADD19RoundRect,0.049000X-0.450000X-0.400000X0.450000X-0.400000X0.450000X0.400000X-0.450000X0.400000X0*%
%ADD20RoundRect,0.196500X-0.147500X-0.172500X0.147500X-0.172500X0.147500X0.172500X-0.147500X0.172500X0*%
%ADD21RoundRect,0.267750X0.218750X0.256250X-0.218750X0.256250X-0.218750X-0.256250X0.218750X-0.256250X0*%
%ADD22RoundRect,0.049000X0.850000X0.850000X-0.850000X0.850000X-0.850000X-0.850000X0.850000X-0.850000X0*%
%ADD23RoundRect,0.049000X-1.650000X-1.250000X1.650000X-1.250000X1.650000X1.250000X-1.650000X1.250000X0*%
%ADD24RoundRect,0.196500X-0.172500X0.147500X-0.172500X-0.147500X0.172500X-0.147500X0.172500X0.147500X0*%
%ADD25RoundRect,0.189000X0.140000X0.170000X-0.140000X0.170000X-0.140000X-0.170000X0.140000X-0.170000X0*%
%ADD26RoundRect,0.196500X0.147500X0.172500X-0.147500X0.172500X-0.147500X-0.172500X0.147500X-0.172500X0*%
%ADD27RoundRect,0.189000X-0.170000X0.140000X-0.170000X-0.140000X0.170000X-0.140000X0.170000X0.140000X0*%
%ADD28RoundRect,0.196500X0.172500X-0.147500X0.172500X0.147500X-0.172500X0.147500X-0.172500X-0.147500X0*%
%ADD29RoundRect,0.249000X0.200000X0.275000X-0.200000X0.275000X-0.200000X-0.275000X0.200000X-0.275000X0*%
%ADD30RoundRect,0.299000X-0.625000X0.375000X-0.625000X-0.375000X0.625000X-0.375000X0.625000X0.375000X0*%
%ADD31RoundRect,0.184000X0.185000X-0.135000X0.185000X0.135000X-0.185000X0.135000X-0.185000X-0.135000X0*%
%ADD32RoundRect,0.184000X-0.185000X0.135000X-0.185000X-0.135000X0.185000X-0.135000X0.185000X0.135000X0*%
%ADD33RoundRect,0.249000X-0.200000X-0.275000X0.200000X-0.275000X0.200000X0.275000X-0.200000X0.275000X0*%
%ADD34RoundRect,0.189000X0.170000X-0.140000X0.170000X0.140000X-0.170000X0.140000X-0.170000X-0.140000X0*%
%ADD35RoundRect,0.189000X-0.140000X-0.170000X0.140000X-0.170000X0.140000X0.170000X-0.140000X0.170000X0*%
%ADD36C,2.878000*%
%ADD37RoundRect,0.049000X0.600000X-1.100000X0.600000X1.100000X-0.600000X1.100000X-0.600000X-1.100000X0*%
%ADD38RoundRect,0.049000X2.900000X-3.200000X2.900000X3.200000X-2.900000X3.200000X-2.900000X-3.200000X0*%
%ADD39RoundRect,0.049000X0.370000X-1.200000X0.370000X1.200000X-0.370000X1.200000X-0.370000X-1.200000X0*%
%ADD40RoundRect,0.124000X0.662500X0.075000X-0.662500X0.075000X-0.662500X-0.075000X0.662500X-0.075000X0*%
%ADD41RoundRect,0.124000X0.075000X0.662500X-0.075000X0.662500X-0.075000X-0.662500X0.075000X-0.662500X0*%
%ADD42RoundRect,0.049000X-0.850000X0.850000X-0.850000X-0.850000X0.850000X-0.850000X0.850000X0.850000X0*%
%ADD43O,1.798000X1.798000*%
%ADD44RoundRect,0.199000X0.825000X0.150000X-0.825000X0.150000X-0.825000X-0.150000X0.825000X-0.150000X0*%
%ADD45RoundRect,0.049000X0.850000X-0.850000X0.850000X0.850000X-0.850000X0.850000X-0.850000X-0.850000X0*%
%ADD46RoundRect,0.049000X-0.600000X1.100000X-0.600000X-1.100000X0.600000X-1.100000X0.600000X1.100000X0*%
%ADD47RoundRect,0.049000X-2.900000X3.200000X-2.900000X-3.200000X2.900000X-3.200000X2.900000X3.200000X0*%
%ADD48RoundRect,0.199000X0.150000X-0.725000X0.150000X0.725000X-0.150000X0.725000X-0.150000X-0.725000X0*%
%ADD49RoundRect,0.184000X-0.135000X-0.185000X0.135000X-0.185000X0.135000X0.185000X-0.135000X0.185000X0*%
%ADD50RoundRect,0.184000X0.135000X0.185000X-0.135000X0.185000X-0.135000X-0.185000X0.135000X-0.185000X0*%
%ADD51RoundRect,0.049000X-0.550000X-0.200000X0.550000X-0.200000X0.550000X0.200000X-0.550000X0.200000X0*%
%ADD52RoundRect,0.149000X-0.100000X0.637500X-0.100000X-0.637500X0.100000X-0.637500X0.100000X0.637500X0*%
%ADD53RoundRect,0.049000X0.450000X0.600000X-0.450000X0.600000X-0.450000X-0.600000X0.450000X-0.600000X0*%
%ADD54C,1.098000*%
%ADD55RoundRect,0.299000X0.625000X-0.312500X0.625000X0.312500X-0.625000X0.312500X-0.625000X-0.312500X0*%
%ADD56RoundRect,0.249000X-0.275000X0.200000X-0.275000X-0.200000X0.275000X-0.200000X0.275000X0.200000X0*%
G04 APERTURE END LIST*
D10*
X137959142Y-104745285D02*
X138030571Y-104745285D01*
X138102000Y-104781000D01*
X138137714Y-104816714D01*
X138173428Y-104888142D01*
X138209142Y-105031000D01*
X138209142Y-105209571D01*
X138173428Y-105352428D01*
X138137714Y-105423857D01*
X138102000Y-105459571D01*
X138030571Y-105495285D01*
X137959142Y-105495285D01*
X137887714Y-105459571D01*
X137852000Y-105423857D01*
X137816285Y-105352428D01*
X137780571Y-105209571D01*
X137780571Y-105031000D01*
X137816285Y-104888142D01*
X137852000Y-104816714D01*
X137887714Y-104781000D01*
X137959142Y-104745285D01*
X138209142Y-102955285D02*
X137780571Y-102955285D01*
X137994857Y-102955285D02*
X137994857Y-102205285D01*
X137923428Y-102312428D01*
X137852000Y-102383857D01*
X137780571Y-102419571D01*
X141491857Y-109516000D02*
X141527571Y-109551714D01*
X141563285Y-109658857D01*
X141563285Y-109730285D01*
X141527571Y-109837428D01*
X141456142Y-109908857D01*
X141384714Y-109944571D01*
X141241857Y-109980285D01*
X141134714Y-109980285D01*
X140991857Y-109944571D01*
X140920428Y-109908857D01*
X140849000Y-109837428D01*
X140813285Y-109730285D01*
X140813285Y-109658857D01*
X140849000Y-109551714D01*
X140884714Y-109516000D01*
X141170428Y-108944571D02*
X141170428Y-109194571D01*
X141563285Y-109194571D02*
X140813285Y-109194571D01*
X140813285Y-108837428D01*
X140849000Y-108158857D02*
X140813285Y-108230285D01*
X140813285Y-108337428D01*
X140849000Y-108444571D01*
X140920428Y-108516000D01*
X140991857Y-108551714D01*
X141134714Y-108587428D01*
X141241857Y-108587428D01*
X141384714Y-108551714D01*
X141456142Y-108516000D01*
X141527571Y-108444571D01*
X141563285Y-108337428D01*
X141563285Y-108266000D01*
X141527571Y-108158857D01*
X141491857Y-108123142D01*
X141241857Y-108123142D01*
X141241857Y-108266000D01*
X141563285Y-107408857D02*
X141563285Y-107837428D01*
X141563285Y-107623142D02*
X140813285Y-107623142D01*
X140920428Y-107694571D01*
X140991857Y-107766000D01*
X141027571Y-107837428D01*
X139713857Y-109516000D02*
X139749571Y-109551714D01*
X139785285Y-109658857D01*
X139785285Y-109730285D01*
X139749571Y-109837428D01*
X139678142Y-109908857D01*
X139606714Y-109944571D01*
X139463857Y-109980285D01*
X139356714Y-109980285D01*
X139213857Y-109944571D01*
X139142428Y-109908857D01*
X139071000Y-109837428D01*
X139035285Y-109730285D01*
X139035285Y-109658857D01*
X139071000Y-109551714D01*
X139106714Y-109516000D01*
X139392428Y-108944571D02*
X139392428Y-109194571D01*
X139785285Y-109194571D02*
X139035285Y-109194571D01*
X139035285Y-108837428D01*
X139071000Y-108158857D02*
X139035285Y-108230285D01*
X139035285Y-108337428D01*
X139071000Y-108444571D01*
X139142428Y-108516000D01*
X139213857Y-108551714D01*
X139356714Y-108587428D01*
X139463857Y-108587428D01*
X139606714Y-108551714D01*
X139678142Y-108516000D01*
X139749571Y-108444571D01*
X139785285Y-108337428D01*
X139785285Y-108266000D01*
X139749571Y-108158857D01*
X139713857Y-108123142D01*
X139463857Y-108123142D01*
X139463857Y-108266000D01*
X139035285Y-107658857D02*
X139035285Y-107587428D01*
X139071000Y-107516000D01*
X139106714Y-107480285D01*
X139178142Y-107444571D01*
X139321000Y-107408857D01*
X139499571Y-107408857D01*
X139642428Y-107444571D01*
X139713857Y-107480285D01*
X139749571Y-107516000D01*
X139785285Y-107587428D01*
X139785285Y-107658857D01*
X139749571Y-107730285D01*
X139713857Y-107766000D01*
X139642428Y-107801714D01*
X139499571Y-107837428D01*
X139321000Y-107837428D01*
X139178142Y-107801714D01*
X139106714Y-107766000D01*
X139071000Y-107730285D01*
X139035285Y-107658857D01*
X137744857Y-103475285D02*
X138244857Y-103475285D01*
X137744857Y-104225285D01*
X138244857Y-104225285D01*
D11*
X127083333Y-56976190D02*
X127083333Y-57333333D01*
X127059523Y-57404761D01*
X127011904Y-57452380D01*
X126940476Y-57476190D01*
X126892857Y-57476190D01*
X127297619Y-57023809D02*
X127321428Y-57000000D01*
X127369047Y-56976190D01*
X127488095Y-56976190D01*
X127535714Y-57000000D01*
X127559523Y-57023809D01*
X127583333Y-57071428D01*
X127583333Y-57119047D01*
X127559523Y-57190476D01*
X127273809Y-57476190D01*
X127583333Y-57476190D01*
D12*
X125214285Y-52928571D02*
X124880952Y-52928571D01*
X124880952Y-53452380D02*
X124880952Y-52452380D01*
X125357142Y-52452380D01*
X126309523Y-53452380D02*
X125976190Y-52976190D01*
X125738095Y-53452380D02*
X125738095Y-52452380D01*
X126119047Y-52452380D01*
X126214285Y-52500000D01*
X126261904Y-52547619D01*
X126309523Y-52642857D01*
X126309523Y-52785714D01*
X126261904Y-52880952D01*
X126214285Y-52928571D01*
X126119047Y-52976190D01*
X125738095Y-52976190D01*
X126928571Y-52452380D02*
X127119047Y-52452380D01*
X127214285Y-52500000D01*
X127309523Y-52595238D01*
X127357142Y-52785714D01*
X127357142Y-53119047D01*
X127309523Y-53309523D01*
X127214285Y-53404761D01*
X127119047Y-53452380D01*
X126928571Y-53452380D01*
X126833333Y-53404761D01*
X126738095Y-53309523D01*
X126690476Y-53119047D01*
X126690476Y-52785714D01*
X126738095Y-52595238D01*
X126833333Y-52500000D01*
X126928571Y-52452380D01*
X127785714Y-53452380D02*
X127785714Y-52452380D01*
X128357142Y-53452380D01*
X128357142Y-52452380D01*
X128690476Y-52452380D02*
X129261904Y-52452380D01*
X128976190Y-53452380D02*
X128976190Y-52452380D01*
D11*
X131488666Y-79220190D02*
X131322000Y-78982095D01*
X131202952Y-79220190D02*
X131202952Y-78720190D01*
X131393428Y-78720190D01*
X131441047Y-78744000D01*
X131464857Y-78767809D01*
X131488666Y-78815428D01*
X131488666Y-78886857D01*
X131464857Y-78934476D01*
X131441047Y-78958285D01*
X131393428Y-78982095D01*
X131202952Y-78982095D01*
X131655333Y-78720190D02*
X131988666Y-78720190D01*
X131774380Y-79220190D01*
X130274190Y-66869428D02*
X130036095Y-67036095D01*
X130274190Y-67155142D02*
X129774190Y-67155142D01*
X129774190Y-66964666D01*
X129798000Y-66917047D01*
X129821809Y-66893238D01*
X129869428Y-66869428D01*
X129940857Y-66869428D01*
X129988476Y-66893238D01*
X130012285Y-66917047D01*
X130036095Y-66964666D01*
X130036095Y-67155142D01*
X129821809Y-66678952D02*
X129798000Y-66655142D01*
X129774190Y-66607523D01*
X129774190Y-66488476D01*
X129798000Y-66440857D01*
X129821809Y-66417047D01*
X129869428Y-66393238D01*
X129917047Y-66393238D01*
X129988476Y-66417047D01*
X130274190Y-66702761D01*
X130274190Y-66393238D01*
X129774190Y-66083714D02*
X129774190Y-66036095D01*
X129798000Y-65988476D01*
X129821809Y-65964666D01*
X129869428Y-65940857D01*
X129964666Y-65917047D01*
X130083714Y-65917047D01*
X130178952Y-65940857D01*
X130226571Y-65964666D01*
X130250380Y-65988476D01*
X130274190Y-66036095D01*
X130274190Y-66083714D01*
X130250380Y-66131333D01*
X130226571Y-66155142D01*
X130178952Y-66178952D01*
X130083714Y-66202761D01*
X129964666Y-66202761D01*
X129869428Y-66178952D01*
X129821809Y-66155142D01*
X129798000Y-66131333D01*
X129774190Y-66083714D01*
X125194190Y-76816428D02*
X124956095Y-76983095D01*
X125194190Y-77102142D02*
X124694190Y-77102142D01*
X124694190Y-76911666D01*
X124718000Y-76864047D01*
X124741809Y-76840238D01*
X124789428Y-76816428D01*
X124860857Y-76816428D01*
X124908476Y-76840238D01*
X124932285Y-76864047D01*
X124956095Y-76911666D01*
X124956095Y-77102142D01*
X124741809Y-76625952D02*
X124718000Y-76602142D01*
X124694190Y-76554523D01*
X124694190Y-76435476D01*
X124718000Y-76387857D01*
X124741809Y-76364047D01*
X124789428Y-76340238D01*
X124837047Y-76340238D01*
X124908476Y-76364047D01*
X125194190Y-76649761D01*
X125194190Y-76340238D01*
X125194190Y-75864047D02*
X125194190Y-76149761D01*
X125194190Y-76006904D02*
X124694190Y-76006904D01*
X124765619Y-76054523D01*
X124813238Y-76102142D01*
X124837047Y-76149761D01*
X111379047Y-93198190D02*
X111379047Y-93602952D01*
X111402857Y-93650571D01*
X111426666Y-93674380D01*
X111474285Y-93698190D01*
X111569523Y-93698190D01*
X111617142Y-93674380D01*
X111640952Y-93650571D01*
X111664761Y-93602952D01*
X111664761Y-93198190D01*
X112140952Y-93198190D02*
X111902857Y-93198190D01*
X111879047Y-93436285D01*
X111902857Y-93412476D01*
X111950476Y-93388666D01*
X112069523Y-93388666D01*
X112117142Y-93412476D01*
X112140952Y-93436285D01*
X112164761Y-93483904D01*
X112164761Y-93602952D01*
X112140952Y-93650571D01*
X112117142Y-93674380D01*
X112069523Y-93698190D01*
X111950476Y-93698190D01*
X111902857Y-93674380D01*
X111879047Y-93650571D01*
X123838571Y-66139190D02*
X123671904Y-65901095D01*
X123552857Y-66139190D02*
X123552857Y-65639190D01*
X123743333Y-65639190D01*
X123790952Y-65663000D01*
X123814761Y-65686809D01*
X123838571Y-65734428D01*
X123838571Y-65805857D01*
X123814761Y-65853476D01*
X123790952Y-65877285D01*
X123743333Y-65901095D01*
X123552857Y-65901095D01*
X124005238Y-65639190D02*
X124314761Y-65639190D01*
X124148095Y-65829666D01*
X124219523Y-65829666D01*
X124267142Y-65853476D01*
X124290952Y-65877285D01*
X124314761Y-65924904D01*
X124314761Y-66043952D01*
X124290952Y-66091571D01*
X124267142Y-66115380D01*
X124219523Y-66139190D01*
X124076666Y-66139190D01*
X124029047Y-66115380D01*
X124005238Y-66091571D01*
X124743333Y-65639190D02*
X124648095Y-65639190D01*
X124600476Y-65663000D01*
X124576666Y-65686809D01*
X124529047Y-65758238D01*
X124505238Y-65853476D01*
X124505238Y-66043952D01*
X124529047Y-66091571D01*
X124552857Y-66115380D01*
X124600476Y-66139190D01*
X124695714Y-66139190D01*
X124743333Y-66115380D01*
X124767142Y-66091571D01*
X124790952Y-66043952D01*
X124790952Y-65924904D01*
X124767142Y-65877285D01*
X124743333Y-65853476D01*
X124695714Y-65829666D01*
X124600476Y-65829666D01*
X124552857Y-65853476D01*
X124529047Y-65877285D01*
X124505238Y-65924904D01*
X123884571Y-93698190D02*
X123717904Y-93460095D01*
X123598857Y-93698190D02*
X123598857Y-93198190D01*
X123789333Y-93198190D01*
X123836952Y-93222000D01*
X123860761Y-93245809D01*
X123884571Y-93293428D01*
X123884571Y-93364857D01*
X123860761Y-93412476D01*
X123836952Y-93436285D01*
X123789333Y-93460095D01*
X123598857Y-93460095D01*
X124051238Y-93198190D02*
X124360761Y-93198190D01*
X124194095Y-93388666D01*
X124265523Y-93388666D01*
X124313142Y-93412476D01*
X124336952Y-93436285D01*
X124360761Y-93483904D01*
X124360761Y-93602952D01*
X124336952Y-93650571D01*
X124313142Y-93674380D01*
X124265523Y-93698190D01*
X124122666Y-93698190D01*
X124075047Y-93674380D01*
X124051238Y-93650571D01*
X124527428Y-93198190D02*
X124860761Y-93198190D01*
X124646476Y-93698190D01*
X123884571Y-92936190D02*
X123717904Y-92698095D01*
X123598857Y-92936190D02*
X123598857Y-92436190D01*
X123789333Y-92436190D01*
X123836952Y-92460000D01*
X123860761Y-92483809D01*
X123884571Y-92531428D01*
X123884571Y-92602857D01*
X123860761Y-92650476D01*
X123836952Y-92674285D01*
X123789333Y-92698095D01*
X123598857Y-92698095D01*
X124051238Y-92436190D02*
X124360761Y-92436190D01*
X124194095Y-92626666D01*
X124265523Y-92626666D01*
X124313142Y-92650476D01*
X124336952Y-92674285D01*
X124360761Y-92721904D01*
X124360761Y-92840952D01*
X124336952Y-92888571D01*
X124313142Y-92912380D01*
X124265523Y-92936190D01*
X124122666Y-92936190D01*
X124075047Y-92912380D01*
X124051238Y-92888571D01*
X124646476Y-92650476D02*
X124598857Y-92626666D01*
X124575047Y-92602857D01*
X124551238Y-92555238D01*
X124551238Y-92531428D01*
X124575047Y-92483809D01*
X124598857Y-92460000D01*
X124646476Y-92436190D01*
X124741714Y-92436190D01*
X124789333Y-92460000D01*
X124813142Y-92483809D01*
X124836952Y-92531428D01*
X124836952Y-92555238D01*
X124813142Y-92602857D01*
X124789333Y-92626666D01*
X124741714Y-92650476D01*
X124646476Y-92650476D01*
X124598857Y-92674285D01*
X124575047Y-92698095D01*
X124551238Y-92745714D01*
X124551238Y-92840952D01*
X124575047Y-92888571D01*
X124598857Y-92912380D01*
X124646476Y-92936190D01*
X124741714Y-92936190D01*
X124789333Y-92912380D01*
X124813142Y-92888571D01*
X124836952Y-92840952D01*
X124836952Y-92745714D01*
X124813142Y-92698095D01*
X124789333Y-92674285D01*
X124741714Y-92650476D01*
X143387047Y-97770190D02*
X143672761Y-97770190D01*
X143529904Y-98270190D02*
X143529904Y-97770190D01*
X143839428Y-98270190D02*
X143839428Y-97770190D01*
X144029904Y-97770190D01*
X144077523Y-97794000D01*
X144101333Y-97817809D01*
X144125142Y-97865428D01*
X144125142Y-97936857D01*
X144101333Y-97984476D01*
X144077523Y-98008285D01*
X144029904Y-98032095D01*
X143839428Y-98032095D01*
X144601333Y-98270190D02*
X144315619Y-98270190D01*
X144458476Y-98270190D02*
X144458476Y-97770190D01*
X144410857Y-97841619D01*
X144363238Y-97889238D01*
X144315619Y-97913047D01*
X108850952Y-79728190D02*
X108850952Y-79228190D01*
X108970000Y-79228190D01*
X109041428Y-79252000D01*
X109089047Y-79299619D01*
X109112857Y-79347238D01*
X109136666Y-79442476D01*
X109136666Y-79513904D01*
X109112857Y-79609142D01*
X109089047Y-79656761D01*
X109041428Y-79704380D01*
X108970000Y-79728190D01*
X108850952Y-79728190D01*
X109565238Y-79394857D02*
X109565238Y-79728190D01*
X109446190Y-79204380D02*
X109327142Y-79561523D01*
X109636666Y-79561523D01*
X143426666Y-91364571D02*
X143402857Y-91388380D01*
X143331428Y-91412190D01*
X143283809Y-91412190D01*
X143212380Y-91388380D01*
X143164761Y-91340761D01*
X143140952Y-91293142D01*
X143117142Y-91197904D01*
X143117142Y-91126476D01*
X143140952Y-91031238D01*
X143164761Y-90983619D01*
X143212380Y-90936000D01*
X143283809Y-90912190D01*
X143331428Y-90912190D01*
X143402857Y-90936000D01*
X143426666Y-90959809D01*
X143855238Y-90912190D02*
X143760000Y-90912190D01*
X143712380Y-90936000D01*
X143688571Y-90959809D01*
X143640952Y-91031238D01*
X143617142Y-91126476D01*
X143617142Y-91316952D01*
X143640952Y-91364571D01*
X143664761Y-91388380D01*
X143712380Y-91412190D01*
X143807619Y-91412190D01*
X143855238Y-91388380D01*
X143879047Y-91364571D01*
X143902857Y-91316952D01*
X143902857Y-91197904D01*
X143879047Y-91150285D01*
X143855238Y-91126476D01*
X143807619Y-91102666D01*
X143712380Y-91102666D01*
X143664761Y-91126476D01*
X143640952Y-91150285D01*
X143617142Y-91197904D01*
X143934666Y-64186571D02*
X143910857Y-64210380D01*
X143839428Y-64234190D01*
X143791809Y-64234190D01*
X143720380Y-64210380D01*
X143672761Y-64162761D01*
X143648952Y-64115142D01*
X143625142Y-64019904D01*
X143625142Y-63948476D01*
X143648952Y-63853238D01*
X143672761Y-63805619D01*
X143720380Y-63758000D01*
X143791809Y-63734190D01*
X143839428Y-63734190D01*
X143910857Y-63758000D01*
X143934666Y-63781809D01*
X144220380Y-63948476D02*
X144172761Y-63924666D01*
X144148952Y-63900857D01*
X144125142Y-63853238D01*
X144125142Y-63829428D01*
X144148952Y-63781809D01*
X144172761Y-63758000D01*
X144220380Y-63734190D01*
X144315619Y-63734190D01*
X144363238Y-63758000D01*
X144387047Y-63781809D01*
X144410857Y-63829428D01*
X144410857Y-63853238D01*
X144387047Y-63900857D01*
X144363238Y-63924666D01*
X144315619Y-63948476D01*
X144220380Y-63948476D01*
X144172761Y-63972285D01*
X144148952Y-63996095D01*
X144125142Y-64043714D01*
X144125142Y-64138952D01*
X144148952Y-64186571D01*
X144172761Y-64210380D01*
X144220380Y-64234190D01*
X144315619Y-64234190D01*
X144363238Y-64210380D01*
X144387047Y-64186571D01*
X144410857Y-64138952D01*
X144410857Y-64043714D01*
X144387047Y-63996095D01*
X144363238Y-63972285D01*
X144315619Y-63948476D01*
X129980571Y-77988571D02*
X129956761Y-78012380D01*
X129885333Y-78036190D01*
X129837714Y-78036190D01*
X129766285Y-78012380D01*
X129718666Y-77964761D01*
X129694857Y-77917142D01*
X129671047Y-77821904D01*
X129671047Y-77750476D01*
X129694857Y-77655238D01*
X129718666Y-77607619D01*
X129766285Y-77560000D01*
X129837714Y-77536190D01*
X129885333Y-77536190D01*
X129956761Y-77560000D01*
X129980571Y-77583809D01*
X130456761Y-78036190D02*
X130171047Y-78036190D01*
X130313904Y-78036190D02*
X130313904Y-77536190D01*
X130266285Y-77607619D01*
X130218666Y-77655238D01*
X130171047Y-77679047D01*
X130647238Y-77583809D02*
X130671047Y-77560000D01*
X130718666Y-77536190D01*
X130837714Y-77536190D01*
X130885333Y-77560000D01*
X130909142Y-77583809D01*
X130932952Y-77631428D01*
X130932952Y-77679047D01*
X130909142Y-77750476D01*
X130623428Y-78036190D01*
X130932952Y-78036190D01*
X141902666Y-91364571D02*
X141878857Y-91388380D01*
X141807428Y-91412190D01*
X141759809Y-91412190D01*
X141688380Y-91388380D01*
X141640761Y-91340761D01*
X141616952Y-91293142D01*
X141593142Y-91197904D01*
X141593142Y-91126476D01*
X141616952Y-91031238D01*
X141640761Y-90983619D01*
X141688380Y-90936000D01*
X141759809Y-90912190D01*
X141807428Y-90912190D01*
X141878857Y-90936000D01*
X141902666Y-90959809D01*
X142355047Y-90912190D02*
X142116952Y-90912190D01*
X142093142Y-91150285D01*
X142116952Y-91126476D01*
X142164571Y-91102666D01*
X142283619Y-91102666D01*
X142331238Y-91126476D01*
X142355047Y-91150285D01*
X142378857Y-91197904D01*
X142378857Y-91316952D01*
X142355047Y-91364571D01*
X142331238Y-91388380D01*
X142283619Y-91412190D01*
X142164571Y-91412190D01*
X142116952Y-91388380D01*
X142093142Y-91364571D01*
X132004571Y-100540333D02*
X132028380Y-100564142D01*
X132052190Y-100635571D01*
X132052190Y-100683190D01*
X132028380Y-100754619D01*
X131980761Y-100802238D01*
X131933142Y-100826047D01*
X131837904Y-100849857D01*
X131766476Y-100849857D01*
X131671238Y-100826047D01*
X131623619Y-100802238D01*
X131576000Y-100754619D01*
X131552190Y-100683190D01*
X131552190Y-100635571D01*
X131576000Y-100564142D01*
X131599809Y-100540333D01*
X132052190Y-100064142D02*
X132052190Y-100349857D01*
X132052190Y-100207000D02*
X131552190Y-100207000D01*
X131623619Y-100254619D01*
X131671238Y-100302238D01*
X131695047Y-100349857D01*
X143053571Y-76775428D02*
X143077380Y-76799238D01*
X143101190Y-76870666D01*
X143101190Y-76918285D01*
X143077380Y-76989714D01*
X143029761Y-77037333D01*
X142982142Y-77061142D01*
X142886904Y-77084952D01*
X142815476Y-77084952D01*
X142720238Y-77061142D01*
X142672619Y-77037333D01*
X142625000Y-76989714D01*
X142601190Y-76918285D01*
X142601190Y-76870666D01*
X142625000Y-76799238D01*
X142648809Y-76775428D01*
X143101190Y-76299238D02*
X143101190Y-76584952D01*
X143101190Y-76442095D02*
X142601190Y-76442095D01*
X142672619Y-76489714D01*
X142720238Y-76537333D01*
X142744047Y-76584952D01*
X143101190Y-75823047D02*
X143101190Y-76108761D01*
X143101190Y-75965904D02*
X142601190Y-75965904D01*
X142672619Y-76013523D01*
X142720238Y-76061142D01*
X142744047Y-76108761D01*
X126932571Y-78966190D02*
X126765904Y-78728095D01*
X126646857Y-78966190D02*
X126646857Y-78466190D01*
X126837333Y-78466190D01*
X126884952Y-78490000D01*
X126908761Y-78513809D01*
X126932571Y-78561428D01*
X126932571Y-78632857D01*
X126908761Y-78680476D01*
X126884952Y-78704285D01*
X126837333Y-78728095D01*
X126646857Y-78728095D01*
X127099238Y-78466190D02*
X127408761Y-78466190D01*
X127242095Y-78656666D01*
X127313523Y-78656666D01*
X127361142Y-78680476D01*
X127384952Y-78704285D01*
X127408761Y-78751904D01*
X127408761Y-78870952D01*
X127384952Y-78918571D01*
X127361142Y-78942380D01*
X127313523Y-78966190D01*
X127170666Y-78966190D01*
X127123047Y-78942380D01*
X127099238Y-78918571D01*
X127575428Y-78466190D02*
X127884952Y-78466190D01*
X127718285Y-78656666D01*
X127789714Y-78656666D01*
X127837333Y-78680476D01*
X127861142Y-78704285D01*
X127884952Y-78751904D01*
X127884952Y-78870952D01*
X127861142Y-78918571D01*
X127837333Y-78942380D01*
X127789714Y-78966190D01*
X127646857Y-78966190D01*
X127599238Y-78942380D01*
X127575428Y-78918571D01*
X138346666Y-71044571D02*
X138322857Y-71068380D01*
X138251428Y-71092190D01*
X138203809Y-71092190D01*
X138132380Y-71068380D01*
X138084761Y-71020761D01*
X138060952Y-70973142D01*
X138037142Y-70877904D01*
X138037142Y-70806476D01*
X138060952Y-70711238D01*
X138084761Y-70663619D01*
X138132380Y-70616000D01*
X138203809Y-70592190D01*
X138251428Y-70592190D01*
X138322857Y-70616000D01*
X138346666Y-70639809D01*
X138584761Y-71092190D02*
X138680000Y-71092190D01*
X138727619Y-71068380D01*
X138751428Y-71044571D01*
X138799047Y-70973142D01*
X138822857Y-70877904D01*
X138822857Y-70687428D01*
X138799047Y-70639809D01*
X138775238Y-70616000D01*
X138727619Y-70592190D01*
X138632380Y-70592190D01*
X138584761Y-70616000D01*
X138560952Y-70639809D01*
X138537142Y-70687428D01*
X138537142Y-70806476D01*
X138560952Y-70854095D01*
X138584761Y-70877904D01*
X138632380Y-70901714D01*
X138727619Y-70901714D01*
X138775238Y-70877904D01*
X138799047Y-70854095D01*
X138822857Y-70806476D01*
X139616666Y-81458571D02*
X139592857Y-81482380D01*
X139521428Y-81506190D01*
X139473809Y-81506190D01*
X139402380Y-81482380D01*
X139354761Y-81434761D01*
X139330952Y-81387142D01*
X139307142Y-81291904D01*
X139307142Y-81220476D01*
X139330952Y-81125238D01*
X139354761Y-81077619D01*
X139402380Y-81030000D01*
X139473809Y-81006190D01*
X139521428Y-81006190D01*
X139592857Y-81030000D01*
X139616666Y-81053809D01*
X139783333Y-81006190D02*
X140116666Y-81006190D01*
X139902380Y-81506190D01*
X133536571Y-66520190D02*
X133369904Y-66282095D01*
X133250857Y-66520190D02*
X133250857Y-66020190D01*
X133441333Y-66020190D01*
X133488952Y-66044000D01*
X133512761Y-66067809D01*
X133536571Y-66115428D01*
X133536571Y-66186857D01*
X133512761Y-66234476D01*
X133488952Y-66258285D01*
X133441333Y-66282095D01*
X133250857Y-66282095D01*
X134012761Y-66520190D02*
X133727047Y-66520190D01*
X133869904Y-66520190D02*
X133869904Y-66020190D01*
X133822285Y-66091619D01*
X133774666Y-66139238D01*
X133727047Y-66163047D01*
X134465142Y-66020190D02*
X134227047Y-66020190D01*
X134203238Y-66258285D01*
X134227047Y-66234476D01*
X134274666Y-66210666D01*
X134393714Y-66210666D01*
X134441333Y-66234476D01*
X134465142Y-66258285D01*
X134488952Y-66305904D01*
X134488952Y-66424952D01*
X134465142Y-66472571D01*
X134441333Y-66496380D01*
X134393714Y-66520190D01*
X134274666Y-66520190D01*
X134227047Y-66496380D01*
X134203238Y-66472571D01*
X138346666Y-72108190D02*
X138180000Y-71870095D01*
X138060952Y-72108190D02*
X138060952Y-71608190D01*
X138251428Y-71608190D01*
X138299047Y-71632000D01*
X138322857Y-71655809D01*
X138346666Y-71703428D01*
X138346666Y-71774857D01*
X138322857Y-71822476D01*
X138299047Y-71846285D01*
X138251428Y-71870095D01*
X138060952Y-71870095D01*
X138584761Y-72108190D02*
X138680000Y-72108190D01*
X138727619Y-72084380D01*
X138751428Y-72060571D01*
X138799047Y-71989142D01*
X138822857Y-71893904D01*
X138822857Y-71703428D01*
X138799047Y-71655809D01*
X138775238Y-71632000D01*
X138727619Y-71608190D01*
X138632380Y-71608190D01*
X138584761Y-71632000D01*
X138560952Y-71655809D01*
X138537142Y-71703428D01*
X138537142Y-71822476D01*
X138560952Y-71870095D01*
X138584761Y-71893904D01*
X138632380Y-71917714D01*
X138727619Y-71917714D01*
X138775238Y-71893904D01*
X138799047Y-71870095D01*
X138822857Y-71822476D01*
X133528571Y-83887428D02*
X133552380Y-83911238D01*
X133576190Y-83982666D01*
X133576190Y-84030285D01*
X133552380Y-84101714D01*
X133504761Y-84149333D01*
X133457142Y-84173142D01*
X133361904Y-84196952D01*
X133290476Y-84196952D01*
X133195238Y-84173142D01*
X133147619Y-84149333D01*
X133100000Y-84101714D01*
X133076190Y-84030285D01*
X133076190Y-83982666D01*
X133100000Y-83911238D01*
X133123809Y-83887428D01*
X133576190Y-83411238D02*
X133576190Y-83696952D01*
X133576190Y-83554095D02*
X133076190Y-83554095D01*
X133147619Y-83601714D01*
X133195238Y-83649333D01*
X133219047Y-83696952D01*
X133290476Y-83125523D02*
X133266666Y-83173142D01*
X133242857Y-83196952D01*
X133195238Y-83220761D01*
X133171428Y-83220761D01*
X133123809Y-83196952D01*
X133100000Y-83173142D01*
X133076190Y-83125523D01*
X133076190Y-83030285D01*
X133100000Y-82982666D01*
X133123809Y-82958857D01*
X133171428Y-82935047D01*
X133195238Y-82935047D01*
X133242857Y-82958857D01*
X133266666Y-82982666D01*
X133290476Y-83030285D01*
X133290476Y-83125523D01*
X133314285Y-83173142D01*
X133338095Y-83196952D01*
X133385714Y-83220761D01*
X133480952Y-83220761D01*
X133528571Y-83196952D01*
X133552380Y-83173142D01*
X133576190Y-83125523D01*
X133576190Y-83030285D01*
X133552380Y-82982666D01*
X133528571Y-82958857D01*
X133480952Y-82935047D01*
X133385714Y-82935047D01*
X133338095Y-82958857D01*
X133314285Y-82982666D01*
X133290476Y-83030285D01*
X108850952Y-97000190D02*
X108850952Y-96500190D01*
X108970000Y-96500190D01*
X109041428Y-96524000D01*
X109089047Y-96571619D01*
X109112857Y-96619238D01*
X109136666Y-96714476D01*
X109136666Y-96785904D01*
X109112857Y-96881142D01*
X109089047Y-96928761D01*
X109041428Y-96976380D01*
X108970000Y-97000190D01*
X108850952Y-97000190D01*
X109589047Y-96500190D02*
X109350952Y-96500190D01*
X109327142Y-96738285D01*
X109350952Y-96714476D01*
X109398571Y-96690666D01*
X109517619Y-96690666D01*
X109565238Y-96714476D01*
X109589047Y-96738285D01*
X109612857Y-96785904D01*
X109612857Y-96904952D01*
X109589047Y-96952571D01*
X109565238Y-96976380D01*
X109517619Y-97000190D01*
X109398571Y-97000190D01*
X109350952Y-96976380D01*
X109327142Y-96952571D01*
X136949666Y-84808190D02*
X136783000Y-84570095D01*
X136663952Y-84808190D02*
X136663952Y-84308190D01*
X136854428Y-84308190D01*
X136902047Y-84332000D01*
X136925857Y-84355809D01*
X136949666Y-84403428D01*
X136949666Y-84474857D01*
X136925857Y-84522476D01*
X136902047Y-84546285D01*
X136854428Y-84570095D01*
X136663952Y-84570095D01*
X137378238Y-84308190D02*
X137283000Y-84308190D01*
X137235380Y-84332000D01*
X137211571Y-84355809D01*
X137163952Y-84427238D01*
X137140142Y-84522476D01*
X137140142Y-84712952D01*
X137163952Y-84760571D01*
X137187761Y-84784380D01*
X137235380Y-84808190D01*
X137330619Y-84808190D01*
X137378238Y-84784380D01*
X137402047Y-84760571D01*
X137425857Y-84712952D01*
X137425857Y-84593904D01*
X137402047Y-84546285D01*
X137378238Y-84522476D01*
X137330619Y-84498666D01*
X137235380Y-84498666D01*
X137187761Y-84522476D01*
X137163952Y-84546285D01*
X137140142Y-84593904D01*
X144442666Y-70584190D02*
X144276000Y-70346095D01*
X144156952Y-70584190D02*
X144156952Y-70084190D01*
X144347428Y-70084190D01*
X144395047Y-70108000D01*
X144418857Y-70131809D01*
X144442666Y-70179428D01*
X144442666Y-70250857D01*
X144418857Y-70298476D01*
X144395047Y-70322285D01*
X144347428Y-70346095D01*
X144156952Y-70346095D01*
X144895047Y-70084190D02*
X144656952Y-70084190D01*
X144633142Y-70322285D01*
X144656952Y-70298476D01*
X144704571Y-70274666D01*
X144823619Y-70274666D01*
X144871238Y-70298476D01*
X144895047Y-70322285D01*
X144918857Y-70369904D01*
X144918857Y-70488952D01*
X144895047Y-70536571D01*
X144871238Y-70560380D01*
X144823619Y-70584190D01*
X144704571Y-70584190D01*
X144656952Y-70560380D01*
X144633142Y-70536571D01*
X124178190Y-74235428D02*
X123940095Y-74402095D01*
X124178190Y-74521142D02*
X123678190Y-74521142D01*
X123678190Y-74330666D01*
X123702000Y-74283047D01*
X123725809Y-74259238D01*
X123773428Y-74235428D01*
X123844857Y-74235428D01*
X123892476Y-74259238D01*
X123916285Y-74283047D01*
X123940095Y-74330666D01*
X123940095Y-74521142D01*
X123678190Y-74068761D02*
X123678190Y-73759238D01*
X123868666Y-73925904D01*
X123868666Y-73854476D01*
X123892476Y-73806857D01*
X123916285Y-73783047D01*
X123963904Y-73759238D01*
X124082952Y-73759238D01*
X124130571Y-73783047D01*
X124154380Y-73806857D01*
X124178190Y-73854476D01*
X124178190Y-73997333D01*
X124154380Y-74044952D01*
X124130571Y-74068761D01*
X123678190Y-73449714D02*
X123678190Y-73402095D01*
X123702000Y-73354476D01*
X123725809Y-73330666D01*
X123773428Y-73306857D01*
X123868666Y-73283047D01*
X123987714Y-73283047D01*
X124082952Y-73306857D01*
X124130571Y-73330666D01*
X124154380Y-73354476D01*
X124178190Y-73402095D01*
X124178190Y-73449714D01*
X124154380Y-73497333D01*
X124130571Y-73521142D01*
X124082952Y-73544952D01*
X123987714Y-73568761D01*
X123868666Y-73568761D01*
X123773428Y-73544952D01*
X123725809Y-73521142D01*
X123702000Y-73497333D01*
X123678190Y-73449714D01*
X123630571Y-70965190D02*
X123463904Y-70727095D01*
X123344857Y-70965190D02*
X123344857Y-70465190D01*
X123535333Y-70465190D01*
X123582952Y-70489000D01*
X123606761Y-70512809D01*
X123630571Y-70560428D01*
X123630571Y-70631857D01*
X123606761Y-70679476D01*
X123582952Y-70703285D01*
X123535333Y-70727095D01*
X123344857Y-70727095D01*
X123797238Y-70465190D02*
X124106761Y-70465190D01*
X123940095Y-70655666D01*
X124011523Y-70655666D01*
X124059142Y-70679476D01*
X124082952Y-70703285D01*
X124106761Y-70750904D01*
X124106761Y-70869952D01*
X124082952Y-70917571D01*
X124059142Y-70941380D01*
X124011523Y-70965190D01*
X123868666Y-70965190D01*
X123821047Y-70941380D01*
X123797238Y-70917571D01*
X124559142Y-70465190D02*
X124321047Y-70465190D01*
X124297238Y-70703285D01*
X124321047Y-70679476D01*
X124368666Y-70655666D01*
X124487714Y-70655666D01*
X124535333Y-70679476D01*
X124559142Y-70703285D01*
X124582952Y-70750904D01*
X124582952Y-70869952D01*
X124559142Y-70917571D01*
X124535333Y-70941380D01*
X124487714Y-70965190D01*
X124368666Y-70965190D01*
X124321047Y-70941380D01*
X124297238Y-70917571D01*
X121344571Y-78458190D02*
X121177904Y-78220095D01*
X121058857Y-78458190D02*
X121058857Y-77958190D01*
X121249333Y-77958190D01*
X121296952Y-77982000D01*
X121320761Y-78005809D01*
X121344571Y-78053428D01*
X121344571Y-78124857D01*
X121320761Y-78172476D01*
X121296952Y-78196285D01*
X121249333Y-78220095D01*
X121058857Y-78220095D01*
X121535047Y-78005809D02*
X121558857Y-77982000D01*
X121606476Y-77958190D01*
X121725523Y-77958190D01*
X121773142Y-77982000D01*
X121796952Y-78005809D01*
X121820761Y-78053428D01*
X121820761Y-78101047D01*
X121796952Y-78172476D01*
X121511238Y-78458190D01*
X121820761Y-78458190D01*
X122249333Y-77958190D02*
X122154095Y-77958190D01*
X122106476Y-77982000D01*
X122082666Y-78005809D01*
X122035047Y-78077238D01*
X122011238Y-78172476D01*
X122011238Y-78362952D01*
X122035047Y-78410571D01*
X122058857Y-78434380D01*
X122106476Y-78458190D01*
X122201714Y-78458190D01*
X122249333Y-78434380D01*
X122273142Y-78410571D01*
X122296952Y-78362952D01*
X122296952Y-78243904D01*
X122273142Y-78196285D01*
X122249333Y-78172476D01*
X122201714Y-78148666D01*
X122106476Y-78148666D01*
X122058857Y-78172476D01*
X122035047Y-78196285D01*
X122011238Y-78243904D01*
X114780190Y-103191428D02*
X114542095Y-103358095D01*
X114780190Y-103477142D02*
X114280190Y-103477142D01*
X114280190Y-103286666D01*
X114304000Y-103239047D01*
X114327809Y-103215238D01*
X114375428Y-103191428D01*
X114446857Y-103191428D01*
X114494476Y-103215238D01*
X114518285Y-103239047D01*
X114542095Y-103286666D01*
X114542095Y-103477142D01*
X114327809Y-103000952D02*
X114304000Y-102977142D01*
X114280190Y-102929523D01*
X114280190Y-102810476D01*
X114304000Y-102762857D01*
X114327809Y-102739047D01*
X114375428Y-102715238D01*
X114423047Y-102715238D01*
X114494476Y-102739047D01*
X114780190Y-103024761D01*
X114780190Y-102715238D01*
X114780190Y-102477142D02*
X114780190Y-102381904D01*
X114756380Y-102334285D01*
X114732571Y-102310476D01*
X114661142Y-102262857D01*
X114565904Y-102239047D01*
X114375428Y-102239047D01*
X114327809Y-102262857D01*
X114304000Y-102286666D01*
X114280190Y-102334285D01*
X114280190Y-102429523D01*
X114304000Y-102477142D01*
X114327809Y-102500952D01*
X114375428Y-102524761D01*
X114494476Y-102524761D01*
X114542095Y-102500952D01*
X114565904Y-102477142D01*
X114589714Y-102429523D01*
X114589714Y-102334285D01*
X114565904Y-102286666D01*
X114542095Y-102262857D01*
X114494476Y-102239047D01*
X125027571Y-70965190D02*
X124860904Y-70727095D01*
X124741857Y-70965190D02*
X124741857Y-70465190D01*
X124932333Y-70465190D01*
X124979952Y-70489000D01*
X125003761Y-70512809D01*
X125027571Y-70560428D01*
X125027571Y-70631857D01*
X125003761Y-70679476D01*
X124979952Y-70703285D01*
X124932333Y-70727095D01*
X124741857Y-70727095D01*
X125194238Y-70465190D02*
X125503761Y-70465190D01*
X125337095Y-70655666D01*
X125408523Y-70655666D01*
X125456142Y-70679476D01*
X125479952Y-70703285D01*
X125503761Y-70750904D01*
X125503761Y-70869952D01*
X125479952Y-70917571D01*
X125456142Y-70941380D01*
X125408523Y-70965190D01*
X125265666Y-70965190D01*
X125218047Y-70941380D01*
X125194238Y-70917571D01*
X125979952Y-70965190D02*
X125694238Y-70965190D01*
X125837095Y-70965190D02*
X125837095Y-70465190D01*
X125789476Y-70536619D01*
X125741857Y-70584238D01*
X125694238Y-70608047D01*
X142680571Y-107922190D02*
X142513904Y-107684095D01*
X142394857Y-107922190D02*
X142394857Y-107422190D01*
X142585333Y-107422190D01*
X142632952Y-107446000D01*
X142656761Y-107469809D01*
X142680571Y-107517428D01*
X142680571Y-107588857D01*
X142656761Y-107636476D01*
X142632952Y-107660285D01*
X142585333Y-107684095D01*
X142394857Y-107684095D01*
X143156761Y-107922190D02*
X142871047Y-107922190D01*
X143013904Y-107922190D02*
X143013904Y-107422190D01*
X142966285Y-107493619D01*
X142918666Y-107541238D01*
X142871047Y-107565047D01*
X143585333Y-107422190D02*
X143490095Y-107422190D01*
X143442476Y-107446000D01*
X143418666Y-107469809D01*
X143371047Y-107541238D01*
X143347238Y-107636476D01*
X143347238Y-107826952D01*
X143371047Y-107874571D01*
X143394857Y-107898380D01*
X143442476Y-107922190D01*
X143537714Y-107922190D01*
X143585333Y-107898380D01*
X143609142Y-107874571D01*
X143632952Y-107826952D01*
X143632952Y-107707904D01*
X143609142Y-107660285D01*
X143585333Y-107636476D01*
X143537714Y-107612666D01*
X143442476Y-107612666D01*
X143394857Y-107636476D01*
X143371047Y-107660285D01*
X143347238Y-107707904D01*
X132560190Y-83887428D02*
X132322095Y-84054095D01*
X132560190Y-84173142D02*
X132060190Y-84173142D01*
X132060190Y-83982666D01*
X132084000Y-83935047D01*
X132107809Y-83911238D01*
X132155428Y-83887428D01*
X132226857Y-83887428D01*
X132274476Y-83911238D01*
X132298285Y-83935047D01*
X132322095Y-83982666D01*
X132322095Y-84173142D01*
X132560190Y-83411238D02*
X132560190Y-83696952D01*
X132560190Y-83554095D02*
X132060190Y-83554095D01*
X132131619Y-83601714D01*
X132179238Y-83649333D01*
X132203047Y-83696952D01*
X132274476Y-83125523D02*
X132250666Y-83173142D01*
X132226857Y-83196952D01*
X132179238Y-83220761D01*
X132155428Y-83220761D01*
X132107809Y-83196952D01*
X132084000Y-83173142D01*
X132060190Y-83125523D01*
X132060190Y-83030285D01*
X132084000Y-82982666D01*
X132107809Y-82958857D01*
X132155428Y-82935047D01*
X132179238Y-82935047D01*
X132226857Y-82958857D01*
X132250666Y-82982666D01*
X132274476Y-83030285D01*
X132274476Y-83125523D01*
X132298285Y-83173142D01*
X132322095Y-83196952D01*
X132369714Y-83220761D01*
X132464952Y-83220761D01*
X132512571Y-83196952D01*
X132536380Y-83173142D01*
X132560190Y-83125523D01*
X132560190Y-83030285D01*
X132536380Y-82982666D01*
X132512571Y-82958857D01*
X132464952Y-82935047D01*
X132369714Y-82935047D01*
X132322095Y-82958857D01*
X132298285Y-82982666D01*
X132274476Y-83030285D01*
X140775571Y-69949190D02*
X140608904Y-69711095D01*
X140489857Y-69949190D02*
X140489857Y-69449190D01*
X140680333Y-69449190D01*
X140727952Y-69473000D01*
X140751761Y-69496809D01*
X140775571Y-69544428D01*
X140775571Y-69615857D01*
X140751761Y-69663476D01*
X140727952Y-69687285D01*
X140680333Y-69711095D01*
X140489857Y-69711095D01*
X140966047Y-69496809D02*
X140989857Y-69473000D01*
X141037476Y-69449190D01*
X141156523Y-69449190D01*
X141204142Y-69473000D01*
X141227952Y-69496809D01*
X141251761Y-69544428D01*
X141251761Y-69592047D01*
X141227952Y-69663476D01*
X140942238Y-69949190D01*
X141251761Y-69949190D01*
X141442238Y-69496809D02*
X141466047Y-69473000D01*
X141513666Y-69449190D01*
X141632714Y-69449190D01*
X141680333Y-69473000D01*
X141704142Y-69496809D01*
X141727952Y-69544428D01*
X141727952Y-69592047D01*
X141704142Y-69663476D01*
X141418428Y-69949190D01*
X141727952Y-69949190D01*
X126424571Y-65250190D02*
X126257904Y-65012095D01*
X126138857Y-65250190D02*
X126138857Y-64750190D01*
X126329333Y-64750190D01*
X126376952Y-64774000D01*
X126400761Y-64797809D01*
X126424571Y-64845428D01*
X126424571Y-64916857D01*
X126400761Y-64964476D01*
X126376952Y-64988285D01*
X126329333Y-65012095D01*
X126138857Y-65012095D01*
X126615047Y-64797809D02*
X126638857Y-64774000D01*
X126686476Y-64750190D01*
X126805523Y-64750190D01*
X126853142Y-64774000D01*
X126876952Y-64797809D01*
X126900761Y-64845428D01*
X126900761Y-64893047D01*
X126876952Y-64964476D01*
X126591238Y-65250190D01*
X126900761Y-65250190D01*
X127067428Y-64750190D02*
X127400761Y-64750190D01*
X127186476Y-65250190D01*
X126932571Y-78204190D02*
X126765904Y-77966095D01*
X126646857Y-78204190D02*
X126646857Y-77704190D01*
X126837333Y-77704190D01*
X126884952Y-77728000D01*
X126908761Y-77751809D01*
X126932571Y-77799428D01*
X126932571Y-77870857D01*
X126908761Y-77918476D01*
X126884952Y-77942285D01*
X126837333Y-77966095D01*
X126646857Y-77966095D01*
X127099238Y-77704190D02*
X127408761Y-77704190D01*
X127242095Y-77894666D01*
X127313523Y-77894666D01*
X127361142Y-77918476D01*
X127384952Y-77942285D01*
X127408761Y-77989904D01*
X127408761Y-78108952D01*
X127384952Y-78156571D01*
X127361142Y-78180380D01*
X127313523Y-78204190D01*
X127170666Y-78204190D01*
X127123047Y-78180380D01*
X127099238Y-78156571D01*
X127599238Y-77751809D02*
X127623047Y-77728000D01*
X127670666Y-77704190D01*
X127789714Y-77704190D01*
X127837333Y-77728000D01*
X127861142Y-77751809D01*
X127884952Y-77799428D01*
X127884952Y-77847047D01*
X127861142Y-77918476D01*
X127575428Y-78204190D01*
X127884952Y-78204190D01*
X130651350Y-65758190D02*
X130484683Y-65520095D01*
X130365636Y-65758190D02*
X130365636Y-65258190D01*
X130556112Y-65258190D01*
X130603731Y-65282000D01*
X130627540Y-65305809D01*
X130651350Y-65353428D01*
X130651350Y-65424857D01*
X130627540Y-65472476D01*
X130603731Y-65496285D01*
X130556112Y-65520095D01*
X130365636Y-65520095D01*
X131127540Y-65758190D02*
X130841826Y-65758190D01*
X130984683Y-65758190D02*
X130984683Y-65258190D01*
X130937064Y-65329619D01*
X130889445Y-65377238D01*
X130841826Y-65401047D01*
X131365636Y-65758190D02*
X131460874Y-65758190D01*
X131508493Y-65734380D01*
X131532302Y-65710571D01*
X131579921Y-65639142D01*
X131603731Y-65543904D01*
X131603731Y-65353428D01*
X131579921Y-65305809D01*
X131556112Y-65282000D01*
X131508493Y-65258190D01*
X131413255Y-65258190D01*
X131365636Y-65282000D01*
X131341826Y-65305809D01*
X131318017Y-65353428D01*
X131318017Y-65472476D01*
X131341826Y-65520095D01*
X131365636Y-65543904D01*
X131413255Y-65567714D01*
X131508493Y-65567714D01*
X131556112Y-65543904D01*
X131579921Y-65520095D01*
X131603731Y-65472476D01*
X130020190Y-80331428D02*
X129782095Y-80498095D01*
X130020190Y-80617142D02*
X129520190Y-80617142D01*
X129520190Y-80426666D01*
X129544000Y-80379047D01*
X129567809Y-80355238D01*
X129615428Y-80331428D01*
X129686857Y-80331428D01*
X129734476Y-80355238D01*
X129758285Y-80379047D01*
X129782095Y-80426666D01*
X129782095Y-80617142D01*
X129567809Y-80140952D02*
X129544000Y-80117142D01*
X129520190Y-80069523D01*
X129520190Y-79950476D01*
X129544000Y-79902857D01*
X129567809Y-79879047D01*
X129615428Y-79855238D01*
X129663047Y-79855238D01*
X129734476Y-79879047D01*
X130020190Y-80164761D01*
X130020190Y-79855238D01*
X129734476Y-79569523D02*
X129710666Y-79617142D01*
X129686857Y-79640952D01*
X129639238Y-79664761D01*
X129615428Y-79664761D01*
X129567809Y-79640952D01*
X129544000Y-79617142D01*
X129520190Y-79569523D01*
X129520190Y-79474285D01*
X129544000Y-79426666D01*
X129567809Y-79402857D01*
X129615428Y-79379047D01*
X129639238Y-79379047D01*
X129686857Y-79402857D01*
X129710666Y-79426666D01*
X129734476Y-79474285D01*
X129734476Y-79569523D01*
X129758285Y-79617142D01*
X129782095Y-79640952D01*
X129829714Y-79664761D01*
X129924952Y-79664761D01*
X129972571Y-79640952D01*
X129996380Y-79617142D01*
X130020190Y-79569523D01*
X130020190Y-79474285D01*
X129996380Y-79426666D01*
X129972571Y-79402857D01*
X129924952Y-79379047D01*
X129829714Y-79379047D01*
X129782095Y-79402857D01*
X129758285Y-79426666D01*
X129734476Y-79474285D01*
X133155571Y-67282190D02*
X132988904Y-67044095D01*
X132869857Y-67282190D02*
X132869857Y-66782190D01*
X133060333Y-66782190D01*
X133107952Y-66806000D01*
X133131761Y-66829809D01*
X133155571Y-66877428D01*
X133155571Y-66948857D01*
X133131761Y-66996476D01*
X133107952Y-67020285D01*
X133060333Y-67044095D01*
X132869857Y-67044095D01*
X133631761Y-67282190D02*
X133346047Y-67282190D01*
X133488904Y-67282190D02*
X133488904Y-66782190D01*
X133441285Y-66853619D01*
X133393666Y-66901238D01*
X133346047Y-66925047D01*
X134060333Y-66948857D02*
X134060333Y-67282190D01*
X133941285Y-66758380D02*
X133822238Y-67115523D01*
X134131761Y-67115523D01*
X131798190Y-66869428D02*
X131560095Y-67036095D01*
X131798190Y-67155142D02*
X131298190Y-67155142D01*
X131298190Y-66964666D01*
X131322000Y-66917047D01*
X131345809Y-66893238D01*
X131393428Y-66869428D01*
X131464857Y-66869428D01*
X131512476Y-66893238D01*
X131536285Y-66917047D01*
X131560095Y-66964666D01*
X131560095Y-67155142D01*
X131798190Y-66393238D02*
X131798190Y-66678952D01*
X131798190Y-66536095D02*
X131298190Y-66536095D01*
X131369619Y-66583714D01*
X131417238Y-66631333D01*
X131441047Y-66678952D01*
X131298190Y-66226571D02*
X131298190Y-65893238D01*
X131798190Y-66107523D01*
X137727571Y-69949190D02*
X137560904Y-69711095D01*
X137441857Y-69949190D02*
X137441857Y-69449190D01*
X137632333Y-69449190D01*
X137679952Y-69473000D01*
X137703761Y-69496809D01*
X137727571Y-69544428D01*
X137727571Y-69615857D01*
X137703761Y-69663476D01*
X137679952Y-69687285D01*
X137632333Y-69711095D01*
X137441857Y-69711095D01*
X137918047Y-69496809D02*
X137941857Y-69473000D01*
X137989476Y-69449190D01*
X138108523Y-69449190D01*
X138156142Y-69473000D01*
X138179952Y-69496809D01*
X138203761Y-69544428D01*
X138203761Y-69592047D01*
X138179952Y-69663476D01*
X137894238Y-69949190D01*
X138203761Y-69949190D01*
X138632333Y-69615857D02*
X138632333Y-69949190D01*
X138513285Y-69425380D02*
X138394238Y-69782523D01*
X138703761Y-69782523D01*
X111184571Y-94920571D02*
X111160761Y-94944380D01*
X111089333Y-94968190D01*
X111041714Y-94968190D01*
X110970285Y-94944380D01*
X110922666Y-94896761D01*
X110898857Y-94849142D01*
X110875047Y-94753904D01*
X110875047Y-94682476D01*
X110898857Y-94587238D01*
X110922666Y-94539619D01*
X110970285Y-94492000D01*
X111041714Y-94468190D01*
X111089333Y-94468190D01*
X111160761Y-94492000D01*
X111184571Y-94515809D01*
X111375047Y-94515809D02*
X111398857Y-94492000D01*
X111446476Y-94468190D01*
X111565523Y-94468190D01*
X111613142Y-94492000D01*
X111636952Y-94515809D01*
X111660761Y-94563428D01*
X111660761Y-94611047D01*
X111636952Y-94682476D01*
X111351238Y-94968190D01*
X111660761Y-94968190D01*
X111827428Y-94468190D02*
X112160761Y-94468190D01*
X111946476Y-94968190D01*
X129464571Y-85441678D02*
X129488380Y-85465488D01*
X129512190Y-85536916D01*
X129512190Y-85584535D01*
X129488380Y-85655964D01*
X129440761Y-85703583D01*
X129393142Y-85727392D01*
X129297904Y-85751202D01*
X129226476Y-85751202D01*
X129131238Y-85727392D01*
X129083619Y-85703583D01*
X129036000Y-85655964D01*
X129012190Y-85584535D01*
X129012190Y-85536916D01*
X129036000Y-85465488D01*
X129059809Y-85441678D01*
X129012190Y-85275011D02*
X129012190Y-84965488D01*
X129202666Y-85132154D01*
X129202666Y-85060726D01*
X129226476Y-85013107D01*
X129250285Y-84989297D01*
X129297904Y-84965488D01*
X129416952Y-84965488D01*
X129464571Y-84989297D01*
X129488380Y-85013107D01*
X129512190Y-85060726D01*
X129512190Y-85203583D01*
X129488380Y-85251202D01*
X129464571Y-85275011D01*
X129178857Y-84536916D02*
X129512190Y-84536916D01*
X128988380Y-84655964D02*
X129345523Y-84775011D01*
X129345523Y-84465488D01*
X122360571Y-79934571D02*
X122336761Y-79958380D01*
X122265333Y-79982190D01*
X122217714Y-79982190D01*
X122146285Y-79958380D01*
X122098666Y-79910761D01*
X122074857Y-79863142D01*
X122051047Y-79767904D01*
X122051047Y-79696476D01*
X122074857Y-79601238D01*
X122098666Y-79553619D01*
X122146285Y-79506000D01*
X122217714Y-79482190D01*
X122265333Y-79482190D01*
X122336761Y-79506000D01*
X122360571Y-79529809D01*
X122551047Y-79529809D02*
X122574857Y-79506000D01*
X122622476Y-79482190D01*
X122741523Y-79482190D01*
X122789142Y-79506000D01*
X122812952Y-79529809D01*
X122836761Y-79577428D01*
X122836761Y-79625047D01*
X122812952Y-79696476D01*
X122527238Y-79982190D01*
X122836761Y-79982190D01*
X123312952Y-79982190D02*
X123027238Y-79982190D01*
X123170095Y-79982190D02*
X123170095Y-79482190D01*
X123122476Y-79553619D01*
X123074857Y-79601238D01*
X123027238Y-79625047D01*
X120836571Y-79934571D02*
X120812761Y-79958380D01*
X120741333Y-79982190D01*
X120693714Y-79982190D01*
X120622285Y-79958380D01*
X120574666Y-79910761D01*
X120550857Y-79863142D01*
X120527047Y-79767904D01*
X120527047Y-79696476D01*
X120550857Y-79601238D01*
X120574666Y-79553619D01*
X120622285Y-79506000D01*
X120693714Y-79482190D01*
X120741333Y-79482190D01*
X120812761Y-79506000D01*
X120836571Y-79529809D01*
X121027047Y-79529809D02*
X121050857Y-79506000D01*
X121098476Y-79482190D01*
X121217523Y-79482190D01*
X121265142Y-79506000D01*
X121288952Y-79529809D01*
X121312761Y-79577428D01*
X121312761Y-79625047D01*
X121288952Y-79696476D01*
X121003238Y-79982190D01*
X121312761Y-79982190D01*
X121503238Y-79529809D02*
X121527047Y-79506000D01*
X121574666Y-79482190D01*
X121693714Y-79482190D01*
X121741333Y-79506000D01*
X121765142Y-79529809D01*
X121788952Y-79577428D01*
X121788952Y-79625047D01*
X121765142Y-79696476D01*
X121479428Y-79982190D01*
X121788952Y-79982190D01*
X114986571Y-93031428D02*
X115010380Y-93055238D01*
X115034190Y-93126666D01*
X115034190Y-93174285D01*
X115010380Y-93245714D01*
X114962761Y-93293333D01*
X114915142Y-93317142D01*
X114819904Y-93340952D01*
X114748476Y-93340952D01*
X114653238Y-93317142D01*
X114605619Y-93293333D01*
X114558000Y-93245714D01*
X114534190Y-93174285D01*
X114534190Y-93126666D01*
X114558000Y-93055238D01*
X114581809Y-93031428D01*
X114534190Y-92864761D02*
X114534190Y-92555238D01*
X114724666Y-92721904D01*
X114724666Y-92650476D01*
X114748476Y-92602857D01*
X114772285Y-92579047D01*
X114819904Y-92555238D01*
X114938952Y-92555238D01*
X114986571Y-92579047D01*
X115010380Y-92602857D01*
X115034190Y-92650476D01*
X115034190Y-92793333D01*
X115010380Y-92840952D01*
X114986571Y-92864761D01*
X114581809Y-92364761D02*
X114558000Y-92340952D01*
X114534190Y-92293333D01*
X114534190Y-92174285D01*
X114558000Y-92126666D01*
X114581809Y-92102857D01*
X114629428Y-92079047D01*
X114677047Y-92079047D01*
X114748476Y-92102857D01*
X115034190Y-92388571D01*
X115034190Y-92079047D01*
X112954571Y-91253428D02*
X112978380Y-91277238D01*
X113002190Y-91348666D01*
X113002190Y-91396285D01*
X112978380Y-91467714D01*
X112930761Y-91515333D01*
X112883142Y-91539142D01*
X112787904Y-91562952D01*
X112716476Y-91562952D01*
X112621238Y-91539142D01*
X112573619Y-91515333D01*
X112526000Y-91467714D01*
X112502190Y-91396285D01*
X112502190Y-91348666D01*
X112526000Y-91277238D01*
X112549809Y-91253428D01*
X112549809Y-91062952D02*
X112526000Y-91039142D01*
X112502190Y-90991523D01*
X112502190Y-90872476D01*
X112526000Y-90824857D01*
X112549809Y-90801047D01*
X112597428Y-90777238D01*
X112645047Y-90777238D01*
X112716476Y-90801047D01*
X113002190Y-91086761D01*
X113002190Y-90777238D01*
X112502190Y-90324857D02*
X112502190Y-90562952D01*
X112740285Y-90586761D01*
X112716476Y-90562952D01*
X112692666Y-90515333D01*
X112692666Y-90396285D01*
X112716476Y-90348666D01*
X112740285Y-90324857D01*
X112787904Y-90301047D01*
X112906952Y-90301047D01*
X112954571Y-90324857D01*
X112978380Y-90348666D01*
X113002190Y-90396285D01*
X113002190Y-90515333D01*
X112978380Y-90562952D01*
X112954571Y-90586761D01*
X113970571Y-91253428D02*
X113994380Y-91277238D01*
X114018190Y-91348666D01*
X114018190Y-91396285D01*
X113994380Y-91467714D01*
X113946761Y-91515333D01*
X113899142Y-91539142D01*
X113803904Y-91562952D01*
X113732476Y-91562952D01*
X113637238Y-91539142D01*
X113589619Y-91515333D01*
X113542000Y-91467714D01*
X113518190Y-91396285D01*
X113518190Y-91348666D01*
X113542000Y-91277238D01*
X113565809Y-91253428D01*
X113565809Y-91062952D02*
X113542000Y-91039142D01*
X113518190Y-90991523D01*
X113518190Y-90872476D01*
X113542000Y-90824857D01*
X113565809Y-90801047D01*
X113613428Y-90777238D01*
X113661047Y-90777238D01*
X113732476Y-90801047D01*
X114018190Y-91086761D01*
X114018190Y-90777238D01*
X113518190Y-90348666D02*
X113518190Y-90443904D01*
X113542000Y-90491523D01*
X113565809Y-90515333D01*
X113637238Y-90562952D01*
X113732476Y-90586761D01*
X113922952Y-90586761D01*
X113970571Y-90562952D01*
X113994380Y-90539142D01*
X114018190Y-90491523D01*
X114018190Y-90396285D01*
X113994380Y-90348666D01*
X113970571Y-90324857D01*
X113922952Y-90301047D01*
X113803904Y-90301047D01*
X113756285Y-90324857D01*
X113732476Y-90348666D01*
X113708666Y-90396285D01*
X113708666Y-90491523D01*
X113732476Y-90539142D01*
X113756285Y-90562952D01*
X113803904Y-90586761D01*
X139378571Y-64948571D02*
X139354761Y-64972380D01*
X139283333Y-64996190D01*
X139235714Y-64996190D01*
X139164285Y-64972380D01*
X139116666Y-64924761D01*
X139092857Y-64877142D01*
X139069047Y-64781904D01*
X139069047Y-64710476D01*
X139092857Y-64615238D01*
X139116666Y-64567619D01*
X139164285Y-64520000D01*
X139235714Y-64496190D01*
X139283333Y-64496190D01*
X139354761Y-64520000D01*
X139378571Y-64543809D01*
X139545238Y-64496190D02*
X139854761Y-64496190D01*
X139688095Y-64686666D01*
X139759523Y-64686666D01*
X139807142Y-64710476D01*
X139830952Y-64734285D01*
X139854761Y-64781904D01*
X139854761Y-64900952D01*
X139830952Y-64948571D01*
X139807142Y-64972380D01*
X139759523Y-64996190D01*
X139616666Y-64996190D01*
X139569047Y-64972380D01*
X139545238Y-64948571D01*
X140330952Y-64996190D02*
X140045238Y-64996190D01*
X140188095Y-64996190D02*
X140188095Y-64496190D01*
X140140476Y-64567619D01*
X140092857Y-64615238D01*
X140045238Y-64639047D01*
X129210571Y-80331428D02*
X129234380Y-80355238D01*
X129258190Y-80426666D01*
X129258190Y-80474285D01*
X129234380Y-80545714D01*
X129186761Y-80593333D01*
X129139142Y-80617142D01*
X129043904Y-80640952D01*
X128972476Y-80640952D01*
X128877238Y-80617142D01*
X128829619Y-80593333D01*
X128782000Y-80545714D01*
X128758190Y-80474285D01*
X128758190Y-80426666D01*
X128782000Y-80355238D01*
X128805809Y-80331428D01*
X128758190Y-80164761D02*
X128758190Y-79855238D01*
X128948666Y-80021904D01*
X128948666Y-79950476D01*
X128972476Y-79902857D01*
X128996285Y-79879047D01*
X129043904Y-79855238D01*
X129162952Y-79855238D01*
X129210571Y-79879047D01*
X129234380Y-79902857D01*
X129258190Y-79950476D01*
X129258190Y-80093333D01*
X129234380Y-80140952D01*
X129210571Y-80164761D01*
X128758190Y-79688571D02*
X128758190Y-79379047D01*
X128948666Y-79545714D01*
X128948666Y-79474285D01*
X128972476Y-79426666D01*
X128996285Y-79402857D01*
X129043904Y-79379047D01*
X129162952Y-79379047D01*
X129210571Y-79402857D01*
X129234380Y-79426666D01*
X129258190Y-79474285D01*
X129258190Y-79617142D01*
X129234380Y-79664761D01*
X129210571Y-79688571D01*
X112406952Y-96746190D02*
X112406952Y-96246190D01*
X112526000Y-96246190D01*
X112597428Y-96270000D01*
X112645047Y-96317619D01*
X112668857Y-96365238D01*
X112692666Y-96460476D01*
X112692666Y-96531904D01*
X112668857Y-96627142D01*
X112645047Y-96674761D01*
X112597428Y-96722380D01*
X112526000Y-96746190D01*
X112406952Y-96746190D01*
X113168857Y-96746190D02*
X112883142Y-96746190D01*
X113026000Y-96746190D02*
X113026000Y-96246190D01*
X112978380Y-96317619D01*
X112930761Y-96365238D01*
X112883142Y-96389047D01*
X111184571Y-95682571D02*
X111160761Y-95706380D01*
X111089333Y-95730190D01*
X111041714Y-95730190D01*
X110970285Y-95706380D01*
X110922666Y-95658761D01*
X110898857Y-95611142D01*
X110875047Y-95515904D01*
X110875047Y-95444476D01*
X110898857Y-95349238D01*
X110922666Y-95301619D01*
X110970285Y-95254000D01*
X111041714Y-95230190D01*
X111089333Y-95230190D01*
X111160761Y-95254000D01*
X111184571Y-95277809D01*
X111375047Y-95277809D02*
X111398857Y-95254000D01*
X111446476Y-95230190D01*
X111565523Y-95230190D01*
X111613142Y-95254000D01*
X111636952Y-95277809D01*
X111660761Y-95325428D01*
X111660761Y-95373047D01*
X111636952Y-95444476D01*
X111351238Y-95730190D01*
X111660761Y-95730190D01*
X111946476Y-95444476D02*
X111898857Y-95420666D01*
X111875047Y-95396857D01*
X111851238Y-95349238D01*
X111851238Y-95325428D01*
X111875047Y-95277809D01*
X111898857Y-95254000D01*
X111946476Y-95230190D01*
X112041714Y-95230190D01*
X112089333Y-95254000D01*
X112113142Y-95277809D01*
X112136952Y-95325428D01*
X112136952Y-95349238D01*
X112113142Y-95396857D01*
X112089333Y-95420666D01*
X112041714Y-95444476D01*
X111946476Y-95444476D01*
X111898857Y-95468285D01*
X111875047Y-95492095D01*
X111851238Y-95539714D01*
X111851238Y-95634952D01*
X111875047Y-95682571D01*
X111898857Y-95706380D01*
X111946476Y-95730190D01*
X112041714Y-95730190D01*
X112089333Y-95706380D01*
X112113142Y-95682571D01*
X112136952Y-95634952D01*
X112136952Y-95539714D01*
X112113142Y-95492095D01*
X112089333Y-95468285D01*
X112041714Y-95444476D01*
X110628952Y-96746190D02*
X110628952Y-96246190D01*
X110748000Y-96246190D01*
X110819428Y-96270000D01*
X110867047Y-96317619D01*
X110890857Y-96365238D01*
X110914666Y-96460476D01*
X110914666Y-96531904D01*
X110890857Y-96627142D01*
X110867047Y-96674761D01*
X110819428Y-96722380D01*
X110748000Y-96746190D01*
X110628952Y-96746190D01*
X111105142Y-96293809D02*
X111128952Y-96270000D01*
X111176571Y-96246190D01*
X111295619Y-96246190D01*
X111343238Y-96270000D01*
X111367047Y-96293809D01*
X111390857Y-96341428D01*
X111390857Y-96389047D01*
X111367047Y-96460476D01*
X111081333Y-96746190D01*
X111390857Y-96746190D01*
X108799333Y-63210285D02*
X108632666Y-63210285D01*
X108632666Y-63472190D02*
X108632666Y-62972190D01*
X108870761Y-62972190D01*
X109323142Y-63472190D02*
X109037428Y-63472190D01*
X109180285Y-63472190D02*
X109180285Y-62972190D01*
X109132666Y-63043619D01*
X109085047Y-63091238D01*
X109037428Y-63115047D01*
X135123190Y-83887428D02*
X134885095Y-84054095D01*
X135123190Y-84173142D02*
X134623190Y-84173142D01*
X134623190Y-83982666D01*
X134647000Y-83935047D01*
X134670809Y-83911238D01*
X134718428Y-83887428D01*
X134789857Y-83887428D01*
X134837476Y-83911238D01*
X134861285Y-83935047D01*
X134885095Y-83982666D01*
X134885095Y-84173142D01*
X135123190Y-83411238D02*
X135123190Y-83696952D01*
X135123190Y-83554095D02*
X134623190Y-83554095D01*
X134694619Y-83601714D01*
X134742238Y-83649333D01*
X134766047Y-83696952D01*
X135123190Y-82935047D02*
X135123190Y-83220761D01*
X135123190Y-83077904D02*
X134623190Y-83077904D01*
X134694619Y-83125523D01*
X134742238Y-83173142D01*
X134766047Y-83220761D01*
X125194190Y-73768428D02*
X124956095Y-73935095D01*
X125194190Y-74054142D02*
X124694190Y-74054142D01*
X124694190Y-73863666D01*
X124718000Y-73816047D01*
X124741809Y-73792238D01*
X124789428Y-73768428D01*
X124860857Y-73768428D01*
X124908476Y-73792238D01*
X124932285Y-73816047D01*
X124956095Y-73863666D01*
X124956095Y-74054142D01*
X125194190Y-73292238D02*
X125194190Y-73577952D01*
X125194190Y-73435095D02*
X124694190Y-73435095D01*
X124765619Y-73482714D01*
X124813238Y-73530333D01*
X124837047Y-73577952D01*
X124694190Y-73125571D02*
X124694190Y-72816047D01*
X124884666Y-72982714D01*
X124884666Y-72911285D01*
X124908476Y-72863666D01*
X124932285Y-72839857D01*
X124979904Y-72816047D01*
X125098952Y-72816047D01*
X125146571Y-72839857D01*
X125170380Y-72863666D01*
X125194190Y-72911285D01*
X125194190Y-73054142D01*
X125170380Y-73101761D01*
X125146571Y-73125571D01*
X133774666Y-70584190D02*
X133608000Y-70346095D01*
X133488952Y-70584190D02*
X133488952Y-70084190D01*
X133679428Y-70084190D01*
X133727047Y-70108000D01*
X133750857Y-70131809D01*
X133774666Y-70179428D01*
X133774666Y-70250857D01*
X133750857Y-70298476D01*
X133727047Y-70322285D01*
X133679428Y-70346095D01*
X133488952Y-70346095D01*
X133941333Y-70084190D02*
X134250857Y-70084190D01*
X134084190Y-70274666D01*
X134155619Y-70274666D01*
X134203238Y-70298476D01*
X134227047Y-70322285D01*
X134250857Y-70369904D01*
X134250857Y-70488952D01*
X134227047Y-70536571D01*
X134203238Y-70560380D01*
X134155619Y-70584190D01*
X134012761Y-70584190D01*
X133965142Y-70560380D01*
X133941333Y-70536571D01*
X113002190Y-102699333D02*
X112764095Y-102866000D01*
X113002190Y-102985047D02*
X112502190Y-102985047D01*
X112502190Y-102794571D01*
X112526000Y-102746952D01*
X112549809Y-102723142D01*
X112597428Y-102699333D01*
X112668857Y-102699333D01*
X112716476Y-102723142D01*
X112740285Y-102746952D01*
X112764095Y-102794571D01*
X112764095Y-102985047D01*
X112716476Y-102413619D02*
X112692666Y-102461238D01*
X112668857Y-102485047D01*
X112621238Y-102508857D01*
X112597428Y-102508857D01*
X112549809Y-102485047D01*
X112526000Y-102461238D01*
X112502190Y-102413619D01*
X112502190Y-102318380D01*
X112526000Y-102270761D01*
X112549809Y-102246952D01*
X112597428Y-102223142D01*
X112621238Y-102223142D01*
X112668857Y-102246952D01*
X112692666Y-102270761D01*
X112716476Y-102318380D01*
X112716476Y-102413619D01*
X112740285Y-102461238D01*
X112764095Y-102485047D01*
X112811714Y-102508857D01*
X112906952Y-102508857D01*
X112954571Y-102485047D01*
X112978380Y-102461238D01*
X113002190Y-102413619D01*
X113002190Y-102318380D01*
X112978380Y-102270761D01*
X112954571Y-102246952D01*
X112906952Y-102223142D01*
X112811714Y-102223142D01*
X112764095Y-102246952D01*
X112740285Y-102270761D01*
X112716476Y-102318380D01*
X136116190Y-66996428D02*
X135878095Y-67163095D01*
X136116190Y-67282142D02*
X135616190Y-67282142D01*
X135616190Y-67091666D01*
X135640000Y-67044047D01*
X135663809Y-67020238D01*
X135711428Y-66996428D01*
X135782857Y-66996428D01*
X135830476Y-67020238D01*
X135854285Y-67044047D01*
X135878095Y-67091666D01*
X135878095Y-67282142D01*
X136116190Y-66520238D02*
X136116190Y-66805952D01*
X136116190Y-66663095D02*
X135616190Y-66663095D01*
X135687619Y-66710714D01*
X135735238Y-66758333D01*
X135759047Y-66805952D01*
X135663809Y-66329761D02*
X135640000Y-66305952D01*
X135616190Y-66258333D01*
X135616190Y-66139285D01*
X135640000Y-66091666D01*
X135663809Y-66067857D01*
X135711428Y-66044047D01*
X135759047Y-66044047D01*
X135830476Y-66067857D01*
X136116190Y-66353571D01*
X136116190Y-66044047D01*
X114184952Y-96746190D02*
X114184952Y-96246190D01*
X114304000Y-96246190D01*
X114375428Y-96270000D01*
X114423047Y-96317619D01*
X114446857Y-96365238D01*
X114470666Y-96460476D01*
X114470666Y-96531904D01*
X114446857Y-96627142D01*
X114423047Y-96674761D01*
X114375428Y-96722380D01*
X114304000Y-96746190D01*
X114184952Y-96746190D01*
X114756380Y-96460476D02*
X114708761Y-96436666D01*
X114684952Y-96412857D01*
X114661142Y-96365238D01*
X114661142Y-96341428D01*
X114684952Y-96293809D01*
X114708761Y-96270000D01*
X114756380Y-96246190D01*
X114851619Y-96246190D01*
X114899238Y-96270000D01*
X114923047Y-96293809D01*
X114946857Y-96341428D01*
X114946857Y-96365238D01*
X114923047Y-96412857D01*
X114899238Y-96436666D01*
X114851619Y-96460476D01*
X114756380Y-96460476D01*
X114708761Y-96484285D01*
X114684952Y-96508095D01*
X114661142Y-96555714D01*
X114661142Y-96650952D01*
X114684952Y-96698571D01*
X114708761Y-96722380D01*
X114756380Y-96746190D01*
X114851619Y-96746190D01*
X114899238Y-96722380D01*
X114923047Y-96698571D01*
X114946857Y-96650952D01*
X114946857Y-96555714D01*
X114923047Y-96508095D01*
X114899238Y-96484285D01*
X114851619Y-96460476D01*
X133830190Y-73743333D02*
X133592095Y-73910000D01*
X133830190Y-74029047D02*
X133330190Y-74029047D01*
X133330190Y-73838571D01*
X133354000Y-73790952D01*
X133377809Y-73767142D01*
X133425428Y-73743333D01*
X133496857Y-73743333D01*
X133544476Y-73767142D01*
X133568285Y-73790952D01*
X133592095Y-73838571D01*
X133592095Y-74029047D01*
X133830190Y-73267142D02*
X133830190Y-73552857D01*
X133830190Y-73410000D02*
X133330190Y-73410000D01*
X133401619Y-73457619D01*
X133449238Y-73505238D01*
X133473047Y-73552857D01*
X119573980Y-65551809D02*
X119526361Y-65528000D01*
X119478742Y-65480380D01*
X119407314Y-65408952D01*
X119359695Y-65385142D01*
X119312076Y-65385142D01*
X119335885Y-65504190D02*
X119288266Y-65480380D01*
X119240647Y-65432761D01*
X119216838Y-65337523D01*
X119216838Y-65170857D01*
X119240647Y-65075619D01*
X119288266Y-65028000D01*
X119335885Y-65004190D01*
X119431123Y-65004190D01*
X119478742Y-65028000D01*
X119526361Y-65075619D01*
X119550171Y-65170857D01*
X119550171Y-65337523D01*
X119526361Y-65432761D01*
X119478742Y-65480380D01*
X119431123Y-65504190D01*
X119335885Y-65504190D01*
X119740647Y-65051809D02*
X119764457Y-65028000D01*
X119812076Y-65004190D01*
X119931123Y-65004190D01*
X119978742Y-65028000D01*
X120002552Y-65051809D01*
X120026361Y-65099428D01*
X120026361Y-65147047D01*
X120002552Y-65218476D01*
X119716838Y-65504190D01*
X120026361Y-65504190D01*
X111224190Y-103191428D02*
X110986095Y-103358095D01*
X111224190Y-103477142D02*
X110724190Y-103477142D01*
X110724190Y-103286666D01*
X110748000Y-103239047D01*
X110771809Y-103215238D01*
X110819428Y-103191428D01*
X110890857Y-103191428D01*
X110938476Y-103215238D01*
X110962285Y-103239047D01*
X110986095Y-103286666D01*
X110986095Y-103477142D01*
X111224190Y-102715238D02*
X111224190Y-103000952D01*
X111224190Y-102858095D02*
X110724190Y-102858095D01*
X110795619Y-102905714D01*
X110843238Y-102953333D01*
X110867047Y-103000952D01*
X110724190Y-102405714D02*
X110724190Y-102358095D01*
X110748000Y-102310476D01*
X110771809Y-102286666D01*
X110819428Y-102262857D01*
X110914666Y-102239047D01*
X111033714Y-102239047D01*
X111128952Y-102262857D01*
X111176571Y-102286666D01*
X111200380Y-102310476D01*
X111224190Y-102358095D01*
X111224190Y-102405714D01*
X111200380Y-102453333D01*
X111176571Y-102477142D01*
X111128952Y-102500952D01*
X111033714Y-102524761D01*
X110914666Y-102524761D01*
X110819428Y-102500952D01*
X110771809Y-102477142D01*
X110748000Y-102453333D01*
X110724190Y-102405714D01*
X140251666Y-84808190D02*
X140085000Y-84570095D01*
X139965952Y-84808190D02*
X139965952Y-84308190D01*
X140156428Y-84308190D01*
X140204047Y-84332000D01*
X140227857Y-84355809D01*
X140251666Y-84403428D01*
X140251666Y-84474857D01*
X140227857Y-84522476D01*
X140204047Y-84546285D01*
X140156428Y-84570095D01*
X139965952Y-84570095D01*
X140442142Y-84355809D02*
X140465952Y-84332000D01*
X140513571Y-84308190D01*
X140632619Y-84308190D01*
X140680238Y-84332000D01*
X140704047Y-84355809D01*
X140727857Y-84403428D01*
X140727857Y-84451047D01*
X140704047Y-84522476D01*
X140418333Y-84808190D01*
X140727857Y-84808190D01*
X118959333Y-108692190D02*
X118959333Y-109049333D01*
X118935523Y-109120761D01*
X118887904Y-109168380D01*
X118816476Y-109192190D01*
X118768857Y-109192190D01*
X119459333Y-109192190D02*
X119173619Y-109192190D01*
X119316476Y-109192190D02*
X119316476Y-108692190D01*
X119268857Y-108763619D01*
X119221238Y-108811238D01*
X119173619Y-108835047D01*
X135509047Y-99048190D02*
X135509047Y-99452952D01*
X135532857Y-99500571D01*
X135556666Y-99524380D01*
X135604285Y-99548190D01*
X135699523Y-99548190D01*
X135747142Y-99524380D01*
X135770952Y-99500571D01*
X135794761Y-99452952D01*
X135794761Y-99048190D01*
X136009047Y-99095809D02*
X136032857Y-99072000D01*
X136080476Y-99048190D01*
X136199523Y-99048190D01*
X136247142Y-99072000D01*
X136270952Y-99095809D01*
X136294761Y-99143428D01*
X136294761Y-99191047D01*
X136270952Y-99262476D01*
X135985238Y-99548190D01*
X136294761Y-99548190D01*
X132520571Y-86792571D02*
X132496761Y-86816380D01*
X132425333Y-86840190D01*
X132377714Y-86840190D01*
X132306285Y-86816380D01*
X132258666Y-86768761D01*
X132234857Y-86721142D01*
X132211047Y-86625904D01*
X132211047Y-86554476D01*
X132234857Y-86459238D01*
X132258666Y-86411619D01*
X132306285Y-86364000D01*
X132377714Y-86340190D01*
X132425333Y-86340190D01*
X132496761Y-86364000D01*
X132520571Y-86387809D01*
X132687238Y-86340190D02*
X132996761Y-86340190D01*
X132830095Y-86530666D01*
X132901523Y-86530666D01*
X132949142Y-86554476D01*
X132972952Y-86578285D01*
X132996761Y-86625904D01*
X132996761Y-86744952D01*
X132972952Y-86792571D01*
X132949142Y-86816380D01*
X132901523Y-86840190D01*
X132758666Y-86840190D01*
X132711047Y-86816380D01*
X132687238Y-86792571D01*
X133282476Y-86554476D02*
X133234857Y-86530666D01*
X133211047Y-86506857D01*
X133187238Y-86459238D01*
X133187238Y-86435428D01*
X133211047Y-86387809D01*
X133234857Y-86364000D01*
X133282476Y-86340190D01*
X133377714Y-86340190D01*
X133425333Y-86364000D01*
X133449142Y-86387809D01*
X133472952Y-86435428D01*
X133472952Y-86459238D01*
X133449142Y-86506857D01*
X133425333Y-86530666D01*
X133377714Y-86554476D01*
X133282476Y-86554476D01*
X133234857Y-86578285D01*
X133211047Y-86602095D01*
X133187238Y-86649714D01*
X133187238Y-86744952D01*
X133211047Y-86792571D01*
X133234857Y-86816380D01*
X133282476Y-86840190D01*
X133377714Y-86840190D01*
X133425333Y-86816380D01*
X133449142Y-86792571D01*
X133472952Y-86744952D01*
X133472952Y-86649714D01*
X133449142Y-86602095D01*
X133425333Y-86578285D01*
X133377714Y-86554476D01*
X129688471Y-95342071D02*
X129664661Y-95365880D01*
X129593233Y-95389690D01*
X129545614Y-95389690D01*
X129474185Y-95365880D01*
X129426566Y-95318261D01*
X129402757Y-95270642D01*
X129378947Y-95175404D01*
X129378947Y-95103976D01*
X129402757Y-95008738D01*
X129426566Y-94961119D01*
X129474185Y-94913500D01*
X129545614Y-94889690D01*
X129593233Y-94889690D01*
X129664661Y-94913500D01*
X129688471Y-94937309D01*
X129855138Y-94889690D02*
X130164661Y-94889690D01*
X129997995Y-95080166D01*
X130069423Y-95080166D01*
X130117042Y-95103976D01*
X130140852Y-95127785D01*
X130164661Y-95175404D01*
X130164661Y-95294452D01*
X130140852Y-95342071D01*
X130117042Y-95365880D01*
X130069423Y-95389690D01*
X129926566Y-95389690D01*
X129878947Y-95365880D01*
X129855138Y-95342071D01*
X130402757Y-95389690D02*
X130497995Y-95389690D01*
X130545614Y-95365880D01*
X130569423Y-95342071D01*
X130617042Y-95270642D01*
X130640852Y-95175404D01*
X130640852Y-94984928D01*
X130617042Y-94937309D01*
X130593233Y-94913500D01*
X130545614Y-94889690D01*
X130450376Y-94889690D01*
X130402757Y-94913500D01*
X130378947Y-94937309D01*
X130355138Y-94984928D01*
X130355138Y-95103976D01*
X130378947Y-95151595D01*
X130402757Y-95175404D01*
X130450376Y-95199214D01*
X130545614Y-95199214D01*
X130593233Y-95175404D01*
X130617042Y-95151595D01*
X130640852Y-95103976D01*
X140394571Y-99492571D02*
X140370761Y-99516380D01*
X140299333Y-99540190D01*
X140251714Y-99540190D01*
X140180285Y-99516380D01*
X140132666Y-99468761D01*
X140108857Y-99421142D01*
X140085047Y-99325904D01*
X140085047Y-99254476D01*
X140108857Y-99159238D01*
X140132666Y-99111619D01*
X140180285Y-99064000D01*
X140251714Y-99040190D01*
X140299333Y-99040190D01*
X140370761Y-99064000D01*
X140394571Y-99087809D01*
X140823142Y-99206857D02*
X140823142Y-99540190D01*
X140704095Y-99016380D02*
X140585047Y-99373523D01*
X140894571Y-99373523D01*
X141180285Y-99040190D02*
X141227904Y-99040190D01*
X141275523Y-99064000D01*
X141299333Y-99087809D01*
X141323142Y-99135428D01*
X141346952Y-99230666D01*
X141346952Y-99349714D01*
X141323142Y-99444952D01*
X141299333Y-99492571D01*
X141275523Y-99516380D01*
X141227904Y-99540190D01*
X141180285Y-99540190D01*
X141132666Y-99516380D01*
X141108857Y-99492571D01*
X141085047Y-99444952D01*
X141061238Y-99349714D01*
X141061238Y-99230666D01*
X141085047Y-99135428D01*
X141108857Y-99087809D01*
X141132666Y-99064000D01*
X141180285Y-99040190D01*
X141664571Y-95682571D02*
X141640761Y-95706380D01*
X141569333Y-95730190D01*
X141521714Y-95730190D01*
X141450285Y-95706380D01*
X141402666Y-95658761D01*
X141378857Y-95611142D01*
X141355047Y-95515904D01*
X141355047Y-95444476D01*
X141378857Y-95349238D01*
X141402666Y-95301619D01*
X141450285Y-95254000D01*
X141521714Y-95230190D01*
X141569333Y-95230190D01*
X141640761Y-95254000D01*
X141664571Y-95277809D01*
X142093142Y-95396857D02*
X142093142Y-95730190D01*
X141974095Y-95206380D02*
X141855047Y-95563523D01*
X142164571Y-95563523D01*
X142616952Y-95730190D02*
X142331238Y-95730190D01*
X142474095Y-95730190D02*
X142474095Y-95230190D01*
X142426476Y-95301619D01*
X142378857Y-95349238D01*
X142331238Y-95373047D01*
X127686571Y-92269428D02*
X127710380Y-92293238D01*
X127734190Y-92364666D01*
X127734190Y-92412285D01*
X127710380Y-92483714D01*
X127662761Y-92531333D01*
X127615142Y-92555142D01*
X127519904Y-92578952D01*
X127448476Y-92578952D01*
X127353238Y-92555142D01*
X127305619Y-92531333D01*
X127258000Y-92483714D01*
X127234190Y-92412285D01*
X127234190Y-92364666D01*
X127258000Y-92293238D01*
X127281809Y-92269428D01*
X127234190Y-92102761D02*
X127234190Y-91793238D01*
X127424666Y-91959904D01*
X127424666Y-91888476D01*
X127448476Y-91840857D01*
X127472285Y-91817047D01*
X127519904Y-91793238D01*
X127638952Y-91793238D01*
X127686571Y-91817047D01*
X127710380Y-91840857D01*
X127734190Y-91888476D01*
X127734190Y-92031333D01*
X127710380Y-92078952D01*
X127686571Y-92102761D01*
X127234190Y-91364666D02*
X127234190Y-91459904D01*
X127258000Y-91507523D01*
X127281809Y-91531333D01*
X127353238Y-91578952D01*
X127448476Y-91602761D01*
X127638952Y-91602761D01*
X127686571Y-91578952D01*
X127710380Y-91555142D01*
X127734190Y-91507523D01*
X127734190Y-91412285D01*
X127710380Y-91364666D01*
X127686571Y-91340857D01*
X127638952Y-91317047D01*
X127519904Y-91317047D01*
X127472285Y-91340857D01*
X127448476Y-91364666D01*
X127424666Y-91412285D01*
X127424666Y-91507523D01*
X127448476Y-91555142D01*
X127472285Y-91578952D01*
X127519904Y-91602761D01*
X126718190Y-92269428D02*
X126480095Y-92436095D01*
X126718190Y-92555142D02*
X126218190Y-92555142D01*
X126218190Y-92364666D01*
X126242000Y-92317047D01*
X126265809Y-92293238D01*
X126313428Y-92269428D01*
X126384857Y-92269428D01*
X126432476Y-92293238D01*
X126456285Y-92317047D01*
X126480095Y-92364666D01*
X126480095Y-92555142D01*
X126218190Y-92102761D02*
X126218190Y-91793238D01*
X126408666Y-91959904D01*
X126408666Y-91888476D01*
X126432476Y-91840857D01*
X126456285Y-91817047D01*
X126503904Y-91793238D01*
X126622952Y-91793238D01*
X126670571Y-91817047D01*
X126694380Y-91840857D01*
X126718190Y-91888476D01*
X126718190Y-92031333D01*
X126694380Y-92078952D01*
X126670571Y-92102761D01*
X126384857Y-91364666D02*
X126718190Y-91364666D01*
X126194380Y-91483714D02*
X126551523Y-91602761D01*
X126551523Y-91293238D01*
X123122571Y-95174571D02*
X123098761Y-95198380D01*
X123027333Y-95222190D01*
X122979714Y-95222190D01*
X122908285Y-95198380D01*
X122860666Y-95150761D01*
X122836857Y-95103142D01*
X122813047Y-95007904D01*
X122813047Y-94936476D01*
X122836857Y-94841238D01*
X122860666Y-94793619D01*
X122908285Y-94746000D01*
X122979714Y-94722190D01*
X123027333Y-94722190D01*
X123098761Y-94746000D01*
X123122571Y-94769809D01*
X123551142Y-94888857D02*
X123551142Y-95222190D01*
X123432095Y-94698380D02*
X123313047Y-95055523D01*
X123622571Y-95055523D01*
X123789238Y-94769809D02*
X123813047Y-94746000D01*
X123860666Y-94722190D01*
X123979714Y-94722190D01*
X124027333Y-94746000D01*
X124051142Y-94769809D01*
X124074952Y-94817428D01*
X124074952Y-94865047D01*
X124051142Y-94936476D01*
X123765428Y-95222190D01*
X124074952Y-95222190D01*
X118296571Y-102540571D02*
X118272761Y-102564380D01*
X118201333Y-102588190D01*
X118153714Y-102588190D01*
X118082285Y-102564380D01*
X118034666Y-102516761D01*
X118010857Y-102469142D01*
X117987047Y-102373904D01*
X117987047Y-102302476D01*
X118010857Y-102207238D01*
X118034666Y-102159619D01*
X118082285Y-102112000D01*
X118153714Y-102088190D01*
X118201333Y-102088190D01*
X118272761Y-102112000D01*
X118296571Y-102135809D01*
X118725142Y-102254857D02*
X118725142Y-102588190D01*
X118606095Y-102064380D02*
X118487047Y-102421523D01*
X118796571Y-102421523D01*
X119201333Y-102254857D02*
X119201333Y-102588190D01*
X119082285Y-102064380D02*
X118963238Y-102421523D01*
X119272761Y-102421523D01*
X118296571Y-97206571D02*
X118272761Y-97230380D01*
X118201333Y-97254190D01*
X118153714Y-97254190D01*
X118082285Y-97230380D01*
X118034666Y-97182761D01*
X118010857Y-97135142D01*
X117987047Y-97039904D01*
X117987047Y-96968476D01*
X118010857Y-96873238D01*
X118034666Y-96825619D01*
X118082285Y-96778000D01*
X118153714Y-96754190D01*
X118201333Y-96754190D01*
X118272761Y-96778000D01*
X118296571Y-96801809D01*
X118725142Y-96920857D02*
X118725142Y-97254190D01*
X118606095Y-96730380D02*
X118487047Y-97087523D01*
X118796571Y-97087523D01*
X119225142Y-96754190D02*
X118987047Y-96754190D01*
X118963238Y-96992285D01*
X118987047Y-96968476D01*
X119034666Y-96944666D01*
X119153714Y-96944666D01*
X119201333Y-96968476D01*
X119225142Y-96992285D01*
X119248952Y-97039904D01*
X119248952Y-97158952D01*
X119225142Y-97206571D01*
X119201333Y-97230380D01*
X119153714Y-97254190D01*
X119034666Y-97254190D01*
X118987047Y-97230380D01*
X118963238Y-97206571D01*
X127849333Y-102850190D02*
X127849333Y-103207333D01*
X127825523Y-103278761D01*
X127777904Y-103326380D01*
X127706476Y-103350190D01*
X127658857Y-103350190D01*
X128039809Y-102850190D02*
X128349333Y-102850190D01*
X128182666Y-103040666D01*
X128254095Y-103040666D01*
X128301714Y-103064476D01*
X128325523Y-103088285D01*
X128349333Y-103135904D01*
X128349333Y-103254952D01*
X128325523Y-103302571D01*
X128301714Y-103326380D01*
X128254095Y-103350190D01*
X128111238Y-103350190D01*
X128063619Y-103326380D01*
X128039809Y-103302571D01*
X109446190Y-103191428D02*
X109208095Y-103358095D01*
X109446190Y-103477142D02*
X108946190Y-103477142D01*
X108946190Y-103286666D01*
X108970000Y-103239047D01*
X108993809Y-103215238D01*
X109041428Y-103191428D01*
X109112857Y-103191428D01*
X109160476Y-103215238D01*
X109184285Y-103239047D01*
X109208095Y-103286666D01*
X109208095Y-103477142D01*
X108993809Y-103000952D02*
X108970000Y-102977142D01*
X108946190Y-102929523D01*
X108946190Y-102810476D01*
X108970000Y-102762857D01*
X108993809Y-102739047D01*
X109041428Y-102715238D01*
X109089047Y-102715238D01*
X109160476Y-102739047D01*
X109446190Y-103024761D01*
X109446190Y-102715238D01*
X108946190Y-102548571D02*
X108946190Y-102239047D01*
X109136666Y-102405714D01*
X109136666Y-102334285D01*
X109160476Y-102286666D01*
X109184285Y-102262857D01*
X109231904Y-102239047D01*
X109350952Y-102239047D01*
X109398571Y-102262857D01*
X109422380Y-102286666D01*
X109446190Y-102334285D01*
X109446190Y-102477142D01*
X109422380Y-102524761D01*
X109398571Y-102548571D01*
X120523047Y-96246190D02*
X120523047Y-96650952D01*
X120546857Y-96698571D01*
X120570666Y-96722380D01*
X120618285Y-96746190D01*
X120713523Y-96746190D01*
X120761142Y-96722380D01*
X120784952Y-96698571D01*
X120808761Y-96650952D01*
X120808761Y-96246190D01*
X121118285Y-96460476D02*
X121070666Y-96436666D01*
X121046857Y-96412857D01*
X121023047Y-96365238D01*
X121023047Y-96341428D01*
X121046857Y-96293809D01*
X121070666Y-96270000D01*
X121118285Y-96246190D01*
X121213523Y-96246190D01*
X121261142Y-96270000D01*
X121284952Y-96293809D01*
X121308761Y-96341428D01*
X121308761Y-96365238D01*
X121284952Y-96412857D01*
X121261142Y-96436666D01*
X121213523Y-96460476D01*
X121118285Y-96460476D01*
X121070666Y-96484285D01*
X121046857Y-96508095D01*
X121023047Y-96555714D01*
X121023047Y-96650952D01*
X121046857Y-96698571D01*
X121070666Y-96722380D01*
X121118285Y-96746190D01*
X121213523Y-96746190D01*
X121261142Y-96722380D01*
X121284952Y-96698571D01*
X121308761Y-96650952D01*
X121308761Y-96555714D01*
X121284952Y-96508095D01*
X121261142Y-96484285D01*
X121213523Y-96460476D01*
X120991333Y-108946190D02*
X120991333Y-109303333D01*
X120967523Y-109374761D01*
X120919904Y-109422380D01*
X120848476Y-109446190D01*
X120800857Y-109446190D01*
X121443714Y-109112857D02*
X121443714Y-109446190D01*
X121324666Y-108922380D02*
X121205619Y-109279523D01*
X121515142Y-109279523D01*
X118351347Y-83495390D02*
X118351347Y-83900152D01*
X118375157Y-83947771D01*
X118398966Y-83971580D01*
X118446585Y-83995390D01*
X118541823Y-83995390D01*
X118589442Y-83971580D01*
X118613252Y-83947771D01*
X118637061Y-83900152D01*
X118637061Y-83495390D01*
X119089442Y-83662057D02*
X119089442Y-83995390D01*
X118970395Y-83471580D02*
X118851347Y-83828723D01*
X119160871Y-83828723D01*
X144403047Y-106152190D02*
X144688761Y-106152190D01*
X144545904Y-106652190D02*
X144545904Y-106152190D01*
X144855428Y-106652190D02*
X144855428Y-106152190D01*
X145045904Y-106152190D01*
X145093523Y-106176000D01*
X145117333Y-106199809D01*
X145141142Y-106247428D01*
X145141142Y-106318857D01*
X145117333Y-106366476D01*
X145093523Y-106390285D01*
X145045904Y-106414095D01*
X144855428Y-106414095D01*
X145331619Y-106199809D02*
X145355428Y-106176000D01*
X145403047Y-106152190D01*
X145522095Y-106152190D01*
X145569714Y-106176000D01*
X145593523Y-106199809D01*
X145617333Y-106247428D01*
X145617333Y-106295047D01*
X145593523Y-106366476D01*
X145307809Y-106652190D01*
X145617333Y-106652190D01*
X128143047Y-81514190D02*
X128143047Y-81918952D01*
X128166857Y-81966571D01*
X128190666Y-81990380D01*
X128238285Y-82014190D01*
X128333523Y-82014190D01*
X128381142Y-81990380D01*
X128404952Y-81966571D01*
X128428761Y-81918952D01*
X128428761Y-81514190D01*
X128619238Y-81514190D02*
X128952571Y-81514190D01*
X128738285Y-82014190D01*
X138870571Y-106906190D02*
X138703904Y-106668095D01*
X138584857Y-106906190D02*
X138584857Y-106406190D01*
X138775333Y-106406190D01*
X138822952Y-106430000D01*
X138846761Y-106453809D01*
X138870571Y-106501428D01*
X138870571Y-106572857D01*
X138846761Y-106620476D01*
X138822952Y-106644285D01*
X138775333Y-106668095D01*
X138584857Y-106668095D01*
X139037238Y-106406190D02*
X139346761Y-106406190D01*
X139180095Y-106596666D01*
X139251523Y-106596666D01*
X139299142Y-106620476D01*
X139322952Y-106644285D01*
X139346761Y-106691904D01*
X139346761Y-106810952D01*
X139322952Y-106858571D01*
X139299142Y-106882380D01*
X139251523Y-106906190D01*
X139108666Y-106906190D01*
X139061047Y-106882380D01*
X139037238Y-106858571D01*
X139584857Y-106906190D02*
X139680095Y-106906190D01*
X139727714Y-106882380D01*
X139751523Y-106858571D01*
X139799142Y-106787142D01*
X139822952Y-106691904D01*
X139822952Y-106501428D01*
X139799142Y-106453809D01*
X139775333Y-106430000D01*
X139727714Y-106406190D01*
X139632476Y-106406190D01*
X139584857Y-106430000D01*
X139561047Y-106453809D01*
X139537238Y-106501428D01*
X139537238Y-106620476D01*
X139561047Y-106668095D01*
X139584857Y-106691904D01*
X139632476Y-106715714D01*
X139727714Y-106715714D01*
X139775333Y-106691904D01*
X139799142Y-106668095D01*
X139822952Y-106620476D01*
X140902571Y-106906190D02*
X140735904Y-106668095D01*
X140616857Y-106906190D02*
X140616857Y-106406190D01*
X140807333Y-106406190D01*
X140854952Y-106430000D01*
X140878761Y-106453809D01*
X140902571Y-106501428D01*
X140902571Y-106572857D01*
X140878761Y-106620476D01*
X140854952Y-106644285D01*
X140807333Y-106668095D01*
X140616857Y-106668095D01*
X141331142Y-106572857D02*
X141331142Y-106906190D01*
X141212095Y-106382380D02*
X141093047Y-106739523D01*
X141402571Y-106739523D01*
X141688285Y-106406190D02*
X141735904Y-106406190D01*
X141783523Y-106430000D01*
X141807333Y-106453809D01*
X141831142Y-106501428D01*
X141854952Y-106596666D01*
X141854952Y-106715714D01*
X141831142Y-106810952D01*
X141807333Y-106858571D01*
X141783523Y-106882380D01*
X141735904Y-106906190D01*
X141688285Y-106906190D01*
X141640666Y-106882380D01*
X141616857Y-106858571D01*
X141593047Y-106810952D01*
X141569238Y-106715714D01*
X141569238Y-106596666D01*
X141593047Y-106501428D01*
X141616857Y-106453809D01*
X141640666Y-106430000D01*
X141688285Y-106406190D01*
X130988571Y-100540333D02*
X131012380Y-100564142D01*
X131036190Y-100635571D01*
X131036190Y-100683190D01*
X131012380Y-100754619D01*
X130964761Y-100802238D01*
X130917142Y-100826047D01*
X130821904Y-100849857D01*
X130750476Y-100849857D01*
X130655238Y-100826047D01*
X130607619Y-100802238D01*
X130560000Y-100754619D01*
X130536190Y-100683190D01*
X130536190Y-100635571D01*
X130560000Y-100564142D01*
X130583809Y-100540333D01*
X130702857Y-100111761D02*
X131036190Y-100111761D01*
X130512380Y-100230809D02*
X130869523Y-100349857D01*
X130869523Y-100040333D01*
X133830190Y-76791333D02*
X133592095Y-76958000D01*
X133830190Y-77077047D02*
X133330190Y-77077047D01*
X133330190Y-76886571D01*
X133354000Y-76838952D01*
X133377809Y-76815142D01*
X133425428Y-76791333D01*
X133496857Y-76791333D01*
X133544476Y-76815142D01*
X133568285Y-76838952D01*
X133592095Y-76886571D01*
X133592095Y-77077047D01*
X133496857Y-76362761D02*
X133830190Y-76362761D01*
X133306380Y-76481809D02*
X133663523Y-76600857D01*
X133663523Y-76291333D01*
X119507047Y-93198190D02*
X119507047Y-93602952D01*
X119530857Y-93650571D01*
X119554666Y-93674380D01*
X119602285Y-93698190D01*
X119697523Y-93698190D01*
X119745142Y-93674380D01*
X119768952Y-93650571D01*
X119792761Y-93602952D01*
X119792761Y-93198190D01*
X120245142Y-93198190D02*
X120149904Y-93198190D01*
X120102285Y-93222000D01*
X120078476Y-93245809D01*
X120030857Y-93317238D01*
X120007047Y-93412476D01*
X120007047Y-93602952D01*
X120030857Y-93650571D01*
X120054666Y-93674380D01*
X120102285Y-93698190D01*
X120197523Y-93698190D01*
X120245142Y-93674380D01*
X120268952Y-93650571D01*
X120292761Y-93602952D01*
X120292761Y-93483904D01*
X120268952Y-93436285D01*
X120245142Y-93412476D01*
X120197523Y-93388666D01*
X120102285Y-93388666D01*
X120054666Y-93412476D01*
X120030857Y-93436285D01*
X120007047Y-93483904D01*
X126845190Y-68012428D02*
X126607095Y-68179095D01*
X126845190Y-68298142D02*
X126345190Y-68298142D01*
X126345190Y-68107666D01*
X126369000Y-68060047D01*
X126392809Y-68036238D01*
X126440428Y-68012428D01*
X126511857Y-68012428D01*
X126559476Y-68036238D01*
X126583285Y-68060047D01*
X126607095Y-68107666D01*
X126607095Y-68298142D01*
X126511857Y-67583857D02*
X126845190Y-67583857D01*
X126321380Y-67702904D02*
X126678523Y-67821952D01*
X126678523Y-67512428D01*
X126511857Y-67107666D02*
X126845190Y-67107666D01*
X126321380Y-67226714D02*
X126678523Y-67345761D01*
X126678523Y-67036238D01*
X125916571Y-71552571D02*
X125892761Y-71576380D01*
X125821333Y-71600190D01*
X125773714Y-71600190D01*
X125702285Y-71576380D01*
X125654666Y-71528761D01*
X125630857Y-71481142D01*
X125607047Y-71385904D01*
X125607047Y-71314476D01*
X125630857Y-71219238D01*
X125654666Y-71171619D01*
X125702285Y-71124000D01*
X125773714Y-71100190D01*
X125821333Y-71100190D01*
X125892761Y-71124000D01*
X125916571Y-71147809D01*
X126392761Y-71600190D02*
X126107047Y-71600190D01*
X126249904Y-71600190D02*
X126249904Y-71100190D01*
X126202285Y-71171619D01*
X126154666Y-71219238D01*
X126107047Y-71243047D01*
X126702285Y-71100190D02*
X126749904Y-71100190D01*
X126797523Y-71124000D01*
X126821333Y-71147809D01*
X126845142Y-71195428D01*
X126868952Y-71290666D01*
X126868952Y-71409714D01*
X126845142Y-71504952D01*
X126821333Y-71552571D01*
X126797523Y-71576380D01*
X126749904Y-71600190D01*
X126702285Y-71600190D01*
X126654666Y-71576380D01*
X126630857Y-71552571D01*
X126607047Y-71504952D01*
X126583238Y-71409714D01*
X126583238Y-71290666D01*
X126607047Y-71195428D01*
X126630857Y-71147809D01*
X126654666Y-71124000D01*
X126702285Y-71100190D01*
X145668190Y-83379428D02*
X145430095Y-83546095D01*
X145668190Y-83665142D02*
X145168190Y-83665142D01*
X145168190Y-83474666D01*
X145192000Y-83427047D01*
X145215809Y-83403238D01*
X145263428Y-83379428D01*
X145334857Y-83379428D01*
X145382476Y-83403238D01*
X145406285Y-83427047D01*
X145430095Y-83474666D01*
X145430095Y-83665142D01*
X145334857Y-82950857D02*
X145668190Y-82950857D01*
X145144380Y-83069904D02*
X145501523Y-83188952D01*
X145501523Y-82879428D01*
X145168190Y-82474666D02*
X145168190Y-82569904D01*
X145192000Y-82617523D01*
X145215809Y-82641333D01*
X145287238Y-82688952D01*
X145382476Y-82712761D01*
X145572952Y-82712761D01*
X145620571Y-82688952D01*
X145644380Y-82665142D01*
X145668190Y-82617523D01*
X145668190Y-82522285D01*
X145644380Y-82474666D01*
X145620571Y-82450857D01*
X145572952Y-82427047D01*
X145453904Y-82427047D01*
X145406285Y-82450857D01*
X145382476Y-82474666D01*
X145358666Y-82522285D01*
X145358666Y-82617523D01*
X145382476Y-82665142D01*
X145406285Y-82688952D01*
X145453904Y-82712761D01*
X141918571Y-72108190D02*
X141751904Y-71870095D01*
X141632857Y-72108190D02*
X141632857Y-71608190D01*
X141823333Y-71608190D01*
X141870952Y-71632000D01*
X141894761Y-71655809D01*
X141918571Y-71703428D01*
X141918571Y-71774857D01*
X141894761Y-71822476D01*
X141870952Y-71846285D01*
X141823333Y-71870095D01*
X141632857Y-71870095D01*
X142347142Y-71774857D02*
X142347142Y-72108190D01*
X142228095Y-71584380D02*
X142109047Y-71941523D01*
X142418571Y-71941523D01*
X142585238Y-71655809D02*
X142609047Y-71632000D01*
X142656666Y-71608190D01*
X142775714Y-71608190D01*
X142823333Y-71632000D01*
X142847142Y-71655809D01*
X142870952Y-71703428D01*
X142870952Y-71751047D01*
X142847142Y-71822476D01*
X142561428Y-72108190D01*
X142870952Y-72108190D01*
X142172571Y-82522190D02*
X142005904Y-82284095D01*
X141886857Y-82522190D02*
X141886857Y-82022190D01*
X142077333Y-82022190D01*
X142124952Y-82046000D01*
X142148761Y-82069809D01*
X142172571Y-82117428D01*
X142172571Y-82188857D01*
X142148761Y-82236476D01*
X142124952Y-82260285D01*
X142077333Y-82284095D01*
X141886857Y-82284095D01*
X142601142Y-82188857D02*
X142601142Y-82522190D01*
X142482095Y-81998380D02*
X142363047Y-82355523D01*
X142672571Y-82355523D01*
X143124952Y-82522190D02*
X142839238Y-82522190D01*
X142982095Y-82522190D02*
X142982095Y-82022190D01*
X142934476Y-82093619D01*
X142886857Y-82141238D01*
X142839238Y-82165047D01*
X140902571Y-101572190D02*
X140735904Y-101334095D01*
X140616857Y-101572190D02*
X140616857Y-101072190D01*
X140807333Y-101072190D01*
X140854952Y-101096000D01*
X140878761Y-101119809D01*
X140902571Y-101167428D01*
X140902571Y-101238857D01*
X140878761Y-101286476D01*
X140854952Y-101310285D01*
X140807333Y-101334095D01*
X140616857Y-101334095D01*
X141354952Y-101072190D02*
X141116857Y-101072190D01*
X141093047Y-101310285D01*
X141116857Y-101286476D01*
X141164476Y-101262666D01*
X141283523Y-101262666D01*
X141331142Y-101286476D01*
X141354952Y-101310285D01*
X141378761Y-101357904D01*
X141378761Y-101476952D01*
X141354952Y-101524571D01*
X141331142Y-101548380D01*
X141283523Y-101572190D01*
X141164476Y-101572190D01*
X141116857Y-101548380D01*
X141093047Y-101524571D01*
X141688285Y-101072190D02*
X141735904Y-101072190D01*
X141783523Y-101096000D01*
X141807333Y-101119809D01*
X141831142Y-101167428D01*
X141854952Y-101262666D01*
X141854952Y-101381714D01*
X141831142Y-101476952D01*
X141807333Y-101524571D01*
X141783523Y-101548380D01*
X141735904Y-101572190D01*
X141688285Y-101572190D01*
X141640666Y-101548380D01*
X141616857Y-101524571D01*
X141593047Y-101476952D01*
X141569238Y-101381714D01*
X141569238Y-101262666D01*
X141593047Y-101167428D01*
X141616857Y-101119809D01*
X141640666Y-101096000D01*
X141688285Y-101072190D01*
X129345571Y-65250190D02*
X129178904Y-65012095D01*
X129059857Y-65250190D02*
X129059857Y-64750190D01*
X129250333Y-64750190D01*
X129297952Y-64774000D01*
X129321761Y-64797809D01*
X129345571Y-64845428D01*
X129345571Y-64916857D01*
X129321761Y-64964476D01*
X129297952Y-64988285D01*
X129250333Y-65012095D01*
X129059857Y-65012095D01*
X129774142Y-64916857D02*
X129774142Y-65250190D01*
X129655095Y-64726380D02*
X129536047Y-65083523D01*
X129845571Y-65083523D01*
X129988428Y-64750190D02*
X130297952Y-64750190D01*
X130131285Y-64940666D01*
X130202714Y-64940666D01*
X130250333Y-64964476D01*
X130274142Y-64988285D01*
X130297952Y-65035904D01*
X130297952Y-65154952D01*
X130274142Y-65202571D01*
X130250333Y-65226380D01*
X130202714Y-65250190D01*
X130059857Y-65250190D01*
X130012238Y-65226380D01*
X129988428Y-65202571D01*
X138870571Y-101572190D02*
X138703904Y-101334095D01*
X138584857Y-101572190D02*
X138584857Y-101072190D01*
X138775333Y-101072190D01*
X138822952Y-101096000D01*
X138846761Y-101119809D01*
X138870571Y-101167428D01*
X138870571Y-101238857D01*
X138846761Y-101286476D01*
X138822952Y-101310285D01*
X138775333Y-101334095D01*
X138584857Y-101334095D01*
X139299142Y-101238857D02*
X139299142Y-101572190D01*
X139180095Y-101048380D02*
X139061047Y-101405523D01*
X139370571Y-101405523D01*
X139584857Y-101572190D02*
X139680095Y-101572190D01*
X139727714Y-101548380D01*
X139751523Y-101524571D01*
X139799142Y-101453142D01*
X139822952Y-101357904D01*
X139822952Y-101167428D01*
X139799142Y-101119809D01*
X139775333Y-101096000D01*
X139727714Y-101072190D01*
X139632476Y-101072190D01*
X139584857Y-101096000D01*
X139561047Y-101119809D01*
X139537238Y-101167428D01*
X139537238Y-101286476D01*
X139561047Y-101334095D01*
X139584857Y-101357904D01*
X139632476Y-101381714D01*
X139727714Y-101381714D01*
X139775333Y-101357904D01*
X139799142Y-101334095D01*
X139822952Y-101286476D01*
X126408666Y-66853571D02*
X126384857Y-66877380D01*
X126313428Y-66901190D01*
X126265809Y-66901190D01*
X126194380Y-66877380D01*
X126146761Y-66829761D01*
X126122952Y-66782142D01*
X126099142Y-66686904D01*
X126099142Y-66615476D01*
X126122952Y-66520238D01*
X126146761Y-66472619D01*
X126194380Y-66425000D01*
X126265809Y-66401190D01*
X126313428Y-66401190D01*
X126384857Y-66425000D01*
X126408666Y-66448809D01*
X126599142Y-66448809D02*
X126622952Y-66425000D01*
X126670571Y-66401190D01*
X126789619Y-66401190D01*
X126837238Y-66425000D01*
X126861047Y-66448809D01*
X126884857Y-66496428D01*
X126884857Y-66544047D01*
X126861047Y-66615476D01*
X126575333Y-66901190D01*
X126884857Y-66901190D01*
X127635047Y-71989190D02*
X127635047Y-72393952D01*
X127658857Y-72441571D01*
X127682666Y-72465380D01*
X127730285Y-72489190D01*
X127825523Y-72489190D01*
X127873142Y-72465380D01*
X127896952Y-72441571D01*
X127920761Y-72393952D01*
X127920761Y-71989190D01*
X128111238Y-71989190D02*
X128420761Y-71989190D01*
X128254095Y-72179666D01*
X128325523Y-72179666D01*
X128373142Y-72203476D01*
X128396952Y-72227285D01*
X128420761Y-72274904D01*
X128420761Y-72393952D01*
X128396952Y-72441571D01*
X128373142Y-72465380D01*
X128325523Y-72489190D01*
X128182666Y-72489190D01*
X128135047Y-72465380D01*
X128111238Y-72441571D01*
X143180571Y-85300333D02*
X143204380Y-85324142D01*
X143228190Y-85395571D01*
X143228190Y-85443190D01*
X143204380Y-85514619D01*
X143156761Y-85562238D01*
X143109142Y-85586047D01*
X143013904Y-85609857D01*
X142942476Y-85609857D01*
X142847238Y-85586047D01*
X142799619Y-85562238D01*
X142752000Y-85514619D01*
X142728190Y-85443190D01*
X142728190Y-85395571D01*
X142752000Y-85324142D01*
X142775809Y-85300333D01*
X142728190Y-85133666D02*
X142728190Y-84824142D01*
X142918666Y-84990809D01*
X142918666Y-84919380D01*
X142942476Y-84871761D01*
X142966285Y-84847952D01*
X143013904Y-84824142D01*
X143132952Y-84824142D01*
X143180571Y-84847952D01*
X143204380Y-84871761D01*
X143228190Y-84919380D01*
X143228190Y-85062238D01*
X143204380Y-85109857D01*
X143180571Y-85133666D01*
X128583571Y-69187190D02*
X128416904Y-68949095D01*
X128297857Y-69187190D02*
X128297857Y-68687190D01*
X128488333Y-68687190D01*
X128535952Y-68711000D01*
X128559761Y-68734809D01*
X128583571Y-68782428D01*
X128583571Y-68853857D01*
X128559761Y-68901476D01*
X128535952Y-68925285D01*
X128488333Y-68949095D01*
X128297857Y-68949095D01*
X129035952Y-68687190D02*
X128797857Y-68687190D01*
X128774047Y-68925285D01*
X128797857Y-68901476D01*
X128845476Y-68877666D01*
X128964523Y-68877666D01*
X129012142Y-68901476D01*
X129035952Y-68925285D01*
X129059761Y-68972904D01*
X129059761Y-69091952D01*
X129035952Y-69139571D01*
X129012142Y-69163380D01*
X128964523Y-69187190D01*
X128845476Y-69187190D01*
X128797857Y-69163380D01*
X128774047Y-69139571D01*
X129250238Y-68734809D02*
X129274047Y-68711000D01*
X129321666Y-68687190D01*
X129440714Y-68687190D01*
X129488333Y-68711000D01*
X129512142Y-68734809D01*
X129535952Y-68782428D01*
X129535952Y-68830047D01*
X129512142Y-68901476D01*
X129226428Y-69187190D01*
X129535952Y-69187190D01*
X141585190Y-73532952D02*
X141989952Y-73532952D01*
X142037571Y-73509142D01*
X142061380Y-73485333D01*
X142085190Y-73437714D01*
X142085190Y-73342476D01*
X142061380Y-73294857D01*
X142037571Y-73271047D01*
X141989952Y-73247238D01*
X141585190Y-73247238D01*
X142085190Y-72747238D02*
X142085190Y-73032952D01*
X142085190Y-72890095D02*
X141585190Y-72890095D01*
X141656619Y-72937714D01*
X141704238Y-72985333D01*
X141728047Y-73032952D01*
X137346571Y-64996190D02*
X137179904Y-64758095D01*
X137060857Y-64996190D02*
X137060857Y-64496190D01*
X137251333Y-64496190D01*
X137298952Y-64520000D01*
X137322761Y-64543809D01*
X137346571Y-64591428D01*
X137346571Y-64662857D01*
X137322761Y-64710476D01*
X137298952Y-64734285D01*
X137251333Y-64758095D01*
X137060857Y-64758095D01*
X137537047Y-64543809D02*
X137560857Y-64520000D01*
X137608476Y-64496190D01*
X137727523Y-64496190D01*
X137775142Y-64520000D01*
X137798952Y-64543809D01*
X137822761Y-64591428D01*
X137822761Y-64639047D01*
X137798952Y-64710476D01*
X137513238Y-64996190D01*
X137822761Y-64996190D01*
X138275142Y-64496190D02*
X138037047Y-64496190D01*
X138013238Y-64734285D01*
X138037047Y-64710476D01*
X138084666Y-64686666D01*
X138203714Y-64686666D01*
X138251333Y-64710476D01*
X138275142Y-64734285D01*
X138298952Y-64781904D01*
X138298952Y-64900952D01*
X138275142Y-64948571D01*
X138251333Y-64972380D01*
X138203714Y-64996190D01*
X138084666Y-64996190D01*
X138037047Y-64972380D01*
X138013238Y-64948571D01*
X115454952Y-77442190D02*
X115454952Y-76942190D01*
X115574000Y-76942190D01*
X115645428Y-76966000D01*
X115693047Y-77013619D01*
X115716857Y-77061238D01*
X115740666Y-77156476D01*
X115740666Y-77227904D01*
X115716857Y-77323142D01*
X115693047Y-77370761D01*
X115645428Y-77418380D01*
X115574000Y-77442190D01*
X115454952Y-77442190D01*
X116169238Y-76942190D02*
X116074000Y-76942190D01*
X116026380Y-76966000D01*
X116002571Y-76989809D01*
X115954952Y-77061238D01*
X115931142Y-77156476D01*
X115931142Y-77346952D01*
X115954952Y-77394571D01*
X115978761Y-77418380D01*
X116026380Y-77442190D01*
X116121619Y-77442190D01*
X116169238Y-77418380D01*
X116193047Y-77394571D01*
X116216857Y-77346952D01*
X116216857Y-77227904D01*
X116193047Y-77180285D01*
X116169238Y-77156476D01*
X116121619Y-77132666D01*
X116026380Y-77132666D01*
X115978761Y-77156476D01*
X115954952Y-77180285D01*
X115931142Y-77227904D01*
X137013190Y-86609952D02*
X137013190Y-86324238D01*
X137513190Y-86467095D02*
X137013190Y-86467095D01*
X137513190Y-86157571D02*
X137013190Y-86157571D01*
X137013190Y-85967095D01*
X137037000Y-85919476D01*
X137060809Y-85895666D01*
X137108428Y-85871857D01*
X137179857Y-85871857D01*
X137227476Y-85895666D01*
X137251285Y-85919476D01*
X137275095Y-85967095D01*
X137275095Y-86157571D01*
X137179857Y-85443285D02*
X137513190Y-85443285D01*
X136989380Y-85562333D02*
X137346523Y-85681380D01*
X137346523Y-85371857D01*
X116772571Y-102588190D02*
X116605904Y-102350095D01*
X116486857Y-102588190D02*
X116486857Y-102088190D01*
X116677333Y-102088190D01*
X116724952Y-102112000D01*
X116748761Y-102135809D01*
X116772571Y-102183428D01*
X116772571Y-102254857D01*
X116748761Y-102302476D01*
X116724952Y-102326285D01*
X116677333Y-102350095D01*
X116486857Y-102350095D01*
X117201142Y-102254857D02*
X117201142Y-102588190D01*
X117082095Y-102064380D02*
X116963047Y-102421523D01*
X117272571Y-102421523D01*
X117534476Y-102302476D02*
X117486857Y-102278666D01*
X117463047Y-102254857D01*
X117439238Y-102207238D01*
X117439238Y-102183428D01*
X117463047Y-102135809D01*
X117486857Y-102112000D01*
X117534476Y-102088190D01*
X117629714Y-102088190D01*
X117677333Y-102112000D01*
X117701142Y-102135809D01*
X117724952Y-102183428D01*
X117724952Y-102207238D01*
X117701142Y-102254857D01*
X117677333Y-102278666D01*
X117629714Y-102302476D01*
X117534476Y-102302476D01*
X117486857Y-102326285D01*
X117463047Y-102350095D01*
X117439238Y-102397714D01*
X117439238Y-102492952D01*
X117463047Y-102540571D01*
X117486857Y-102564380D01*
X117534476Y-102588190D01*
X117629714Y-102588190D01*
X117677333Y-102564380D01*
X117701142Y-102540571D01*
X117724952Y-102492952D01*
X117724952Y-102397714D01*
X117701142Y-102350095D01*
X117677333Y-102326285D01*
X117629714Y-102302476D01*
X139251571Y-69949190D02*
X139084904Y-69711095D01*
X138965857Y-69949190D02*
X138965857Y-69449190D01*
X139156333Y-69449190D01*
X139203952Y-69473000D01*
X139227761Y-69496809D01*
X139251571Y-69544428D01*
X139251571Y-69615857D01*
X139227761Y-69663476D01*
X139203952Y-69687285D01*
X139156333Y-69711095D01*
X138965857Y-69711095D01*
X139703952Y-69449190D02*
X139465857Y-69449190D01*
X139442047Y-69687285D01*
X139465857Y-69663476D01*
X139513476Y-69639666D01*
X139632523Y-69639666D01*
X139680142Y-69663476D01*
X139703952Y-69687285D01*
X139727761Y-69734904D01*
X139727761Y-69853952D01*
X139703952Y-69901571D01*
X139680142Y-69925380D01*
X139632523Y-69949190D01*
X139513476Y-69949190D01*
X139465857Y-69925380D01*
X139442047Y-69901571D01*
X140203952Y-69949190D02*
X139918238Y-69949190D01*
X140061095Y-69949190D02*
X140061095Y-69449190D01*
X140013476Y-69520619D01*
X139965857Y-69568238D01*
X139918238Y-69592047D01*
X126845190Y-70425428D02*
X126607095Y-70592095D01*
X126845190Y-70711142D02*
X126345190Y-70711142D01*
X126345190Y-70520666D01*
X126369000Y-70473047D01*
X126392809Y-70449238D01*
X126440428Y-70425428D01*
X126511857Y-70425428D01*
X126559476Y-70449238D01*
X126583285Y-70473047D01*
X126607095Y-70520666D01*
X126607095Y-70711142D01*
X126345190Y-69973047D02*
X126345190Y-70211142D01*
X126583285Y-70234952D01*
X126559476Y-70211142D01*
X126535666Y-70163523D01*
X126535666Y-70044476D01*
X126559476Y-69996857D01*
X126583285Y-69973047D01*
X126630904Y-69949238D01*
X126749952Y-69949238D01*
X126797571Y-69973047D01*
X126821380Y-69996857D01*
X126845190Y-70044476D01*
X126845190Y-70163523D01*
X126821380Y-70211142D01*
X126797571Y-70234952D01*
X126345190Y-69782571D02*
X126345190Y-69473047D01*
X126535666Y-69639714D01*
X126535666Y-69568285D01*
X126559476Y-69520666D01*
X126583285Y-69496857D01*
X126630904Y-69473047D01*
X126749952Y-69473047D01*
X126797571Y-69496857D01*
X126821380Y-69520666D01*
X126845190Y-69568285D01*
X126845190Y-69711142D01*
X126821380Y-69758761D01*
X126797571Y-69782571D01*
X141839190Y-86609952D02*
X141839190Y-86324238D01*
X142339190Y-86467095D02*
X141839190Y-86467095D01*
X142339190Y-86157571D02*
X141839190Y-86157571D01*
X141839190Y-85967095D01*
X141863000Y-85919476D01*
X141886809Y-85895666D01*
X141934428Y-85871857D01*
X142005857Y-85871857D01*
X142053476Y-85895666D01*
X142077285Y-85919476D01*
X142101095Y-85967095D01*
X142101095Y-86157571D01*
X141839190Y-85705190D02*
X141839190Y-85395666D01*
X142029666Y-85562333D01*
X142029666Y-85490904D01*
X142053476Y-85443285D01*
X142077285Y-85419476D01*
X142124904Y-85395666D01*
X142243952Y-85395666D01*
X142291571Y-85419476D01*
X142315380Y-85443285D01*
X142339190Y-85490904D01*
X142339190Y-85633761D01*
X142315380Y-85681380D01*
X142291571Y-85705190D01*
X141839190Y-88641952D02*
X141839190Y-88356238D01*
X142339190Y-88499095D02*
X141839190Y-88499095D01*
X142339190Y-88189571D02*
X141839190Y-88189571D01*
X141839190Y-87999095D01*
X141863000Y-87951476D01*
X141886809Y-87927666D01*
X141934428Y-87903857D01*
X142005857Y-87903857D01*
X142053476Y-87927666D01*
X142077285Y-87951476D01*
X142101095Y-87999095D01*
X142101095Y-88189571D01*
X141839190Y-87451476D02*
X141839190Y-87689571D01*
X142077285Y-87713380D01*
X142053476Y-87689571D01*
X142029666Y-87641952D01*
X142029666Y-87522904D01*
X142053476Y-87475285D01*
X142077285Y-87451476D01*
X142124904Y-87427666D01*
X142243952Y-87427666D01*
X142291571Y-87451476D01*
X142315380Y-87475285D01*
X142339190Y-87522904D01*
X142339190Y-87641952D01*
X142315380Y-87689571D01*
X142291571Y-87713380D01*
X142299571Y-69949190D02*
X142132904Y-69711095D01*
X142013857Y-69949190D02*
X142013857Y-69449190D01*
X142204333Y-69449190D01*
X142251952Y-69473000D01*
X142275761Y-69496809D01*
X142299571Y-69544428D01*
X142299571Y-69615857D01*
X142275761Y-69663476D01*
X142251952Y-69687285D01*
X142204333Y-69711095D01*
X142013857Y-69711095D01*
X142728142Y-69615857D02*
X142728142Y-69949190D01*
X142609095Y-69425380D02*
X142490047Y-69782523D01*
X142799571Y-69782523D01*
X143228142Y-69449190D02*
X142990047Y-69449190D01*
X142966238Y-69687285D01*
X142990047Y-69663476D01*
X143037666Y-69639666D01*
X143156714Y-69639666D01*
X143204333Y-69663476D01*
X143228142Y-69687285D01*
X143251952Y-69734904D01*
X143251952Y-69853952D01*
X143228142Y-69901571D01*
X143204333Y-69925380D01*
X143156714Y-69949190D01*
X143037666Y-69949190D01*
X142990047Y-69925380D01*
X142966238Y-69901571D01*
X144498190Y-85284428D02*
X144260095Y-85451095D01*
X144498190Y-85570142D02*
X143998190Y-85570142D01*
X143998190Y-85379666D01*
X144022000Y-85332047D01*
X144045809Y-85308238D01*
X144093428Y-85284428D01*
X144164857Y-85284428D01*
X144212476Y-85308238D01*
X144236285Y-85332047D01*
X144260095Y-85379666D01*
X144260095Y-85570142D01*
X144164857Y-84855857D02*
X144498190Y-84855857D01*
X143974380Y-84974904D02*
X144331523Y-85093952D01*
X144331523Y-84784428D01*
X143998190Y-84641571D02*
X143998190Y-84308238D01*
X144498190Y-84522523D01*
D13*
X108000000Y-50370000D02*
X146000000Y-50370000D01*
X119000000Y-52500000D02*
X119500000Y-53000000D01*
X135000000Y-52500000D02*
X135500000Y-53000000D01*
X119000000Y-53500000D02*
X119000000Y-52500000D01*
X135000000Y-53500000D02*
X135000000Y-52500000D01*
X135000000Y-52500000D02*
X134500000Y-53000000D01*
X119000000Y-52500000D02*
X118500000Y-53000000D01*
D10*
X133669721Y-78484000D02*
X133995279Y-78484000D01*
X133669721Y-79504000D02*
X133995279Y-79504000D01*
X129538000Y-70774779D02*
X129538000Y-70449221D01*
X130558000Y-70774779D02*
X130558000Y-70449221D01*
X125515000Y-76332221D02*
X125515000Y-76657779D01*
X126535000Y-76332221D02*
X126535000Y-76657779D01*
X110980000Y-93848000D02*
X109520000Y-93848000D01*
X110980000Y-93848000D02*
X110980000Y-92918000D01*
X110980000Y-90688000D02*
X108820000Y-90688000D01*
X110980000Y-90688000D02*
X110980000Y-91618000D01*
X124368779Y-89406000D02*
X124043221Y-89406000D01*
X124368779Y-90426000D02*
X124043221Y-90426000D01*
X124043221Y-90930000D02*
X124368779Y-90930000D01*
X124043221Y-91950000D02*
X124368779Y-91950000D01*
X145348000Y-99060000D02*
X145348000Y-99000000D01*
X142688000Y-99060000D02*
X142688000Y-99000000D01*
X145348000Y-100330000D02*
X145348000Y-101660000D01*
X145348000Y-99000000D02*
X142688000Y-99000000D01*
X145348000Y-101660000D02*
X144018000Y-101660000D01*
X145348000Y-99060000D02*
X142688000Y-99060000D01*
X115010000Y-80544000D02*
X115010000Y-88944000D01*
X108510000Y-80544000D02*
X115010000Y-80544000D01*
X108510000Y-80544000D02*
X108510000Y-88944000D01*
X144125836Y-64537000D02*
X143910164Y-64537000D01*
X144125836Y-65257000D02*
X143910164Y-65257000D01*
X131466000Y-98698164D02*
X131466000Y-98913836D01*
X132186000Y-98698164D02*
X132186000Y-98913836D01*
X124805221Y-80774000D02*
X125130779Y-80774000D01*
X124805221Y-79754000D02*
X125130779Y-79754000D01*
X138283836Y-81640000D02*
X138068164Y-81640000D01*
X138283836Y-80920000D02*
X138068164Y-80920000D01*
X108485000Y-100037000D02*
X109955000Y-100037000D01*
X108485000Y-97752000D02*
X108485000Y-100037000D01*
X109955000Y-100037000D02*
X109955000Y-97752000D01*
X137270258Y-83834500D02*
X136795742Y-83834500D01*
X137270258Y-82789500D02*
X136795742Y-82789500D01*
X143616000Y-67088936D02*
X143616000Y-68293064D01*
X145436000Y-67088936D02*
X145436000Y-68293064D01*
X123442000Y-68996779D02*
X123442000Y-68671221D01*
X124462000Y-68996779D02*
X124462000Y-68671221D01*
X125986000Y-68996779D02*
X125986000Y-68671221D01*
X124966000Y-68996779D02*
X124966000Y-68671221D01*
X131954000Y-81941641D02*
X131954000Y-81634359D01*
X132714000Y-81941641D02*
X132714000Y-81634359D01*
X140587000Y-67528221D02*
X140587000Y-67853779D01*
X141607000Y-67528221D02*
X141607000Y-67853779D01*
X125130779Y-78230000D02*
X124805221Y-78230000D01*
X125130779Y-79250000D02*
X124805221Y-79250000D01*
X130972779Y-68582000D02*
X130647221Y-68582000D01*
X130972779Y-67562000D02*
X130647221Y-67562000D01*
X128396000Y-79856359D02*
X128396000Y-80163641D01*
X127636000Y-79856359D02*
X127636000Y-80163641D01*
X133620742Y-69737500D02*
X134095258Y-69737500D01*
X133620742Y-68692500D02*
X134095258Y-68692500D01*
X131062000Y-70774779D02*
X131062000Y-70449221D01*
X132082000Y-70774779D02*
X132082000Y-70449221D01*
X138559000Y-67853779D02*
X138559000Y-67528221D01*
X137539000Y-67853779D02*
X137539000Y-67528221D01*
X120461721Y-81282000D02*
X120787279Y-81282000D01*
X120461721Y-80262000D02*
X120787279Y-80262000D01*
X117510779Y-81282000D02*
X117185221Y-81282000D01*
X117510779Y-80262000D02*
X117185221Y-80262000D01*
X114702000Y-94380164D02*
X114702000Y-94595836D01*
X115422000Y-94380164D02*
X115422000Y-94595836D01*
X112400000Y-92602164D02*
X112400000Y-92817836D01*
X113120000Y-92602164D02*
X113120000Y-92817836D01*
X127360000Y-80117836D02*
X127360000Y-79902164D01*
X126640000Y-80117836D02*
X126640000Y-79902164D01*
X113511000Y-100037000D02*
X113511000Y-97752000D01*
X112041000Y-100037000D02*
X113511000Y-100037000D01*
X112041000Y-97752000D02*
X112041000Y-100037000D01*
X109576164Y-96118000D02*
X109791836Y-96118000D01*
X109576164Y-95398000D02*
X109791836Y-95398000D01*
X110263000Y-97752000D02*
X110263000Y-100037000D01*
X111733000Y-100037000D02*
X111733000Y-97752000D01*
X110263000Y-100037000D02*
X111733000Y-100037000D01*
X115152000Y-63902000D02*
X108212000Y-63902000D01*
X113682000Y-70402000D02*
X113682000Y-73602000D01*
X109682000Y-73602000D02*
X109682000Y-70402000D01*
X108212000Y-80102000D02*
X115152000Y-80102000D01*
X108212000Y-63902000D02*
X108212000Y-80102000D01*
X111682000Y-72752000D02*
X111682000Y-71252000D01*
X115152000Y-80102000D02*
X115152000Y-63902000D01*
X126535000Y-73284221D02*
X126535000Y-73609779D01*
X125515000Y-73284221D02*
X125515000Y-73609779D01*
X134020779Y-70864000D02*
X133695221Y-70864000D01*
X134020779Y-71884000D02*
X133695221Y-71884000D01*
X115289000Y-99352000D02*
X115289000Y-97067000D01*
X115289000Y-97067000D02*
X113819000Y-97067000D01*
X113819000Y-97067000D02*
X113819000Y-99352000D01*
X134110000Y-73822779D02*
X134110000Y-73497221D01*
X135130000Y-73822779D02*
X135130000Y-73497221D01*
X123083000Y-72261000D02*
X123083000Y-73761000D01*
X116183000Y-72261000D02*
X116183000Y-73761000D01*
X122813000Y-73761000D02*
X122813000Y-74861000D01*
X116453000Y-73761000D02*
X116453000Y-76591000D01*
X116183000Y-73761000D02*
X116453000Y-73761000D01*
X123083000Y-73761000D02*
X122813000Y-73761000D01*
X140635258Y-83834500D02*
X140160742Y-83834500D01*
X140635258Y-82789500D02*
X140160742Y-82789500D01*
X109033000Y-110731000D02*
X109098000Y-110731000D01*
X109033000Y-110731000D02*
X109033000Y-107201000D01*
X109033000Y-107201000D02*
X109098000Y-107201000D01*
X109098000Y-112056000D02*
X109098000Y-110731000D01*
X117978000Y-107201000D02*
X118043000Y-107201000D01*
X118043000Y-110731000D02*
X118043000Y-107201000D01*
X117978000Y-110731000D02*
X118043000Y-110731000D01*
X132280000Y-97082000D02*
X132280000Y-96632000D01*
X139050000Y-97082000D02*
X139500000Y-97082000D01*
X132730000Y-89862000D02*
X132280000Y-89862000D01*
X139500000Y-96632000D02*
X140790000Y-96632000D01*
X132730000Y-97082000D02*
X132280000Y-97082000D01*
X132280000Y-89862000D02*
X132280000Y-90312000D01*
X139500000Y-97082000D02*
X139500000Y-96632000D01*
X139500000Y-89862000D02*
X139500000Y-90312000D01*
X139050000Y-89862000D02*
X139500000Y-89862000D01*
X126132000Y-90062164D02*
X126132000Y-90277836D01*
X126852000Y-90062164D02*
X126852000Y-90277836D01*
X127888000Y-90323641D02*
X127888000Y-90016359D01*
X127128000Y-90323641D02*
X127128000Y-90016359D01*
X132902000Y-103826000D02*
X132902000Y-105156000D01*
X131572000Y-103826000D02*
X132902000Y-103826000D01*
X132902000Y-109026000D02*
X127702000Y-109026000D01*
X132902000Y-106426000D02*
X132902000Y-109026000D01*
X130302000Y-106426000D02*
X132902000Y-106426000D01*
X130302000Y-103826000D02*
X130302000Y-106426000D01*
X127702000Y-103826000D02*
X127702000Y-109026000D01*
X130302000Y-103826000D02*
X127702000Y-103826000D01*
X123125000Y-97135000D02*
X121175000Y-97135000D01*
X123125000Y-102255000D02*
X121175000Y-102255000D01*
X123125000Y-97135000D02*
X125075000Y-97135000D01*
X123125000Y-102255000D02*
X126575000Y-102255000D01*
X122326400Y-112785200D02*
X122326400Y-110125200D01*
X119726400Y-112785200D02*
X119726400Y-111455200D01*
X122326400Y-110125200D02*
X145246400Y-110125200D01*
X145246400Y-112785200D02*
X145246400Y-110125200D01*
X122326400Y-112785200D02*
X145246400Y-112785200D01*
X121056400Y-112785200D02*
X119726400Y-112785200D01*
X122322000Y-84906000D02*
X122052000Y-84906000D01*
X115422000Y-84906000D02*
X115692000Y-84906000D01*
X122052000Y-84906000D02*
X122052000Y-82076000D01*
X115422000Y-86406000D02*
X115422000Y-84906000D01*
X115692000Y-84906000D02*
X115692000Y-83806000D01*
X122322000Y-86406000D02*
X122322000Y-84906000D01*
X145348000Y-102870000D02*
X145348000Y-102810000D01*
X145348000Y-105470000D02*
X144018000Y-105470000D01*
X145348000Y-104140000D02*
X145348000Y-105470000D01*
X145348000Y-102870000D02*
X142688000Y-102870000D01*
X142688000Y-102870000D02*
X142688000Y-102810000D01*
X145348000Y-102810000D02*
X142688000Y-102810000D01*
X122535000Y-85120250D02*
X122535000Y-88570250D01*
X122535000Y-85120250D02*
X122535000Y-83170250D01*
X127655000Y-85120250D02*
X127655000Y-83170250D01*
X127655000Y-85120250D02*
X127655000Y-87070250D01*
X138812000Y-105002359D02*
X138812000Y-105309641D01*
X139572000Y-105002359D02*
X139572000Y-105309641D01*
X140844000Y-105002359D02*
X140844000Y-105309641D01*
X141604000Y-105002359D02*
X141604000Y-105309641D01*
X131170000Y-98698164D02*
X131170000Y-98913836D01*
X130450000Y-98698164D02*
X130450000Y-98913836D01*
X135130000Y-76870779D02*
X135130000Y-76545221D01*
X134110000Y-76870779D02*
X134110000Y-76545221D01*
X118362000Y-96576000D02*
X118362000Y-95646000D01*
X118362000Y-96576000D02*
X116902000Y-96576000D01*
X118362000Y-93416000D02*
X116202000Y-93416000D01*
X118362000Y-93416000D02*
X118362000Y-94346000D01*
X127735359Y-68198000D02*
X128042641Y-68198000D01*
X127735359Y-67438000D02*
X128042641Y-67438000D01*
X127996836Y-71226000D02*
X127781164Y-71226000D01*
X127996836Y-70506000D02*
X127781164Y-70506000D01*
X144652000Y-82904359D02*
X144652000Y-83211641D01*
X143892000Y-82904359D02*
X143892000Y-83211641D01*
X140308359Y-72262000D02*
X140615641Y-72262000D01*
X140308359Y-71502000D02*
X140615641Y-71502000D01*
X142647641Y-81660000D02*
X142340359Y-81660000D01*
X142647641Y-80900000D02*
X142340359Y-80900000D01*
X141604000Y-102769641D02*
X141604000Y-102462359D01*
X140844000Y-102769641D02*
X140844000Y-102462359D01*
X128804641Y-65406000D02*
X128497359Y-65406000D01*
X128804641Y-66166000D02*
X128497359Y-66166000D01*
X139572000Y-102769641D02*
X139572000Y-102462359D01*
X138812000Y-102769641D02*
X138812000Y-102462359D01*
X127996836Y-67162000D02*
X127781164Y-67162000D01*
X127996836Y-66442000D02*
X127781164Y-66442000D01*
D12*
X128718000Y-72963000D02*
X127643000Y-72963000D01*
X131968000Y-72838000D02*
X131968000Y-73063000D01*
X128718000Y-72838000D02*
X128718000Y-72963000D01*
X128718000Y-72838000D02*
X131968000Y-72838000D01*
X131968000Y-76088000D02*
X131968000Y-75863000D01*
X128718000Y-76088000D02*
X131968000Y-76088000D01*
X128718000Y-76088000D02*
X128718000Y-75863000D01*
D10*
X143362000Y-86506164D02*
X143362000Y-86721836D01*
X142642000Y-86506164D02*
X142642000Y-86721836D01*
X127100359Y-69214000D02*
X127407641Y-69214000D01*
X127100359Y-68454000D02*
X127407641Y-68454000D01*
X141294000Y-76454000D02*
X141294000Y-78654000D01*
X136074000Y-76454000D02*
X136074000Y-78654000D01*
X141294000Y-76454000D02*
X141294000Y-72854000D01*
X136074000Y-76454000D02*
X136074000Y-74254000D01*
X137821641Y-65279000D02*
X137514359Y-65279000D01*
X137821641Y-66039000D02*
X137514359Y-66039000D01*
X120106000Y-79740000D02*
X120106000Y-77740000D01*
X120106000Y-77740000D02*
X116206000Y-77740000D01*
X120106000Y-79740000D02*
X116206000Y-79740000D01*
X139384000Y-85979000D02*
G75*
G03*
X139384000Y-85979000I-700000J0D01*
G01*
X117939000Y-100422064D02*
X117939000Y-98967936D01*
X116119000Y-100422064D02*
X116119000Y-98967936D01*
X139050500Y-67453742D02*
X139050500Y-67928258D01*
X140095500Y-67453742D02*
X140095500Y-67928258D01*
X127735359Y-69470000D02*
X128042641Y-69470000D01*
X127735359Y-70230000D02*
X128042641Y-70230000D01*
X141416000Y-85979000D02*
G75*
G03*
X141416000Y-85979000I-700000J0D01*
G01*
X141416000Y-88011000D02*
G75*
G03*
X141416000Y-88011000I-700000J0D01*
G01*
X142098500Y-67453742D02*
X142098500Y-67928258D01*
X143143500Y-67453742D02*
X143143500Y-67928258D01*
X144652000Y-86767641D02*
X144652000Y-86460359D01*
X143892000Y-86767641D02*
X143892000Y-86460359D01*
%LPC*%
D14*
X142750000Y-57800000D03*
X111250000Y-57800000D03*
D15*
X135750000Y-63500000D03*
X132250000Y-63500000D03*
X128750000Y-63500000D03*
X125250000Y-63500000D03*
X121750000Y-63500000D03*
X118250000Y-63500000D03*
X135750000Y-60000000D03*
X132250000Y-60000000D03*
X128750000Y-60000000D03*
X125250000Y-60000000D03*
X121750000Y-60000000D03*
X118250000Y-60000000D03*
D16*
X133045000Y-78994000D03*
X134620000Y-78994000D03*
D17*
X130048000Y-71399500D03*
X130048000Y-69824500D03*
D18*
X126025000Y-75707500D03*
X126025000Y-77282500D03*
D19*
X109220000Y-91318000D03*
X109220000Y-93218000D03*
X111220000Y-92268000D03*
D20*
X123698000Y-66802000D03*
X124668000Y-66802000D03*
D21*
X124993500Y-89916000D03*
X123418500Y-89916000D03*
D16*
X123418500Y-91440000D03*
X124993500Y-91440000D03*
D22*
X144018000Y-100330000D03*
D23*
X111760000Y-81944000D03*
X111760000Y-88744000D03*
D24*
X143510000Y-91971000D03*
X143510000Y-92941000D03*
D25*
X144498000Y-64897000D03*
X143538000Y-64897000D03*
D26*
X130828000Y-76835000D03*
X129858000Y-76835000D03*
D24*
X141986000Y-91971000D03*
X141986000Y-92941000D03*
D27*
X131826000Y-98326000D03*
X131826000Y-99286000D03*
D24*
X141986000Y-75946000D03*
X141986000Y-76916000D03*
D16*
X124180500Y-80264000D03*
X125755500Y-80264000D03*
D20*
X136421000Y-70866000D03*
X137391000Y-70866000D03*
D25*
X138656000Y-81280000D03*
X137696000Y-81280000D03*
D20*
X133904000Y-67945000D03*
X134874000Y-67945000D03*
X136421000Y-71882000D03*
X137391000Y-71882000D03*
D28*
X133350000Y-82273000D03*
X133350000Y-81303000D03*
D17*
X109220000Y-99339500D03*
X109220000Y-97764500D03*
D29*
X137858000Y-83312000D03*
X136208000Y-83312000D03*
D30*
X144526000Y-66291000D03*
X144526000Y-69091000D03*
D24*
X123952000Y-75230000D03*
X123952000Y-76200000D03*
D17*
X123952000Y-69621500D03*
X123952000Y-68046500D03*
D20*
X121181000Y-77470000D03*
X122151000Y-77470000D03*
D24*
X114554000Y-100607000D03*
X114554000Y-101577000D03*
D17*
X125476000Y-69621500D03*
X125476000Y-68046500D03*
D20*
X142517000Y-106680000D03*
X143487000Y-106680000D03*
D31*
X132334000Y-82298000D03*
X132334000Y-81278000D03*
D18*
X141097000Y-66903500D03*
X141097000Y-68478500D03*
D20*
X125626000Y-65786000D03*
X126596000Y-65786000D03*
D21*
X125755500Y-78740000D03*
X124180500Y-78740000D03*
X131597500Y-68072000D03*
X130022500Y-68072000D03*
D32*
X128016000Y-79500000D03*
X128016000Y-80520000D03*
D33*
X133033000Y-69215000D03*
X134683000Y-69215000D03*
D17*
X131572000Y-71399500D03*
X131572000Y-69824500D03*
X138049000Y-68478500D03*
X138049000Y-66903500D03*
D20*
X109227000Y-94742000D03*
X110197000Y-94742000D03*
D24*
X128397000Y-84739250D03*
X128397000Y-85709250D03*
D16*
X119837000Y-80772000D03*
X121412000Y-80772000D03*
D21*
X118135500Y-80772000D03*
X116560500Y-80772000D03*
D27*
X115062000Y-94008000D03*
X115062000Y-94968000D03*
X112760000Y-92230000D03*
X112760000Y-93190000D03*
D24*
X113792000Y-92225000D03*
X113792000Y-93195000D03*
D20*
X139192000Y-65659000D03*
X140162000Y-65659000D03*
D34*
X127000000Y-80490000D03*
X127000000Y-79530000D03*
D17*
X112776000Y-99339500D03*
X112776000Y-97764500D03*
D35*
X109204000Y-95758000D03*
X110164000Y-95758000D03*
D17*
X110998000Y-99339500D03*
X110998000Y-97764500D03*
D36*
X109982000Y-76962000D03*
X113382000Y-76962000D03*
X113382000Y-67042000D03*
X109982000Y-67042000D03*
D28*
X134874000Y-82273000D03*
X134874000Y-81303000D03*
D18*
X126025000Y-72659500D03*
X126025000Y-74234500D03*
D21*
X134645500Y-71374000D03*
X133070500Y-71374000D03*
D28*
X112776000Y-101577000D03*
X112776000Y-100607000D03*
D24*
X135890000Y-67968000D03*
X135890000Y-68938000D03*
D18*
X114554000Y-97764500D03*
X114554000Y-99339500D03*
D17*
X134620000Y-74447500D03*
X134620000Y-72872500D03*
D37*
X117353000Y-75491000D03*
D38*
X119633000Y-69191000D03*
D37*
X121913000Y-75491000D03*
D28*
X110998000Y-101577000D03*
X110998000Y-100607000D03*
D29*
X141223000Y-83312000D03*
X139573000Y-83312000D03*
D39*
X109728000Y-110916000D03*
X109728000Y-107016000D03*
X110998000Y-110916000D03*
X110998000Y-107016000D03*
X112268000Y-110916000D03*
X112268000Y-107016000D03*
X113538000Y-110916000D03*
X113538000Y-107016000D03*
X114808000Y-110916000D03*
X114808000Y-107016000D03*
X116078000Y-110916000D03*
X116078000Y-107016000D03*
X117348000Y-110916000D03*
X117348000Y-107016000D03*
D40*
X140052500Y-96222000D03*
X140052500Y-95722000D03*
X140052500Y-95222000D03*
X140052500Y-94722000D03*
X140052500Y-94222000D03*
X140052500Y-93722000D03*
X140052500Y-93222000D03*
X140052500Y-92722000D03*
X140052500Y-92222000D03*
X140052500Y-91722000D03*
X140052500Y-91222000D03*
X140052500Y-90722000D03*
D41*
X138640000Y-89309500D03*
X138140000Y-89309500D03*
X137640000Y-89309500D03*
X137140000Y-89309500D03*
X136640000Y-89309500D03*
X136140000Y-89309500D03*
X135640000Y-89309500D03*
X135140000Y-89309500D03*
X134640000Y-89309500D03*
X134140000Y-89309500D03*
X133640000Y-89309500D03*
X133140000Y-89309500D03*
D40*
X131727500Y-90722000D03*
X131727500Y-91222000D03*
X131727500Y-91722000D03*
X131727500Y-92222000D03*
X131727500Y-92722000D03*
X131727500Y-93222000D03*
X131727500Y-93722000D03*
X131727500Y-94222000D03*
X131727500Y-94722000D03*
X131727500Y-95222000D03*
X131727500Y-95722000D03*
X131727500Y-96222000D03*
D41*
X133140000Y-97634500D03*
X133640000Y-97634500D03*
X134140000Y-97634500D03*
X134640000Y-97634500D03*
X135140000Y-97634500D03*
X135640000Y-97634500D03*
X136140000Y-97634500D03*
X136640000Y-97634500D03*
X137140000Y-97634500D03*
X137640000Y-97634500D03*
X138140000Y-97634500D03*
X138640000Y-97634500D03*
D20*
X132357000Y-87630000D03*
X133327000Y-87630000D03*
D28*
X130048000Y-96982000D03*
X130048000Y-96012000D03*
D26*
X139423000Y-99314000D03*
X138453000Y-99314000D03*
D24*
X141732000Y-96289000D03*
X141732000Y-97259000D03*
D27*
X126492000Y-89690000D03*
X126492000Y-90650000D03*
D31*
X127508000Y-90680000D03*
X127508000Y-89660000D03*
D26*
X123952000Y-96520000D03*
X122982000Y-96520000D03*
D28*
X118807000Y-101450000D03*
X118807000Y-100480000D03*
X118807000Y-98910000D03*
X118807000Y-97940000D03*
D42*
X131572000Y-105156000D03*
D43*
X131572000Y-107696000D03*
X129032000Y-105156000D03*
X129032000Y-107696000D03*
D28*
X109220000Y-101577000D03*
X109220000Y-100607000D03*
D44*
X125600000Y-101600000D03*
X125600000Y-100330000D03*
X125600000Y-99060000D03*
X125600000Y-97790000D03*
X120650000Y-97790000D03*
X120650000Y-99060000D03*
X120650000Y-100330000D03*
X120650000Y-101600000D03*
D45*
X121056400Y-111455200D03*
D43*
X123596400Y-111455200D03*
X126136400Y-111455200D03*
X128676400Y-111455200D03*
X131216400Y-111455200D03*
X133756400Y-111455200D03*
X136296400Y-111455200D03*
X138836400Y-111455200D03*
X141376400Y-111455200D03*
X143916400Y-111455200D03*
D46*
X121152000Y-83176000D03*
D47*
X118872000Y-89476000D03*
D46*
X116592000Y-83176000D03*
D22*
X144018000Y-104140000D03*
D48*
X123190000Y-87695250D03*
X124460000Y-87695250D03*
X125730000Y-87695250D03*
X127000000Y-87695250D03*
X127000000Y-82545250D03*
X125730000Y-82545250D03*
X124460000Y-82545250D03*
X123190000Y-82545250D03*
D32*
X139192000Y-104646000D03*
X139192000Y-105666000D03*
X141224000Y-104646000D03*
X141224000Y-105666000D03*
D27*
X130810000Y-98326000D03*
X130810000Y-99286000D03*
D17*
X134620000Y-77495500D03*
X134620000Y-75920500D03*
D19*
X116602000Y-94046000D03*
X116602000Y-95946000D03*
X118602000Y-94996000D03*
D49*
X127379000Y-67818000D03*
X128399000Y-67818000D03*
D25*
X128369000Y-70866000D03*
X127409000Y-70866000D03*
D32*
X144272000Y-82548000D03*
X144272000Y-83568000D03*
D49*
X139952000Y-71882000D03*
X140972000Y-71882000D03*
D50*
X143004000Y-81280000D03*
X141984000Y-81280000D03*
D31*
X141224000Y-103126000D03*
X141224000Y-102106000D03*
D50*
X129161000Y-65786000D03*
X128141000Y-65786000D03*
D31*
X139192000Y-103126000D03*
X139192000Y-102106000D03*
D25*
X128369000Y-66802000D03*
X127409000Y-66802000D03*
D51*
X128193000Y-73488000D03*
X128193000Y-74138000D03*
X128193000Y-74788000D03*
X128193000Y-75438000D03*
X132493000Y-75438000D03*
X132493000Y-74788000D03*
X132493000Y-74138000D03*
X132493000Y-73488000D03*
D27*
X143002000Y-86134000D03*
X143002000Y-87094000D03*
D49*
X126744000Y-68834000D03*
X127764000Y-68834000D03*
D52*
X140634000Y-73591500D03*
X139984000Y-73591500D03*
X139334000Y-73591500D03*
X138684000Y-73591500D03*
X138034000Y-73591500D03*
X137384000Y-73591500D03*
X136734000Y-73591500D03*
X136734000Y-79316500D03*
X137384000Y-79316500D03*
X138034000Y-79316500D03*
X138684000Y-79316500D03*
X139334000Y-79316500D03*
X139984000Y-79316500D03*
X140634000Y-79316500D03*
D50*
X138178000Y-65659000D03*
X137158000Y-65659000D03*
D53*
X119506000Y-78740000D03*
X116206000Y-78740000D03*
D54*
X138684000Y-85979000D03*
D55*
X117029000Y-101157500D03*
X117029000Y-98232500D03*
D56*
X139573000Y-66866000D03*
X139573000Y-68516000D03*
D49*
X127379000Y-69850000D03*
X128399000Y-69850000D03*
D54*
X140716000Y-85979000D03*
X140716000Y-88011000D03*
D56*
X142621000Y-66866000D03*
X142621000Y-68516000D03*
D31*
X144272000Y-87124000D03*
X144272000Y-86104000D03*
M02*
