G04 #@! TF.GenerationSoftware,KiCad,Pcbnew,(5.1.6)-1*
G04 #@! TF.CreationDate,2021-01-27T01:30:11-05:00*
G04 #@! TF.ProjectId,wideband_controller,77696465-6261-46e6-945f-636f6e74726f,rev?*
G04 #@! TF.SameCoordinates,Original*
G04 #@! TF.FileFunction,Copper,L4,Bot*
G04 #@! TF.FilePolarity,Positive*
%FSLAX46Y46*%
G04 Gerber Fmt 4.6, Leading zero omitted, Abs format (unit mm)*
G04 Created by KiCad (PCBNEW (5.1.6)-1) date 2021-01-27 01:30:11*
%MOMM*%
%LPD*%
G01*
G04 APERTURE LIST*
G04 #@! TA.AperFunction,ComponentPad*
%ADD10R,1.700000X1.700000*%
G04 #@! TD*
G04 #@! TA.AperFunction,ComponentPad*
%ADD11O,1.700000X1.700000*%
G04 #@! TD*
G04 #@! TA.AperFunction,ComponentPad*
%ADD12C,2.150000*%
G04 #@! TD*
G04 #@! TA.AperFunction,SMDPad,CuDef*
%ADD13R,2.400000X0.740000*%
G04 #@! TD*
G04 #@! TA.AperFunction,ComponentPad*
%ADD14C,2.780000*%
G04 #@! TD*
G04 #@! TA.AperFunction,ViaPad*
%ADD15C,0.700000*%
G04 #@! TD*
G04 #@! TA.AperFunction,ViaPad*
%ADD16C,0.600000*%
G04 #@! TD*
G04 #@! TA.AperFunction,Conductor*
%ADD17C,0.500000*%
G04 #@! TD*
G04 #@! TA.AperFunction,Conductor*
%ADD18C,0.250000*%
G04 #@! TD*
G04 #@! TA.AperFunction,Conductor*
%ADD19C,0.254000*%
G04 #@! TD*
G04 APERTURE END LIST*
D10*
X142849600Y-107086400D03*
X142938500Y-102806500D03*
D11*
X143916400Y-111455200D03*
X141376400Y-111455200D03*
X138836400Y-111455200D03*
X136296400Y-111455200D03*
X133756400Y-111455200D03*
X131216400Y-111455200D03*
X128676400Y-111455200D03*
X126136400Y-111455200D03*
X123596400Y-111455200D03*
D10*
X121056400Y-111455200D03*
D11*
X114935000Y-105283000D03*
X114935000Y-102743000D03*
X117475000Y-105283000D03*
D10*
X117475000Y-102743000D03*
D12*
X125250000Y-60000000D03*
X121750000Y-60000000D03*
X128750000Y-60000000D03*
X132250000Y-60000000D03*
X135750000Y-60000000D03*
X118250000Y-60000000D03*
X118250000Y-63500000D03*
X121750000Y-63500000D03*
X125250000Y-63500000D03*
X128750000Y-63500000D03*
X132250000Y-63500000D03*
X135750000Y-63500000D03*
D13*
X134284000Y-98742500D03*
X130384000Y-98742500D03*
X134284000Y-100012500D03*
X130384000Y-100012500D03*
X134284000Y-101282500D03*
X130384000Y-101282500D03*
X134284000Y-102552500D03*
X130384000Y-102552500D03*
X134284000Y-103822500D03*
X130384000Y-103822500D03*
X134284000Y-105092500D03*
X130384000Y-105092500D03*
X134284000Y-106362500D03*
X130384000Y-106362500D03*
D14*
X113382000Y-67042000D03*
X109982000Y-67042000D03*
X113382000Y-76962000D03*
X109982000Y-76962000D03*
D15*
X119380000Y-67564000D03*
X121920000Y-67564000D03*
X116840000Y-67564000D03*
X118618000Y-85344000D03*
X116205000Y-85344000D03*
D16*
X137858500Y-76555600D03*
X120269000Y-76136500D03*
X128397000Y-89662000D03*
X135826500Y-96075500D03*
X141414500Y-80899000D03*
X139827000Y-80137000D03*
X133985000Y-87503000D03*
X131699000Y-73025000D03*
X138988800Y-74930000D03*
X130937000Y-64770000D03*
X125222000Y-84709000D03*
X124206000Y-78740000D03*
X127203200Y-83007200D03*
X135890000Y-93789500D03*
X131127500Y-88074500D03*
X126238000Y-64833500D03*
X134556500Y-108394500D03*
X140817600Y-102235000D03*
X131699000Y-96456500D03*
X125222000Y-97637600D03*
X142240000Y-100584000D03*
X141351000Y-76708000D03*
X140335000Y-88646000D03*
X129032000Y-107950000D03*
X109321600Y-96164400D03*
X125476000Y-104902000D03*
X138328400Y-104038400D03*
X140766800Y-105562400D03*
X137350500Y-107632500D03*
X124917200Y-109626400D03*
X121564400Y-106730800D03*
X116230400Y-110540800D03*
X109347000Y-63754000D03*
X110490000Y-63754000D03*
D15*
X110363000Y-86550500D03*
X111506000Y-86614000D03*
X112649000Y-86550500D03*
D16*
X118008400Y-91440000D03*
X116840000Y-91440000D03*
X115570000Y-91440000D03*
X114300000Y-91440000D03*
X113080800Y-92303600D03*
X114300000Y-92710000D03*
X115570000Y-92710000D03*
X115570000Y-93980000D03*
X114300000Y-93980000D03*
X114300000Y-95250000D03*
X115570000Y-95250000D03*
X116840000Y-100330000D03*
X118110000Y-100330000D03*
X119380000Y-100330000D03*
X120650000Y-100330000D03*
X121920000Y-100330000D03*
X123190000Y-100330000D03*
X123190000Y-101600000D03*
X121920000Y-101600000D03*
X120650000Y-101600000D03*
X119380000Y-101600000D03*
X119380000Y-102870000D03*
X120650000Y-102870000D03*
X121920000Y-102870000D03*
X113030000Y-102870000D03*
X124460000Y-88138000D03*
X113995200Y-87325200D03*
X114046000Y-86207600D03*
X109220000Y-86360000D03*
X113792000Y-85090000D03*
X112268000Y-85090000D03*
X110744000Y-85090000D03*
X109220000Y-85090000D03*
X109270800Y-69850000D03*
X109270800Y-71120000D03*
X109270800Y-72390000D03*
X109270800Y-73660000D03*
X110490000Y-73660000D03*
X111760000Y-73660000D03*
X112928400Y-73660000D03*
X114096800Y-73660000D03*
X114096800Y-72390000D03*
X112928400Y-72390000D03*
X111760000Y-72390000D03*
X110490000Y-72390000D03*
X110490000Y-71120000D03*
X111760000Y-71120000D03*
X112928400Y-71120000D03*
X114096800Y-71120000D03*
X114096800Y-69850000D03*
X112928400Y-69850000D03*
X111760000Y-69850000D03*
X110490000Y-69850000D03*
X114300000Y-82550000D03*
X109270800Y-83820000D03*
X110388400Y-84023200D03*
X111658400Y-84023200D03*
X112928400Y-84023200D03*
X114300000Y-83820000D03*
X118516400Y-80873600D03*
X132080000Y-78740000D03*
X131508500Y-79756000D03*
X133350000Y-80010000D03*
X134620000Y-80010000D03*
X134620000Y-81280000D03*
X135890000Y-82550000D03*
X137160000Y-83820000D03*
X138430000Y-85090000D03*
X139700000Y-83820000D03*
X138430000Y-83820000D03*
X142697200Y-79502000D03*
X140970000Y-90170000D03*
X138430000Y-90424000D03*
X141224000Y-91948000D03*
X142240000Y-82804000D03*
X143510000Y-81026000D03*
X144272000Y-83312000D03*
X144424400Y-88341200D03*
X144424400Y-90360500D03*
X144475200Y-92392500D03*
X144475200Y-94424500D03*
X144424400Y-96469200D03*
X144424400Y-98450400D03*
X144475200Y-100380800D03*
X139700000Y-107696000D03*
X140970000Y-107696000D03*
X141986000Y-108712000D03*
X143256000Y-108712000D03*
X144526000Y-108712000D03*
X141414500Y-97790000D03*
X141414500Y-96266000D03*
X141414500Y-94615000D03*
X135572500Y-74485500D03*
X111760000Y-74866500D03*
X112991900Y-74739500D03*
X114096800Y-74803000D03*
X110490000Y-74739500D03*
X109283500Y-74739500D03*
X118618000Y-82397600D03*
X116459000Y-82486500D03*
X120142000Y-82296000D03*
X112166400Y-79400400D03*
X110591600Y-79857600D03*
X111252000Y-78790800D03*
X109270800Y-79057500D03*
X109270800Y-80010000D03*
X112064800Y-93573600D03*
X118618000Y-92100400D03*
X113284000Y-95961200D03*
X115925600Y-101396800D03*
X113741200Y-101396800D03*
X113741200Y-103987600D03*
X120040400Y-103936800D03*
X114655600Y-111455200D03*
X130302000Y-76504800D03*
X129997200Y-72186800D03*
X115570000Y-96570800D03*
X114300000Y-96570800D03*
X113842800Y-97485200D03*
X114858800Y-97637600D03*
X123037600Y-102717600D03*
X121259600Y-103936800D03*
X117500400Y-101142800D03*
X117449600Y-99568000D03*
X118770400Y-99568000D03*
X120040400Y-99618800D03*
X121259600Y-99618800D03*
X122580400Y-99568000D03*
X121259600Y-100990400D03*
X119938800Y-100939600D03*
X122529600Y-100939600D03*
X122478800Y-102209600D03*
X121310400Y-102209600D03*
X119989600Y-102209600D03*
X118567200Y-101142800D03*
X114909600Y-95910400D03*
X114909600Y-94640400D03*
X114909600Y-93370400D03*
X114909600Y-92100400D03*
X116281200Y-92100400D03*
X117398800Y-92100400D03*
X114960400Y-90830400D03*
X119786400Y-92202000D03*
X121005600Y-92202000D03*
X122123200Y-92202000D03*
X113233200Y-93726000D03*
X119227600Y-91440000D03*
X118618000Y-90830400D03*
X119837200Y-81280000D03*
X135890000Y-65430400D03*
X129032000Y-69151500D03*
X133159500Y-88963500D03*
X142684500Y-78613000D03*
X123317000Y-79502000D03*
X115570000Y-88773000D03*
X115570000Y-88138000D03*
X116230400Y-109321600D03*
X114808000Y-88138000D03*
X114808000Y-88773000D03*
X133731000Y-96012000D03*
X129032000Y-97155000D03*
X128651000Y-105918000D03*
X137414000Y-106045000D03*
X112268000Y-98552000D03*
X136017000Y-107061000D03*
X111353600Y-107086400D03*
X132524500Y-100647500D03*
X135953500Y-84391500D03*
X134810500Y-96075500D03*
X132334000Y-99568000D03*
X127355600Y-98806000D03*
X111353600Y-108102400D03*
X118618000Y-106426000D03*
X110439200Y-109067600D03*
X132588000Y-103187500D03*
X132207000Y-104203500D03*
X114655600Y-110490000D03*
X111483000Y-61872000D03*
X114655600Y-109220000D03*
X109220000Y-99060000D03*
X132524500Y-101917500D03*
D17*
X130384000Y-102552500D02*
X127635000Y-102552500D01*
X130384000Y-100012500D02*
X128079500Y-100012500D01*
X127635000Y-100457000D02*
X127635000Y-102552500D01*
X128079500Y-100012500D02*
X127635000Y-100457000D01*
X126365000Y-103822500D02*
X130384000Y-103822500D01*
X127635000Y-102552500D02*
X125476000Y-104902000D01*
X125476000Y-104902000D02*
X126365000Y-103822500D01*
D18*
X129143350Y-69151500D02*
X129032000Y-69151500D01*
X130873500Y-80899000D02*
X131953000Y-80899000D01*
X129032000Y-69977000D02*
X128841500Y-70167500D01*
X130302000Y-80327500D02*
X130873500Y-80899000D01*
X128841500Y-76517500D02*
X130302000Y-77978000D01*
X128841500Y-70167500D02*
X128841500Y-76517500D01*
X130302000Y-77978000D02*
X130302000Y-80327500D01*
X129032000Y-69151500D02*
X129032000Y-69977000D01*
X132397500Y-88201500D02*
X133159500Y-88963500D01*
X132397500Y-81343500D02*
X132397500Y-88201500D01*
X131953000Y-80899000D02*
X132397500Y-81343500D01*
X130384000Y-105092500D02*
X129476500Y-105092500D01*
X129476500Y-105092500D02*
X128651000Y-105918000D01*
X132524500Y-100647500D02*
X132524500Y-100393500D01*
X132905500Y-100012500D02*
X134284000Y-100012500D01*
X132524500Y-100393500D02*
X132905500Y-100012500D01*
X133394899Y-86950101D02*
X135953500Y-84391500D01*
X133394899Y-88055899D02*
X133394899Y-86950101D01*
X134810500Y-89471500D02*
X133394899Y-88055899D01*
X134810500Y-96075500D02*
X134810500Y-89471500D01*
X132334000Y-99568000D02*
X132334000Y-98996500D01*
X132588000Y-98742500D02*
X134284000Y-98742500D01*
X132334000Y-98996500D02*
X132588000Y-98742500D01*
X122682000Y-105029000D02*
X120015000Y-105029000D01*
X125857000Y-101854000D02*
X122682000Y-105029000D01*
X125857000Y-99187000D02*
X125857000Y-101854000D01*
X117729000Y-102743000D02*
X117475000Y-102743000D01*
X127127000Y-97917000D02*
X125857000Y-99187000D01*
X120015000Y-105029000D02*
X117729000Y-102743000D01*
X132524500Y-98742500D02*
X132334000Y-98552000D01*
X132588000Y-98742500D02*
X132524500Y-98742500D01*
X132334000Y-98552000D02*
X132334000Y-98298000D01*
X132334000Y-98298000D02*
X131953000Y-97917000D01*
X131953000Y-97917000D02*
X127127000Y-97917000D01*
X117475000Y-105283000D02*
X118541800Y-105283000D01*
X119278400Y-106019600D02*
X123190000Y-106019600D01*
X128585670Y-98742500D02*
X130384000Y-98742500D01*
X118541800Y-105283000D02*
X119278400Y-106019600D01*
X123190000Y-106019600D02*
X126898400Y-102311200D01*
X126898400Y-100429770D02*
X128585670Y-98742500D01*
X126898400Y-102311200D02*
X126898400Y-100429770D01*
X122936000Y-105537000D02*
X126390400Y-102082600D01*
X126390400Y-102082600D02*
X126390400Y-99771200D01*
X119761000Y-105537000D02*
X122936000Y-105537000D01*
X118237000Y-104013000D02*
X119761000Y-105537000D01*
X116840000Y-104013000D02*
X118237000Y-104013000D01*
X126390400Y-99771200D02*
X127355600Y-98806000D01*
X116205000Y-104648000D02*
X116840000Y-104013000D01*
X111353600Y-108102400D02*
X115773200Y-108102400D01*
X115773200Y-108102400D02*
X116205000Y-107670600D01*
X116205000Y-106756200D02*
X116205000Y-106705400D01*
X116205000Y-107670600D02*
X116205000Y-106705400D01*
X116205000Y-106705400D02*
X116205000Y-104648000D01*
X110540800Y-108966000D02*
X110439200Y-109067600D01*
X118186200Y-106857800D02*
X118618000Y-106426000D01*
X117017800Y-106857800D02*
X118186200Y-106857800D01*
X116763800Y-107924600D02*
X116763800Y-107111800D01*
X114128101Y-108629899D02*
X116058501Y-108629899D01*
X116763800Y-107111800D02*
X117017800Y-106857800D01*
X116058501Y-108629899D02*
X116763800Y-107924600D01*
X113690400Y-109067600D02*
X114128101Y-108629899D01*
X110439200Y-109067600D02*
X113690400Y-109067600D01*
X134284000Y-103822500D02*
X133159500Y-103822500D01*
X132588000Y-103632000D02*
X132778500Y-103822500D01*
X132778500Y-103822500D02*
X134284000Y-103822500D01*
X132588000Y-103187500D02*
X132588000Y-103632000D01*
X132207000Y-104775000D02*
X132207000Y-104203500D01*
X134284000Y-105092500D02*
X132524500Y-105092500D01*
X132524500Y-105092500D02*
X132207000Y-104775000D01*
X108762800Y-110490000D02*
X108301899Y-110029099D01*
X108301899Y-62132101D02*
X108562000Y-61872000D01*
X108301899Y-110029099D02*
X108301899Y-62132101D01*
X108562000Y-61872000D02*
X111483000Y-61872000D01*
X114655600Y-110490000D02*
X112776000Y-110490000D01*
X112776000Y-110490000D02*
X108762800Y-110490000D01*
X108839000Y-99441000D02*
X109220000Y-99060000D01*
X108839000Y-109347000D02*
X108839000Y-99441000D01*
X109270800Y-109778800D02*
X108839000Y-109347000D01*
X114655600Y-109220000D02*
X114096800Y-109778800D01*
X114096800Y-109778800D02*
X113842800Y-109778800D01*
X113842800Y-109778800D02*
X109270800Y-109778800D01*
X132524500Y-102235000D02*
X132524500Y-101917500D01*
X134284000Y-102552500D02*
X132842000Y-102552500D01*
X132842000Y-102552500D02*
X132524500Y-102235000D01*
D19*
G36*
X145390000Y-111328198D02*
G01*
X145237215Y-111328198D01*
X145357881Y-111098309D01*
X145260557Y-110823948D01*
X145111578Y-110573845D01*
X144916669Y-110357612D01*
X144683320Y-110183559D01*
X144420499Y-110058375D01*
X144273290Y-110013724D01*
X144043400Y-110135045D01*
X144043400Y-111328200D01*
X144063400Y-111328200D01*
X144063400Y-111582200D01*
X144043400Y-111582200D01*
X144043400Y-112775355D01*
X144273290Y-112896676D01*
X144420499Y-112852025D01*
X144683320Y-112726841D01*
X144916669Y-112552788D01*
X145111578Y-112336555D01*
X145260557Y-112086452D01*
X145357881Y-111812091D01*
X145237215Y-111582202D01*
X145390000Y-111582202D01*
X145390000Y-113005000D01*
X108610000Y-113005000D01*
X108610000Y-111237846D01*
X108613814Y-111239003D01*
X108725467Y-111250000D01*
X108725476Y-111250000D01*
X108762799Y-111253676D01*
X108800122Y-111250000D01*
X114110065Y-111250000D01*
X114212711Y-111318586D01*
X114382871Y-111389068D01*
X114563511Y-111425000D01*
X114747689Y-111425000D01*
X114928329Y-111389068D01*
X115098489Y-111318586D01*
X115251628Y-111216262D01*
X115381862Y-111086028D01*
X115484186Y-110932889D01*
X115554668Y-110762729D01*
X115586002Y-110605200D01*
X119568328Y-110605200D01*
X119568328Y-112305200D01*
X119580588Y-112429682D01*
X119616898Y-112549380D01*
X119675863Y-112659694D01*
X119755215Y-112756385D01*
X119851906Y-112835737D01*
X119962220Y-112894702D01*
X120081918Y-112931012D01*
X120206400Y-112943272D01*
X121906400Y-112943272D01*
X122030882Y-112931012D01*
X122150580Y-112894702D01*
X122260894Y-112835737D01*
X122357585Y-112756385D01*
X122436937Y-112659694D01*
X122495902Y-112549380D01*
X122517913Y-112476820D01*
X122649768Y-112608675D01*
X122892989Y-112771190D01*
X123163242Y-112883132D01*
X123450140Y-112940200D01*
X123742660Y-112940200D01*
X124029558Y-112883132D01*
X124299811Y-112771190D01*
X124543032Y-112608675D01*
X124749875Y-112401832D01*
X124866400Y-112227440D01*
X124982925Y-112401832D01*
X125189768Y-112608675D01*
X125432989Y-112771190D01*
X125703242Y-112883132D01*
X125990140Y-112940200D01*
X126282660Y-112940200D01*
X126569558Y-112883132D01*
X126839811Y-112771190D01*
X127083032Y-112608675D01*
X127289875Y-112401832D01*
X127406400Y-112227440D01*
X127522925Y-112401832D01*
X127729768Y-112608675D01*
X127972989Y-112771190D01*
X128243242Y-112883132D01*
X128530140Y-112940200D01*
X128822660Y-112940200D01*
X129109558Y-112883132D01*
X129379811Y-112771190D01*
X129623032Y-112608675D01*
X129829875Y-112401832D01*
X129946400Y-112227440D01*
X130062925Y-112401832D01*
X130269768Y-112608675D01*
X130512989Y-112771190D01*
X130783242Y-112883132D01*
X131070140Y-112940200D01*
X131362660Y-112940200D01*
X131649558Y-112883132D01*
X131919811Y-112771190D01*
X132163032Y-112608675D01*
X132369875Y-112401832D01*
X132486400Y-112227440D01*
X132602925Y-112401832D01*
X132809768Y-112608675D01*
X133052989Y-112771190D01*
X133323242Y-112883132D01*
X133610140Y-112940200D01*
X133902660Y-112940200D01*
X134189558Y-112883132D01*
X134459811Y-112771190D01*
X134703032Y-112608675D01*
X134909875Y-112401832D01*
X135026400Y-112227440D01*
X135142925Y-112401832D01*
X135349768Y-112608675D01*
X135592989Y-112771190D01*
X135863242Y-112883132D01*
X136150140Y-112940200D01*
X136442660Y-112940200D01*
X136729558Y-112883132D01*
X136999811Y-112771190D01*
X137243032Y-112608675D01*
X137449875Y-112401832D01*
X137566400Y-112227440D01*
X137682925Y-112401832D01*
X137889768Y-112608675D01*
X138132989Y-112771190D01*
X138403242Y-112883132D01*
X138690140Y-112940200D01*
X138982660Y-112940200D01*
X139269558Y-112883132D01*
X139539811Y-112771190D01*
X139783032Y-112608675D01*
X139989875Y-112401832D01*
X140106400Y-112227440D01*
X140222925Y-112401832D01*
X140429768Y-112608675D01*
X140672989Y-112771190D01*
X140943242Y-112883132D01*
X141230140Y-112940200D01*
X141522660Y-112940200D01*
X141809558Y-112883132D01*
X142079811Y-112771190D01*
X142323032Y-112608675D01*
X142529875Y-112401832D01*
X142651595Y-112219666D01*
X142721222Y-112336555D01*
X142916131Y-112552788D01*
X143149480Y-112726841D01*
X143412301Y-112852025D01*
X143559510Y-112896676D01*
X143789400Y-112775355D01*
X143789400Y-111582200D01*
X143769400Y-111582200D01*
X143769400Y-111328200D01*
X143789400Y-111328200D01*
X143789400Y-110135045D01*
X143559510Y-110013724D01*
X143412301Y-110058375D01*
X143149480Y-110183559D01*
X142916131Y-110357612D01*
X142721222Y-110573845D01*
X142651595Y-110690734D01*
X142529875Y-110508568D01*
X142323032Y-110301725D01*
X142079811Y-110139210D01*
X141809558Y-110027268D01*
X141522660Y-109970200D01*
X141230140Y-109970200D01*
X140943242Y-110027268D01*
X140672989Y-110139210D01*
X140429768Y-110301725D01*
X140222925Y-110508568D01*
X140106400Y-110682960D01*
X139989875Y-110508568D01*
X139783032Y-110301725D01*
X139539811Y-110139210D01*
X139269558Y-110027268D01*
X138982660Y-109970200D01*
X138690140Y-109970200D01*
X138403242Y-110027268D01*
X138132989Y-110139210D01*
X137889768Y-110301725D01*
X137682925Y-110508568D01*
X137566400Y-110682960D01*
X137449875Y-110508568D01*
X137243032Y-110301725D01*
X136999811Y-110139210D01*
X136729558Y-110027268D01*
X136442660Y-109970200D01*
X136150140Y-109970200D01*
X135863242Y-110027268D01*
X135592989Y-110139210D01*
X135349768Y-110301725D01*
X135142925Y-110508568D01*
X135026400Y-110682960D01*
X134909875Y-110508568D01*
X134703032Y-110301725D01*
X134459811Y-110139210D01*
X134189558Y-110027268D01*
X133902660Y-109970200D01*
X133610140Y-109970200D01*
X133323242Y-110027268D01*
X133052989Y-110139210D01*
X132809768Y-110301725D01*
X132602925Y-110508568D01*
X132486400Y-110682960D01*
X132369875Y-110508568D01*
X132163032Y-110301725D01*
X131919811Y-110139210D01*
X131649558Y-110027268D01*
X131362660Y-109970200D01*
X131070140Y-109970200D01*
X130783242Y-110027268D01*
X130512989Y-110139210D01*
X130269768Y-110301725D01*
X130062925Y-110508568D01*
X129946400Y-110682960D01*
X129829875Y-110508568D01*
X129623032Y-110301725D01*
X129379811Y-110139210D01*
X129109558Y-110027268D01*
X128822660Y-109970200D01*
X128530140Y-109970200D01*
X128243242Y-110027268D01*
X127972989Y-110139210D01*
X127729768Y-110301725D01*
X127522925Y-110508568D01*
X127406400Y-110682960D01*
X127289875Y-110508568D01*
X127083032Y-110301725D01*
X126839811Y-110139210D01*
X126569558Y-110027268D01*
X126282660Y-109970200D01*
X125990140Y-109970200D01*
X125703242Y-110027268D01*
X125432989Y-110139210D01*
X125189768Y-110301725D01*
X124982925Y-110508568D01*
X124866400Y-110682960D01*
X124749875Y-110508568D01*
X124543032Y-110301725D01*
X124299811Y-110139210D01*
X124029558Y-110027268D01*
X123742660Y-109970200D01*
X123450140Y-109970200D01*
X123163242Y-110027268D01*
X122892989Y-110139210D01*
X122649768Y-110301725D01*
X122517913Y-110433580D01*
X122495902Y-110361020D01*
X122436937Y-110250706D01*
X122357585Y-110154015D01*
X122260894Y-110074663D01*
X122150580Y-110015698D01*
X122030882Y-109979388D01*
X121906400Y-109967128D01*
X120206400Y-109967128D01*
X120081918Y-109979388D01*
X119962220Y-110015698D01*
X119851906Y-110074663D01*
X119755215Y-110154015D01*
X119675863Y-110250706D01*
X119616898Y-110361020D01*
X119580588Y-110480718D01*
X119568328Y-110605200D01*
X115586002Y-110605200D01*
X115590600Y-110582089D01*
X115590600Y-110397911D01*
X115554668Y-110217271D01*
X115484186Y-110047111D01*
X115381862Y-109893972D01*
X115342890Y-109855000D01*
X115381862Y-109816028D01*
X115409057Y-109775328D01*
X115504138Y-109917628D01*
X115634372Y-110047862D01*
X115787511Y-110150186D01*
X115957671Y-110220668D01*
X116138311Y-110256600D01*
X116322489Y-110256600D01*
X116503129Y-110220668D01*
X116673289Y-110150186D01*
X116826428Y-110047862D01*
X116956662Y-109917628D01*
X117058986Y-109764489D01*
X117129468Y-109594329D01*
X117165400Y-109413689D01*
X117165400Y-109229511D01*
X117129468Y-109048871D01*
X117058986Y-108878711D01*
X116989093Y-108774109D01*
X117274809Y-108488394D01*
X117303801Y-108464601D01*
X117327595Y-108435608D01*
X117327599Y-108435604D01*
X117398773Y-108348877D01*
X117398774Y-108348876D01*
X117469346Y-108216847D01*
X117512803Y-108073586D01*
X117523800Y-107961933D01*
X117523800Y-107961924D01*
X117527476Y-107924601D01*
X117523800Y-107887278D01*
X117523800Y-107617800D01*
X118148878Y-107617800D01*
X118186200Y-107621476D01*
X118223522Y-107617800D01*
X118223533Y-107617800D01*
X118335186Y-107606803D01*
X118478447Y-107563346D01*
X118610476Y-107492774D01*
X118726201Y-107397801D01*
X118750003Y-107368798D01*
X118769648Y-107349153D01*
X118890729Y-107325068D01*
X119060889Y-107254586D01*
X119214028Y-107152262D01*
X119344262Y-107022028D01*
X119446586Y-106868889D01*
X119483570Y-106779600D01*
X123152678Y-106779600D01*
X123190000Y-106783276D01*
X123227322Y-106779600D01*
X123227333Y-106779600D01*
X123338986Y-106768603D01*
X123482247Y-106725146D01*
X123614276Y-106654574D01*
X123730001Y-106559601D01*
X123753804Y-106530597D01*
X127361901Y-102922500D01*
X128545928Y-102922500D01*
X128558188Y-103046982D01*
X128594498Y-103166680D01*
X128605627Y-103187500D01*
X128594498Y-103208320D01*
X128558188Y-103328018D01*
X128545928Y-103452500D01*
X128549000Y-103536750D01*
X128707750Y-103695500D01*
X130257000Y-103695500D01*
X130257000Y-102679500D01*
X128707750Y-102679500D01*
X128549000Y-102838250D01*
X128545928Y-102922500D01*
X127361901Y-102922500D01*
X127409404Y-102874998D01*
X127438401Y-102851201D01*
X127533374Y-102735476D01*
X127603946Y-102603447D01*
X127647403Y-102460186D01*
X127658400Y-102348533D01*
X127658400Y-102348532D01*
X127662077Y-102311200D01*
X127658400Y-102273867D01*
X127658400Y-100744571D01*
X128612611Y-99790361D01*
X128707750Y-99885500D01*
X130257000Y-99885500D01*
X130257000Y-99865500D01*
X130511000Y-99865500D01*
X130511000Y-99885500D01*
X130531000Y-99885500D01*
X130531000Y-100139500D01*
X130511000Y-100139500D01*
X130511000Y-100159500D01*
X130257000Y-100159500D01*
X130257000Y-100139500D01*
X128707750Y-100139500D01*
X128549000Y-100298250D01*
X128545928Y-100382500D01*
X128558188Y-100506982D01*
X128594498Y-100626680D01*
X128605627Y-100647500D01*
X128594498Y-100668320D01*
X128558188Y-100788018D01*
X128545928Y-100912500D01*
X128545928Y-101652500D01*
X128558188Y-101776982D01*
X128594498Y-101896680D01*
X128605627Y-101917500D01*
X128594498Y-101938320D01*
X128558188Y-102058018D01*
X128545928Y-102182500D01*
X128549000Y-102266750D01*
X128707750Y-102425500D01*
X130257000Y-102425500D01*
X130257000Y-102405500D01*
X130511000Y-102405500D01*
X130511000Y-102425500D01*
X130531000Y-102425500D01*
X130531000Y-102679500D01*
X130511000Y-102679500D01*
X130511000Y-103695500D01*
X130531000Y-103695500D01*
X130531000Y-103949500D01*
X130511000Y-103949500D01*
X130511000Y-103969500D01*
X130257000Y-103969500D01*
X130257000Y-103949500D01*
X128707750Y-103949500D01*
X128549000Y-104108250D01*
X128545928Y-104192500D01*
X128558188Y-104316982D01*
X128594498Y-104436680D01*
X128605627Y-104457500D01*
X128594498Y-104478320D01*
X128558188Y-104598018D01*
X128545928Y-104722500D01*
X128545928Y-104948270D01*
X128499351Y-104994847D01*
X128378271Y-105018932D01*
X128208111Y-105089414D01*
X128054972Y-105191738D01*
X127924738Y-105321972D01*
X127822414Y-105475111D01*
X127751932Y-105645271D01*
X127716000Y-105825911D01*
X127716000Y-106010089D01*
X127751932Y-106190729D01*
X127822414Y-106360889D01*
X127924738Y-106514028D01*
X128054972Y-106644262D01*
X128208111Y-106746586D01*
X128378271Y-106817068D01*
X128557774Y-106852774D01*
X128558188Y-106856982D01*
X128594498Y-106976680D01*
X128653463Y-107086994D01*
X128732815Y-107183685D01*
X128829506Y-107263037D01*
X128939820Y-107322002D01*
X129059518Y-107358312D01*
X129184000Y-107370572D01*
X131584000Y-107370572D01*
X131708482Y-107358312D01*
X131828180Y-107322002D01*
X131938494Y-107263037D01*
X132035185Y-107183685D01*
X132114537Y-107086994D01*
X132173502Y-106976680D01*
X132209812Y-106856982D01*
X132222072Y-106732500D01*
X132222072Y-105992500D01*
X132209812Y-105868018D01*
X132180136Y-105770188D01*
X132232253Y-105798046D01*
X132375514Y-105841503D01*
X132463599Y-105850179D01*
X132458188Y-105868018D01*
X132445928Y-105992500D01*
X132445928Y-106732500D01*
X132458188Y-106856982D01*
X132494498Y-106976680D01*
X132553463Y-107086994D01*
X132632815Y-107183685D01*
X132729506Y-107263037D01*
X132839820Y-107322002D01*
X132959518Y-107358312D01*
X133084000Y-107370572D01*
X135133193Y-107370572D01*
X135188414Y-107503889D01*
X135290738Y-107657028D01*
X135420972Y-107787262D01*
X135574111Y-107889586D01*
X135744271Y-107960068D01*
X135924911Y-107996000D01*
X136109089Y-107996000D01*
X136289729Y-107960068D01*
X136459889Y-107889586D01*
X136613028Y-107787262D01*
X136743262Y-107657028D01*
X136845586Y-107503889D01*
X136916068Y-107333729D01*
X136952000Y-107153089D01*
X136952000Y-106968911D01*
X136927203Y-106844247D01*
X136971111Y-106873586D01*
X137141271Y-106944068D01*
X137321911Y-106980000D01*
X137506089Y-106980000D01*
X137686729Y-106944068D01*
X137856889Y-106873586D01*
X138010028Y-106771262D01*
X138140262Y-106641028D01*
X138242586Y-106487889D01*
X138313068Y-106317729D01*
X138329245Y-106236400D01*
X141361528Y-106236400D01*
X141361528Y-107936400D01*
X141373788Y-108060882D01*
X141410098Y-108180580D01*
X141469063Y-108290894D01*
X141548415Y-108387585D01*
X141645106Y-108466937D01*
X141755420Y-108525902D01*
X141875118Y-108562212D01*
X141999600Y-108574472D01*
X143699600Y-108574472D01*
X143824082Y-108562212D01*
X143943780Y-108525902D01*
X144054094Y-108466937D01*
X144150785Y-108387585D01*
X144230137Y-108290894D01*
X144289102Y-108180580D01*
X144325412Y-108060882D01*
X144337672Y-107936400D01*
X144337672Y-106236400D01*
X144325412Y-106111918D01*
X144289102Y-105992220D01*
X144230137Y-105881906D01*
X144150785Y-105785215D01*
X144054094Y-105705863D01*
X143943780Y-105646898D01*
X143824082Y-105610588D01*
X143699600Y-105598328D01*
X141999600Y-105598328D01*
X141875118Y-105610588D01*
X141755420Y-105646898D01*
X141645106Y-105705863D01*
X141548415Y-105785215D01*
X141469063Y-105881906D01*
X141410098Y-105992220D01*
X141373788Y-106111918D01*
X141361528Y-106236400D01*
X138329245Y-106236400D01*
X138349000Y-106137089D01*
X138349000Y-105952911D01*
X138313068Y-105772271D01*
X138242586Y-105602111D01*
X138140262Y-105448972D01*
X138010028Y-105318738D01*
X137856889Y-105216414D01*
X137686729Y-105145932D01*
X137506089Y-105110000D01*
X137321911Y-105110000D01*
X137141271Y-105145932D01*
X136971111Y-105216414D01*
X136817972Y-105318738D01*
X136687738Y-105448972D01*
X136585414Y-105602111D01*
X136514932Y-105772271D01*
X136479000Y-105952911D01*
X136479000Y-106137089D01*
X136503797Y-106261753D01*
X136459889Y-106232414D01*
X136289729Y-106161932D01*
X136122072Y-106128583D01*
X136122072Y-105992500D01*
X136109812Y-105868018D01*
X136073502Y-105748320D01*
X136062373Y-105727500D01*
X136073502Y-105706680D01*
X136109812Y-105586982D01*
X136122072Y-105462500D01*
X136122072Y-104722500D01*
X136109812Y-104598018D01*
X136073502Y-104478320D01*
X136062373Y-104457500D01*
X136073502Y-104436680D01*
X136109812Y-104316982D01*
X136122072Y-104192500D01*
X136122072Y-103452500D01*
X136109812Y-103328018D01*
X136073502Y-103208320D01*
X136062373Y-103187500D01*
X136073502Y-103166680D01*
X136109812Y-103046982D01*
X136122072Y-102922500D01*
X136122072Y-102182500D01*
X136109812Y-102058018D01*
X136079017Y-101956500D01*
X141450428Y-101956500D01*
X141450428Y-103656500D01*
X141462688Y-103780982D01*
X141498998Y-103900680D01*
X141557963Y-104010994D01*
X141637315Y-104107685D01*
X141734006Y-104187037D01*
X141844320Y-104246002D01*
X141964018Y-104282312D01*
X142088500Y-104294572D01*
X143788500Y-104294572D01*
X143912982Y-104282312D01*
X144032680Y-104246002D01*
X144142994Y-104187037D01*
X144239685Y-104107685D01*
X144319037Y-104010994D01*
X144378002Y-103900680D01*
X144414312Y-103780982D01*
X144426572Y-103656500D01*
X144426572Y-101956500D01*
X144414312Y-101832018D01*
X144378002Y-101712320D01*
X144319037Y-101602006D01*
X144239685Y-101505315D01*
X144142994Y-101425963D01*
X144032680Y-101366998D01*
X143912982Y-101330688D01*
X143788500Y-101318428D01*
X142088500Y-101318428D01*
X141964018Y-101330688D01*
X141844320Y-101366998D01*
X141734006Y-101425963D01*
X141637315Y-101505315D01*
X141557963Y-101602006D01*
X141498998Y-101712320D01*
X141462688Y-101832018D01*
X141450428Y-101956500D01*
X136079017Y-101956500D01*
X136073502Y-101938320D01*
X136062373Y-101917500D01*
X136073502Y-101896680D01*
X136109812Y-101776982D01*
X136122072Y-101652500D01*
X136122072Y-100912500D01*
X136109812Y-100788018D01*
X136073502Y-100668320D01*
X136062373Y-100647500D01*
X136073502Y-100626680D01*
X136109812Y-100506982D01*
X136122072Y-100382500D01*
X136122072Y-99642500D01*
X136109812Y-99518018D01*
X136073502Y-99398320D01*
X136062373Y-99377500D01*
X136073502Y-99356680D01*
X136109812Y-99236982D01*
X136122072Y-99112500D01*
X136122072Y-98372500D01*
X136109812Y-98248018D01*
X136073502Y-98128320D01*
X136014537Y-98018006D01*
X135935185Y-97921315D01*
X135838494Y-97841963D01*
X135728180Y-97782998D01*
X135608482Y-97746688D01*
X135484000Y-97734428D01*
X133084000Y-97734428D01*
X132959518Y-97746688D01*
X132883614Y-97769713D01*
X132874001Y-97757999D01*
X132844997Y-97734196D01*
X132516804Y-97406003D01*
X132493001Y-97376999D01*
X132377276Y-97282026D01*
X132245247Y-97211454D01*
X132101986Y-97167997D01*
X131990333Y-97157000D01*
X131990322Y-97157000D01*
X131953000Y-97153324D01*
X131915678Y-97157000D01*
X129967000Y-97157000D01*
X129967000Y-97062911D01*
X129931068Y-96882271D01*
X129860586Y-96712111D01*
X129758262Y-96558972D01*
X129628028Y-96428738D01*
X129474889Y-96326414D01*
X129304729Y-96255932D01*
X129124089Y-96220000D01*
X128939911Y-96220000D01*
X128759271Y-96255932D01*
X128589111Y-96326414D01*
X128435972Y-96428738D01*
X128305738Y-96558972D01*
X128203414Y-96712111D01*
X128132932Y-96882271D01*
X128097000Y-97062911D01*
X128097000Y-97157000D01*
X127164322Y-97157000D01*
X127126999Y-97153324D01*
X127089676Y-97157000D01*
X127089667Y-97157000D01*
X126978014Y-97167997D01*
X126834753Y-97211454D01*
X126702724Y-97282026D01*
X126586999Y-97376999D01*
X126563201Y-97405997D01*
X125346003Y-98623196D01*
X125316999Y-98646999D01*
X125262086Y-98713911D01*
X125222026Y-98762724D01*
X125176704Y-98847515D01*
X125151454Y-98894754D01*
X125107997Y-99038015D01*
X125097000Y-99149668D01*
X125097000Y-99149678D01*
X125093324Y-99187000D01*
X125097000Y-99224323D01*
X125097001Y-101539197D01*
X122367199Y-104269000D01*
X120329802Y-104269000D01*
X118963072Y-102902271D01*
X118963072Y-101893000D01*
X118950812Y-101768518D01*
X118914502Y-101648820D01*
X118855537Y-101538506D01*
X118776185Y-101441815D01*
X118679494Y-101362463D01*
X118569180Y-101303498D01*
X118449482Y-101267188D01*
X118325000Y-101254928D01*
X116625000Y-101254928D01*
X116500518Y-101267188D01*
X116380820Y-101303498D01*
X116270506Y-101362463D01*
X116173815Y-101441815D01*
X116094463Y-101538506D01*
X116035498Y-101648820D01*
X116011034Y-101729466D01*
X115935269Y-101645412D01*
X115701920Y-101471359D01*
X115439099Y-101346175D01*
X115291890Y-101301524D01*
X115062000Y-101422845D01*
X115062000Y-102616000D01*
X115082000Y-102616000D01*
X115082000Y-102870000D01*
X115062000Y-102870000D01*
X115062000Y-102890000D01*
X114808000Y-102890000D01*
X114808000Y-102870000D01*
X113614186Y-102870000D01*
X113493519Y-103099891D01*
X113590843Y-103374252D01*
X113739822Y-103624355D01*
X113934731Y-103840588D01*
X114164406Y-104011900D01*
X113988368Y-104129525D01*
X113781525Y-104336368D01*
X113619010Y-104579589D01*
X113507068Y-104849842D01*
X113450000Y-105136740D01*
X113450000Y-105429260D01*
X113507068Y-105716158D01*
X113619010Y-105986411D01*
X113781525Y-106229632D01*
X113988368Y-106436475D01*
X114231589Y-106598990D01*
X114501842Y-106710932D01*
X114788740Y-106768000D01*
X115081260Y-106768000D01*
X115368158Y-106710932D01*
X115445000Y-106679103D01*
X115445000Y-106793532D01*
X115445001Y-106793541D01*
X115445000Y-107342400D01*
X112255996Y-107342400D01*
X112288600Y-107178489D01*
X112288600Y-106994311D01*
X112252668Y-106813671D01*
X112182186Y-106643511D01*
X112079862Y-106490372D01*
X111949628Y-106360138D01*
X111796489Y-106257814D01*
X111626329Y-106187332D01*
X111445689Y-106151400D01*
X111261511Y-106151400D01*
X111080871Y-106187332D01*
X110910711Y-106257814D01*
X110757572Y-106360138D01*
X110627338Y-106490372D01*
X110525014Y-106643511D01*
X110454532Y-106813671D01*
X110418600Y-106994311D01*
X110418600Y-107178489D01*
X110454532Y-107359129D01*
X110525014Y-107529289D01*
X110568520Y-107594400D01*
X110525014Y-107659511D01*
X110454532Y-107829671D01*
X110418600Y-108010311D01*
X110418600Y-108132600D01*
X110347111Y-108132600D01*
X110166471Y-108168532D01*
X109996311Y-108239014D01*
X109843172Y-108341338D01*
X109712938Y-108471572D01*
X109610614Y-108624711D01*
X109599000Y-108652750D01*
X109599000Y-102386109D01*
X113493519Y-102386109D01*
X113614186Y-102616000D01*
X114808000Y-102616000D01*
X114808000Y-101422845D01*
X114578110Y-101301524D01*
X114430901Y-101346175D01*
X114168080Y-101471359D01*
X113934731Y-101645412D01*
X113739822Y-101861645D01*
X113590843Y-102111748D01*
X113493519Y-102386109D01*
X109599000Y-102386109D01*
X109599000Y-99915049D01*
X109662889Y-99888586D01*
X109816028Y-99786262D01*
X109946262Y-99656028D01*
X110048586Y-99502889D01*
X110119068Y-99332729D01*
X110155000Y-99152089D01*
X110155000Y-98967911D01*
X110119068Y-98787271D01*
X110048586Y-98617111D01*
X109946262Y-98463972D01*
X109942201Y-98459911D01*
X111333000Y-98459911D01*
X111333000Y-98644089D01*
X111368932Y-98824729D01*
X111439414Y-98994889D01*
X111541738Y-99148028D01*
X111671972Y-99278262D01*
X111825111Y-99380586D01*
X111995271Y-99451068D01*
X112175911Y-99487000D01*
X112360089Y-99487000D01*
X112540729Y-99451068D01*
X112710889Y-99380586D01*
X112864028Y-99278262D01*
X112994262Y-99148028D01*
X113096586Y-98994889D01*
X113167068Y-98824729D01*
X113203000Y-98644089D01*
X113203000Y-98459911D01*
X113167068Y-98279271D01*
X113096586Y-98109111D01*
X112994262Y-97955972D01*
X112864028Y-97825738D01*
X112710889Y-97723414D01*
X112540729Y-97652932D01*
X112360089Y-97617000D01*
X112175911Y-97617000D01*
X111995271Y-97652932D01*
X111825111Y-97723414D01*
X111671972Y-97825738D01*
X111541738Y-97955972D01*
X111439414Y-98109111D01*
X111368932Y-98279271D01*
X111333000Y-98459911D01*
X109942201Y-98459911D01*
X109816028Y-98333738D01*
X109662889Y-98231414D01*
X109492729Y-98160932D01*
X109312089Y-98125000D01*
X109127911Y-98125000D01*
X109061899Y-98138131D01*
X109061899Y-88045911D01*
X113873000Y-88045911D01*
X113873000Y-88230089D01*
X113908932Y-88410729D01*
X113927477Y-88455500D01*
X113908932Y-88500271D01*
X113873000Y-88680911D01*
X113873000Y-88865089D01*
X113908932Y-89045729D01*
X113979414Y-89215889D01*
X114081738Y-89369028D01*
X114211972Y-89499262D01*
X114365111Y-89601586D01*
X114535271Y-89672068D01*
X114715911Y-89708000D01*
X114900089Y-89708000D01*
X115080729Y-89672068D01*
X115189000Y-89627221D01*
X115297271Y-89672068D01*
X115477911Y-89708000D01*
X115662089Y-89708000D01*
X115842729Y-89672068D01*
X116012889Y-89601586D01*
X116166028Y-89499262D01*
X116296262Y-89369028D01*
X116398586Y-89215889D01*
X116469068Y-89045729D01*
X116505000Y-88865089D01*
X116505000Y-88680911D01*
X116469068Y-88500271D01*
X116450523Y-88455500D01*
X116469068Y-88410729D01*
X116505000Y-88230089D01*
X116505000Y-88045911D01*
X116469068Y-87865271D01*
X116398586Y-87695111D01*
X116296262Y-87541972D01*
X116166028Y-87411738D01*
X116012889Y-87309414D01*
X115842729Y-87238932D01*
X115662089Y-87203000D01*
X115477911Y-87203000D01*
X115297271Y-87238932D01*
X115189000Y-87283779D01*
X115080729Y-87238932D01*
X114900089Y-87203000D01*
X114715911Y-87203000D01*
X114535271Y-87238932D01*
X114365111Y-87309414D01*
X114211972Y-87411738D01*
X114081738Y-87541972D01*
X113979414Y-87695111D01*
X113908932Y-87865271D01*
X113873000Y-88045911D01*
X109061899Y-88045911D01*
X109061899Y-79409911D01*
X122382000Y-79409911D01*
X122382000Y-79594089D01*
X122417932Y-79774729D01*
X122488414Y-79944889D01*
X122590738Y-80098028D01*
X122720972Y-80228262D01*
X122874111Y-80330586D01*
X123044271Y-80401068D01*
X123224911Y-80437000D01*
X123409089Y-80437000D01*
X123589729Y-80401068D01*
X123759889Y-80330586D01*
X123913028Y-80228262D01*
X124043262Y-80098028D01*
X124145586Y-79944889D01*
X124216068Y-79774729D01*
X124252000Y-79594089D01*
X124252000Y-79409911D01*
X124216068Y-79229271D01*
X124145586Y-79059111D01*
X124043262Y-78905972D01*
X123913028Y-78775738D01*
X123759889Y-78673414D01*
X123589729Y-78602932D01*
X123409089Y-78567000D01*
X123224911Y-78567000D01*
X123044271Y-78602932D01*
X122874111Y-78673414D01*
X122720972Y-78775738D01*
X122590738Y-78905972D01*
X122488414Y-79059111D01*
X122417932Y-79229271D01*
X122382000Y-79409911D01*
X109061899Y-79409911D01*
X109061899Y-78772726D01*
X109391329Y-78909180D01*
X109782555Y-78987000D01*
X110181445Y-78987000D01*
X110572671Y-78909180D01*
X110941197Y-78756532D01*
X111272862Y-78534920D01*
X111554920Y-78252862D01*
X111682000Y-78062674D01*
X111809080Y-78252862D01*
X112091138Y-78534920D01*
X112422803Y-78756532D01*
X112791329Y-78909180D01*
X113182555Y-78987000D01*
X113581445Y-78987000D01*
X113972671Y-78909180D01*
X114341197Y-78756532D01*
X114672862Y-78534920D01*
X114954920Y-78252862D01*
X115176532Y-77921197D01*
X115329180Y-77552671D01*
X115407000Y-77161445D01*
X115407000Y-76762555D01*
X115329180Y-76371329D01*
X115176532Y-76002803D01*
X114954920Y-75671138D01*
X114672862Y-75389080D01*
X114341197Y-75167468D01*
X113972671Y-75014820D01*
X113581445Y-74937000D01*
X113182555Y-74937000D01*
X112791329Y-75014820D01*
X112422803Y-75167468D01*
X112091138Y-75389080D01*
X111809080Y-75671138D01*
X111682000Y-75861326D01*
X111554920Y-75671138D01*
X111272862Y-75389080D01*
X110941197Y-75167468D01*
X110572671Y-75014820D01*
X110181445Y-74937000D01*
X109782555Y-74937000D01*
X109391329Y-75014820D01*
X109061899Y-75151274D01*
X109061899Y-70167500D01*
X128077824Y-70167500D01*
X128081500Y-70204823D01*
X128081501Y-76480168D01*
X128077824Y-76517500D01*
X128092498Y-76666485D01*
X128135954Y-76809746D01*
X128206526Y-76941776D01*
X128277701Y-77028502D01*
X128301500Y-77057501D01*
X128330498Y-77081299D01*
X129542000Y-78292802D01*
X129542001Y-80290168D01*
X129538324Y-80327500D01*
X129542001Y-80364833D01*
X129552825Y-80474724D01*
X129552998Y-80476485D01*
X129596454Y-80619746D01*
X129667026Y-80751776D01*
X129733274Y-80832498D01*
X129762000Y-80867501D01*
X129790998Y-80891299D01*
X130309700Y-81410002D01*
X130333499Y-81439001D01*
X130362497Y-81462799D01*
X130449223Y-81533974D01*
X130581253Y-81604546D01*
X130724514Y-81648003D01*
X130836167Y-81659000D01*
X130836176Y-81659000D01*
X130873499Y-81662676D01*
X130910822Y-81659000D01*
X131637500Y-81659000D01*
X131637501Y-88164168D01*
X131633824Y-88201500D01*
X131637501Y-88238833D01*
X131648268Y-88348145D01*
X131648498Y-88350485D01*
X131691954Y-88493746D01*
X131762526Y-88625776D01*
X131829861Y-88707823D01*
X131857500Y-88741501D01*
X131886498Y-88765299D01*
X132236347Y-89115149D01*
X132260432Y-89236229D01*
X132330914Y-89406389D01*
X132433238Y-89559528D01*
X132563472Y-89689762D01*
X132716611Y-89792086D01*
X132886771Y-89862568D01*
X133067411Y-89898500D01*
X133251589Y-89898500D01*
X133432229Y-89862568D01*
X133602389Y-89792086D01*
X133755528Y-89689762D01*
X133854744Y-89590546D01*
X134050501Y-89786303D01*
X134050500Y-95132305D01*
X134003729Y-95112932D01*
X133823089Y-95077000D01*
X133638911Y-95077000D01*
X133458271Y-95112932D01*
X133288111Y-95183414D01*
X133134972Y-95285738D01*
X133004738Y-95415972D01*
X132902414Y-95569111D01*
X132831932Y-95739271D01*
X132796000Y-95919911D01*
X132796000Y-96104089D01*
X132831932Y-96284729D01*
X132902414Y-96454889D01*
X133004738Y-96608028D01*
X133134972Y-96738262D01*
X133288111Y-96840586D01*
X133458271Y-96911068D01*
X133638911Y-96947000D01*
X133823089Y-96947000D01*
X134003729Y-96911068D01*
X134173889Y-96840586D01*
X134223233Y-96807616D01*
X134367611Y-96904086D01*
X134537771Y-96974568D01*
X134718411Y-97010500D01*
X134902589Y-97010500D01*
X135083229Y-96974568D01*
X135253389Y-96904086D01*
X135406528Y-96801762D01*
X135536762Y-96671528D01*
X135639086Y-96518389D01*
X135709568Y-96348229D01*
X135745500Y-96167589D01*
X135745500Y-95983411D01*
X135709568Y-95802771D01*
X135639086Y-95632611D01*
X135570500Y-95529965D01*
X135570500Y-89508822D01*
X135574176Y-89471499D01*
X135570500Y-89434176D01*
X135570500Y-89434167D01*
X135559503Y-89322514D01*
X135516046Y-89179253D01*
X135459252Y-89073000D01*
X135445474Y-89047223D01*
X135374299Y-88960497D01*
X135350501Y-88931499D01*
X135321503Y-88907701D01*
X134154899Y-87741098D01*
X134154899Y-87264902D01*
X136105149Y-85314653D01*
X136226229Y-85290568D01*
X136396389Y-85220086D01*
X136549528Y-85117762D01*
X136679762Y-84987528D01*
X136782086Y-84834389D01*
X136852568Y-84664229D01*
X136888500Y-84483589D01*
X136888500Y-84299411D01*
X136852568Y-84118771D01*
X136782086Y-83948611D01*
X136679762Y-83795472D01*
X136549528Y-83665238D01*
X136396389Y-83562914D01*
X136226229Y-83492432D01*
X136045589Y-83456500D01*
X135861411Y-83456500D01*
X135680771Y-83492432D01*
X135510611Y-83562914D01*
X135357472Y-83665238D01*
X135227238Y-83795472D01*
X135124914Y-83948611D01*
X135054432Y-84118771D01*
X135030347Y-84239851D01*
X133157500Y-86112699D01*
X133157500Y-81380823D01*
X133161176Y-81343500D01*
X133157500Y-81306177D01*
X133157500Y-81306167D01*
X133146503Y-81194514D01*
X133103046Y-81051253D01*
X133032475Y-80919225D01*
X133032474Y-80919223D01*
X132990026Y-80867501D01*
X132937501Y-80803499D01*
X132908498Y-80779697D01*
X132516804Y-80388003D01*
X132493001Y-80358999D01*
X132377276Y-80264026D01*
X132245247Y-80193454D01*
X132101986Y-80149997D01*
X131990333Y-80139000D01*
X131990322Y-80139000D01*
X131953000Y-80135324D01*
X131915678Y-80139000D01*
X131188302Y-80139000D01*
X131062000Y-80012699D01*
X131062000Y-78520911D01*
X141749500Y-78520911D01*
X141749500Y-78705089D01*
X141785432Y-78885729D01*
X141855914Y-79055889D01*
X141958238Y-79209028D01*
X142088472Y-79339262D01*
X142241611Y-79441586D01*
X142411771Y-79512068D01*
X142592411Y-79548000D01*
X142776589Y-79548000D01*
X142957229Y-79512068D01*
X143127389Y-79441586D01*
X143280528Y-79339262D01*
X143410762Y-79209028D01*
X143513086Y-79055889D01*
X143583568Y-78885729D01*
X143619500Y-78705089D01*
X143619500Y-78520911D01*
X143583568Y-78340271D01*
X143513086Y-78170111D01*
X143410762Y-78016972D01*
X143280528Y-77886738D01*
X143127389Y-77784414D01*
X142957229Y-77713932D01*
X142776589Y-77678000D01*
X142592411Y-77678000D01*
X142411771Y-77713932D01*
X142241611Y-77784414D01*
X142088472Y-77886738D01*
X141958238Y-78016972D01*
X141855914Y-78170111D01*
X141785432Y-78340271D01*
X141749500Y-78520911D01*
X131062000Y-78520911D01*
X131062000Y-78015323D01*
X131065676Y-77978000D01*
X131062000Y-77940677D01*
X131062000Y-77940667D01*
X131051003Y-77829014D01*
X131007546Y-77685753D01*
X130936975Y-77553725D01*
X130936974Y-77553723D01*
X130865799Y-77466997D01*
X130842001Y-77437999D01*
X130813004Y-77414202D01*
X129601500Y-76202699D01*
X129601500Y-70481056D01*
X129666974Y-70401276D01*
X129737546Y-70269247D01*
X129781003Y-70125986D01*
X129792000Y-70014333D01*
X129792000Y-70014325D01*
X129795676Y-69977000D01*
X129792000Y-69939675D01*
X129792000Y-69697035D01*
X129860586Y-69594389D01*
X129931068Y-69424229D01*
X129967000Y-69243589D01*
X129967000Y-69059411D01*
X129931068Y-68878771D01*
X129860586Y-68708611D01*
X129758262Y-68555472D01*
X129628028Y-68425238D01*
X129474889Y-68322914D01*
X129304729Y-68252432D01*
X129124089Y-68216500D01*
X128939911Y-68216500D01*
X128759271Y-68252432D01*
X128589111Y-68322914D01*
X128435972Y-68425238D01*
X128305738Y-68555472D01*
X128203414Y-68708611D01*
X128132932Y-68878771D01*
X128097000Y-69059411D01*
X128097000Y-69243589D01*
X128132932Y-69424229D01*
X128203414Y-69594389D01*
X128259628Y-69678519D01*
X128248974Y-69691501D01*
X128206526Y-69743224D01*
X128135955Y-69875253D01*
X128135954Y-69875254D01*
X128092497Y-70018515D01*
X128081500Y-70130168D01*
X128081500Y-70130178D01*
X128077824Y-70167500D01*
X109061899Y-70167500D01*
X109061899Y-68852726D01*
X109391329Y-68989180D01*
X109782555Y-69067000D01*
X110181445Y-69067000D01*
X110572671Y-68989180D01*
X110941197Y-68836532D01*
X111272862Y-68614920D01*
X111554920Y-68332862D01*
X111682000Y-68142674D01*
X111809080Y-68332862D01*
X112091138Y-68614920D01*
X112422803Y-68836532D01*
X112791329Y-68989180D01*
X113182555Y-69067000D01*
X113581445Y-69067000D01*
X113972671Y-68989180D01*
X114341197Y-68836532D01*
X114672862Y-68614920D01*
X114954920Y-68332862D01*
X115176532Y-68001197D01*
X115329180Y-67632671D01*
X115407000Y-67241445D01*
X115407000Y-66842555D01*
X115329180Y-66451329D01*
X115176532Y-66082803D01*
X114954920Y-65751138D01*
X114672862Y-65469080D01*
X114341197Y-65247468D01*
X113972671Y-65094820D01*
X113581445Y-65017000D01*
X113182555Y-65017000D01*
X112791329Y-65094820D01*
X112422803Y-65247468D01*
X112091138Y-65469080D01*
X111809080Y-65751138D01*
X111682000Y-65941326D01*
X111554920Y-65751138D01*
X111272862Y-65469080D01*
X110941197Y-65247468D01*
X110572671Y-65094820D01*
X110181445Y-65017000D01*
X109782555Y-65017000D01*
X109391329Y-65094820D01*
X109061899Y-65231274D01*
X109061899Y-63331580D01*
X116540000Y-63331580D01*
X116540000Y-63668420D01*
X116605714Y-63998789D01*
X116734618Y-64309989D01*
X116921756Y-64590061D01*
X117159939Y-64828244D01*
X117440011Y-65015382D01*
X117751211Y-65144286D01*
X118081580Y-65210000D01*
X118418420Y-65210000D01*
X118748789Y-65144286D01*
X119059989Y-65015382D01*
X119340061Y-64828244D01*
X119578244Y-64590061D01*
X119765382Y-64309989D01*
X119894286Y-63998789D01*
X119960000Y-63668420D01*
X119960000Y-63331580D01*
X120040000Y-63331580D01*
X120040000Y-63668420D01*
X120105714Y-63998789D01*
X120234618Y-64309989D01*
X120421756Y-64590061D01*
X120659939Y-64828244D01*
X120940011Y-65015382D01*
X121251211Y-65144286D01*
X121581580Y-65210000D01*
X121918420Y-65210000D01*
X122248789Y-65144286D01*
X122559989Y-65015382D01*
X122840061Y-64828244D01*
X123078244Y-64590061D01*
X123265382Y-64309989D01*
X123394286Y-63998789D01*
X123460000Y-63668420D01*
X123460000Y-63331580D01*
X123540000Y-63331580D01*
X123540000Y-63668420D01*
X123605714Y-63998789D01*
X123734618Y-64309989D01*
X123921756Y-64590061D01*
X124159939Y-64828244D01*
X124440011Y-65015382D01*
X124751211Y-65144286D01*
X125081580Y-65210000D01*
X125418420Y-65210000D01*
X125748789Y-65144286D01*
X126059989Y-65015382D01*
X126340061Y-64828244D01*
X126578244Y-64590061D01*
X126765382Y-64309989D01*
X126894286Y-63998789D01*
X126960000Y-63668420D01*
X126960000Y-63331580D01*
X127040000Y-63331580D01*
X127040000Y-63668420D01*
X127105714Y-63998789D01*
X127234618Y-64309989D01*
X127421756Y-64590061D01*
X127659939Y-64828244D01*
X127940011Y-65015382D01*
X128251211Y-65144286D01*
X128581580Y-65210000D01*
X128918420Y-65210000D01*
X129248789Y-65144286D01*
X129559989Y-65015382D01*
X129840061Y-64828244D01*
X130078244Y-64590061D01*
X130265382Y-64309989D01*
X130394286Y-63998789D01*
X130460000Y-63668420D01*
X130460000Y-63331580D01*
X130540000Y-63331580D01*
X130540000Y-63668420D01*
X130605714Y-63998789D01*
X130734618Y-64309989D01*
X130921756Y-64590061D01*
X131159939Y-64828244D01*
X131440011Y-65015382D01*
X131751211Y-65144286D01*
X132081580Y-65210000D01*
X132418420Y-65210000D01*
X132748789Y-65144286D01*
X133059989Y-65015382D01*
X133340061Y-64828244D01*
X133479415Y-64688890D01*
X134740715Y-64688890D01*
X134845531Y-64960959D01*
X135147929Y-65109340D01*
X135473465Y-65195875D01*
X135809627Y-65217239D01*
X136143498Y-65172610D01*
X136462247Y-65063704D01*
X136654469Y-64960959D01*
X136759285Y-64688890D01*
X135750000Y-63679605D01*
X134740715Y-64688890D01*
X133479415Y-64688890D01*
X133578244Y-64590061D01*
X133765382Y-64309989D01*
X133894286Y-63998789D01*
X133960000Y-63668420D01*
X133960000Y-63559627D01*
X134032761Y-63559627D01*
X134077390Y-63893498D01*
X134186296Y-64212247D01*
X134289041Y-64404469D01*
X134561110Y-64509285D01*
X135570395Y-63500000D01*
X135929605Y-63500000D01*
X136938890Y-64509285D01*
X137210959Y-64404469D01*
X137359340Y-64102071D01*
X137445875Y-63776535D01*
X137467239Y-63440373D01*
X137422610Y-63106502D01*
X137313704Y-62787753D01*
X137210959Y-62595531D01*
X136938890Y-62490715D01*
X135929605Y-63500000D01*
X135570395Y-63500000D01*
X134561110Y-62490715D01*
X134289041Y-62595531D01*
X134140660Y-62897929D01*
X134054125Y-63223465D01*
X134032761Y-63559627D01*
X133960000Y-63559627D01*
X133960000Y-63331580D01*
X133894286Y-63001211D01*
X133765382Y-62690011D01*
X133578244Y-62409939D01*
X133479415Y-62311110D01*
X134740715Y-62311110D01*
X135750000Y-63320395D01*
X136759285Y-62311110D01*
X136654469Y-62039041D01*
X136352071Y-61890660D01*
X136026535Y-61804125D01*
X135690373Y-61782761D01*
X135356502Y-61827390D01*
X135037753Y-61936296D01*
X134845531Y-62039041D01*
X134740715Y-62311110D01*
X133479415Y-62311110D01*
X133340061Y-62171756D01*
X133059989Y-61984618D01*
X132748789Y-61855714D01*
X132418420Y-61790000D01*
X132081580Y-61790000D01*
X131751211Y-61855714D01*
X131440011Y-61984618D01*
X131159939Y-62171756D01*
X130921756Y-62409939D01*
X130734618Y-62690011D01*
X130605714Y-63001211D01*
X130540000Y-63331580D01*
X130460000Y-63331580D01*
X130394286Y-63001211D01*
X130265382Y-62690011D01*
X130078244Y-62409939D01*
X129840061Y-62171756D01*
X129559989Y-61984618D01*
X129248789Y-61855714D01*
X128918420Y-61790000D01*
X128581580Y-61790000D01*
X128251211Y-61855714D01*
X127940011Y-61984618D01*
X127659939Y-62171756D01*
X127421756Y-62409939D01*
X127234618Y-62690011D01*
X127105714Y-63001211D01*
X127040000Y-63331580D01*
X126960000Y-63331580D01*
X126894286Y-63001211D01*
X126765382Y-62690011D01*
X126578244Y-62409939D01*
X126340061Y-62171756D01*
X126059989Y-61984618D01*
X125748789Y-61855714D01*
X125418420Y-61790000D01*
X125081580Y-61790000D01*
X124751211Y-61855714D01*
X124440011Y-61984618D01*
X124159939Y-62171756D01*
X123921756Y-62409939D01*
X123734618Y-62690011D01*
X123605714Y-63001211D01*
X123540000Y-63331580D01*
X123460000Y-63331580D01*
X123394286Y-63001211D01*
X123265382Y-62690011D01*
X123078244Y-62409939D01*
X122840061Y-62171756D01*
X122559989Y-61984618D01*
X122248789Y-61855714D01*
X121918420Y-61790000D01*
X121581580Y-61790000D01*
X121251211Y-61855714D01*
X120940011Y-61984618D01*
X120659939Y-62171756D01*
X120421756Y-62409939D01*
X120234618Y-62690011D01*
X120105714Y-63001211D01*
X120040000Y-63331580D01*
X119960000Y-63331580D01*
X119894286Y-63001211D01*
X119765382Y-62690011D01*
X119578244Y-62409939D01*
X119340061Y-62171756D01*
X119059989Y-61984618D01*
X118748789Y-61855714D01*
X118418420Y-61790000D01*
X118081580Y-61790000D01*
X117751211Y-61855714D01*
X117440011Y-61984618D01*
X117159939Y-62171756D01*
X116921756Y-62409939D01*
X116734618Y-62690011D01*
X116605714Y-63001211D01*
X116540000Y-63331580D01*
X109061899Y-63331580D01*
X109061899Y-62632000D01*
X110937465Y-62632000D01*
X111040111Y-62700586D01*
X111210271Y-62771068D01*
X111390911Y-62807000D01*
X111575089Y-62807000D01*
X111755729Y-62771068D01*
X111925889Y-62700586D01*
X112079028Y-62598262D01*
X112209262Y-62468028D01*
X112311586Y-62314889D01*
X112382068Y-62144729D01*
X112418000Y-61964089D01*
X112418000Y-61779911D01*
X112382068Y-61599271D01*
X112311586Y-61429111D01*
X112209262Y-61275972D01*
X112079028Y-61145738D01*
X111925889Y-61043414D01*
X111755729Y-60972932D01*
X111575089Y-60937000D01*
X111390911Y-60937000D01*
X111210271Y-60972932D01*
X111040111Y-61043414D01*
X110937465Y-61112000D01*
X108610000Y-61112000D01*
X108610000Y-57540475D01*
X108615000Y-57540475D01*
X108615000Y-58059525D01*
X108716261Y-58568601D01*
X108914893Y-59048141D01*
X109203262Y-59479715D01*
X109570285Y-59846738D01*
X110001859Y-60135107D01*
X110481399Y-60333739D01*
X110990475Y-60435000D01*
X111509525Y-60435000D01*
X112018601Y-60333739D01*
X112498141Y-60135107D01*
X112929715Y-59846738D01*
X112944873Y-59831580D01*
X116540000Y-59831580D01*
X116540000Y-60168420D01*
X116605714Y-60498789D01*
X116734618Y-60809989D01*
X116921756Y-61090061D01*
X117159939Y-61328244D01*
X117440011Y-61515382D01*
X117751211Y-61644286D01*
X118081580Y-61710000D01*
X118418420Y-61710000D01*
X118748789Y-61644286D01*
X119059989Y-61515382D01*
X119340061Y-61328244D01*
X119578244Y-61090061D01*
X119765382Y-60809989D01*
X119894286Y-60498789D01*
X119960000Y-60168420D01*
X119960000Y-59831580D01*
X120040000Y-59831580D01*
X120040000Y-60168420D01*
X120105714Y-60498789D01*
X120234618Y-60809989D01*
X120421756Y-61090061D01*
X120659939Y-61328244D01*
X120940011Y-61515382D01*
X121251211Y-61644286D01*
X121581580Y-61710000D01*
X121918420Y-61710000D01*
X122248789Y-61644286D01*
X122559989Y-61515382D01*
X122840061Y-61328244D01*
X123078244Y-61090061D01*
X123265382Y-60809989D01*
X123394286Y-60498789D01*
X123460000Y-60168420D01*
X123460000Y-59831580D01*
X123540000Y-59831580D01*
X123540000Y-60168420D01*
X123605714Y-60498789D01*
X123734618Y-60809989D01*
X123921756Y-61090061D01*
X124159939Y-61328244D01*
X124440011Y-61515382D01*
X124751211Y-61644286D01*
X125081580Y-61710000D01*
X125418420Y-61710000D01*
X125748789Y-61644286D01*
X126059989Y-61515382D01*
X126340061Y-61328244D01*
X126578244Y-61090061D01*
X126765382Y-60809989D01*
X126894286Y-60498789D01*
X126960000Y-60168420D01*
X126960000Y-59831580D01*
X127040000Y-59831580D01*
X127040000Y-60168420D01*
X127105714Y-60498789D01*
X127234618Y-60809989D01*
X127421756Y-61090061D01*
X127659939Y-61328244D01*
X127940011Y-61515382D01*
X128251211Y-61644286D01*
X128581580Y-61710000D01*
X128918420Y-61710000D01*
X129248789Y-61644286D01*
X129559989Y-61515382D01*
X129840061Y-61328244D01*
X130078244Y-61090061D01*
X130265382Y-60809989D01*
X130394286Y-60498789D01*
X130460000Y-60168420D01*
X130460000Y-59831580D01*
X130540000Y-59831580D01*
X130540000Y-60168420D01*
X130605714Y-60498789D01*
X130734618Y-60809989D01*
X130921756Y-61090061D01*
X131159939Y-61328244D01*
X131440011Y-61515382D01*
X131751211Y-61644286D01*
X132081580Y-61710000D01*
X132418420Y-61710000D01*
X132748789Y-61644286D01*
X133059989Y-61515382D01*
X133340061Y-61328244D01*
X133578244Y-61090061D01*
X133765382Y-60809989D01*
X133894286Y-60498789D01*
X133960000Y-60168420D01*
X133960000Y-59831580D01*
X134040000Y-59831580D01*
X134040000Y-60168420D01*
X134105714Y-60498789D01*
X134234618Y-60809989D01*
X134421756Y-61090061D01*
X134659939Y-61328244D01*
X134940011Y-61515382D01*
X135251211Y-61644286D01*
X135581580Y-61710000D01*
X135918420Y-61710000D01*
X136248789Y-61644286D01*
X136559989Y-61515382D01*
X136840061Y-61328244D01*
X137078244Y-61090061D01*
X137265382Y-60809989D01*
X137394286Y-60498789D01*
X137460000Y-60168420D01*
X137460000Y-59831580D01*
X137394286Y-59501211D01*
X137265382Y-59190011D01*
X137078244Y-58909939D01*
X136840061Y-58671756D01*
X136559989Y-58484618D01*
X136248789Y-58355714D01*
X135918420Y-58290000D01*
X135581580Y-58290000D01*
X135251211Y-58355714D01*
X134940011Y-58484618D01*
X134659939Y-58671756D01*
X134421756Y-58909939D01*
X134234618Y-59190011D01*
X134105714Y-59501211D01*
X134040000Y-59831580D01*
X133960000Y-59831580D01*
X133894286Y-59501211D01*
X133765382Y-59190011D01*
X133578244Y-58909939D01*
X133340061Y-58671756D01*
X133059989Y-58484618D01*
X132748789Y-58355714D01*
X132418420Y-58290000D01*
X132081580Y-58290000D01*
X131751211Y-58355714D01*
X131440011Y-58484618D01*
X131159939Y-58671756D01*
X130921756Y-58909939D01*
X130734618Y-59190011D01*
X130605714Y-59501211D01*
X130540000Y-59831580D01*
X130460000Y-59831580D01*
X130394286Y-59501211D01*
X130265382Y-59190011D01*
X130078244Y-58909939D01*
X129840061Y-58671756D01*
X129559989Y-58484618D01*
X129248789Y-58355714D01*
X128918420Y-58290000D01*
X128581580Y-58290000D01*
X128251211Y-58355714D01*
X127940011Y-58484618D01*
X127659939Y-58671756D01*
X127421756Y-58909939D01*
X127234618Y-59190011D01*
X127105714Y-59501211D01*
X127040000Y-59831580D01*
X126960000Y-59831580D01*
X126894286Y-59501211D01*
X126765382Y-59190011D01*
X126578244Y-58909939D01*
X126340061Y-58671756D01*
X126059989Y-58484618D01*
X125748789Y-58355714D01*
X125418420Y-58290000D01*
X125081580Y-58290000D01*
X124751211Y-58355714D01*
X124440011Y-58484618D01*
X124159939Y-58671756D01*
X123921756Y-58909939D01*
X123734618Y-59190011D01*
X123605714Y-59501211D01*
X123540000Y-59831580D01*
X123460000Y-59831580D01*
X123394286Y-59501211D01*
X123265382Y-59190011D01*
X123078244Y-58909939D01*
X122840061Y-58671756D01*
X122559989Y-58484618D01*
X122248789Y-58355714D01*
X121918420Y-58290000D01*
X121581580Y-58290000D01*
X121251211Y-58355714D01*
X120940011Y-58484618D01*
X120659939Y-58671756D01*
X120421756Y-58909939D01*
X120234618Y-59190011D01*
X120105714Y-59501211D01*
X120040000Y-59831580D01*
X119960000Y-59831580D01*
X119894286Y-59501211D01*
X119765382Y-59190011D01*
X119578244Y-58909939D01*
X119340061Y-58671756D01*
X119059989Y-58484618D01*
X118748789Y-58355714D01*
X118418420Y-58290000D01*
X118081580Y-58290000D01*
X117751211Y-58355714D01*
X117440011Y-58484618D01*
X117159939Y-58671756D01*
X116921756Y-58909939D01*
X116734618Y-59190011D01*
X116605714Y-59501211D01*
X116540000Y-59831580D01*
X112944873Y-59831580D01*
X113296738Y-59479715D01*
X113585107Y-59048141D01*
X113783739Y-58568601D01*
X113885000Y-58059525D01*
X113885000Y-57540475D01*
X140115000Y-57540475D01*
X140115000Y-58059525D01*
X140216261Y-58568601D01*
X140414893Y-59048141D01*
X140703262Y-59479715D01*
X141070285Y-59846738D01*
X141501859Y-60135107D01*
X141981399Y-60333739D01*
X142490475Y-60435000D01*
X143009525Y-60435000D01*
X143518601Y-60333739D01*
X143998141Y-60135107D01*
X144429715Y-59846738D01*
X144796738Y-59479715D01*
X145085107Y-59048141D01*
X145283739Y-58568601D01*
X145385000Y-58059525D01*
X145385000Y-57540475D01*
X145283739Y-57031399D01*
X145085107Y-56551859D01*
X144796738Y-56120285D01*
X144429715Y-55753262D01*
X143998141Y-55464893D01*
X143518601Y-55266261D01*
X143009525Y-55165000D01*
X142490475Y-55165000D01*
X141981399Y-55266261D01*
X141501859Y-55464893D01*
X141070285Y-55753262D01*
X140703262Y-56120285D01*
X140414893Y-56551859D01*
X140216261Y-57031399D01*
X140115000Y-57540475D01*
X113885000Y-57540475D01*
X113783739Y-57031399D01*
X113585107Y-56551859D01*
X113296738Y-56120285D01*
X112929715Y-55753262D01*
X112498141Y-55464893D01*
X112018601Y-55266261D01*
X111509525Y-55165000D01*
X110990475Y-55165000D01*
X110481399Y-55266261D01*
X110001859Y-55464893D01*
X109570285Y-55753262D01*
X109203262Y-56120285D01*
X108914893Y-56551859D01*
X108716261Y-57031399D01*
X108615000Y-57540475D01*
X108610000Y-57540475D01*
X108610000Y-50888500D01*
X145390001Y-50888500D01*
X145390000Y-111328198D01*
G37*
X145390000Y-111328198D02*
X145237215Y-111328198D01*
X145357881Y-111098309D01*
X145260557Y-110823948D01*
X145111578Y-110573845D01*
X144916669Y-110357612D01*
X144683320Y-110183559D01*
X144420499Y-110058375D01*
X144273290Y-110013724D01*
X144043400Y-110135045D01*
X144043400Y-111328200D01*
X144063400Y-111328200D01*
X144063400Y-111582200D01*
X144043400Y-111582200D01*
X144043400Y-112775355D01*
X144273290Y-112896676D01*
X144420499Y-112852025D01*
X144683320Y-112726841D01*
X144916669Y-112552788D01*
X145111578Y-112336555D01*
X145260557Y-112086452D01*
X145357881Y-111812091D01*
X145237215Y-111582202D01*
X145390000Y-111582202D01*
X145390000Y-113005000D01*
X108610000Y-113005000D01*
X108610000Y-111237846D01*
X108613814Y-111239003D01*
X108725467Y-111250000D01*
X108725476Y-111250000D01*
X108762799Y-111253676D01*
X108800122Y-111250000D01*
X114110065Y-111250000D01*
X114212711Y-111318586D01*
X114382871Y-111389068D01*
X114563511Y-111425000D01*
X114747689Y-111425000D01*
X114928329Y-111389068D01*
X115098489Y-111318586D01*
X115251628Y-111216262D01*
X115381862Y-111086028D01*
X115484186Y-110932889D01*
X115554668Y-110762729D01*
X115586002Y-110605200D01*
X119568328Y-110605200D01*
X119568328Y-112305200D01*
X119580588Y-112429682D01*
X119616898Y-112549380D01*
X119675863Y-112659694D01*
X119755215Y-112756385D01*
X119851906Y-112835737D01*
X119962220Y-112894702D01*
X120081918Y-112931012D01*
X120206400Y-112943272D01*
X121906400Y-112943272D01*
X122030882Y-112931012D01*
X122150580Y-112894702D01*
X122260894Y-112835737D01*
X122357585Y-112756385D01*
X122436937Y-112659694D01*
X122495902Y-112549380D01*
X122517913Y-112476820D01*
X122649768Y-112608675D01*
X122892989Y-112771190D01*
X123163242Y-112883132D01*
X123450140Y-112940200D01*
X123742660Y-112940200D01*
X124029558Y-112883132D01*
X124299811Y-112771190D01*
X124543032Y-112608675D01*
X124749875Y-112401832D01*
X124866400Y-112227440D01*
X124982925Y-112401832D01*
X125189768Y-112608675D01*
X125432989Y-112771190D01*
X125703242Y-112883132D01*
X125990140Y-112940200D01*
X126282660Y-112940200D01*
X126569558Y-112883132D01*
X126839811Y-112771190D01*
X127083032Y-112608675D01*
X127289875Y-112401832D01*
X127406400Y-112227440D01*
X127522925Y-112401832D01*
X127729768Y-112608675D01*
X127972989Y-112771190D01*
X128243242Y-112883132D01*
X128530140Y-112940200D01*
X128822660Y-112940200D01*
X129109558Y-112883132D01*
X129379811Y-112771190D01*
X129623032Y-112608675D01*
X129829875Y-112401832D01*
X129946400Y-112227440D01*
X130062925Y-112401832D01*
X130269768Y-112608675D01*
X130512989Y-112771190D01*
X130783242Y-112883132D01*
X131070140Y-112940200D01*
X131362660Y-112940200D01*
X131649558Y-112883132D01*
X131919811Y-112771190D01*
X132163032Y-112608675D01*
X132369875Y-112401832D01*
X132486400Y-112227440D01*
X132602925Y-112401832D01*
X132809768Y-112608675D01*
X133052989Y-112771190D01*
X133323242Y-112883132D01*
X133610140Y-112940200D01*
X133902660Y-112940200D01*
X134189558Y-112883132D01*
X134459811Y-112771190D01*
X134703032Y-112608675D01*
X134909875Y-112401832D01*
X135026400Y-112227440D01*
X135142925Y-112401832D01*
X135349768Y-112608675D01*
X135592989Y-112771190D01*
X135863242Y-112883132D01*
X136150140Y-112940200D01*
X136442660Y-112940200D01*
X136729558Y-112883132D01*
X136999811Y-112771190D01*
X137243032Y-112608675D01*
X137449875Y-112401832D01*
X137566400Y-112227440D01*
X137682925Y-112401832D01*
X137889768Y-112608675D01*
X138132989Y-112771190D01*
X138403242Y-112883132D01*
X138690140Y-112940200D01*
X138982660Y-112940200D01*
X139269558Y-112883132D01*
X139539811Y-112771190D01*
X139783032Y-112608675D01*
X139989875Y-112401832D01*
X140106400Y-112227440D01*
X140222925Y-112401832D01*
X140429768Y-112608675D01*
X140672989Y-112771190D01*
X140943242Y-112883132D01*
X141230140Y-112940200D01*
X141522660Y-112940200D01*
X141809558Y-112883132D01*
X142079811Y-112771190D01*
X142323032Y-112608675D01*
X142529875Y-112401832D01*
X142651595Y-112219666D01*
X142721222Y-112336555D01*
X142916131Y-112552788D01*
X143149480Y-112726841D01*
X143412301Y-112852025D01*
X143559510Y-112896676D01*
X143789400Y-112775355D01*
X143789400Y-111582200D01*
X143769400Y-111582200D01*
X143769400Y-111328200D01*
X143789400Y-111328200D01*
X143789400Y-110135045D01*
X143559510Y-110013724D01*
X143412301Y-110058375D01*
X143149480Y-110183559D01*
X142916131Y-110357612D01*
X142721222Y-110573845D01*
X142651595Y-110690734D01*
X142529875Y-110508568D01*
X142323032Y-110301725D01*
X142079811Y-110139210D01*
X141809558Y-110027268D01*
X141522660Y-109970200D01*
X141230140Y-109970200D01*
X140943242Y-110027268D01*
X140672989Y-110139210D01*
X140429768Y-110301725D01*
X140222925Y-110508568D01*
X140106400Y-110682960D01*
X139989875Y-110508568D01*
X139783032Y-110301725D01*
X139539811Y-110139210D01*
X139269558Y-110027268D01*
X138982660Y-109970200D01*
X138690140Y-109970200D01*
X138403242Y-110027268D01*
X138132989Y-110139210D01*
X137889768Y-110301725D01*
X137682925Y-110508568D01*
X137566400Y-110682960D01*
X137449875Y-110508568D01*
X137243032Y-110301725D01*
X136999811Y-110139210D01*
X136729558Y-110027268D01*
X136442660Y-109970200D01*
X136150140Y-109970200D01*
X135863242Y-110027268D01*
X135592989Y-110139210D01*
X135349768Y-110301725D01*
X135142925Y-110508568D01*
X135026400Y-110682960D01*
X134909875Y-110508568D01*
X134703032Y-110301725D01*
X134459811Y-110139210D01*
X134189558Y-110027268D01*
X133902660Y-109970200D01*
X133610140Y-109970200D01*
X133323242Y-110027268D01*
X133052989Y-110139210D01*
X132809768Y-110301725D01*
X132602925Y-110508568D01*
X132486400Y-110682960D01*
X132369875Y-110508568D01*
X132163032Y-110301725D01*
X131919811Y-110139210D01*
X131649558Y-110027268D01*
X131362660Y-109970200D01*
X131070140Y-109970200D01*
X130783242Y-110027268D01*
X130512989Y-110139210D01*
X130269768Y-110301725D01*
X130062925Y-110508568D01*
X129946400Y-110682960D01*
X129829875Y-110508568D01*
X129623032Y-110301725D01*
X129379811Y-110139210D01*
X129109558Y-110027268D01*
X128822660Y-109970200D01*
X128530140Y-109970200D01*
X128243242Y-110027268D01*
X127972989Y-110139210D01*
X127729768Y-110301725D01*
X127522925Y-110508568D01*
X127406400Y-110682960D01*
X127289875Y-110508568D01*
X127083032Y-110301725D01*
X126839811Y-110139210D01*
X126569558Y-110027268D01*
X126282660Y-109970200D01*
X125990140Y-109970200D01*
X125703242Y-110027268D01*
X125432989Y-110139210D01*
X125189768Y-110301725D01*
X124982925Y-110508568D01*
X124866400Y-110682960D01*
X124749875Y-110508568D01*
X124543032Y-110301725D01*
X124299811Y-110139210D01*
X124029558Y-110027268D01*
X123742660Y-109970200D01*
X123450140Y-109970200D01*
X123163242Y-110027268D01*
X122892989Y-110139210D01*
X122649768Y-110301725D01*
X122517913Y-110433580D01*
X122495902Y-110361020D01*
X122436937Y-110250706D01*
X122357585Y-110154015D01*
X122260894Y-110074663D01*
X122150580Y-110015698D01*
X122030882Y-109979388D01*
X121906400Y-109967128D01*
X120206400Y-109967128D01*
X120081918Y-109979388D01*
X119962220Y-110015698D01*
X119851906Y-110074663D01*
X119755215Y-110154015D01*
X119675863Y-110250706D01*
X119616898Y-110361020D01*
X119580588Y-110480718D01*
X119568328Y-110605200D01*
X115586002Y-110605200D01*
X115590600Y-110582089D01*
X115590600Y-110397911D01*
X115554668Y-110217271D01*
X115484186Y-110047111D01*
X115381862Y-109893972D01*
X115342890Y-109855000D01*
X115381862Y-109816028D01*
X115409057Y-109775328D01*
X115504138Y-109917628D01*
X115634372Y-110047862D01*
X115787511Y-110150186D01*
X115957671Y-110220668D01*
X116138311Y-110256600D01*
X116322489Y-110256600D01*
X116503129Y-110220668D01*
X116673289Y-110150186D01*
X116826428Y-110047862D01*
X116956662Y-109917628D01*
X117058986Y-109764489D01*
X117129468Y-109594329D01*
X117165400Y-109413689D01*
X117165400Y-109229511D01*
X117129468Y-109048871D01*
X117058986Y-108878711D01*
X116989093Y-108774109D01*
X117274809Y-108488394D01*
X117303801Y-108464601D01*
X117327595Y-108435608D01*
X117327599Y-108435604D01*
X117398773Y-108348877D01*
X117398774Y-108348876D01*
X117469346Y-108216847D01*
X117512803Y-108073586D01*
X117523800Y-107961933D01*
X117523800Y-107961924D01*
X117527476Y-107924601D01*
X117523800Y-107887278D01*
X117523800Y-107617800D01*
X118148878Y-107617800D01*
X118186200Y-107621476D01*
X118223522Y-107617800D01*
X118223533Y-107617800D01*
X118335186Y-107606803D01*
X118478447Y-107563346D01*
X118610476Y-107492774D01*
X118726201Y-107397801D01*
X118750003Y-107368798D01*
X118769648Y-107349153D01*
X118890729Y-107325068D01*
X119060889Y-107254586D01*
X119214028Y-107152262D01*
X119344262Y-107022028D01*
X119446586Y-106868889D01*
X119483570Y-106779600D01*
X123152678Y-106779600D01*
X123190000Y-106783276D01*
X123227322Y-106779600D01*
X123227333Y-106779600D01*
X123338986Y-106768603D01*
X123482247Y-106725146D01*
X123614276Y-106654574D01*
X123730001Y-106559601D01*
X123753804Y-106530597D01*
X127361901Y-102922500D01*
X128545928Y-102922500D01*
X128558188Y-103046982D01*
X128594498Y-103166680D01*
X128605627Y-103187500D01*
X128594498Y-103208320D01*
X128558188Y-103328018D01*
X128545928Y-103452500D01*
X128549000Y-103536750D01*
X128707750Y-103695500D01*
X130257000Y-103695500D01*
X130257000Y-102679500D01*
X128707750Y-102679500D01*
X128549000Y-102838250D01*
X128545928Y-102922500D01*
X127361901Y-102922500D01*
X127409404Y-102874998D01*
X127438401Y-102851201D01*
X127533374Y-102735476D01*
X127603946Y-102603447D01*
X127647403Y-102460186D01*
X127658400Y-102348533D01*
X127658400Y-102348532D01*
X127662077Y-102311200D01*
X127658400Y-102273867D01*
X127658400Y-100744571D01*
X128612611Y-99790361D01*
X128707750Y-99885500D01*
X130257000Y-99885500D01*
X130257000Y-99865500D01*
X130511000Y-99865500D01*
X130511000Y-99885500D01*
X130531000Y-99885500D01*
X130531000Y-100139500D01*
X130511000Y-100139500D01*
X130511000Y-100159500D01*
X130257000Y-100159500D01*
X130257000Y-100139500D01*
X128707750Y-100139500D01*
X128549000Y-100298250D01*
X128545928Y-100382500D01*
X128558188Y-100506982D01*
X128594498Y-100626680D01*
X128605627Y-100647500D01*
X128594498Y-100668320D01*
X128558188Y-100788018D01*
X128545928Y-100912500D01*
X128545928Y-101652500D01*
X128558188Y-101776982D01*
X128594498Y-101896680D01*
X128605627Y-101917500D01*
X128594498Y-101938320D01*
X128558188Y-102058018D01*
X128545928Y-102182500D01*
X128549000Y-102266750D01*
X128707750Y-102425500D01*
X130257000Y-102425500D01*
X130257000Y-102405500D01*
X130511000Y-102405500D01*
X130511000Y-102425500D01*
X130531000Y-102425500D01*
X130531000Y-102679500D01*
X130511000Y-102679500D01*
X130511000Y-103695500D01*
X130531000Y-103695500D01*
X130531000Y-103949500D01*
X130511000Y-103949500D01*
X130511000Y-103969500D01*
X130257000Y-103969500D01*
X130257000Y-103949500D01*
X128707750Y-103949500D01*
X128549000Y-104108250D01*
X128545928Y-104192500D01*
X128558188Y-104316982D01*
X128594498Y-104436680D01*
X128605627Y-104457500D01*
X128594498Y-104478320D01*
X128558188Y-104598018D01*
X128545928Y-104722500D01*
X128545928Y-104948270D01*
X128499351Y-104994847D01*
X128378271Y-105018932D01*
X128208111Y-105089414D01*
X128054972Y-105191738D01*
X127924738Y-105321972D01*
X127822414Y-105475111D01*
X127751932Y-105645271D01*
X127716000Y-105825911D01*
X127716000Y-106010089D01*
X127751932Y-106190729D01*
X127822414Y-106360889D01*
X127924738Y-106514028D01*
X128054972Y-106644262D01*
X128208111Y-106746586D01*
X128378271Y-106817068D01*
X128557774Y-106852774D01*
X128558188Y-106856982D01*
X128594498Y-106976680D01*
X128653463Y-107086994D01*
X128732815Y-107183685D01*
X128829506Y-107263037D01*
X128939820Y-107322002D01*
X129059518Y-107358312D01*
X129184000Y-107370572D01*
X131584000Y-107370572D01*
X131708482Y-107358312D01*
X131828180Y-107322002D01*
X131938494Y-107263037D01*
X132035185Y-107183685D01*
X132114537Y-107086994D01*
X132173502Y-106976680D01*
X132209812Y-106856982D01*
X132222072Y-106732500D01*
X132222072Y-105992500D01*
X132209812Y-105868018D01*
X132180136Y-105770188D01*
X132232253Y-105798046D01*
X132375514Y-105841503D01*
X132463599Y-105850179D01*
X132458188Y-105868018D01*
X132445928Y-105992500D01*
X132445928Y-106732500D01*
X132458188Y-106856982D01*
X132494498Y-106976680D01*
X132553463Y-107086994D01*
X132632815Y-107183685D01*
X132729506Y-107263037D01*
X132839820Y-107322002D01*
X132959518Y-107358312D01*
X133084000Y-107370572D01*
X135133193Y-107370572D01*
X135188414Y-107503889D01*
X135290738Y-107657028D01*
X135420972Y-107787262D01*
X135574111Y-107889586D01*
X135744271Y-107960068D01*
X135924911Y-107996000D01*
X136109089Y-107996000D01*
X136289729Y-107960068D01*
X136459889Y-107889586D01*
X136613028Y-107787262D01*
X136743262Y-107657028D01*
X136845586Y-107503889D01*
X136916068Y-107333729D01*
X136952000Y-107153089D01*
X136952000Y-106968911D01*
X136927203Y-106844247D01*
X136971111Y-106873586D01*
X137141271Y-106944068D01*
X137321911Y-106980000D01*
X137506089Y-106980000D01*
X137686729Y-106944068D01*
X137856889Y-106873586D01*
X138010028Y-106771262D01*
X138140262Y-106641028D01*
X138242586Y-106487889D01*
X138313068Y-106317729D01*
X138329245Y-106236400D01*
X141361528Y-106236400D01*
X141361528Y-107936400D01*
X141373788Y-108060882D01*
X141410098Y-108180580D01*
X141469063Y-108290894D01*
X141548415Y-108387585D01*
X141645106Y-108466937D01*
X141755420Y-108525902D01*
X141875118Y-108562212D01*
X141999600Y-108574472D01*
X143699600Y-108574472D01*
X143824082Y-108562212D01*
X143943780Y-108525902D01*
X144054094Y-108466937D01*
X144150785Y-108387585D01*
X144230137Y-108290894D01*
X144289102Y-108180580D01*
X144325412Y-108060882D01*
X144337672Y-107936400D01*
X144337672Y-106236400D01*
X144325412Y-106111918D01*
X144289102Y-105992220D01*
X144230137Y-105881906D01*
X144150785Y-105785215D01*
X144054094Y-105705863D01*
X143943780Y-105646898D01*
X143824082Y-105610588D01*
X143699600Y-105598328D01*
X141999600Y-105598328D01*
X141875118Y-105610588D01*
X141755420Y-105646898D01*
X141645106Y-105705863D01*
X141548415Y-105785215D01*
X141469063Y-105881906D01*
X141410098Y-105992220D01*
X141373788Y-106111918D01*
X141361528Y-106236400D01*
X138329245Y-106236400D01*
X138349000Y-106137089D01*
X138349000Y-105952911D01*
X138313068Y-105772271D01*
X138242586Y-105602111D01*
X138140262Y-105448972D01*
X138010028Y-105318738D01*
X137856889Y-105216414D01*
X137686729Y-105145932D01*
X137506089Y-105110000D01*
X137321911Y-105110000D01*
X137141271Y-105145932D01*
X136971111Y-105216414D01*
X136817972Y-105318738D01*
X136687738Y-105448972D01*
X136585414Y-105602111D01*
X136514932Y-105772271D01*
X136479000Y-105952911D01*
X136479000Y-106137089D01*
X136503797Y-106261753D01*
X136459889Y-106232414D01*
X136289729Y-106161932D01*
X136122072Y-106128583D01*
X136122072Y-105992500D01*
X136109812Y-105868018D01*
X136073502Y-105748320D01*
X136062373Y-105727500D01*
X136073502Y-105706680D01*
X136109812Y-105586982D01*
X136122072Y-105462500D01*
X136122072Y-104722500D01*
X136109812Y-104598018D01*
X136073502Y-104478320D01*
X136062373Y-104457500D01*
X136073502Y-104436680D01*
X136109812Y-104316982D01*
X136122072Y-104192500D01*
X136122072Y-103452500D01*
X136109812Y-103328018D01*
X136073502Y-103208320D01*
X136062373Y-103187500D01*
X136073502Y-103166680D01*
X136109812Y-103046982D01*
X136122072Y-102922500D01*
X136122072Y-102182500D01*
X136109812Y-102058018D01*
X136079017Y-101956500D01*
X141450428Y-101956500D01*
X141450428Y-103656500D01*
X141462688Y-103780982D01*
X141498998Y-103900680D01*
X141557963Y-104010994D01*
X141637315Y-104107685D01*
X141734006Y-104187037D01*
X141844320Y-104246002D01*
X141964018Y-104282312D01*
X142088500Y-104294572D01*
X143788500Y-104294572D01*
X143912982Y-104282312D01*
X144032680Y-104246002D01*
X144142994Y-104187037D01*
X144239685Y-104107685D01*
X144319037Y-104010994D01*
X144378002Y-103900680D01*
X144414312Y-103780982D01*
X144426572Y-103656500D01*
X144426572Y-101956500D01*
X144414312Y-101832018D01*
X144378002Y-101712320D01*
X144319037Y-101602006D01*
X144239685Y-101505315D01*
X144142994Y-101425963D01*
X144032680Y-101366998D01*
X143912982Y-101330688D01*
X143788500Y-101318428D01*
X142088500Y-101318428D01*
X141964018Y-101330688D01*
X141844320Y-101366998D01*
X141734006Y-101425963D01*
X141637315Y-101505315D01*
X141557963Y-101602006D01*
X141498998Y-101712320D01*
X141462688Y-101832018D01*
X141450428Y-101956500D01*
X136079017Y-101956500D01*
X136073502Y-101938320D01*
X136062373Y-101917500D01*
X136073502Y-101896680D01*
X136109812Y-101776982D01*
X136122072Y-101652500D01*
X136122072Y-100912500D01*
X136109812Y-100788018D01*
X136073502Y-100668320D01*
X136062373Y-100647500D01*
X136073502Y-100626680D01*
X136109812Y-100506982D01*
X136122072Y-100382500D01*
X136122072Y-99642500D01*
X136109812Y-99518018D01*
X136073502Y-99398320D01*
X136062373Y-99377500D01*
X136073502Y-99356680D01*
X136109812Y-99236982D01*
X136122072Y-99112500D01*
X136122072Y-98372500D01*
X136109812Y-98248018D01*
X136073502Y-98128320D01*
X136014537Y-98018006D01*
X135935185Y-97921315D01*
X135838494Y-97841963D01*
X135728180Y-97782998D01*
X135608482Y-97746688D01*
X135484000Y-97734428D01*
X133084000Y-97734428D01*
X132959518Y-97746688D01*
X132883614Y-97769713D01*
X132874001Y-97757999D01*
X132844997Y-97734196D01*
X132516804Y-97406003D01*
X132493001Y-97376999D01*
X132377276Y-97282026D01*
X132245247Y-97211454D01*
X132101986Y-97167997D01*
X131990333Y-97157000D01*
X131990322Y-97157000D01*
X131953000Y-97153324D01*
X131915678Y-97157000D01*
X129967000Y-97157000D01*
X129967000Y-97062911D01*
X129931068Y-96882271D01*
X129860586Y-96712111D01*
X129758262Y-96558972D01*
X129628028Y-96428738D01*
X129474889Y-96326414D01*
X129304729Y-96255932D01*
X129124089Y-96220000D01*
X128939911Y-96220000D01*
X128759271Y-96255932D01*
X128589111Y-96326414D01*
X128435972Y-96428738D01*
X128305738Y-96558972D01*
X128203414Y-96712111D01*
X128132932Y-96882271D01*
X128097000Y-97062911D01*
X128097000Y-97157000D01*
X127164322Y-97157000D01*
X127126999Y-97153324D01*
X127089676Y-97157000D01*
X127089667Y-97157000D01*
X126978014Y-97167997D01*
X126834753Y-97211454D01*
X126702724Y-97282026D01*
X126586999Y-97376999D01*
X126563201Y-97405997D01*
X125346003Y-98623196D01*
X125316999Y-98646999D01*
X125262086Y-98713911D01*
X125222026Y-98762724D01*
X125176704Y-98847515D01*
X125151454Y-98894754D01*
X125107997Y-99038015D01*
X125097000Y-99149668D01*
X125097000Y-99149678D01*
X125093324Y-99187000D01*
X125097000Y-99224323D01*
X125097001Y-101539197D01*
X122367199Y-104269000D01*
X120329802Y-104269000D01*
X118963072Y-102902271D01*
X118963072Y-101893000D01*
X118950812Y-101768518D01*
X118914502Y-101648820D01*
X118855537Y-101538506D01*
X118776185Y-101441815D01*
X118679494Y-101362463D01*
X118569180Y-101303498D01*
X118449482Y-101267188D01*
X118325000Y-101254928D01*
X116625000Y-101254928D01*
X116500518Y-101267188D01*
X116380820Y-101303498D01*
X116270506Y-101362463D01*
X116173815Y-101441815D01*
X116094463Y-101538506D01*
X116035498Y-101648820D01*
X116011034Y-101729466D01*
X115935269Y-101645412D01*
X115701920Y-101471359D01*
X115439099Y-101346175D01*
X115291890Y-101301524D01*
X115062000Y-101422845D01*
X115062000Y-102616000D01*
X115082000Y-102616000D01*
X115082000Y-102870000D01*
X115062000Y-102870000D01*
X115062000Y-102890000D01*
X114808000Y-102890000D01*
X114808000Y-102870000D01*
X113614186Y-102870000D01*
X113493519Y-103099891D01*
X113590843Y-103374252D01*
X113739822Y-103624355D01*
X113934731Y-103840588D01*
X114164406Y-104011900D01*
X113988368Y-104129525D01*
X113781525Y-104336368D01*
X113619010Y-104579589D01*
X113507068Y-104849842D01*
X113450000Y-105136740D01*
X113450000Y-105429260D01*
X113507068Y-105716158D01*
X113619010Y-105986411D01*
X113781525Y-106229632D01*
X113988368Y-106436475D01*
X114231589Y-106598990D01*
X114501842Y-106710932D01*
X114788740Y-106768000D01*
X115081260Y-106768000D01*
X115368158Y-106710932D01*
X115445000Y-106679103D01*
X115445000Y-106793532D01*
X115445001Y-106793541D01*
X115445000Y-107342400D01*
X112255996Y-107342400D01*
X112288600Y-107178489D01*
X112288600Y-106994311D01*
X112252668Y-106813671D01*
X112182186Y-106643511D01*
X112079862Y-106490372D01*
X111949628Y-106360138D01*
X111796489Y-106257814D01*
X111626329Y-106187332D01*
X111445689Y-106151400D01*
X111261511Y-106151400D01*
X111080871Y-106187332D01*
X110910711Y-106257814D01*
X110757572Y-106360138D01*
X110627338Y-106490372D01*
X110525014Y-106643511D01*
X110454532Y-106813671D01*
X110418600Y-106994311D01*
X110418600Y-107178489D01*
X110454532Y-107359129D01*
X110525014Y-107529289D01*
X110568520Y-107594400D01*
X110525014Y-107659511D01*
X110454532Y-107829671D01*
X110418600Y-108010311D01*
X110418600Y-108132600D01*
X110347111Y-108132600D01*
X110166471Y-108168532D01*
X109996311Y-108239014D01*
X109843172Y-108341338D01*
X109712938Y-108471572D01*
X109610614Y-108624711D01*
X109599000Y-108652750D01*
X109599000Y-102386109D01*
X113493519Y-102386109D01*
X113614186Y-102616000D01*
X114808000Y-102616000D01*
X114808000Y-101422845D01*
X114578110Y-101301524D01*
X114430901Y-101346175D01*
X114168080Y-101471359D01*
X113934731Y-101645412D01*
X113739822Y-101861645D01*
X113590843Y-102111748D01*
X113493519Y-102386109D01*
X109599000Y-102386109D01*
X109599000Y-99915049D01*
X109662889Y-99888586D01*
X109816028Y-99786262D01*
X109946262Y-99656028D01*
X110048586Y-99502889D01*
X110119068Y-99332729D01*
X110155000Y-99152089D01*
X110155000Y-98967911D01*
X110119068Y-98787271D01*
X110048586Y-98617111D01*
X109946262Y-98463972D01*
X109942201Y-98459911D01*
X111333000Y-98459911D01*
X111333000Y-98644089D01*
X111368932Y-98824729D01*
X111439414Y-98994889D01*
X111541738Y-99148028D01*
X111671972Y-99278262D01*
X111825111Y-99380586D01*
X111995271Y-99451068D01*
X112175911Y-99487000D01*
X112360089Y-99487000D01*
X112540729Y-99451068D01*
X112710889Y-99380586D01*
X112864028Y-99278262D01*
X112994262Y-99148028D01*
X113096586Y-98994889D01*
X113167068Y-98824729D01*
X113203000Y-98644089D01*
X113203000Y-98459911D01*
X113167068Y-98279271D01*
X113096586Y-98109111D01*
X112994262Y-97955972D01*
X112864028Y-97825738D01*
X112710889Y-97723414D01*
X112540729Y-97652932D01*
X112360089Y-97617000D01*
X112175911Y-97617000D01*
X111995271Y-97652932D01*
X111825111Y-97723414D01*
X111671972Y-97825738D01*
X111541738Y-97955972D01*
X111439414Y-98109111D01*
X111368932Y-98279271D01*
X111333000Y-98459911D01*
X109942201Y-98459911D01*
X109816028Y-98333738D01*
X109662889Y-98231414D01*
X109492729Y-98160932D01*
X109312089Y-98125000D01*
X109127911Y-98125000D01*
X109061899Y-98138131D01*
X109061899Y-88045911D01*
X113873000Y-88045911D01*
X113873000Y-88230089D01*
X113908932Y-88410729D01*
X113927477Y-88455500D01*
X113908932Y-88500271D01*
X113873000Y-88680911D01*
X113873000Y-88865089D01*
X113908932Y-89045729D01*
X113979414Y-89215889D01*
X114081738Y-89369028D01*
X114211972Y-89499262D01*
X114365111Y-89601586D01*
X114535271Y-89672068D01*
X114715911Y-89708000D01*
X114900089Y-89708000D01*
X115080729Y-89672068D01*
X115189000Y-89627221D01*
X115297271Y-89672068D01*
X115477911Y-89708000D01*
X115662089Y-89708000D01*
X115842729Y-89672068D01*
X116012889Y-89601586D01*
X116166028Y-89499262D01*
X116296262Y-89369028D01*
X116398586Y-89215889D01*
X116469068Y-89045729D01*
X116505000Y-88865089D01*
X116505000Y-88680911D01*
X116469068Y-88500271D01*
X116450523Y-88455500D01*
X116469068Y-88410729D01*
X116505000Y-88230089D01*
X116505000Y-88045911D01*
X116469068Y-87865271D01*
X116398586Y-87695111D01*
X116296262Y-87541972D01*
X116166028Y-87411738D01*
X116012889Y-87309414D01*
X115842729Y-87238932D01*
X115662089Y-87203000D01*
X115477911Y-87203000D01*
X115297271Y-87238932D01*
X115189000Y-87283779D01*
X115080729Y-87238932D01*
X114900089Y-87203000D01*
X114715911Y-87203000D01*
X114535271Y-87238932D01*
X114365111Y-87309414D01*
X114211972Y-87411738D01*
X114081738Y-87541972D01*
X113979414Y-87695111D01*
X113908932Y-87865271D01*
X113873000Y-88045911D01*
X109061899Y-88045911D01*
X109061899Y-79409911D01*
X122382000Y-79409911D01*
X122382000Y-79594089D01*
X122417932Y-79774729D01*
X122488414Y-79944889D01*
X122590738Y-80098028D01*
X122720972Y-80228262D01*
X122874111Y-80330586D01*
X123044271Y-80401068D01*
X123224911Y-80437000D01*
X123409089Y-80437000D01*
X123589729Y-80401068D01*
X123759889Y-80330586D01*
X123913028Y-80228262D01*
X124043262Y-80098028D01*
X124145586Y-79944889D01*
X124216068Y-79774729D01*
X124252000Y-79594089D01*
X124252000Y-79409911D01*
X124216068Y-79229271D01*
X124145586Y-79059111D01*
X124043262Y-78905972D01*
X123913028Y-78775738D01*
X123759889Y-78673414D01*
X123589729Y-78602932D01*
X123409089Y-78567000D01*
X123224911Y-78567000D01*
X123044271Y-78602932D01*
X122874111Y-78673414D01*
X122720972Y-78775738D01*
X122590738Y-78905972D01*
X122488414Y-79059111D01*
X122417932Y-79229271D01*
X122382000Y-79409911D01*
X109061899Y-79409911D01*
X109061899Y-78772726D01*
X109391329Y-78909180D01*
X109782555Y-78987000D01*
X110181445Y-78987000D01*
X110572671Y-78909180D01*
X110941197Y-78756532D01*
X111272862Y-78534920D01*
X111554920Y-78252862D01*
X111682000Y-78062674D01*
X111809080Y-78252862D01*
X112091138Y-78534920D01*
X112422803Y-78756532D01*
X112791329Y-78909180D01*
X113182555Y-78987000D01*
X113581445Y-78987000D01*
X113972671Y-78909180D01*
X114341197Y-78756532D01*
X114672862Y-78534920D01*
X114954920Y-78252862D01*
X115176532Y-77921197D01*
X115329180Y-77552671D01*
X115407000Y-77161445D01*
X115407000Y-76762555D01*
X115329180Y-76371329D01*
X115176532Y-76002803D01*
X114954920Y-75671138D01*
X114672862Y-75389080D01*
X114341197Y-75167468D01*
X113972671Y-75014820D01*
X113581445Y-74937000D01*
X113182555Y-74937000D01*
X112791329Y-75014820D01*
X112422803Y-75167468D01*
X112091138Y-75389080D01*
X111809080Y-75671138D01*
X111682000Y-75861326D01*
X111554920Y-75671138D01*
X111272862Y-75389080D01*
X110941197Y-75167468D01*
X110572671Y-75014820D01*
X110181445Y-74937000D01*
X109782555Y-74937000D01*
X109391329Y-75014820D01*
X109061899Y-75151274D01*
X109061899Y-70167500D01*
X128077824Y-70167500D01*
X128081500Y-70204823D01*
X128081501Y-76480168D01*
X128077824Y-76517500D01*
X128092498Y-76666485D01*
X128135954Y-76809746D01*
X128206526Y-76941776D01*
X128277701Y-77028502D01*
X128301500Y-77057501D01*
X128330498Y-77081299D01*
X129542000Y-78292802D01*
X129542001Y-80290168D01*
X129538324Y-80327500D01*
X129542001Y-80364833D01*
X129552825Y-80474724D01*
X129552998Y-80476485D01*
X129596454Y-80619746D01*
X129667026Y-80751776D01*
X129733274Y-80832498D01*
X129762000Y-80867501D01*
X129790998Y-80891299D01*
X130309700Y-81410002D01*
X130333499Y-81439001D01*
X130362497Y-81462799D01*
X130449223Y-81533974D01*
X130581253Y-81604546D01*
X130724514Y-81648003D01*
X130836167Y-81659000D01*
X130836176Y-81659000D01*
X130873499Y-81662676D01*
X130910822Y-81659000D01*
X131637500Y-81659000D01*
X131637501Y-88164168D01*
X131633824Y-88201500D01*
X131637501Y-88238833D01*
X131648268Y-88348145D01*
X131648498Y-88350485D01*
X131691954Y-88493746D01*
X131762526Y-88625776D01*
X131829861Y-88707823D01*
X131857500Y-88741501D01*
X131886498Y-88765299D01*
X132236347Y-89115149D01*
X132260432Y-89236229D01*
X132330914Y-89406389D01*
X132433238Y-89559528D01*
X132563472Y-89689762D01*
X132716611Y-89792086D01*
X132886771Y-89862568D01*
X133067411Y-89898500D01*
X133251589Y-89898500D01*
X133432229Y-89862568D01*
X133602389Y-89792086D01*
X133755528Y-89689762D01*
X133854744Y-89590546D01*
X134050501Y-89786303D01*
X134050500Y-95132305D01*
X134003729Y-95112932D01*
X133823089Y-95077000D01*
X133638911Y-95077000D01*
X133458271Y-95112932D01*
X133288111Y-95183414D01*
X133134972Y-95285738D01*
X133004738Y-95415972D01*
X132902414Y-95569111D01*
X132831932Y-95739271D01*
X132796000Y-95919911D01*
X132796000Y-96104089D01*
X132831932Y-96284729D01*
X132902414Y-96454889D01*
X133004738Y-96608028D01*
X133134972Y-96738262D01*
X133288111Y-96840586D01*
X133458271Y-96911068D01*
X133638911Y-96947000D01*
X133823089Y-96947000D01*
X134003729Y-96911068D01*
X134173889Y-96840586D01*
X134223233Y-96807616D01*
X134367611Y-96904086D01*
X134537771Y-96974568D01*
X134718411Y-97010500D01*
X134902589Y-97010500D01*
X135083229Y-96974568D01*
X135253389Y-96904086D01*
X135406528Y-96801762D01*
X135536762Y-96671528D01*
X135639086Y-96518389D01*
X135709568Y-96348229D01*
X135745500Y-96167589D01*
X135745500Y-95983411D01*
X135709568Y-95802771D01*
X135639086Y-95632611D01*
X135570500Y-95529965D01*
X135570500Y-89508822D01*
X135574176Y-89471499D01*
X135570500Y-89434176D01*
X135570500Y-89434167D01*
X135559503Y-89322514D01*
X135516046Y-89179253D01*
X135459252Y-89073000D01*
X135445474Y-89047223D01*
X135374299Y-88960497D01*
X135350501Y-88931499D01*
X135321503Y-88907701D01*
X134154899Y-87741098D01*
X134154899Y-87264902D01*
X136105149Y-85314653D01*
X136226229Y-85290568D01*
X136396389Y-85220086D01*
X136549528Y-85117762D01*
X136679762Y-84987528D01*
X136782086Y-84834389D01*
X136852568Y-84664229D01*
X136888500Y-84483589D01*
X136888500Y-84299411D01*
X136852568Y-84118771D01*
X136782086Y-83948611D01*
X136679762Y-83795472D01*
X136549528Y-83665238D01*
X136396389Y-83562914D01*
X136226229Y-83492432D01*
X136045589Y-83456500D01*
X135861411Y-83456500D01*
X135680771Y-83492432D01*
X135510611Y-83562914D01*
X135357472Y-83665238D01*
X135227238Y-83795472D01*
X135124914Y-83948611D01*
X135054432Y-84118771D01*
X135030347Y-84239851D01*
X133157500Y-86112699D01*
X133157500Y-81380823D01*
X133161176Y-81343500D01*
X133157500Y-81306177D01*
X133157500Y-81306167D01*
X133146503Y-81194514D01*
X133103046Y-81051253D01*
X133032475Y-80919225D01*
X133032474Y-80919223D01*
X132990026Y-80867501D01*
X132937501Y-80803499D01*
X132908498Y-80779697D01*
X132516804Y-80388003D01*
X132493001Y-80358999D01*
X132377276Y-80264026D01*
X132245247Y-80193454D01*
X132101986Y-80149997D01*
X131990333Y-80139000D01*
X131990322Y-80139000D01*
X131953000Y-80135324D01*
X131915678Y-80139000D01*
X131188302Y-80139000D01*
X131062000Y-80012699D01*
X131062000Y-78520911D01*
X141749500Y-78520911D01*
X141749500Y-78705089D01*
X141785432Y-78885729D01*
X141855914Y-79055889D01*
X141958238Y-79209028D01*
X142088472Y-79339262D01*
X142241611Y-79441586D01*
X142411771Y-79512068D01*
X142592411Y-79548000D01*
X142776589Y-79548000D01*
X142957229Y-79512068D01*
X143127389Y-79441586D01*
X143280528Y-79339262D01*
X143410762Y-79209028D01*
X143513086Y-79055889D01*
X143583568Y-78885729D01*
X143619500Y-78705089D01*
X143619500Y-78520911D01*
X143583568Y-78340271D01*
X143513086Y-78170111D01*
X143410762Y-78016972D01*
X143280528Y-77886738D01*
X143127389Y-77784414D01*
X142957229Y-77713932D01*
X142776589Y-77678000D01*
X142592411Y-77678000D01*
X142411771Y-77713932D01*
X142241611Y-77784414D01*
X142088472Y-77886738D01*
X141958238Y-78016972D01*
X141855914Y-78170111D01*
X141785432Y-78340271D01*
X141749500Y-78520911D01*
X131062000Y-78520911D01*
X131062000Y-78015323D01*
X131065676Y-77978000D01*
X131062000Y-77940677D01*
X131062000Y-77940667D01*
X131051003Y-77829014D01*
X131007546Y-77685753D01*
X130936975Y-77553725D01*
X130936974Y-77553723D01*
X130865799Y-77466997D01*
X130842001Y-77437999D01*
X130813004Y-77414202D01*
X129601500Y-76202699D01*
X129601500Y-70481056D01*
X129666974Y-70401276D01*
X129737546Y-70269247D01*
X129781003Y-70125986D01*
X129792000Y-70014333D01*
X129792000Y-70014325D01*
X129795676Y-69977000D01*
X129792000Y-69939675D01*
X129792000Y-69697035D01*
X129860586Y-69594389D01*
X129931068Y-69424229D01*
X129967000Y-69243589D01*
X129967000Y-69059411D01*
X129931068Y-68878771D01*
X129860586Y-68708611D01*
X129758262Y-68555472D01*
X129628028Y-68425238D01*
X129474889Y-68322914D01*
X129304729Y-68252432D01*
X129124089Y-68216500D01*
X128939911Y-68216500D01*
X128759271Y-68252432D01*
X128589111Y-68322914D01*
X128435972Y-68425238D01*
X128305738Y-68555472D01*
X128203414Y-68708611D01*
X128132932Y-68878771D01*
X128097000Y-69059411D01*
X128097000Y-69243589D01*
X128132932Y-69424229D01*
X128203414Y-69594389D01*
X128259628Y-69678519D01*
X128248974Y-69691501D01*
X128206526Y-69743224D01*
X128135955Y-69875253D01*
X128135954Y-69875254D01*
X128092497Y-70018515D01*
X128081500Y-70130168D01*
X128081500Y-70130178D01*
X128077824Y-70167500D01*
X109061899Y-70167500D01*
X109061899Y-68852726D01*
X109391329Y-68989180D01*
X109782555Y-69067000D01*
X110181445Y-69067000D01*
X110572671Y-68989180D01*
X110941197Y-68836532D01*
X111272862Y-68614920D01*
X111554920Y-68332862D01*
X111682000Y-68142674D01*
X111809080Y-68332862D01*
X112091138Y-68614920D01*
X112422803Y-68836532D01*
X112791329Y-68989180D01*
X113182555Y-69067000D01*
X113581445Y-69067000D01*
X113972671Y-68989180D01*
X114341197Y-68836532D01*
X114672862Y-68614920D01*
X114954920Y-68332862D01*
X115176532Y-68001197D01*
X115329180Y-67632671D01*
X115407000Y-67241445D01*
X115407000Y-66842555D01*
X115329180Y-66451329D01*
X115176532Y-66082803D01*
X114954920Y-65751138D01*
X114672862Y-65469080D01*
X114341197Y-65247468D01*
X113972671Y-65094820D01*
X113581445Y-65017000D01*
X113182555Y-65017000D01*
X112791329Y-65094820D01*
X112422803Y-65247468D01*
X112091138Y-65469080D01*
X111809080Y-65751138D01*
X111682000Y-65941326D01*
X111554920Y-65751138D01*
X111272862Y-65469080D01*
X110941197Y-65247468D01*
X110572671Y-65094820D01*
X110181445Y-65017000D01*
X109782555Y-65017000D01*
X109391329Y-65094820D01*
X109061899Y-65231274D01*
X109061899Y-63331580D01*
X116540000Y-63331580D01*
X116540000Y-63668420D01*
X116605714Y-63998789D01*
X116734618Y-64309989D01*
X116921756Y-64590061D01*
X117159939Y-64828244D01*
X117440011Y-65015382D01*
X117751211Y-65144286D01*
X118081580Y-65210000D01*
X118418420Y-65210000D01*
X118748789Y-65144286D01*
X119059989Y-65015382D01*
X119340061Y-64828244D01*
X119578244Y-64590061D01*
X119765382Y-64309989D01*
X119894286Y-63998789D01*
X119960000Y-63668420D01*
X119960000Y-63331580D01*
X120040000Y-63331580D01*
X120040000Y-63668420D01*
X120105714Y-63998789D01*
X120234618Y-64309989D01*
X120421756Y-64590061D01*
X120659939Y-64828244D01*
X120940011Y-65015382D01*
X121251211Y-65144286D01*
X121581580Y-65210000D01*
X121918420Y-65210000D01*
X122248789Y-65144286D01*
X122559989Y-65015382D01*
X122840061Y-64828244D01*
X123078244Y-64590061D01*
X123265382Y-64309989D01*
X123394286Y-63998789D01*
X123460000Y-63668420D01*
X123460000Y-63331580D01*
X123540000Y-63331580D01*
X123540000Y-63668420D01*
X123605714Y-63998789D01*
X123734618Y-64309989D01*
X123921756Y-64590061D01*
X124159939Y-64828244D01*
X124440011Y-65015382D01*
X124751211Y-65144286D01*
X125081580Y-65210000D01*
X125418420Y-65210000D01*
X125748789Y-65144286D01*
X126059989Y-65015382D01*
X126340061Y-64828244D01*
X126578244Y-64590061D01*
X126765382Y-64309989D01*
X126894286Y-63998789D01*
X126960000Y-63668420D01*
X126960000Y-63331580D01*
X127040000Y-63331580D01*
X127040000Y-63668420D01*
X127105714Y-63998789D01*
X127234618Y-64309989D01*
X127421756Y-64590061D01*
X127659939Y-64828244D01*
X127940011Y-65015382D01*
X128251211Y-65144286D01*
X128581580Y-65210000D01*
X128918420Y-65210000D01*
X129248789Y-65144286D01*
X129559989Y-65015382D01*
X129840061Y-64828244D01*
X130078244Y-64590061D01*
X130265382Y-64309989D01*
X130394286Y-63998789D01*
X130460000Y-63668420D01*
X130460000Y-63331580D01*
X130540000Y-63331580D01*
X130540000Y-63668420D01*
X130605714Y-63998789D01*
X130734618Y-64309989D01*
X130921756Y-64590061D01*
X131159939Y-64828244D01*
X131440011Y-65015382D01*
X131751211Y-65144286D01*
X132081580Y-65210000D01*
X132418420Y-65210000D01*
X132748789Y-65144286D01*
X133059989Y-65015382D01*
X133340061Y-64828244D01*
X133479415Y-64688890D01*
X134740715Y-64688890D01*
X134845531Y-64960959D01*
X135147929Y-65109340D01*
X135473465Y-65195875D01*
X135809627Y-65217239D01*
X136143498Y-65172610D01*
X136462247Y-65063704D01*
X136654469Y-64960959D01*
X136759285Y-64688890D01*
X135750000Y-63679605D01*
X134740715Y-64688890D01*
X133479415Y-64688890D01*
X133578244Y-64590061D01*
X133765382Y-64309989D01*
X133894286Y-63998789D01*
X133960000Y-63668420D01*
X133960000Y-63559627D01*
X134032761Y-63559627D01*
X134077390Y-63893498D01*
X134186296Y-64212247D01*
X134289041Y-64404469D01*
X134561110Y-64509285D01*
X135570395Y-63500000D01*
X135929605Y-63500000D01*
X136938890Y-64509285D01*
X137210959Y-64404469D01*
X137359340Y-64102071D01*
X137445875Y-63776535D01*
X137467239Y-63440373D01*
X137422610Y-63106502D01*
X137313704Y-62787753D01*
X137210959Y-62595531D01*
X136938890Y-62490715D01*
X135929605Y-63500000D01*
X135570395Y-63500000D01*
X134561110Y-62490715D01*
X134289041Y-62595531D01*
X134140660Y-62897929D01*
X134054125Y-63223465D01*
X134032761Y-63559627D01*
X133960000Y-63559627D01*
X133960000Y-63331580D01*
X133894286Y-63001211D01*
X133765382Y-62690011D01*
X133578244Y-62409939D01*
X133479415Y-62311110D01*
X134740715Y-62311110D01*
X135750000Y-63320395D01*
X136759285Y-62311110D01*
X136654469Y-62039041D01*
X136352071Y-61890660D01*
X136026535Y-61804125D01*
X135690373Y-61782761D01*
X135356502Y-61827390D01*
X135037753Y-61936296D01*
X134845531Y-62039041D01*
X134740715Y-62311110D01*
X133479415Y-62311110D01*
X133340061Y-62171756D01*
X133059989Y-61984618D01*
X132748789Y-61855714D01*
X132418420Y-61790000D01*
X132081580Y-61790000D01*
X131751211Y-61855714D01*
X131440011Y-61984618D01*
X131159939Y-62171756D01*
X130921756Y-62409939D01*
X130734618Y-62690011D01*
X130605714Y-63001211D01*
X130540000Y-63331580D01*
X130460000Y-63331580D01*
X130394286Y-63001211D01*
X130265382Y-62690011D01*
X130078244Y-62409939D01*
X129840061Y-62171756D01*
X129559989Y-61984618D01*
X129248789Y-61855714D01*
X128918420Y-61790000D01*
X128581580Y-61790000D01*
X128251211Y-61855714D01*
X127940011Y-61984618D01*
X127659939Y-62171756D01*
X127421756Y-62409939D01*
X127234618Y-62690011D01*
X127105714Y-63001211D01*
X127040000Y-63331580D01*
X126960000Y-63331580D01*
X126894286Y-63001211D01*
X126765382Y-62690011D01*
X126578244Y-62409939D01*
X126340061Y-62171756D01*
X126059989Y-61984618D01*
X125748789Y-61855714D01*
X125418420Y-61790000D01*
X125081580Y-61790000D01*
X124751211Y-61855714D01*
X124440011Y-61984618D01*
X124159939Y-62171756D01*
X123921756Y-62409939D01*
X123734618Y-62690011D01*
X123605714Y-63001211D01*
X123540000Y-63331580D01*
X123460000Y-63331580D01*
X123394286Y-63001211D01*
X123265382Y-62690011D01*
X123078244Y-62409939D01*
X122840061Y-62171756D01*
X122559989Y-61984618D01*
X122248789Y-61855714D01*
X121918420Y-61790000D01*
X121581580Y-61790000D01*
X121251211Y-61855714D01*
X120940011Y-61984618D01*
X120659939Y-62171756D01*
X120421756Y-62409939D01*
X120234618Y-62690011D01*
X120105714Y-63001211D01*
X120040000Y-63331580D01*
X119960000Y-63331580D01*
X119894286Y-63001211D01*
X119765382Y-62690011D01*
X119578244Y-62409939D01*
X119340061Y-62171756D01*
X119059989Y-61984618D01*
X118748789Y-61855714D01*
X118418420Y-61790000D01*
X118081580Y-61790000D01*
X117751211Y-61855714D01*
X117440011Y-61984618D01*
X117159939Y-62171756D01*
X116921756Y-62409939D01*
X116734618Y-62690011D01*
X116605714Y-63001211D01*
X116540000Y-63331580D01*
X109061899Y-63331580D01*
X109061899Y-62632000D01*
X110937465Y-62632000D01*
X111040111Y-62700586D01*
X111210271Y-62771068D01*
X111390911Y-62807000D01*
X111575089Y-62807000D01*
X111755729Y-62771068D01*
X111925889Y-62700586D01*
X112079028Y-62598262D01*
X112209262Y-62468028D01*
X112311586Y-62314889D01*
X112382068Y-62144729D01*
X112418000Y-61964089D01*
X112418000Y-61779911D01*
X112382068Y-61599271D01*
X112311586Y-61429111D01*
X112209262Y-61275972D01*
X112079028Y-61145738D01*
X111925889Y-61043414D01*
X111755729Y-60972932D01*
X111575089Y-60937000D01*
X111390911Y-60937000D01*
X111210271Y-60972932D01*
X111040111Y-61043414D01*
X110937465Y-61112000D01*
X108610000Y-61112000D01*
X108610000Y-57540475D01*
X108615000Y-57540475D01*
X108615000Y-58059525D01*
X108716261Y-58568601D01*
X108914893Y-59048141D01*
X109203262Y-59479715D01*
X109570285Y-59846738D01*
X110001859Y-60135107D01*
X110481399Y-60333739D01*
X110990475Y-60435000D01*
X111509525Y-60435000D01*
X112018601Y-60333739D01*
X112498141Y-60135107D01*
X112929715Y-59846738D01*
X112944873Y-59831580D01*
X116540000Y-59831580D01*
X116540000Y-60168420D01*
X116605714Y-60498789D01*
X116734618Y-60809989D01*
X116921756Y-61090061D01*
X117159939Y-61328244D01*
X117440011Y-61515382D01*
X117751211Y-61644286D01*
X118081580Y-61710000D01*
X118418420Y-61710000D01*
X118748789Y-61644286D01*
X119059989Y-61515382D01*
X119340061Y-61328244D01*
X119578244Y-61090061D01*
X119765382Y-60809989D01*
X119894286Y-60498789D01*
X119960000Y-60168420D01*
X119960000Y-59831580D01*
X120040000Y-59831580D01*
X120040000Y-60168420D01*
X120105714Y-60498789D01*
X120234618Y-60809989D01*
X120421756Y-61090061D01*
X120659939Y-61328244D01*
X120940011Y-61515382D01*
X121251211Y-61644286D01*
X121581580Y-61710000D01*
X121918420Y-61710000D01*
X122248789Y-61644286D01*
X122559989Y-61515382D01*
X122840061Y-61328244D01*
X123078244Y-61090061D01*
X123265382Y-60809989D01*
X123394286Y-60498789D01*
X123460000Y-60168420D01*
X123460000Y-59831580D01*
X123540000Y-59831580D01*
X123540000Y-60168420D01*
X123605714Y-60498789D01*
X123734618Y-60809989D01*
X123921756Y-61090061D01*
X124159939Y-61328244D01*
X124440011Y-61515382D01*
X124751211Y-61644286D01*
X125081580Y-61710000D01*
X125418420Y-61710000D01*
X125748789Y-61644286D01*
X126059989Y-61515382D01*
X126340061Y-61328244D01*
X126578244Y-61090061D01*
X126765382Y-60809989D01*
X126894286Y-60498789D01*
X126960000Y-60168420D01*
X126960000Y-59831580D01*
X127040000Y-59831580D01*
X127040000Y-60168420D01*
X127105714Y-60498789D01*
X127234618Y-60809989D01*
X127421756Y-61090061D01*
X127659939Y-61328244D01*
X127940011Y-61515382D01*
X128251211Y-61644286D01*
X128581580Y-61710000D01*
X128918420Y-61710000D01*
X129248789Y-61644286D01*
X129559989Y-61515382D01*
X129840061Y-61328244D01*
X130078244Y-61090061D01*
X130265382Y-60809989D01*
X130394286Y-60498789D01*
X130460000Y-60168420D01*
X130460000Y-59831580D01*
X130540000Y-59831580D01*
X130540000Y-60168420D01*
X130605714Y-60498789D01*
X130734618Y-60809989D01*
X130921756Y-61090061D01*
X131159939Y-61328244D01*
X131440011Y-61515382D01*
X131751211Y-61644286D01*
X132081580Y-61710000D01*
X132418420Y-61710000D01*
X132748789Y-61644286D01*
X133059989Y-61515382D01*
X133340061Y-61328244D01*
X133578244Y-61090061D01*
X133765382Y-60809989D01*
X133894286Y-60498789D01*
X133960000Y-60168420D01*
X133960000Y-59831580D01*
X134040000Y-59831580D01*
X134040000Y-60168420D01*
X134105714Y-60498789D01*
X134234618Y-60809989D01*
X134421756Y-61090061D01*
X134659939Y-61328244D01*
X134940011Y-61515382D01*
X135251211Y-61644286D01*
X135581580Y-61710000D01*
X135918420Y-61710000D01*
X136248789Y-61644286D01*
X136559989Y-61515382D01*
X136840061Y-61328244D01*
X137078244Y-61090061D01*
X137265382Y-60809989D01*
X137394286Y-60498789D01*
X137460000Y-60168420D01*
X137460000Y-59831580D01*
X137394286Y-59501211D01*
X137265382Y-59190011D01*
X137078244Y-58909939D01*
X136840061Y-58671756D01*
X136559989Y-58484618D01*
X136248789Y-58355714D01*
X135918420Y-58290000D01*
X135581580Y-58290000D01*
X135251211Y-58355714D01*
X134940011Y-58484618D01*
X134659939Y-58671756D01*
X134421756Y-58909939D01*
X134234618Y-59190011D01*
X134105714Y-59501211D01*
X134040000Y-59831580D01*
X133960000Y-59831580D01*
X133894286Y-59501211D01*
X133765382Y-59190011D01*
X133578244Y-58909939D01*
X133340061Y-58671756D01*
X133059989Y-58484618D01*
X132748789Y-58355714D01*
X132418420Y-58290000D01*
X132081580Y-58290000D01*
X131751211Y-58355714D01*
X131440011Y-58484618D01*
X131159939Y-58671756D01*
X130921756Y-58909939D01*
X130734618Y-59190011D01*
X130605714Y-59501211D01*
X130540000Y-59831580D01*
X130460000Y-59831580D01*
X130394286Y-59501211D01*
X130265382Y-59190011D01*
X130078244Y-58909939D01*
X129840061Y-58671756D01*
X129559989Y-58484618D01*
X129248789Y-58355714D01*
X128918420Y-58290000D01*
X128581580Y-58290000D01*
X128251211Y-58355714D01*
X127940011Y-58484618D01*
X127659939Y-58671756D01*
X127421756Y-58909939D01*
X127234618Y-59190011D01*
X127105714Y-59501211D01*
X127040000Y-59831580D01*
X126960000Y-59831580D01*
X126894286Y-59501211D01*
X126765382Y-59190011D01*
X126578244Y-58909939D01*
X126340061Y-58671756D01*
X126059989Y-58484618D01*
X125748789Y-58355714D01*
X125418420Y-58290000D01*
X125081580Y-58290000D01*
X124751211Y-58355714D01*
X124440011Y-58484618D01*
X124159939Y-58671756D01*
X123921756Y-58909939D01*
X123734618Y-59190011D01*
X123605714Y-59501211D01*
X123540000Y-59831580D01*
X123460000Y-59831580D01*
X123394286Y-59501211D01*
X123265382Y-59190011D01*
X123078244Y-58909939D01*
X122840061Y-58671756D01*
X122559989Y-58484618D01*
X122248789Y-58355714D01*
X121918420Y-58290000D01*
X121581580Y-58290000D01*
X121251211Y-58355714D01*
X120940011Y-58484618D01*
X120659939Y-58671756D01*
X120421756Y-58909939D01*
X120234618Y-59190011D01*
X120105714Y-59501211D01*
X120040000Y-59831580D01*
X119960000Y-59831580D01*
X119894286Y-59501211D01*
X119765382Y-59190011D01*
X119578244Y-58909939D01*
X119340061Y-58671756D01*
X119059989Y-58484618D01*
X118748789Y-58355714D01*
X118418420Y-58290000D01*
X118081580Y-58290000D01*
X117751211Y-58355714D01*
X117440011Y-58484618D01*
X117159939Y-58671756D01*
X116921756Y-58909939D01*
X116734618Y-59190011D01*
X116605714Y-59501211D01*
X116540000Y-59831580D01*
X112944873Y-59831580D01*
X113296738Y-59479715D01*
X113585107Y-59048141D01*
X113783739Y-58568601D01*
X113885000Y-58059525D01*
X113885000Y-57540475D01*
X140115000Y-57540475D01*
X140115000Y-58059525D01*
X140216261Y-58568601D01*
X140414893Y-59048141D01*
X140703262Y-59479715D01*
X141070285Y-59846738D01*
X141501859Y-60135107D01*
X141981399Y-60333739D01*
X142490475Y-60435000D01*
X143009525Y-60435000D01*
X143518601Y-60333739D01*
X143998141Y-60135107D01*
X144429715Y-59846738D01*
X144796738Y-59479715D01*
X145085107Y-59048141D01*
X145283739Y-58568601D01*
X145385000Y-58059525D01*
X145385000Y-57540475D01*
X145283739Y-57031399D01*
X145085107Y-56551859D01*
X144796738Y-56120285D01*
X144429715Y-55753262D01*
X143998141Y-55464893D01*
X143518601Y-55266261D01*
X143009525Y-55165000D01*
X142490475Y-55165000D01*
X141981399Y-55266261D01*
X141501859Y-55464893D01*
X141070285Y-55753262D01*
X140703262Y-56120285D01*
X140414893Y-56551859D01*
X140216261Y-57031399D01*
X140115000Y-57540475D01*
X113885000Y-57540475D01*
X113783739Y-57031399D01*
X113585107Y-56551859D01*
X113296738Y-56120285D01*
X112929715Y-55753262D01*
X112498141Y-55464893D01*
X112018601Y-55266261D01*
X111509525Y-55165000D01*
X110990475Y-55165000D01*
X110481399Y-55266261D01*
X110001859Y-55464893D01*
X109570285Y-55753262D01*
X109203262Y-56120285D01*
X108914893Y-56551859D01*
X108716261Y-57031399D01*
X108615000Y-57540475D01*
X108610000Y-57540475D01*
X108610000Y-50888500D01*
X145390001Y-50888500D01*
X145390000Y-111328198D01*
M02*
