G04 #@! TF.GenerationSoftware,KiCad,Pcbnew,6.0.4-6f826c9f35~116~ubuntu18.04.1*
G04 #@! TF.CreationDate,2022-04-10T17:08:25+03:00*
G04 #@! TF.ProjectId,wideband_controller,77696465-6261-46e6-945f-636f6e74726f,rev?*
G04 #@! TF.SameCoordinates,Original*
G04 #@! TF.FileFunction,Copper,L4,Bot*
G04 #@! TF.FilePolarity,Positive*
%FSLAX46Y46*%
G04 Gerber Fmt 4.6, Leading zero omitted, Abs format (unit mm)*
G04 Created by KiCad (PCBNEW 6.0.4-6f826c9f35~116~ubuntu18.04.1) date 2022-04-10 17:08:25*
%MOMM*%
%LPD*%
G01*
G04 APERTURE LIST*
G04 #@! TA.AperFunction,ComponentPad*
%ADD10C,2.150000*%
G04 #@! TD*
G04 #@! TA.AperFunction,ComponentPad*
%ADD11R,1.700000X1.700000*%
G04 #@! TD*
G04 #@! TA.AperFunction,ComponentPad*
%ADD12C,2.780000*%
G04 #@! TD*
G04 #@! TA.AperFunction,ComponentPad*
%ADD13O,1.700000X1.700000*%
G04 #@! TD*
G04 #@! TA.AperFunction,ViaPad*
%ADD14C,0.600000*%
G04 #@! TD*
G04 #@! TA.AperFunction,Conductor*
%ADD15C,0.250000*%
G04 #@! TD*
G04 #@! TA.AperFunction,Conductor*
%ADD16C,0.375000*%
G04 #@! TD*
G04 #@! TA.AperFunction,Conductor*
%ADD17C,0.203200*%
G04 #@! TD*
G04 #@! TA.AperFunction,Conductor*
%ADD18C,1.500000*%
G04 #@! TD*
G04 APERTURE END LIST*
D10*
X135750000Y-63500000D03*
X132250000Y-63500000D03*
X128750000Y-63500000D03*
X125250000Y-63500000D03*
X121750000Y-63500000D03*
X118250000Y-63500000D03*
X135750000Y-60000000D03*
X132250000Y-60000000D03*
X128750000Y-60000000D03*
X125250000Y-60000000D03*
X121750000Y-60000000D03*
X118250000Y-60000000D03*
D11*
X144018000Y-100330000D03*
D12*
X109982000Y-76962000D03*
X113382000Y-76962000D03*
X113382000Y-67042000D03*
X109982000Y-67042000D03*
D11*
X131572000Y-105156000D03*
D13*
X131572000Y-107696000D03*
X129032000Y-105156000D03*
X129032000Y-107696000D03*
D11*
X121056400Y-111455200D03*
D13*
X123596400Y-111455200D03*
X126136400Y-111455200D03*
X128676400Y-111455200D03*
X131216400Y-111455200D03*
X133756400Y-111455200D03*
X136296400Y-111455200D03*
X138836400Y-111455200D03*
X141376400Y-111455200D03*
X143916400Y-111455200D03*
D11*
X144018000Y-104140000D03*
D14*
X145034000Y-108458000D03*
X126492000Y-91440000D03*
X129286000Y-100076000D03*
X125984000Y-85852000D03*
X142240000Y-53340000D03*
X143510000Y-102362000D03*
X129286000Y-90424000D03*
X113284000Y-86868000D03*
X139700000Y-97282000D03*
X122682000Y-61722000D03*
X140970000Y-98552000D03*
X122936000Y-108204000D03*
X123698000Y-66040000D03*
X140462000Y-108458000D03*
X120396000Y-85598000D03*
X120904000Y-74676000D03*
X141986000Y-108458000D03*
X132842000Y-103124000D03*
X127381000Y-65913000D03*
X137922000Y-76200000D03*
X129032000Y-76794000D03*
X126746000Y-96774000D03*
X119634000Y-85598000D03*
X120396000Y-108204000D03*
X123952000Y-74422000D03*
X130683000Y-81661000D03*
X142748000Y-92964000D03*
X131318000Y-61722000D03*
X132080000Y-78994000D03*
X117348000Y-85598000D03*
X138176000Y-95250000D03*
X122936000Y-107188000D03*
X139954000Y-62484000D03*
X132334000Y-83566000D03*
X136652000Y-108458000D03*
X121666000Y-109220000D03*
X121412000Y-79756000D03*
X109220000Y-64262000D03*
X138176000Y-96520000D03*
X137414000Y-77724000D03*
X144272000Y-87884000D03*
X122428000Y-91440000D03*
X118807000Y-97155000D03*
X137541000Y-112776000D03*
X135001000Y-112776000D03*
X130683000Y-83566000D03*
X131826000Y-100076000D03*
X140081000Y-112776000D03*
X120904000Y-76200000D03*
X108712000Y-74930000D03*
X137668000Y-92710000D03*
X111760000Y-86868000D03*
X108712000Y-72390000D03*
X110998000Y-95758000D03*
X127000000Y-53340000D03*
X144780000Y-102362000D03*
X143002000Y-87884000D03*
X109728000Y-103378000D03*
X143764000Y-90170000D03*
X126746000Y-95758000D03*
X125476000Y-107188000D03*
X130302000Y-88900000D03*
X127254000Y-100076000D03*
X136271000Y-92710000D03*
X115570000Y-103378000D03*
X119380000Y-53340000D03*
X123698000Y-73406000D03*
X124841000Y-112776000D03*
X109220000Y-61468000D03*
X120396000Y-109220000D03*
X129794000Y-61722000D03*
X129921000Y-112776000D03*
X133350000Y-80518000D03*
X136652000Y-105918000D03*
X124460000Y-85852000D03*
X124460000Y-53340000D03*
X108712000Y-70104000D03*
X127381000Y-71755000D03*
X121666000Y-108204000D03*
X131064000Y-65024000D03*
X108712000Y-73660000D03*
X143510000Y-108458000D03*
X122109000Y-101473000D03*
X110998000Y-94742000D03*
X115570000Y-80772000D03*
X130302000Y-103124000D03*
X136144000Y-82169000D03*
X129032000Y-103124000D03*
X124206000Y-108204000D03*
X130302000Y-87376000D03*
X128016000Y-61722000D03*
X122936000Y-109220000D03*
X124206000Y-107188000D03*
X145288000Y-112776000D03*
X141986000Y-73406000D03*
X108712000Y-71247000D03*
X141224000Y-106738200D03*
X138938000Y-108458000D03*
X131826000Y-88900000D03*
X142776000Y-64897000D03*
X118807000Y-102235000D03*
X113792000Y-103378000D03*
X114300000Y-94996000D03*
X134620000Y-53340000D03*
X114300000Y-53340000D03*
X112760000Y-94046000D03*
X132842000Y-95758000D03*
X109204000Y-90236000D03*
X133858000Y-95758000D03*
X127000000Y-58674000D03*
X121158000Y-85598000D03*
X142621000Y-112776000D03*
X138938000Y-107188000D03*
X116967000Y-103378000D03*
X128524000Y-81534000D03*
X130302000Y-85852000D03*
X129540000Y-53340000D03*
X128397000Y-86517250D03*
X118872000Y-85598000D03*
X139954000Y-64008000D03*
X110998000Y-86868000D03*
X133350000Y-90551000D03*
X118110000Y-85598000D03*
X139700000Y-53340000D03*
X116586000Y-85598000D03*
X128524000Y-82804000D03*
X119634000Y-94949976D03*
X123190000Y-80264000D03*
X127381000Y-112776000D03*
X131572000Y-103124000D03*
X111506000Y-64262000D03*
X111506000Y-61468000D03*
X110236000Y-86868000D03*
X143002000Y-83820000D03*
X132080000Y-53340000D03*
X109728000Y-104902000D03*
X140462000Y-77724000D03*
X136779000Y-95250000D03*
X116078000Y-109220000D03*
X108712000Y-68834000D03*
X141986000Y-77701000D03*
X132461000Y-112776000D03*
X137160000Y-61722000D03*
X138938000Y-92710000D03*
X143764000Y-88900000D03*
X120142000Y-61722000D03*
X120904000Y-75438000D03*
X130810000Y-100076000D03*
X122936000Y-95758000D03*
X127000000Y-78740000D03*
X111887000Y-103378000D03*
X130683000Y-78994000D03*
X129286000Y-99060000D03*
X137160000Y-53340000D03*
X123698000Y-71882000D03*
X121666000Y-107188000D03*
X121920000Y-53340000D03*
X140970000Y-97282000D03*
X136906000Y-81280000D03*
X118491000Y-103378000D03*
X136652000Y-107188000D03*
X132588000Y-72644000D03*
X112522000Y-86868000D03*
X116840000Y-53340000D03*
X127254000Y-99060000D03*
X111760000Y-53340000D03*
X110998000Y-102362000D03*
X134620000Y-87630000D03*
X141478000Y-62484000D03*
X117348000Y-61722000D03*
X113792000Y-93957000D03*
X113538000Y-109220000D03*
X112268000Y-109220000D03*
X144145000Y-62738000D03*
X144272000Y-81280000D03*
X132715000Y-70231000D03*
X110236000Y-90932000D03*
X115570000Y-83820000D03*
X115570000Y-83058000D03*
X115570000Y-82296000D03*
X126492000Y-66548000D03*
X128397000Y-83977250D03*
X139446000Y-100076000D03*
X129286000Y-97028000D03*
X131572000Y-87630000D03*
X142494000Y-96266000D03*
X131826000Y-97536000D03*
X141986000Y-75161000D03*
X110998000Y-109220000D03*
X141224000Y-101092000D03*
X122109000Y-97917000D03*
X110998000Y-96774000D03*
X130810000Y-97536000D03*
X125730000Y-104648000D03*
X134475858Y-91462910D03*
X142875000Y-79629000D03*
X134114603Y-92710000D03*
X115062000Y-96578200D03*
X122428000Y-90675397D03*
X119126000Y-106426000D03*
X124968000Y-95758000D03*
X125732603Y-95758000D03*
X119890603Y-106680000D03*
X136652000Y-103886000D03*
X133350000Y-92710000D03*
X114046000Y-96520000D03*
X126492000Y-92204603D03*
X113264636Y-96500636D03*
X119634000Y-96012000D03*
X142748000Y-91948000D03*
X131613000Y-76835000D03*
X142240000Y-83312000D03*
X116521000Y-100203000D03*
X117537000Y-99314000D03*
X129286000Y-72644000D03*
X132080000Y-80010000D03*
X130050603Y-72644000D03*
X130048000Y-74676000D03*
X124841000Y-104589800D03*
X133858000Y-101346000D03*
X143764000Y-79629000D03*
X133667257Y-91455036D03*
X130777116Y-77939063D03*
X135890000Y-69723000D03*
X136398000Y-80518000D03*
X128521397Y-72644000D03*
X129073011Y-78105000D03*
X136794400Y-74930000D03*
X139446000Y-74930000D03*
X141986000Y-79629000D03*
X134940506Y-90855687D03*
X141986000Y-78740000D03*
X135681314Y-90544124D03*
X128143000Y-78105000D03*
X127635000Y-72644000D03*
D15*
X145034000Y-80518000D02*
X145034000Y-63627000D01*
X133858000Y-61608000D02*
X132250000Y-60000000D01*
X133096000Y-69850000D02*
X133096000Y-66040000D01*
X145034000Y-63627000D02*
X144145000Y-62738000D01*
X133096000Y-66040000D02*
X133858000Y-65278000D01*
X144272000Y-81280000D02*
X145034000Y-80518000D01*
X132715000Y-70231000D02*
X133096000Y-69850000D01*
X133858000Y-65278000D02*
X133858000Y-61608000D01*
D16*
X115570000Y-83820000D02*
X115727250Y-83977250D01*
X110236000Y-90932000D02*
X108966000Y-90932000D01*
X127355600Y-107696000D02*
X129032000Y-107696000D01*
X109220000Y-113030000D02*
X122021600Y-113030000D01*
X115727250Y-83977250D02*
X126842750Y-83977250D01*
D15*
X125730000Y-67310000D02*
X126492000Y-66548000D01*
D16*
X115570000Y-82296000D02*
X115570000Y-83820000D01*
X123596400Y-111455200D02*
X127355600Y-107696000D01*
X122021600Y-113030000D02*
X123596400Y-111455200D01*
D15*
X125730000Y-83977250D02*
X125730000Y-67310000D01*
D16*
X108712000Y-91186000D02*
X108712000Y-112522000D01*
X108712000Y-112522000D02*
X109220000Y-113030000D01*
X108966000Y-90932000D02*
X108712000Y-91186000D01*
X126842750Y-83977250D02*
X128397000Y-83977250D01*
D17*
X125730000Y-104648000D02*
X128465789Y-101912211D01*
X128465789Y-101912211D02*
X142435789Y-101912211D01*
X142435789Y-101912211D02*
X144018000Y-100330000D01*
X140381024Y-91508800D02*
X141110180Y-90779644D01*
X141110180Y-81393820D02*
X142875000Y-79629000D01*
X134475858Y-91462910D02*
X134521748Y-91508800D01*
X141110180Y-90779644D02*
X141110180Y-81393820D01*
X134521748Y-91508800D02*
X140381024Y-91508800D01*
X133134744Y-93726000D02*
X118134352Y-93726000D01*
X133916211Y-92944533D02*
X133134744Y-93726000D01*
X134114603Y-92710000D02*
X134114603Y-92673859D01*
X115282152Y-96578200D02*
X115062000Y-96578200D01*
X134114603Y-92710000D02*
X133916211Y-92908392D01*
X126997397Y-90675397D02*
X122428000Y-90675397D01*
X133916211Y-92908392D02*
X133916211Y-92944533D01*
X118134352Y-93726000D02*
X115282152Y-96578200D01*
X133388744Y-91948000D02*
X128270000Y-91948000D01*
X134114603Y-92673859D02*
X133388744Y-91948000D01*
X128270000Y-91948000D02*
X126997397Y-90675397D01*
X124968000Y-100584000D02*
X124947334Y-100563334D01*
X120396000Y-102870000D02*
X122936000Y-102870000D01*
X124947334Y-95778666D02*
X124968000Y-95758000D01*
X122936000Y-102870000D02*
X124968000Y-100838000D01*
X119126000Y-106426000D02*
X119126000Y-104140000D01*
X124947334Y-100563334D02*
X124947334Y-95778666D01*
X119126000Y-104140000D02*
X120396000Y-102870000D01*
X124968000Y-100838000D02*
X124968000Y-100584000D01*
X121037088Y-103257088D02*
X123310912Y-103257088D01*
X123310912Y-103257088D02*
X125730000Y-100838000D01*
X119888000Y-104406176D02*
X121037088Y-103257088D01*
X125730000Y-100838000D02*
X125730000Y-95760603D01*
X125730000Y-95760603D02*
X125732603Y-95758000D01*
X119890603Y-106680000D02*
X119888000Y-106677397D01*
X119888000Y-106677397D02*
X119888000Y-104406176D01*
X137414000Y-104648000D02*
X143510000Y-104648000D01*
X143510000Y-104648000D02*
X144018000Y-104140000D01*
X136652000Y-103886000D02*
X137414000Y-104648000D01*
X132842000Y-93218000D02*
X125476000Y-93218000D01*
X125476000Y-93218000D02*
X125469912Y-93224088D01*
X125469912Y-93224088D02*
X118116088Y-93224088D01*
X133350000Y-92710000D02*
X132842000Y-93218000D01*
X114554000Y-96012000D02*
X114046000Y-96520000D01*
X118116088Y-93224088D02*
X115328176Y-96012000D01*
X115328176Y-96012000D02*
X114554000Y-96012000D01*
X114203061Y-95562211D02*
X115257789Y-95562211D01*
X115257789Y-95562211D02*
X118110000Y-92710000D01*
X125986603Y-92710000D02*
X126492000Y-92204603D01*
X113264636Y-96500636D02*
X114203061Y-95562211D01*
X118110000Y-92710000D02*
X125986603Y-92710000D01*
D16*
X142748000Y-91948000D02*
X140462000Y-94234000D01*
X131740000Y-76962000D02*
X131613000Y-76835000D01*
X141986000Y-91186000D02*
X141986000Y-82643774D01*
X144509388Y-77453388D02*
X144018000Y-76962000D01*
X121412000Y-94234000D02*
X119634000Y-96012000D01*
X141986000Y-82643774D02*
X144509388Y-80120387D01*
X142748000Y-91948000D02*
X141986000Y-91186000D01*
X140462000Y-94234000D02*
X121412000Y-94234000D01*
X144509388Y-80120387D02*
X144509388Y-77453388D01*
X144018000Y-76962000D02*
X131740000Y-76962000D01*
D17*
X123691912Y-61558088D02*
X125250000Y-60000000D01*
X111646180Y-98704356D02*
X111646180Y-91326180D01*
X122021644Y-65672180D02*
X123691912Y-64001912D01*
X116840220Y-66293780D02*
X117461820Y-65672180D01*
X114554000Y-78994000D02*
X116840220Y-76707780D01*
X111646180Y-91326180D02*
X108712000Y-88392000D01*
X116521000Y-100203000D02*
X116140000Y-99822000D01*
X108712000Y-88392000D02*
X108712000Y-79502000D01*
X109220000Y-78994000D02*
X114554000Y-78994000D01*
X108712000Y-79502000D02*
X109220000Y-78994000D01*
X117461820Y-65672180D02*
X122021644Y-65672180D01*
X112763824Y-99822000D02*
X111646180Y-98704356D01*
X116840220Y-76707780D02*
X116840220Y-66293780D01*
X123691912Y-64001912D02*
X123691912Y-61558088D01*
X116140000Y-99822000D02*
X112763824Y-99822000D01*
X124968000Y-63500000D02*
X125250000Y-63500000D01*
X117348000Y-66548000D02*
X117856000Y-66040000D01*
X112014000Y-90932000D02*
X109079820Y-87997820D01*
X117348000Y-76962000D02*
X117348000Y-66548000D01*
X109079820Y-79896180D02*
X109474000Y-79502000D01*
X112014000Y-98552000D02*
X112014000Y-90932000D01*
X117856000Y-66040000D02*
X122428000Y-66040000D01*
X122428000Y-66040000D02*
X124968000Y-63500000D01*
X117537000Y-99314000D02*
X117396820Y-99454180D01*
X109474000Y-79502000D02*
X114808000Y-79502000D01*
X114808000Y-79502000D02*
X117348000Y-76962000D01*
X109079820Y-87997820D02*
X109079820Y-79896180D01*
X117396820Y-99454180D02*
X112916180Y-99454180D01*
X112916180Y-99454180D02*
X112014000Y-98552000D01*
D15*
X129667000Y-75819000D02*
X129286000Y-75438000D01*
X129662611Y-75823389D02*
X129667000Y-75819000D01*
X129662611Y-79370611D02*
X129662611Y-75823389D01*
X129286000Y-75438000D02*
X129286000Y-72644000D01*
X130302000Y-80010000D02*
X129662611Y-79370611D01*
X132080000Y-80010000D02*
X130302000Y-80010000D01*
X130050603Y-74673397D02*
X130050603Y-72644000D01*
X130048000Y-74676000D02*
X130050603Y-74673397D01*
D17*
X124841000Y-104521000D02*
X128016000Y-101346000D01*
X128016000Y-101346000D02*
X133858000Y-101346000D01*
X124841000Y-104589800D02*
X124841000Y-104521000D01*
X141478000Y-90932000D02*
X140335000Y-92075000D01*
X140335000Y-92075000D02*
X134287220Y-92075000D01*
X141478000Y-81915000D02*
X141478000Y-90932000D01*
X134287220Y-92075000D02*
X133667257Y-91455036D01*
X143764000Y-79629000D02*
X141478000Y-81915000D01*
D15*
X135890000Y-69723000D02*
X134239000Y-69723000D01*
X134239000Y-69723000D02*
X133858000Y-70104000D01*
X136398000Y-80518000D02*
X133858000Y-77978000D01*
X130777116Y-77939063D02*
X130777116Y-73184884D01*
X130816053Y-77978000D02*
X133858000Y-77978000D01*
X130777116Y-77939063D02*
X130816053Y-77978000D01*
X130777116Y-73184884D02*
X133858000Y-70104000D01*
D18*
X115824000Y-75854179D02*
X115824000Y-58928000D01*
X114716179Y-76962000D02*
X115824000Y-75854179D01*
X117094000Y-57658000D02*
X119408000Y-57658000D01*
X115824000Y-58928000D02*
X117094000Y-57658000D01*
X114716179Y-76962000D02*
X113382000Y-76962000D01*
X119408000Y-57658000D02*
X121750000Y-60000000D01*
D15*
X128270000Y-72895397D02*
X128521397Y-72644000D01*
X128270000Y-77301989D02*
X128270000Y-72895397D01*
X129073011Y-78105000D02*
X128270000Y-77301989D01*
X136794400Y-74930000D02*
X139446000Y-74930000D01*
D17*
X140716000Y-90653648D02*
X140716000Y-80899000D01*
X140716000Y-80899000D02*
X141986000Y-79629000D01*
X135195143Y-91110324D02*
X140259324Y-91110324D01*
X140259324Y-91110324D02*
X140716000Y-90653648D01*
X134940506Y-90855687D02*
X135195143Y-91110324D01*
X140335000Y-90424000D02*
X140335000Y-80391000D01*
X135879694Y-90742504D02*
X140016496Y-90742504D01*
X140016496Y-90742504D02*
X140335000Y-90424000D01*
X140335000Y-80391000D02*
X141986000Y-78740000D01*
X135681314Y-90544124D02*
X135879694Y-90742504D01*
X128143000Y-78105000D02*
X127635000Y-77597000D01*
X127635000Y-77597000D02*
X127635000Y-72644000D01*
G04 #@! TA.AperFunction,Conductor*
G36*
X145691621Y-52390502D02*
G01*
X145738114Y-52444158D01*
X145749500Y-52496500D01*
X145749500Y-113238500D01*
X145729498Y-113306621D01*
X145675842Y-113353114D01*
X145623500Y-113364500D01*
X122681426Y-113364500D01*
X122613305Y-113344498D01*
X122566812Y-113290842D01*
X122556708Y-113220568D01*
X122586202Y-113155988D01*
X122592331Y-113149405D01*
X123148064Y-112593672D01*
X123210376Y-112559646D01*
X123264967Y-112559874D01*
X123439949Y-112599469D01*
X123439955Y-112599470D01*
X123445586Y-112600744D01*
X123451357Y-112600971D01*
X123451359Y-112600971D01*
X123513389Y-112603408D01*
X123656870Y-112609046D01*
X123662579Y-112608218D01*
X123662583Y-112608218D01*
X123860415Y-112579533D01*
X123860419Y-112579532D01*
X123866130Y-112578704D01*
X123974257Y-112542000D01*
X124060883Y-112512595D01*
X124060888Y-112512593D01*
X124066355Y-112510737D01*
X124072210Y-112507458D01*
X124245795Y-112410246D01*
X124245799Y-112410243D01*
X124250842Y-112407419D01*
X124413412Y-112272212D01*
X124548619Y-112109642D01*
X124551443Y-112104599D01*
X124551446Y-112104595D01*
X124649113Y-111930198D01*
X124649114Y-111930196D01*
X124651937Y-111925155D01*
X124653793Y-111919688D01*
X124653795Y-111919683D01*
X124718047Y-111730400D01*
X124719904Y-111724930D01*
X124732806Y-111635949D01*
X124741490Y-111576060D01*
X124771060Y-111511515D01*
X124830832Y-111473203D01*
X124901829Y-111473287D01*
X124961509Y-111511742D01*
X124990925Y-111576358D01*
X124991915Y-111585895D01*
X124995196Y-111635949D01*
X124996617Y-111641545D01*
X124996618Y-111641550D01*
X125019184Y-111730400D01*
X125047245Y-111840890D01*
X125135769Y-112032914D01*
X125257805Y-112205591D01*
X125409265Y-112353137D01*
X125414061Y-112356342D01*
X125414064Y-112356344D01*
X125557336Y-112452075D01*
X125585077Y-112470611D01*
X125590385Y-112472892D01*
X125590386Y-112472892D01*
X125774050Y-112551800D01*
X125774053Y-112551801D01*
X125779353Y-112554078D01*
X125784982Y-112555352D01*
X125784983Y-112555352D01*
X125979950Y-112599469D01*
X125979953Y-112599469D01*
X125985586Y-112600744D01*
X125991357Y-112600971D01*
X125991359Y-112600971D01*
X126053389Y-112603408D01*
X126196870Y-112609046D01*
X126202579Y-112608218D01*
X126202583Y-112608218D01*
X126400415Y-112579533D01*
X126400419Y-112579532D01*
X126406130Y-112578704D01*
X126514257Y-112542000D01*
X126600883Y-112512595D01*
X126600888Y-112512593D01*
X126606355Y-112510737D01*
X126612210Y-112507458D01*
X126785795Y-112410246D01*
X126785799Y-112410243D01*
X126790842Y-112407419D01*
X126953412Y-112272212D01*
X127088619Y-112109642D01*
X127091443Y-112104599D01*
X127091446Y-112104595D01*
X127189113Y-111930198D01*
X127189114Y-111930196D01*
X127191937Y-111925155D01*
X127193793Y-111919688D01*
X127193795Y-111919683D01*
X127258047Y-111730400D01*
X127259904Y-111724930D01*
X127272806Y-111635949D01*
X127281490Y-111576060D01*
X127311060Y-111511515D01*
X127370832Y-111473203D01*
X127441829Y-111473287D01*
X127501509Y-111511742D01*
X127530925Y-111576358D01*
X127531915Y-111585895D01*
X127535196Y-111635949D01*
X127536617Y-111641545D01*
X127536618Y-111641550D01*
X127559184Y-111730400D01*
X127587245Y-111840890D01*
X127675769Y-112032914D01*
X127797805Y-112205591D01*
X127949265Y-112353137D01*
X127954061Y-112356342D01*
X127954064Y-112356344D01*
X128097336Y-112452075D01*
X128125077Y-112470611D01*
X128130385Y-112472892D01*
X128130386Y-112472892D01*
X128314050Y-112551800D01*
X128314053Y-112551801D01*
X128319353Y-112554078D01*
X128324982Y-112555352D01*
X128324983Y-112555352D01*
X128519950Y-112599469D01*
X128519953Y-112599469D01*
X128525586Y-112600744D01*
X128531357Y-112600971D01*
X128531359Y-112600971D01*
X128593389Y-112603408D01*
X128736870Y-112609046D01*
X128742579Y-112608218D01*
X128742583Y-112608218D01*
X128940415Y-112579533D01*
X128940419Y-112579532D01*
X128946130Y-112578704D01*
X129054257Y-112542000D01*
X129140883Y-112512595D01*
X129140888Y-112512593D01*
X129146355Y-112510737D01*
X129152210Y-112507458D01*
X129325795Y-112410246D01*
X129325799Y-112410243D01*
X129330842Y-112407419D01*
X129493412Y-112272212D01*
X129628619Y-112109642D01*
X129631443Y-112104599D01*
X129631446Y-112104595D01*
X129729113Y-111930198D01*
X129729114Y-111930196D01*
X129731937Y-111925155D01*
X129733793Y-111919688D01*
X129733795Y-111919683D01*
X129798047Y-111730400D01*
X129799904Y-111724930D01*
X129812806Y-111635949D01*
X129821490Y-111576060D01*
X129851060Y-111511515D01*
X129910832Y-111473203D01*
X129981829Y-111473287D01*
X130041509Y-111511742D01*
X130070925Y-111576358D01*
X130071915Y-111585895D01*
X130075196Y-111635949D01*
X130076617Y-111641545D01*
X130076618Y-111641550D01*
X130099184Y-111730400D01*
X130127245Y-111840890D01*
X130215769Y-112032914D01*
X130337805Y-112205591D01*
X130489265Y-112353137D01*
X130494061Y-112356342D01*
X130494064Y-112356344D01*
X130637336Y-112452075D01*
X130665077Y-112470611D01*
X130670385Y-112472892D01*
X130670386Y-112472892D01*
X130854050Y-112551800D01*
X130854053Y-112551801D01*
X130859353Y-112554078D01*
X130864982Y-112555352D01*
X130864983Y-112555352D01*
X131059950Y-112599469D01*
X131059953Y-112599469D01*
X131065586Y-112600744D01*
X131071357Y-112600971D01*
X131071359Y-112600971D01*
X131133389Y-112603408D01*
X131276870Y-112609046D01*
X131282579Y-112608218D01*
X131282583Y-112608218D01*
X131480415Y-112579533D01*
X131480419Y-112579532D01*
X131486130Y-112578704D01*
X131594257Y-112542000D01*
X131680883Y-112512595D01*
X131680888Y-112512593D01*
X131686355Y-112510737D01*
X131692210Y-112507458D01*
X131865795Y-112410246D01*
X131865799Y-112410243D01*
X131870842Y-112407419D01*
X132033412Y-112272212D01*
X132168619Y-112109642D01*
X132171443Y-112104599D01*
X132171446Y-112104595D01*
X132269113Y-111930198D01*
X132269114Y-111930196D01*
X132271937Y-111925155D01*
X132273793Y-111919688D01*
X132273795Y-111919683D01*
X132338047Y-111730400D01*
X132339904Y-111724930D01*
X132352806Y-111635949D01*
X132361490Y-111576060D01*
X132391060Y-111511515D01*
X132450832Y-111473203D01*
X132521829Y-111473287D01*
X132581509Y-111511742D01*
X132610925Y-111576358D01*
X132611915Y-111585895D01*
X132615196Y-111635949D01*
X132616617Y-111641545D01*
X132616618Y-111641550D01*
X132639184Y-111730400D01*
X132667245Y-111840890D01*
X132755769Y-112032914D01*
X132877805Y-112205591D01*
X133029265Y-112353137D01*
X133034061Y-112356342D01*
X133034064Y-112356344D01*
X133177336Y-112452075D01*
X133205077Y-112470611D01*
X133210385Y-112472892D01*
X133210386Y-112472892D01*
X133394050Y-112551800D01*
X133394053Y-112551801D01*
X133399353Y-112554078D01*
X133404982Y-112555352D01*
X133404983Y-112555352D01*
X133599950Y-112599469D01*
X133599953Y-112599469D01*
X133605586Y-112600744D01*
X133611357Y-112600971D01*
X133611359Y-112600971D01*
X133673389Y-112603408D01*
X133816870Y-112609046D01*
X133822579Y-112608218D01*
X133822583Y-112608218D01*
X134020415Y-112579533D01*
X134020419Y-112579532D01*
X134026130Y-112578704D01*
X134134257Y-112542000D01*
X134220883Y-112512595D01*
X134220888Y-112512593D01*
X134226355Y-112510737D01*
X134232210Y-112507458D01*
X134405795Y-112410246D01*
X134405799Y-112410243D01*
X134410842Y-112407419D01*
X134573412Y-112272212D01*
X134708619Y-112109642D01*
X134711443Y-112104599D01*
X134711446Y-112104595D01*
X134809113Y-111930198D01*
X134809114Y-111930196D01*
X134811937Y-111925155D01*
X134813793Y-111919688D01*
X134813795Y-111919683D01*
X134878047Y-111730400D01*
X134879904Y-111724930D01*
X134892806Y-111635949D01*
X134901490Y-111576060D01*
X134931060Y-111511515D01*
X134990832Y-111473203D01*
X135061829Y-111473287D01*
X135121509Y-111511742D01*
X135150925Y-111576358D01*
X135151915Y-111585895D01*
X135155196Y-111635949D01*
X135156617Y-111641545D01*
X135156618Y-111641550D01*
X135179184Y-111730400D01*
X135207245Y-111840890D01*
X135295769Y-112032914D01*
X135417805Y-112205591D01*
X135569265Y-112353137D01*
X135574061Y-112356342D01*
X135574064Y-112356344D01*
X135717336Y-112452075D01*
X135745077Y-112470611D01*
X135750385Y-112472892D01*
X135750386Y-112472892D01*
X135934050Y-112551800D01*
X135934053Y-112551801D01*
X135939353Y-112554078D01*
X135944982Y-112555352D01*
X135944983Y-112555352D01*
X136139950Y-112599469D01*
X136139953Y-112599469D01*
X136145586Y-112600744D01*
X136151357Y-112600971D01*
X136151359Y-112600971D01*
X136213389Y-112603408D01*
X136356870Y-112609046D01*
X136362579Y-112608218D01*
X136362583Y-112608218D01*
X136560415Y-112579533D01*
X136560419Y-112579532D01*
X136566130Y-112578704D01*
X136674257Y-112542000D01*
X136760883Y-112512595D01*
X136760888Y-112512593D01*
X136766355Y-112510737D01*
X136772210Y-112507458D01*
X136945795Y-112410246D01*
X136945799Y-112410243D01*
X136950842Y-112407419D01*
X137113412Y-112272212D01*
X137248619Y-112109642D01*
X137251443Y-112104599D01*
X137251446Y-112104595D01*
X137349113Y-111930198D01*
X137349114Y-111930196D01*
X137351937Y-111925155D01*
X137353793Y-111919688D01*
X137353795Y-111919683D01*
X137418047Y-111730400D01*
X137419904Y-111724930D01*
X137432806Y-111635949D01*
X137441490Y-111576060D01*
X137471060Y-111511515D01*
X137530832Y-111473203D01*
X137601829Y-111473287D01*
X137661509Y-111511742D01*
X137690925Y-111576358D01*
X137691915Y-111585895D01*
X137695196Y-111635949D01*
X137696617Y-111641545D01*
X137696618Y-111641550D01*
X137719184Y-111730400D01*
X137747245Y-111840890D01*
X137835769Y-112032914D01*
X137957805Y-112205591D01*
X138109265Y-112353137D01*
X138114061Y-112356342D01*
X138114064Y-112356344D01*
X138257336Y-112452075D01*
X138285077Y-112470611D01*
X138290385Y-112472892D01*
X138290386Y-112472892D01*
X138474050Y-112551800D01*
X138474053Y-112551801D01*
X138479353Y-112554078D01*
X138484982Y-112555352D01*
X138484983Y-112555352D01*
X138679950Y-112599469D01*
X138679953Y-112599469D01*
X138685586Y-112600744D01*
X138691357Y-112600971D01*
X138691359Y-112600971D01*
X138753389Y-112603408D01*
X138896870Y-112609046D01*
X138902579Y-112608218D01*
X138902583Y-112608218D01*
X139100415Y-112579533D01*
X139100419Y-112579532D01*
X139106130Y-112578704D01*
X139214257Y-112542000D01*
X139300883Y-112512595D01*
X139300888Y-112512593D01*
X139306355Y-112510737D01*
X139312210Y-112507458D01*
X139485795Y-112410246D01*
X139485799Y-112410243D01*
X139490842Y-112407419D01*
X139653412Y-112272212D01*
X139788619Y-112109642D01*
X139791443Y-112104599D01*
X139791446Y-112104595D01*
X139889113Y-111930198D01*
X139889114Y-111930196D01*
X139891937Y-111925155D01*
X139893793Y-111919688D01*
X139893795Y-111919683D01*
X139958047Y-111730400D01*
X139959904Y-111724930D01*
X139972806Y-111635949D01*
X139981490Y-111576060D01*
X140011060Y-111511515D01*
X140070832Y-111473203D01*
X140141829Y-111473287D01*
X140201509Y-111511742D01*
X140230925Y-111576358D01*
X140231915Y-111585895D01*
X140235196Y-111635949D01*
X140236617Y-111641545D01*
X140236618Y-111641550D01*
X140259184Y-111730400D01*
X140287245Y-111840890D01*
X140375769Y-112032914D01*
X140497805Y-112205591D01*
X140649265Y-112353137D01*
X140654061Y-112356342D01*
X140654064Y-112356344D01*
X140797336Y-112452075D01*
X140825077Y-112470611D01*
X140830385Y-112472892D01*
X140830386Y-112472892D01*
X141014050Y-112551800D01*
X141014053Y-112551801D01*
X141019353Y-112554078D01*
X141024982Y-112555352D01*
X141024983Y-112555352D01*
X141219950Y-112599469D01*
X141219953Y-112599469D01*
X141225586Y-112600744D01*
X141231357Y-112600971D01*
X141231359Y-112600971D01*
X141293389Y-112603408D01*
X141436870Y-112609046D01*
X141442579Y-112608218D01*
X141442583Y-112608218D01*
X141640415Y-112579533D01*
X141640419Y-112579532D01*
X141646130Y-112578704D01*
X141754257Y-112542000D01*
X141840883Y-112512595D01*
X141840888Y-112512593D01*
X141846355Y-112510737D01*
X141852210Y-112507458D01*
X142025795Y-112410246D01*
X142025799Y-112410243D01*
X142030842Y-112407419D01*
X142193412Y-112272212D01*
X142328619Y-112109642D01*
X142331443Y-112104599D01*
X142331446Y-112104595D01*
X142429113Y-111930198D01*
X142429114Y-111930196D01*
X142431937Y-111925155D01*
X142433793Y-111919688D01*
X142433795Y-111919683D01*
X142498047Y-111730400D01*
X142499904Y-111724930D01*
X142516686Y-111609193D01*
X142521835Y-111573679D01*
X142551405Y-111509134D01*
X142611177Y-111470822D01*
X142682174Y-111470906D01*
X142741854Y-111509361D01*
X142771270Y-111573977D01*
X142772261Y-111583520D01*
X142775314Y-111630102D01*
X142777115Y-111641472D01*
X142826296Y-111835123D01*
X142830137Y-111845969D01*
X142913786Y-112027418D01*
X142919537Y-112037379D01*
X143034855Y-112200550D01*
X143042321Y-112209292D01*
X143185447Y-112348720D01*
X143194381Y-112355954D01*
X143360512Y-112466960D01*
X143370625Y-112472451D01*
X143554205Y-112551323D01*
X143565138Y-112554875D01*
X143755100Y-112597858D01*
X143763700Y-112595691D01*
X143764066Y-112595300D01*
X143766400Y-112585491D01*
X143766400Y-112577444D01*
X144066400Y-112577444D01*
X144070366Y-112590950D01*
X144084366Y-112592954D01*
X144180298Y-112579045D01*
X144191481Y-112576360D01*
X144380683Y-112512134D01*
X144391186Y-112507458D01*
X144565524Y-112409825D01*
X144574996Y-112403315D01*
X144728619Y-112275548D01*
X144736748Y-112267419D01*
X144864515Y-112113796D01*
X144871025Y-112104324D01*
X144968658Y-111929986D01*
X144973334Y-111919483D01*
X145037560Y-111730281D01*
X145040245Y-111719098D01*
X145054159Y-111623129D01*
X145052173Y-111609193D01*
X145038605Y-111605200D01*
X144084515Y-111605200D01*
X144069276Y-111609675D01*
X144068071Y-111611065D01*
X144066400Y-111618748D01*
X144066400Y-112577444D01*
X143766400Y-112577444D01*
X143766400Y-111287085D01*
X144066400Y-111287085D01*
X144070875Y-111302324D01*
X144072265Y-111303529D01*
X144079948Y-111305200D01*
X145039429Y-111305200D01*
X145053974Y-111300929D01*
X145056037Y-111288795D01*
X145052517Y-111250485D01*
X145050420Y-111239171D01*
X144996185Y-111046870D01*
X144992063Y-111036131D01*
X144903692Y-110856933D01*
X144897682Y-110847125D01*
X144778131Y-110687027D01*
X144770441Y-110678487D01*
X144623715Y-110542854D01*
X144614590Y-110535853D01*
X144445609Y-110429234D01*
X144435365Y-110424014D01*
X144249785Y-110349975D01*
X144238747Y-110346705D01*
X144084170Y-110315959D01*
X144071294Y-110317111D01*
X144066400Y-110332264D01*
X144066400Y-111287085D01*
X143766400Y-111287085D01*
X143766400Y-110332152D01*
X143762594Y-110319190D01*
X143747679Y-110317254D01*
X143623180Y-110338647D01*
X143612060Y-110341627D01*
X143424607Y-110410782D01*
X143414229Y-110415732D01*
X143242519Y-110517888D01*
X143233207Y-110524653D01*
X143082987Y-110656394D01*
X143075070Y-110664737D01*
X142951375Y-110821643D01*
X142945104Y-110831300D01*
X142852079Y-111008112D01*
X142847673Y-111018749D01*
X142788425Y-111209556D01*
X142786032Y-111220814D01*
X142771708Y-111341834D01*
X142743837Y-111407132D01*
X142685089Y-111446995D01*
X142614114Y-111448769D01*
X142553448Y-111411890D01*
X142522350Y-111348066D01*
X142521112Y-111338566D01*
X142512481Y-111244640D01*
X142505762Y-111220814D01*
X142495090Y-111182975D01*
X142455086Y-111041131D01*
X142444049Y-111018749D01*
X142364119Y-110856669D01*
X142361565Y-110851490D01*
X142235051Y-110682067D01*
X142107636Y-110564286D01*
X142084022Y-110542457D01*
X142084020Y-110542455D01*
X142079781Y-110538537D01*
X142051096Y-110520438D01*
X141905834Y-110428784D01*
X141905833Y-110428784D01*
X141900954Y-110425705D01*
X141704560Y-110347352D01*
X141698903Y-110346227D01*
X141698897Y-110346225D01*
X141502842Y-110307228D01*
X141502840Y-110307228D01*
X141497175Y-110306101D01*
X141491400Y-110306025D01*
X141491396Y-110306025D01*
X141385376Y-110304637D01*
X141285746Y-110303333D01*
X141280049Y-110304312D01*
X141280048Y-110304312D01*
X141083050Y-110338162D01*
X141083049Y-110338162D01*
X141077353Y-110339141D01*
X140878975Y-110412327D01*
X140874014Y-110415279D01*
X140874013Y-110415279D01*
X140827953Y-110442682D01*
X140697256Y-110520438D01*
X140538281Y-110659855D01*
X140407376Y-110825908D01*
X140404687Y-110831019D01*
X140404685Y-110831022D01*
X140391192Y-110856669D01*
X140308923Y-111013036D01*
X140246220Y-111214973D01*
X140245541Y-111220710D01*
X140231488Y-111339439D01*
X140203617Y-111404737D01*
X140144869Y-111444601D01*
X140073894Y-111446374D01*
X140013228Y-111409495D01*
X139982130Y-111345671D01*
X139980890Y-111336158D01*
X139978046Y-111305200D01*
X139972481Y-111244640D01*
X139965762Y-111220814D01*
X139955090Y-111182975D01*
X139915086Y-111041131D01*
X139904049Y-111018749D01*
X139824119Y-110856669D01*
X139821565Y-110851490D01*
X139695051Y-110682067D01*
X139567636Y-110564286D01*
X139544022Y-110542457D01*
X139544020Y-110542455D01*
X139539781Y-110538537D01*
X139511096Y-110520438D01*
X139365834Y-110428784D01*
X139365833Y-110428784D01*
X139360954Y-110425705D01*
X139164560Y-110347352D01*
X139158903Y-110346227D01*
X139158897Y-110346225D01*
X138962842Y-110307228D01*
X138962840Y-110307228D01*
X138957175Y-110306101D01*
X138951400Y-110306025D01*
X138951396Y-110306025D01*
X138845376Y-110304637D01*
X138745746Y-110303333D01*
X138740049Y-110304312D01*
X138740048Y-110304312D01*
X138543050Y-110338162D01*
X138543049Y-110338162D01*
X138537353Y-110339141D01*
X138338975Y-110412327D01*
X138334014Y-110415279D01*
X138334013Y-110415279D01*
X138287953Y-110442682D01*
X138157256Y-110520438D01*
X137998281Y-110659855D01*
X137867376Y-110825908D01*
X137864687Y-110831019D01*
X137864685Y-110831022D01*
X137851192Y-110856669D01*
X137768923Y-111013036D01*
X137706220Y-111214973D01*
X137705541Y-111220710D01*
X137691488Y-111339439D01*
X137663617Y-111404737D01*
X137604869Y-111444601D01*
X137533894Y-111446374D01*
X137473228Y-111409495D01*
X137442130Y-111345671D01*
X137440890Y-111336158D01*
X137438046Y-111305200D01*
X137432481Y-111244640D01*
X137425762Y-111220814D01*
X137415090Y-111182975D01*
X137375086Y-111041131D01*
X137364049Y-111018749D01*
X137284119Y-110856669D01*
X137281565Y-110851490D01*
X137155051Y-110682067D01*
X137027636Y-110564286D01*
X137004022Y-110542457D01*
X137004020Y-110542455D01*
X136999781Y-110538537D01*
X136971096Y-110520438D01*
X136825834Y-110428784D01*
X136825833Y-110428784D01*
X136820954Y-110425705D01*
X136624560Y-110347352D01*
X136618903Y-110346227D01*
X136618897Y-110346225D01*
X136422842Y-110307228D01*
X136422840Y-110307228D01*
X136417175Y-110306101D01*
X136411400Y-110306025D01*
X136411396Y-110306025D01*
X136305376Y-110304637D01*
X136205746Y-110303333D01*
X136200049Y-110304312D01*
X136200048Y-110304312D01*
X136003050Y-110338162D01*
X136003049Y-110338162D01*
X135997353Y-110339141D01*
X135798975Y-110412327D01*
X135794014Y-110415279D01*
X135794013Y-110415279D01*
X135747953Y-110442682D01*
X135617256Y-110520438D01*
X135458281Y-110659855D01*
X135327376Y-110825908D01*
X135324687Y-110831019D01*
X135324685Y-110831022D01*
X135311192Y-110856669D01*
X135228923Y-111013036D01*
X135166220Y-111214973D01*
X135165541Y-111220710D01*
X135151488Y-111339439D01*
X135123617Y-111404737D01*
X135064869Y-111444601D01*
X134993894Y-111446374D01*
X134933228Y-111409495D01*
X134902130Y-111345671D01*
X134900890Y-111336158D01*
X134898046Y-111305200D01*
X134892481Y-111244640D01*
X134885762Y-111220814D01*
X134875090Y-111182975D01*
X134835086Y-111041131D01*
X134824049Y-111018749D01*
X134744119Y-110856669D01*
X134741565Y-110851490D01*
X134615051Y-110682067D01*
X134487636Y-110564286D01*
X134464022Y-110542457D01*
X134464020Y-110542455D01*
X134459781Y-110538537D01*
X134431096Y-110520438D01*
X134285834Y-110428784D01*
X134285833Y-110428784D01*
X134280954Y-110425705D01*
X134084560Y-110347352D01*
X134078903Y-110346227D01*
X134078897Y-110346225D01*
X133882842Y-110307228D01*
X133882840Y-110307228D01*
X133877175Y-110306101D01*
X133871400Y-110306025D01*
X133871396Y-110306025D01*
X133765376Y-110304637D01*
X133665746Y-110303333D01*
X133660049Y-110304312D01*
X133660048Y-110304312D01*
X133463050Y-110338162D01*
X133463049Y-110338162D01*
X133457353Y-110339141D01*
X133258975Y-110412327D01*
X133254014Y-110415279D01*
X133254013Y-110415279D01*
X133207953Y-110442682D01*
X133077256Y-110520438D01*
X132918281Y-110659855D01*
X132787376Y-110825908D01*
X132784687Y-110831019D01*
X132784685Y-110831022D01*
X132771192Y-110856669D01*
X132688923Y-111013036D01*
X132626220Y-111214973D01*
X132625541Y-111220710D01*
X132611488Y-111339439D01*
X132583617Y-111404737D01*
X132524869Y-111444601D01*
X132453894Y-111446374D01*
X132393228Y-111409495D01*
X132362130Y-111345671D01*
X132360890Y-111336158D01*
X132358046Y-111305200D01*
X132352481Y-111244640D01*
X132345762Y-111220814D01*
X132335090Y-111182975D01*
X132295086Y-111041131D01*
X132284049Y-111018749D01*
X132204119Y-110856669D01*
X132201565Y-110851490D01*
X132075051Y-110682067D01*
X131947636Y-110564286D01*
X131924022Y-110542457D01*
X131924020Y-110542455D01*
X131919781Y-110538537D01*
X131891096Y-110520438D01*
X131745834Y-110428784D01*
X131745833Y-110428784D01*
X131740954Y-110425705D01*
X131544560Y-110347352D01*
X131538903Y-110346227D01*
X131538897Y-110346225D01*
X131342842Y-110307228D01*
X131342840Y-110307228D01*
X131337175Y-110306101D01*
X131331400Y-110306025D01*
X131331396Y-110306025D01*
X131225376Y-110304637D01*
X131125746Y-110303333D01*
X131120049Y-110304312D01*
X131120048Y-110304312D01*
X130923050Y-110338162D01*
X130923049Y-110338162D01*
X130917353Y-110339141D01*
X130718975Y-110412327D01*
X130714014Y-110415279D01*
X130714013Y-110415279D01*
X130667953Y-110442682D01*
X130537256Y-110520438D01*
X130378281Y-110659855D01*
X130247376Y-110825908D01*
X130244687Y-110831019D01*
X130244685Y-110831022D01*
X130231192Y-110856669D01*
X130148923Y-111013036D01*
X130086220Y-111214973D01*
X130085541Y-111220710D01*
X130071488Y-111339439D01*
X130043617Y-111404737D01*
X129984869Y-111444601D01*
X129913894Y-111446374D01*
X129853228Y-111409495D01*
X129822130Y-111345671D01*
X129820890Y-111336158D01*
X129818046Y-111305200D01*
X129812481Y-111244640D01*
X129805762Y-111220814D01*
X129795090Y-111182975D01*
X129755086Y-111041131D01*
X129744049Y-111018749D01*
X129664119Y-110856669D01*
X129661565Y-110851490D01*
X129535051Y-110682067D01*
X129407636Y-110564286D01*
X129384022Y-110542457D01*
X129384020Y-110542455D01*
X129379781Y-110538537D01*
X129351096Y-110520438D01*
X129205834Y-110428784D01*
X129205833Y-110428784D01*
X129200954Y-110425705D01*
X129004560Y-110347352D01*
X128998903Y-110346227D01*
X128998897Y-110346225D01*
X128802842Y-110307228D01*
X128802840Y-110307228D01*
X128797175Y-110306101D01*
X128791400Y-110306025D01*
X128791396Y-110306025D01*
X128685376Y-110304637D01*
X128585746Y-110303333D01*
X128580049Y-110304312D01*
X128580048Y-110304312D01*
X128383050Y-110338162D01*
X128383049Y-110338162D01*
X128377353Y-110339141D01*
X128178975Y-110412327D01*
X128174014Y-110415279D01*
X128174013Y-110415279D01*
X128127953Y-110442682D01*
X127997256Y-110520438D01*
X127838281Y-110659855D01*
X127707376Y-110825908D01*
X127704687Y-110831019D01*
X127704685Y-110831022D01*
X127691192Y-110856669D01*
X127608923Y-111013036D01*
X127546220Y-111214973D01*
X127545541Y-111220710D01*
X127531488Y-111339439D01*
X127503617Y-111404737D01*
X127444869Y-111444601D01*
X127373894Y-111446374D01*
X127313228Y-111409495D01*
X127282130Y-111345671D01*
X127280890Y-111336158D01*
X127278046Y-111305200D01*
X127272481Y-111244640D01*
X127265762Y-111220814D01*
X127255090Y-111182975D01*
X127215086Y-111041131D01*
X127204049Y-111018749D01*
X127124119Y-110856669D01*
X127121565Y-110851490D01*
X126995051Y-110682067D01*
X126867636Y-110564286D01*
X126844022Y-110542457D01*
X126844020Y-110542455D01*
X126839781Y-110538537D01*
X126811096Y-110520438D01*
X126665834Y-110428784D01*
X126665833Y-110428784D01*
X126660954Y-110425705D01*
X126464560Y-110347352D01*
X126458903Y-110346227D01*
X126458897Y-110346225D01*
X126262842Y-110307228D01*
X126262840Y-110307228D01*
X126257175Y-110306101D01*
X126251400Y-110306025D01*
X126251396Y-110306025D01*
X126145376Y-110304637D01*
X126045746Y-110303333D01*
X126040049Y-110304312D01*
X126040048Y-110304312D01*
X125843050Y-110338162D01*
X125843049Y-110338162D01*
X125837353Y-110339141D01*
X125745870Y-110372891D01*
X125687221Y-110394528D01*
X125616388Y-110399340D01*
X125554197Y-110365093D01*
X125520395Y-110302660D01*
X125525712Y-110231863D01*
X125554515Y-110187221D01*
X126212345Y-109529392D01*
X127520832Y-108220905D01*
X127583144Y-108186879D01*
X127609927Y-108184000D01*
X127909352Y-108184000D01*
X127977473Y-108204002D01*
X128023777Y-108257246D01*
X128031369Y-108273714D01*
X128153405Y-108446391D01*
X128304865Y-108593937D01*
X128309661Y-108597142D01*
X128309664Y-108597144D01*
X128452081Y-108692304D01*
X128480677Y-108711411D01*
X128485985Y-108713692D01*
X128485986Y-108713692D01*
X128669650Y-108792600D01*
X128669653Y-108792601D01*
X128674953Y-108794878D01*
X128680582Y-108796152D01*
X128680583Y-108796152D01*
X128875550Y-108840269D01*
X128875553Y-108840269D01*
X128881186Y-108841544D01*
X128886957Y-108841771D01*
X128886959Y-108841771D01*
X128948989Y-108844208D01*
X129092470Y-108849846D01*
X129098179Y-108849018D01*
X129098183Y-108849018D01*
X129296015Y-108820333D01*
X129296019Y-108820332D01*
X129301730Y-108819504D01*
X129398383Y-108786695D01*
X129496483Y-108753395D01*
X129496488Y-108753393D01*
X129501955Y-108751537D01*
X129506998Y-108748713D01*
X129681395Y-108651046D01*
X129681399Y-108651043D01*
X129686442Y-108648219D01*
X129849012Y-108513012D01*
X129984219Y-108350442D01*
X129987043Y-108345399D01*
X129987046Y-108345395D01*
X130084713Y-108170998D01*
X130084714Y-108170996D01*
X130087537Y-108165955D01*
X130089393Y-108160488D01*
X130089395Y-108160483D01*
X130153647Y-107971200D01*
X130155504Y-107965730D01*
X130168406Y-107876749D01*
X130177090Y-107816860D01*
X130206660Y-107752315D01*
X130266432Y-107714003D01*
X130337429Y-107714087D01*
X130397109Y-107752542D01*
X130426525Y-107817158D01*
X130427515Y-107826695D01*
X130430796Y-107876749D01*
X130432217Y-107882345D01*
X130432218Y-107882350D01*
X130454784Y-107971200D01*
X130482845Y-108081690D01*
X130571369Y-108273714D01*
X130693405Y-108446391D01*
X130844865Y-108593937D01*
X130849661Y-108597142D01*
X130849664Y-108597144D01*
X130992081Y-108692304D01*
X131020677Y-108711411D01*
X131025985Y-108713692D01*
X131025986Y-108713692D01*
X131209650Y-108792600D01*
X131209653Y-108792601D01*
X131214953Y-108794878D01*
X131220582Y-108796152D01*
X131220583Y-108796152D01*
X131415550Y-108840269D01*
X131415553Y-108840269D01*
X131421186Y-108841544D01*
X131426957Y-108841771D01*
X131426959Y-108841771D01*
X131488989Y-108844208D01*
X131632470Y-108849846D01*
X131638179Y-108849018D01*
X131638183Y-108849018D01*
X131836015Y-108820333D01*
X131836019Y-108820332D01*
X131841730Y-108819504D01*
X131938383Y-108786695D01*
X132036483Y-108753395D01*
X132036488Y-108753393D01*
X132041955Y-108751537D01*
X132046998Y-108748713D01*
X132221395Y-108651046D01*
X132221399Y-108651043D01*
X132226442Y-108648219D01*
X132389012Y-108513012D01*
X132524219Y-108350442D01*
X132527043Y-108345399D01*
X132527046Y-108345395D01*
X132624713Y-108170998D01*
X132624714Y-108170996D01*
X132627537Y-108165955D01*
X132629393Y-108160488D01*
X132629395Y-108160483D01*
X132693647Y-107971200D01*
X132695504Y-107965730D01*
X132709243Y-107870981D01*
X132725314Y-107760140D01*
X132725314Y-107760138D01*
X132725846Y-107756470D01*
X132727429Y-107696000D01*
X132708081Y-107485440D01*
X132650686Y-107281931D01*
X132645998Y-107272423D01*
X132559719Y-107097469D01*
X132557165Y-107092290D01*
X132430651Y-106922867D01*
X132275381Y-106779337D01*
X132096554Y-106666505D01*
X131900160Y-106588152D01*
X131894503Y-106587027D01*
X131894497Y-106587025D01*
X131738916Y-106556079D01*
X131676006Y-106523172D01*
X131640874Y-106461477D01*
X131644674Y-106390582D01*
X131686199Y-106332996D01*
X131752266Y-106307002D01*
X131763497Y-106306500D01*
X132466646Y-106306500D01*
X132470350Y-106306059D01*
X132470353Y-106306059D01*
X132477746Y-106305179D01*
X132492846Y-106303382D01*
X132551282Y-106277426D01*
X132584518Y-106262663D01*
X132595153Y-106257939D01*
X132674241Y-106178713D01*
X132679084Y-106167760D01*
X132715675Y-106084992D01*
X132719506Y-106076327D01*
X132722500Y-106050646D01*
X132722500Y-104261354D01*
X132719382Y-104235154D01*
X132701721Y-104195392D01*
X132678663Y-104143482D01*
X132673939Y-104132847D01*
X132660970Y-104119900D01*
X132603264Y-104062295D01*
X132594713Y-104053759D01*
X132584076Y-104049056D01*
X132584074Y-104049055D01*
X132513951Y-104018054D01*
X132492327Y-104008494D01*
X132466646Y-104005500D01*
X130677354Y-104005500D01*
X130673650Y-104005941D01*
X130673647Y-104005941D01*
X130666254Y-104006821D01*
X130651154Y-104008618D01*
X130642514Y-104012456D01*
X130642513Y-104012456D01*
X130560117Y-104049055D01*
X130548847Y-104054061D01*
X130540628Y-104062294D01*
X130540627Y-104062295D01*
X130536051Y-104066879D01*
X130469759Y-104133287D01*
X130465056Y-104143924D01*
X130465055Y-104143926D01*
X130457278Y-104161518D01*
X130424494Y-104235673D01*
X130421500Y-104261354D01*
X130421500Y-104960568D01*
X130401498Y-105028689D01*
X130347842Y-105075182D01*
X130277568Y-105085286D01*
X130212988Y-105055792D01*
X130174604Y-104996066D01*
X130170029Y-104972097D01*
X130168117Y-104951285D01*
X130166020Y-104939971D01*
X130111785Y-104747670D01*
X130107663Y-104736931D01*
X130019292Y-104557733D01*
X130013282Y-104547925D01*
X129893731Y-104387827D01*
X129886041Y-104379287D01*
X129739315Y-104243654D01*
X129730190Y-104236653D01*
X129561209Y-104130034D01*
X129550965Y-104124814D01*
X129365385Y-104050775D01*
X129354347Y-104047505D01*
X129199770Y-104016759D01*
X129186894Y-104017911D01*
X129182000Y-104033064D01*
X129182000Y-105180000D01*
X129161998Y-105248121D01*
X129108342Y-105294614D01*
X129056000Y-105306000D01*
X127907397Y-105306000D01*
X127892357Y-105310416D01*
X127890305Y-105321603D01*
X127890914Y-105330901D01*
X127892715Y-105342273D01*
X127941896Y-105535923D01*
X127945737Y-105546769D01*
X128029386Y-105728218D01*
X128035137Y-105738179D01*
X128150455Y-105901350D01*
X128157921Y-105910092D01*
X128301047Y-106049520D01*
X128309981Y-106056754D01*
X128476112Y-106167760D01*
X128486225Y-106173251D01*
X128669805Y-106252123D01*
X128680738Y-106255675D01*
X128875615Y-106299771D01*
X128892753Y-106302027D01*
X128892480Y-106304100D01*
X128950986Y-106323816D01*
X128995326Y-106379264D01*
X129002650Y-106449882D01*
X128970633Y-106513249D01*
X128909439Y-106549247D01*
X128900081Y-106551224D01*
X128732953Y-106579941D01*
X128534575Y-106653127D01*
X128529614Y-106656079D01*
X128529613Y-106656079D01*
X128407311Y-106728841D01*
X128352856Y-106761238D01*
X128193881Y-106900655D01*
X128190310Y-106905185D01*
X128066553Y-107062171D01*
X128062976Y-107066708D01*
X128060286Y-107071821D01*
X128024063Y-107140668D01*
X127974644Y-107191640D01*
X127912555Y-107208000D01*
X127424375Y-107208000D01*
X127412887Y-107206717D01*
X127412842Y-107207271D01*
X127403897Y-107206551D01*
X127395140Y-107204570D01*
X127344749Y-107207696D01*
X127343750Y-107207758D01*
X127335949Y-107208000D01*
X127320561Y-107208000D01*
X127316128Y-107208635D01*
X127316127Y-107208635D01*
X127310827Y-107209394D01*
X127300770Y-107210424D01*
X127264581Y-107212669D01*
X127264579Y-107212669D01*
X127255622Y-107213225D01*
X127247184Y-107216272D01*
X127242222Y-107217299D01*
X127231001Y-107220097D01*
X127226112Y-107221527D01*
X127217226Y-107222799D01*
X127176046Y-107241522D01*
X127166690Y-107245331D01*
X127124143Y-107260691D01*
X127116896Y-107265985D01*
X127112415Y-107268368D01*
X127102440Y-107274196D01*
X127098150Y-107276940D01*
X127089976Y-107280656D01*
X127083172Y-107286519D01*
X127083170Y-107286520D01*
X127055714Y-107310177D01*
X127047796Y-107316465D01*
X127041351Y-107321173D01*
X127041345Y-107321178D01*
X127037411Y-107324052D01*
X127027011Y-107334452D01*
X127020165Y-107340809D01*
X126984080Y-107371902D01*
X126979196Y-107379437D01*
X126973297Y-107386199D01*
X126973254Y-107386162D01*
X126964576Y-107396887D01*
X124046229Y-110315235D01*
X123983917Y-110349261D01*
X123924615Y-110347074D01*
X123924560Y-110347352D01*
X123922833Y-110347008D01*
X123922830Y-110347008D01*
X123772527Y-110317111D01*
X123722842Y-110307228D01*
X123722840Y-110307228D01*
X123717175Y-110306101D01*
X123711400Y-110306025D01*
X123711396Y-110306025D01*
X123605376Y-110304637D01*
X123505746Y-110303333D01*
X123500049Y-110304312D01*
X123500048Y-110304312D01*
X123303050Y-110338162D01*
X123303049Y-110338162D01*
X123297353Y-110339141D01*
X123098975Y-110412327D01*
X123094014Y-110415279D01*
X123094013Y-110415279D01*
X123047953Y-110442682D01*
X122917256Y-110520438D01*
X122758281Y-110659855D01*
X122627376Y-110825908D01*
X122624687Y-110831019D01*
X122624685Y-110831022D01*
X122611192Y-110856669D01*
X122528923Y-111013036D01*
X122466220Y-111214973D01*
X122465541Y-111220710D01*
X122458027Y-111284195D01*
X122430156Y-111349492D01*
X122371408Y-111389356D01*
X122300434Y-111391130D01*
X122239767Y-111354251D01*
X122208669Y-111290427D01*
X122206900Y-111269385D01*
X122206900Y-110560554D01*
X122203782Y-110534354D01*
X122158339Y-110432047D01*
X122149844Y-110423566D01*
X122087345Y-110361177D01*
X122079113Y-110352959D01*
X122068476Y-110348256D01*
X122068474Y-110348255D01*
X121998351Y-110317254D01*
X121976727Y-110307694D01*
X121951046Y-110304700D01*
X120161754Y-110304700D01*
X120158050Y-110305141D01*
X120158047Y-110305141D01*
X120150654Y-110306021D01*
X120135554Y-110307818D01*
X120126914Y-110311656D01*
X120126913Y-110311656D01*
X120047176Y-110347074D01*
X120033247Y-110353261D01*
X120025028Y-110361494D01*
X120025027Y-110361495D01*
X120013651Y-110372891D01*
X119954159Y-110432487D01*
X119908894Y-110534873D01*
X119905900Y-110560554D01*
X119905900Y-112349846D01*
X119909018Y-112376046D01*
X119912271Y-112383369D01*
X119911051Y-112453592D01*
X119871636Y-112512643D01*
X119806553Y-112541010D01*
X119790790Y-112542000D01*
X109474326Y-112542000D01*
X109406205Y-112521998D01*
X109385231Y-112505095D01*
X109236905Y-112356769D01*
X109202879Y-112294457D01*
X109200000Y-112267674D01*
X109200000Y-109220000D01*
X110392318Y-109220000D01*
X110412956Y-109376762D01*
X110473464Y-109522841D01*
X110569718Y-109648282D01*
X110695159Y-109744536D01*
X110841238Y-109805044D01*
X110998000Y-109825682D01*
X111006188Y-109824604D01*
X111146574Y-109806122D01*
X111154762Y-109805044D01*
X111300841Y-109744536D01*
X111426282Y-109648282D01*
X111522536Y-109522841D01*
X111583044Y-109376762D01*
X111603682Y-109220000D01*
X111583044Y-109063238D01*
X111522536Y-108917159D01*
X111426282Y-108791718D01*
X111300841Y-108695464D01*
X111154762Y-108634956D01*
X110998000Y-108614318D01*
X110841238Y-108634956D01*
X110695159Y-108695464D01*
X110569718Y-108791718D01*
X110473464Y-108917159D01*
X110412956Y-109063238D01*
X110392318Y-109220000D01*
X109200000Y-109220000D01*
X109200000Y-106426000D01*
X118520318Y-106426000D01*
X118540956Y-106582762D01*
X118601464Y-106728841D01*
X118697718Y-106854282D01*
X118823159Y-106950536D01*
X118969238Y-107011044D01*
X119126000Y-107031682D01*
X119134188Y-107030604D01*
X119274576Y-107012122D01*
X119274578Y-107012121D01*
X119282762Y-107011044D01*
X119288651Y-107008605D01*
X119358757Y-107010275D01*
X119420351Y-107053587D01*
X119457294Y-107101732D01*
X119457298Y-107101736D01*
X119462321Y-107108282D01*
X119587762Y-107204536D01*
X119733841Y-107265044D01*
X119890603Y-107285682D01*
X119898791Y-107284604D01*
X120039177Y-107266122D01*
X120047365Y-107265044D01*
X120193444Y-107204536D01*
X120318885Y-107108282D01*
X120415139Y-106982841D01*
X120475647Y-106836762D01*
X120496285Y-106680000D01*
X120479071Y-106549247D01*
X120476725Y-106531426D01*
X120475647Y-106523238D01*
X120415139Y-106377159D01*
X120318885Y-106251718D01*
X120320897Y-106250175D01*
X120292979Y-106199049D01*
X120290100Y-106172266D01*
X120290100Y-104624921D01*
X120300412Y-104589800D01*
X124235318Y-104589800D01*
X124255956Y-104746562D01*
X124316464Y-104892641D01*
X124412718Y-105018082D01*
X124419264Y-105023105D01*
X124445536Y-105043264D01*
X124538159Y-105114336D01*
X124684238Y-105174844D01*
X124841000Y-105195482D01*
X124849188Y-105194404D01*
X124989574Y-105175922D01*
X124997762Y-105174844D01*
X125143841Y-105114336D01*
X125150390Y-105109311D01*
X125150393Y-105109309D01*
X125170871Y-105093595D01*
X125237091Y-105067994D01*
X125306640Y-105082258D01*
X125324280Y-105093595D01*
X125420603Y-105167506D01*
X125420606Y-105167508D01*
X125427159Y-105172536D01*
X125573238Y-105233044D01*
X125581426Y-105234122D01*
X125651619Y-105243363D01*
X125730000Y-105253682D01*
X125738188Y-105252604D01*
X125878574Y-105234122D01*
X125886762Y-105233044D01*
X126032841Y-105172536D01*
X126158282Y-105076282D01*
X126174005Y-105055792D01*
X126226014Y-104988012D01*
X127893773Y-104988012D01*
X127896215Y-105002431D01*
X127908957Y-105006000D01*
X128863885Y-105006000D01*
X128879124Y-105001525D01*
X128880329Y-105000135D01*
X128882000Y-104992452D01*
X128882000Y-104032952D01*
X128878194Y-104019990D01*
X128863279Y-104018054D01*
X128738780Y-104039447D01*
X128727660Y-104042427D01*
X128540207Y-104111582D01*
X128529829Y-104116532D01*
X128358119Y-104218688D01*
X128348807Y-104225453D01*
X128198587Y-104357194D01*
X128190670Y-104365537D01*
X128066975Y-104522443D01*
X128060704Y-104532100D01*
X127967679Y-104708912D01*
X127963273Y-104719549D01*
X127904025Y-104910356D01*
X127901632Y-104921614D01*
X127893773Y-104988012D01*
X126226014Y-104988012D01*
X126254536Y-104950841D01*
X126315044Y-104804762D01*
X126335682Y-104648000D01*
X126339235Y-104648468D01*
X126354606Y-104596120D01*
X126371509Y-104575146D01*
X127060655Y-103886000D01*
X136046318Y-103886000D01*
X136066956Y-104042762D01*
X136127464Y-104188841D01*
X136223718Y-104314282D01*
X136349159Y-104410536D01*
X136495238Y-104471044D01*
X136503426Y-104472122D01*
X136652000Y-104491682D01*
X136651532Y-104495235D01*
X136703880Y-104510606D01*
X136724854Y-104527509D01*
X137174706Y-104977361D01*
X137183540Y-104981862D01*
X137183541Y-104981863D01*
X137194417Y-104987405D01*
X137211274Y-104997735D01*
X137221149Y-105004909D01*
X137229175Y-105010740D01*
X137250219Y-105017578D01*
X137268478Y-105025142D01*
X137279355Y-105030684D01*
X137279362Y-105030686D01*
X137288195Y-105035187D01*
X137297986Y-105036738D01*
X137297987Y-105036738D01*
X137310048Y-105038648D01*
X137329274Y-105043264D01*
X137340879Y-105047035D01*
X137340881Y-105047035D01*
X137350313Y-105050100D01*
X142783942Y-105050100D01*
X142852063Y-105070102D01*
X142899091Y-105124949D01*
X142916061Y-105163153D01*
X142924294Y-105171372D01*
X142924295Y-105171373D01*
X142948446Y-105195482D01*
X142995287Y-105242241D01*
X143005924Y-105246944D01*
X143005926Y-105246945D01*
X143065462Y-105273265D01*
X143097673Y-105287506D01*
X143123354Y-105290500D01*
X144912646Y-105290500D01*
X144916350Y-105290059D01*
X144916353Y-105290059D01*
X144923746Y-105289179D01*
X144938846Y-105287382D01*
X145027236Y-105248121D01*
X145030518Y-105246663D01*
X145041153Y-105241939D01*
X145120241Y-105162713D01*
X145165506Y-105060327D01*
X145168500Y-105034646D01*
X145168500Y-103245354D01*
X145165382Y-103219154D01*
X145119939Y-103116847D01*
X145040713Y-103037759D01*
X145030076Y-103033056D01*
X145030074Y-103033055D01*
X144970538Y-103006735D01*
X144938327Y-102992494D01*
X144912646Y-102989500D01*
X143123354Y-102989500D01*
X143119650Y-102989941D01*
X143119647Y-102989941D01*
X143112254Y-102990821D01*
X143097154Y-102992618D01*
X142994847Y-103038061D01*
X142915759Y-103117287D01*
X142870494Y-103219673D01*
X142867500Y-103245354D01*
X142867500Y-104119900D01*
X142847498Y-104188021D01*
X142793842Y-104234514D01*
X142741500Y-104245900D01*
X137632745Y-104245900D01*
X137564624Y-104225898D01*
X137543650Y-104208995D01*
X137293509Y-103958854D01*
X137259483Y-103896542D01*
X137258340Y-103885913D01*
X137257682Y-103886000D01*
X137238122Y-103737426D01*
X137237044Y-103729238D01*
X137176536Y-103583159D01*
X137080282Y-103457718D01*
X136954841Y-103361464D01*
X136808762Y-103300956D01*
X136652000Y-103280318D01*
X136495238Y-103300956D01*
X136349159Y-103361464D01*
X136223718Y-103457718D01*
X136127464Y-103583159D01*
X136066956Y-103729238D01*
X136046318Y-103886000D01*
X127060655Y-103886000D01*
X128595439Y-102351216D01*
X128657751Y-102317190D01*
X128684534Y-102314311D01*
X142499476Y-102314311D01*
X142508908Y-102311246D01*
X142508910Y-102311246D01*
X142520515Y-102307475D01*
X142539741Y-102302859D01*
X142551802Y-102300949D01*
X142551803Y-102300949D01*
X142561594Y-102299398D01*
X142570427Y-102294897D01*
X142570434Y-102294895D01*
X142581311Y-102289353D01*
X142599570Y-102281789D01*
X142620614Y-102274951D01*
X142628640Y-102269120D01*
X142638515Y-102261946D01*
X142655372Y-102251616D01*
X142666248Y-102246074D01*
X142666249Y-102246073D01*
X142675083Y-102241572D01*
X143399250Y-101517405D01*
X143461562Y-101483379D01*
X143488345Y-101480500D01*
X144912646Y-101480500D01*
X144916350Y-101480059D01*
X144916353Y-101480059D01*
X144923746Y-101479179D01*
X144938846Y-101477382D01*
X145041153Y-101431939D01*
X145120241Y-101352713D01*
X145127678Y-101335893D01*
X145161675Y-101258992D01*
X145165506Y-101250327D01*
X145168500Y-101224646D01*
X145168500Y-99435354D01*
X145165382Y-99409154D01*
X145119939Y-99306847D01*
X145040713Y-99227759D01*
X145030076Y-99223056D01*
X145030074Y-99223055D01*
X144970538Y-99196735D01*
X144938327Y-99182494D01*
X144912646Y-99179500D01*
X143123354Y-99179500D01*
X143119650Y-99179941D01*
X143119647Y-99179941D01*
X143112254Y-99180821D01*
X143097154Y-99182618D01*
X142994847Y-99228061D01*
X142915759Y-99307287D01*
X142870494Y-99409673D01*
X142867500Y-99435354D01*
X142867500Y-100859655D01*
X142847498Y-100927776D01*
X142830595Y-100948750D01*
X142306139Y-101473206D01*
X142243827Y-101507232D01*
X142217044Y-101510111D01*
X141889362Y-101510111D01*
X141821241Y-101490109D01*
X141774748Y-101436453D01*
X141764644Y-101366179D01*
X141772953Y-101335893D01*
X141805884Y-101256391D01*
X141809044Y-101248762D01*
X141829682Y-101092000D01*
X141812148Y-100958813D01*
X141810122Y-100943426D01*
X141809044Y-100935238D01*
X141748536Y-100789159D01*
X141652282Y-100663718D01*
X141644170Y-100657493D01*
X141604457Y-100627021D01*
X141526841Y-100567464D01*
X141380762Y-100506956D01*
X141224000Y-100486318D01*
X141067238Y-100506956D01*
X140921159Y-100567464D01*
X140843543Y-100627021D01*
X140803831Y-100657493D01*
X140795718Y-100663718D01*
X140699464Y-100789159D01*
X140638956Y-100935238D01*
X140637878Y-100943426D01*
X140635852Y-100958813D01*
X140618318Y-101092000D01*
X140638956Y-101248762D01*
X140642116Y-101256391D01*
X140675047Y-101335893D01*
X140682636Y-101406483D01*
X140650857Y-101469970D01*
X140589799Y-101506197D01*
X140558638Y-101510111D01*
X134585752Y-101510111D01*
X134517631Y-101490109D01*
X134471138Y-101436453D01*
X134460830Y-101367666D01*
X134462604Y-101354190D01*
X134462604Y-101354188D01*
X134463682Y-101346000D01*
X134443044Y-101189238D01*
X134382536Y-101043159D01*
X134286282Y-100917718D01*
X134160841Y-100821464D01*
X134014762Y-100760956D01*
X133858000Y-100740318D01*
X133701238Y-100760956D01*
X133555159Y-100821464D01*
X133429718Y-100917718D01*
X133427536Y-100914874D01*
X133379652Y-100941021D01*
X133352869Y-100943900D01*
X127952313Y-100943900D01*
X127942881Y-100946965D01*
X127942879Y-100946965D01*
X127931274Y-100950736D01*
X127912048Y-100955352D01*
X127899987Y-100957262D01*
X127899986Y-100957262D01*
X127890195Y-100958813D01*
X127881362Y-100963314D01*
X127881355Y-100963316D01*
X127870478Y-100968858D01*
X127852219Y-100976422D01*
X127831175Y-100983260D01*
X127823150Y-100989090D01*
X127823149Y-100989091D01*
X127813274Y-100996265D01*
X127796417Y-101006595D01*
X127785541Y-101012137D01*
X127785540Y-101012138D01*
X127776706Y-101016639D01*
X124834654Y-103958691D01*
X124772342Y-103992717D01*
X124762011Y-103994517D01*
X124684238Y-104004756D01*
X124538159Y-104065264D01*
X124412718Y-104161518D01*
X124316464Y-104286959D01*
X124255956Y-104433038D01*
X124235318Y-104589800D01*
X120300412Y-104589800D01*
X120310102Y-104556800D01*
X120327005Y-104535826D01*
X121166738Y-103696093D01*
X121229050Y-103662067D01*
X121255833Y-103659188D01*
X123374599Y-103659188D01*
X123384031Y-103656123D01*
X123384033Y-103656123D01*
X123395638Y-103652352D01*
X123414864Y-103647736D01*
X123426925Y-103645826D01*
X123426926Y-103645826D01*
X123436717Y-103644275D01*
X123445550Y-103639774D01*
X123445557Y-103639772D01*
X123456434Y-103634230D01*
X123474693Y-103626666D01*
X123495737Y-103619828D01*
X123503763Y-103613997D01*
X123513638Y-103606823D01*
X123530495Y-103596493D01*
X123541371Y-103590951D01*
X123541372Y-103590950D01*
X123550206Y-103586449D01*
X126059361Y-101077294D01*
X126063863Y-101068459D01*
X126069405Y-101057583D01*
X126079735Y-101040726D01*
X126086909Y-101030851D01*
X126086910Y-101030850D01*
X126092740Y-101022825D01*
X126099578Y-101001781D01*
X126107142Y-100983522D01*
X126112684Y-100972645D01*
X126112686Y-100972638D01*
X126117187Y-100963805D01*
X126118772Y-100953801D01*
X126120648Y-100941952D01*
X126125264Y-100922726D01*
X126129035Y-100911121D01*
X126129035Y-100911119D01*
X126132100Y-100901687D01*
X126132100Y-100076000D01*
X138840318Y-100076000D01*
X138841396Y-100084188D01*
X138858057Y-100210738D01*
X138860956Y-100232762D01*
X138921464Y-100378841D01*
X139017718Y-100504282D01*
X139143159Y-100600536D01*
X139289238Y-100661044D01*
X139446000Y-100681682D01*
X139454188Y-100680604D01*
X139467656Y-100678831D01*
X139602762Y-100661044D01*
X139748841Y-100600536D01*
X139874282Y-100504282D01*
X139970536Y-100378841D01*
X140031044Y-100232762D01*
X140033944Y-100210738D01*
X140050604Y-100084188D01*
X140051682Y-100076000D01*
X140031044Y-99919238D01*
X139970536Y-99773159D01*
X139874282Y-99647718D01*
X139748841Y-99551464D01*
X139602762Y-99490956D01*
X139446000Y-99470318D01*
X139289238Y-99490956D01*
X139143159Y-99551464D01*
X139017718Y-99647718D01*
X138921464Y-99773159D01*
X138860956Y-99919238D01*
X138840318Y-100076000D01*
X126132100Y-100076000D01*
X126132100Y-97028000D01*
X128680318Y-97028000D01*
X128700956Y-97184762D01*
X128761464Y-97330841D01*
X128857718Y-97456282D01*
X128983159Y-97552536D01*
X129129238Y-97613044D01*
X129286000Y-97633682D01*
X129294188Y-97632604D01*
X129434574Y-97614122D01*
X129442762Y-97613044D01*
X129588841Y-97552536D01*
X129610391Y-97536000D01*
X130204318Y-97536000D01*
X130224956Y-97692762D01*
X130285464Y-97838841D01*
X130381718Y-97964282D01*
X130507159Y-98060536D01*
X130653238Y-98121044D01*
X130810000Y-98141682D01*
X130818188Y-98140604D01*
X130958574Y-98122122D01*
X130966762Y-98121044D01*
X131112841Y-98060536D01*
X131238282Y-97964282D01*
X131239760Y-97966208D01*
X131291217Y-97938110D01*
X131362032Y-97943175D01*
X131396779Y-97965506D01*
X131397718Y-97964282D01*
X131523159Y-98060536D01*
X131669238Y-98121044D01*
X131826000Y-98141682D01*
X131834188Y-98140604D01*
X131974574Y-98122122D01*
X131982762Y-98121044D01*
X132128841Y-98060536D01*
X132254282Y-97964282D01*
X132350536Y-97838841D01*
X132411044Y-97692762D01*
X132431682Y-97536000D01*
X132411044Y-97379238D01*
X132350536Y-97233159D01*
X132254282Y-97107718D01*
X132128841Y-97011464D01*
X131982762Y-96950956D01*
X131826000Y-96930318D01*
X131669238Y-96950956D01*
X131523159Y-97011464D01*
X131397718Y-97107718D01*
X131396240Y-97105792D01*
X131344783Y-97133890D01*
X131273968Y-97128825D01*
X131239221Y-97106494D01*
X131238282Y-97107718D01*
X131198042Y-97076841D01*
X131112841Y-97011464D01*
X130966762Y-96950956D01*
X130810000Y-96930318D01*
X130653238Y-96950956D01*
X130507159Y-97011464D01*
X130381718Y-97107718D01*
X130285464Y-97233159D01*
X130224956Y-97379238D01*
X130204318Y-97536000D01*
X129610391Y-97536000D01*
X129714282Y-97456282D01*
X129810536Y-97330841D01*
X129871044Y-97184762D01*
X129891682Y-97028000D01*
X129871044Y-96871238D01*
X129810536Y-96725159D01*
X129714282Y-96599718D01*
X129588841Y-96503464D01*
X129442762Y-96442956D01*
X129415395Y-96439353D01*
X129294188Y-96423396D01*
X129286000Y-96422318D01*
X129277812Y-96423396D01*
X129156606Y-96439353D01*
X129129238Y-96442956D01*
X128983159Y-96503464D01*
X128857718Y-96599718D01*
X128761464Y-96725159D01*
X128700956Y-96871238D01*
X128680318Y-97028000D01*
X126132100Y-97028000D01*
X126132100Y-96266000D01*
X141888318Y-96266000D01*
X141908956Y-96422762D01*
X141969464Y-96568841D01*
X142065718Y-96694282D01*
X142191159Y-96790536D01*
X142337238Y-96851044D01*
X142494000Y-96871682D01*
X142502188Y-96870604D01*
X142642574Y-96852122D01*
X142650762Y-96851044D01*
X142796841Y-96790536D01*
X142922282Y-96694282D01*
X143018536Y-96568841D01*
X143079044Y-96422762D01*
X143099682Y-96266000D01*
X143079044Y-96109238D01*
X143018536Y-95963159D01*
X142922282Y-95837718D01*
X142796841Y-95741464D01*
X142650762Y-95680956D01*
X142494000Y-95660318D01*
X142337238Y-95680956D01*
X142191159Y-95741464D01*
X142065718Y-95837718D01*
X141969464Y-95963159D01*
X141908956Y-96109238D01*
X141888318Y-96266000D01*
X126132100Y-96266000D01*
X126132100Y-96265734D01*
X126152102Y-96197613D01*
X126161100Y-96186447D01*
X126160885Y-96186282D01*
X126173842Y-96169396D01*
X126257139Y-96060841D01*
X126317647Y-95914762D01*
X126338285Y-95758000D01*
X126317647Y-95601238D01*
X126257139Y-95455159D01*
X126160885Y-95329718D01*
X126035444Y-95233464D01*
X125889365Y-95172956D01*
X125732603Y-95152318D01*
X125575841Y-95172956D01*
X125429762Y-95233464D01*
X125423207Y-95238494D01*
X125416060Y-95242620D01*
X125414735Y-95240325D01*
X125360776Y-95261181D01*
X125291229Y-95246911D01*
X125284546Y-95242616D01*
X125284543Y-95242620D01*
X125277395Y-95238493D01*
X125270841Y-95233464D01*
X125124762Y-95172956D01*
X124968000Y-95152318D01*
X124811238Y-95172956D01*
X124665159Y-95233464D01*
X124539718Y-95329718D01*
X124443464Y-95455159D01*
X124382956Y-95601238D01*
X124362318Y-95758000D01*
X124382956Y-95914762D01*
X124443464Y-96060841D01*
X124448491Y-96067392D01*
X124448494Y-96067397D01*
X124519196Y-96159538D01*
X124544797Y-96225758D01*
X124545234Y-96236242D01*
X124545234Y-100627021D01*
X124544338Y-100627021D01*
X124536348Y-100688855D01*
X124510093Y-100727252D01*
X122806350Y-102430995D01*
X122744038Y-102465021D01*
X122717255Y-102467900D01*
X120332313Y-102467900D01*
X120322881Y-102470965D01*
X120322879Y-102470965D01*
X120311274Y-102474736D01*
X120292048Y-102479352D01*
X120279987Y-102481262D01*
X120279986Y-102481262D01*
X120270195Y-102482813D01*
X120261362Y-102487314D01*
X120261355Y-102487316D01*
X120250478Y-102492858D01*
X120232219Y-102500422D01*
X120211175Y-102507260D01*
X120203150Y-102513090D01*
X120203149Y-102513091D01*
X120193274Y-102520265D01*
X120176417Y-102530595D01*
X120165541Y-102536137D01*
X120165540Y-102536138D01*
X120156706Y-102540639D01*
X118796639Y-103900706D01*
X118792138Y-103909540D01*
X118792137Y-103909541D01*
X118786595Y-103920417D01*
X118776265Y-103937274D01*
X118769091Y-103947149D01*
X118763260Y-103955175D01*
X118760196Y-103964605D01*
X118756424Y-103976215D01*
X118748858Y-103994478D01*
X118743316Y-104005355D01*
X118743314Y-104005362D01*
X118738813Y-104014195D01*
X118737262Y-104023986D01*
X118737262Y-104023987D01*
X118735352Y-104036048D01*
X118730736Y-104055274D01*
X118723900Y-104076313D01*
X118723900Y-105920869D01*
X118703898Y-105988990D01*
X118697190Y-105997313D01*
X118697718Y-105997718D01*
X118601464Y-106123159D01*
X118540956Y-106269238D01*
X118520318Y-106426000D01*
X109200000Y-106426000D01*
X109200000Y-91546000D01*
X109220002Y-91477879D01*
X109273658Y-91431386D01*
X109326000Y-91420000D01*
X109842772Y-91420000D01*
X109910893Y-91440002D01*
X109919474Y-91446036D01*
X109926604Y-91451507D01*
X109926608Y-91451509D01*
X109933159Y-91456536D01*
X110079238Y-91517044D01*
X110087426Y-91518122D01*
X110146491Y-91525898D01*
X110236000Y-91537682D01*
X110244188Y-91536604D01*
X110384574Y-91518122D01*
X110392762Y-91517044D01*
X110538841Y-91456536D01*
X110664282Y-91360282D01*
X110760536Y-91234841D01*
X110761852Y-91231664D01*
X110811619Y-91184210D01*
X110881332Y-91170772D01*
X110947244Y-91197158D01*
X110958452Y-91207107D01*
X111207175Y-91455830D01*
X111241201Y-91518142D01*
X111244080Y-91544925D01*
X111244080Y-96057040D01*
X111224078Y-96125161D01*
X111170422Y-96171654D01*
X111101635Y-96181962D01*
X110998000Y-96168318D01*
X110841238Y-96188956D01*
X110695159Y-96249464D01*
X110569718Y-96345718D01*
X110473464Y-96471159D01*
X110412956Y-96617238D01*
X110392318Y-96774000D01*
X110412956Y-96930762D01*
X110473464Y-97076841D01*
X110569718Y-97202282D01*
X110695159Y-97298536D01*
X110841238Y-97359044D01*
X110998000Y-97379682D01*
X111101635Y-97366038D01*
X111171782Y-97376977D01*
X111224881Y-97424105D01*
X111244080Y-97490960D01*
X111244080Y-98768043D01*
X111247145Y-98777475D01*
X111247145Y-98777477D01*
X111250916Y-98789082D01*
X111255532Y-98808308D01*
X111258993Y-98830161D01*
X111263494Y-98838994D01*
X111263496Y-98839001D01*
X111269038Y-98849878D01*
X111276602Y-98868137D01*
X111283440Y-98889181D01*
X111289270Y-98897206D01*
X111289271Y-98897207D01*
X111296445Y-98907082D01*
X111306775Y-98923939D01*
X111312317Y-98934815D01*
X111316819Y-98943650D01*
X112524530Y-100151361D01*
X112533364Y-100155862D01*
X112533365Y-100155863D01*
X112544241Y-100161405D01*
X112561098Y-100171735D01*
X112570973Y-100178909D01*
X112578999Y-100184740D01*
X112600043Y-100191578D01*
X112618302Y-100199142D01*
X112629179Y-100204684D01*
X112629186Y-100204686D01*
X112638019Y-100209187D01*
X112647810Y-100210738D01*
X112647811Y-100210738D01*
X112659872Y-100212648D01*
X112679098Y-100217264D01*
X112690703Y-100221035D01*
X112690705Y-100221035D01*
X112700137Y-100224100D01*
X115807597Y-100224100D01*
X115875718Y-100244102D01*
X115922211Y-100297758D01*
X115932519Y-100333655D01*
X115935956Y-100359762D01*
X115996464Y-100505841D01*
X116092718Y-100631282D01*
X116218159Y-100727536D01*
X116364238Y-100788044D01*
X116521000Y-100808682D01*
X116529188Y-100807604D01*
X116669574Y-100789122D01*
X116677762Y-100788044D01*
X116823841Y-100727536D01*
X116949282Y-100631282D01*
X117045536Y-100505841D01*
X117106044Y-100359762D01*
X117126682Y-100203000D01*
X117106044Y-100046238D01*
X117099525Y-100030500D01*
X117091935Y-99959910D01*
X117123713Y-99896423D01*
X117184771Y-99860194D01*
X117215933Y-99856280D01*
X117251934Y-99856280D01*
X117300151Y-99865871D01*
X117380238Y-99899044D01*
X117537000Y-99919682D01*
X117545188Y-99918604D01*
X117685574Y-99900122D01*
X117693762Y-99899044D01*
X117839841Y-99838536D01*
X117965282Y-99742282D01*
X118061536Y-99616841D01*
X118122044Y-99470762D01*
X118142682Y-99314000D01*
X118122044Y-99157238D01*
X118061536Y-99011159D01*
X117965282Y-98885718D01*
X117839841Y-98789464D01*
X117693762Y-98728956D01*
X117537000Y-98708318D01*
X117380238Y-98728956D01*
X117234159Y-98789464D01*
X117108718Y-98885718D01*
X117103695Y-98892264D01*
X117103691Y-98892268D01*
X117018889Y-99002784D01*
X116961551Y-99044651D01*
X116918927Y-99052080D01*
X113134925Y-99052080D01*
X113066804Y-99032078D01*
X113045830Y-99015175D01*
X112453005Y-98422350D01*
X112418979Y-98360038D01*
X112416100Y-98333255D01*
X112416100Y-97917000D01*
X121503318Y-97917000D01*
X121523956Y-98073762D01*
X121584464Y-98219841D01*
X121680718Y-98345282D01*
X121806159Y-98441536D01*
X121952238Y-98502044D01*
X122109000Y-98522682D01*
X122117188Y-98521604D01*
X122257574Y-98503122D01*
X122265762Y-98502044D01*
X122411841Y-98441536D01*
X122537282Y-98345282D01*
X122633536Y-98219841D01*
X122694044Y-98073762D01*
X122714682Y-97917000D01*
X122694044Y-97760238D01*
X122633536Y-97614159D01*
X122537282Y-97488718D01*
X122411841Y-97392464D01*
X122265762Y-97331956D01*
X122109000Y-97311318D01*
X121952238Y-97331956D01*
X121806159Y-97392464D01*
X121680718Y-97488718D01*
X121584464Y-97614159D01*
X121523956Y-97760238D01*
X121503318Y-97917000D01*
X112416100Y-97917000D01*
X112416100Y-96578365D01*
X112436102Y-96510244D01*
X112442929Y-96504328D01*
X112638228Y-96504328D01*
X112662996Y-96542867D01*
X112667022Y-96561919D01*
X112679592Y-96657398D01*
X112740100Y-96803477D01*
X112836354Y-96928918D01*
X112961795Y-97025172D01*
X113107874Y-97085680D01*
X113264636Y-97106318D01*
X113272824Y-97105240D01*
X113292156Y-97102695D01*
X113421398Y-97085680D01*
X113567477Y-97025172D01*
X113574032Y-97020142D01*
X113579490Y-97016991D01*
X113648485Y-97000253D01*
X113719194Y-97026147D01*
X113732280Y-97036188D01*
X113743159Y-97044536D01*
X113889238Y-97105044D01*
X114046000Y-97125682D01*
X114054188Y-97124604D01*
X114194574Y-97106122D01*
X114202762Y-97105044D01*
X114348841Y-97044536D01*
X114446561Y-96969553D01*
X114512782Y-96943953D01*
X114582330Y-96958218D01*
X114623225Y-96992809D01*
X114628691Y-96999932D01*
X114628695Y-96999936D01*
X114633718Y-97006482D01*
X114759159Y-97102736D01*
X114905238Y-97163244D01*
X115062000Y-97183882D01*
X115070188Y-97182804D01*
X115210574Y-97164322D01*
X115218762Y-97163244D01*
X115364841Y-97102736D01*
X115490282Y-97006482D01*
X115586536Y-96881041D01*
X115604219Y-96838349D01*
X115631533Y-96797474D01*
X118264002Y-94165005D01*
X118326314Y-94130979D01*
X118353097Y-94128100D01*
X120523573Y-94128100D01*
X120591694Y-94148102D01*
X120638187Y-94201758D01*
X120648291Y-94272032D01*
X120618797Y-94336612D01*
X120612668Y-94343195D01*
X119566986Y-95388878D01*
X119504674Y-95422903D01*
X119494335Y-95424705D01*
X119485429Y-95425877D01*
X119485424Y-95425878D01*
X119477238Y-95426956D01*
X119331159Y-95487464D01*
X119205718Y-95583718D01*
X119109464Y-95709159D01*
X119048956Y-95855238D01*
X119028318Y-96012000D01*
X119048956Y-96168762D01*
X119109464Y-96314841D01*
X119205718Y-96440282D01*
X119331159Y-96536536D01*
X119477238Y-96597044D01*
X119634000Y-96617682D01*
X119642188Y-96616604D01*
X119782574Y-96598122D01*
X119790762Y-96597044D01*
X119936841Y-96536536D01*
X120062282Y-96440282D01*
X120158536Y-96314841D01*
X120219044Y-96168762D01*
X120220122Y-96160574D01*
X120220123Y-96160571D01*
X120221295Y-96151665D01*
X120250016Y-96086737D01*
X120257122Y-96079014D01*
X121577232Y-94758905D01*
X121639544Y-94724879D01*
X121666327Y-94722000D01*
X140393226Y-94722000D01*
X140404714Y-94723283D01*
X140404759Y-94722729D01*
X140413704Y-94723449D01*
X140422461Y-94725430D01*
X140473846Y-94722242D01*
X140481647Y-94722000D01*
X140497039Y-94722000D01*
X140506781Y-94720605D01*
X140516835Y-94719575D01*
X140553020Y-94717330D01*
X140553022Y-94717330D01*
X140561978Y-94716774D01*
X140570418Y-94713727D01*
X140575383Y-94712699D01*
X140586612Y-94709899D01*
X140591485Y-94708474D01*
X140600374Y-94707201D01*
X140641563Y-94688473D01*
X140650914Y-94684667D01*
X140685011Y-94672358D01*
X140693457Y-94669309D01*
X140700704Y-94664015D01*
X140705195Y-94661627D01*
X140715172Y-94655797D01*
X140719454Y-94653059D01*
X140727624Y-94649344D01*
X140761899Y-94619811D01*
X140769810Y-94613530D01*
X140780189Y-94605947D01*
X140790582Y-94595554D01*
X140797429Y-94589196D01*
X140826722Y-94563956D01*
X140826724Y-94563954D01*
X140833520Y-94558098D01*
X140838400Y-94550569D01*
X140844305Y-94543800D01*
X140844347Y-94543837D01*
X140853026Y-94533110D01*
X142815014Y-92571122D01*
X142877326Y-92537096D01*
X142887665Y-92535295D01*
X142896571Y-92534123D01*
X142896576Y-92534122D01*
X142904762Y-92533044D01*
X143050841Y-92472536D01*
X143176282Y-92376282D01*
X143272536Y-92250841D01*
X143333044Y-92104762D01*
X143353682Y-91948000D01*
X143333044Y-91791238D01*
X143272536Y-91645159D01*
X143189239Y-91536604D01*
X143181305Y-91526264D01*
X143176282Y-91519718D01*
X143162308Y-91508995D01*
X143121756Y-91477879D01*
X143050841Y-91423464D01*
X142904762Y-91362956D01*
X142887665Y-91360705D01*
X142822738Y-91331983D01*
X142815016Y-91324879D01*
X142674347Y-91184210D01*
X142510905Y-91020769D01*
X142476880Y-90958456D01*
X142474000Y-90931673D01*
X142474000Y-83947783D01*
X142494002Y-83879662D01*
X142536459Y-83839179D01*
X142542841Y-83836536D01*
X142668282Y-83740282D01*
X142764536Y-83614841D01*
X142825044Y-83468762D01*
X142845682Y-83312000D01*
X142825044Y-83155238D01*
X142764536Y-83009159D01*
X142668282Y-82883718D01*
X142661736Y-82878695D01*
X142661733Y-82878692D01*
X142650946Y-82870415D01*
X142609078Y-82813077D01*
X142604856Y-82742206D01*
X142638554Y-82681357D01*
X143641357Y-81678554D01*
X143703669Y-81644528D01*
X143774484Y-81649593D01*
X143830415Y-81690946D01*
X143838692Y-81701733D01*
X143838695Y-81701736D01*
X143843718Y-81708282D01*
X143969159Y-81804536D01*
X144115238Y-81865044D01*
X144272000Y-81885682D01*
X144280188Y-81884604D01*
X144420574Y-81866122D01*
X144428762Y-81865044D01*
X144574841Y-81804536D01*
X144700282Y-81708282D01*
X144796536Y-81582841D01*
X144857044Y-81436762D01*
X144872696Y-81317874D01*
X144901418Y-81252946D01*
X144908523Y-81245225D01*
X145382528Y-80771220D01*
X145393419Y-80749844D01*
X145403749Y-80732989D01*
X145412021Y-80721604D01*
X145412021Y-80721603D01*
X145417850Y-80713581D01*
X145425264Y-80690763D01*
X145432827Y-80672502D01*
X145443719Y-80651126D01*
X145445270Y-80641335D01*
X145445272Y-80641328D01*
X145447473Y-80627431D01*
X145452087Y-80608212D01*
X145456436Y-80594827D01*
X145456437Y-80594820D01*
X145459500Y-80585393D01*
X145459500Y-63559607D01*
X145452086Y-63536790D01*
X145447472Y-63517570D01*
X145446718Y-63512812D01*
X145443719Y-63493874D01*
X145432828Y-63472498D01*
X145425264Y-63454237D01*
X145420915Y-63440853D01*
X145420913Y-63440850D01*
X145417849Y-63431419D01*
X145403747Y-63412009D01*
X145393423Y-63395163D01*
X145382528Y-63373780D01*
X144781523Y-62772775D01*
X144747497Y-62710463D01*
X144745696Y-62700126D01*
X144731122Y-62589427D01*
X144731122Y-62589426D01*
X144730044Y-62581238D01*
X144669536Y-62435159D01*
X144573282Y-62309718D01*
X144447841Y-62213464D01*
X144301762Y-62152956D01*
X144145000Y-62132318D01*
X143988238Y-62152956D01*
X143842159Y-62213464D01*
X143716718Y-62309718D01*
X143620464Y-62435159D01*
X143559956Y-62581238D01*
X143539318Y-62738000D01*
X143559956Y-62894762D01*
X143620464Y-63040841D01*
X143716718Y-63166282D01*
X143842159Y-63262536D01*
X143988238Y-63323044D01*
X144035036Y-63329205D01*
X144107126Y-63338696D01*
X144172054Y-63367418D01*
X144179775Y-63374523D01*
X144571595Y-63766343D01*
X144605621Y-63828655D01*
X144608500Y-63855438D01*
X144608500Y-76554651D01*
X144588498Y-76622772D01*
X144534842Y-76669265D01*
X144464568Y-76679369D01*
X144399988Y-76649875D01*
X144394868Y-76644710D01*
X144393452Y-76642465D01*
X144386964Y-76636735D01*
X144386959Y-76636730D01*
X144354850Y-76608373D01*
X144349163Y-76603027D01*
X144338292Y-76592156D01*
X144330421Y-76586257D01*
X144322586Y-76579879D01*
X144295408Y-76555876D01*
X144288678Y-76549932D01*
X144280548Y-76546115D01*
X144276305Y-76543328D01*
X144266391Y-76537370D01*
X144261937Y-76534932D01*
X144254758Y-76529551D01*
X144212390Y-76513668D01*
X144203106Y-76509756D01*
X144162145Y-76490525D01*
X144153280Y-76489145D01*
X144148457Y-76487670D01*
X144137207Y-76484719D01*
X144132275Y-76483634D01*
X144123868Y-76480483D01*
X144078753Y-76477130D01*
X144068718Y-76475978D01*
X144061950Y-76474924D01*
X144060811Y-76474747D01*
X144060810Y-76474747D01*
X144056013Y-76474000D01*
X144041308Y-76474000D01*
X144031971Y-76473654D01*
X144017141Y-76472552D01*
X143984468Y-76470124D01*
X143975692Y-76471997D01*
X143966736Y-76472608D01*
X143966732Y-76472552D01*
X143953012Y-76474000D01*
X132155046Y-76474000D01*
X132086925Y-76453998D01*
X132055083Y-76424703D01*
X132046308Y-76413267D01*
X132046305Y-76413264D01*
X132041282Y-76406718D01*
X132023384Y-76392984D01*
X131922392Y-76315491D01*
X131915841Y-76310464D01*
X131769762Y-76249956D01*
X131613000Y-76229318D01*
X131456238Y-76249956D01*
X131448611Y-76253115D01*
X131448608Y-76253116D01*
X131376834Y-76282846D01*
X131306244Y-76290435D01*
X131242757Y-76258656D01*
X131206530Y-76197597D01*
X131202616Y-76166437D01*
X131202616Y-74930000D01*
X136188718Y-74930000D01*
X136209356Y-75086762D01*
X136269864Y-75232841D01*
X136366118Y-75358282D01*
X136491559Y-75454536D01*
X136637638Y-75515044D01*
X136794400Y-75535682D01*
X136802588Y-75534604D01*
X136942974Y-75516122D01*
X136951162Y-75515044D01*
X137097241Y-75454536D01*
X137103794Y-75449508D01*
X137103797Y-75449506D01*
X137192375Y-75381538D01*
X137258595Y-75355937D01*
X137269079Y-75355500D01*
X138971321Y-75355500D01*
X139039442Y-75375502D01*
X139048025Y-75381538D01*
X139136603Y-75449506D01*
X139136606Y-75449508D01*
X139143159Y-75454536D01*
X139289238Y-75515044D01*
X139446000Y-75535682D01*
X139454188Y-75534604D01*
X139594574Y-75516122D01*
X139602762Y-75515044D01*
X139748841Y-75454536D01*
X139874282Y-75358282D01*
X139970536Y-75232841D01*
X140000294Y-75161000D01*
X141380318Y-75161000D01*
X141400956Y-75317762D01*
X141461464Y-75463841D01*
X141557718Y-75589282D01*
X141683159Y-75685536D01*
X141829238Y-75746044D01*
X141986000Y-75766682D01*
X141994188Y-75765604D01*
X142134574Y-75747122D01*
X142142762Y-75746044D01*
X142288841Y-75685536D01*
X142414282Y-75589282D01*
X142510536Y-75463841D01*
X142571044Y-75317762D01*
X142591682Y-75161000D01*
X142571044Y-75004238D01*
X142510536Y-74858159D01*
X142414282Y-74732718D01*
X142288841Y-74636464D01*
X142142762Y-74575956D01*
X141986000Y-74555318D01*
X141829238Y-74575956D01*
X141683159Y-74636464D01*
X141557718Y-74732718D01*
X141461464Y-74858159D01*
X141400956Y-75004238D01*
X141380318Y-75161000D01*
X140000294Y-75161000D01*
X140031044Y-75086762D01*
X140051682Y-74930000D01*
X140031044Y-74773238D01*
X139970536Y-74627159D01*
X139874282Y-74501718D01*
X139748841Y-74405464D01*
X139602762Y-74344956D01*
X139446000Y-74324318D01*
X139289238Y-74344956D01*
X139143159Y-74405464D01*
X139136608Y-74410491D01*
X139136603Y-74410494D01*
X139048025Y-74478462D01*
X138981805Y-74504063D01*
X138971321Y-74504500D01*
X137269079Y-74504500D01*
X137200958Y-74484498D01*
X137192375Y-74478462D01*
X137103797Y-74410494D01*
X137103792Y-74410491D01*
X137097241Y-74405464D01*
X136951162Y-74344956D01*
X136794400Y-74324318D01*
X136637638Y-74344956D01*
X136491559Y-74405464D01*
X136366118Y-74501718D01*
X136269864Y-74627159D01*
X136209356Y-74773238D01*
X136188718Y-74930000D01*
X131202616Y-74930000D01*
X131202616Y-73413322D01*
X131222618Y-73345201D01*
X131239521Y-73324227D01*
X134378343Y-70185405D01*
X134440655Y-70151379D01*
X134467438Y-70148500D01*
X135415321Y-70148500D01*
X135483442Y-70168502D01*
X135492025Y-70174538D01*
X135580603Y-70242506D01*
X135580606Y-70242508D01*
X135587159Y-70247536D01*
X135733238Y-70308044D01*
X135890000Y-70328682D01*
X135898188Y-70327604D01*
X136038574Y-70309122D01*
X136046762Y-70308044D01*
X136192841Y-70247536D01*
X136318282Y-70151282D01*
X136414536Y-70025841D01*
X136475044Y-69879762D01*
X136495682Y-69723000D01*
X136475044Y-69566238D01*
X136414536Y-69420159D01*
X136318282Y-69294718D01*
X136192841Y-69198464D01*
X136046762Y-69137956D01*
X135890000Y-69117318D01*
X135733238Y-69137956D01*
X135587159Y-69198464D01*
X135580608Y-69203491D01*
X135580603Y-69203494D01*
X135492025Y-69271462D01*
X135425805Y-69297063D01*
X135415321Y-69297500D01*
X134171607Y-69297500D01*
X134148790Y-69304914D01*
X134129571Y-69309528D01*
X134105874Y-69313281D01*
X134097037Y-69317784D01*
X134097036Y-69317784D01*
X134084498Y-69324172D01*
X134066237Y-69331736D01*
X134052853Y-69336085D01*
X134052850Y-69336087D01*
X134043419Y-69339151D01*
X134035396Y-69344980D01*
X134024009Y-69353253D01*
X134007163Y-69363577D01*
X133985780Y-69374472D01*
X133736595Y-69623657D01*
X133674283Y-69657683D01*
X133603468Y-69652618D01*
X133546632Y-69610071D01*
X133521821Y-69543551D01*
X133521500Y-69534562D01*
X133521500Y-66268438D01*
X133541502Y-66200317D01*
X133558405Y-66179343D01*
X134206528Y-65531220D01*
X134217419Y-65509844D01*
X134227749Y-65492989D01*
X134236021Y-65481604D01*
X134236021Y-65481603D01*
X134241850Y-65473581D01*
X134249264Y-65450763D01*
X134256827Y-65432502D01*
X134267719Y-65411126D01*
X134269270Y-65401335D01*
X134269272Y-65401328D01*
X134271473Y-65387431D01*
X134276087Y-65368212D01*
X134280436Y-65354827D01*
X134280437Y-65354820D01*
X134283500Y-65345393D01*
X134283500Y-64185948D01*
X134303502Y-64117827D01*
X134357158Y-64071334D01*
X134427432Y-64061230D01*
X134492012Y-64090724D01*
X134517091Y-64122889D01*
X134518041Y-64122307D01*
X134636222Y-64315162D01*
X134784315Y-64486125D01*
X134788290Y-64489425D01*
X134788294Y-64489429D01*
X134929771Y-64606885D01*
X134958342Y-64630605D01*
X134962794Y-64633207D01*
X134962799Y-64633210D01*
X135148392Y-64741662D01*
X135153629Y-64744722D01*
X135364933Y-64825411D01*
X135369999Y-64826442D01*
X135370000Y-64826442D01*
X135422007Y-64837023D01*
X135586577Y-64870505D01*
X135714291Y-64875188D01*
X135807447Y-64878604D01*
X135807451Y-64878604D01*
X135812611Y-64878793D01*
X135817731Y-64878137D01*
X135817733Y-64878137D01*
X136031835Y-64850710D01*
X136031836Y-64850710D01*
X136036963Y-64850053D01*
X136043553Y-64848076D01*
X136248653Y-64786543D01*
X136248658Y-64786541D01*
X136253608Y-64785056D01*
X136456729Y-64685548D01*
X136460934Y-64682548D01*
X136460940Y-64682545D01*
X136636666Y-64557201D01*
X136636668Y-64557199D01*
X136640870Y-64554202D01*
X136801086Y-64394544D01*
X136933074Y-64210863D01*
X136974667Y-64126708D01*
X137030997Y-64012733D01*
X137030998Y-64012731D01*
X137033291Y-64008091D01*
X137099043Y-63791673D01*
X137108813Y-63717461D01*
X137128129Y-63570745D01*
X137128130Y-63570739D01*
X137128566Y-63567423D01*
X137128648Y-63564070D01*
X137130132Y-63503364D01*
X137130132Y-63503360D01*
X137130214Y-63500000D01*
X137111681Y-63274575D01*
X137056579Y-63055204D01*
X136966387Y-62847779D01*
X136843529Y-62657869D01*
X136838839Y-62652714D01*
X136694782Y-62494397D01*
X136694780Y-62494395D01*
X136691304Y-62490575D01*
X136687253Y-62487376D01*
X136687249Y-62487372D01*
X136517854Y-62353592D01*
X136517850Y-62353590D01*
X136513799Y-62350390D01*
X136315782Y-62241079D01*
X136310913Y-62239355D01*
X136310909Y-62239353D01*
X136107439Y-62167301D01*
X136107437Y-62167300D01*
X136102570Y-62165577D01*
X135991230Y-62145744D01*
X135884978Y-62126817D01*
X135884974Y-62126817D01*
X135879890Y-62125911D01*
X135806351Y-62125013D01*
X135658891Y-62123211D01*
X135658889Y-62123211D01*
X135653721Y-62123148D01*
X135504045Y-62146052D01*
X135435247Y-62156579D01*
X135435244Y-62156580D01*
X135430138Y-62157361D01*
X135399727Y-62167301D01*
X135220055Y-62226027D01*
X135220050Y-62226029D01*
X135215146Y-62227632D01*
X135210572Y-62230013D01*
X135210565Y-62230016D01*
X135044884Y-62316264D01*
X135014517Y-62332072D01*
X134990120Y-62350390D01*
X134867057Y-62442789D01*
X134833640Y-62467879D01*
X134830068Y-62471617D01*
X134732602Y-62573609D01*
X134677372Y-62631403D01*
X134549911Y-62818255D01*
X134547738Y-62822936D01*
X134547733Y-62822945D01*
X134523787Y-62874533D01*
X134476963Y-62927900D01*
X134408720Y-62947480D01*
X134340725Y-62927056D01*
X134294565Y-62873114D01*
X134283500Y-62821482D01*
X134283500Y-61540607D01*
X134276086Y-61517790D01*
X134271472Y-61498570D01*
X134270812Y-61494401D01*
X134267719Y-61474874D01*
X134263216Y-61466036D01*
X134256828Y-61453498D01*
X134249264Y-61435237D01*
X134244915Y-61421853D01*
X134244913Y-61421850D01*
X134241849Y-61412419D01*
X134227747Y-61393009D01*
X134217423Y-61376163D01*
X134206528Y-61354780D01*
X133539824Y-60688076D01*
X133505798Y-60625764D01*
X133510863Y-60554949D01*
X133515961Y-60543155D01*
X133530999Y-60512728D01*
X133533291Y-60508091D01*
X133599043Y-60291673D01*
X133599718Y-60286547D01*
X133628129Y-60070745D01*
X133628130Y-60070739D01*
X133628566Y-60067423D01*
X133629557Y-60026880D01*
X133630132Y-60003364D01*
X133630132Y-60003360D01*
X133630214Y-60000000D01*
X133627442Y-59966278D01*
X134370198Y-59966278D01*
X134370495Y-59971430D01*
X134370495Y-59971434D01*
X134376030Y-60067423D01*
X134383218Y-60192089D01*
X134384355Y-60197135D01*
X134384356Y-60197141D01*
X134404505Y-60286547D01*
X134432944Y-60412740D01*
X134518041Y-60622307D01*
X134636222Y-60815162D01*
X134639606Y-60819068D01*
X134639607Y-60819070D01*
X134674000Y-60858775D01*
X134784315Y-60986125D01*
X134788290Y-60989425D01*
X134788294Y-60989429D01*
X134866314Y-61054202D01*
X134958342Y-61130605D01*
X134962794Y-61133207D01*
X134962799Y-61133210D01*
X135103327Y-61215328D01*
X135153629Y-61244722D01*
X135364933Y-61325411D01*
X135369999Y-61326442D01*
X135370000Y-61326442D01*
X135422007Y-61337023D01*
X135586577Y-61370505D01*
X135714291Y-61375188D01*
X135807447Y-61378604D01*
X135807451Y-61378604D01*
X135812611Y-61378793D01*
X135817731Y-61378137D01*
X135817733Y-61378137D01*
X136031835Y-61350710D01*
X136031836Y-61350710D01*
X136036963Y-61350053D01*
X136045999Y-61347342D01*
X136248653Y-61286543D01*
X136248658Y-61286541D01*
X136253608Y-61285056D01*
X136456729Y-61185548D01*
X136460934Y-61182548D01*
X136460940Y-61182545D01*
X136636666Y-61057201D01*
X136636668Y-61057199D01*
X136640870Y-61054202D01*
X136801086Y-60894544D01*
X136933074Y-60710863D01*
X136974667Y-60626708D01*
X137030997Y-60512733D01*
X137030999Y-60512728D01*
X137033291Y-60508091D01*
X137099043Y-60291673D01*
X137099718Y-60286547D01*
X137128129Y-60070745D01*
X137128130Y-60070739D01*
X137128566Y-60067423D01*
X137129557Y-60026880D01*
X137130132Y-60003364D01*
X137130132Y-60003360D01*
X137130214Y-60000000D01*
X137111681Y-59774575D01*
X137056579Y-59555204D01*
X136966387Y-59347779D01*
X136843529Y-59157869D01*
X136823332Y-59135672D01*
X136694782Y-58994397D01*
X136694780Y-58994395D01*
X136691304Y-58990575D01*
X136687253Y-58987376D01*
X136687249Y-58987372D01*
X136517854Y-58853592D01*
X136517850Y-58853590D01*
X136513799Y-58850390D01*
X136315782Y-58741079D01*
X136310913Y-58739355D01*
X136310909Y-58739353D01*
X136107439Y-58667301D01*
X136107437Y-58667300D01*
X136102570Y-58665577D01*
X135991230Y-58645744D01*
X135884978Y-58626817D01*
X135884974Y-58626817D01*
X135879890Y-58625911D01*
X135806351Y-58625013D01*
X135658891Y-58623211D01*
X135658889Y-58623211D01*
X135653721Y-58623148D01*
X135504045Y-58646052D01*
X135435247Y-58656579D01*
X135435244Y-58656580D01*
X135430138Y-58657361D01*
X135399727Y-58667301D01*
X135220055Y-58726027D01*
X135220050Y-58726029D01*
X135215146Y-58727632D01*
X135210572Y-58730013D01*
X135210565Y-58730016D01*
X135019104Y-58829684D01*
X135014517Y-58832072D01*
X135010378Y-58835179D01*
X135010379Y-58835179D01*
X134858766Y-58949014D01*
X134833640Y-58967879D01*
X134677372Y-59131403D01*
X134549911Y-59318255D01*
X134547738Y-59322937D01*
X134547736Y-59322940D01*
X134457640Y-59517037D01*
X134454679Y-59523415D01*
X134394233Y-59741374D01*
X134370198Y-59966278D01*
X133627442Y-59966278D01*
X133611681Y-59774575D01*
X133556579Y-59555204D01*
X133466387Y-59347779D01*
X133343529Y-59157869D01*
X133323332Y-59135672D01*
X133194782Y-58994397D01*
X133194780Y-58994395D01*
X133191304Y-58990575D01*
X133187253Y-58987376D01*
X133187249Y-58987372D01*
X133017854Y-58853592D01*
X133017850Y-58853590D01*
X133013799Y-58850390D01*
X132815782Y-58741079D01*
X132810913Y-58739355D01*
X132810909Y-58739353D01*
X132607439Y-58667301D01*
X132607437Y-58667300D01*
X132602570Y-58665577D01*
X132491230Y-58645744D01*
X132384978Y-58626817D01*
X132384974Y-58626817D01*
X132379890Y-58625911D01*
X132306351Y-58625013D01*
X132158891Y-58623211D01*
X132158889Y-58623211D01*
X132153721Y-58623148D01*
X132004045Y-58646052D01*
X131935247Y-58656579D01*
X131935244Y-58656580D01*
X131930138Y-58657361D01*
X131899727Y-58667301D01*
X131720055Y-58726027D01*
X131720050Y-58726029D01*
X131715146Y-58727632D01*
X131710572Y-58730013D01*
X131710565Y-58730016D01*
X131519104Y-58829684D01*
X131514517Y-58832072D01*
X131510378Y-58835179D01*
X131510379Y-58835179D01*
X131358766Y-58949014D01*
X131333640Y-58967879D01*
X131177372Y-59131403D01*
X131049911Y-59318255D01*
X131047738Y-59322937D01*
X131047736Y-59322940D01*
X130957640Y-59517037D01*
X130954679Y-59523415D01*
X130894233Y-59741374D01*
X130870198Y-59966278D01*
X130870495Y-59971430D01*
X130870495Y-59971434D01*
X130876030Y-60067423D01*
X130883218Y-60192089D01*
X130884355Y-60197135D01*
X130884356Y-60197141D01*
X130904505Y-60286547D01*
X130932944Y-60412740D01*
X131018041Y-60622307D01*
X131136222Y-60815162D01*
X131139606Y-60819068D01*
X131139607Y-60819070D01*
X131174000Y-60858775D01*
X131284315Y-60986125D01*
X131288290Y-60989425D01*
X131288294Y-60989429D01*
X131366314Y-61054202D01*
X131458342Y-61130605D01*
X131462794Y-61133207D01*
X131462799Y-61133210D01*
X131603327Y-61215328D01*
X131653629Y-61244722D01*
X131864933Y-61325411D01*
X131869999Y-61326442D01*
X131870000Y-61326442D01*
X131922007Y-61337023D01*
X132086577Y-61370505D01*
X132214291Y-61375188D01*
X132307447Y-61378604D01*
X132307451Y-61378604D01*
X132312611Y-61378793D01*
X132317731Y-61378137D01*
X132317733Y-61378137D01*
X132531835Y-61350710D01*
X132531836Y-61350710D01*
X132536963Y-61350053D01*
X132738336Y-61289638D01*
X132748655Y-61286542D01*
X132753608Y-61285056D01*
X132758254Y-61282780D01*
X132758259Y-61282778D01*
X132793364Y-61265581D01*
X132863339Y-61253575D01*
X132928695Y-61281306D01*
X132937890Y-61289638D01*
X133395595Y-61747343D01*
X133429621Y-61809655D01*
X133432500Y-61836438D01*
X133432500Y-62429956D01*
X133412498Y-62498077D01*
X133358842Y-62544570D01*
X133288568Y-62554674D01*
X133223988Y-62525180D01*
X133213306Y-62514755D01*
X133198130Y-62498077D01*
X133191304Y-62490575D01*
X133187253Y-62487376D01*
X133187249Y-62487372D01*
X133017854Y-62353592D01*
X133017850Y-62353590D01*
X133013799Y-62350390D01*
X132815782Y-62241079D01*
X132810913Y-62239355D01*
X132810909Y-62239353D01*
X132607439Y-62167301D01*
X132607437Y-62167300D01*
X132602570Y-62165577D01*
X132491230Y-62145744D01*
X132384978Y-62126817D01*
X132384974Y-62126817D01*
X132379890Y-62125911D01*
X132306351Y-62125013D01*
X132158891Y-62123211D01*
X132158889Y-62123211D01*
X132153721Y-62123148D01*
X132004045Y-62146052D01*
X131935247Y-62156579D01*
X131935244Y-62156580D01*
X131930138Y-62157361D01*
X131899727Y-62167301D01*
X131720055Y-62226027D01*
X131720050Y-62226029D01*
X131715146Y-62227632D01*
X131710572Y-62230013D01*
X131710565Y-62230016D01*
X131544884Y-62316264D01*
X131514517Y-62332072D01*
X131490120Y-62350390D01*
X131367057Y-62442789D01*
X131333640Y-62467879D01*
X131330068Y-62471617D01*
X131232602Y-62573609D01*
X131177372Y-62631403D01*
X131049911Y-62818255D01*
X131047738Y-62822937D01*
X131047736Y-62822940D01*
X130972123Y-62985836D01*
X130954679Y-63023415D01*
X130894233Y-63241374D01*
X130870198Y-63466278D01*
X130870495Y-63471430D01*
X130870495Y-63471434D01*
X130876030Y-63567423D01*
X130883218Y-63692089D01*
X130884355Y-63697135D01*
X130884356Y-63697141D01*
X130890622Y-63724944D01*
X130932944Y-63912740D01*
X131018041Y-64122307D01*
X131136222Y-64315162D01*
X131284315Y-64486125D01*
X131288290Y-64489425D01*
X131288294Y-64489429D01*
X131429771Y-64606885D01*
X131458342Y-64630605D01*
X131462794Y-64633207D01*
X131462799Y-64633210D01*
X131648392Y-64741662D01*
X131653629Y-64744722D01*
X131864933Y-64825411D01*
X131869999Y-64826442D01*
X131870000Y-64826442D01*
X131922007Y-64837023D01*
X132086577Y-64870505D01*
X132214291Y-64875188D01*
X132307447Y-64878604D01*
X132307451Y-64878604D01*
X132312611Y-64878793D01*
X132317731Y-64878137D01*
X132317733Y-64878137D01*
X132531835Y-64850710D01*
X132531836Y-64850710D01*
X132536963Y-64850053D01*
X132543553Y-64848076D01*
X132748653Y-64786543D01*
X132748658Y-64786541D01*
X132753608Y-64785056D01*
X132956729Y-64685548D01*
X132960934Y-64682548D01*
X132960940Y-64682545D01*
X133136666Y-64557201D01*
X133136668Y-64557199D01*
X133140870Y-64554202D01*
X133217560Y-64477779D01*
X133279932Y-64443863D01*
X133350738Y-64449051D01*
X133407500Y-64491697D01*
X133432194Y-64558260D01*
X133432500Y-64567030D01*
X133432500Y-65049562D01*
X133412498Y-65117683D01*
X133395595Y-65138657D01*
X132747472Y-65786780D01*
X132736577Y-65808163D01*
X132726253Y-65825009D01*
X132712151Y-65844419D01*
X132709087Y-65853850D01*
X132709085Y-65853853D01*
X132704736Y-65867237D01*
X132697172Y-65885498D01*
X132686281Y-65906874D01*
X132684730Y-65916668D01*
X132682528Y-65930570D01*
X132677914Y-65949790D01*
X132670500Y-65972607D01*
X132670500Y-69520677D01*
X132650498Y-69588798D01*
X132596842Y-69635291D01*
X132574152Y-69641809D01*
X132574402Y-69642741D01*
X132566426Y-69644878D01*
X132558238Y-69645956D01*
X132412159Y-69706464D01*
X132286718Y-69802718D01*
X132190464Y-69928159D01*
X132129956Y-70074238D01*
X132109318Y-70231000D01*
X132129956Y-70387762D01*
X132190464Y-70533841D01*
X132286718Y-70659282D01*
X132293264Y-70664305D01*
X132293267Y-70664308D01*
X132407127Y-70751675D01*
X132448995Y-70809013D01*
X132453217Y-70879884D01*
X132419519Y-70940733D01*
X130838511Y-72521741D01*
X130776199Y-72555767D01*
X130705384Y-72550702D01*
X130648548Y-72508155D01*
X130633007Y-72480864D01*
X130578299Y-72348789D01*
X130575139Y-72341159D01*
X130478885Y-72215718D01*
X130353444Y-72119464D01*
X130207365Y-72058956D01*
X130050603Y-72038318D01*
X129893841Y-72058956D01*
X129747762Y-72119464D01*
X129741208Y-72124493D01*
X129734060Y-72128620D01*
X129732734Y-72126323D01*
X129678793Y-72147180D01*
X129609243Y-72132919D01*
X129602546Y-72128615D01*
X129602543Y-72128620D01*
X129595396Y-72124494D01*
X129588841Y-72119464D01*
X129442762Y-72058956D01*
X129286000Y-72038318D01*
X129129238Y-72058956D01*
X128983159Y-72119464D01*
X128976605Y-72124493D01*
X128969457Y-72128620D01*
X128968131Y-72126323D01*
X128914190Y-72147180D01*
X128844640Y-72132919D01*
X128837943Y-72128615D01*
X128837940Y-72128620D01*
X128830793Y-72124494D01*
X128824238Y-72119464D01*
X128678159Y-72058956D01*
X128521397Y-72038318D01*
X128364635Y-72058956D01*
X128218556Y-72119464D01*
X128212005Y-72124491D01*
X128212000Y-72124494D01*
X128154903Y-72168306D01*
X128088683Y-72193907D01*
X128019134Y-72179642D01*
X128001495Y-72168307D01*
X127944392Y-72124491D01*
X127937841Y-72119464D01*
X127791762Y-72058956D01*
X127635000Y-72038318D01*
X127478238Y-72058956D01*
X127332159Y-72119464D01*
X127206718Y-72215718D01*
X127110464Y-72341159D01*
X127049956Y-72487238D01*
X127029318Y-72644000D01*
X127049956Y-72800762D01*
X127110464Y-72946841D01*
X127115491Y-72953392D01*
X127206718Y-73072282D01*
X127203874Y-73074464D01*
X127230021Y-73122348D01*
X127232900Y-73149131D01*
X127232900Y-77660687D01*
X127235965Y-77670119D01*
X127235965Y-77670121D01*
X127239736Y-77681726D01*
X127244352Y-77700952D01*
X127247813Y-77722805D01*
X127252314Y-77731638D01*
X127252316Y-77731645D01*
X127257858Y-77742522D01*
X127265422Y-77760781D01*
X127272260Y-77781825D01*
X127278090Y-77789850D01*
X127278091Y-77789851D01*
X127285265Y-77799726D01*
X127295595Y-77816583D01*
X127301137Y-77827459D01*
X127305639Y-77836294D01*
X127501491Y-78032146D01*
X127535517Y-78094458D01*
X127536660Y-78105087D01*
X127537318Y-78105000D01*
X127556549Y-78251071D01*
X127557956Y-78261762D01*
X127618464Y-78407841D01*
X127714718Y-78533282D01*
X127840159Y-78629536D01*
X127986238Y-78690044D01*
X128143000Y-78710682D01*
X128151188Y-78709604D01*
X128164656Y-78707831D01*
X128299762Y-78690044D01*
X128445841Y-78629536D01*
X128506178Y-78583238D01*
X128531302Y-78563960D01*
X128597523Y-78538360D01*
X128667072Y-78552625D01*
X128684710Y-78563961D01*
X128763614Y-78624506D01*
X128763617Y-78624508D01*
X128770170Y-78629536D01*
X128916249Y-78690044D01*
X129073011Y-78710682D01*
X129094665Y-78707831D01*
X129164812Y-78718770D01*
X129217911Y-78765897D01*
X129237111Y-78832753D01*
X129237111Y-79438004D01*
X129244525Y-79460821D01*
X129249139Y-79480040D01*
X129252892Y-79503737D01*
X129257395Y-79512574D01*
X129257395Y-79512575D01*
X129263783Y-79525113D01*
X129271347Y-79543374D01*
X129275696Y-79556758D01*
X129275698Y-79556761D01*
X129278762Y-79566192D01*
X129284591Y-79574215D01*
X129292864Y-79585602D01*
X129303188Y-79602448D01*
X129314083Y-79623831D01*
X130048780Y-80358528D01*
X130070154Y-80369418D01*
X130087006Y-80379744D01*
X130106420Y-80393850D01*
X130115849Y-80396914D01*
X130115852Y-80396915D01*
X130129239Y-80401265D01*
X130147503Y-80408830D01*
X130168874Y-80419719D01*
X130178666Y-80421270D01*
X130178669Y-80421271D01*
X130192569Y-80423473D01*
X130211788Y-80428087D01*
X130225173Y-80432436D01*
X130225180Y-80432437D01*
X130234607Y-80435500D01*
X131605321Y-80435500D01*
X131673442Y-80455502D01*
X131682025Y-80461538D01*
X131770603Y-80529506D01*
X131770606Y-80529508D01*
X131777159Y-80534536D01*
X131923238Y-80595044D01*
X132080000Y-80615682D01*
X132088188Y-80614604D01*
X132228574Y-80596122D01*
X132236762Y-80595044D01*
X132382841Y-80534536D01*
X132508282Y-80438282D01*
X132530881Y-80408831D01*
X132553196Y-80379749D01*
X132604536Y-80312841D01*
X132665044Y-80166762D01*
X132685682Y-80010000D01*
X132665044Y-79853238D01*
X132604536Y-79707159D01*
X132524198Y-79602460D01*
X132513305Y-79588264D01*
X132508282Y-79581718D01*
X132382841Y-79485464D01*
X132236762Y-79424956D01*
X132080000Y-79404318D01*
X131923238Y-79424956D01*
X131777159Y-79485464D01*
X131770608Y-79490491D01*
X131770603Y-79490494D01*
X131682025Y-79558462D01*
X131615805Y-79584063D01*
X131605321Y-79584500D01*
X130530438Y-79584500D01*
X130462317Y-79564498D01*
X130441343Y-79547595D01*
X130125016Y-79231268D01*
X130090990Y-79168956D01*
X130088111Y-79142173D01*
X130088111Y-78398749D01*
X130108113Y-78330628D01*
X130161769Y-78284135D01*
X130232043Y-78274031D01*
X130296623Y-78303525D01*
X130314073Y-78322045D01*
X130343807Y-78360795D01*
X130343811Y-78360799D01*
X130348834Y-78367345D01*
X130474275Y-78463599D01*
X130620354Y-78524107D01*
X130777116Y-78544745D01*
X130785304Y-78543667D01*
X130925690Y-78525185D01*
X130933878Y-78524107D01*
X131079957Y-78463599D01*
X131086508Y-78458572D01*
X131086512Y-78458570D01*
X131124349Y-78429537D01*
X131190569Y-78403937D01*
X131201052Y-78403500D01*
X133629562Y-78403500D01*
X133697683Y-78423502D01*
X133718657Y-78440405D01*
X135761477Y-80483225D01*
X135795503Y-80545537D01*
X135797304Y-80555874D01*
X135812956Y-80674762D01*
X135873464Y-80820841D01*
X135969718Y-80946282D01*
X136095159Y-81042536D01*
X136241238Y-81103044D01*
X136398000Y-81123682D01*
X136406188Y-81122604D01*
X136546574Y-81104122D01*
X136554762Y-81103044D01*
X136700841Y-81042536D01*
X136826282Y-80946282D01*
X136922536Y-80820841D01*
X136983044Y-80674762D01*
X137003682Y-80518000D01*
X136983044Y-80361238D01*
X136922536Y-80215159D01*
X136826282Y-80089718D01*
X136700841Y-79993464D01*
X136554762Y-79932956D01*
X136507964Y-79926795D01*
X136435874Y-79917304D01*
X136370946Y-79888582D01*
X136363225Y-79881477D01*
X134146843Y-77665095D01*
X134112817Y-77602783D01*
X134117882Y-77531968D01*
X134160429Y-77475132D01*
X134226949Y-77450321D01*
X134235938Y-77450000D01*
X143763674Y-77450000D01*
X143831795Y-77470002D01*
X143852769Y-77486905D01*
X143984483Y-77618619D01*
X144018509Y-77680931D01*
X144021388Y-77707714D01*
X144021388Y-78913528D01*
X144001386Y-78981649D01*
X143947730Y-79028142D01*
X143878942Y-79038450D01*
X143772188Y-79024396D01*
X143764000Y-79023318D01*
X143607238Y-79043956D01*
X143461159Y-79104464D01*
X143454606Y-79109492D01*
X143454603Y-79109494D01*
X143396204Y-79154305D01*
X143329984Y-79179906D01*
X143260435Y-79165641D01*
X143242796Y-79154305D01*
X143184397Y-79109494D01*
X143184394Y-79109492D01*
X143177841Y-79104464D01*
X143031762Y-79043956D01*
X142875000Y-79023318D01*
X142718238Y-79043956D01*
X142718069Y-79042674D01*
X142655464Y-79041182D01*
X142596670Y-79001385D01*
X142568724Y-78936120D01*
X142571535Y-78896827D01*
X142571044Y-78896762D01*
X142590604Y-78748188D01*
X142591682Y-78740000D01*
X142573488Y-78601800D01*
X142572122Y-78591426D01*
X142571044Y-78583238D01*
X142510536Y-78437159D01*
X142442059Y-78347918D01*
X142419305Y-78318264D01*
X142414282Y-78311718D01*
X142288841Y-78215464D01*
X142142762Y-78154956D01*
X141986000Y-78134318D01*
X141829238Y-78154956D01*
X141683159Y-78215464D01*
X141557718Y-78311718D01*
X141552695Y-78318264D01*
X141529941Y-78347918D01*
X141461464Y-78437159D01*
X141400956Y-78583238D01*
X141399878Y-78591426D01*
X141398512Y-78601800D01*
X141380318Y-78740000D01*
X141376765Y-78739532D01*
X141361394Y-78791880D01*
X141344491Y-78812854D01*
X140005639Y-80151706D01*
X140001138Y-80160540D01*
X140001137Y-80160541D01*
X139995595Y-80171417D01*
X139985265Y-80188274D01*
X139978091Y-80198149D01*
X139972260Y-80206175D01*
X139969196Y-80215605D01*
X139965424Y-80227215D01*
X139957858Y-80245478D01*
X139952316Y-80256355D01*
X139952314Y-80256362D01*
X139947813Y-80265195D01*
X139946262Y-80274986D01*
X139946262Y-80274987D01*
X139944352Y-80287048D01*
X139939736Y-80306274D01*
X139932900Y-80327313D01*
X139932900Y-90205255D01*
X139912898Y-90273376D01*
X139895995Y-90294350D01*
X139886846Y-90303499D01*
X139824534Y-90337525D01*
X139797751Y-90340404D01*
X136331098Y-90340404D01*
X136262977Y-90320402D01*
X136214689Y-90262623D01*
X136210977Y-90253661D01*
X136205850Y-90241283D01*
X136109596Y-90115842D01*
X135984155Y-90019588D01*
X135838076Y-89959080D01*
X135681314Y-89938442D01*
X135524552Y-89959080D01*
X135378473Y-90019588D01*
X135253032Y-90115842D01*
X135248009Y-90122388D01*
X135175141Y-90217352D01*
X135117803Y-90259219D01*
X135058733Y-90265570D01*
X134940506Y-90250005D01*
X134783744Y-90270643D01*
X134637665Y-90331151D01*
X134512224Y-90427405D01*
X134507201Y-90433951D01*
X134500475Y-90442716D01*
X134415970Y-90552846D01*
X134355462Y-90698925D01*
X134354384Y-90707113D01*
X134342138Y-90800131D01*
X134313416Y-90865058D01*
X134265435Y-90900093D01*
X134173017Y-90938374D01*
X134153392Y-90953433D01*
X134087173Y-90979033D01*
X134017625Y-90964769D01*
X133999985Y-90953433D01*
X133986911Y-90943401D01*
X133970098Y-90930500D01*
X133824019Y-90869992D01*
X133786542Y-90865058D01*
X133715361Y-90855687D01*
X133667257Y-90849354D01*
X133619153Y-90855687D01*
X133547973Y-90865058D01*
X133510495Y-90869992D01*
X133364416Y-90930500D01*
X133238975Y-91026754D01*
X133142721Y-91152195D01*
X133082213Y-91298274D01*
X133064409Y-91433516D01*
X133064036Y-91436346D01*
X133035314Y-91501273D01*
X132976049Y-91540365D01*
X132939114Y-91545900D01*
X128488746Y-91545900D01*
X128420625Y-91525898D01*
X128399651Y-91508995D01*
X127259348Y-90368693D01*
X127236691Y-90346036D01*
X127227857Y-90341535D01*
X127227856Y-90341534D01*
X127216980Y-90335992D01*
X127200123Y-90325662D01*
X127190248Y-90318488D01*
X127190247Y-90318487D01*
X127182222Y-90312657D01*
X127161178Y-90305819D01*
X127142919Y-90298255D01*
X127132042Y-90292713D01*
X127132035Y-90292711D01*
X127123202Y-90288210D01*
X127113411Y-90286659D01*
X127113410Y-90286659D01*
X127101349Y-90284749D01*
X127082123Y-90280133D01*
X127070518Y-90276362D01*
X127070516Y-90276362D01*
X127061084Y-90273297D01*
X122933131Y-90273297D01*
X122865010Y-90253295D01*
X122856687Y-90246587D01*
X122856282Y-90247115D01*
X122817494Y-90217352D01*
X122730841Y-90150861D01*
X122584762Y-90090353D01*
X122428000Y-90069715D01*
X122271238Y-90090353D01*
X122125159Y-90150861D01*
X121999718Y-90247115D01*
X121994695Y-90253661D01*
X121990430Y-90259219D01*
X121903464Y-90372556D01*
X121842956Y-90518635D01*
X121841878Y-90526823D01*
X121838894Y-90549488D01*
X121822318Y-90675397D01*
X121842956Y-90832159D01*
X121903464Y-90978238D01*
X121999718Y-91103679D01*
X122006264Y-91108702D01*
X122035918Y-91131456D01*
X122125159Y-91199933D01*
X122271238Y-91260441D01*
X122428000Y-91281079D01*
X122436188Y-91280001D01*
X122576574Y-91261519D01*
X122584762Y-91260441D01*
X122730841Y-91199933D01*
X122856282Y-91103679D01*
X122858464Y-91106523D01*
X122906348Y-91080376D01*
X122933131Y-91077497D01*
X126778652Y-91077497D01*
X126846773Y-91097499D01*
X126867747Y-91114402D01*
X128008048Y-92254704D01*
X128008052Y-92254707D01*
X128030706Y-92277361D01*
X128050422Y-92287406D01*
X128067269Y-92297730D01*
X128085175Y-92310740D01*
X128106219Y-92317578D01*
X128124478Y-92325142D01*
X128135355Y-92330684D01*
X128135362Y-92330686D01*
X128144195Y-92335187D01*
X128153986Y-92336738D01*
X128153987Y-92336738D01*
X128166048Y-92338648D01*
X128185274Y-92343264D01*
X128196879Y-92347035D01*
X128196881Y-92347035D01*
X128206313Y-92350100D01*
X132660526Y-92350100D01*
X132728647Y-92370102D01*
X132775140Y-92423758D01*
X132785244Y-92494032D01*
X132776935Y-92524318D01*
X132770076Y-92540878D01*
X132764956Y-92553238D01*
X132763878Y-92561426D01*
X132744799Y-92706346D01*
X132716077Y-92771273D01*
X132656811Y-92810365D01*
X132619877Y-92815900D01*
X127035353Y-92815900D01*
X126967232Y-92795898D01*
X126920739Y-92742242D01*
X126910635Y-92671968D01*
X126935390Y-92613196D01*
X126995165Y-92535295D01*
X127016536Y-92507444D01*
X127077044Y-92361365D01*
X127097682Y-92204603D01*
X127077044Y-92047841D01*
X127016536Y-91901762D01*
X126920282Y-91776321D01*
X126794841Y-91680067D01*
X126648762Y-91619559D01*
X126492000Y-91598921D01*
X126335238Y-91619559D01*
X126189159Y-91680067D01*
X126063718Y-91776321D01*
X125967464Y-91901762D01*
X125906956Y-92047841D01*
X125905878Y-92056029D01*
X125887142Y-92198346D01*
X125858420Y-92263273D01*
X125799155Y-92302365D01*
X125762220Y-92307900D01*
X118078355Y-92307900D01*
X118078351Y-92307901D01*
X118046313Y-92307901D01*
X118025276Y-92314736D01*
X118006053Y-92319351D01*
X117993986Y-92321262D01*
X117993985Y-92321262D01*
X117984195Y-92322813D01*
X117975364Y-92327313D01*
X117975360Y-92327314D01*
X117964478Y-92332859D01*
X117946217Y-92340423D01*
X117925175Y-92347260D01*
X117907269Y-92360270D01*
X117890422Y-92370594D01*
X117870706Y-92380639D01*
X117848052Y-92403293D01*
X117848048Y-92403296D01*
X117848040Y-92403304D01*
X115128139Y-95123206D01*
X115065827Y-95157232D01*
X115039044Y-95160111D01*
X114139374Y-95160111D01*
X114129942Y-95163176D01*
X114129940Y-95163176D01*
X114118335Y-95166947D01*
X114099109Y-95171563D01*
X114087048Y-95173473D01*
X114087047Y-95173473D01*
X114077256Y-95175024D01*
X114068423Y-95179525D01*
X114068416Y-95179527D01*
X114057539Y-95185069D01*
X114039280Y-95192633D01*
X114018236Y-95199471D01*
X114010211Y-95205301D01*
X114010210Y-95205302D01*
X114000335Y-95212476D01*
X113983478Y-95222806D01*
X113972602Y-95228348D01*
X113972601Y-95228349D01*
X113963767Y-95232850D01*
X113337490Y-95859127D01*
X113275178Y-95893153D01*
X113264549Y-95894296D01*
X113264636Y-95894954D01*
X113107874Y-95915592D01*
X112961795Y-95976100D01*
X112836354Y-96072354D01*
X112831331Y-96078900D01*
X112813906Y-96101609D01*
X112740100Y-96197795D01*
X112679592Y-96343874D01*
X112678514Y-96352062D01*
X112667022Y-96439353D01*
X112638300Y-96504280D01*
X112638228Y-96504328D01*
X112442929Y-96504328D01*
X112445691Y-96501935D01*
X112417605Y-96442322D01*
X112416100Y-96422907D01*
X112416100Y-90868313D01*
X112409264Y-90847274D01*
X112404648Y-90828048D01*
X112402738Y-90815987D01*
X112402738Y-90815986D01*
X112401187Y-90806195D01*
X112396686Y-90797362D01*
X112396684Y-90797355D01*
X112391142Y-90786478D01*
X112383576Y-90768215D01*
X112379804Y-90756605D01*
X112376740Y-90747175D01*
X112370909Y-90739149D01*
X112363735Y-90729274D01*
X112353405Y-90712417D01*
X112347863Y-90701541D01*
X112347862Y-90701540D01*
X112343361Y-90692706D01*
X109518825Y-87868170D01*
X109484799Y-87805858D01*
X109481920Y-87779075D01*
X109481920Y-87630000D01*
X130966318Y-87630000D01*
X130986956Y-87786762D01*
X131047464Y-87932841D01*
X131143718Y-88058282D01*
X131269159Y-88154536D01*
X131415238Y-88215044D01*
X131572000Y-88235682D01*
X131580188Y-88234604D01*
X131720574Y-88216122D01*
X131728762Y-88215044D01*
X131874841Y-88154536D01*
X132000282Y-88058282D01*
X132096536Y-87932841D01*
X132157044Y-87786762D01*
X132177682Y-87630000D01*
X132157044Y-87473238D01*
X132096536Y-87327159D01*
X132000282Y-87201718D01*
X131874841Y-87105464D01*
X131728762Y-87044956D01*
X131572000Y-87024318D01*
X131415238Y-87044956D01*
X131269159Y-87105464D01*
X131143718Y-87201718D01*
X131047464Y-87327159D01*
X130986956Y-87473238D01*
X130966318Y-87630000D01*
X109481920Y-87630000D01*
X109481920Y-83820000D01*
X114964318Y-83820000D01*
X114984956Y-83976762D01*
X115045464Y-84122841D01*
X115141718Y-84248282D01*
X115267159Y-84344536D01*
X115413238Y-84405044D01*
X115421426Y-84406122D01*
X115498880Y-84416319D01*
X115526663Y-84423259D01*
X115532841Y-84425575D01*
X115542161Y-84429502D01*
X115574982Y-84444912D01*
X115574987Y-84444914D01*
X115583105Y-84448725D01*
X115591972Y-84450106D01*
X115596785Y-84451577D01*
X115608043Y-84454531D01*
X115612975Y-84455616D01*
X115621382Y-84458767D01*
X115666497Y-84462120D01*
X115676532Y-84463272D01*
X115683300Y-84464326D01*
X115684439Y-84464503D01*
X115684440Y-84464503D01*
X115689237Y-84465250D01*
X115703942Y-84465250D01*
X115713279Y-84465596D01*
X115760782Y-84469126D01*
X115769558Y-84467253D01*
X115778514Y-84466642D01*
X115778518Y-84466698D01*
X115792238Y-84465250D01*
X128003772Y-84465250D01*
X128071893Y-84485252D01*
X128080474Y-84491286D01*
X128087604Y-84496757D01*
X128087608Y-84496759D01*
X128094159Y-84501786D01*
X128240238Y-84562294D01*
X128397000Y-84582932D01*
X128405188Y-84581854D01*
X128545574Y-84563372D01*
X128553762Y-84562294D01*
X128699841Y-84501786D01*
X128825282Y-84405532D01*
X128921536Y-84280091D01*
X128982044Y-84134012D01*
X129002682Y-83977250D01*
X128982044Y-83820488D01*
X128921536Y-83674409D01*
X128825282Y-83548968D01*
X128699841Y-83452714D01*
X128553762Y-83392206D01*
X128397000Y-83371568D01*
X128240238Y-83392206D01*
X128094159Y-83452714D01*
X128087608Y-83457741D01*
X128087604Y-83457743D01*
X128080474Y-83463214D01*
X128014254Y-83488813D01*
X128003772Y-83489250D01*
X126281500Y-83489250D01*
X126213379Y-83469248D01*
X126166886Y-83415592D01*
X126155500Y-83363250D01*
X126155500Y-67538438D01*
X126175502Y-67470317D01*
X126192405Y-67449343D01*
X126457225Y-67184523D01*
X126519537Y-67150497D01*
X126529874Y-67148696D01*
X126616913Y-67137237D01*
X126648762Y-67133044D01*
X126794841Y-67072536D01*
X126884082Y-67004059D01*
X126913736Y-66981305D01*
X126920282Y-66976282D01*
X127016536Y-66850841D01*
X127077044Y-66704762D01*
X127097682Y-66548000D01*
X127077044Y-66391238D01*
X127016536Y-66245159D01*
X126920282Y-66119718D01*
X126794841Y-66023464D01*
X126648762Y-65962956D01*
X126492000Y-65942318D01*
X126335238Y-65962956D01*
X126189159Y-66023464D01*
X126063718Y-66119718D01*
X125967464Y-66245159D01*
X125906956Y-66391238D01*
X125905878Y-66399426D01*
X125905878Y-66399427D01*
X125891304Y-66510126D01*
X125862582Y-66575054D01*
X125855477Y-66582775D01*
X125381472Y-67056780D01*
X125370577Y-67078163D01*
X125360253Y-67095009D01*
X125346151Y-67114419D01*
X125343087Y-67123850D01*
X125343085Y-67123853D01*
X125338736Y-67137237D01*
X125331172Y-67155498D01*
X125320281Y-67176874D01*
X125318730Y-67186668D01*
X125316528Y-67200570D01*
X125311914Y-67219790D01*
X125304500Y-67242607D01*
X125304500Y-83363250D01*
X125284498Y-83431371D01*
X125230842Y-83477864D01*
X125178500Y-83489250D01*
X116229920Y-83489250D01*
X116161799Y-83469248D01*
X116115306Y-83415592D01*
X116105202Y-83345318D01*
X116113511Y-83315032D01*
X116151884Y-83222392D01*
X116151885Y-83222389D01*
X116155044Y-83214762D01*
X116175682Y-83058000D01*
X116155044Y-82901238D01*
X116094536Y-82755159D01*
X116089509Y-82748607D01*
X116085379Y-82741454D01*
X116088078Y-82739896D01*
X116067818Y-82687459D01*
X116082096Y-82617913D01*
X116085500Y-82612616D01*
X116085379Y-82612546D01*
X116089509Y-82605393D01*
X116094536Y-82598841D01*
X116155044Y-82452762D01*
X116175682Y-82296000D01*
X116155044Y-82139238D01*
X116094536Y-81993159D01*
X115998282Y-81867718D01*
X115872841Y-81771464D01*
X115726762Y-81710956D01*
X115570000Y-81690318D01*
X115413238Y-81710956D01*
X115267159Y-81771464D01*
X115141718Y-81867718D01*
X115045464Y-81993159D01*
X114984956Y-82139238D01*
X114964318Y-82296000D01*
X114984956Y-82452762D01*
X115045464Y-82598841D01*
X115050491Y-82605393D01*
X115054621Y-82612546D01*
X115051922Y-82614104D01*
X115072182Y-82666541D01*
X115057904Y-82736087D01*
X115054500Y-82741384D01*
X115054621Y-82741454D01*
X115050491Y-82748607D01*
X115045464Y-82755159D01*
X114984956Y-82901238D01*
X114964318Y-83058000D01*
X114984956Y-83214762D01*
X115045464Y-83360841D01*
X115050491Y-83367393D01*
X115054621Y-83374546D01*
X115051922Y-83376104D01*
X115072182Y-83428541D01*
X115057904Y-83498087D01*
X115054500Y-83503384D01*
X115054621Y-83503454D01*
X115050491Y-83510607D01*
X115045464Y-83517159D01*
X114984956Y-83663238D01*
X114964318Y-83820000D01*
X109481920Y-83820000D01*
X109481920Y-80114925D01*
X109501922Y-80046804D01*
X109518825Y-80025830D01*
X109603650Y-79941005D01*
X109665962Y-79906979D01*
X109692745Y-79904100D01*
X114871687Y-79904100D01*
X114881119Y-79901035D01*
X114881121Y-79901035D01*
X114892726Y-79897264D01*
X114911952Y-79892648D01*
X114924013Y-79890738D01*
X114924014Y-79890738D01*
X114933805Y-79889187D01*
X114942638Y-79884686D01*
X114942645Y-79884684D01*
X114953522Y-79879142D01*
X114971781Y-79871578D01*
X114992825Y-79864740D01*
X115000851Y-79858909D01*
X115010726Y-79851735D01*
X115027583Y-79841405D01*
X115038459Y-79835863D01*
X115038460Y-79835862D01*
X115047294Y-79831361D01*
X115137361Y-79741294D01*
X117654704Y-77223952D01*
X117654707Y-77223948D01*
X117677361Y-77201294D01*
X117687406Y-77181578D01*
X117697730Y-77164731D01*
X117710740Y-77146825D01*
X117717577Y-77125783D01*
X117725141Y-77107522D01*
X117730686Y-77096640D01*
X117730687Y-77096636D01*
X117735187Y-77087805D01*
X117738649Y-77065946D01*
X117743264Y-77046724D01*
X117747035Y-77035117D01*
X117750099Y-77025687D01*
X117750099Y-76993651D01*
X117750100Y-76993645D01*
X117750100Y-66766746D01*
X117770102Y-66698625D01*
X117787005Y-66677650D01*
X117985652Y-66479004D01*
X118047964Y-66444979D01*
X118074747Y-66442100D01*
X122491687Y-66442100D01*
X122501119Y-66439035D01*
X122501121Y-66439035D01*
X122512726Y-66435264D01*
X122531952Y-66430648D01*
X122544013Y-66428738D01*
X122544014Y-66428738D01*
X122553805Y-66427187D01*
X122562638Y-66422686D01*
X122562645Y-66422684D01*
X122573522Y-66417142D01*
X122591781Y-66409578D01*
X122612825Y-66402740D01*
X122620851Y-66396909D01*
X122630726Y-66389735D01*
X122647583Y-66379405D01*
X122658459Y-66373863D01*
X122658460Y-66373862D01*
X122667294Y-66369361D01*
X123555051Y-65481604D01*
X124356600Y-64680056D01*
X124418912Y-64646030D01*
X124489727Y-64651095D01*
X124509266Y-64660363D01*
X124648392Y-64741662D01*
X124653629Y-64744722D01*
X124864933Y-64825411D01*
X124869999Y-64826442D01*
X124870000Y-64826442D01*
X124922007Y-64837023D01*
X125086577Y-64870505D01*
X125214291Y-64875188D01*
X125307447Y-64878604D01*
X125307451Y-64878604D01*
X125312611Y-64878793D01*
X125317731Y-64878137D01*
X125317733Y-64878137D01*
X125531835Y-64850710D01*
X125531836Y-64850710D01*
X125536963Y-64850053D01*
X125543553Y-64848076D01*
X125748653Y-64786543D01*
X125748658Y-64786541D01*
X125753608Y-64785056D01*
X125956729Y-64685548D01*
X125960934Y-64682548D01*
X125960940Y-64682545D01*
X126136666Y-64557201D01*
X126136668Y-64557199D01*
X126140870Y-64554202D01*
X126301086Y-64394544D01*
X126433074Y-64210863D01*
X126474667Y-64126708D01*
X126530997Y-64012733D01*
X126530998Y-64012731D01*
X126533291Y-64008091D01*
X126599043Y-63791673D01*
X126608813Y-63717461D01*
X126628129Y-63570745D01*
X126628130Y-63570739D01*
X126628566Y-63567423D01*
X126628648Y-63564070D01*
X126630132Y-63503364D01*
X126630132Y-63503360D01*
X126630214Y-63500000D01*
X126627442Y-63466278D01*
X127370198Y-63466278D01*
X127370495Y-63471430D01*
X127370495Y-63471434D01*
X127376030Y-63567423D01*
X127383218Y-63692089D01*
X127384355Y-63697135D01*
X127384356Y-63697141D01*
X127390622Y-63724944D01*
X127432944Y-63912740D01*
X127518041Y-64122307D01*
X127636222Y-64315162D01*
X127784315Y-64486125D01*
X127788290Y-64489425D01*
X127788294Y-64489429D01*
X127929771Y-64606885D01*
X127958342Y-64630605D01*
X127962794Y-64633207D01*
X127962799Y-64633210D01*
X128148392Y-64741662D01*
X128153629Y-64744722D01*
X128364933Y-64825411D01*
X128369999Y-64826442D01*
X128370000Y-64826442D01*
X128422007Y-64837023D01*
X128586577Y-64870505D01*
X128714291Y-64875188D01*
X128807447Y-64878604D01*
X128807451Y-64878604D01*
X128812611Y-64878793D01*
X128817731Y-64878137D01*
X128817733Y-64878137D01*
X129031835Y-64850710D01*
X129031836Y-64850710D01*
X129036963Y-64850053D01*
X129043553Y-64848076D01*
X129248653Y-64786543D01*
X129248658Y-64786541D01*
X129253608Y-64785056D01*
X129456729Y-64685548D01*
X129460934Y-64682548D01*
X129460940Y-64682545D01*
X129636666Y-64557201D01*
X129636668Y-64557199D01*
X129640870Y-64554202D01*
X129801086Y-64394544D01*
X129933074Y-64210863D01*
X129974667Y-64126708D01*
X130030997Y-64012733D01*
X130030998Y-64012731D01*
X130033291Y-64008091D01*
X130099043Y-63791673D01*
X130108813Y-63717461D01*
X130128129Y-63570745D01*
X130128130Y-63570739D01*
X130128566Y-63567423D01*
X130128648Y-63564070D01*
X130130132Y-63503364D01*
X130130132Y-63503360D01*
X130130214Y-63500000D01*
X130111681Y-63274575D01*
X130056579Y-63055204D01*
X129966387Y-62847779D01*
X129843529Y-62657869D01*
X129838839Y-62652714D01*
X129694782Y-62494397D01*
X129694780Y-62494395D01*
X129691304Y-62490575D01*
X129687253Y-62487376D01*
X129687249Y-62487372D01*
X129517854Y-62353592D01*
X129517850Y-62353590D01*
X129513799Y-62350390D01*
X129315782Y-62241079D01*
X129310913Y-62239355D01*
X129310909Y-62239353D01*
X129107439Y-62167301D01*
X129107437Y-62167300D01*
X129102570Y-62165577D01*
X128991230Y-62145744D01*
X128884978Y-62126817D01*
X128884974Y-62126817D01*
X128879890Y-62125911D01*
X128806351Y-62125013D01*
X128658891Y-62123211D01*
X128658889Y-62123211D01*
X128653721Y-62123148D01*
X128504045Y-62146052D01*
X128435247Y-62156579D01*
X128435244Y-62156580D01*
X128430138Y-62157361D01*
X128399727Y-62167301D01*
X128220055Y-62226027D01*
X128220050Y-62226029D01*
X128215146Y-62227632D01*
X128210572Y-62230013D01*
X128210565Y-62230016D01*
X128044884Y-62316264D01*
X128014517Y-62332072D01*
X127990120Y-62350390D01*
X127867057Y-62442789D01*
X127833640Y-62467879D01*
X127830068Y-62471617D01*
X127732602Y-62573609D01*
X127677372Y-62631403D01*
X127549911Y-62818255D01*
X127547738Y-62822937D01*
X127547736Y-62822940D01*
X127472123Y-62985836D01*
X127454679Y-63023415D01*
X127394233Y-63241374D01*
X127370198Y-63466278D01*
X126627442Y-63466278D01*
X126611681Y-63274575D01*
X126556579Y-63055204D01*
X126466387Y-62847779D01*
X126343529Y-62657869D01*
X126338839Y-62652714D01*
X126194782Y-62494397D01*
X126194780Y-62494395D01*
X126191304Y-62490575D01*
X126187253Y-62487376D01*
X126187249Y-62487372D01*
X126017854Y-62353592D01*
X126017850Y-62353590D01*
X126013799Y-62350390D01*
X125815782Y-62241079D01*
X125810913Y-62239355D01*
X125810909Y-62239353D01*
X125607439Y-62167301D01*
X125607437Y-62167300D01*
X125602570Y-62165577D01*
X125491230Y-62145744D01*
X125384978Y-62126817D01*
X125384974Y-62126817D01*
X125379890Y-62125911D01*
X125306351Y-62125013D01*
X125158891Y-62123211D01*
X125158889Y-62123211D01*
X125153721Y-62123148D01*
X125004045Y-62146052D01*
X124935247Y-62156579D01*
X124935244Y-62156580D01*
X124930138Y-62157361D01*
X124899727Y-62167301D01*
X124720055Y-62226027D01*
X124720050Y-62226029D01*
X124715146Y-62227632D01*
X124710572Y-62230013D01*
X124710565Y-62230016D01*
X124544884Y-62316264D01*
X124514517Y-62332072D01*
X124490120Y-62350390D01*
X124367057Y-62442789D01*
X124333640Y-62467879D01*
X124330073Y-62471612D01*
X124330067Y-62471617D01*
X124311105Y-62491460D01*
X124249580Y-62526889D01*
X124178668Y-62523432D01*
X124120882Y-62482185D01*
X124094569Y-62416244D01*
X124094012Y-62404408D01*
X124094012Y-61776833D01*
X124114014Y-61708712D01*
X124130917Y-61687738D01*
X124538207Y-61280448D01*
X124600519Y-61246422D01*
X124672251Y-61251833D01*
X124864933Y-61325411D01*
X124869999Y-61326442D01*
X124870000Y-61326442D01*
X124922007Y-61337023D01*
X125086577Y-61370505D01*
X125214291Y-61375188D01*
X125307447Y-61378604D01*
X125307451Y-61378604D01*
X125312611Y-61378793D01*
X125317731Y-61378137D01*
X125317733Y-61378137D01*
X125531835Y-61350710D01*
X125531836Y-61350710D01*
X125536963Y-61350053D01*
X125545999Y-61347342D01*
X125748653Y-61286543D01*
X125748658Y-61286541D01*
X125753608Y-61285056D01*
X125956729Y-61185548D01*
X125960934Y-61182548D01*
X125960940Y-61182545D01*
X126136666Y-61057201D01*
X126136668Y-61057199D01*
X126140870Y-61054202D01*
X126301086Y-60894544D01*
X126433074Y-60710863D01*
X126474667Y-60626708D01*
X126530997Y-60512733D01*
X126530999Y-60512728D01*
X126533291Y-60508091D01*
X126599043Y-60291673D01*
X126599718Y-60286547D01*
X126628129Y-60070745D01*
X126628130Y-60070739D01*
X126628566Y-60067423D01*
X126629557Y-60026880D01*
X126630132Y-60003364D01*
X126630132Y-60003360D01*
X126630214Y-60000000D01*
X126627442Y-59966278D01*
X127370198Y-59966278D01*
X127370495Y-59971430D01*
X127370495Y-59971434D01*
X127376030Y-60067423D01*
X127383218Y-60192089D01*
X127384355Y-60197135D01*
X127384356Y-60197141D01*
X127404505Y-60286547D01*
X127432944Y-60412740D01*
X127518041Y-60622307D01*
X127636222Y-60815162D01*
X127639606Y-60819068D01*
X127639607Y-60819070D01*
X127674000Y-60858775D01*
X127784315Y-60986125D01*
X127788290Y-60989425D01*
X127788294Y-60989429D01*
X127866314Y-61054202D01*
X127958342Y-61130605D01*
X127962794Y-61133207D01*
X127962799Y-61133210D01*
X128103327Y-61215328D01*
X128153629Y-61244722D01*
X128364933Y-61325411D01*
X128369999Y-61326442D01*
X128370000Y-61326442D01*
X128422007Y-61337023D01*
X128586577Y-61370505D01*
X128714291Y-61375188D01*
X128807447Y-61378604D01*
X128807451Y-61378604D01*
X128812611Y-61378793D01*
X128817731Y-61378137D01*
X128817733Y-61378137D01*
X129031835Y-61350710D01*
X129031836Y-61350710D01*
X129036963Y-61350053D01*
X129045999Y-61347342D01*
X129248653Y-61286543D01*
X129248658Y-61286541D01*
X129253608Y-61285056D01*
X129456729Y-61185548D01*
X129460934Y-61182548D01*
X129460940Y-61182545D01*
X129636666Y-61057201D01*
X129636668Y-61057199D01*
X129640870Y-61054202D01*
X129801086Y-60894544D01*
X129933074Y-60710863D01*
X129974667Y-60626708D01*
X130030997Y-60512733D01*
X130030999Y-60512728D01*
X130033291Y-60508091D01*
X130099043Y-60291673D01*
X130099718Y-60286547D01*
X130128129Y-60070745D01*
X130128130Y-60070739D01*
X130128566Y-60067423D01*
X130129557Y-60026880D01*
X130130132Y-60003364D01*
X130130132Y-60003360D01*
X130130214Y-60000000D01*
X130111681Y-59774575D01*
X130056579Y-59555204D01*
X129966387Y-59347779D01*
X129843529Y-59157869D01*
X129823332Y-59135672D01*
X129694782Y-58994397D01*
X129694780Y-58994395D01*
X129691304Y-58990575D01*
X129687253Y-58987376D01*
X129687249Y-58987372D01*
X129517854Y-58853592D01*
X129517850Y-58853590D01*
X129513799Y-58850390D01*
X129315782Y-58741079D01*
X129310913Y-58739355D01*
X129310909Y-58739353D01*
X129107439Y-58667301D01*
X129107437Y-58667300D01*
X129102570Y-58665577D01*
X128991230Y-58645744D01*
X128884978Y-58626817D01*
X128884974Y-58626817D01*
X128879890Y-58625911D01*
X128806351Y-58625013D01*
X128658891Y-58623211D01*
X128658889Y-58623211D01*
X128653721Y-58623148D01*
X128504045Y-58646052D01*
X128435247Y-58656579D01*
X128435244Y-58656580D01*
X128430138Y-58657361D01*
X128399727Y-58667301D01*
X128220055Y-58726027D01*
X128220050Y-58726029D01*
X128215146Y-58727632D01*
X128210572Y-58730013D01*
X128210565Y-58730016D01*
X128019104Y-58829684D01*
X128014517Y-58832072D01*
X128010378Y-58835179D01*
X128010379Y-58835179D01*
X127858766Y-58949014D01*
X127833640Y-58967879D01*
X127677372Y-59131403D01*
X127549911Y-59318255D01*
X127547738Y-59322937D01*
X127547736Y-59322940D01*
X127457640Y-59517037D01*
X127454679Y-59523415D01*
X127394233Y-59741374D01*
X127370198Y-59966278D01*
X126627442Y-59966278D01*
X126611681Y-59774575D01*
X126556579Y-59555204D01*
X126466387Y-59347779D01*
X126343529Y-59157869D01*
X126323332Y-59135672D01*
X126194782Y-58994397D01*
X126194780Y-58994395D01*
X126191304Y-58990575D01*
X126187253Y-58987376D01*
X126187249Y-58987372D01*
X126017854Y-58853592D01*
X126017850Y-58853590D01*
X126013799Y-58850390D01*
X125815782Y-58741079D01*
X125810913Y-58739355D01*
X125810909Y-58739353D01*
X125607439Y-58667301D01*
X125607437Y-58667300D01*
X125602570Y-58665577D01*
X125491230Y-58645744D01*
X125384978Y-58626817D01*
X125384974Y-58626817D01*
X125379890Y-58625911D01*
X125306351Y-58625013D01*
X125158891Y-58623211D01*
X125158889Y-58623211D01*
X125153721Y-58623148D01*
X125004045Y-58646052D01*
X124935247Y-58656579D01*
X124935244Y-58656580D01*
X124930138Y-58657361D01*
X124899727Y-58667301D01*
X124720055Y-58726027D01*
X124720050Y-58726029D01*
X124715146Y-58727632D01*
X124710572Y-58730013D01*
X124710565Y-58730016D01*
X124519104Y-58829684D01*
X124514517Y-58832072D01*
X124510378Y-58835179D01*
X124510379Y-58835179D01*
X124358766Y-58949014D01*
X124333640Y-58967879D01*
X124177372Y-59131403D01*
X124049911Y-59318255D01*
X124047738Y-59322937D01*
X124047736Y-59322940D01*
X123957640Y-59517037D01*
X123954679Y-59523415D01*
X123894233Y-59741374D01*
X123870198Y-59966278D01*
X123870495Y-59971430D01*
X123870495Y-59971434D01*
X123876030Y-60067423D01*
X123883218Y-60192089D01*
X123884355Y-60197135D01*
X123884356Y-60197141D01*
X123904505Y-60286547D01*
X123932944Y-60412740D01*
X123998445Y-60574049D01*
X124005542Y-60644688D01*
X123970798Y-60710547D01*
X123362551Y-61318794D01*
X123358050Y-61327628D01*
X123358049Y-61327629D01*
X123352507Y-61338505D01*
X123342177Y-61355362D01*
X123335003Y-61365237D01*
X123329172Y-61373263D01*
X123326108Y-61382693D01*
X123322336Y-61394303D01*
X123314770Y-61412566D01*
X123309228Y-61423443D01*
X123309226Y-61423450D01*
X123304725Y-61432283D01*
X123303174Y-61442074D01*
X123303174Y-61442075D01*
X123301264Y-61454136D01*
X123296648Y-61473362D01*
X123289812Y-61494401D01*
X123289812Y-62985836D01*
X123269810Y-63053957D01*
X123216154Y-63100450D01*
X123145880Y-63110554D01*
X123081300Y-63081060D01*
X123048263Y-63036079D01*
X123044927Y-63028407D01*
X122966387Y-62847779D01*
X122843529Y-62657869D01*
X122838839Y-62652714D01*
X122694782Y-62494397D01*
X122694780Y-62494395D01*
X122691304Y-62490575D01*
X122687253Y-62487376D01*
X122687249Y-62487372D01*
X122517854Y-62353592D01*
X122517850Y-62353590D01*
X122513799Y-62350390D01*
X122315782Y-62241079D01*
X122310913Y-62239355D01*
X122310909Y-62239353D01*
X122107439Y-62167301D01*
X122107437Y-62167300D01*
X122102570Y-62165577D01*
X121991230Y-62145744D01*
X121884978Y-62126817D01*
X121884974Y-62126817D01*
X121879890Y-62125911D01*
X121806351Y-62125013D01*
X121658891Y-62123211D01*
X121658889Y-62123211D01*
X121653721Y-62123148D01*
X121504045Y-62146052D01*
X121435247Y-62156579D01*
X121435244Y-62156580D01*
X121430138Y-62157361D01*
X121399727Y-62167301D01*
X121220055Y-62226027D01*
X121220050Y-62226029D01*
X121215146Y-62227632D01*
X121210572Y-62230013D01*
X121210565Y-62230016D01*
X121044884Y-62316264D01*
X121014517Y-62332072D01*
X120990120Y-62350390D01*
X120867057Y-62442789D01*
X120833640Y-62467879D01*
X120830068Y-62471617D01*
X120732602Y-62573609D01*
X120677372Y-62631403D01*
X120549911Y-62818255D01*
X120547738Y-62822937D01*
X120547736Y-62822940D01*
X120472123Y-62985836D01*
X120454679Y-63023415D01*
X120394233Y-63241374D01*
X120370198Y-63466278D01*
X120370495Y-63471430D01*
X120370495Y-63471434D01*
X120376030Y-63567423D01*
X120383218Y-63692089D01*
X120384355Y-63697135D01*
X120384356Y-63697141D01*
X120390622Y-63724944D01*
X120432944Y-63912740D01*
X120518041Y-64122307D01*
X120636222Y-64315162D01*
X120784315Y-64486125D01*
X120788290Y-64489425D01*
X120788294Y-64489429D01*
X120929771Y-64606885D01*
X120958342Y-64630605D01*
X120962794Y-64633207D01*
X120962799Y-64633210D01*
X121148392Y-64741662D01*
X121153629Y-64744722D01*
X121364933Y-64825411D01*
X121369999Y-64826442D01*
X121370000Y-64826442D01*
X121422007Y-64837023D01*
X121586577Y-64870505D01*
X121714291Y-64875188D01*
X121807447Y-64878604D01*
X121807451Y-64878604D01*
X121812611Y-64878793D01*
X121817731Y-64878137D01*
X121817733Y-64878137D01*
X121944032Y-64861958D01*
X122014142Y-64873143D01*
X122067076Y-64920456D01*
X122086027Y-64988877D01*
X122064979Y-65056681D01*
X122049137Y-65076032D01*
X121891994Y-65233175D01*
X121829682Y-65267201D01*
X121802899Y-65270080D01*
X117398133Y-65270080D01*
X117388701Y-65273145D01*
X117388699Y-65273145D01*
X117377094Y-65276916D01*
X117357868Y-65281532D01*
X117345807Y-65283442D01*
X117345806Y-65283442D01*
X117336015Y-65284993D01*
X117327182Y-65289494D01*
X117327175Y-65289496D01*
X117316298Y-65295038D01*
X117298039Y-65302602D01*
X117276995Y-65309440D01*
X117268970Y-65315270D01*
X117268969Y-65315271D01*
X117259094Y-65322445D01*
X117242237Y-65332775D01*
X117231361Y-65338317D01*
X117231360Y-65338318D01*
X117222526Y-65342819D01*
X117089595Y-65475750D01*
X117027283Y-65509776D01*
X116956468Y-65504711D01*
X116899632Y-65462164D01*
X116874821Y-65395644D01*
X116874500Y-65386655D01*
X116874500Y-64573206D01*
X117394960Y-64573206D01*
X117402104Y-64583266D01*
X117454654Y-64626893D01*
X117463093Y-64632802D01*
X117649385Y-64741662D01*
X117658672Y-64746112D01*
X117860242Y-64823084D01*
X117870140Y-64825960D01*
X118081574Y-64868976D01*
X118091804Y-64870195D01*
X118307424Y-64878103D01*
X118317709Y-64877636D01*
X118531727Y-64850219D01*
X118541813Y-64848076D01*
X118748475Y-64786074D01*
X118758070Y-64782313D01*
X118951823Y-64687395D01*
X118960681Y-64682115D01*
X119097282Y-64584678D01*
X119105682Y-64573980D01*
X119098694Y-64560826D01*
X118262812Y-63724944D01*
X118248868Y-63717330D01*
X118247035Y-63717461D01*
X118240420Y-63721712D01*
X117402219Y-64559913D01*
X117394960Y-64573206D01*
X116874500Y-64573206D01*
X116874500Y-64333875D01*
X116894502Y-64265754D01*
X116948158Y-64219261D01*
X117018432Y-64209157D01*
X117083012Y-64238651D01*
X117107933Y-64268041D01*
X117133920Y-64310449D01*
X117140018Y-64318781D01*
X117164859Y-64347457D01*
X117177943Y-64355869D01*
X117187916Y-64349952D01*
X118025056Y-63512812D01*
X118031434Y-63501132D01*
X118467330Y-63501132D01*
X118467461Y-63502965D01*
X118471712Y-63509580D01*
X119311159Y-64349027D01*
X119323169Y-64355586D01*
X119334908Y-64346618D01*
X119429626Y-64214804D01*
X119434937Y-64205965D01*
X119530530Y-64012548D01*
X119534328Y-64002955D01*
X119597049Y-63796513D01*
X119599227Y-63786440D01*
X119627628Y-63570717D01*
X119628147Y-63564049D01*
X119629630Y-63503365D01*
X119629436Y-63496646D01*
X119611609Y-63279808D01*
X119609926Y-63269646D01*
X119557362Y-63060377D01*
X119554044Y-63050630D01*
X119468005Y-62852753D01*
X119463138Y-62843678D01*
X119345939Y-62662514D01*
X119339657Y-62654356D01*
X119336659Y-62651061D01*
X119323095Y-62642803D01*
X119322841Y-62642809D01*
X119313824Y-62648308D01*
X118474944Y-63487188D01*
X118467330Y-63501132D01*
X118031434Y-63501132D01*
X118032670Y-63498868D01*
X118032539Y-63497035D01*
X118028288Y-63490420D01*
X117187259Y-62649391D01*
X117175723Y-62643091D01*
X117163441Y-62652714D01*
X117104588Y-62738989D01*
X117049677Y-62783991D01*
X116979152Y-62792162D01*
X116915405Y-62760908D01*
X116878675Y-62700151D01*
X116874500Y-62667984D01*
X116874500Y-62427357D01*
X117395074Y-62427357D01*
X117401819Y-62439687D01*
X118237188Y-63275056D01*
X118251132Y-63282670D01*
X118252965Y-63282539D01*
X118259580Y-63278288D01*
X119097671Y-62440197D01*
X119104692Y-62427341D01*
X119096919Y-62416673D01*
X119017579Y-62354014D01*
X119008992Y-62348309D01*
X118820110Y-62244040D01*
X118810698Y-62239810D01*
X118607317Y-62167788D01*
X118597346Y-62165154D01*
X118384931Y-62127317D01*
X118374679Y-62126348D01*
X118158926Y-62123712D01*
X118148642Y-62124432D01*
X117935367Y-62157067D01*
X117925340Y-62159456D01*
X117720258Y-62226487D01*
X117710749Y-62230484D01*
X117519373Y-62330108D01*
X117510648Y-62335602D01*
X117403528Y-62416030D01*
X117395074Y-62427357D01*
X116874500Y-62427357D01*
X116874500Y-60834833D01*
X116894502Y-60766712D01*
X116948158Y-60720219D01*
X117018432Y-60710115D01*
X117083012Y-60739609D01*
X117107933Y-60768999D01*
X117133520Y-60810754D01*
X117133524Y-60810759D01*
X117136222Y-60815162D01*
X117139606Y-60819068D01*
X117139607Y-60819070D01*
X117174000Y-60858775D01*
X117284315Y-60986125D01*
X117288290Y-60989425D01*
X117288294Y-60989429D01*
X117366314Y-61054202D01*
X117458342Y-61130605D01*
X117462794Y-61133207D01*
X117462799Y-61133210D01*
X117603327Y-61215328D01*
X117653629Y-61244722D01*
X117864933Y-61325411D01*
X117869999Y-61326442D01*
X117870000Y-61326442D01*
X117922007Y-61337023D01*
X118086577Y-61370505D01*
X118214291Y-61375188D01*
X118307447Y-61378604D01*
X118307451Y-61378604D01*
X118312611Y-61378793D01*
X118317731Y-61378137D01*
X118317733Y-61378137D01*
X118531835Y-61350710D01*
X118531836Y-61350710D01*
X118536963Y-61350053D01*
X118545999Y-61347342D01*
X118748653Y-61286543D01*
X118748658Y-61286541D01*
X118753608Y-61285056D01*
X118956729Y-61185548D01*
X118960934Y-61182548D01*
X118960940Y-61182545D01*
X119136666Y-61057201D01*
X119136668Y-61057199D01*
X119140870Y-61054202D01*
X119301086Y-60894544D01*
X119433074Y-60710863D01*
X119474667Y-60626708D01*
X119530997Y-60512733D01*
X119530999Y-60512728D01*
X119533291Y-60508091D01*
X119599043Y-60291673D01*
X119599718Y-60286547D01*
X119628129Y-60070745D01*
X119628130Y-60070739D01*
X119628566Y-60067423D01*
X119629557Y-60026880D01*
X119630132Y-60003364D01*
X119630132Y-60003360D01*
X119630214Y-60000000D01*
X119611681Y-59774575D01*
X119579421Y-59646141D01*
X119582225Y-59575200D01*
X119622938Y-59517037D01*
X119688634Y-59490118D01*
X119758454Y-59502989D01*
X119790720Y-59526351D01*
X120344803Y-60080434D01*
X120378829Y-60142746D01*
X120381499Y-60162276D01*
X120383218Y-60192089D01*
X120384356Y-60197137D01*
X120384356Y-60197140D01*
X120404505Y-60286547D01*
X120432944Y-60412740D01*
X120518041Y-60622307D01*
X120636222Y-60815162D01*
X120639606Y-60819068D01*
X120639607Y-60819070D01*
X120674000Y-60858775D01*
X120784315Y-60986125D01*
X120788290Y-60989425D01*
X120788294Y-60989429D01*
X120866314Y-61054202D01*
X120958342Y-61130605D01*
X120962794Y-61133207D01*
X120962799Y-61133210D01*
X121103327Y-61215328D01*
X121153629Y-61244722D01*
X121364933Y-61325411D01*
X121369999Y-61326442D01*
X121370000Y-61326442D01*
X121422007Y-61337023D01*
X121586577Y-61370505D01*
X121714291Y-61375188D01*
X121807447Y-61378604D01*
X121807451Y-61378604D01*
X121812611Y-61378793D01*
X121817731Y-61378137D01*
X121817733Y-61378137D01*
X122031835Y-61350710D01*
X122031836Y-61350710D01*
X122036963Y-61350053D01*
X122045999Y-61347342D01*
X122248653Y-61286543D01*
X122248658Y-61286541D01*
X122253608Y-61285056D01*
X122456729Y-61185548D01*
X122460934Y-61182548D01*
X122460940Y-61182545D01*
X122636666Y-61057201D01*
X122636668Y-61057199D01*
X122640870Y-61054202D01*
X122801086Y-60894544D01*
X122933074Y-60710863D01*
X122974667Y-60626708D01*
X123030997Y-60512733D01*
X123030999Y-60512728D01*
X123033291Y-60508091D01*
X123099043Y-60291673D01*
X123099718Y-60286547D01*
X123128129Y-60070745D01*
X123128130Y-60070739D01*
X123128566Y-60067423D01*
X123129557Y-60026880D01*
X123130132Y-60003364D01*
X123130132Y-60003360D01*
X123130214Y-60000000D01*
X123111681Y-59774575D01*
X123056579Y-59555204D01*
X122966387Y-59347779D01*
X122843529Y-59157869D01*
X122823332Y-59135672D01*
X122694782Y-58994397D01*
X122694780Y-58994395D01*
X122691304Y-58990575D01*
X122687253Y-58987376D01*
X122687249Y-58987372D01*
X122517854Y-58853592D01*
X122517850Y-58853590D01*
X122513799Y-58850390D01*
X122315782Y-58741079D01*
X122310913Y-58739355D01*
X122310909Y-58739353D01*
X122107439Y-58667301D01*
X122107437Y-58667300D01*
X122102570Y-58665577D01*
X122097484Y-58664671D01*
X122097480Y-58664670D01*
X121896558Y-58628880D01*
X121829559Y-58593928D01*
X121035631Y-57800000D01*
X140444564Y-57800000D01*
X140464287Y-58100920D01*
X140465089Y-58104953D01*
X140465090Y-58104959D01*
X140522314Y-58392641D01*
X140523120Y-58396691D01*
X140524447Y-58400600D01*
X140524448Y-58400604D01*
X140614980Y-58667301D01*
X140620055Y-58682252D01*
X140642434Y-58727632D01*
X140742451Y-58930446D01*
X140753434Y-58952718D01*
X140920975Y-59203461D01*
X140923689Y-59206555D01*
X140923693Y-59206561D01*
X141061002Y-59363131D01*
X141119811Y-59430189D01*
X141122900Y-59432898D01*
X141343439Y-59626307D01*
X141343445Y-59626311D01*
X141346539Y-59629025D01*
X141349965Y-59631314D01*
X141349970Y-59631318D01*
X141507224Y-59736391D01*
X141597282Y-59796566D01*
X141600981Y-59798390D01*
X141600986Y-59798393D01*
X141739834Y-59866865D01*
X141867748Y-59929945D01*
X141871653Y-59931271D01*
X141871654Y-59931271D01*
X142149396Y-60025552D01*
X142149400Y-60025553D01*
X142153309Y-60026880D01*
X142157353Y-60027684D01*
X142157359Y-60027686D01*
X142445041Y-60084910D01*
X142445047Y-60084911D01*
X142449080Y-60085713D01*
X142453185Y-60085982D01*
X142453192Y-60085983D01*
X142672641Y-60100366D01*
X142672650Y-60100366D01*
X142674690Y-60100500D01*
X142825310Y-60100500D01*
X142827350Y-60100366D01*
X142827359Y-60100366D01*
X143046808Y-60085983D01*
X143046815Y-60085982D01*
X143050920Y-60085713D01*
X143054953Y-60084911D01*
X143054959Y-60084910D01*
X143342641Y-60027686D01*
X143342647Y-60027684D01*
X143346691Y-60026880D01*
X143350600Y-60025553D01*
X143350604Y-60025552D01*
X143628346Y-59931271D01*
X143628347Y-59931271D01*
X143632252Y-59929945D01*
X143760166Y-59866865D01*
X143899014Y-59798393D01*
X143899019Y-59798390D01*
X143902718Y-59796566D01*
X143992776Y-59736391D01*
X144150030Y-59631318D01*
X144150035Y-59631314D01*
X144153461Y-59629025D01*
X144156555Y-59626311D01*
X144156561Y-59626307D01*
X144377100Y-59432898D01*
X144380189Y-59430189D01*
X144438998Y-59363131D01*
X144576307Y-59206561D01*
X144576311Y-59206555D01*
X144579025Y-59203461D01*
X144746566Y-58952718D01*
X144757550Y-58930446D01*
X144857566Y-58727632D01*
X144879945Y-58682252D01*
X144885020Y-58667301D01*
X144975552Y-58400604D01*
X144975553Y-58400600D01*
X144976880Y-58396691D01*
X144977686Y-58392641D01*
X145034910Y-58104959D01*
X145034911Y-58104953D01*
X145035713Y-58100920D01*
X145055436Y-57800000D01*
X145035713Y-57499080D01*
X144976880Y-57203309D01*
X144891027Y-56950393D01*
X144881271Y-56921654D01*
X144881271Y-56921653D01*
X144879945Y-56917748D01*
X144810352Y-56776628D01*
X144748393Y-56650986D01*
X144748390Y-56650981D01*
X144746566Y-56647282D01*
X144579025Y-56396539D01*
X144576311Y-56393445D01*
X144576307Y-56393439D01*
X144382898Y-56172900D01*
X144380189Y-56169811D01*
X144377100Y-56167102D01*
X144156561Y-55973693D01*
X144156555Y-55973689D01*
X144153461Y-55970975D01*
X144150035Y-55968686D01*
X144150030Y-55968682D01*
X143906151Y-55805728D01*
X143902718Y-55803434D01*
X143899019Y-55801610D01*
X143899014Y-55801607D01*
X143760166Y-55733135D01*
X143632252Y-55670055D01*
X143628346Y-55668729D01*
X143350604Y-55574448D01*
X143350600Y-55574447D01*
X143346691Y-55573120D01*
X143342647Y-55572316D01*
X143342641Y-55572314D01*
X143054959Y-55515090D01*
X143054953Y-55515089D01*
X143050920Y-55514287D01*
X143046815Y-55514018D01*
X143046808Y-55514017D01*
X142827359Y-55499634D01*
X142827350Y-55499634D01*
X142825310Y-55499500D01*
X142674690Y-55499500D01*
X142672650Y-55499634D01*
X142672641Y-55499634D01*
X142453192Y-55514017D01*
X142453185Y-55514018D01*
X142449080Y-55514287D01*
X142445047Y-55515089D01*
X142445041Y-55515090D01*
X142157359Y-55572314D01*
X142157353Y-55572316D01*
X142153309Y-55573120D01*
X142149400Y-55574447D01*
X142149396Y-55574448D01*
X141871654Y-55668729D01*
X141867748Y-55670055D01*
X141739834Y-55733135D01*
X141600986Y-55801607D01*
X141600981Y-55801610D01*
X141597282Y-55803434D01*
X141593849Y-55805728D01*
X141349970Y-55968682D01*
X141349965Y-55968686D01*
X141346539Y-55970975D01*
X141343445Y-55973689D01*
X141343439Y-55973693D01*
X141122900Y-56167102D01*
X141119811Y-56169811D01*
X141117102Y-56172900D01*
X140923693Y-56393439D01*
X140923689Y-56393445D01*
X140920975Y-56396539D01*
X140753434Y-56647282D01*
X140751610Y-56650981D01*
X140751607Y-56650986D01*
X140689648Y-56776628D01*
X140620055Y-56917748D01*
X140618729Y-56921653D01*
X140618729Y-56921654D01*
X140608974Y-56950393D01*
X140523120Y-57203309D01*
X140464287Y-57499080D01*
X140444564Y-57800000D01*
X121035631Y-57800000D01*
X120196168Y-56960536D01*
X120187066Y-56950393D01*
X120166050Y-56924254D01*
X120166049Y-56924253D01*
X120162185Y-56919447D01*
X120122180Y-56885879D01*
X120118548Y-56882710D01*
X120116338Y-56880706D01*
X120114159Y-56878527D01*
X120079502Y-56850060D01*
X120078614Y-56849323D01*
X120004370Y-56787024D01*
X119999506Y-56784350D01*
X119995217Y-56780827D01*
X119909770Y-56735011D01*
X119908768Y-56734466D01*
X119829251Y-56690751D01*
X119829244Y-56690748D01*
X119823838Y-56687776D01*
X119818547Y-56686098D01*
X119813656Y-56683475D01*
X119807764Y-56681673D01*
X119807760Y-56681672D01*
X119721037Y-56655158D01*
X119719778Y-56654766D01*
X119684393Y-56643542D01*
X119627468Y-56625484D01*
X119621954Y-56624866D01*
X119616644Y-56623242D01*
X119520173Y-56613442D01*
X119519038Y-56613321D01*
X119488366Y-56609881D01*
X119470634Y-56607892D01*
X119470628Y-56607892D01*
X119467136Y-56607500D01*
X119463610Y-56607500D01*
X119462141Y-56607418D01*
X119456455Y-56606971D01*
X119431916Y-56604478D01*
X119417811Y-56603045D01*
X119417808Y-56603045D01*
X119411685Y-56602423D01*
X119367846Y-56606567D01*
X119363890Y-56606941D01*
X119352032Y-56607500D01*
X117158132Y-56607500D01*
X117144524Y-56606763D01*
X117111178Y-56603140D01*
X117111174Y-56603140D01*
X117105053Y-56602475D01*
X117087168Y-56604040D01*
X117053028Y-56607026D01*
X117048204Y-56607355D01*
X117045241Y-56607500D01*
X117042159Y-56607500D01*
X117035152Y-56608187D01*
X116997608Y-56611868D01*
X116996295Y-56611990D01*
X116949414Y-56616092D01*
X116899824Y-56620430D01*
X116894495Y-56621978D01*
X116888970Y-56622520D01*
X116796187Y-56650533D01*
X116795045Y-56650871D01*
X116701990Y-56677906D01*
X116697060Y-56680462D01*
X116691749Y-56682065D01*
X116686302Y-56684961D01*
X116686300Y-56684962D01*
X116606177Y-56727563D01*
X116605011Y-56728175D01*
X116579379Y-56741462D01*
X116519088Y-56772714D01*
X116514753Y-56776174D01*
X116509849Y-56778782D01*
X116505079Y-56782672D01*
X116505078Y-56782673D01*
X116434710Y-56840064D01*
X116433683Y-56840892D01*
X116422120Y-56850123D01*
X116393000Y-56873369D01*
X116390508Y-56875861D01*
X116389421Y-56876833D01*
X116385072Y-56880548D01*
X116354975Y-56905094D01*
X116354972Y-56905097D01*
X116350200Y-56908989D01*
X116346273Y-56913736D01*
X116346271Y-56913738D01*
X116319596Y-56945983D01*
X116311606Y-56954763D01*
X115126537Y-58139831D01*
X115116394Y-58148933D01*
X115085447Y-58173815D01*
X115051890Y-58213807D01*
X115048710Y-58217452D01*
X115046706Y-58219662D01*
X115044527Y-58221841D01*
X115016060Y-58256498D01*
X115015323Y-58257386D01*
X114953024Y-58331630D01*
X114950350Y-58336494D01*
X114946827Y-58340783D01*
X114901011Y-58426230D01*
X114900466Y-58427232D01*
X114856751Y-58506749D01*
X114856748Y-58506756D01*
X114853776Y-58512162D01*
X114852098Y-58517453D01*
X114849475Y-58522344D01*
X114847673Y-58528236D01*
X114847672Y-58528240D01*
X114821158Y-58614963D01*
X114820766Y-58616222D01*
X114791484Y-58708532D01*
X114790866Y-58714046D01*
X114789242Y-58719356D01*
X114787036Y-58741079D01*
X114779450Y-58815756D01*
X114779321Y-58816962D01*
X114773500Y-58868864D01*
X114773500Y-58872390D01*
X114773418Y-58873859D01*
X114772971Y-58879545D01*
X114768423Y-58924315D01*
X114772248Y-58964774D01*
X114772941Y-58972110D01*
X114773500Y-58983968D01*
X114773500Y-65738434D01*
X114753498Y-65806555D01*
X114699842Y-65853048D01*
X114629568Y-65863152D01*
X114561167Y-65830209D01*
X114452256Y-65727756D01*
X114448849Y-65724551D01*
X114331901Y-65643421D01*
X114246237Y-65583994D01*
X114246232Y-65583991D01*
X114242399Y-65581332D01*
X114238208Y-65579265D01*
X114021236Y-65472266D01*
X114021233Y-65472265D01*
X114017048Y-65470201D01*
X113991941Y-65462164D01*
X113899257Y-65432496D01*
X113777746Y-65393600D01*
X113773139Y-65392850D01*
X113773136Y-65392849D01*
X113577238Y-65360945D01*
X113529750Y-65353211D01*
X113407730Y-65351614D01*
X113283185Y-65349983D01*
X113283182Y-65349983D01*
X113278508Y-65349922D01*
X113029540Y-65383805D01*
X113025054Y-65385113D01*
X113025052Y-65385113D01*
X112998511Y-65392849D01*
X112788314Y-65454116D01*
X112784061Y-65456076D01*
X112784060Y-65456077D01*
X112756510Y-65468778D01*
X112560131Y-65559310D01*
X112556222Y-65561873D01*
X112353916Y-65694510D01*
X112353911Y-65694514D01*
X112350003Y-65697076D01*
X112346511Y-65700193D01*
X112206666Y-65825009D01*
X112162546Y-65864387D01*
X112001879Y-66057569D01*
X111999456Y-66061562D01*
X111892022Y-66238608D01*
X111871530Y-66272377D01*
X111869724Y-66276685D01*
X111869723Y-66276686D01*
X111797611Y-66448654D01*
X111752822Y-66503740D01*
X111685362Y-66525866D01*
X111616648Y-66508008D01*
X111568497Y-66455836D01*
X111563981Y-66445595D01*
X111513792Y-66316533D01*
X111513791Y-66316530D01*
X111512099Y-66312180D01*
X111491813Y-66276686D01*
X111405839Y-66126264D01*
X111387418Y-66094034D01*
X111231862Y-65896712D01*
X111048849Y-65724551D01*
X110931901Y-65643421D01*
X110846237Y-65583994D01*
X110846232Y-65583991D01*
X110842399Y-65581332D01*
X110838208Y-65579265D01*
X110621236Y-65472266D01*
X110621233Y-65472265D01*
X110617048Y-65470201D01*
X110591941Y-65462164D01*
X110499257Y-65432496D01*
X110377746Y-65393600D01*
X110373139Y-65392850D01*
X110373136Y-65392849D01*
X110177238Y-65360945D01*
X110129750Y-65353211D01*
X110007730Y-65351614D01*
X109883185Y-65349983D01*
X109883182Y-65349983D01*
X109878508Y-65349922D01*
X109629540Y-65383805D01*
X109625054Y-65385113D01*
X109625052Y-65385113D01*
X109598511Y-65392849D01*
X109388314Y-65454116D01*
X109384061Y-65456076D01*
X109384060Y-65456077D01*
X109356510Y-65468778D01*
X109160131Y-65559310D01*
X109156222Y-65561873D01*
X108953916Y-65694510D01*
X108953911Y-65694514D01*
X108950003Y-65697076D01*
X108946511Y-65700193D01*
X108806666Y-65825009D01*
X108762546Y-65864387D01*
X108601879Y-66057569D01*
X108599456Y-66061562D01*
X108484219Y-66251466D01*
X108431780Y-66299326D01*
X108361789Y-66311238D01*
X108296470Y-66283420D01*
X108256559Y-66224703D01*
X108250500Y-66186100D01*
X108250500Y-57800000D01*
X108944564Y-57800000D01*
X108964287Y-58100920D01*
X108965089Y-58104953D01*
X108965090Y-58104959D01*
X109022314Y-58392641D01*
X109023120Y-58396691D01*
X109024447Y-58400600D01*
X109024448Y-58400604D01*
X109114980Y-58667301D01*
X109120055Y-58682252D01*
X109142434Y-58727632D01*
X109242451Y-58930446D01*
X109253434Y-58952718D01*
X109420975Y-59203461D01*
X109423689Y-59206555D01*
X109423693Y-59206561D01*
X109561002Y-59363131D01*
X109619811Y-59430189D01*
X109622900Y-59432898D01*
X109843439Y-59626307D01*
X109843445Y-59626311D01*
X109846539Y-59629025D01*
X109849965Y-59631314D01*
X109849970Y-59631318D01*
X110007224Y-59736391D01*
X110097282Y-59796566D01*
X110100981Y-59798390D01*
X110100986Y-59798393D01*
X110239834Y-59866865D01*
X110367748Y-59929945D01*
X110371653Y-59931271D01*
X110371654Y-59931271D01*
X110649396Y-60025552D01*
X110649400Y-60025553D01*
X110653309Y-60026880D01*
X110657353Y-60027684D01*
X110657359Y-60027686D01*
X110945041Y-60084910D01*
X110945047Y-60084911D01*
X110949080Y-60085713D01*
X110953185Y-60085982D01*
X110953192Y-60085983D01*
X111172641Y-60100366D01*
X111172650Y-60100366D01*
X111174690Y-60100500D01*
X111325310Y-60100500D01*
X111327350Y-60100366D01*
X111327359Y-60100366D01*
X111546808Y-60085983D01*
X111546815Y-60085982D01*
X111550920Y-60085713D01*
X111554953Y-60084911D01*
X111554959Y-60084910D01*
X111842641Y-60027686D01*
X111842647Y-60027684D01*
X111846691Y-60026880D01*
X111850600Y-60025553D01*
X111850604Y-60025552D01*
X112128346Y-59931271D01*
X112128347Y-59931271D01*
X112132252Y-59929945D01*
X112260166Y-59866865D01*
X112399014Y-59798393D01*
X112399019Y-59798390D01*
X112402718Y-59796566D01*
X112492776Y-59736391D01*
X112650030Y-59631318D01*
X112650035Y-59631314D01*
X112653461Y-59629025D01*
X112656555Y-59626311D01*
X112656561Y-59626307D01*
X112877100Y-59432898D01*
X112880189Y-59430189D01*
X112938998Y-59363131D01*
X113076307Y-59206561D01*
X113076311Y-59206555D01*
X113079025Y-59203461D01*
X113246566Y-58952718D01*
X113257550Y-58930446D01*
X113357566Y-58727632D01*
X113379945Y-58682252D01*
X113385020Y-58667301D01*
X113475552Y-58400604D01*
X113475553Y-58400600D01*
X113476880Y-58396691D01*
X113477686Y-58392641D01*
X113534910Y-58104959D01*
X113534911Y-58104953D01*
X113535713Y-58100920D01*
X113555436Y-57800000D01*
X113535713Y-57499080D01*
X113476880Y-57203309D01*
X113391027Y-56950393D01*
X113381271Y-56921654D01*
X113381271Y-56921653D01*
X113379945Y-56917748D01*
X113310352Y-56776628D01*
X113248393Y-56650986D01*
X113248390Y-56650981D01*
X113246566Y-56647282D01*
X113079025Y-56396539D01*
X113076311Y-56393445D01*
X113076307Y-56393439D01*
X112882898Y-56172900D01*
X112880189Y-56169811D01*
X112877100Y-56167102D01*
X112656561Y-55973693D01*
X112656555Y-55973689D01*
X112653461Y-55970975D01*
X112650035Y-55968686D01*
X112650030Y-55968682D01*
X112406151Y-55805728D01*
X112402718Y-55803434D01*
X112399019Y-55801610D01*
X112399014Y-55801607D01*
X112260166Y-55733135D01*
X112132252Y-55670055D01*
X112128346Y-55668729D01*
X111850604Y-55574448D01*
X111850600Y-55574447D01*
X111846691Y-55573120D01*
X111842647Y-55572316D01*
X111842641Y-55572314D01*
X111554959Y-55515090D01*
X111554953Y-55515089D01*
X111550920Y-55514287D01*
X111546815Y-55514018D01*
X111546808Y-55514017D01*
X111327359Y-55499634D01*
X111327350Y-55499634D01*
X111325310Y-55499500D01*
X111174690Y-55499500D01*
X111172650Y-55499634D01*
X111172641Y-55499634D01*
X110953192Y-55514017D01*
X110953185Y-55514018D01*
X110949080Y-55514287D01*
X110945047Y-55515089D01*
X110945041Y-55515090D01*
X110657359Y-55572314D01*
X110657353Y-55572316D01*
X110653309Y-55573120D01*
X110649400Y-55574447D01*
X110649396Y-55574448D01*
X110371654Y-55668729D01*
X110367748Y-55670055D01*
X110239834Y-55733135D01*
X110100986Y-55801607D01*
X110100981Y-55801610D01*
X110097282Y-55803434D01*
X110093849Y-55805728D01*
X109849970Y-55968682D01*
X109849965Y-55968686D01*
X109846539Y-55970975D01*
X109843445Y-55973689D01*
X109843439Y-55973693D01*
X109622900Y-56167102D01*
X109619811Y-56169811D01*
X109617102Y-56172900D01*
X109423693Y-56393439D01*
X109423689Y-56393445D01*
X109420975Y-56396539D01*
X109253434Y-56647282D01*
X109251610Y-56650981D01*
X109251607Y-56650986D01*
X109189648Y-56776628D01*
X109120055Y-56917748D01*
X109118729Y-56921653D01*
X109118729Y-56921654D01*
X109108974Y-56950393D01*
X109023120Y-57203309D01*
X108964287Y-57499080D01*
X108944564Y-57800000D01*
X108250500Y-57800000D01*
X108250500Y-52496500D01*
X108270502Y-52428379D01*
X108324158Y-52381886D01*
X108376500Y-52370500D01*
X145623500Y-52370500D01*
X145691621Y-52390502D01*
G37*
G04 #@! TD.AperFunction*
G04 #@! TA.AperFunction,Conductor*
G36*
X141587629Y-91495192D02*
G01*
X141639049Y-91530998D01*
X141651890Y-91545900D01*
X141661902Y-91557520D01*
X141669430Y-91562400D01*
X141676200Y-91568305D01*
X141676163Y-91568347D01*
X141686890Y-91577026D01*
X141968769Y-91858905D01*
X142002795Y-91921217D01*
X141997730Y-91992032D01*
X141968769Y-92037095D01*
X140296769Y-93709095D01*
X140234457Y-93743121D01*
X140207674Y-93746000D01*
X133987589Y-93746000D01*
X133919468Y-93725998D01*
X133872975Y-93672342D01*
X133862871Y-93602068D01*
X133892365Y-93537488D01*
X133898494Y-93530905D01*
X134083338Y-93346061D01*
X134145650Y-93312035D01*
X134155986Y-93310234D01*
X134263177Y-93296122D01*
X134271365Y-93295044D01*
X134417444Y-93234536D01*
X134542885Y-93138282D01*
X134639139Y-93012841D01*
X134699647Y-92866762D01*
X134720285Y-92710000D01*
X134708377Y-92619546D01*
X134719317Y-92549397D01*
X134766445Y-92496299D01*
X134833299Y-92477100D01*
X140398687Y-92477100D01*
X140408119Y-92474035D01*
X140408121Y-92474035D01*
X140419726Y-92470264D01*
X140438952Y-92465648D01*
X140451013Y-92463738D01*
X140451014Y-92463738D01*
X140460805Y-92462187D01*
X140469638Y-92457686D01*
X140469645Y-92457684D01*
X140480522Y-92452142D01*
X140498781Y-92444578D01*
X140519825Y-92437740D01*
X140527851Y-92431909D01*
X140537726Y-92424735D01*
X140554583Y-92414405D01*
X140565459Y-92408863D01*
X140565460Y-92408862D01*
X140574294Y-92404361D01*
X141454502Y-91524153D01*
X141516814Y-91490127D01*
X141587629Y-91495192D01*
G37*
G04 #@! TD.AperFunction*
G04 #@! TA.AperFunction,Conductor*
G36*
X128904012Y-75645926D02*
G01*
X128926584Y-75674768D01*
X128927142Y-75674362D01*
X128932968Y-75682381D01*
X128937472Y-75691220D01*
X129200206Y-75953954D01*
X129234232Y-76016266D01*
X129237111Y-76043049D01*
X129237111Y-77363162D01*
X129217109Y-77431283D01*
X129163453Y-77477776D01*
X129093179Y-77487880D01*
X129028599Y-77458386D01*
X129022015Y-77452257D01*
X128732404Y-77162645D01*
X128698379Y-77100333D01*
X128695500Y-77073550D01*
X128695500Y-75741150D01*
X128715502Y-75673029D01*
X128769158Y-75626536D01*
X128839432Y-75616432D01*
X128904012Y-75645926D01*
G37*
G04 #@! TD.AperFunction*
G04 #@! TA.AperFunction,Conductor*
G36*
X108459012Y-88708121D02*
G01*
X108465595Y-88714250D01*
X109960893Y-90209548D01*
X109994919Y-90271860D01*
X109989854Y-90342675D01*
X109947307Y-90399511D01*
X109938778Y-90405136D01*
X109933159Y-90407464D01*
X109926610Y-90412490D01*
X109926607Y-90412491D01*
X109919474Y-90417964D01*
X109853254Y-90443563D01*
X109842772Y-90444000D01*
X109034775Y-90444000D01*
X109023289Y-90442716D01*
X109023244Y-90443271D01*
X109014293Y-90442551D01*
X109005539Y-90440570D01*
X108957298Y-90443563D01*
X108954155Y-90443758D01*
X108946353Y-90444000D01*
X108930961Y-90444000D01*
X108921219Y-90445395D01*
X108911165Y-90446425D01*
X108874980Y-90448670D01*
X108874978Y-90448670D01*
X108866022Y-90449226D01*
X108857582Y-90452273D01*
X108852617Y-90453301D01*
X108841388Y-90456101D01*
X108836515Y-90457526D01*
X108827626Y-90458799D01*
X108786437Y-90477527D01*
X108777088Y-90481332D01*
X108734543Y-90496691D01*
X108727296Y-90501985D01*
X108722805Y-90504373D01*
X108712828Y-90510203D01*
X108708546Y-90512941D01*
X108700376Y-90516656D01*
X108666102Y-90546188D01*
X108658190Y-90552470D01*
X108647811Y-90560053D01*
X108637418Y-90570446D01*
X108630571Y-90576804D01*
X108601278Y-90602044D01*
X108601276Y-90602046D01*
X108594480Y-90607902D01*
X108589600Y-90615431D01*
X108583695Y-90622200D01*
X108583653Y-90622163D01*
X108574974Y-90632890D01*
X108465595Y-90742269D01*
X108403283Y-90776295D01*
X108332468Y-90771230D01*
X108275632Y-90728683D01*
X108250821Y-90662163D01*
X108250500Y-90653174D01*
X108250500Y-88803345D01*
X108270502Y-88735224D01*
X108324158Y-88688731D01*
X108394432Y-88678627D01*
X108459012Y-88708121D01*
G37*
G04 #@! TD.AperFunction*
G04 #@! TA.AperFunction,Conductor*
G36*
X111751200Y-67581106D02*
G01*
X111797969Y-67634522D01*
X111802211Y-67644866D01*
X111833321Y-67731516D01*
X111952249Y-67952852D01*
X111955044Y-67956596D01*
X111955046Y-67956598D01*
X112024034Y-68048984D01*
X112102586Y-68154178D01*
X112281030Y-68331071D01*
X112284792Y-68333829D01*
X112284795Y-68333832D01*
X112307919Y-68350787D01*
X112483660Y-68479645D01*
X112487803Y-68481825D01*
X112487805Y-68481826D01*
X112701875Y-68594454D01*
X112701880Y-68594456D01*
X112706025Y-68596637D01*
X112710448Y-68598182D01*
X112710449Y-68598182D01*
X112838889Y-68643035D01*
X112943240Y-68679476D01*
X113190093Y-68726343D01*
X113309313Y-68731027D01*
X113436495Y-68736024D01*
X113436500Y-68736024D01*
X113441163Y-68736207D01*
X113519562Y-68727621D01*
X113686280Y-68709363D01*
X113686286Y-68709362D01*
X113690933Y-68708853D01*
X113808372Y-68677934D01*
X113929393Y-68646072D01*
X113929395Y-68646071D01*
X113933916Y-68644881D01*
X114164775Y-68545696D01*
X114275984Y-68476878D01*
X114374464Y-68415937D01*
X114374468Y-68415934D01*
X114378437Y-68413478D01*
X114566087Y-68254620D01*
X114631004Y-68225871D01*
X114701157Y-68236783D01*
X114754275Y-68283890D01*
X114773500Y-68350787D01*
X114773500Y-75366857D01*
X114753498Y-75434978D01*
X114736595Y-75455952D01*
X114581816Y-75610731D01*
X114519504Y-75644757D01*
X114448689Y-75639692D01*
X114420901Y-75625163D01*
X114400098Y-75610731D01*
X114242399Y-75501332D01*
X114228442Y-75494449D01*
X114021236Y-75392266D01*
X114021233Y-75392265D01*
X114017048Y-75390201D01*
X114000129Y-75384785D01*
X113814581Y-75325391D01*
X113777746Y-75313600D01*
X113773139Y-75312850D01*
X113773136Y-75312849D01*
X113534361Y-75273962D01*
X113534362Y-75273962D01*
X113529750Y-75273211D01*
X113407730Y-75271614D01*
X113283185Y-75269983D01*
X113283182Y-75269983D01*
X113278508Y-75269922D01*
X113029540Y-75303805D01*
X112788314Y-75374116D01*
X112784061Y-75376076D01*
X112784060Y-75376077D01*
X112765171Y-75384785D01*
X112560131Y-75479310D01*
X112556222Y-75481873D01*
X112353916Y-75614510D01*
X112353911Y-75614514D01*
X112350003Y-75617076D01*
X112331511Y-75633581D01*
X112183591Y-75765604D01*
X112162546Y-75784387D01*
X112001879Y-75977569D01*
X111999456Y-75981562D01*
X111887271Y-76166437D01*
X111871530Y-76192377D01*
X111869724Y-76196685D01*
X111869723Y-76196686D01*
X111797611Y-76368654D01*
X111752822Y-76423740D01*
X111685362Y-76445866D01*
X111616648Y-76428008D01*
X111568497Y-76375836D01*
X111563981Y-76365595D01*
X111513792Y-76236533D01*
X111513791Y-76236530D01*
X111512099Y-76232180D01*
X111491813Y-76196686D01*
X111389737Y-76018092D01*
X111387418Y-76014034D01*
X111231862Y-75816712D01*
X111048849Y-75644551D01*
X110931901Y-75563421D01*
X110846237Y-75503994D01*
X110846232Y-75503991D01*
X110842399Y-75501332D01*
X110828442Y-75494449D01*
X110621236Y-75392266D01*
X110621233Y-75392265D01*
X110617048Y-75390201D01*
X110600129Y-75384785D01*
X110414581Y-75325391D01*
X110377746Y-75313600D01*
X110373139Y-75312850D01*
X110373136Y-75312849D01*
X110134361Y-75273962D01*
X110134362Y-75273962D01*
X110129750Y-75273211D01*
X110007730Y-75271614D01*
X109883185Y-75269983D01*
X109883182Y-75269983D01*
X109878508Y-75269922D01*
X109629540Y-75303805D01*
X109388314Y-75374116D01*
X109384061Y-75376076D01*
X109384060Y-75376077D01*
X109365171Y-75384785D01*
X109160131Y-75479310D01*
X109156222Y-75481873D01*
X108953916Y-75614510D01*
X108953911Y-75614514D01*
X108950003Y-75617076D01*
X108931511Y-75633581D01*
X108783591Y-75765604D01*
X108762546Y-75784387D01*
X108601879Y-75977569D01*
X108599456Y-75981562D01*
X108484219Y-76171466D01*
X108431780Y-76219326D01*
X108361789Y-76231238D01*
X108296470Y-76203420D01*
X108256559Y-76144703D01*
X108250500Y-76106100D01*
X108250500Y-67891971D01*
X108270502Y-67823850D01*
X108324158Y-67777357D01*
X108394432Y-67767253D01*
X108459012Y-67796747D01*
X108487492Y-67832333D01*
X108550035Y-67948731D01*
X108552249Y-67952852D01*
X108555044Y-67956596D01*
X108555046Y-67956598D01*
X108624034Y-68048984D01*
X108702586Y-68154178D01*
X108881030Y-68331071D01*
X108884792Y-68333829D01*
X108884795Y-68333832D01*
X108907919Y-68350787D01*
X109083660Y-68479645D01*
X109087803Y-68481825D01*
X109087805Y-68481826D01*
X109301875Y-68594454D01*
X109301880Y-68594456D01*
X109306025Y-68596637D01*
X109310448Y-68598182D01*
X109310449Y-68598182D01*
X109438889Y-68643035D01*
X109543240Y-68679476D01*
X109790093Y-68726343D01*
X109909313Y-68731027D01*
X110036495Y-68736024D01*
X110036500Y-68736024D01*
X110041163Y-68736207D01*
X110119562Y-68727621D01*
X110286280Y-68709363D01*
X110286286Y-68709362D01*
X110290933Y-68708853D01*
X110408372Y-68677934D01*
X110529393Y-68646072D01*
X110529395Y-68646071D01*
X110533916Y-68644881D01*
X110764775Y-68545696D01*
X110875984Y-68476878D01*
X110974464Y-68415937D01*
X110974468Y-68415934D01*
X110978437Y-68413478D01*
X111170209Y-68251131D01*
X111258513Y-68150440D01*
X111332797Y-68065736D01*
X111332801Y-68065731D01*
X111335879Y-68062221D01*
X111471806Y-67850899D01*
X111568745Y-67635703D01*
X111614961Y-67581809D01*
X111682977Y-67561456D01*
X111751200Y-67581106D01*
G37*
G04 #@! TD.AperFunction*
M02*
