M48
; DRILL file {KiCad 6.0.4-6f826c9f35~116~ubuntu18.04.1} date Вс 10 апр 2022 17:09:31
; FORMAT={-:-/ absolute / inch / decimal}
; #@! TF.CreationDate,2022-04-10T17:09:31+03:00
; #@! TF.GenerationSoftware,Kicad,Pcbnew,6.0.4-6f826c9f35~116~ubuntu18.04.1
; #@! TF.FileFunction,Plated,1,4,PTH
FMAT,2
INCH
; #@! TA.AperFunction,Plated,PTH,ViaDrill
T1C0.0118
; #@! TA.AperFunction,Plated,PTH,ComponentDrill
T2C0.0394
; #@! TA.AperFunction,Plated,PTH,ComponentDrill
T3C0.0571
; #@! TA.AperFunction,Plated,PTH,ComponentDrill
T4C0.0701
%
G90
G05
T1
X4.28Y-2.71
X4.28Y-2.76
X4.28Y-2.805
X4.28Y-2.85
X4.28Y-2.9
X4.28Y-2.95
X4.2994Y-3.5526
X4.3Y-2.42
X4.3Y-2.53
X4.32Y-4.07
X4.32Y-4.13
X4.34Y-3.42
X4.34Y-3.58
X4.37Y-3.42
X4.37Y-3.73
X4.37Y-3.77
X4.37Y-3.81
X4.37Y-4.03
X4.37Y-4.3
X4.39Y-2.42
X4.39Y-2.53
X4.4Y-2.1
X4.4Y-3.42
X4.405Y-4.07
X4.42Y-4.3
X4.43Y-3.42
X4.4394Y-3.7026
X4.4592Y-3.7992
X4.46Y-3.42
X4.47Y-4.3
X4.48Y-3.6991
X4.48Y-4.07
X4.49Y-3.8
X4.5Y-2.1
X4.5Y-3.74
X4.53Y-3.8023
X4.55Y-3.18
X4.55Y-3.24
X4.55Y-3.27
X4.55Y-3.3
X4.55Y-4.07
X4.57Y-4.3
X4.5874Y-3.945
X4.59Y-3.37
X4.6Y-2.1
X4.605Y-4.07
X4.62Y-2.43
X4.62Y-3.37
X4.6274Y-3.91
X4.65Y-3.37
X4.665Y-4.07
X4.6774Y-3.825
X4.6774Y-4.025
X4.68Y-3.37
X4.69Y-4.19
X4.7Y-2.1
X4.71Y-3.37
X4.71Y-3.7382
X4.71Y-3.78
X4.7201Y-4.2
X4.73Y-2.43
X4.74Y-3.37
X4.74Y-4.26
X4.74Y-4.3
X4.76Y-2.94
X4.76Y-2.97
X4.76Y-3.0
X4.77Y-3.37
X4.78Y-3.14
X4.79Y-4.22
X4.79Y-4.26
X4.79Y-4.3
X4.8Y-2.1
X4.8074Y-3.855
X4.8074Y-3.995
X4.82Y-3.5699
X4.82Y-3.6
X4.83Y-2.43
X4.84Y-3.77
X4.84Y-4.22
X4.84Y-4.26
X4.84Y-4.3
X4.85Y-3.16
X4.87Y-2.6
X4.87Y-2.83
X4.87Y-2.89
X4.88Y-2.93
X4.89Y-4.22
X4.89Y-4.26
X4.9Y-2.1
X4.9Y-3.38
X4.915Y-4.1177
X4.915Y-4.44
X4.92Y-3.77
X4.94Y-4.22
X4.95Y-4.12
X4.9501Y-3.77
X4.96Y-3.38
X4.98Y-2.62
X4.98Y-3.6
X4.98Y-3.6301
X4.99Y-3.77
X4.99Y-3.81
X5.0Y-2.1
X5.0Y-2.31
X5.0Y-3.1
X5.01Y-3.9
X5.01Y-3.94
X5.015Y-2.595
X5.015Y-2.825
X5.015Y-4.44
X5.025Y-2.86
X5.04Y-2.43
X5.045Y-3.075
X5.055Y-3.3062
X5.055Y-3.4062
X5.0599Y-2.86
X5.06Y-3.21
X5.06Y-3.26
X5.08Y-3.0234
X5.08Y-4.06
X5.0816Y-3.075
X5.09Y-2.86
X5.09Y-3.56
X5.09Y-3.82
X5.09Y-3.9
X5.09Y-3.94
X5.1Y-2.1
X5.11Y-2.43
X5.115Y-4.44
X5.12Y-2.94
X5.1201Y-2.86
X5.13Y-3.38
X5.13Y-3.44
X5.13Y-3.5
X5.13Y-4.06
X5.145Y-3.11
X5.145Y-3.215
X5.145Y-3.29
X5.1487Y-3.0685
X5.15Y-3.84
X5.15Y-3.94
X5.16Y-2.56
X5.17Y-2.43
X5.18Y-3.45
X5.18Y-4.06
X5.1816Y-3.025
X5.19Y-3.5
X5.19Y-3.84
X5.19Y-3.94
X5.2Y-2.1
X5.2Y-3.11
X5.2Y-3.15
X5.21Y-3.29
X5.215Y-4.44
X5.22Y-2.86
X5.225Y-2.765
X5.23Y-3.77
X5.23Y-4.06
X5.25Y-3.17
X5.25Y-3.565
X5.25Y-3.65
X5.2625Y-3.6006
X5.27Y-3.77
X5.27Y-3.99
X5.2801Y-3.65
X5.2943Y-3.6009
X5.3Y-2.1
X5.3Y-3.45
X5.3126Y-3.577
X5.315Y-4.44
X5.3418Y-3.5647
X5.35Y-2.745
X5.36Y-3.235
X5.365Y-3.65
X5.37Y-3.17
X5.38Y-4.09
X5.38Y-4.17
X5.38Y-4.22
X5.38Y-4.27
X5.385Y-3.75
X5.3856Y-2.95
X5.39Y-3.2
X5.4Y-2.1
X5.4Y-2.43
X5.41Y-3.06
X5.415Y-4.44
X5.42Y-3.65
X5.43Y-3.0
X5.44Y-3.75
X5.44Y-3.8
X5.47Y-3.65
X5.47Y-4.22
X5.47Y-4.27
X5.49Y-2.95
X5.49Y-3.94
X5.5Y-2.1
X5.5Y-3.83
X5.51Y-2.46
X5.51Y-2.52
X5.515Y-4.44
X5.53Y-3.06
X5.53Y-4.27
X5.55Y-3.83
X5.55Y-3.88
X5.56Y-3.98
X5.56Y-4.2023
X5.57Y-2.46
X5.59Y-2.89
X5.59Y-2.9591
X5.59Y-3.0591
X5.59Y-3.1
X5.59Y-3.135
X5.59Y-4.27
X5.6Y-2.1
X5.6Y-3.28
X5.61Y-3.79
X5.615Y-4.44
X5.62Y-3.62
X5.62Y-3.66
X5.6211Y-2.555
X5.625Y-3.135
X5.63Y-3.3
X5.63Y-3.46
X5.65Y-4.03
X5.65Y-4.27
X5.66Y-3.135
X5.66Y-3.5
X5.66Y-3.55
X5.675Y-2.47
X5.68Y-3.2
X5.68Y-3.46
X5.7Y-4.03
X5.71Y-4.27
X5.72Y-4.44
T2
X4.766Y-4.388
X4.866Y-4.388
X4.966Y-4.388
X5.066Y-4.388
X5.08Y-4.14
X5.08Y-4.24
X5.166Y-4.388
X5.18Y-4.14
X5.18Y-4.24
X5.266Y-4.388
X5.366Y-4.388
X5.466Y-4.388
X5.566Y-4.388
X5.666Y-4.388
X5.67Y-3.95
X5.67Y-4.1
T3
X4.6555Y-2.3622
X4.6555Y-2.5
X4.7933Y-2.3622
X4.7933Y-2.5
X4.9311Y-2.3622
X4.9311Y-2.5
X5.0689Y-2.3622
X5.0689Y-2.5
X5.2067Y-2.3622
X5.2067Y-2.5
X5.3445Y-2.3622
X5.3445Y-2.5
T4
X4.33Y-2.6394
X4.33Y-3.03
X4.4639Y-2.6394
X4.4639Y-3.03
T0
M30
