G04 #@! TF.GenerationSoftware,KiCad,Pcbnew,(5.1.6)-1*
G04 #@! TF.CreationDate,2021-01-27T01:30:11-05:00*
G04 #@! TF.ProjectId,wideband_controller,77696465-6261-46e6-945f-636f6e74726f,rev?*
G04 #@! TF.SameCoordinates,Original*
G04 #@! TF.FileFunction,Paste,Top*
G04 #@! TF.FilePolarity,Positive*
%FSLAX46Y46*%
G04 Gerber Fmt 4.6, Leading zero omitted, Abs format (unit mm)*
G04 Created by KiCad (PCBNEW (5.1.6)-1) date 2021-01-27 01:30:11*
%MOMM*%
%LPD*%
G01*
G04 APERTURE LIST*
%ADD10R,3.300000X2.500000*%
%ADD11R,0.800000X0.900000*%
%ADD12R,0.900000X0.800000*%
%ADD13R,2.750000X3.050000*%
%ADD14R,1.200000X2.200000*%
%ADD15R,1.700000X1.300000*%
G04 APERTURE END LIST*
G36*
G01*
X113968400Y-111686200D02*
X113968400Y-111986200D01*
G75*
G02*
X113818400Y-112136200I-150000J0D01*
G01*
X112168400Y-112136200D01*
G75*
G02*
X112018400Y-111986200I0J150000D01*
G01*
X112018400Y-111686200D01*
G75*
G02*
X112168400Y-111536200I150000J0D01*
G01*
X113818400Y-111536200D01*
G75*
G02*
X113968400Y-111686200I0J-150000D01*
G01*
G37*
G36*
G01*
X113968400Y-110416200D02*
X113968400Y-110716200D01*
G75*
G02*
X113818400Y-110866200I-150000J0D01*
G01*
X112168400Y-110866200D01*
G75*
G02*
X112018400Y-110716200I0J150000D01*
G01*
X112018400Y-110416200D01*
G75*
G02*
X112168400Y-110266200I150000J0D01*
G01*
X113818400Y-110266200D01*
G75*
G02*
X113968400Y-110416200I0J-150000D01*
G01*
G37*
G36*
G01*
X113968400Y-109146200D02*
X113968400Y-109446200D01*
G75*
G02*
X113818400Y-109596200I-150000J0D01*
G01*
X112168400Y-109596200D01*
G75*
G02*
X112018400Y-109446200I0J150000D01*
G01*
X112018400Y-109146200D01*
G75*
G02*
X112168400Y-108996200I150000J0D01*
G01*
X113818400Y-108996200D01*
G75*
G02*
X113968400Y-109146200I0J-150000D01*
G01*
G37*
G36*
G01*
X113968400Y-107876200D02*
X113968400Y-108176200D01*
G75*
G02*
X113818400Y-108326200I-150000J0D01*
G01*
X112168400Y-108326200D01*
G75*
G02*
X112018400Y-108176200I0J150000D01*
G01*
X112018400Y-107876200D01*
G75*
G02*
X112168400Y-107726200I150000J0D01*
G01*
X113818400Y-107726200D01*
G75*
G02*
X113968400Y-107876200I0J-150000D01*
G01*
G37*
G36*
G01*
X118918400Y-107876200D02*
X118918400Y-108176200D01*
G75*
G02*
X118768400Y-108326200I-150000J0D01*
G01*
X117118400Y-108326200D01*
G75*
G02*
X116968400Y-108176200I0J150000D01*
G01*
X116968400Y-107876200D01*
G75*
G02*
X117118400Y-107726200I150000J0D01*
G01*
X118768400Y-107726200D01*
G75*
G02*
X118918400Y-107876200I0J-150000D01*
G01*
G37*
G36*
G01*
X118918400Y-109146200D02*
X118918400Y-109446200D01*
G75*
G02*
X118768400Y-109596200I-150000J0D01*
G01*
X117118400Y-109596200D01*
G75*
G02*
X116968400Y-109446200I0J150000D01*
G01*
X116968400Y-109146200D01*
G75*
G02*
X117118400Y-108996200I150000J0D01*
G01*
X118768400Y-108996200D01*
G75*
G02*
X118918400Y-109146200I0J-150000D01*
G01*
G37*
G36*
G01*
X118918400Y-110416200D02*
X118918400Y-110716200D01*
G75*
G02*
X118768400Y-110866200I-150000J0D01*
G01*
X117118400Y-110866200D01*
G75*
G02*
X116968400Y-110716200I0J150000D01*
G01*
X116968400Y-110416200D01*
G75*
G02*
X117118400Y-110266200I150000J0D01*
G01*
X118768400Y-110266200D01*
G75*
G02*
X118918400Y-110416200I0J-150000D01*
G01*
G37*
G36*
G01*
X118918400Y-111686200D02*
X118918400Y-111986200D01*
G75*
G02*
X118768400Y-112136200I-150000J0D01*
G01*
X117118400Y-112136200D01*
G75*
G02*
X116968400Y-111986200I0J150000D01*
G01*
X116968400Y-111686200D01*
G75*
G02*
X117118400Y-111536200I150000J0D01*
G01*
X118768400Y-111536200D01*
G75*
G02*
X118918400Y-111686200I0J-150000D01*
G01*
G37*
G36*
G01*
X109174500Y-62547000D02*
X109519500Y-62547000D01*
G75*
G02*
X109667000Y-62694500I0J-147500D01*
G01*
X109667000Y-62989500D01*
G75*
G02*
X109519500Y-63137000I-147500J0D01*
G01*
X109174500Y-63137000D01*
G75*
G02*
X109027000Y-62989500I0J147500D01*
G01*
X109027000Y-62694500D01*
G75*
G02*
X109174500Y-62547000I147500J0D01*
G01*
G37*
G36*
G01*
X109174500Y-61577000D02*
X109519500Y-61577000D01*
G75*
G02*
X109667000Y-61724500I0J-147500D01*
G01*
X109667000Y-62019500D01*
G75*
G02*
X109519500Y-62167000I-147500J0D01*
G01*
X109174500Y-62167000D01*
G75*
G02*
X109027000Y-62019500I0J147500D01*
G01*
X109027000Y-61724500D01*
G75*
G02*
X109174500Y-61577000I147500J0D01*
G01*
G37*
G36*
G01*
X110662500Y-62167000D02*
X110317500Y-62167000D01*
G75*
G02*
X110170000Y-62019500I0J147500D01*
G01*
X110170000Y-61724500D01*
G75*
G02*
X110317500Y-61577000I147500J0D01*
G01*
X110662500Y-61577000D01*
G75*
G02*
X110810000Y-61724500I0J-147500D01*
G01*
X110810000Y-62019500D01*
G75*
G02*
X110662500Y-62167000I-147500J0D01*
G01*
G37*
G36*
G01*
X110662500Y-63137000D02*
X110317500Y-63137000D01*
G75*
G02*
X110170000Y-62989500I0J147500D01*
G01*
X110170000Y-62694500D01*
G75*
G02*
X110317500Y-62547000I147500J0D01*
G01*
X110662500Y-62547000D01*
G75*
G02*
X110810000Y-62694500I0J-147500D01*
G01*
X110810000Y-62989500D01*
G75*
G02*
X110662500Y-63137000I-147500J0D01*
G01*
G37*
G36*
G01*
X120652326Y-107632825D02*
X120408375Y-107388873D01*
G75*
G02*
X120408375Y-107180277I104298J104298D01*
G01*
X120616971Y-106971681D01*
G75*
G02*
X120825567Y-106971681I104298J-104298D01*
G01*
X121069519Y-107215633D01*
G75*
G02*
X121069519Y-107424229I-104298J-104298D01*
G01*
X120860923Y-107632825D01*
G75*
G02*
X120652327Y-107632825I-104298J104298D01*
G01*
G37*
G36*
G01*
X119966432Y-108318719D02*
X119722481Y-108074767D01*
G75*
G02*
X119722481Y-107866171I104298J104298D01*
G01*
X119931077Y-107657575D01*
G75*
G02*
X120139673Y-107657575I104298J-104298D01*
G01*
X120383625Y-107901527D01*
G75*
G02*
X120383625Y-108110123I-104298J-104298D01*
G01*
X120175029Y-108318719D01*
G75*
G02*
X119966433Y-108318719I-104298J104298D01*
G01*
G37*
G36*
G01*
X127825000Y-108757500D02*
X127825000Y-108412500D01*
G75*
G02*
X127972500Y-108265000I147500J0D01*
G01*
X128267500Y-108265000D01*
G75*
G02*
X128415000Y-108412500I0J-147500D01*
G01*
X128415000Y-108757500D01*
G75*
G02*
X128267500Y-108905000I-147500J0D01*
G01*
X127972500Y-108905000D01*
G75*
G02*
X127825000Y-108757500I0J147500D01*
G01*
G37*
G36*
G01*
X126855000Y-108757500D02*
X126855000Y-108412500D01*
G75*
G02*
X127002500Y-108265000I147500J0D01*
G01*
X127297500Y-108265000D01*
G75*
G02*
X127445000Y-108412500I0J-147500D01*
G01*
X127445000Y-108757500D01*
G75*
G02*
X127297500Y-108905000I-147500J0D01*
G01*
X127002500Y-108905000D01*
G75*
G02*
X126855000Y-108757500I0J147500D01*
G01*
G37*
G36*
G01*
X141147500Y-85290500D02*
X141147500Y-86540500D01*
G75*
G02*
X140897500Y-86790500I-250000J0D01*
G01*
X140147500Y-86790500D01*
G75*
G02*
X139897500Y-86540500I0J250000D01*
G01*
X139897500Y-85290500D01*
G75*
G02*
X140147500Y-85040500I250000J0D01*
G01*
X140897500Y-85040500D01*
G75*
G02*
X141147500Y-85290500I0J-250000D01*
G01*
G37*
G36*
G01*
X143947500Y-85290500D02*
X143947500Y-86540500D01*
G75*
G02*
X143697500Y-86790500I-250000J0D01*
G01*
X142947500Y-86790500D01*
G75*
G02*
X142697500Y-86540500I0J250000D01*
G01*
X142697500Y-85290500D01*
G75*
G02*
X142947500Y-85040500I250000J0D01*
G01*
X143697500Y-85040500D01*
G75*
G02*
X143947500Y-85290500I0J-250000D01*
G01*
G37*
G36*
G01*
X127843500Y-75628000D02*
X128188500Y-75628000D01*
G75*
G02*
X128336000Y-75775500I0J-147500D01*
G01*
X128336000Y-76070500D01*
G75*
G02*
X128188500Y-76218000I-147500J0D01*
G01*
X127843500Y-76218000D01*
G75*
G02*
X127696000Y-76070500I0J147500D01*
G01*
X127696000Y-75775500D01*
G75*
G02*
X127843500Y-75628000I147500J0D01*
G01*
G37*
G36*
G01*
X127843500Y-74658000D02*
X128188500Y-74658000D01*
G75*
G02*
X128336000Y-74805500I0J-147500D01*
G01*
X128336000Y-75100500D01*
G75*
G02*
X128188500Y-75248000I-147500J0D01*
G01*
X127843500Y-75248000D01*
G75*
G02*
X127696000Y-75100500I0J147500D01*
G01*
X127696000Y-74805500D01*
G75*
G02*
X127843500Y-74658000I147500J0D01*
G01*
G37*
G36*
G01*
X124737000Y-87073000D02*
X124437000Y-87073000D01*
G75*
G02*
X124287000Y-86923000I0J150000D01*
G01*
X124287000Y-85473000D01*
G75*
G02*
X124437000Y-85323000I150000J0D01*
G01*
X124737000Y-85323000D01*
G75*
G02*
X124887000Y-85473000I0J-150000D01*
G01*
X124887000Y-86923000D01*
G75*
G02*
X124737000Y-87073000I-150000J0D01*
G01*
G37*
G36*
G01*
X126007000Y-87073000D02*
X125707000Y-87073000D01*
G75*
G02*
X125557000Y-86923000I0J150000D01*
G01*
X125557000Y-85473000D01*
G75*
G02*
X125707000Y-85323000I150000J0D01*
G01*
X126007000Y-85323000D01*
G75*
G02*
X126157000Y-85473000I0J-150000D01*
G01*
X126157000Y-86923000D01*
G75*
G02*
X126007000Y-87073000I-150000J0D01*
G01*
G37*
G36*
G01*
X127277000Y-87073000D02*
X126977000Y-87073000D01*
G75*
G02*
X126827000Y-86923000I0J150000D01*
G01*
X126827000Y-85473000D01*
G75*
G02*
X126977000Y-85323000I150000J0D01*
G01*
X127277000Y-85323000D01*
G75*
G02*
X127427000Y-85473000I0J-150000D01*
G01*
X127427000Y-86923000D01*
G75*
G02*
X127277000Y-87073000I-150000J0D01*
G01*
G37*
G36*
G01*
X128547000Y-87073000D02*
X128247000Y-87073000D01*
G75*
G02*
X128097000Y-86923000I0J150000D01*
G01*
X128097000Y-85473000D01*
G75*
G02*
X128247000Y-85323000I150000J0D01*
G01*
X128547000Y-85323000D01*
G75*
G02*
X128697000Y-85473000I0J-150000D01*
G01*
X128697000Y-86923000D01*
G75*
G02*
X128547000Y-87073000I-150000J0D01*
G01*
G37*
G36*
G01*
X128547000Y-92223000D02*
X128247000Y-92223000D01*
G75*
G02*
X128097000Y-92073000I0J150000D01*
G01*
X128097000Y-90623000D01*
G75*
G02*
X128247000Y-90473000I150000J0D01*
G01*
X128547000Y-90473000D01*
G75*
G02*
X128697000Y-90623000I0J-150000D01*
G01*
X128697000Y-92073000D01*
G75*
G02*
X128547000Y-92223000I-150000J0D01*
G01*
G37*
G36*
G01*
X127277000Y-92223000D02*
X126977000Y-92223000D01*
G75*
G02*
X126827000Y-92073000I0J150000D01*
G01*
X126827000Y-90623000D01*
G75*
G02*
X126977000Y-90473000I150000J0D01*
G01*
X127277000Y-90473000D01*
G75*
G02*
X127427000Y-90623000I0J-150000D01*
G01*
X127427000Y-92073000D01*
G75*
G02*
X127277000Y-92223000I-150000J0D01*
G01*
G37*
G36*
G01*
X126007000Y-92223000D02*
X125707000Y-92223000D01*
G75*
G02*
X125557000Y-92073000I0J150000D01*
G01*
X125557000Y-90623000D01*
G75*
G02*
X125707000Y-90473000I150000J0D01*
G01*
X126007000Y-90473000D01*
G75*
G02*
X126157000Y-90623000I0J-150000D01*
G01*
X126157000Y-92073000D01*
G75*
G02*
X126007000Y-92223000I-150000J0D01*
G01*
G37*
G36*
G01*
X124737000Y-92223000D02*
X124437000Y-92223000D01*
G75*
G02*
X124287000Y-92073000I0J150000D01*
G01*
X124287000Y-90623000D01*
G75*
G02*
X124437000Y-90473000I150000J0D01*
G01*
X124737000Y-90473000D01*
G75*
G02*
X124887000Y-90623000I0J-150000D01*
G01*
X124887000Y-92073000D01*
G75*
G02*
X124737000Y-92223000I-150000J0D01*
G01*
G37*
G36*
G01*
X139255000Y-105582500D02*
X139255000Y-105237500D01*
G75*
G02*
X139402500Y-105090000I147500J0D01*
G01*
X139697500Y-105090000D01*
G75*
G02*
X139845000Y-105237500I0J-147500D01*
G01*
X139845000Y-105582500D01*
G75*
G02*
X139697500Y-105730000I-147500J0D01*
G01*
X139402500Y-105730000D01*
G75*
G02*
X139255000Y-105582500I0J147500D01*
G01*
G37*
G36*
G01*
X138285000Y-105582500D02*
X138285000Y-105237500D01*
G75*
G02*
X138432500Y-105090000I147500J0D01*
G01*
X138727500Y-105090000D01*
G75*
G02*
X138875000Y-105237500I0J-147500D01*
G01*
X138875000Y-105582500D01*
G75*
G02*
X138727500Y-105730000I-147500J0D01*
G01*
X138432500Y-105730000D01*
G75*
G02*
X138285000Y-105582500I0J147500D01*
G01*
G37*
G36*
G01*
X136207000Y-108503500D02*
X136207000Y-108158500D01*
G75*
G02*
X136354500Y-108011000I147500J0D01*
G01*
X136649500Y-108011000D01*
G75*
G02*
X136797000Y-108158500I0J-147500D01*
G01*
X136797000Y-108503500D01*
G75*
G02*
X136649500Y-108651000I-147500J0D01*
G01*
X136354500Y-108651000D01*
G75*
G02*
X136207000Y-108503500I0J147500D01*
G01*
G37*
G36*
G01*
X135237000Y-108503500D02*
X135237000Y-108158500D01*
G75*
G02*
X135384500Y-108011000I147500J0D01*
G01*
X135679500Y-108011000D01*
G75*
G02*
X135827000Y-108158500I0J-147500D01*
G01*
X135827000Y-108503500D01*
G75*
G02*
X135679500Y-108651000I-147500J0D01*
G01*
X135384500Y-108651000D01*
G75*
G02*
X135237000Y-108503500I0J147500D01*
G01*
G37*
G36*
G01*
X126537500Y-105093000D02*
X126192500Y-105093000D01*
G75*
G02*
X126045000Y-104945500I0J147500D01*
G01*
X126045000Y-104650500D01*
G75*
G02*
X126192500Y-104503000I147500J0D01*
G01*
X126537500Y-104503000D01*
G75*
G02*
X126685000Y-104650500I0J-147500D01*
G01*
X126685000Y-104945500D01*
G75*
G02*
X126537500Y-105093000I-147500J0D01*
G01*
G37*
G36*
G01*
X126537500Y-106063000D02*
X126192500Y-106063000D01*
G75*
G02*
X126045000Y-105915500I0J147500D01*
G01*
X126045000Y-105620500D01*
G75*
G02*
X126192500Y-105473000I147500J0D01*
G01*
X126537500Y-105473000D01*
G75*
G02*
X126685000Y-105620500I0J-147500D01*
G01*
X126685000Y-105915500D01*
G75*
G02*
X126537500Y-106063000I-147500J0D01*
G01*
G37*
G36*
G01*
X130428500Y-96629000D02*
X130428500Y-96284000D01*
G75*
G02*
X130576000Y-96136500I147500J0D01*
G01*
X130871000Y-96136500D01*
G75*
G02*
X131018500Y-96284000I0J-147500D01*
G01*
X131018500Y-96629000D01*
G75*
G02*
X130871000Y-96776500I-147500J0D01*
G01*
X130576000Y-96776500D01*
G75*
G02*
X130428500Y-96629000I0J147500D01*
G01*
G37*
G36*
G01*
X129458500Y-96629000D02*
X129458500Y-96284000D01*
G75*
G02*
X129606000Y-96136500I147500J0D01*
G01*
X129901000Y-96136500D01*
G75*
G02*
X130048500Y-96284000I0J-147500D01*
G01*
X130048500Y-96629000D01*
G75*
G02*
X129901000Y-96776500I-147500J0D01*
G01*
X129606000Y-96776500D01*
G75*
G02*
X129458500Y-96629000I0J147500D01*
G01*
G37*
G36*
G01*
X135297500Y-105925500D02*
X135297500Y-107250500D01*
G75*
G02*
X135222500Y-107325500I-75000J0D01*
G01*
X135072500Y-107325500D01*
G75*
G02*
X134997500Y-107250500I0J75000D01*
G01*
X134997500Y-105925500D01*
G75*
G02*
X135072500Y-105850500I75000J0D01*
G01*
X135222500Y-105850500D01*
G75*
G02*
X135297500Y-105925500I0J-75000D01*
G01*
G37*
G36*
G01*
X134797500Y-105925500D02*
X134797500Y-107250500D01*
G75*
G02*
X134722500Y-107325500I-75000J0D01*
G01*
X134572500Y-107325500D01*
G75*
G02*
X134497500Y-107250500I0J75000D01*
G01*
X134497500Y-105925500D01*
G75*
G02*
X134572500Y-105850500I75000J0D01*
G01*
X134722500Y-105850500D01*
G75*
G02*
X134797500Y-105925500I0J-75000D01*
G01*
G37*
G36*
G01*
X134297500Y-105925500D02*
X134297500Y-107250500D01*
G75*
G02*
X134222500Y-107325500I-75000J0D01*
G01*
X134072500Y-107325500D01*
G75*
G02*
X133997500Y-107250500I0J75000D01*
G01*
X133997500Y-105925500D01*
G75*
G02*
X134072500Y-105850500I75000J0D01*
G01*
X134222500Y-105850500D01*
G75*
G02*
X134297500Y-105925500I0J-75000D01*
G01*
G37*
G36*
G01*
X133797500Y-105925500D02*
X133797500Y-107250500D01*
G75*
G02*
X133722500Y-107325500I-75000J0D01*
G01*
X133572500Y-107325500D01*
G75*
G02*
X133497500Y-107250500I0J75000D01*
G01*
X133497500Y-105925500D01*
G75*
G02*
X133572500Y-105850500I75000J0D01*
G01*
X133722500Y-105850500D01*
G75*
G02*
X133797500Y-105925500I0J-75000D01*
G01*
G37*
G36*
G01*
X133297500Y-105925500D02*
X133297500Y-107250500D01*
G75*
G02*
X133222500Y-107325500I-75000J0D01*
G01*
X133072500Y-107325500D01*
G75*
G02*
X132997500Y-107250500I0J75000D01*
G01*
X132997500Y-105925500D01*
G75*
G02*
X133072500Y-105850500I75000J0D01*
G01*
X133222500Y-105850500D01*
G75*
G02*
X133297500Y-105925500I0J-75000D01*
G01*
G37*
G36*
G01*
X132797500Y-105925500D02*
X132797500Y-107250500D01*
G75*
G02*
X132722500Y-107325500I-75000J0D01*
G01*
X132572500Y-107325500D01*
G75*
G02*
X132497500Y-107250500I0J75000D01*
G01*
X132497500Y-105925500D01*
G75*
G02*
X132572500Y-105850500I75000J0D01*
G01*
X132722500Y-105850500D01*
G75*
G02*
X132797500Y-105925500I0J-75000D01*
G01*
G37*
G36*
G01*
X132297500Y-105925500D02*
X132297500Y-107250500D01*
G75*
G02*
X132222500Y-107325500I-75000J0D01*
G01*
X132072500Y-107325500D01*
G75*
G02*
X131997500Y-107250500I0J75000D01*
G01*
X131997500Y-105925500D01*
G75*
G02*
X132072500Y-105850500I75000J0D01*
G01*
X132222500Y-105850500D01*
G75*
G02*
X132297500Y-105925500I0J-75000D01*
G01*
G37*
G36*
G01*
X131797500Y-105925500D02*
X131797500Y-107250500D01*
G75*
G02*
X131722500Y-107325500I-75000J0D01*
G01*
X131572500Y-107325500D01*
G75*
G02*
X131497500Y-107250500I0J75000D01*
G01*
X131497500Y-105925500D01*
G75*
G02*
X131572500Y-105850500I75000J0D01*
G01*
X131722500Y-105850500D01*
G75*
G02*
X131797500Y-105925500I0J-75000D01*
G01*
G37*
G36*
G01*
X131297500Y-105925500D02*
X131297500Y-107250500D01*
G75*
G02*
X131222500Y-107325500I-75000J0D01*
G01*
X131072500Y-107325500D01*
G75*
G02*
X130997500Y-107250500I0J75000D01*
G01*
X130997500Y-105925500D01*
G75*
G02*
X131072500Y-105850500I75000J0D01*
G01*
X131222500Y-105850500D01*
G75*
G02*
X131297500Y-105925500I0J-75000D01*
G01*
G37*
G36*
G01*
X130797500Y-105925500D02*
X130797500Y-107250500D01*
G75*
G02*
X130722500Y-107325500I-75000J0D01*
G01*
X130572500Y-107325500D01*
G75*
G02*
X130497500Y-107250500I0J75000D01*
G01*
X130497500Y-105925500D01*
G75*
G02*
X130572500Y-105850500I75000J0D01*
G01*
X130722500Y-105850500D01*
G75*
G02*
X130797500Y-105925500I0J-75000D01*
G01*
G37*
G36*
G01*
X130297500Y-105925500D02*
X130297500Y-107250500D01*
G75*
G02*
X130222500Y-107325500I-75000J0D01*
G01*
X130072500Y-107325500D01*
G75*
G02*
X129997500Y-107250500I0J75000D01*
G01*
X129997500Y-105925500D01*
G75*
G02*
X130072500Y-105850500I75000J0D01*
G01*
X130222500Y-105850500D01*
G75*
G02*
X130297500Y-105925500I0J-75000D01*
G01*
G37*
G36*
G01*
X129797500Y-105925500D02*
X129797500Y-107250500D01*
G75*
G02*
X129722500Y-107325500I-75000J0D01*
G01*
X129572500Y-107325500D01*
G75*
G02*
X129497500Y-107250500I0J75000D01*
G01*
X129497500Y-105925500D01*
G75*
G02*
X129572500Y-105850500I75000J0D01*
G01*
X129722500Y-105850500D01*
G75*
G02*
X129797500Y-105925500I0J-75000D01*
G01*
G37*
G36*
G01*
X128972500Y-105100500D02*
X128972500Y-105250500D01*
G75*
G02*
X128897500Y-105325500I-75000J0D01*
G01*
X127572500Y-105325500D01*
G75*
G02*
X127497500Y-105250500I0J75000D01*
G01*
X127497500Y-105100500D01*
G75*
G02*
X127572500Y-105025500I75000J0D01*
G01*
X128897500Y-105025500D01*
G75*
G02*
X128972500Y-105100500I0J-75000D01*
G01*
G37*
G36*
G01*
X128972500Y-104600500D02*
X128972500Y-104750500D01*
G75*
G02*
X128897500Y-104825500I-75000J0D01*
G01*
X127572500Y-104825500D01*
G75*
G02*
X127497500Y-104750500I0J75000D01*
G01*
X127497500Y-104600500D01*
G75*
G02*
X127572500Y-104525500I75000J0D01*
G01*
X128897500Y-104525500D01*
G75*
G02*
X128972500Y-104600500I0J-75000D01*
G01*
G37*
G36*
G01*
X128972500Y-104100500D02*
X128972500Y-104250500D01*
G75*
G02*
X128897500Y-104325500I-75000J0D01*
G01*
X127572500Y-104325500D01*
G75*
G02*
X127497500Y-104250500I0J75000D01*
G01*
X127497500Y-104100500D01*
G75*
G02*
X127572500Y-104025500I75000J0D01*
G01*
X128897500Y-104025500D01*
G75*
G02*
X128972500Y-104100500I0J-75000D01*
G01*
G37*
G36*
G01*
X128972500Y-103600500D02*
X128972500Y-103750500D01*
G75*
G02*
X128897500Y-103825500I-75000J0D01*
G01*
X127572500Y-103825500D01*
G75*
G02*
X127497500Y-103750500I0J75000D01*
G01*
X127497500Y-103600500D01*
G75*
G02*
X127572500Y-103525500I75000J0D01*
G01*
X128897500Y-103525500D01*
G75*
G02*
X128972500Y-103600500I0J-75000D01*
G01*
G37*
G36*
G01*
X128972500Y-103100500D02*
X128972500Y-103250500D01*
G75*
G02*
X128897500Y-103325500I-75000J0D01*
G01*
X127572500Y-103325500D01*
G75*
G02*
X127497500Y-103250500I0J75000D01*
G01*
X127497500Y-103100500D01*
G75*
G02*
X127572500Y-103025500I75000J0D01*
G01*
X128897500Y-103025500D01*
G75*
G02*
X128972500Y-103100500I0J-75000D01*
G01*
G37*
G36*
G01*
X128972500Y-102600500D02*
X128972500Y-102750500D01*
G75*
G02*
X128897500Y-102825500I-75000J0D01*
G01*
X127572500Y-102825500D01*
G75*
G02*
X127497500Y-102750500I0J75000D01*
G01*
X127497500Y-102600500D01*
G75*
G02*
X127572500Y-102525500I75000J0D01*
G01*
X128897500Y-102525500D01*
G75*
G02*
X128972500Y-102600500I0J-75000D01*
G01*
G37*
G36*
G01*
X128972500Y-102100500D02*
X128972500Y-102250500D01*
G75*
G02*
X128897500Y-102325500I-75000J0D01*
G01*
X127572500Y-102325500D01*
G75*
G02*
X127497500Y-102250500I0J75000D01*
G01*
X127497500Y-102100500D01*
G75*
G02*
X127572500Y-102025500I75000J0D01*
G01*
X128897500Y-102025500D01*
G75*
G02*
X128972500Y-102100500I0J-75000D01*
G01*
G37*
G36*
G01*
X128972500Y-101600500D02*
X128972500Y-101750500D01*
G75*
G02*
X128897500Y-101825500I-75000J0D01*
G01*
X127572500Y-101825500D01*
G75*
G02*
X127497500Y-101750500I0J75000D01*
G01*
X127497500Y-101600500D01*
G75*
G02*
X127572500Y-101525500I75000J0D01*
G01*
X128897500Y-101525500D01*
G75*
G02*
X128972500Y-101600500I0J-75000D01*
G01*
G37*
G36*
G01*
X128972500Y-101100500D02*
X128972500Y-101250500D01*
G75*
G02*
X128897500Y-101325500I-75000J0D01*
G01*
X127572500Y-101325500D01*
G75*
G02*
X127497500Y-101250500I0J75000D01*
G01*
X127497500Y-101100500D01*
G75*
G02*
X127572500Y-101025500I75000J0D01*
G01*
X128897500Y-101025500D01*
G75*
G02*
X128972500Y-101100500I0J-75000D01*
G01*
G37*
G36*
G01*
X128972500Y-100600500D02*
X128972500Y-100750500D01*
G75*
G02*
X128897500Y-100825500I-75000J0D01*
G01*
X127572500Y-100825500D01*
G75*
G02*
X127497500Y-100750500I0J75000D01*
G01*
X127497500Y-100600500D01*
G75*
G02*
X127572500Y-100525500I75000J0D01*
G01*
X128897500Y-100525500D01*
G75*
G02*
X128972500Y-100600500I0J-75000D01*
G01*
G37*
G36*
G01*
X128972500Y-100100500D02*
X128972500Y-100250500D01*
G75*
G02*
X128897500Y-100325500I-75000J0D01*
G01*
X127572500Y-100325500D01*
G75*
G02*
X127497500Y-100250500I0J75000D01*
G01*
X127497500Y-100100500D01*
G75*
G02*
X127572500Y-100025500I75000J0D01*
G01*
X128897500Y-100025500D01*
G75*
G02*
X128972500Y-100100500I0J-75000D01*
G01*
G37*
G36*
G01*
X128972500Y-99600500D02*
X128972500Y-99750500D01*
G75*
G02*
X128897500Y-99825500I-75000J0D01*
G01*
X127572500Y-99825500D01*
G75*
G02*
X127497500Y-99750500I0J75000D01*
G01*
X127497500Y-99600500D01*
G75*
G02*
X127572500Y-99525500I75000J0D01*
G01*
X128897500Y-99525500D01*
G75*
G02*
X128972500Y-99600500I0J-75000D01*
G01*
G37*
G36*
G01*
X129797500Y-97600500D02*
X129797500Y-98925500D01*
G75*
G02*
X129722500Y-99000500I-75000J0D01*
G01*
X129572500Y-99000500D01*
G75*
G02*
X129497500Y-98925500I0J75000D01*
G01*
X129497500Y-97600500D01*
G75*
G02*
X129572500Y-97525500I75000J0D01*
G01*
X129722500Y-97525500D01*
G75*
G02*
X129797500Y-97600500I0J-75000D01*
G01*
G37*
G36*
G01*
X130297500Y-97600500D02*
X130297500Y-98925500D01*
G75*
G02*
X130222500Y-99000500I-75000J0D01*
G01*
X130072500Y-99000500D01*
G75*
G02*
X129997500Y-98925500I0J75000D01*
G01*
X129997500Y-97600500D01*
G75*
G02*
X130072500Y-97525500I75000J0D01*
G01*
X130222500Y-97525500D01*
G75*
G02*
X130297500Y-97600500I0J-75000D01*
G01*
G37*
G36*
G01*
X130797500Y-97600500D02*
X130797500Y-98925500D01*
G75*
G02*
X130722500Y-99000500I-75000J0D01*
G01*
X130572500Y-99000500D01*
G75*
G02*
X130497500Y-98925500I0J75000D01*
G01*
X130497500Y-97600500D01*
G75*
G02*
X130572500Y-97525500I75000J0D01*
G01*
X130722500Y-97525500D01*
G75*
G02*
X130797500Y-97600500I0J-75000D01*
G01*
G37*
G36*
G01*
X131297500Y-97600500D02*
X131297500Y-98925500D01*
G75*
G02*
X131222500Y-99000500I-75000J0D01*
G01*
X131072500Y-99000500D01*
G75*
G02*
X130997500Y-98925500I0J75000D01*
G01*
X130997500Y-97600500D01*
G75*
G02*
X131072500Y-97525500I75000J0D01*
G01*
X131222500Y-97525500D01*
G75*
G02*
X131297500Y-97600500I0J-75000D01*
G01*
G37*
G36*
G01*
X131797500Y-97600500D02*
X131797500Y-98925500D01*
G75*
G02*
X131722500Y-99000500I-75000J0D01*
G01*
X131572500Y-99000500D01*
G75*
G02*
X131497500Y-98925500I0J75000D01*
G01*
X131497500Y-97600500D01*
G75*
G02*
X131572500Y-97525500I75000J0D01*
G01*
X131722500Y-97525500D01*
G75*
G02*
X131797500Y-97600500I0J-75000D01*
G01*
G37*
G36*
G01*
X132297500Y-97600500D02*
X132297500Y-98925500D01*
G75*
G02*
X132222500Y-99000500I-75000J0D01*
G01*
X132072500Y-99000500D01*
G75*
G02*
X131997500Y-98925500I0J75000D01*
G01*
X131997500Y-97600500D01*
G75*
G02*
X132072500Y-97525500I75000J0D01*
G01*
X132222500Y-97525500D01*
G75*
G02*
X132297500Y-97600500I0J-75000D01*
G01*
G37*
G36*
G01*
X132797500Y-97600500D02*
X132797500Y-98925500D01*
G75*
G02*
X132722500Y-99000500I-75000J0D01*
G01*
X132572500Y-99000500D01*
G75*
G02*
X132497500Y-98925500I0J75000D01*
G01*
X132497500Y-97600500D01*
G75*
G02*
X132572500Y-97525500I75000J0D01*
G01*
X132722500Y-97525500D01*
G75*
G02*
X132797500Y-97600500I0J-75000D01*
G01*
G37*
G36*
G01*
X133297500Y-97600500D02*
X133297500Y-98925500D01*
G75*
G02*
X133222500Y-99000500I-75000J0D01*
G01*
X133072500Y-99000500D01*
G75*
G02*
X132997500Y-98925500I0J75000D01*
G01*
X132997500Y-97600500D01*
G75*
G02*
X133072500Y-97525500I75000J0D01*
G01*
X133222500Y-97525500D01*
G75*
G02*
X133297500Y-97600500I0J-75000D01*
G01*
G37*
G36*
G01*
X133797500Y-97600500D02*
X133797500Y-98925500D01*
G75*
G02*
X133722500Y-99000500I-75000J0D01*
G01*
X133572500Y-99000500D01*
G75*
G02*
X133497500Y-98925500I0J75000D01*
G01*
X133497500Y-97600500D01*
G75*
G02*
X133572500Y-97525500I75000J0D01*
G01*
X133722500Y-97525500D01*
G75*
G02*
X133797500Y-97600500I0J-75000D01*
G01*
G37*
G36*
G01*
X134297500Y-97600500D02*
X134297500Y-98925500D01*
G75*
G02*
X134222500Y-99000500I-75000J0D01*
G01*
X134072500Y-99000500D01*
G75*
G02*
X133997500Y-98925500I0J75000D01*
G01*
X133997500Y-97600500D01*
G75*
G02*
X134072500Y-97525500I75000J0D01*
G01*
X134222500Y-97525500D01*
G75*
G02*
X134297500Y-97600500I0J-75000D01*
G01*
G37*
G36*
G01*
X134797500Y-97600500D02*
X134797500Y-98925500D01*
G75*
G02*
X134722500Y-99000500I-75000J0D01*
G01*
X134572500Y-99000500D01*
G75*
G02*
X134497500Y-98925500I0J75000D01*
G01*
X134497500Y-97600500D01*
G75*
G02*
X134572500Y-97525500I75000J0D01*
G01*
X134722500Y-97525500D01*
G75*
G02*
X134797500Y-97600500I0J-75000D01*
G01*
G37*
G36*
G01*
X135297500Y-97600500D02*
X135297500Y-98925500D01*
G75*
G02*
X135222500Y-99000500I-75000J0D01*
G01*
X135072500Y-99000500D01*
G75*
G02*
X134997500Y-98925500I0J75000D01*
G01*
X134997500Y-97600500D01*
G75*
G02*
X135072500Y-97525500I75000J0D01*
G01*
X135222500Y-97525500D01*
G75*
G02*
X135297500Y-97600500I0J-75000D01*
G01*
G37*
G36*
G01*
X137297500Y-99600500D02*
X137297500Y-99750500D01*
G75*
G02*
X137222500Y-99825500I-75000J0D01*
G01*
X135897500Y-99825500D01*
G75*
G02*
X135822500Y-99750500I0J75000D01*
G01*
X135822500Y-99600500D01*
G75*
G02*
X135897500Y-99525500I75000J0D01*
G01*
X137222500Y-99525500D01*
G75*
G02*
X137297500Y-99600500I0J-75000D01*
G01*
G37*
G36*
G01*
X137297500Y-100100500D02*
X137297500Y-100250500D01*
G75*
G02*
X137222500Y-100325500I-75000J0D01*
G01*
X135897500Y-100325500D01*
G75*
G02*
X135822500Y-100250500I0J75000D01*
G01*
X135822500Y-100100500D01*
G75*
G02*
X135897500Y-100025500I75000J0D01*
G01*
X137222500Y-100025500D01*
G75*
G02*
X137297500Y-100100500I0J-75000D01*
G01*
G37*
G36*
G01*
X137297500Y-100600500D02*
X137297500Y-100750500D01*
G75*
G02*
X137222500Y-100825500I-75000J0D01*
G01*
X135897500Y-100825500D01*
G75*
G02*
X135822500Y-100750500I0J75000D01*
G01*
X135822500Y-100600500D01*
G75*
G02*
X135897500Y-100525500I75000J0D01*
G01*
X137222500Y-100525500D01*
G75*
G02*
X137297500Y-100600500I0J-75000D01*
G01*
G37*
G36*
G01*
X137297500Y-101100500D02*
X137297500Y-101250500D01*
G75*
G02*
X137222500Y-101325500I-75000J0D01*
G01*
X135897500Y-101325500D01*
G75*
G02*
X135822500Y-101250500I0J75000D01*
G01*
X135822500Y-101100500D01*
G75*
G02*
X135897500Y-101025500I75000J0D01*
G01*
X137222500Y-101025500D01*
G75*
G02*
X137297500Y-101100500I0J-75000D01*
G01*
G37*
G36*
G01*
X137297500Y-101600500D02*
X137297500Y-101750500D01*
G75*
G02*
X137222500Y-101825500I-75000J0D01*
G01*
X135897500Y-101825500D01*
G75*
G02*
X135822500Y-101750500I0J75000D01*
G01*
X135822500Y-101600500D01*
G75*
G02*
X135897500Y-101525500I75000J0D01*
G01*
X137222500Y-101525500D01*
G75*
G02*
X137297500Y-101600500I0J-75000D01*
G01*
G37*
G36*
G01*
X137297500Y-102100500D02*
X137297500Y-102250500D01*
G75*
G02*
X137222500Y-102325500I-75000J0D01*
G01*
X135897500Y-102325500D01*
G75*
G02*
X135822500Y-102250500I0J75000D01*
G01*
X135822500Y-102100500D01*
G75*
G02*
X135897500Y-102025500I75000J0D01*
G01*
X137222500Y-102025500D01*
G75*
G02*
X137297500Y-102100500I0J-75000D01*
G01*
G37*
G36*
G01*
X137297500Y-102600500D02*
X137297500Y-102750500D01*
G75*
G02*
X137222500Y-102825500I-75000J0D01*
G01*
X135897500Y-102825500D01*
G75*
G02*
X135822500Y-102750500I0J75000D01*
G01*
X135822500Y-102600500D01*
G75*
G02*
X135897500Y-102525500I75000J0D01*
G01*
X137222500Y-102525500D01*
G75*
G02*
X137297500Y-102600500I0J-75000D01*
G01*
G37*
G36*
G01*
X137297500Y-103100500D02*
X137297500Y-103250500D01*
G75*
G02*
X137222500Y-103325500I-75000J0D01*
G01*
X135897500Y-103325500D01*
G75*
G02*
X135822500Y-103250500I0J75000D01*
G01*
X135822500Y-103100500D01*
G75*
G02*
X135897500Y-103025500I75000J0D01*
G01*
X137222500Y-103025500D01*
G75*
G02*
X137297500Y-103100500I0J-75000D01*
G01*
G37*
G36*
G01*
X137297500Y-103600500D02*
X137297500Y-103750500D01*
G75*
G02*
X137222500Y-103825500I-75000J0D01*
G01*
X135897500Y-103825500D01*
G75*
G02*
X135822500Y-103750500I0J75000D01*
G01*
X135822500Y-103600500D01*
G75*
G02*
X135897500Y-103525500I75000J0D01*
G01*
X137222500Y-103525500D01*
G75*
G02*
X137297500Y-103600500I0J-75000D01*
G01*
G37*
G36*
G01*
X137297500Y-104100500D02*
X137297500Y-104250500D01*
G75*
G02*
X137222500Y-104325500I-75000J0D01*
G01*
X135897500Y-104325500D01*
G75*
G02*
X135822500Y-104250500I0J75000D01*
G01*
X135822500Y-104100500D01*
G75*
G02*
X135897500Y-104025500I75000J0D01*
G01*
X137222500Y-104025500D01*
G75*
G02*
X137297500Y-104100500I0J-75000D01*
G01*
G37*
G36*
G01*
X137297500Y-104600500D02*
X137297500Y-104750500D01*
G75*
G02*
X137222500Y-104825500I-75000J0D01*
G01*
X135897500Y-104825500D01*
G75*
G02*
X135822500Y-104750500I0J75000D01*
G01*
X135822500Y-104600500D01*
G75*
G02*
X135897500Y-104525500I75000J0D01*
G01*
X137222500Y-104525500D01*
G75*
G02*
X137297500Y-104600500I0J-75000D01*
G01*
G37*
G36*
G01*
X137297500Y-105100500D02*
X137297500Y-105250500D01*
G75*
G02*
X137222500Y-105325500I-75000J0D01*
G01*
X135897500Y-105325500D01*
G75*
G02*
X135822500Y-105250500I0J75000D01*
G01*
X135822500Y-105100500D01*
G75*
G02*
X135897500Y-105025500I75000J0D01*
G01*
X137222500Y-105025500D01*
G75*
G02*
X137297500Y-105100500I0J-75000D01*
G01*
G37*
G36*
G01*
X109598750Y-104109000D02*
X110111250Y-104109000D01*
G75*
G02*
X110330000Y-104327750I0J-218750D01*
G01*
X110330000Y-104765250D01*
G75*
G02*
X110111250Y-104984000I-218750J0D01*
G01*
X109598750Y-104984000D01*
G75*
G02*
X109380000Y-104765250I0J218750D01*
G01*
X109380000Y-104327750D01*
G75*
G02*
X109598750Y-104109000I218750J0D01*
G01*
G37*
G36*
G01*
X109598750Y-102534000D02*
X110111250Y-102534000D01*
G75*
G02*
X110330000Y-102752750I0J-218750D01*
G01*
X110330000Y-103190250D01*
G75*
G02*
X110111250Y-103409000I-218750J0D01*
G01*
X109598750Y-103409000D01*
G75*
G02*
X109380000Y-103190250I0J218750D01*
G01*
X109380000Y-102752750D01*
G75*
G02*
X109598750Y-102534000I218750J0D01*
G01*
G37*
G36*
G01*
X139146500Y-88328000D02*
X139491500Y-88328000D01*
G75*
G02*
X139639000Y-88475500I0J-147500D01*
G01*
X139639000Y-88770500D01*
G75*
G02*
X139491500Y-88918000I-147500J0D01*
G01*
X139146500Y-88918000D01*
G75*
G02*
X138999000Y-88770500I0J147500D01*
G01*
X138999000Y-88475500D01*
G75*
G02*
X139146500Y-88328000I147500J0D01*
G01*
G37*
G36*
G01*
X139146500Y-87358000D02*
X139491500Y-87358000D01*
G75*
G02*
X139639000Y-87505500I0J-147500D01*
G01*
X139639000Y-87800500D01*
G75*
G02*
X139491500Y-87948000I-147500J0D01*
G01*
X139146500Y-87948000D01*
G75*
G02*
X138999000Y-87800500I0J147500D01*
G01*
X138999000Y-87505500D01*
G75*
G02*
X139146500Y-87358000I147500J0D01*
G01*
G37*
G36*
G01*
X134683000Y-93708000D02*
X134683000Y-93363000D01*
G75*
G02*
X134830500Y-93215500I147500J0D01*
G01*
X135125500Y-93215500D01*
G75*
G02*
X135273000Y-93363000I0J-147500D01*
G01*
X135273000Y-93708000D01*
G75*
G02*
X135125500Y-93855500I-147500J0D01*
G01*
X134830500Y-93855500D01*
G75*
G02*
X134683000Y-93708000I0J147500D01*
G01*
G37*
G36*
G01*
X133713000Y-93708000D02*
X133713000Y-93363000D01*
G75*
G02*
X133860500Y-93215500I147500J0D01*
G01*
X134155500Y-93215500D01*
G75*
G02*
X134303000Y-93363000I0J-147500D01*
G01*
X134303000Y-93708000D01*
G75*
G02*
X134155500Y-93855500I-147500J0D01*
G01*
X133860500Y-93855500D01*
G75*
G02*
X133713000Y-93708000I0J147500D01*
G01*
G37*
G36*
G01*
X141051500Y-100329500D02*
X141396500Y-100329500D01*
G75*
G02*
X141544000Y-100477000I0J-147500D01*
G01*
X141544000Y-100772000D01*
G75*
G02*
X141396500Y-100919500I-147500J0D01*
G01*
X141051500Y-100919500D01*
G75*
G02*
X140904000Y-100772000I0J147500D01*
G01*
X140904000Y-100477000D01*
G75*
G02*
X141051500Y-100329500I147500J0D01*
G01*
G37*
G36*
G01*
X141051500Y-99359500D02*
X141396500Y-99359500D01*
G75*
G02*
X141544000Y-99507000I0J-147500D01*
G01*
X141544000Y-99802000D01*
G75*
G02*
X141396500Y-99949500I-147500J0D01*
G01*
X141051500Y-99949500D01*
G75*
G02*
X140904000Y-99802000I0J147500D01*
G01*
X140904000Y-99507000D01*
G75*
G02*
X141051500Y-99359500I147500J0D01*
G01*
G37*
G36*
G01*
X137665750Y-87726000D02*
X138178250Y-87726000D01*
G75*
G02*
X138397000Y-87944750I0J-218750D01*
G01*
X138397000Y-88382250D01*
G75*
G02*
X138178250Y-88601000I-218750J0D01*
G01*
X137665750Y-88601000D01*
G75*
G02*
X137447000Y-88382250I0J218750D01*
G01*
X137447000Y-87944750D01*
G75*
G02*
X137665750Y-87726000I218750J0D01*
G01*
G37*
G36*
G01*
X137665750Y-86151000D02*
X138178250Y-86151000D01*
G75*
G02*
X138397000Y-86369750I0J-218750D01*
G01*
X138397000Y-86807250D01*
G75*
G02*
X138178250Y-87026000I-218750J0D01*
G01*
X137665750Y-87026000D01*
G75*
G02*
X137447000Y-86807250I0J218750D01*
G01*
X137447000Y-86369750D01*
G75*
G02*
X137665750Y-86151000I218750J0D01*
G01*
G37*
G36*
G01*
X131318500Y-84155500D02*
X131318500Y-84500500D01*
G75*
G02*
X131171000Y-84648000I-147500J0D01*
G01*
X130876000Y-84648000D01*
G75*
G02*
X130728500Y-84500500I0J147500D01*
G01*
X130728500Y-84155500D01*
G75*
G02*
X130876000Y-84008000I147500J0D01*
G01*
X131171000Y-84008000D01*
G75*
G02*
X131318500Y-84155500I0J-147500D01*
G01*
G37*
G36*
G01*
X132288500Y-84155500D02*
X132288500Y-84500500D01*
G75*
G02*
X132141000Y-84648000I-147500J0D01*
G01*
X131846000Y-84648000D01*
G75*
G02*
X131698500Y-84500500I0J147500D01*
G01*
X131698500Y-84155500D01*
G75*
G02*
X131846000Y-84008000I147500J0D01*
G01*
X132141000Y-84008000D01*
G75*
G02*
X132288500Y-84155500I0J-147500D01*
G01*
G37*
G36*
G01*
X131318500Y-83076000D02*
X131318500Y-83421000D01*
G75*
G02*
X131171000Y-83568500I-147500J0D01*
G01*
X130876000Y-83568500D01*
G75*
G02*
X130728500Y-83421000I0J147500D01*
G01*
X130728500Y-83076000D01*
G75*
G02*
X130876000Y-82928500I147500J0D01*
G01*
X131171000Y-82928500D01*
G75*
G02*
X131318500Y-83076000I0J-147500D01*
G01*
G37*
G36*
G01*
X132288500Y-83076000D02*
X132288500Y-83421000D01*
G75*
G02*
X132141000Y-83568500I-147500J0D01*
G01*
X131846000Y-83568500D01*
G75*
G02*
X131698500Y-83421000I0J147500D01*
G01*
X131698500Y-83076000D01*
G75*
G02*
X131846000Y-82928500I147500J0D01*
G01*
X132141000Y-82928500D01*
G75*
G02*
X132288500Y-83076000I0J-147500D01*
G01*
G37*
G36*
G01*
X128915000Y-70056500D02*
X130165000Y-70056500D01*
G75*
G02*
X130415000Y-70306500I0J-250000D01*
G01*
X130415000Y-71056500D01*
G75*
G02*
X130165000Y-71306500I-250000J0D01*
G01*
X128915000Y-71306500D01*
G75*
G02*
X128665000Y-71056500I0J250000D01*
G01*
X128665000Y-70306500D01*
G75*
G02*
X128915000Y-70056500I250000J0D01*
G01*
G37*
G36*
G01*
X128915000Y-67256500D02*
X130165000Y-67256500D01*
G75*
G02*
X130415000Y-67506500I0J-250000D01*
G01*
X130415000Y-68256500D01*
G75*
G02*
X130165000Y-68506500I-250000J0D01*
G01*
X128915000Y-68506500D01*
G75*
G02*
X128665000Y-68256500I0J250000D01*
G01*
X128665000Y-67506500D01*
G75*
G02*
X128915000Y-67256500I250000J0D01*
G01*
G37*
G36*
G01*
X127158000Y-83944750D02*
X127158000Y-84457250D01*
G75*
G02*
X126939250Y-84676000I-218750J0D01*
G01*
X126501750Y-84676000D01*
G75*
G02*
X126283000Y-84457250I0J218750D01*
G01*
X126283000Y-83944750D01*
G75*
G02*
X126501750Y-83726000I218750J0D01*
G01*
X126939250Y-83726000D01*
G75*
G02*
X127158000Y-83944750I0J-218750D01*
G01*
G37*
G36*
G01*
X128733000Y-83944750D02*
X128733000Y-84457250D01*
G75*
G02*
X128514250Y-84676000I-218750J0D01*
G01*
X128076750Y-84676000D01*
G75*
G02*
X127858000Y-84457250I0J218750D01*
G01*
X127858000Y-83944750D01*
G75*
G02*
X128076750Y-83726000I218750J0D01*
G01*
X128514250Y-83726000D01*
G75*
G02*
X128733000Y-83944750I0J-218750D01*
G01*
G37*
G36*
G01*
X124970250Y-80422000D02*
X124457750Y-80422000D01*
G75*
G02*
X124239000Y-80203250I0J218750D01*
G01*
X124239000Y-79765750D01*
G75*
G02*
X124457750Y-79547000I218750J0D01*
G01*
X124970250Y-79547000D01*
G75*
G02*
X125189000Y-79765750I0J-218750D01*
G01*
X125189000Y-80203250D01*
G75*
G02*
X124970250Y-80422000I-218750J0D01*
G01*
G37*
G36*
G01*
X124970250Y-81997000D02*
X124457750Y-81997000D01*
G75*
G02*
X124239000Y-81778250I0J218750D01*
G01*
X124239000Y-81340750D01*
G75*
G02*
X124457750Y-81122000I218750J0D01*
G01*
X124970250Y-81122000D01*
G75*
G02*
X125189000Y-81340750I0J-218750D01*
G01*
X125189000Y-81778250D01*
G75*
G02*
X124970250Y-81997000I-218750J0D01*
G01*
G37*
G36*
G01*
X131955250Y-68103000D02*
X131442750Y-68103000D01*
G75*
G02*
X131224000Y-67884250I0J218750D01*
G01*
X131224000Y-67446750D01*
G75*
G02*
X131442750Y-67228000I218750J0D01*
G01*
X131955250Y-67228000D01*
G75*
G02*
X132174000Y-67446750I0J-218750D01*
G01*
X132174000Y-67884250D01*
G75*
G02*
X131955250Y-68103000I-218750J0D01*
G01*
G37*
G36*
G01*
X131955250Y-69678000D02*
X131442750Y-69678000D01*
G75*
G02*
X131224000Y-69459250I0J218750D01*
G01*
X131224000Y-69021750D01*
G75*
G02*
X131442750Y-68803000I218750J0D01*
G01*
X131955250Y-68803000D01*
G75*
G02*
X132174000Y-69021750I0J-218750D01*
G01*
X132174000Y-69459250D01*
G75*
G02*
X131955250Y-69678000I-218750J0D01*
G01*
G37*
G36*
G01*
X135359000Y-75414000D02*
X135659000Y-75414000D01*
G75*
G02*
X135809000Y-75564000I0J-150000D01*
G01*
X135809000Y-77214000D01*
G75*
G02*
X135659000Y-77364000I-150000J0D01*
G01*
X135359000Y-77364000D01*
G75*
G02*
X135209000Y-77214000I0J150000D01*
G01*
X135209000Y-75564000D01*
G75*
G02*
X135359000Y-75414000I150000J0D01*
G01*
G37*
G36*
G01*
X134089000Y-75414000D02*
X134389000Y-75414000D01*
G75*
G02*
X134539000Y-75564000I0J-150000D01*
G01*
X134539000Y-77214000D01*
G75*
G02*
X134389000Y-77364000I-150000J0D01*
G01*
X134089000Y-77364000D01*
G75*
G02*
X133939000Y-77214000I0J150000D01*
G01*
X133939000Y-75564000D01*
G75*
G02*
X134089000Y-75414000I150000J0D01*
G01*
G37*
G36*
G01*
X132819000Y-75414000D02*
X133119000Y-75414000D01*
G75*
G02*
X133269000Y-75564000I0J-150000D01*
G01*
X133269000Y-77214000D01*
G75*
G02*
X133119000Y-77364000I-150000J0D01*
G01*
X132819000Y-77364000D01*
G75*
G02*
X132669000Y-77214000I0J150000D01*
G01*
X132669000Y-75564000D01*
G75*
G02*
X132819000Y-75414000I150000J0D01*
G01*
G37*
G36*
G01*
X131549000Y-75414000D02*
X131849000Y-75414000D01*
G75*
G02*
X131999000Y-75564000I0J-150000D01*
G01*
X131999000Y-77214000D01*
G75*
G02*
X131849000Y-77364000I-150000J0D01*
G01*
X131549000Y-77364000D01*
G75*
G02*
X131399000Y-77214000I0J150000D01*
G01*
X131399000Y-75564000D01*
G75*
G02*
X131549000Y-75414000I150000J0D01*
G01*
G37*
G36*
G01*
X131549000Y-70464000D02*
X131849000Y-70464000D01*
G75*
G02*
X131999000Y-70614000I0J-150000D01*
G01*
X131999000Y-72264000D01*
G75*
G02*
X131849000Y-72414000I-150000J0D01*
G01*
X131549000Y-72414000D01*
G75*
G02*
X131399000Y-72264000I0J150000D01*
G01*
X131399000Y-70614000D01*
G75*
G02*
X131549000Y-70464000I150000J0D01*
G01*
G37*
G36*
G01*
X132819000Y-70464000D02*
X133119000Y-70464000D01*
G75*
G02*
X133269000Y-70614000I0J-150000D01*
G01*
X133269000Y-72264000D01*
G75*
G02*
X133119000Y-72414000I-150000J0D01*
G01*
X132819000Y-72414000D01*
G75*
G02*
X132669000Y-72264000I0J150000D01*
G01*
X132669000Y-70614000D01*
G75*
G02*
X132819000Y-70464000I150000J0D01*
G01*
G37*
G36*
G01*
X134089000Y-70464000D02*
X134389000Y-70464000D01*
G75*
G02*
X134539000Y-70614000I0J-150000D01*
G01*
X134539000Y-72264000D01*
G75*
G02*
X134389000Y-72414000I-150000J0D01*
G01*
X134089000Y-72414000D01*
G75*
G02*
X133939000Y-72264000I0J150000D01*
G01*
X133939000Y-70614000D01*
G75*
G02*
X134089000Y-70464000I150000J0D01*
G01*
G37*
G36*
G01*
X135359000Y-70464000D02*
X135659000Y-70464000D01*
G75*
G02*
X135809000Y-70614000I0J-150000D01*
G01*
X135809000Y-72264000D01*
G75*
G02*
X135659000Y-72414000I-150000J0D01*
G01*
X135359000Y-72414000D01*
G75*
G02*
X135209000Y-72264000I0J150000D01*
G01*
X135209000Y-70614000D01*
G75*
G02*
X135359000Y-70464000I150000J0D01*
G01*
G37*
G36*
G01*
X133606250Y-68103000D02*
X133093750Y-68103000D01*
G75*
G02*
X132875000Y-67884250I0J218750D01*
G01*
X132875000Y-67446750D01*
G75*
G02*
X133093750Y-67228000I218750J0D01*
G01*
X133606250Y-67228000D01*
G75*
G02*
X133825000Y-67446750I0J-218750D01*
G01*
X133825000Y-67884250D01*
G75*
G02*
X133606250Y-68103000I-218750J0D01*
G01*
G37*
G36*
G01*
X133606250Y-69678000D02*
X133093750Y-69678000D01*
G75*
G02*
X132875000Y-69459250I0J218750D01*
G01*
X132875000Y-69021750D01*
G75*
G02*
X133093750Y-68803000I218750J0D01*
G01*
X133606250Y-68803000D01*
G75*
G02*
X133825000Y-69021750I0J-218750D01*
G01*
X133825000Y-69459250D01*
G75*
G02*
X133606250Y-69678000I-218750J0D01*
G01*
G37*
G36*
G01*
X132135000Y-86838500D02*
X131935000Y-86838500D01*
G75*
G02*
X131835000Y-86738500I0J100000D01*
G01*
X131835000Y-85463500D01*
G75*
G02*
X131935000Y-85363500I100000J0D01*
G01*
X132135000Y-85363500D01*
G75*
G02*
X132235000Y-85463500I0J-100000D01*
G01*
X132235000Y-86738500D01*
G75*
G02*
X132135000Y-86838500I-100000J0D01*
G01*
G37*
G36*
G01*
X132785000Y-86838500D02*
X132585000Y-86838500D01*
G75*
G02*
X132485000Y-86738500I0J100000D01*
G01*
X132485000Y-85463500D01*
G75*
G02*
X132585000Y-85363500I100000J0D01*
G01*
X132785000Y-85363500D01*
G75*
G02*
X132885000Y-85463500I0J-100000D01*
G01*
X132885000Y-86738500D01*
G75*
G02*
X132785000Y-86838500I-100000J0D01*
G01*
G37*
G36*
G01*
X133435000Y-86838500D02*
X133235000Y-86838500D01*
G75*
G02*
X133135000Y-86738500I0J100000D01*
G01*
X133135000Y-85463500D01*
G75*
G02*
X133235000Y-85363500I100000J0D01*
G01*
X133435000Y-85363500D01*
G75*
G02*
X133535000Y-85463500I0J-100000D01*
G01*
X133535000Y-86738500D01*
G75*
G02*
X133435000Y-86838500I-100000J0D01*
G01*
G37*
G36*
G01*
X134085000Y-86838500D02*
X133885000Y-86838500D01*
G75*
G02*
X133785000Y-86738500I0J100000D01*
G01*
X133785000Y-85463500D01*
G75*
G02*
X133885000Y-85363500I100000J0D01*
G01*
X134085000Y-85363500D01*
G75*
G02*
X134185000Y-85463500I0J-100000D01*
G01*
X134185000Y-86738500D01*
G75*
G02*
X134085000Y-86838500I-100000J0D01*
G01*
G37*
G36*
G01*
X134735000Y-86838500D02*
X134535000Y-86838500D01*
G75*
G02*
X134435000Y-86738500I0J100000D01*
G01*
X134435000Y-85463500D01*
G75*
G02*
X134535000Y-85363500I100000J0D01*
G01*
X134735000Y-85363500D01*
G75*
G02*
X134835000Y-85463500I0J-100000D01*
G01*
X134835000Y-86738500D01*
G75*
G02*
X134735000Y-86838500I-100000J0D01*
G01*
G37*
G36*
G01*
X135385000Y-86838500D02*
X135185000Y-86838500D01*
G75*
G02*
X135085000Y-86738500I0J100000D01*
G01*
X135085000Y-85463500D01*
G75*
G02*
X135185000Y-85363500I100000J0D01*
G01*
X135385000Y-85363500D01*
G75*
G02*
X135485000Y-85463500I0J-100000D01*
G01*
X135485000Y-86738500D01*
G75*
G02*
X135385000Y-86838500I-100000J0D01*
G01*
G37*
G36*
G01*
X136035000Y-86838500D02*
X135835000Y-86838500D01*
G75*
G02*
X135735000Y-86738500I0J100000D01*
G01*
X135735000Y-85463500D01*
G75*
G02*
X135835000Y-85363500I100000J0D01*
G01*
X136035000Y-85363500D01*
G75*
G02*
X136135000Y-85463500I0J-100000D01*
G01*
X136135000Y-86738500D01*
G75*
G02*
X136035000Y-86838500I-100000J0D01*
G01*
G37*
G36*
G01*
X136035000Y-92563500D02*
X135835000Y-92563500D01*
G75*
G02*
X135735000Y-92463500I0J100000D01*
G01*
X135735000Y-91188500D01*
G75*
G02*
X135835000Y-91088500I100000J0D01*
G01*
X136035000Y-91088500D01*
G75*
G02*
X136135000Y-91188500I0J-100000D01*
G01*
X136135000Y-92463500D01*
G75*
G02*
X136035000Y-92563500I-100000J0D01*
G01*
G37*
G36*
G01*
X135385000Y-92563500D02*
X135185000Y-92563500D01*
G75*
G02*
X135085000Y-92463500I0J100000D01*
G01*
X135085000Y-91188500D01*
G75*
G02*
X135185000Y-91088500I100000J0D01*
G01*
X135385000Y-91088500D01*
G75*
G02*
X135485000Y-91188500I0J-100000D01*
G01*
X135485000Y-92463500D01*
G75*
G02*
X135385000Y-92563500I-100000J0D01*
G01*
G37*
G36*
G01*
X134735000Y-92563500D02*
X134535000Y-92563500D01*
G75*
G02*
X134435000Y-92463500I0J100000D01*
G01*
X134435000Y-91188500D01*
G75*
G02*
X134535000Y-91088500I100000J0D01*
G01*
X134735000Y-91088500D01*
G75*
G02*
X134835000Y-91188500I0J-100000D01*
G01*
X134835000Y-92463500D01*
G75*
G02*
X134735000Y-92563500I-100000J0D01*
G01*
G37*
G36*
G01*
X134085000Y-92563500D02*
X133885000Y-92563500D01*
G75*
G02*
X133785000Y-92463500I0J100000D01*
G01*
X133785000Y-91188500D01*
G75*
G02*
X133885000Y-91088500I100000J0D01*
G01*
X134085000Y-91088500D01*
G75*
G02*
X134185000Y-91188500I0J-100000D01*
G01*
X134185000Y-92463500D01*
G75*
G02*
X134085000Y-92563500I-100000J0D01*
G01*
G37*
G36*
G01*
X133435000Y-92563500D02*
X133235000Y-92563500D01*
G75*
G02*
X133135000Y-92463500I0J100000D01*
G01*
X133135000Y-91188500D01*
G75*
G02*
X133235000Y-91088500I100000J0D01*
G01*
X133435000Y-91088500D01*
G75*
G02*
X133535000Y-91188500I0J-100000D01*
G01*
X133535000Y-92463500D01*
G75*
G02*
X133435000Y-92563500I-100000J0D01*
G01*
G37*
G36*
G01*
X132785000Y-92563500D02*
X132585000Y-92563500D01*
G75*
G02*
X132485000Y-92463500I0J100000D01*
G01*
X132485000Y-91188500D01*
G75*
G02*
X132585000Y-91088500I100000J0D01*
G01*
X132785000Y-91088500D01*
G75*
G02*
X132885000Y-91188500I0J-100000D01*
G01*
X132885000Y-92463500D01*
G75*
G02*
X132785000Y-92563500I-100000J0D01*
G01*
G37*
G36*
G01*
X132135000Y-92563500D02*
X131935000Y-92563500D01*
G75*
G02*
X131835000Y-92463500I0J100000D01*
G01*
X131835000Y-91188500D01*
G75*
G02*
X131935000Y-91088500I100000J0D01*
G01*
X132135000Y-91088500D01*
G75*
G02*
X132235000Y-91188500I0J-100000D01*
G01*
X132235000Y-92463500D01*
G75*
G02*
X132135000Y-92563500I-100000J0D01*
G01*
G37*
G36*
G01*
X129982250Y-90583500D02*
X130494750Y-90583500D01*
G75*
G02*
X130713500Y-90802250I0J-218750D01*
G01*
X130713500Y-91239750D01*
G75*
G02*
X130494750Y-91458500I-218750J0D01*
G01*
X129982250Y-91458500D01*
G75*
G02*
X129763500Y-91239750I0J218750D01*
G01*
X129763500Y-90802250D01*
G75*
G02*
X129982250Y-90583500I218750J0D01*
G01*
G37*
G36*
G01*
X129982250Y-89008500D02*
X130494750Y-89008500D01*
G75*
G02*
X130713500Y-89227250I0J-218750D01*
G01*
X130713500Y-89664750D01*
G75*
G02*
X130494750Y-89883500I-218750J0D01*
G01*
X129982250Y-89883500D01*
G75*
G02*
X129763500Y-89664750I0J218750D01*
G01*
X129763500Y-89227250D01*
G75*
G02*
X129982250Y-89008500I218750J0D01*
G01*
G37*
G36*
G01*
X121062000Y-86738750D02*
X121062000Y-87251250D01*
G75*
G02*
X120843250Y-87470000I-218750J0D01*
G01*
X120405750Y-87470000D01*
G75*
G02*
X120187000Y-87251250I0J218750D01*
G01*
X120187000Y-86738750D01*
G75*
G02*
X120405750Y-86520000I218750J0D01*
G01*
X120843250Y-86520000D01*
G75*
G02*
X121062000Y-86738750I0J-218750D01*
G01*
G37*
G36*
G01*
X122637000Y-86738750D02*
X122637000Y-87251250D01*
G75*
G02*
X122418250Y-87470000I-218750J0D01*
G01*
X121980750Y-87470000D01*
G75*
G02*
X121762000Y-87251250I0J218750D01*
G01*
X121762000Y-86738750D01*
G75*
G02*
X121980750Y-86520000I218750J0D01*
G01*
X122418250Y-86520000D01*
G75*
G02*
X122637000Y-86738750I0J-218750D01*
G01*
G37*
D10*
X111506000Y-88744000D03*
X111506000Y-81944000D03*
G36*
G01*
X116830000Y-84569000D02*
X115580000Y-84569000D01*
G75*
G02*
X115330000Y-84319000I0J250000D01*
G01*
X115330000Y-83569000D01*
G75*
G02*
X115580000Y-83319000I250000J0D01*
G01*
X116830000Y-83319000D01*
G75*
G02*
X117080000Y-83569000I0J-250000D01*
G01*
X117080000Y-84319000D01*
G75*
G02*
X116830000Y-84569000I-250000J0D01*
G01*
G37*
G36*
G01*
X116830000Y-87369000D02*
X115580000Y-87369000D01*
G75*
G02*
X115330000Y-87119000I0J250000D01*
G01*
X115330000Y-86369000D01*
G75*
G02*
X115580000Y-86119000I250000J0D01*
G01*
X116830000Y-86119000D01*
G75*
G02*
X117080000Y-86369000I0J-250000D01*
G01*
X117080000Y-87119000D01*
G75*
G02*
X116830000Y-87369000I-250000J0D01*
G01*
G37*
D11*
X138684000Y-80121000D03*
X137734000Y-78121000D03*
X139634000Y-78121000D03*
D12*
X112569500Y-97155000D03*
X110569500Y-98105000D03*
X110569500Y-96205000D03*
D13*
X117601000Y-94024000D03*
X120651000Y-97374000D03*
X120651000Y-94024000D03*
X117601000Y-97374000D03*
D14*
X116846000Y-89399000D03*
X121406000Y-89399000D03*
G36*
G01*
X125318000Y-95379250D02*
X125318000Y-94866750D01*
G75*
G02*
X125536750Y-94648000I218750J0D01*
G01*
X125974250Y-94648000D01*
G75*
G02*
X126193000Y-94866750I0J-218750D01*
G01*
X126193000Y-95379250D01*
G75*
G02*
X125974250Y-95598000I-218750J0D01*
G01*
X125536750Y-95598000D01*
G75*
G02*
X125318000Y-95379250I0J218750D01*
G01*
G37*
G36*
G01*
X123743000Y-95379250D02*
X123743000Y-94866750D01*
G75*
G02*
X123961750Y-94648000I218750J0D01*
G01*
X124399250Y-94648000D01*
G75*
G02*
X124618000Y-94866750I0J-218750D01*
G01*
X124618000Y-95379250D01*
G75*
G02*
X124399250Y-95598000I-218750J0D01*
G01*
X123961750Y-95598000D01*
G75*
G02*
X123743000Y-95379250I0J218750D01*
G01*
G37*
G36*
G01*
X124618000Y-93215750D02*
X124618000Y-93728250D01*
G75*
G02*
X124399250Y-93947000I-218750J0D01*
G01*
X123961750Y-93947000D01*
G75*
G02*
X123743000Y-93728250I0J218750D01*
G01*
X123743000Y-93215750D01*
G75*
G02*
X123961750Y-92997000I218750J0D01*
G01*
X124399250Y-92997000D01*
G75*
G02*
X124618000Y-93215750I0J-218750D01*
G01*
G37*
G36*
G01*
X126193000Y-93215750D02*
X126193000Y-93728250D01*
G75*
G02*
X125974250Y-93947000I-218750J0D01*
G01*
X125536750Y-93947000D01*
G75*
G02*
X125318000Y-93728250I0J218750D01*
G01*
X125318000Y-93215750D01*
G75*
G02*
X125536750Y-92997000I218750J0D01*
G01*
X125974250Y-92997000D01*
G75*
G02*
X126193000Y-93215750I0J-218750D01*
G01*
G37*
G36*
G01*
X126175000Y-65486500D02*
X126175000Y-65831500D01*
G75*
G02*
X126027500Y-65979000I-147500J0D01*
G01*
X125732500Y-65979000D01*
G75*
G02*
X125585000Y-65831500I0J147500D01*
G01*
X125585000Y-65486500D01*
G75*
G02*
X125732500Y-65339000I147500J0D01*
G01*
X126027500Y-65339000D01*
G75*
G02*
X126175000Y-65486500I0J-147500D01*
G01*
G37*
G36*
G01*
X127145000Y-65486500D02*
X127145000Y-65831500D01*
G75*
G02*
X126997500Y-65979000I-147500J0D01*
G01*
X126702500Y-65979000D01*
G75*
G02*
X126555000Y-65831500I0J147500D01*
G01*
X126555000Y-65486500D01*
G75*
G02*
X126702500Y-65339000I147500J0D01*
G01*
X126997500Y-65339000D01*
G75*
G02*
X127145000Y-65486500I0J-147500D01*
G01*
G37*
G36*
G01*
X126240250Y-69043000D02*
X125727750Y-69043000D01*
G75*
G02*
X125509000Y-68824250I0J218750D01*
G01*
X125509000Y-68386750D01*
G75*
G02*
X125727750Y-68168000I218750J0D01*
G01*
X126240250Y-68168000D01*
G75*
G02*
X126459000Y-68386750I0J-218750D01*
G01*
X126459000Y-68824250D01*
G75*
G02*
X126240250Y-69043000I-218750J0D01*
G01*
G37*
G36*
G01*
X126240250Y-67468000D02*
X125727750Y-67468000D01*
G75*
G02*
X125509000Y-67249250I0J218750D01*
G01*
X125509000Y-66811750D01*
G75*
G02*
X125727750Y-66593000I218750J0D01*
G01*
X126240250Y-66593000D01*
G75*
G02*
X126459000Y-66811750I0J-218750D01*
G01*
X126459000Y-67249250D01*
G75*
G02*
X126240250Y-67468000I-218750J0D01*
G01*
G37*
G36*
G01*
X126341850Y-98862400D02*
X125829350Y-98862400D01*
G75*
G02*
X125610600Y-98643650I0J218750D01*
G01*
X125610600Y-98206150D01*
G75*
G02*
X125829350Y-97987400I218750J0D01*
G01*
X126341850Y-97987400D01*
G75*
G02*
X126560600Y-98206150I0J-218750D01*
G01*
X126560600Y-98643650D01*
G75*
G02*
X126341850Y-98862400I-218750J0D01*
G01*
G37*
G36*
G01*
X126341850Y-100437400D02*
X125829350Y-100437400D01*
G75*
G02*
X125610600Y-100218650I0J218750D01*
G01*
X125610600Y-99781150D01*
G75*
G02*
X125829350Y-99562400I218750J0D01*
G01*
X126341850Y-99562400D01*
G75*
G02*
X126560600Y-99781150I0J-218750D01*
G01*
X126560600Y-100218650D01*
G75*
G02*
X126341850Y-100437400I-218750J0D01*
G01*
G37*
G36*
G01*
X124970250Y-70516000D02*
X124457750Y-70516000D01*
G75*
G02*
X124239000Y-70297250I0J218750D01*
G01*
X124239000Y-69859750D01*
G75*
G02*
X124457750Y-69641000I218750J0D01*
G01*
X124970250Y-69641000D01*
G75*
G02*
X125189000Y-69859750I0J-218750D01*
G01*
X125189000Y-70297250D01*
G75*
G02*
X124970250Y-70516000I-218750J0D01*
G01*
G37*
G36*
G01*
X124970250Y-72091000D02*
X124457750Y-72091000D01*
G75*
G02*
X124239000Y-71872250I0J218750D01*
G01*
X124239000Y-71434750D01*
G75*
G02*
X124457750Y-71216000I218750J0D01*
G01*
X124970250Y-71216000D01*
G75*
G02*
X125189000Y-71434750I0J-218750D01*
G01*
X125189000Y-71872250D01*
G75*
G02*
X124970250Y-72091000I-218750J0D01*
G01*
G37*
G36*
G01*
X124589250Y-67468000D02*
X124076750Y-67468000D01*
G75*
G02*
X123858000Y-67249250I0J218750D01*
G01*
X123858000Y-66811750D01*
G75*
G02*
X124076750Y-66593000I218750J0D01*
G01*
X124589250Y-66593000D01*
G75*
G02*
X124808000Y-66811750I0J-218750D01*
G01*
X124808000Y-67249250D01*
G75*
G02*
X124589250Y-67468000I-218750J0D01*
G01*
G37*
G36*
G01*
X124589250Y-69043000D02*
X124076750Y-69043000D01*
G75*
G02*
X123858000Y-68824250I0J218750D01*
G01*
X123858000Y-68386750D01*
G75*
G02*
X124076750Y-68168000I218750J0D01*
G01*
X124589250Y-68168000D01*
G75*
G02*
X124808000Y-68386750I0J-218750D01*
G01*
X124808000Y-68824250D01*
G75*
G02*
X124589250Y-69043000I-218750J0D01*
G01*
G37*
G36*
G01*
X142939000Y-74884500D02*
X142939000Y-75229500D01*
G75*
G02*
X142791500Y-75377000I-147500J0D01*
G01*
X142496500Y-75377000D01*
G75*
G02*
X142349000Y-75229500I0J147500D01*
G01*
X142349000Y-74884500D01*
G75*
G02*
X142496500Y-74737000I147500J0D01*
G01*
X142791500Y-74737000D01*
G75*
G02*
X142939000Y-74884500I0J-147500D01*
G01*
G37*
G36*
G01*
X143909000Y-74884500D02*
X143909000Y-75229500D01*
G75*
G02*
X143761500Y-75377000I-147500J0D01*
G01*
X143466500Y-75377000D01*
G75*
G02*
X143319000Y-75229500I0J147500D01*
G01*
X143319000Y-74884500D01*
G75*
G02*
X143466500Y-74737000I147500J0D01*
G01*
X143761500Y-74737000D01*
G75*
G02*
X143909000Y-74884500I0J-147500D01*
G01*
G37*
G36*
G01*
X142939000Y-75964000D02*
X142939000Y-76309000D01*
G75*
G02*
X142791500Y-76456500I-147500J0D01*
G01*
X142496500Y-76456500D01*
G75*
G02*
X142349000Y-76309000I0J147500D01*
G01*
X142349000Y-75964000D01*
G75*
G02*
X142496500Y-75816500I147500J0D01*
G01*
X142791500Y-75816500D01*
G75*
G02*
X142939000Y-75964000I0J-147500D01*
G01*
G37*
G36*
G01*
X143909000Y-75964000D02*
X143909000Y-76309000D01*
G75*
G02*
X143761500Y-76456500I-147500J0D01*
G01*
X143466500Y-76456500D01*
G75*
G02*
X143319000Y-76309000I0J147500D01*
G01*
X143319000Y-75964000D01*
G75*
G02*
X143466500Y-75816500I147500J0D01*
G01*
X143761500Y-75816500D01*
G75*
G02*
X143909000Y-75964000I0J-147500D01*
G01*
G37*
G36*
G01*
X124745000Y-101343750D02*
X124745000Y-101856250D01*
G75*
G02*
X124526250Y-102075000I-218750J0D01*
G01*
X124088750Y-102075000D01*
G75*
G02*
X123870000Y-101856250I0J218750D01*
G01*
X123870000Y-101343750D01*
G75*
G02*
X124088750Y-101125000I218750J0D01*
G01*
X124526250Y-101125000D01*
G75*
G02*
X124745000Y-101343750I0J-218750D01*
G01*
G37*
G36*
G01*
X126320000Y-101343750D02*
X126320000Y-101856250D01*
G75*
G02*
X126101250Y-102075000I-218750J0D01*
G01*
X125663750Y-102075000D01*
G75*
G02*
X125445000Y-101856250I0J218750D01*
G01*
X125445000Y-101343750D01*
G75*
G02*
X125663750Y-101125000I218750J0D01*
G01*
X126101250Y-101125000D01*
G75*
G02*
X126320000Y-101343750I0J-218750D01*
G01*
G37*
G36*
G01*
X124016000Y-65486500D02*
X124016000Y-65831500D01*
G75*
G02*
X123868500Y-65979000I-147500J0D01*
G01*
X123573500Y-65979000D01*
G75*
G02*
X123426000Y-65831500I0J147500D01*
G01*
X123426000Y-65486500D01*
G75*
G02*
X123573500Y-65339000I147500J0D01*
G01*
X123868500Y-65339000D01*
G75*
G02*
X124016000Y-65486500I0J-147500D01*
G01*
G37*
G36*
G01*
X124986000Y-65486500D02*
X124986000Y-65831500D01*
G75*
G02*
X124838500Y-65979000I-147500J0D01*
G01*
X124543500Y-65979000D01*
G75*
G02*
X124396000Y-65831500I0J147500D01*
G01*
X124396000Y-65486500D01*
G75*
G02*
X124543500Y-65339000I147500J0D01*
G01*
X124838500Y-65339000D01*
G75*
G02*
X124986000Y-65486500I0J-147500D01*
G01*
G37*
G36*
G01*
X141350500Y-75229500D02*
X141350500Y-74884500D01*
G75*
G02*
X141498000Y-74737000I147500J0D01*
G01*
X141793000Y-74737000D01*
G75*
G02*
X141940500Y-74884500I0J-147500D01*
G01*
X141940500Y-75229500D01*
G75*
G02*
X141793000Y-75377000I-147500J0D01*
G01*
X141498000Y-75377000D01*
G75*
G02*
X141350500Y-75229500I0J147500D01*
G01*
G37*
G36*
G01*
X140380500Y-75229500D02*
X140380500Y-74884500D01*
G75*
G02*
X140528000Y-74737000I147500J0D01*
G01*
X140823000Y-74737000D01*
G75*
G02*
X140970500Y-74884500I0J-147500D01*
G01*
X140970500Y-75229500D01*
G75*
G02*
X140823000Y-75377000I-147500J0D01*
G01*
X140528000Y-75377000D01*
G75*
G02*
X140380500Y-75229500I0J147500D01*
G01*
G37*
G36*
G01*
X122069500Y-76309000D02*
X122069500Y-75964000D01*
G75*
G02*
X122217000Y-75816500I147500J0D01*
G01*
X122512000Y-75816500D01*
G75*
G02*
X122659500Y-75964000I0J-147500D01*
G01*
X122659500Y-76309000D01*
G75*
G02*
X122512000Y-76456500I-147500J0D01*
G01*
X122217000Y-76456500D01*
G75*
G02*
X122069500Y-76309000I0J147500D01*
G01*
G37*
G36*
G01*
X121099500Y-76309000D02*
X121099500Y-75964000D01*
G75*
G02*
X121247000Y-75816500I147500J0D01*
G01*
X121542000Y-75816500D01*
G75*
G02*
X121689500Y-75964000I0J-147500D01*
G01*
X121689500Y-76309000D01*
G75*
G02*
X121542000Y-76456500I-147500J0D01*
G01*
X121247000Y-76456500D01*
G75*
G02*
X121099500Y-76309000I0J147500D01*
G01*
G37*
G36*
G01*
X132907750Y-94138000D02*
X132395250Y-94138000D01*
G75*
G02*
X132176500Y-93919250I0J218750D01*
G01*
X132176500Y-93481750D01*
G75*
G02*
X132395250Y-93263000I218750J0D01*
G01*
X132907750Y-93263000D01*
G75*
G02*
X133126500Y-93481750I0J-218750D01*
G01*
X133126500Y-93919250D01*
G75*
G02*
X132907750Y-94138000I-218750J0D01*
G01*
G37*
G36*
G01*
X132907750Y-95713000D02*
X132395250Y-95713000D01*
G75*
G02*
X132176500Y-95494250I0J218750D01*
G01*
X132176500Y-95056750D01*
G75*
G02*
X132395250Y-94838000I218750J0D01*
G01*
X132907750Y-94838000D01*
G75*
G02*
X133126500Y-95056750I0J-218750D01*
G01*
X133126500Y-95494250D01*
G75*
G02*
X132907750Y-95713000I-218750J0D01*
G01*
G37*
G36*
G01*
X111468400Y-102595900D02*
X111468400Y-102940900D01*
G75*
G02*
X111320900Y-103088400I-147500J0D01*
G01*
X111025900Y-103088400D01*
G75*
G02*
X110878400Y-102940900I0J147500D01*
G01*
X110878400Y-102595900D01*
G75*
G02*
X111025900Y-102448400I147500J0D01*
G01*
X111320900Y-102448400D01*
G75*
G02*
X111468400Y-102595900I0J-147500D01*
G01*
G37*
G36*
G01*
X112438400Y-102595900D02*
X112438400Y-102940900D01*
G75*
G02*
X112290900Y-103088400I-147500J0D01*
G01*
X111995900Y-103088400D01*
G75*
G02*
X111848400Y-102940900I0J147500D01*
G01*
X111848400Y-102595900D01*
G75*
G02*
X111995900Y-102448400I147500J0D01*
G01*
X112290900Y-102448400D01*
G75*
G02*
X112438400Y-102595900I0J-147500D01*
G01*
G37*
G36*
G01*
X127823250Y-95663500D02*
X128335750Y-95663500D01*
G75*
G02*
X128554500Y-95882250I0J-218750D01*
G01*
X128554500Y-96319750D01*
G75*
G02*
X128335750Y-96538500I-218750J0D01*
G01*
X127823250Y-96538500D01*
G75*
G02*
X127604500Y-96319750I0J218750D01*
G01*
X127604500Y-95882250D01*
G75*
G02*
X127823250Y-95663500I218750J0D01*
G01*
G37*
G36*
G01*
X127823250Y-94088500D02*
X128335750Y-94088500D01*
G75*
G02*
X128554500Y-94307250I0J-218750D01*
G01*
X128554500Y-94744750D01*
G75*
G02*
X128335750Y-94963500I-218750J0D01*
G01*
X127823250Y-94963500D01*
G75*
G02*
X127604500Y-94744750I0J218750D01*
G01*
X127604500Y-94307250D01*
G75*
G02*
X127823250Y-94088500I218750J0D01*
G01*
G37*
G36*
G01*
X133635000Y-65783750D02*
X133635000Y-66296250D01*
G75*
G02*
X133416250Y-66515000I-218750J0D01*
G01*
X132978750Y-66515000D01*
G75*
G02*
X132760000Y-66296250I0J218750D01*
G01*
X132760000Y-65783750D01*
G75*
G02*
X132978750Y-65565000I218750J0D01*
G01*
X133416250Y-65565000D01*
G75*
G02*
X133635000Y-65783750I0J-218750D01*
G01*
G37*
G36*
G01*
X135210000Y-65783750D02*
X135210000Y-66296250D01*
G75*
G02*
X134991250Y-66515000I-218750J0D01*
G01*
X134553750Y-66515000D01*
G75*
G02*
X134335000Y-66296250I0J218750D01*
G01*
X134335000Y-65783750D01*
G75*
G02*
X134553750Y-65565000I218750J0D01*
G01*
X134991250Y-65565000D01*
G75*
G02*
X135210000Y-65783750I0J-218750D01*
G01*
G37*
G36*
G01*
X135160500Y-78742250D02*
X135160500Y-78229750D01*
G75*
G02*
X135379250Y-78011000I218750J0D01*
G01*
X135816750Y-78011000D01*
G75*
G02*
X136035500Y-78229750I0J-218750D01*
G01*
X136035500Y-78742250D01*
G75*
G02*
X135816750Y-78961000I-218750J0D01*
G01*
X135379250Y-78961000D01*
G75*
G02*
X135160500Y-78742250I0J218750D01*
G01*
G37*
G36*
G01*
X133585500Y-78742250D02*
X133585500Y-78229750D01*
G75*
G02*
X133804250Y-78011000I218750J0D01*
G01*
X134241750Y-78011000D01*
G75*
G02*
X134460500Y-78229750I0J-218750D01*
G01*
X134460500Y-78742250D01*
G75*
G02*
X134241750Y-78961000I-218750J0D01*
G01*
X133804250Y-78961000D01*
G75*
G02*
X133585500Y-78742250I0J218750D01*
G01*
G37*
G36*
G01*
X135257250Y-68103000D02*
X134744750Y-68103000D01*
G75*
G02*
X134526000Y-67884250I0J218750D01*
G01*
X134526000Y-67446750D01*
G75*
G02*
X134744750Y-67228000I218750J0D01*
G01*
X135257250Y-67228000D01*
G75*
G02*
X135476000Y-67446750I0J-218750D01*
G01*
X135476000Y-67884250D01*
G75*
G02*
X135257250Y-68103000I-218750J0D01*
G01*
G37*
G36*
G01*
X135257250Y-69678000D02*
X134744750Y-69678000D01*
G75*
G02*
X134526000Y-69459250I0J218750D01*
G01*
X134526000Y-69021750D01*
G75*
G02*
X134744750Y-68803000I218750J0D01*
G01*
X135257250Y-68803000D01*
G75*
G02*
X135476000Y-69021750I0J-218750D01*
G01*
X135476000Y-69459250D01*
G75*
G02*
X135257250Y-69678000I-218750J0D01*
G01*
G37*
G36*
G01*
X138475500Y-107252000D02*
X138130500Y-107252000D01*
G75*
G02*
X137983000Y-107104500I0J147500D01*
G01*
X137983000Y-106809500D01*
G75*
G02*
X138130500Y-106662000I147500J0D01*
G01*
X138475500Y-106662000D01*
G75*
G02*
X138623000Y-106809500I0J-147500D01*
G01*
X138623000Y-107104500D01*
G75*
G02*
X138475500Y-107252000I-147500J0D01*
G01*
G37*
G36*
G01*
X138475500Y-108222000D02*
X138130500Y-108222000D01*
G75*
G02*
X137983000Y-108074500I0J147500D01*
G01*
X137983000Y-107779500D01*
G75*
G02*
X138130500Y-107632000I147500J0D01*
G01*
X138475500Y-107632000D01*
G75*
G02*
X138623000Y-107779500I0J-147500D01*
G01*
X138623000Y-108074500D01*
G75*
G02*
X138475500Y-108222000I-147500J0D01*
G01*
G37*
G36*
G01*
X126700500Y-75628000D02*
X127045500Y-75628000D01*
G75*
G02*
X127193000Y-75775500I0J-147500D01*
G01*
X127193000Y-76070500D01*
G75*
G02*
X127045500Y-76218000I-147500J0D01*
G01*
X126700500Y-76218000D01*
G75*
G02*
X126553000Y-76070500I0J147500D01*
G01*
X126553000Y-75775500D01*
G75*
G02*
X126700500Y-75628000I147500J0D01*
G01*
G37*
G36*
G01*
X126700500Y-74658000D02*
X127045500Y-74658000D01*
G75*
G02*
X127193000Y-74805500I0J-147500D01*
G01*
X127193000Y-75100500D01*
G75*
G02*
X127045500Y-75248000I-147500J0D01*
G01*
X126700500Y-75248000D01*
G75*
G02*
X126553000Y-75100500I0J147500D01*
G01*
X126553000Y-74805500D01*
G75*
G02*
X126700500Y-74658000I147500J0D01*
G01*
G37*
G36*
G01*
X130177250Y-73945000D02*
X129664750Y-73945000D01*
G75*
G02*
X129446000Y-73726250I0J218750D01*
G01*
X129446000Y-73288750D01*
G75*
G02*
X129664750Y-73070000I218750J0D01*
G01*
X130177250Y-73070000D01*
G75*
G02*
X130396000Y-73288750I0J-218750D01*
G01*
X130396000Y-73726250D01*
G75*
G02*
X130177250Y-73945000I-218750J0D01*
G01*
G37*
G36*
G01*
X130177250Y-75520000D02*
X129664750Y-75520000D01*
G75*
G02*
X129446000Y-75301250I0J218750D01*
G01*
X129446000Y-74863750D01*
G75*
G02*
X129664750Y-74645000I218750J0D01*
G01*
X130177250Y-74645000D01*
G75*
G02*
X130396000Y-74863750I0J-218750D01*
G01*
X130396000Y-75301250D01*
G75*
G02*
X130177250Y-75520000I-218750J0D01*
G01*
G37*
G36*
G01*
X134302000Y-84500500D02*
X134302000Y-84155500D01*
G75*
G02*
X134449500Y-84008000I147500J0D01*
G01*
X134744500Y-84008000D01*
G75*
G02*
X134892000Y-84155500I0J-147500D01*
G01*
X134892000Y-84500500D01*
G75*
G02*
X134744500Y-84648000I-147500J0D01*
G01*
X134449500Y-84648000D01*
G75*
G02*
X134302000Y-84500500I0J147500D01*
G01*
G37*
G36*
G01*
X133332000Y-84500500D02*
X133332000Y-84155500D01*
G75*
G02*
X133479500Y-84008000I147500J0D01*
G01*
X133774500Y-84008000D01*
G75*
G02*
X133922000Y-84155500I0J-147500D01*
G01*
X133922000Y-84500500D01*
G75*
G02*
X133774500Y-84648000I-147500J0D01*
G01*
X133479500Y-84648000D01*
G75*
G02*
X133332000Y-84500500I0J147500D01*
G01*
G37*
G36*
G01*
X139936000Y-91313500D02*
X139591000Y-91313500D01*
G75*
G02*
X139443500Y-91166000I0J147500D01*
G01*
X139443500Y-90871000D01*
G75*
G02*
X139591000Y-90723500I147500J0D01*
G01*
X139936000Y-90723500D01*
G75*
G02*
X140083500Y-90871000I0J-147500D01*
G01*
X140083500Y-91166000D01*
G75*
G02*
X139936000Y-91313500I-147500J0D01*
G01*
G37*
G36*
G01*
X139936000Y-92283500D02*
X139591000Y-92283500D01*
G75*
G02*
X139443500Y-92136000I0J147500D01*
G01*
X139443500Y-91841000D01*
G75*
G02*
X139591000Y-91693500I147500J0D01*
G01*
X139936000Y-91693500D01*
G75*
G02*
X140083500Y-91841000I0J-147500D01*
G01*
X140083500Y-92136000D01*
G75*
G02*
X139936000Y-92283500I-147500J0D01*
G01*
G37*
G36*
G01*
X111028700Y-104482400D02*
X111373700Y-104482400D01*
G75*
G02*
X111521200Y-104629900I0J-147500D01*
G01*
X111521200Y-104924900D01*
G75*
G02*
X111373700Y-105072400I-147500J0D01*
G01*
X111028700Y-105072400D01*
G75*
G02*
X110881200Y-104924900I0J147500D01*
G01*
X110881200Y-104629900D01*
G75*
G02*
X111028700Y-104482400I147500J0D01*
G01*
G37*
G36*
G01*
X111028700Y-103512400D02*
X111373700Y-103512400D01*
G75*
G02*
X111521200Y-103659900I0J-147500D01*
G01*
X111521200Y-103954900D01*
G75*
G02*
X111373700Y-104102400I-147500J0D01*
G01*
X111028700Y-104102400D01*
G75*
G02*
X110881200Y-103954900I0J147500D01*
G01*
X110881200Y-103659900D01*
G75*
G02*
X111028700Y-103512400I147500J0D01*
G01*
G37*
G36*
G01*
X112095500Y-104482400D02*
X112440500Y-104482400D01*
G75*
G02*
X112588000Y-104629900I0J-147500D01*
G01*
X112588000Y-104924900D01*
G75*
G02*
X112440500Y-105072400I-147500J0D01*
G01*
X112095500Y-105072400D01*
G75*
G02*
X111948000Y-104924900I0J147500D01*
G01*
X111948000Y-104629900D01*
G75*
G02*
X112095500Y-104482400I147500J0D01*
G01*
G37*
G36*
G01*
X112095500Y-103512400D02*
X112440500Y-103512400D01*
G75*
G02*
X112588000Y-103659900I0J-147500D01*
G01*
X112588000Y-103954900D01*
G75*
G02*
X112440500Y-104102400I-147500J0D01*
G01*
X112095500Y-104102400D01*
G75*
G02*
X111948000Y-103954900I0J147500D01*
G01*
X111948000Y-103659900D01*
G75*
G02*
X112095500Y-103512400I147500J0D01*
G01*
G37*
G36*
G01*
X129982250Y-93695000D02*
X130494750Y-93695000D01*
G75*
G02*
X130713500Y-93913750I0J-218750D01*
G01*
X130713500Y-94351250D01*
G75*
G02*
X130494750Y-94570000I-218750J0D01*
G01*
X129982250Y-94570000D01*
G75*
G02*
X129763500Y-94351250I0J218750D01*
G01*
X129763500Y-93913750D01*
G75*
G02*
X129982250Y-93695000I218750J0D01*
G01*
G37*
G36*
G01*
X129982250Y-92120000D02*
X130494750Y-92120000D01*
G75*
G02*
X130713500Y-92338750I0J-218750D01*
G01*
X130713500Y-92776250D01*
G75*
G02*
X130494750Y-92995000I-218750J0D01*
G01*
X129982250Y-92995000D01*
G75*
G02*
X129763500Y-92776250I0J218750D01*
G01*
X129763500Y-92338750D01*
G75*
G02*
X129982250Y-92120000I218750J0D01*
G01*
G37*
G36*
G01*
X138589500Y-97855750D02*
X138589500Y-97343250D01*
G75*
G02*
X138808250Y-97124500I218750J0D01*
G01*
X139245750Y-97124500D01*
G75*
G02*
X139464500Y-97343250I0J-218750D01*
G01*
X139464500Y-97855750D01*
G75*
G02*
X139245750Y-98074500I-218750J0D01*
G01*
X138808250Y-98074500D01*
G75*
G02*
X138589500Y-97855750I0J218750D01*
G01*
G37*
G36*
G01*
X137014500Y-97855750D02*
X137014500Y-97343250D01*
G75*
G02*
X137233250Y-97124500I218750J0D01*
G01*
X137670750Y-97124500D01*
G75*
G02*
X137889500Y-97343250I0J-218750D01*
G01*
X137889500Y-97855750D01*
G75*
G02*
X137670750Y-98074500I-218750J0D01*
G01*
X137233250Y-98074500D01*
G75*
G02*
X137014500Y-97855750I0J218750D01*
G01*
G37*
G36*
G01*
X137889500Y-95501750D02*
X137889500Y-96014250D01*
G75*
G02*
X137670750Y-96233000I-218750J0D01*
G01*
X137233250Y-96233000D01*
G75*
G02*
X137014500Y-96014250I0J218750D01*
G01*
X137014500Y-95501750D01*
G75*
G02*
X137233250Y-95283000I218750J0D01*
G01*
X137670750Y-95283000D01*
G75*
G02*
X137889500Y-95501750I0J-218750D01*
G01*
G37*
G36*
G01*
X139464500Y-95501750D02*
X139464500Y-96014250D01*
G75*
G02*
X139245750Y-96233000I-218750J0D01*
G01*
X138808250Y-96233000D01*
G75*
G02*
X138589500Y-96014250I0J218750D01*
G01*
X138589500Y-95501750D01*
G75*
G02*
X138808250Y-95283000I218750J0D01*
G01*
X139245750Y-95283000D01*
G75*
G02*
X139464500Y-95501750I0J-218750D01*
G01*
G37*
D13*
X143751000Y-68389000D03*
X140701000Y-65039000D03*
X140701000Y-68389000D03*
X143751000Y-65039000D03*
D14*
X144506000Y-73014000D03*
X139946000Y-73014000D03*
G36*
G01*
X117689500Y-81193500D02*
X117689500Y-81493500D01*
G75*
G02*
X117539500Y-81643500I-150000J0D01*
G01*
X115889500Y-81643500D01*
G75*
G02*
X115739500Y-81493500I0J150000D01*
G01*
X115739500Y-81193500D01*
G75*
G02*
X115889500Y-81043500I150000J0D01*
G01*
X117539500Y-81043500D01*
G75*
G02*
X117689500Y-81193500I0J-150000D01*
G01*
G37*
G36*
G01*
X117689500Y-79923500D02*
X117689500Y-80223500D01*
G75*
G02*
X117539500Y-80373500I-150000J0D01*
G01*
X115889500Y-80373500D01*
G75*
G02*
X115739500Y-80223500I0J150000D01*
G01*
X115739500Y-79923500D01*
G75*
G02*
X115889500Y-79773500I150000J0D01*
G01*
X117539500Y-79773500D01*
G75*
G02*
X117689500Y-79923500I0J-150000D01*
G01*
G37*
G36*
G01*
X117689500Y-78653500D02*
X117689500Y-78953500D01*
G75*
G02*
X117539500Y-79103500I-150000J0D01*
G01*
X115889500Y-79103500D01*
G75*
G02*
X115739500Y-78953500I0J150000D01*
G01*
X115739500Y-78653500D01*
G75*
G02*
X115889500Y-78503500I150000J0D01*
G01*
X117539500Y-78503500D01*
G75*
G02*
X117689500Y-78653500I0J-150000D01*
G01*
G37*
G36*
G01*
X117689500Y-77383500D02*
X117689500Y-77683500D01*
G75*
G02*
X117539500Y-77833500I-150000J0D01*
G01*
X115889500Y-77833500D01*
G75*
G02*
X115739500Y-77683500I0J150000D01*
G01*
X115739500Y-77383500D01*
G75*
G02*
X115889500Y-77233500I150000J0D01*
G01*
X117539500Y-77233500D01*
G75*
G02*
X117689500Y-77383500I0J-150000D01*
G01*
G37*
G36*
G01*
X122639500Y-77383500D02*
X122639500Y-77683500D01*
G75*
G02*
X122489500Y-77833500I-150000J0D01*
G01*
X120839500Y-77833500D01*
G75*
G02*
X120689500Y-77683500I0J150000D01*
G01*
X120689500Y-77383500D01*
G75*
G02*
X120839500Y-77233500I150000J0D01*
G01*
X122489500Y-77233500D01*
G75*
G02*
X122639500Y-77383500I0J-150000D01*
G01*
G37*
G36*
G01*
X122639500Y-78653500D02*
X122639500Y-78953500D01*
G75*
G02*
X122489500Y-79103500I-150000J0D01*
G01*
X120839500Y-79103500D01*
G75*
G02*
X120689500Y-78953500I0J150000D01*
G01*
X120689500Y-78653500D01*
G75*
G02*
X120839500Y-78503500I150000J0D01*
G01*
X122489500Y-78503500D01*
G75*
G02*
X122639500Y-78653500I0J-150000D01*
G01*
G37*
G36*
G01*
X122639500Y-79923500D02*
X122639500Y-80223500D01*
G75*
G02*
X122489500Y-80373500I-150000J0D01*
G01*
X120839500Y-80373500D01*
G75*
G02*
X120689500Y-80223500I0J150000D01*
G01*
X120689500Y-79923500D01*
G75*
G02*
X120839500Y-79773500I150000J0D01*
G01*
X122489500Y-79773500D01*
G75*
G02*
X122639500Y-79923500I0J-150000D01*
G01*
G37*
G36*
G01*
X122639500Y-81193500D02*
X122639500Y-81493500D01*
G75*
G02*
X122489500Y-81643500I-150000J0D01*
G01*
X120839500Y-81643500D01*
G75*
G02*
X120689500Y-81493500I0J150000D01*
G01*
X120689500Y-81193500D01*
G75*
G02*
X120839500Y-81043500I150000J0D01*
G01*
X122489500Y-81043500D01*
G75*
G02*
X122639500Y-81193500I0J-150000D01*
G01*
G37*
G36*
G01*
X144714250Y-76423000D02*
X145226750Y-76423000D01*
G75*
G02*
X145445500Y-76641750I0J-218750D01*
G01*
X145445500Y-77079250D01*
G75*
G02*
X145226750Y-77298000I-218750J0D01*
G01*
X144714250Y-77298000D01*
G75*
G02*
X144495500Y-77079250I0J218750D01*
G01*
X144495500Y-76641750D01*
G75*
G02*
X144714250Y-76423000I218750J0D01*
G01*
G37*
G36*
G01*
X144714250Y-74848000D02*
X145226750Y-74848000D01*
G75*
G02*
X145445500Y-75066750I0J-218750D01*
G01*
X145445500Y-75504250D01*
G75*
G02*
X145226750Y-75723000I-218750J0D01*
G01*
X144714250Y-75723000D01*
G75*
G02*
X144495500Y-75504250I0J218750D01*
G01*
X144495500Y-75066750D01*
G75*
G02*
X144714250Y-74848000I218750J0D01*
G01*
G37*
D15*
X121920000Y-74648000D03*
X121920000Y-71148000D03*
X119380000Y-71148000D03*
X119380000Y-74648000D03*
X116840000Y-74648000D03*
X116840000Y-71148000D03*
G36*
G01*
X109598750Y-107665000D02*
X110111250Y-107665000D01*
G75*
G02*
X110330000Y-107883750I0J-218750D01*
G01*
X110330000Y-108321250D01*
G75*
G02*
X110111250Y-108540000I-218750J0D01*
G01*
X109598750Y-108540000D01*
G75*
G02*
X109380000Y-108321250I0J218750D01*
G01*
X109380000Y-107883750D01*
G75*
G02*
X109598750Y-107665000I218750J0D01*
G01*
G37*
G36*
G01*
X109598750Y-106090000D02*
X110111250Y-106090000D01*
G75*
G02*
X110330000Y-106308750I0J-218750D01*
G01*
X110330000Y-106746250D01*
G75*
G02*
X110111250Y-106965000I-218750J0D01*
G01*
X109598750Y-106965000D01*
G75*
G02*
X109380000Y-106746250I0J218750D01*
G01*
X109380000Y-106308750D01*
G75*
G02*
X109598750Y-106090000I218750J0D01*
G01*
G37*
G36*
G01*
X109598750Y-111221000D02*
X110111250Y-111221000D01*
G75*
G02*
X110330000Y-111439750I0J-218750D01*
G01*
X110330000Y-111877250D01*
G75*
G02*
X110111250Y-112096000I-218750J0D01*
G01*
X109598750Y-112096000D01*
G75*
G02*
X109380000Y-111877250I0J218750D01*
G01*
X109380000Y-111439750D01*
G75*
G02*
X109598750Y-111221000I218750J0D01*
G01*
G37*
G36*
G01*
X109598750Y-109646000D02*
X110111250Y-109646000D01*
G75*
G02*
X110330000Y-109864750I0J-218750D01*
G01*
X110330000Y-110302250D01*
G75*
G02*
X110111250Y-110521000I-218750J0D01*
G01*
X109598750Y-110521000D01*
G75*
G02*
X109380000Y-110302250I0J218750D01*
G01*
X109380000Y-109864750D01*
G75*
G02*
X109598750Y-109646000I218750J0D01*
G01*
G37*
G36*
G01*
X124872000Y-96517750D02*
X124872000Y-97030250D01*
G75*
G02*
X124653250Y-97249000I-218750J0D01*
G01*
X124215750Y-97249000D01*
G75*
G02*
X123997000Y-97030250I0J218750D01*
G01*
X123997000Y-96517750D01*
G75*
G02*
X124215750Y-96299000I218750J0D01*
G01*
X124653250Y-96299000D01*
G75*
G02*
X124872000Y-96517750I0J-218750D01*
G01*
G37*
G36*
G01*
X126447000Y-96517750D02*
X126447000Y-97030250D01*
G75*
G02*
X126228250Y-97249000I-218750J0D01*
G01*
X125790750Y-97249000D01*
G75*
G02*
X125572000Y-97030250I0J218750D01*
G01*
X125572000Y-96517750D01*
G75*
G02*
X125790750Y-96299000I218750J0D01*
G01*
X126228250Y-96299000D01*
G75*
G02*
X126447000Y-96517750I0J-218750D01*
G01*
G37*
G36*
G01*
X124922500Y-83502000D02*
X125267500Y-83502000D01*
G75*
G02*
X125415000Y-83649500I0J-147500D01*
G01*
X125415000Y-83944500D01*
G75*
G02*
X125267500Y-84092000I-147500J0D01*
G01*
X124922500Y-84092000D01*
G75*
G02*
X124775000Y-83944500I0J147500D01*
G01*
X124775000Y-83649500D01*
G75*
G02*
X124922500Y-83502000I147500J0D01*
G01*
G37*
G36*
G01*
X124922500Y-82532000D02*
X125267500Y-82532000D01*
G75*
G02*
X125415000Y-82679500I0J-147500D01*
G01*
X125415000Y-82974500D01*
G75*
G02*
X125267500Y-83122000I-147500J0D01*
G01*
X124922500Y-83122000D01*
G75*
G02*
X124775000Y-82974500I0J147500D01*
G01*
X124775000Y-82679500D01*
G75*
G02*
X124922500Y-82532000I147500J0D01*
G01*
G37*
G36*
G01*
X124614650Y-98862400D02*
X124102150Y-98862400D01*
G75*
G02*
X123883400Y-98643650I0J218750D01*
G01*
X123883400Y-98206150D01*
G75*
G02*
X124102150Y-97987400I218750J0D01*
G01*
X124614650Y-97987400D01*
G75*
G02*
X124833400Y-98206150I0J-218750D01*
G01*
X124833400Y-98643650D01*
G75*
G02*
X124614650Y-98862400I-218750J0D01*
G01*
G37*
G36*
G01*
X124614650Y-100437400D02*
X124102150Y-100437400D01*
G75*
G02*
X123883400Y-100218650I0J218750D01*
G01*
X123883400Y-99781150D01*
G75*
G02*
X124102150Y-99562400I218750J0D01*
G01*
X124614650Y-99562400D01*
G75*
G02*
X124833400Y-99781150I0J-218750D01*
G01*
X124833400Y-100218650D01*
G75*
G02*
X124614650Y-100437400I-218750J0D01*
G01*
G37*
G36*
G01*
X141158250Y-79280500D02*
X141670750Y-79280500D01*
G75*
G02*
X141889500Y-79499250I0J-218750D01*
G01*
X141889500Y-79936750D01*
G75*
G02*
X141670750Y-80155500I-218750J0D01*
G01*
X141158250Y-80155500D01*
G75*
G02*
X140939500Y-79936750I0J218750D01*
G01*
X140939500Y-79499250D01*
G75*
G02*
X141158250Y-79280500I218750J0D01*
G01*
G37*
G36*
G01*
X141158250Y-77705500D02*
X141670750Y-77705500D01*
G75*
G02*
X141889500Y-77924250I0J-218750D01*
G01*
X141889500Y-78361750D01*
G75*
G02*
X141670750Y-78580500I-218750J0D01*
G01*
X141158250Y-78580500D01*
G75*
G02*
X140939500Y-78361750I0J218750D01*
G01*
X140939500Y-77924250D01*
G75*
G02*
X141158250Y-77705500I218750J0D01*
G01*
G37*
G36*
G01*
X128334000Y-93045500D02*
X128334000Y-93390500D01*
G75*
G02*
X128186500Y-93538000I-147500J0D01*
G01*
X127891500Y-93538000D01*
G75*
G02*
X127744000Y-93390500I0J147500D01*
G01*
X127744000Y-93045500D01*
G75*
G02*
X127891500Y-92898000I147500J0D01*
G01*
X128186500Y-92898000D01*
G75*
G02*
X128334000Y-93045500I0J-147500D01*
G01*
G37*
G36*
G01*
X129304000Y-93045500D02*
X129304000Y-93390500D01*
G75*
G02*
X129156500Y-93538000I-147500J0D01*
G01*
X128861500Y-93538000D01*
G75*
G02*
X128714000Y-93390500I0J147500D01*
G01*
X128714000Y-93045500D01*
G75*
G02*
X128861500Y-92898000I147500J0D01*
G01*
X129156500Y-92898000D01*
G75*
G02*
X129304000Y-93045500I0J-147500D01*
G01*
G37*
G36*
G01*
X110297250Y-101061000D02*
X110809750Y-101061000D01*
G75*
G02*
X111028500Y-101279750I0J-218750D01*
G01*
X111028500Y-101717250D01*
G75*
G02*
X110809750Y-101936000I-218750J0D01*
G01*
X110297250Y-101936000D01*
G75*
G02*
X110078500Y-101717250I0J218750D01*
G01*
X110078500Y-101279750D01*
G75*
G02*
X110297250Y-101061000I218750J0D01*
G01*
G37*
G36*
G01*
X110297250Y-99486000D02*
X110809750Y-99486000D01*
G75*
G02*
X111028500Y-99704750I0J-218750D01*
G01*
X111028500Y-100142250D01*
G75*
G02*
X110809750Y-100361000I-218750J0D01*
G01*
X110297250Y-100361000D01*
G75*
G02*
X110078500Y-100142250I0J218750D01*
G01*
X110078500Y-99704750D01*
G75*
G02*
X110297250Y-99486000I218750J0D01*
G01*
G37*
G36*
G01*
X111948250Y-101061000D02*
X112460750Y-101061000D01*
G75*
G02*
X112679500Y-101279750I0J-218750D01*
G01*
X112679500Y-101717250D01*
G75*
G02*
X112460750Y-101936000I-218750J0D01*
G01*
X111948250Y-101936000D01*
G75*
G02*
X111729500Y-101717250I0J218750D01*
G01*
X111729500Y-101279750D01*
G75*
G02*
X111948250Y-101061000I218750J0D01*
G01*
G37*
G36*
G01*
X111948250Y-99486000D02*
X112460750Y-99486000D01*
G75*
G02*
X112679500Y-99704750I0J-218750D01*
G01*
X112679500Y-100142250D01*
G75*
G02*
X112460750Y-100361000I-218750J0D01*
G01*
X111948250Y-100361000D01*
G75*
G02*
X111729500Y-100142250I0J218750D01*
G01*
X111729500Y-99704750D01*
G75*
G02*
X111948250Y-99486000I218750J0D01*
G01*
G37*
G36*
G01*
X114904000Y-100268750D02*
X114904000Y-99756250D01*
G75*
G02*
X115122750Y-99537500I218750J0D01*
G01*
X115560250Y-99537500D01*
G75*
G02*
X115779000Y-99756250I0J-218750D01*
G01*
X115779000Y-100268750D01*
G75*
G02*
X115560250Y-100487500I-218750J0D01*
G01*
X115122750Y-100487500D01*
G75*
G02*
X114904000Y-100268750I0J218750D01*
G01*
G37*
G36*
G01*
X113329000Y-100268750D02*
X113329000Y-99756250D01*
G75*
G02*
X113547750Y-99537500I218750J0D01*
G01*
X113985250Y-99537500D01*
G75*
G02*
X114204000Y-99756250I0J-218750D01*
G01*
X114204000Y-100268750D01*
G75*
G02*
X113985250Y-100487500I-218750J0D01*
G01*
X113547750Y-100487500D01*
G75*
G02*
X113329000Y-100268750I0J218750D01*
G01*
G37*
G36*
G01*
X114594000Y-98788000D02*
X114594000Y-98443000D01*
G75*
G02*
X114741500Y-98295500I147500J0D01*
G01*
X115036500Y-98295500D01*
G75*
G02*
X115184000Y-98443000I0J-147500D01*
G01*
X115184000Y-98788000D01*
G75*
G02*
X115036500Y-98935500I-147500J0D01*
G01*
X114741500Y-98935500D01*
G75*
G02*
X114594000Y-98788000I0J147500D01*
G01*
G37*
G36*
G01*
X113624000Y-98788000D02*
X113624000Y-98443000D01*
G75*
G02*
X113771500Y-98295500I147500J0D01*
G01*
X114066500Y-98295500D01*
G75*
G02*
X114214000Y-98443000I0J-147500D01*
G01*
X114214000Y-98788000D01*
G75*
G02*
X114066500Y-98935500I-147500J0D01*
G01*
X113771500Y-98935500D01*
G75*
G02*
X113624000Y-98788000I0J147500D01*
G01*
G37*
G36*
G01*
X112966000Y-94914500D02*
X112966000Y-94569500D01*
G75*
G02*
X113113500Y-94422000I147500J0D01*
G01*
X113408500Y-94422000D01*
G75*
G02*
X113556000Y-94569500I0J-147500D01*
G01*
X113556000Y-94914500D01*
G75*
G02*
X113408500Y-95062000I-147500J0D01*
G01*
X113113500Y-95062000D01*
G75*
G02*
X112966000Y-94914500I0J147500D01*
G01*
G37*
G36*
G01*
X111996000Y-94914500D02*
X111996000Y-94569500D01*
G75*
G02*
X112143500Y-94422000I147500J0D01*
G01*
X112438500Y-94422000D01*
G75*
G02*
X112586000Y-94569500I0J-147500D01*
G01*
X112586000Y-94914500D01*
G75*
G02*
X112438500Y-95062000I-147500J0D01*
G01*
X112143500Y-95062000D01*
G75*
G02*
X111996000Y-94914500I0J147500D01*
G01*
G37*
G36*
G01*
X109759000Y-94231750D02*
X109759000Y-94744250D01*
G75*
G02*
X109540250Y-94963000I-218750J0D01*
G01*
X109102750Y-94963000D01*
G75*
G02*
X108884000Y-94744250I0J218750D01*
G01*
X108884000Y-94231750D01*
G75*
G02*
X109102750Y-94013000I218750J0D01*
G01*
X109540250Y-94013000D01*
G75*
G02*
X109759000Y-94231750I0J-218750D01*
G01*
G37*
G36*
G01*
X111334000Y-94231750D02*
X111334000Y-94744250D01*
G75*
G02*
X111115250Y-94963000I-218750J0D01*
G01*
X110677750Y-94963000D01*
G75*
G02*
X110459000Y-94744250I0J218750D01*
G01*
X110459000Y-94231750D01*
G75*
G02*
X110677750Y-94013000I218750J0D01*
G01*
X111115250Y-94013000D01*
G75*
G02*
X111334000Y-94231750I0J-218750D01*
G01*
G37*
G36*
G01*
X109759000Y-92580750D02*
X109759000Y-93093250D01*
G75*
G02*
X109540250Y-93312000I-218750J0D01*
G01*
X109102750Y-93312000D01*
G75*
G02*
X108884000Y-93093250I0J218750D01*
G01*
X108884000Y-92580750D01*
G75*
G02*
X109102750Y-92362000I218750J0D01*
G01*
X109540250Y-92362000D01*
G75*
G02*
X109759000Y-92580750I0J-218750D01*
G01*
G37*
G36*
G01*
X111334000Y-92580750D02*
X111334000Y-93093250D01*
G75*
G02*
X111115250Y-93312000I-218750J0D01*
G01*
X110677750Y-93312000D01*
G75*
G02*
X110459000Y-93093250I0J218750D01*
G01*
X110459000Y-92580750D01*
G75*
G02*
X110677750Y-92362000I218750J0D01*
G01*
X111115250Y-92362000D01*
G75*
G02*
X111334000Y-92580750I0J-218750D01*
G01*
G37*
G36*
G01*
X109759000Y-90929750D02*
X109759000Y-91442250D01*
G75*
G02*
X109540250Y-91661000I-218750J0D01*
G01*
X109102750Y-91661000D01*
G75*
G02*
X108884000Y-91442250I0J218750D01*
G01*
X108884000Y-90929750D01*
G75*
G02*
X109102750Y-90711000I218750J0D01*
G01*
X109540250Y-90711000D01*
G75*
G02*
X109759000Y-90929750I0J-218750D01*
G01*
G37*
G36*
G01*
X111334000Y-90929750D02*
X111334000Y-91442250D01*
G75*
G02*
X111115250Y-91661000I-218750J0D01*
G01*
X110677750Y-91661000D01*
G75*
G02*
X110459000Y-91442250I0J218750D01*
G01*
X110459000Y-90929750D01*
G75*
G02*
X110677750Y-90711000I218750J0D01*
G01*
X111115250Y-90711000D01*
G75*
G02*
X111334000Y-90929750I0J-218750D01*
G01*
G37*
G36*
G01*
X121062000Y-83436750D02*
X121062000Y-83949250D01*
G75*
G02*
X120843250Y-84168000I-218750J0D01*
G01*
X120405750Y-84168000D01*
G75*
G02*
X120187000Y-83949250I0J218750D01*
G01*
X120187000Y-83436750D01*
G75*
G02*
X120405750Y-83218000I218750J0D01*
G01*
X120843250Y-83218000D01*
G75*
G02*
X121062000Y-83436750I0J-218750D01*
G01*
G37*
G36*
G01*
X122637000Y-83436750D02*
X122637000Y-83949250D01*
G75*
G02*
X122418250Y-84168000I-218750J0D01*
G01*
X121980750Y-84168000D01*
G75*
G02*
X121762000Y-83949250I0J218750D01*
G01*
X121762000Y-83436750D01*
G75*
G02*
X121980750Y-83218000I218750J0D01*
G01*
X122418250Y-83218000D01*
G75*
G02*
X122637000Y-83436750I0J-218750D01*
G01*
G37*
G36*
G01*
X121062000Y-85087750D02*
X121062000Y-85600250D01*
G75*
G02*
X120843250Y-85819000I-218750J0D01*
G01*
X120405750Y-85819000D01*
G75*
G02*
X120187000Y-85600250I0J218750D01*
G01*
X120187000Y-85087750D01*
G75*
G02*
X120405750Y-84869000I218750J0D01*
G01*
X120843250Y-84869000D01*
G75*
G02*
X121062000Y-85087750I0J-218750D01*
G01*
G37*
G36*
G01*
X122637000Y-85087750D02*
X122637000Y-85600250D01*
G75*
G02*
X122418250Y-85819000I-218750J0D01*
G01*
X121980750Y-85819000D01*
G75*
G02*
X121762000Y-85600250I0J218750D01*
G01*
X121762000Y-85087750D01*
G75*
G02*
X121980750Y-84869000I218750J0D01*
G01*
X122418250Y-84869000D01*
G75*
G02*
X122637000Y-85087750I0J-218750D01*
G01*
G37*
G36*
G01*
X119243000Y-84569000D02*
X117993000Y-84569000D01*
G75*
G02*
X117743000Y-84319000I0J250000D01*
G01*
X117743000Y-83569000D01*
G75*
G02*
X117993000Y-83319000I250000J0D01*
G01*
X119243000Y-83319000D01*
G75*
G02*
X119493000Y-83569000I0J-250000D01*
G01*
X119493000Y-84319000D01*
G75*
G02*
X119243000Y-84569000I-250000J0D01*
G01*
G37*
G36*
G01*
X119243000Y-87369000D02*
X117993000Y-87369000D01*
G75*
G02*
X117743000Y-87119000I0J250000D01*
G01*
X117743000Y-86369000D01*
G75*
G02*
X117993000Y-86119000I250000J0D01*
G01*
X119243000Y-86119000D01*
G75*
G02*
X119493000Y-86369000I0J-250000D01*
G01*
X119493000Y-87119000D01*
G75*
G02*
X119243000Y-87369000I-250000J0D01*
G01*
G37*
G36*
G01*
X121295000Y-68339000D02*
X122545000Y-68339000D01*
G75*
G02*
X122795000Y-68589000I0J-250000D01*
G01*
X122795000Y-69339000D01*
G75*
G02*
X122545000Y-69589000I-250000J0D01*
G01*
X121295000Y-69589000D01*
G75*
G02*
X121045000Y-69339000I0J250000D01*
G01*
X121045000Y-68589000D01*
G75*
G02*
X121295000Y-68339000I250000J0D01*
G01*
G37*
G36*
G01*
X121295000Y-65539000D02*
X122545000Y-65539000D01*
G75*
G02*
X122795000Y-65789000I0J-250000D01*
G01*
X122795000Y-66539000D01*
G75*
G02*
X122545000Y-66789000I-250000J0D01*
G01*
X121295000Y-66789000D01*
G75*
G02*
X121045000Y-66539000I0J250000D01*
G01*
X121045000Y-65789000D01*
G75*
G02*
X121295000Y-65539000I250000J0D01*
G01*
G37*
G36*
G01*
X118755000Y-68339000D02*
X120005000Y-68339000D01*
G75*
G02*
X120255000Y-68589000I0J-250000D01*
G01*
X120255000Y-69339000D01*
G75*
G02*
X120005000Y-69589000I-250000J0D01*
G01*
X118755000Y-69589000D01*
G75*
G02*
X118505000Y-69339000I0J250000D01*
G01*
X118505000Y-68589000D01*
G75*
G02*
X118755000Y-68339000I250000J0D01*
G01*
G37*
G36*
G01*
X118755000Y-65539000D02*
X120005000Y-65539000D01*
G75*
G02*
X120255000Y-65789000I0J-250000D01*
G01*
X120255000Y-66539000D01*
G75*
G02*
X120005000Y-66789000I-250000J0D01*
G01*
X118755000Y-66789000D01*
G75*
G02*
X118505000Y-66539000I0J250000D01*
G01*
X118505000Y-65789000D01*
G75*
G02*
X118755000Y-65539000I250000J0D01*
G01*
G37*
G36*
G01*
X116215000Y-68339000D02*
X117465000Y-68339000D01*
G75*
G02*
X117715000Y-68589000I0J-250000D01*
G01*
X117715000Y-69339000D01*
G75*
G02*
X117465000Y-69589000I-250000J0D01*
G01*
X116215000Y-69589000D01*
G75*
G02*
X115965000Y-69339000I0J250000D01*
G01*
X115965000Y-68589000D01*
G75*
G02*
X116215000Y-68339000I250000J0D01*
G01*
G37*
G36*
G01*
X116215000Y-65539000D02*
X117465000Y-65539000D01*
G75*
G02*
X117715000Y-65789000I0J-250000D01*
G01*
X117715000Y-66539000D01*
G75*
G02*
X117465000Y-66789000I-250000J0D01*
G01*
X116215000Y-66789000D01*
G75*
G02*
X115965000Y-66539000I0J250000D01*
G01*
X115965000Y-65789000D01*
G75*
G02*
X116215000Y-65539000I250000J0D01*
G01*
G37*
G36*
G01*
X137540500Y-75166000D02*
X137540500Y-74821000D01*
G75*
G02*
X137688000Y-74673500I147500J0D01*
G01*
X137983000Y-74673500D01*
G75*
G02*
X138130500Y-74821000I0J-147500D01*
G01*
X138130500Y-75166000D01*
G75*
G02*
X137983000Y-75313500I-147500J0D01*
G01*
X137688000Y-75313500D01*
G75*
G02*
X137540500Y-75166000I0J147500D01*
G01*
G37*
G36*
G01*
X136570500Y-75166000D02*
X136570500Y-74821000D01*
G75*
G02*
X136718000Y-74673500I147500J0D01*
G01*
X137013000Y-74673500D01*
G75*
G02*
X137160500Y-74821000I0J-147500D01*
G01*
X137160500Y-75166000D01*
G75*
G02*
X137013000Y-75313500I-147500J0D01*
G01*
X136718000Y-75313500D01*
G75*
G02*
X136570500Y-75166000I0J147500D01*
G01*
G37*
G36*
G01*
X137540500Y-74086500D02*
X137540500Y-73741500D01*
G75*
G02*
X137688000Y-73594000I147500J0D01*
G01*
X137983000Y-73594000D01*
G75*
G02*
X138130500Y-73741500I0J-147500D01*
G01*
X138130500Y-74086500D01*
G75*
G02*
X137983000Y-74234000I-147500J0D01*
G01*
X137688000Y-74234000D01*
G75*
G02*
X137540500Y-74086500I0J147500D01*
G01*
G37*
G36*
G01*
X136570500Y-74086500D02*
X136570500Y-73741500D01*
G75*
G02*
X136718000Y-73594000I147500J0D01*
G01*
X137013000Y-73594000D01*
G75*
G02*
X137160500Y-73741500I0J-147500D01*
G01*
X137160500Y-74086500D01*
G75*
G02*
X137013000Y-74234000I-147500J0D01*
G01*
X136718000Y-74234000D01*
G75*
G02*
X136570500Y-74086500I0J147500D01*
G01*
G37*
G36*
G01*
X137540500Y-73007000D02*
X137540500Y-72662000D01*
G75*
G02*
X137688000Y-72514500I147500J0D01*
G01*
X137983000Y-72514500D01*
G75*
G02*
X138130500Y-72662000I0J-147500D01*
G01*
X138130500Y-73007000D01*
G75*
G02*
X137983000Y-73154500I-147500J0D01*
G01*
X137688000Y-73154500D01*
G75*
G02*
X137540500Y-73007000I0J147500D01*
G01*
G37*
G36*
G01*
X136570500Y-73007000D02*
X136570500Y-72662000D01*
G75*
G02*
X136718000Y-72514500I147500J0D01*
G01*
X137013000Y-72514500D01*
G75*
G02*
X137160500Y-72662000I0J-147500D01*
G01*
X137160500Y-73007000D01*
G75*
G02*
X137013000Y-73154500I-147500J0D01*
G01*
X136718000Y-73154500D01*
G75*
G02*
X136570500Y-73007000I0J147500D01*
G01*
G37*
G36*
G01*
X135414500Y-95188750D02*
X135414500Y-94676250D01*
G75*
G02*
X135633250Y-94457500I218750J0D01*
G01*
X136070750Y-94457500D01*
G75*
G02*
X136289500Y-94676250I0J-218750D01*
G01*
X136289500Y-95188750D01*
G75*
G02*
X136070750Y-95407500I-218750J0D01*
G01*
X135633250Y-95407500D01*
G75*
G02*
X135414500Y-95188750I0J218750D01*
G01*
G37*
G36*
G01*
X133839500Y-95188750D02*
X133839500Y-94676250D01*
G75*
G02*
X134058250Y-94457500I218750J0D01*
G01*
X134495750Y-94457500D01*
G75*
G02*
X134714500Y-94676250I0J-218750D01*
G01*
X134714500Y-95188750D01*
G75*
G02*
X134495750Y-95407500I-218750J0D01*
G01*
X134058250Y-95407500D01*
G75*
G02*
X133839500Y-95188750I0J218750D01*
G01*
G37*
G36*
G01*
X131160000Y-66296250D02*
X131160000Y-65783750D01*
G75*
G02*
X131378750Y-65565000I218750J0D01*
G01*
X131816250Y-65565000D01*
G75*
G02*
X132035000Y-65783750I0J-218750D01*
G01*
X132035000Y-66296250D01*
G75*
G02*
X131816250Y-66515000I-218750J0D01*
G01*
X131378750Y-66515000D01*
G75*
G02*
X131160000Y-66296250I0J218750D01*
G01*
G37*
G36*
G01*
X129585000Y-66296250D02*
X129585000Y-65783750D01*
G75*
G02*
X129803750Y-65565000I218750J0D01*
G01*
X130241250Y-65565000D01*
G75*
G02*
X130460000Y-65783750I0J-218750D01*
G01*
X130460000Y-66296250D01*
G75*
G02*
X130241250Y-66515000I-218750J0D01*
G01*
X129803750Y-66515000D01*
G75*
G02*
X129585000Y-66296250I0J218750D01*
G01*
G37*
G36*
G01*
X138384500Y-101980500D02*
X138729500Y-101980500D01*
G75*
G02*
X138877000Y-102128000I0J-147500D01*
G01*
X138877000Y-102423000D01*
G75*
G02*
X138729500Y-102570500I-147500J0D01*
G01*
X138384500Y-102570500D01*
G75*
G02*
X138237000Y-102423000I0J147500D01*
G01*
X138237000Y-102128000D01*
G75*
G02*
X138384500Y-101980500I147500J0D01*
G01*
G37*
G36*
G01*
X138384500Y-101010500D02*
X138729500Y-101010500D01*
G75*
G02*
X138877000Y-101158000I0J-147500D01*
G01*
X138877000Y-101453000D01*
G75*
G02*
X138729500Y-101600500I-147500J0D01*
G01*
X138384500Y-101600500D01*
G75*
G02*
X138237000Y-101453000I0J147500D01*
G01*
X138237000Y-101158000D01*
G75*
G02*
X138384500Y-101010500I147500J0D01*
G01*
G37*
G36*
G01*
X139464000Y-101980500D02*
X139809000Y-101980500D01*
G75*
G02*
X139956500Y-102128000I0J-147500D01*
G01*
X139956500Y-102423000D01*
G75*
G02*
X139809000Y-102570500I-147500J0D01*
G01*
X139464000Y-102570500D01*
G75*
G02*
X139316500Y-102423000I0J147500D01*
G01*
X139316500Y-102128000D01*
G75*
G02*
X139464000Y-101980500I147500J0D01*
G01*
G37*
G36*
G01*
X139464000Y-101010500D02*
X139809000Y-101010500D01*
G75*
G02*
X139956500Y-101158000I0J-147500D01*
G01*
X139956500Y-101453000D01*
G75*
G02*
X139809000Y-101600500I-147500J0D01*
G01*
X139464000Y-101600500D01*
G75*
G02*
X139316500Y-101453000I0J147500D01*
G01*
X139316500Y-101158000D01*
G75*
G02*
X139464000Y-101010500I147500J0D01*
G01*
G37*
G36*
G01*
X124970250Y-106076000D02*
X124457750Y-106076000D01*
G75*
G02*
X124239000Y-105857250I0J218750D01*
G01*
X124239000Y-105419750D01*
G75*
G02*
X124457750Y-105201000I218750J0D01*
G01*
X124970250Y-105201000D01*
G75*
G02*
X125189000Y-105419750I0J-218750D01*
G01*
X125189000Y-105857250D01*
G75*
G02*
X124970250Y-106076000I-218750J0D01*
G01*
G37*
G36*
G01*
X124970250Y-107651000D02*
X124457750Y-107651000D01*
G75*
G02*
X124239000Y-107432250I0J218750D01*
G01*
X124239000Y-106994750D01*
G75*
G02*
X124457750Y-106776000I218750J0D01*
G01*
X124970250Y-106776000D01*
G75*
G02*
X125189000Y-106994750I0J-218750D01*
G01*
X125189000Y-107432250D01*
G75*
G02*
X124970250Y-107651000I-218750J0D01*
G01*
G37*
G36*
G01*
X125309000Y-108412500D02*
X125309000Y-108757500D01*
G75*
G02*
X125161500Y-108905000I-147500J0D01*
G01*
X124866500Y-108905000D01*
G75*
G02*
X124719000Y-108757500I0J147500D01*
G01*
X124719000Y-108412500D01*
G75*
G02*
X124866500Y-108265000I147500J0D01*
G01*
X125161500Y-108265000D01*
G75*
G02*
X125309000Y-108412500I0J-147500D01*
G01*
G37*
G36*
G01*
X126279000Y-108412500D02*
X126279000Y-108757500D01*
G75*
G02*
X126131500Y-108905000I-147500J0D01*
G01*
X125836500Y-108905000D01*
G75*
G02*
X125689000Y-108757500I0J147500D01*
G01*
X125689000Y-108412500D01*
G75*
G02*
X125836500Y-108265000I147500J0D01*
G01*
X126131500Y-108265000D01*
G75*
G02*
X126279000Y-108412500I0J-147500D01*
G01*
G37*
G36*
G01*
X127477000Y-107444250D02*
X127477000Y-106931750D01*
G75*
G02*
X127695750Y-106713000I218750J0D01*
G01*
X128133250Y-106713000D01*
G75*
G02*
X128352000Y-106931750I0J-218750D01*
G01*
X128352000Y-107444250D01*
G75*
G02*
X128133250Y-107663000I-218750J0D01*
G01*
X127695750Y-107663000D01*
G75*
G02*
X127477000Y-107444250I0J218750D01*
G01*
G37*
G36*
G01*
X125902000Y-107444250D02*
X125902000Y-106931750D01*
G75*
G02*
X126120750Y-106713000I218750J0D01*
G01*
X126558250Y-106713000D01*
G75*
G02*
X126777000Y-106931750I0J-218750D01*
G01*
X126777000Y-107444250D01*
G75*
G02*
X126558250Y-107663000I-218750J0D01*
G01*
X126120750Y-107663000D01*
G75*
G02*
X125902000Y-107444250I0J218750D01*
G01*
G37*
M02*
