G04 #@! TF.GenerationSoftware,KiCad,Pcbnew,(5.1.6)-1*
G04 #@! TF.CreationDate,2021-01-27T01:30:11-05:00*
G04 #@! TF.ProjectId,wideband_controller,77696465-6261-46e6-945f-636f6e74726f,rev?*
G04 #@! TF.SameCoordinates,Original*
G04 #@! TF.FileFunction,Legend,Top*
G04 #@! TF.FilePolarity,Positive*
%FSLAX46Y46*%
G04 Gerber Fmt 4.6, Leading zero omitted, Abs format (unit mm)*
G04 Created by KiCad (PCBNEW (5.1.6)-1) date 2021-01-27 01:30:11*
%MOMM*%
%LPD*%
G01*
G04 APERTURE LIST*
%ADD10C,0.120000*%
%ADD11C,0.254000*%
%ADD12C,0.150000*%
G04 APERTURE END LIST*
D10*
X141409600Y-108416400D02*
X141409600Y-105756400D01*
X141409600Y-105756400D02*
X138749600Y-105756400D01*
X138749600Y-105756400D02*
X138749600Y-108416400D01*
X138749600Y-108416400D02*
X141409600Y-108416400D01*
X138749600Y-107466400D02*
X132749600Y-107466400D01*
X132749600Y-107466400D02*
X132749600Y-106706400D01*
X132749600Y-106706400D02*
X138749600Y-106706400D01*
X138749600Y-107406400D02*
X132749600Y-107406400D01*
X138749600Y-107286400D02*
X132749600Y-107286400D01*
X138749600Y-107166400D02*
X132749600Y-107166400D01*
X138749600Y-107046400D02*
X132749600Y-107046400D01*
X138749600Y-106926400D02*
X132749600Y-106926400D01*
X138749600Y-106806400D02*
X132749600Y-106806400D01*
X141739600Y-107466400D02*
X141409600Y-107466400D01*
X141739600Y-106706400D02*
X141409600Y-106706400D01*
X144119600Y-107086400D02*
X144119600Y-108356400D01*
X144119600Y-108356400D02*
X142849600Y-108356400D01*
X141498500Y-104136500D02*
X141498500Y-101476500D01*
X141498500Y-101476500D02*
X138838500Y-101476500D01*
X138838500Y-101476500D02*
X138838500Y-104136500D01*
X138838500Y-104136500D02*
X141498500Y-104136500D01*
X138838500Y-103186500D02*
X132838500Y-103186500D01*
X132838500Y-103186500D02*
X132838500Y-102426500D01*
X132838500Y-102426500D02*
X138838500Y-102426500D01*
X138838500Y-103126500D02*
X132838500Y-103126500D01*
X138838500Y-103006500D02*
X132838500Y-103006500D01*
X138838500Y-102886500D02*
X132838500Y-102886500D01*
X138838500Y-102766500D02*
X132838500Y-102766500D01*
X138838500Y-102646500D02*
X132838500Y-102646500D01*
X138838500Y-102526500D02*
X132838500Y-102526500D01*
X141828500Y-103186500D02*
X141498500Y-103186500D01*
X141828500Y-102426500D02*
X141498500Y-102426500D01*
X144208500Y-102806500D02*
X144208500Y-104076500D01*
X144208500Y-104076500D02*
X142938500Y-104076500D01*
X145246400Y-112785200D02*
X145246400Y-110125200D01*
X122326400Y-112785200D02*
X145246400Y-112785200D01*
X122326400Y-110125200D02*
X145246400Y-110125200D01*
X122326400Y-112785200D02*
X122326400Y-110125200D01*
X121056400Y-112785200D02*
X119726400Y-112785200D01*
X119726400Y-112785200D02*
X119726400Y-111455200D01*
X115468400Y-112491200D02*
X118918400Y-112491200D01*
X115468400Y-112491200D02*
X113518400Y-112491200D01*
X115468400Y-107371200D02*
X117418400Y-107371200D01*
X115468400Y-107371200D02*
X113518400Y-107371200D01*
X142524564Y-86825500D02*
X141320436Y-86825500D01*
X142524564Y-85005500D02*
X141320436Y-85005500D01*
X129052000Y-88773000D02*
X129052000Y-86823000D01*
X129052000Y-88773000D02*
X129052000Y-90723000D01*
X123932000Y-88773000D02*
X123932000Y-86823000D01*
X123932000Y-88773000D02*
X123932000Y-92223000D01*
X129237500Y-98815500D02*
X128787500Y-98815500D01*
X128787500Y-98815500D02*
X128787500Y-99265500D01*
X135557500Y-98815500D02*
X136007500Y-98815500D01*
X136007500Y-98815500D02*
X136007500Y-99265500D01*
X129237500Y-106035500D02*
X128787500Y-106035500D01*
X128787500Y-106035500D02*
X128787500Y-105585500D01*
X135557500Y-106035500D02*
X136007500Y-106035500D01*
X136007500Y-106035500D02*
X136007500Y-105585500D01*
X136007500Y-105585500D02*
X137297500Y-105585500D01*
X110590000Y-104559000D02*
X110590000Y-102274000D01*
X110590000Y-102274000D02*
X109120000Y-102274000D01*
X109120000Y-102274000D02*
X109120000Y-104559000D01*
X138432000Y-87213221D02*
X138432000Y-87538779D01*
X137412000Y-87213221D02*
X137412000Y-87538779D01*
X130450000Y-68679436D02*
X130450000Y-69883564D01*
X128630000Y-68679436D02*
X128630000Y-69883564D01*
X127670779Y-84711000D02*
X127345221Y-84711000D01*
X127670779Y-83691000D02*
X127345221Y-83691000D01*
X124204000Y-80934779D02*
X124204000Y-80609221D01*
X125224000Y-80934779D02*
X125224000Y-80609221D01*
X131189000Y-68615779D02*
X131189000Y-68290221D01*
X132209000Y-68615779D02*
X132209000Y-68290221D01*
X131044000Y-73914000D02*
X131044000Y-75864000D01*
X131044000Y-73914000D02*
X131044000Y-71964000D01*
X136164000Y-73914000D02*
X136164000Y-75864000D01*
X136164000Y-73914000D02*
X136164000Y-70464000D01*
X132840000Y-68615779D02*
X132840000Y-68290221D01*
X133860000Y-68615779D02*
X133860000Y-68290221D01*
X136595000Y-88963500D02*
X136595000Y-86763500D01*
X136595000Y-88963500D02*
X136595000Y-91163500D01*
X131375000Y-88963500D02*
X131375000Y-86763500D01*
X131375000Y-88963500D02*
X131375000Y-92563500D01*
X130748500Y-90070721D02*
X130748500Y-90396279D01*
X129728500Y-90070721D02*
X129728500Y-90396279D01*
X113605000Y-101413000D02*
X113605000Y-106613000D01*
X116205000Y-101413000D02*
X113605000Y-101413000D01*
X118805000Y-106613000D02*
X113605000Y-106613000D01*
X116205000Y-101413000D02*
X116205000Y-104013000D01*
X116205000Y-104013000D02*
X118805000Y-104013000D01*
X118805000Y-104013000D02*
X118805000Y-106613000D01*
X117475000Y-101413000D02*
X118805000Y-101413000D01*
X118805000Y-101413000D02*
X118805000Y-102743000D01*
X121574779Y-86485000D02*
X121249221Y-86485000D01*
X121574779Y-87505000D02*
X121249221Y-87505000D01*
X108256000Y-80544000D02*
X114756000Y-80544000D01*
X108256000Y-80544000D02*
X108256000Y-88944000D01*
X114756000Y-80544000D02*
X114756000Y-88944000D01*
X115295000Y-85946064D02*
X115295000Y-84741936D01*
X117115000Y-85946064D02*
X117115000Y-84741936D01*
X137104000Y-79881000D02*
X138034000Y-79881000D01*
X140264000Y-79881000D02*
X139334000Y-79881000D01*
X140264000Y-79881000D02*
X140264000Y-77721000D01*
X137104000Y-79881000D02*
X137104000Y-78421000D01*
X112329500Y-98735000D02*
X112329500Y-97805000D01*
X112329500Y-95575000D02*
X112329500Y-96505000D01*
X112329500Y-95575000D02*
X110169500Y-95575000D01*
X112329500Y-98735000D02*
X110869500Y-98735000D01*
X122576000Y-92629000D02*
X122576000Y-91129000D01*
X122576000Y-91129000D02*
X122306000Y-91129000D01*
X122306000Y-91129000D02*
X122306000Y-88299000D01*
X115676000Y-92629000D02*
X115676000Y-91129000D01*
X115676000Y-91129000D02*
X115946000Y-91129000D01*
X115946000Y-91129000D02*
X115946000Y-90029000D01*
X124805221Y-94613000D02*
X125130779Y-94613000D01*
X124805221Y-95633000D02*
X125130779Y-95633000D01*
X125130779Y-93982000D02*
X124805221Y-93982000D01*
X125130779Y-92962000D02*
X124805221Y-92962000D01*
X126494000Y-67980779D02*
X126494000Y-67655221D01*
X125474000Y-67980779D02*
X125474000Y-67655221D01*
X125575600Y-99375179D02*
X125575600Y-99049621D01*
X126595600Y-99375179D02*
X126595600Y-99049621D01*
X124204000Y-71028779D02*
X124204000Y-70703221D01*
X125224000Y-71028779D02*
X125224000Y-70703221D01*
X123823000Y-67980779D02*
X123823000Y-67655221D01*
X124843000Y-67980779D02*
X124843000Y-67655221D01*
X125257779Y-102110000D02*
X124932221Y-102110000D01*
X125257779Y-101090000D02*
X124932221Y-101090000D01*
X132141500Y-94650779D02*
X132141500Y-94325221D01*
X133161500Y-94650779D02*
X133161500Y-94325221D01*
X128589500Y-95150721D02*
X128589500Y-95476279D01*
X127569500Y-95150721D02*
X127569500Y-95476279D01*
X134147779Y-66550000D02*
X133822221Y-66550000D01*
X134147779Y-65530000D02*
X133822221Y-65530000D01*
X134647721Y-77976000D02*
X134973279Y-77976000D01*
X134647721Y-78996000D02*
X134973279Y-78996000D01*
X134491000Y-68615779D02*
X134491000Y-68290221D01*
X135511000Y-68615779D02*
X135511000Y-68290221D01*
X129411000Y-74457779D02*
X129411000Y-74132221D01*
X130431000Y-74457779D02*
X130431000Y-74132221D01*
X130748500Y-93182221D02*
X130748500Y-93507779D01*
X129728500Y-93182221D02*
X129728500Y-93507779D01*
X138076721Y-97089500D02*
X138402279Y-97089500D01*
X138076721Y-98109500D02*
X138402279Y-98109500D01*
X138402279Y-96268000D02*
X138076721Y-96268000D01*
X138402279Y-95248000D02*
X138076721Y-95248000D01*
X138776000Y-69784000D02*
X138776000Y-71284000D01*
X138776000Y-71284000D02*
X139046000Y-71284000D01*
X139046000Y-71284000D02*
X139046000Y-74114000D01*
X145676000Y-69784000D02*
X145676000Y-71284000D01*
X145676000Y-71284000D02*
X145406000Y-71284000D01*
X145406000Y-71284000D02*
X145406000Y-72384000D01*
X119189500Y-76878500D02*
X117239500Y-76878500D01*
X119189500Y-76878500D02*
X121139500Y-76878500D01*
X119189500Y-81998500D02*
X117239500Y-81998500D01*
X119189500Y-81998500D02*
X122639500Y-81998500D01*
D11*
X119000000Y-52500000D02*
X118500000Y-53000000D01*
X119000000Y-53500000D02*
X119000000Y-52500000D01*
X119000000Y-52500000D02*
X119500000Y-53000000D01*
X135000000Y-52500000D02*
X135500000Y-53000000D01*
X135000000Y-52500000D02*
X134500000Y-53000000D01*
X135000000Y-53500000D02*
X135000000Y-52500000D01*
X108000000Y-50370000D02*
X146000000Y-50370000D01*
D10*
X108212000Y-80102000D02*
X115152000Y-80102000D01*
X115152000Y-80102000D02*
X115152000Y-63902000D01*
X115152000Y-63902000D02*
X108212000Y-63902000D01*
X108212000Y-63902000D02*
X108212000Y-80102000D01*
X111682000Y-72752000D02*
X111682000Y-71252000D01*
X113682000Y-70402000D02*
X113682000Y-73602000D01*
X109682000Y-73602000D02*
X109682000Y-70402000D01*
X145705500Y-76873000D02*
X145705500Y-74588000D01*
X145705500Y-74588000D02*
X144235500Y-74588000D01*
X144235500Y-74588000D02*
X144235500Y-76873000D01*
X122920000Y-74648000D02*
X122920000Y-70348000D01*
X122920000Y-70348000D02*
X120920000Y-70348000D01*
X120920000Y-70348000D02*
X120920000Y-74648000D01*
X118380000Y-71148000D02*
X118380000Y-75448000D01*
X118380000Y-75448000D02*
X120380000Y-75448000D01*
X120380000Y-75448000D02*
X120380000Y-71148000D01*
X117840000Y-74648000D02*
X117840000Y-70348000D01*
X117840000Y-70348000D02*
X115840000Y-70348000D01*
X115840000Y-70348000D02*
X115840000Y-74648000D01*
X110590000Y-108115000D02*
X110590000Y-105830000D01*
X110590000Y-105830000D02*
X109120000Y-105830000D01*
X109120000Y-105830000D02*
X109120000Y-108115000D01*
X110590000Y-111671000D02*
X110590000Y-109386000D01*
X110590000Y-109386000D02*
X109120000Y-109386000D01*
X109120000Y-109386000D02*
X109120000Y-111671000D01*
X125384779Y-97284000D02*
X125059221Y-97284000D01*
X125384779Y-96264000D02*
X125059221Y-96264000D01*
X123848400Y-99375179D02*
X123848400Y-99049621D01*
X124868400Y-99375179D02*
X124868400Y-99049621D01*
X141924500Y-78767721D02*
X141924500Y-79093279D01*
X140904500Y-78767721D02*
X140904500Y-79093279D01*
X111063500Y-100548221D02*
X111063500Y-100873779D01*
X110043500Y-100548221D02*
X110043500Y-100873779D01*
X112714500Y-100548221D02*
X112714500Y-100873779D01*
X111694500Y-100548221D02*
X111694500Y-100873779D01*
X114391221Y-99502500D02*
X114716779Y-99502500D01*
X114391221Y-100522500D02*
X114716779Y-100522500D01*
X110271779Y-94998000D02*
X109946221Y-94998000D01*
X110271779Y-93978000D02*
X109946221Y-93978000D01*
X110271779Y-93347000D02*
X109946221Y-93347000D01*
X110271779Y-92327000D02*
X109946221Y-92327000D01*
X110271779Y-91696000D02*
X109946221Y-91696000D01*
X110271779Y-90676000D02*
X109946221Y-90676000D01*
X121574779Y-84203000D02*
X121249221Y-84203000D01*
X121574779Y-83183000D02*
X121249221Y-83183000D01*
X121574779Y-85854000D02*
X121249221Y-85854000D01*
X121574779Y-84834000D02*
X121249221Y-84834000D01*
X117708000Y-85946064D02*
X117708000Y-84741936D01*
X119528000Y-85946064D02*
X119528000Y-84741936D01*
X122830000Y-66961936D02*
X122830000Y-68166064D01*
X121010000Y-66961936D02*
X121010000Y-68166064D01*
X120290000Y-66961936D02*
X120290000Y-68166064D01*
X118470000Y-66961936D02*
X118470000Y-68166064D01*
X117750000Y-66961936D02*
X117750000Y-68166064D01*
X115930000Y-66961936D02*
X115930000Y-68166064D01*
X134901721Y-94422500D02*
X135227279Y-94422500D01*
X134901721Y-95442500D02*
X135227279Y-95442500D01*
X130647221Y-65530000D02*
X130972779Y-65530000D01*
X130647221Y-66550000D02*
X130972779Y-66550000D01*
X124204000Y-106588779D02*
X124204000Y-106263221D01*
X125224000Y-106588779D02*
X125224000Y-106263221D01*
X126964221Y-106678000D02*
X127289779Y-106678000D01*
X126964221Y-107698000D02*
X127289779Y-107698000D01*
D12*
X137202695Y-108808780D02*
X137774123Y-108808780D01*
X137488409Y-109808780D02*
X137488409Y-108808780D01*
X138107457Y-109808780D02*
X138107457Y-108808780D01*
X138488409Y-108808780D01*
X138583647Y-108856400D01*
X138631266Y-108904019D01*
X138678885Y-108999257D01*
X138678885Y-109142114D01*
X138631266Y-109237352D01*
X138583647Y-109284971D01*
X138488409Y-109332590D01*
X138107457Y-109332590D01*
X139059838Y-108904019D02*
X139107457Y-108856400D01*
X139202695Y-108808780D01*
X139440790Y-108808780D01*
X139536028Y-108856400D01*
X139583647Y-108904019D01*
X139631266Y-108999257D01*
X139631266Y-109094495D01*
X139583647Y-109237352D01*
X139012219Y-109808780D01*
X139631266Y-109808780D01*
X137291595Y-104528880D02*
X137863023Y-104528880D01*
X137577309Y-105528880D02*
X137577309Y-104528880D01*
X138196357Y-105528880D02*
X138196357Y-104528880D01*
X138577309Y-104528880D01*
X138672547Y-104576500D01*
X138720166Y-104624119D01*
X138767785Y-104719357D01*
X138767785Y-104862214D01*
X138720166Y-104957452D01*
X138672547Y-105005071D01*
X138577309Y-105052690D01*
X138196357Y-105052690D01*
X139720166Y-105528880D02*
X139148738Y-105528880D01*
X139434452Y-105528880D02*
X139434452Y-104528880D01*
X139339214Y-104671738D01*
X139243976Y-104766976D01*
X139148738Y-104814595D01*
X118178780Y-111788533D02*
X118893066Y-111788533D01*
X119035923Y-111836152D01*
X119131161Y-111931390D01*
X119178780Y-112074247D01*
X119178780Y-112169485D01*
X118512114Y-110883771D02*
X119178780Y-110883771D01*
X118131161Y-111121866D02*
X118845447Y-111359961D01*
X118845447Y-110740914D01*
X114554095Y-107402380D02*
X114554095Y-108211904D01*
X114601714Y-108307142D01*
X114649333Y-108354761D01*
X114744571Y-108402380D01*
X114935047Y-108402380D01*
X115030285Y-108354761D01*
X115077904Y-108307142D01*
X115125523Y-108211904D01*
X115125523Y-107402380D01*
X115744571Y-107830952D02*
X115649333Y-107783333D01*
X115601714Y-107735714D01*
X115554095Y-107640476D01*
X115554095Y-107592857D01*
X115601714Y-107497619D01*
X115649333Y-107450000D01*
X115744571Y-107402380D01*
X115935047Y-107402380D01*
X116030285Y-107450000D01*
X116077904Y-107497619D01*
X116125523Y-107592857D01*
X116125523Y-107640476D01*
X116077904Y-107735714D01*
X116030285Y-107783333D01*
X115935047Y-107830952D01*
X115744571Y-107830952D01*
X115649333Y-107878571D01*
X115601714Y-107926190D01*
X115554095Y-108021428D01*
X115554095Y-108211904D01*
X115601714Y-108307142D01*
X115649333Y-108354761D01*
X115744571Y-108402380D01*
X115935047Y-108402380D01*
X116030285Y-108354761D01*
X116077904Y-108307142D01*
X116125523Y-108211904D01*
X116125523Y-108021428D01*
X116077904Y-107926190D01*
X116030285Y-107878571D01*
X115935047Y-107830952D01*
X110874142Y-62999857D02*
X110921761Y-63047476D01*
X110969380Y-63190333D01*
X110969380Y-63285571D01*
X110921761Y-63428428D01*
X110826523Y-63523666D01*
X110731285Y-63571285D01*
X110540809Y-63618904D01*
X110397952Y-63618904D01*
X110207476Y-63571285D01*
X110112238Y-63523666D01*
X110017000Y-63428428D01*
X109969380Y-63285571D01*
X109969380Y-63190333D01*
X110017000Y-63047476D01*
X110064619Y-62999857D01*
X110302714Y-62142714D02*
X110969380Y-62142714D01*
X109921761Y-62380809D02*
X110636047Y-62618904D01*
X110636047Y-61999857D01*
X109969380Y-61142714D02*
X109969380Y-61618904D01*
X110445571Y-61666523D01*
X110397952Y-61618904D01*
X110350333Y-61523666D01*
X110350333Y-61285571D01*
X110397952Y-61190333D01*
X110445571Y-61142714D01*
X110540809Y-61095095D01*
X110778904Y-61095095D01*
X110874142Y-61142714D01*
X110921761Y-61190333D01*
X110969380Y-61285571D01*
X110969380Y-61523666D01*
X110921761Y-61618904D01*
X110874142Y-61666523D01*
X109677142Y-62999857D02*
X109724761Y-63047476D01*
X109772380Y-63190333D01*
X109772380Y-63285571D01*
X109724761Y-63428428D01*
X109629523Y-63523666D01*
X109534285Y-63571285D01*
X109343809Y-63618904D01*
X109200952Y-63618904D01*
X109010476Y-63571285D01*
X108915238Y-63523666D01*
X108820000Y-63428428D01*
X108772380Y-63285571D01*
X108772380Y-63190333D01*
X108820000Y-63047476D01*
X108867619Y-62999857D01*
X109105714Y-62142714D02*
X109772380Y-62142714D01*
X108724761Y-62380809D02*
X109439047Y-62618904D01*
X109439047Y-61999857D01*
X109105714Y-61190333D02*
X109772380Y-61190333D01*
X108724761Y-61428428D02*
X109439047Y-61666523D01*
X109439047Y-61047476D01*
X119366654Y-107524991D02*
X119366654Y-107592335D01*
X119299310Y-107727022D01*
X119231967Y-107794365D01*
X119097280Y-107861709D01*
X118962593Y-107861709D01*
X118861578Y-107828037D01*
X118693219Y-107727022D01*
X118592204Y-107626007D01*
X118491188Y-107457648D01*
X118457517Y-107356633D01*
X118457517Y-107221946D01*
X118524860Y-107087259D01*
X118592204Y-107019915D01*
X118726891Y-106952572D01*
X118794234Y-106952572D01*
X119568685Y-106514839D02*
X120040089Y-106986243D01*
X119130952Y-106413823D02*
X119467669Y-107087259D01*
X119905402Y-106649526D01*
X119737043Y-106009762D02*
X119737043Y-105942419D01*
X119770715Y-105841404D01*
X119939074Y-105673045D01*
X120040089Y-105639373D01*
X120107433Y-105639373D01*
X120208448Y-105673045D01*
X120275791Y-105740388D01*
X120343135Y-105875075D01*
X120343135Y-106683197D01*
X120780868Y-106245465D01*
X127468333Y-107772142D02*
X127420714Y-107819761D01*
X127277857Y-107867380D01*
X127182619Y-107867380D01*
X127039761Y-107819761D01*
X126944523Y-107724523D01*
X126896904Y-107629285D01*
X126849285Y-107438809D01*
X126849285Y-107295952D01*
X126896904Y-107105476D01*
X126944523Y-107010238D01*
X127039761Y-106915000D01*
X127182619Y-106867380D01*
X127277857Y-106867380D01*
X127420714Y-106915000D01*
X127468333Y-106962619D01*
X127849285Y-106962619D02*
X127896904Y-106915000D01*
X127992142Y-106867380D01*
X128230238Y-106867380D01*
X128325476Y-106915000D01*
X128373095Y-106962619D01*
X128420714Y-107057857D01*
X128420714Y-107153095D01*
X128373095Y-107295952D01*
X127801666Y-107867380D01*
X128420714Y-107867380D01*
X141755833Y-88187880D02*
X141422500Y-87711690D01*
X141184404Y-88187880D02*
X141184404Y-87187880D01*
X141565357Y-87187880D01*
X141660595Y-87235500D01*
X141708214Y-87283119D01*
X141755833Y-87378357D01*
X141755833Y-87521214D01*
X141708214Y-87616452D01*
X141660595Y-87664071D01*
X141565357Y-87711690D01*
X141184404Y-87711690D01*
X142136785Y-87283119D02*
X142184404Y-87235500D01*
X142279642Y-87187880D01*
X142517738Y-87187880D01*
X142612976Y-87235500D01*
X142660595Y-87283119D01*
X142708214Y-87378357D01*
X142708214Y-87473595D01*
X142660595Y-87616452D01*
X142089166Y-88187880D01*
X142708214Y-88187880D01*
X129638380Y-76080857D02*
X129162190Y-76414190D01*
X129638380Y-76652285D02*
X128638380Y-76652285D01*
X128638380Y-76271333D01*
X128686000Y-76176095D01*
X128733619Y-76128476D01*
X128828857Y-76080857D01*
X128971714Y-76080857D01*
X129066952Y-76128476D01*
X129114571Y-76176095D01*
X129162190Y-76271333D01*
X129162190Y-76652285D01*
X129638380Y-75128476D02*
X129638380Y-75699904D01*
X129638380Y-75414190D02*
X128638380Y-75414190D01*
X128781238Y-75509428D01*
X128876476Y-75604666D01*
X128924095Y-75699904D01*
X128638380Y-74223714D02*
X128638380Y-74699904D01*
X129114571Y-74747523D01*
X129066952Y-74699904D01*
X129019333Y-74604666D01*
X129019333Y-74366571D01*
X129066952Y-74271333D01*
X129114571Y-74223714D01*
X129209809Y-74176095D01*
X129447904Y-74176095D01*
X129543142Y-74223714D01*
X129590761Y-74271333D01*
X129638380Y-74366571D01*
X129638380Y-74604666D01*
X129590761Y-74699904D01*
X129543142Y-74747523D01*
X122544380Y-89534904D02*
X123353904Y-89534904D01*
X123449142Y-89487285D01*
X123496761Y-89439666D01*
X123544380Y-89344428D01*
X123544380Y-89153952D01*
X123496761Y-89058714D01*
X123449142Y-89011095D01*
X123353904Y-88963476D01*
X122544380Y-88963476D01*
X122544380Y-88582523D02*
X122544380Y-87915857D01*
X123544380Y-88344428D01*
X138422142Y-104597142D02*
X138374523Y-104644761D01*
X138231666Y-104692380D01*
X138136428Y-104692380D01*
X137993571Y-104644761D01*
X137898333Y-104549523D01*
X137850714Y-104454285D01*
X137803095Y-104263809D01*
X137803095Y-104120952D01*
X137850714Y-103930476D01*
X137898333Y-103835238D01*
X137993571Y-103740000D01*
X138136428Y-103692380D01*
X138231666Y-103692380D01*
X138374523Y-103740000D01*
X138422142Y-103787619D01*
X139279285Y-104025714D02*
X139279285Y-104692380D01*
X139041190Y-103644761D02*
X138803095Y-104359047D01*
X139422142Y-104359047D01*
X140326904Y-104692380D02*
X139755476Y-104692380D01*
X140041190Y-104692380D02*
X140041190Y-103692380D01*
X139945952Y-103835238D01*
X139850714Y-103930476D01*
X139755476Y-103978095D01*
X135374142Y-107518142D02*
X135326523Y-107565761D01*
X135183666Y-107613380D01*
X135088428Y-107613380D01*
X134945571Y-107565761D01*
X134850333Y-107470523D01*
X134802714Y-107375285D01*
X134755095Y-107184809D01*
X134755095Y-107041952D01*
X134802714Y-106851476D01*
X134850333Y-106756238D01*
X134945571Y-106661000D01*
X135088428Y-106613380D01*
X135183666Y-106613380D01*
X135326523Y-106661000D01*
X135374142Y-106708619D01*
X136231285Y-106946714D02*
X136231285Y-107613380D01*
X135993190Y-106565761D02*
X135755095Y-107280047D01*
X136374142Y-107280047D01*
X136945571Y-106613380D02*
X137040809Y-106613380D01*
X137136047Y-106661000D01*
X137183666Y-106708619D01*
X137231285Y-106803857D01*
X137278904Y-106994333D01*
X137278904Y-107232428D01*
X137231285Y-107422904D01*
X137183666Y-107518142D01*
X137136047Y-107565761D01*
X137040809Y-107613380D01*
X136945571Y-107613380D01*
X136850333Y-107565761D01*
X136802714Y-107518142D01*
X136755095Y-107422904D01*
X136707476Y-107232428D01*
X136707476Y-106994333D01*
X136755095Y-106803857D01*
X136802714Y-106708619D01*
X136850333Y-106661000D01*
X136945571Y-106613380D01*
X125552142Y-105925857D02*
X125599761Y-105973476D01*
X125647380Y-106116333D01*
X125647380Y-106211571D01*
X125599761Y-106354428D01*
X125504523Y-106449666D01*
X125409285Y-106497285D01*
X125218809Y-106544904D01*
X125075952Y-106544904D01*
X124885476Y-106497285D01*
X124790238Y-106449666D01*
X124695000Y-106354428D01*
X124647380Y-106211571D01*
X124647380Y-106116333D01*
X124695000Y-105973476D01*
X124742619Y-105925857D01*
X124647380Y-105592523D02*
X124647380Y-104973476D01*
X125028333Y-105306809D01*
X125028333Y-105163952D01*
X125075952Y-105068714D01*
X125123571Y-105021095D01*
X125218809Y-104973476D01*
X125456904Y-104973476D01*
X125552142Y-105021095D01*
X125599761Y-105068714D01*
X125647380Y-105163952D01*
X125647380Y-105449666D01*
X125599761Y-105544904D01*
X125552142Y-105592523D01*
X125647380Y-104497285D02*
X125647380Y-104306809D01*
X125599761Y-104211571D01*
X125552142Y-104163952D01*
X125409285Y-104068714D01*
X125218809Y-104021095D01*
X124837857Y-104021095D01*
X124742619Y-104068714D01*
X124695000Y-104116333D01*
X124647380Y-104211571D01*
X124647380Y-104402047D01*
X124695000Y-104497285D01*
X124742619Y-104544904D01*
X124837857Y-104592523D01*
X125075952Y-104592523D01*
X125171190Y-104544904D01*
X125218809Y-104497285D01*
X125266428Y-104402047D01*
X125266428Y-104211571D01*
X125218809Y-104116333D01*
X125171190Y-104068714D01*
X125075952Y-104021095D01*
X129595642Y-95643642D02*
X129548023Y-95691261D01*
X129405166Y-95738880D01*
X129309928Y-95738880D01*
X129167071Y-95691261D01*
X129071833Y-95596023D01*
X129024214Y-95500785D01*
X128976595Y-95310309D01*
X128976595Y-95167452D01*
X129024214Y-94976976D01*
X129071833Y-94881738D01*
X129167071Y-94786500D01*
X129309928Y-94738880D01*
X129405166Y-94738880D01*
X129548023Y-94786500D01*
X129595642Y-94834119D01*
X129928976Y-94738880D02*
X130548023Y-94738880D01*
X130214690Y-95119833D01*
X130357547Y-95119833D01*
X130452785Y-95167452D01*
X130500404Y-95215071D01*
X130548023Y-95310309D01*
X130548023Y-95548404D01*
X130500404Y-95643642D01*
X130452785Y-95691261D01*
X130357547Y-95738880D01*
X130071833Y-95738880D01*
X129976595Y-95691261D01*
X129928976Y-95643642D01*
X131119452Y-95167452D02*
X131024214Y-95119833D01*
X130976595Y-95072214D01*
X130928976Y-94976976D01*
X130928976Y-94929357D01*
X130976595Y-94834119D01*
X131024214Y-94786500D01*
X131119452Y-94738880D01*
X131309928Y-94738880D01*
X131405166Y-94786500D01*
X131452785Y-94834119D01*
X131500404Y-94929357D01*
X131500404Y-94976976D01*
X131452785Y-95072214D01*
X131405166Y-95119833D01*
X131309928Y-95167452D01*
X131119452Y-95167452D01*
X131024214Y-95215071D01*
X130976595Y-95262690D01*
X130928976Y-95357928D01*
X130928976Y-95548404D01*
X130976595Y-95643642D01*
X131024214Y-95691261D01*
X131119452Y-95738880D01*
X131309928Y-95738880D01*
X131405166Y-95691261D01*
X131452785Y-95643642D01*
X131500404Y-95548404D01*
X131500404Y-95357928D01*
X131452785Y-95262690D01*
X131405166Y-95215071D01*
X131309928Y-95167452D01*
X131635595Y-107727880D02*
X131635595Y-108537404D01*
X131683214Y-108632642D01*
X131730833Y-108680261D01*
X131826071Y-108727880D01*
X132016547Y-108727880D01*
X132111785Y-108680261D01*
X132159404Y-108632642D01*
X132207023Y-108537404D01*
X132207023Y-107727880D01*
X132635595Y-107823119D02*
X132683214Y-107775500D01*
X132778452Y-107727880D01*
X133016547Y-107727880D01*
X133111785Y-107775500D01*
X133159404Y-107823119D01*
X133207023Y-107918357D01*
X133207023Y-108013595D01*
X133159404Y-108156452D01*
X132587976Y-108727880D01*
X133207023Y-108727880D01*
X111737380Y-104497095D02*
X110737380Y-104497095D01*
X110737380Y-104259000D01*
X110785000Y-104116142D01*
X110880238Y-104020904D01*
X110975476Y-103973285D01*
X111165952Y-103925666D01*
X111308809Y-103925666D01*
X111499285Y-103973285D01*
X111594523Y-104020904D01*
X111689761Y-104116142D01*
X111737380Y-104259000D01*
X111737380Y-104497095D01*
X110737380Y-103020904D02*
X110737380Y-103497095D01*
X111213571Y-103544714D01*
X111165952Y-103497095D01*
X111118333Y-103401857D01*
X111118333Y-103163761D01*
X111165952Y-103068523D01*
X111213571Y-103020904D01*
X111308809Y-102973285D01*
X111546904Y-102973285D01*
X111642142Y-103020904D01*
X111689761Y-103068523D01*
X111737380Y-103163761D01*
X111737380Y-103401857D01*
X111689761Y-103497095D01*
X111642142Y-103544714D01*
X140941380Y-88304666D02*
X140465190Y-88638000D01*
X140941380Y-88876095D02*
X139941380Y-88876095D01*
X139941380Y-88495142D01*
X139989000Y-88399904D01*
X140036619Y-88352285D01*
X140131857Y-88304666D01*
X140274714Y-88304666D01*
X140369952Y-88352285D01*
X140417571Y-88399904D01*
X140465190Y-88495142D01*
X140465190Y-88876095D01*
X139941380Y-87447523D02*
X139941380Y-87638000D01*
X139989000Y-87733238D01*
X140036619Y-87780857D01*
X140179476Y-87876095D01*
X140369952Y-87923714D01*
X140750904Y-87923714D01*
X140846142Y-87876095D01*
X140893761Y-87828476D01*
X140941380Y-87733238D01*
X140941380Y-87542761D01*
X140893761Y-87447523D01*
X140846142Y-87399904D01*
X140750904Y-87352285D01*
X140512809Y-87352285D01*
X140417571Y-87399904D01*
X140369952Y-87447523D01*
X140322333Y-87542761D01*
X140322333Y-87733238D01*
X140369952Y-87828476D01*
X140417571Y-87876095D01*
X140512809Y-87923714D01*
X133850142Y-92722642D02*
X133802523Y-92770261D01*
X133659666Y-92817880D01*
X133564428Y-92817880D01*
X133421571Y-92770261D01*
X133326333Y-92675023D01*
X133278714Y-92579785D01*
X133231095Y-92389309D01*
X133231095Y-92246452D01*
X133278714Y-92055976D01*
X133326333Y-91960738D01*
X133421571Y-91865500D01*
X133564428Y-91817880D01*
X133659666Y-91817880D01*
X133802523Y-91865500D01*
X133850142Y-91913119D01*
X134802523Y-92817880D02*
X134231095Y-92817880D01*
X134516809Y-92817880D02*
X134516809Y-91817880D01*
X134421571Y-91960738D01*
X134326333Y-92055976D01*
X134231095Y-92103595D01*
X135754904Y-92817880D02*
X135183476Y-92817880D01*
X135469190Y-92817880D02*
X135469190Y-91817880D01*
X135373952Y-91960738D01*
X135278714Y-92055976D01*
X135183476Y-92103595D01*
X142751142Y-100782357D02*
X142798761Y-100829976D01*
X142846380Y-100972833D01*
X142846380Y-101068071D01*
X142798761Y-101210928D01*
X142703523Y-101306166D01*
X142608285Y-101353785D01*
X142417809Y-101401404D01*
X142274952Y-101401404D01*
X142084476Y-101353785D01*
X141989238Y-101306166D01*
X141894000Y-101210928D01*
X141846380Y-101068071D01*
X141846380Y-100972833D01*
X141894000Y-100829976D01*
X141941619Y-100782357D01*
X142846380Y-99829976D02*
X142846380Y-100401404D01*
X142846380Y-100115690D02*
X141846380Y-100115690D01*
X141989238Y-100210928D01*
X142084476Y-100306166D01*
X142132095Y-100401404D01*
X142274952Y-99258547D02*
X142227333Y-99353785D01*
X142179714Y-99401404D01*
X142084476Y-99449023D01*
X142036857Y-99449023D01*
X141941619Y-99401404D01*
X141894000Y-99353785D01*
X141846380Y-99258547D01*
X141846380Y-99068071D01*
X141894000Y-98972833D01*
X141941619Y-98925214D01*
X142036857Y-98877595D01*
X142084476Y-98877595D01*
X142179714Y-98925214D01*
X142227333Y-98972833D01*
X142274952Y-99068071D01*
X142274952Y-99258547D01*
X142322571Y-99353785D01*
X142370190Y-99401404D01*
X142465428Y-99449023D01*
X142655904Y-99449023D01*
X142751142Y-99401404D01*
X142798761Y-99353785D01*
X142846380Y-99258547D01*
X142846380Y-99068071D01*
X142798761Y-98972833D01*
X142751142Y-98925214D01*
X142655904Y-98877595D01*
X142465428Y-98877595D01*
X142370190Y-98925214D01*
X142322571Y-98972833D01*
X142274952Y-99068071D01*
X139709142Y-87542666D02*
X139756761Y-87590285D01*
X139804380Y-87733142D01*
X139804380Y-87828380D01*
X139756761Y-87971238D01*
X139661523Y-88066476D01*
X139566285Y-88114095D01*
X139375809Y-88161714D01*
X139232952Y-88161714D01*
X139042476Y-88114095D01*
X138947238Y-88066476D01*
X138852000Y-87971238D01*
X138804380Y-87828380D01*
X138804380Y-87733142D01*
X138852000Y-87590285D01*
X138899619Y-87542666D01*
X138804380Y-87209333D02*
X138804380Y-86542666D01*
X139804380Y-86971238D01*
X131341833Y-85950380D02*
X131008500Y-85474190D01*
X130770404Y-85950380D02*
X130770404Y-84950380D01*
X131151357Y-84950380D01*
X131246595Y-84998000D01*
X131294214Y-85045619D01*
X131341833Y-85140857D01*
X131341833Y-85283714D01*
X131294214Y-85378952D01*
X131246595Y-85426571D01*
X131151357Y-85474190D01*
X130770404Y-85474190D01*
X131818023Y-85950380D02*
X132008500Y-85950380D01*
X132103738Y-85902761D01*
X132151357Y-85855142D01*
X132246595Y-85712285D01*
X132294214Y-85521809D01*
X132294214Y-85140857D01*
X132246595Y-85045619D01*
X132198976Y-84998000D01*
X132103738Y-84950380D01*
X131913261Y-84950380D01*
X131818023Y-84998000D01*
X131770404Y-85045619D01*
X131722785Y-85140857D01*
X131722785Y-85378952D01*
X131770404Y-85474190D01*
X131818023Y-85521809D01*
X131913261Y-85569428D01*
X132103738Y-85569428D01*
X132198976Y-85521809D01*
X132246595Y-85474190D01*
X132294214Y-85378952D01*
X131341833Y-84775642D02*
X131294214Y-84823261D01*
X131151357Y-84870880D01*
X131056119Y-84870880D01*
X130913261Y-84823261D01*
X130818023Y-84728023D01*
X130770404Y-84632785D01*
X130722785Y-84442309D01*
X130722785Y-84299452D01*
X130770404Y-84108976D01*
X130818023Y-84013738D01*
X130913261Y-83918500D01*
X131056119Y-83870880D01*
X131151357Y-83870880D01*
X131294214Y-83918500D01*
X131341833Y-83966119D01*
X131818023Y-84870880D02*
X132008500Y-84870880D01*
X132103738Y-84823261D01*
X132151357Y-84775642D01*
X132246595Y-84632785D01*
X132294214Y-84442309D01*
X132294214Y-84061357D01*
X132246595Y-83966119D01*
X132198976Y-83918500D01*
X132103738Y-83870880D01*
X131913261Y-83870880D01*
X131818023Y-83918500D01*
X131770404Y-83966119D01*
X131722785Y-84061357D01*
X131722785Y-84299452D01*
X131770404Y-84394690D01*
X131818023Y-84442309D01*
X131913261Y-84489928D01*
X132103738Y-84489928D01*
X132198976Y-84442309D01*
X132246595Y-84394690D01*
X132294214Y-84299452D01*
X131812380Y-69448166D02*
X131336190Y-69781500D01*
X131812380Y-70019595D02*
X130812380Y-70019595D01*
X130812380Y-69638642D01*
X130860000Y-69543404D01*
X130907619Y-69495785D01*
X131002857Y-69448166D01*
X131145714Y-69448166D01*
X131240952Y-69495785D01*
X131288571Y-69543404D01*
X131336190Y-69638642D01*
X131336190Y-70019595D01*
X130812380Y-68543404D02*
X130812380Y-69019595D01*
X131288571Y-69067214D01*
X131240952Y-69019595D01*
X131193333Y-68924357D01*
X131193333Y-68686261D01*
X131240952Y-68591023D01*
X131288571Y-68543404D01*
X131383809Y-68495785D01*
X131621904Y-68495785D01*
X131717142Y-68543404D01*
X131764761Y-68591023D01*
X131812380Y-68686261D01*
X131812380Y-68924357D01*
X131764761Y-69019595D01*
X131717142Y-69067214D01*
X126865142Y-86083380D02*
X126531809Y-85607190D01*
X126293714Y-86083380D02*
X126293714Y-85083380D01*
X126674666Y-85083380D01*
X126769904Y-85131000D01*
X126817523Y-85178619D01*
X126865142Y-85273857D01*
X126865142Y-85416714D01*
X126817523Y-85511952D01*
X126769904Y-85559571D01*
X126674666Y-85607190D01*
X126293714Y-85607190D01*
X127198476Y-85083380D02*
X127817523Y-85083380D01*
X127484190Y-85464333D01*
X127627047Y-85464333D01*
X127722285Y-85511952D01*
X127769904Y-85559571D01*
X127817523Y-85654809D01*
X127817523Y-85892904D01*
X127769904Y-85988142D01*
X127722285Y-86035761D01*
X127627047Y-86083380D01*
X127341333Y-86083380D01*
X127246095Y-86035761D01*
X127198476Y-85988142D01*
X128150857Y-85083380D02*
X128769904Y-85083380D01*
X128436571Y-85464333D01*
X128579428Y-85464333D01*
X128674666Y-85511952D01*
X128722285Y-85559571D01*
X128769904Y-85654809D01*
X128769904Y-85892904D01*
X128722285Y-85988142D01*
X128674666Y-86035761D01*
X128579428Y-86083380D01*
X128293714Y-86083380D01*
X128198476Y-86035761D01*
X128150857Y-85988142D01*
X123641142Y-81414857D02*
X123688761Y-81462476D01*
X123736380Y-81605333D01*
X123736380Y-81700571D01*
X123688761Y-81843428D01*
X123593523Y-81938666D01*
X123498285Y-81986285D01*
X123307809Y-82033904D01*
X123164952Y-82033904D01*
X122974476Y-81986285D01*
X122879238Y-81938666D01*
X122784000Y-81843428D01*
X122736380Y-81700571D01*
X122736380Y-81605333D01*
X122784000Y-81462476D01*
X122831619Y-81414857D01*
X122736380Y-81081523D02*
X122736380Y-80462476D01*
X123117333Y-80795809D01*
X123117333Y-80652952D01*
X123164952Y-80557714D01*
X123212571Y-80510095D01*
X123307809Y-80462476D01*
X123545904Y-80462476D01*
X123641142Y-80510095D01*
X123688761Y-80557714D01*
X123736380Y-80652952D01*
X123736380Y-80938666D01*
X123688761Y-81033904D01*
X123641142Y-81081523D01*
X122736380Y-79557714D02*
X122736380Y-80033904D01*
X123212571Y-80081523D01*
X123164952Y-80033904D01*
X123117333Y-79938666D01*
X123117333Y-79700571D01*
X123164952Y-79605333D01*
X123212571Y-79557714D01*
X123307809Y-79510095D01*
X123545904Y-79510095D01*
X123641142Y-79557714D01*
X123688761Y-79605333D01*
X123736380Y-79700571D01*
X123736380Y-79938666D01*
X123688761Y-80033904D01*
X123641142Y-80081523D01*
X130721380Y-69095857D02*
X130245190Y-69429190D01*
X130721380Y-69667285D02*
X129721380Y-69667285D01*
X129721380Y-69286333D01*
X129769000Y-69191095D01*
X129816619Y-69143476D01*
X129911857Y-69095857D01*
X130054714Y-69095857D01*
X130149952Y-69143476D01*
X130197571Y-69191095D01*
X130245190Y-69286333D01*
X130245190Y-69667285D01*
X129816619Y-68714904D02*
X129769000Y-68667285D01*
X129721380Y-68572047D01*
X129721380Y-68333952D01*
X129769000Y-68238714D01*
X129816619Y-68191095D01*
X129911857Y-68143476D01*
X130007095Y-68143476D01*
X130149952Y-68191095D01*
X130721380Y-68762523D01*
X130721380Y-68143476D01*
X130721380Y-67191095D02*
X130721380Y-67762523D01*
X130721380Y-67476809D02*
X129721380Y-67476809D01*
X129864238Y-67572047D01*
X129959476Y-67667285D01*
X130007095Y-67762523D01*
X136456380Y-74675904D02*
X137265904Y-74675904D01*
X137361142Y-74628285D01*
X137408761Y-74580666D01*
X137456380Y-74485428D01*
X137456380Y-74294952D01*
X137408761Y-74199714D01*
X137361142Y-74152095D01*
X137265904Y-74104476D01*
X136456380Y-74104476D01*
X136456380Y-73723523D02*
X136456380Y-73104476D01*
X136837333Y-73437809D01*
X136837333Y-73294952D01*
X136884952Y-73199714D01*
X136932571Y-73152095D01*
X137027809Y-73104476D01*
X137265904Y-73104476D01*
X137361142Y-73152095D01*
X137408761Y-73199714D01*
X137456380Y-73294952D01*
X137456380Y-73580666D01*
X137408761Y-73675904D01*
X137361142Y-73723523D01*
X132372380Y-69095857D02*
X131896190Y-69429190D01*
X132372380Y-69667285D02*
X131372380Y-69667285D01*
X131372380Y-69286333D01*
X131420000Y-69191095D01*
X131467619Y-69143476D01*
X131562857Y-69095857D01*
X131705714Y-69095857D01*
X131800952Y-69143476D01*
X131848571Y-69191095D01*
X131896190Y-69286333D01*
X131896190Y-69667285D01*
X131467619Y-68714904D02*
X131420000Y-68667285D01*
X131372380Y-68572047D01*
X131372380Y-68333952D01*
X131420000Y-68238714D01*
X131467619Y-68191095D01*
X131562857Y-68143476D01*
X131658095Y-68143476D01*
X131800952Y-68191095D01*
X132372380Y-68762523D01*
X132372380Y-68143476D01*
X131372380Y-67524428D02*
X131372380Y-67429190D01*
X131420000Y-67333952D01*
X131467619Y-67286333D01*
X131562857Y-67238714D01*
X131753333Y-67191095D01*
X131991428Y-67191095D01*
X132181904Y-67238714D01*
X132277142Y-67286333D01*
X132324761Y-67333952D01*
X132372380Y-67429190D01*
X132372380Y-67524428D01*
X132324761Y-67619666D01*
X132277142Y-67667285D01*
X132181904Y-67714904D01*
X131991428Y-67762523D01*
X131753333Y-67762523D01*
X131562857Y-67714904D01*
X131467619Y-67667285D01*
X131420000Y-67619666D01*
X131372380Y-67524428D01*
X129987380Y-89725404D02*
X130796904Y-89725404D01*
X130892142Y-89677785D01*
X130939761Y-89630166D01*
X130987380Y-89534928D01*
X130987380Y-89344452D01*
X130939761Y-89249214D01*
X130892142Y-89201595D01*
X130796904Y-89153976D01*
X129987380Y-89153976D01*
X130987380Y-88153976D02*
X130987380Y-88725404D01*
X130987380Y-88439690D02*
X129987380Y-88439690D01*
X130130238Y-88534928D01*
X130225476Y-88630166D01*
X130273095Y-88725404D01*
X132120880Y-90400166D02*
X131644690Y-90733500D01*
X132120880Y-90971595D02*
X131120880Y-90971595D01*
X131120880Y-90590642D01*
X131168500Y-90495404D01*
X131216119Y-90447785D01*
X131311357Y-90400166D01*
X131454214Y-90400166D01*
X131549452Y-90447785D01*
X131597071Y-90495404D01*
X131644690Y-90590642D01*
X131644690Y-90971595D01*
X131120880Y-90066833D02*
X131120880Y-89400166D01*
X132120880Y-89828738D01*
X119257380Y-104346333D02*
X119971666Y-104346333D01*
X120114523Y-104393952D01*
X120209761Y-104489190D01*
X120257380Y-104632047D01*
X120257380Y-104727285D01*
X119257380Y-103965380D02*
X119257380Y-103346333D01*
X119638333Y-103679666D01*
X119638333Y-103536809D01*
X119685952Y-103441571D01*
X119733571Y-103393952D01*
X119828809Y-103346333D01*
X120066904Y-103346333D01*
X120162142Y-103393952D01*
X120209761Y-103441571D01*
X120257380Y-103536809D01*
X120257380Y-103822523D01*
X120209761Y-103917761D01*
X120162142Y-103965380D01*
X120769142Y-88782142D02*
X120721523Y-88829761D01*
X120578666Y-88877380D01*
X120483428Y-88877380D01*
X120340571Y-88829761D01*
X120245333Y-88734523D01*
X120197714Y-88639285D01*
X120150095Y-88448809D01*
X120150095Y-88305952D01*
X120197714Y-88115476D01*
X120245333Y-88020238D01*
X120340571Y-87925000D01*
X120483428Y-87877380D01*
X120578666Y-87877380D01*
X120721523Y-87925000D01*
X120769142Y-87972619D01*
X121102476Y-87877380D02*
X121721523Y-87877380D01*
X121388190Y-88258333D01*
X121531047Y-88258333D01*
X121626285Y-88305952D01*
X121673904Y-88353571D01*
X121721523Y-88448809D01*
X121721523Y-88686904D01*
X121673904Y-88782142D01*
X121626285Y-88829761D01*
X121531047Y-88877380D01*
X121245333Y-88877380D01*
X121150095Y-88829761D01*
X121102476Y-88782142D01*
X122054857Y-87877380D02*
X122721523Y-87877380D01*
X122292952Y-88877380D01*
X116058380Y-86082095D02*
X115058380Y-86082095D01*
X115058380Y-85844000D01*
X115106000Y-85701142D01*
X115201238Y-85605904D01*
X115296476Y-85558285D01*
X115486952Y-85510666D01*
X115629809Y-85510666D01*
X115820285Y-85558285D01*
X115915523Y-85605904D01*
X116010761Y-85701142D01*
X116058380Y-85844000D01*
X116058380Y-86082095D01*
X115391714Y-84653523D02*
X116058380Y-84653523D01*
X115010761Y-84891619D02*
X115725047Y-85129714D01*
X115725047Y-84510666D01*
X114742142Y-85986857D02*
X114789761Y-86034476D01*
X114837380Y-86177333D01*
X114837380Y-86272571D01*
X114789761Y-86415428D01*
X114694523Y-86510666D01*
X114599285Y-86558285D01*
X114408809Y-86605904D01*
X114265952Y-86605904D01*
X114075476Y-86558285D01*
X113980238Y-86510666D01*
X113885000Y-86415428D01*
X113837380Y-86272571D01*
X113837380Y-86177333D01*
X113885000Y-86034476D01*
X113932619Y-85986857D01*
X114837380Y-85034476D02*
X114837380Y-85605904D01*
X114837380Y-85320190D02*
X113837380Y-85320190D01*
X113980238Y-85415428D01*
X114075476Y-85510666D01*
X114123095Y-85605904D01*
X114837380Y-84558285D02*
X114837380Y-84367809D01*
X114789761Y-84272571D01*
X114742142Y-84224952D01*
X114599285Y-84129714D01*
X114408809Y-84082095D01*
X114027857Y-84082095D01*
X113932619Y-84129714D01*
X113885000Y-84177333D01*
X113837380Y-84272571D01*
X113837380Y-84463047D01*
X113885000Y-84558285D01*
X113932619Y-84605904D01*
X114027857Y-84653523D01*
X114265952Y-84653523D01*
X114361190Y-84605904D01*
X114408809Y-84558285D01*
X114456428Y-84463047D01*
X114456428Y-84272571D01*
X114408809Y-84177333D01*
X114361190Y-84129714D01*
X114265952Y-84082095D01*
X140636380Y-79882904D02*
X141445904Y-79882904D01*
X141541142Y-79835285D01*
X141588761Y-79787666D01*
X141636380Y-79692428D01*
X141636380Y-79501952D01*
X141588761Y-79406714D01*
X141541142Y-79359095D01*
X141445904Y-79311476D01*
X140636380Y-79311476D01*
X140636380Y-78406714D02*
X140636380Y-78597190D01*
X140684000Y-78692428D01*
X140731619Y-78740047D01*
X140874476Y-78835285D01*
X141064952Y-78882904D01*
X141445904Y-78882904D01*
X141541142Y-78835285D01*
X141588761Y-78787666D01*
X141636380Y-78692428D01*
X141636380Y-78501952D01*
X141588761Y-78406714D01*
X141541142Y-78359095D01*
X141445904Y-78311476D01*
X141207809Y-78311476D01*
X141112571Y-78359095D01*
X141064952Y-78406714D01*
X141017333Y-78501952D01*
X141017333Y-78692428D01*
X141064952Y-78787666D01*
X141112571Y-78835285D01*
X141207809Y-78882904D01*
X110807595Y-94107380D02*
X110807595Y-94916904D01*
X110855214Y-95012142D01*
X110902833Y-95059761D01*
X110998071Y-95107380D01*
X111188547Y-95107380D01*
X111283785Y-95059761D01*
X111331404Y-95012142D01*
X111379023Y-94916904D01*
X111379023Y-94107380D01*
X112331404Y-94107380D02*
X111855214Y-94107380D01*
X111807595Y-94583571D01*
X111855214Y-94535952D01*
X111950452Y-94488333D01*
X112188547Y-94488333D01*
X112283785Y-94535952D01*
X112331404Y-94583571D01*
X112379023Y-94678809D01*
X112379023Y-94916904D01*
X112331404Y-95012142D01*
X112283785Y-95059761D01*
X112188547Y-95107380D01*
X111950452Y-95107380D01*
X111855214Y-95059761D01*
X111807595Y-95012142D01*
X123078380Y-94360904D02*
X123887904Y-94360904D01*
X123983142Y-94313285D01*
X124030761Y-94265666D01*
X124078380Y-94170428D01*
X124078380Y-93979952D01*
X124030761Y-93884714D01*
X123983142Y-93837095D01*
X123887904Y-93789476D01*
X123078380Y-93789476D01*
X123411714Y-92884714D02*
X124078380Y-92884714D01*
X123030761Y-93122809D02*
X123745047Y-93360904D01*
X123745047Y-92741857D01*
X124325142Y-94145380D02*
X123991809Y-93669190D01*
X123753714Y-94145380D02*
X123753714Y-93145380D01*
X124134666Y-93145380D01*
X124229904Y-93193000D01*
X124277523Y-93240619D01*
X124325142Y-93335857D01*
X124325142Y-93478714D01*
X124277523Y-93573952D01*
X124229904Y-93621571D01*
X124134666Y-93669190D01*
X123753714Y-93669190D01*
X124658476Y-93145380D02*
X125277523Y-93145380D01*
X124944190Y-93526333D01*
X125087047Y-93526333D01*
X125182285Y-93573952D01*
X125229904Y-93621571D01*
X125277523Y-93716809D01*
X125277523Y-93954904D01*
X125229904Y-94050142D01*
X125182285Y-94097761D01*
X125087047Y-94145380D01*
X124801333Y-94145380D01*
X124706095Y-94097761D01*
X124658476Y-94050142D01*
X125848952Y-93573952D02*
X125753714Y-93526333D01*
X125706095Y-93478714D01*
X125658476Y-93383476D01*
X125658476Y-93335857D01*
X125706095Y-93240619D01*
X125753714Y-93193000D01*
X125848952Y-93145380D01*
X126039428Y-93145380D01*
X126134666Y-93193000D01*
X126182285Y-93240619D01*
X126229904Y-93335857D01*
X126229904Y-93383476D01*
X126182285Y-93478714D01*
X126134666Y-93526333D01*
X126039428Y-93573952D01*
X125848952Y-93573952D01*
X125753714Y-93621571D01*
X125706095Y-93669190D01*
X125658476Y-93764428D01*
X125658476Y-93954904D01*
X125706095Y-94050142D01*
X125753714Y-94097761D01*
X125848952Y-94145380D01*
X126039428Y-94145380D01*
X126134666Y-94097761D01*
X126182285Y-94050142D01*
X126229904Y-93954904D01*
X126229904Y-93764428D01*
X126182285Y-93669190D01*
X126134666Y-93621571D01*
X126039428Y-93573952D01*
X124325142Y-95354380D02*
X123991809Y-94878190D01*
X123753714Y-95354380D02*
X123753714Y-94354380D01*
X124134666Y-94354380D01*
X124229904Y-94402000D01*
X124277523Y-94449619D01*
X124325142Y-94544857D01*
X124325142Y-94687714D01*
X124277523Y-94782952D01*
X124229904Y-94830571D01*
X124134666Y-94878190D01*
X123753714Y-94878190D01*
X124658476Y-94354380D02*
X125277523Y-94354380D01*
X124944190Y-94735333D01*
X125087047Y-94735333D01*
X125182285Y-94782952D01*
X125229904Y-94830571D01*
X125277523Y-94925809D01*
X125277523Y-95163904D01*
X125229904Y-95259142D01*
X125182285Y-95306761D01*
X125087047Y-95354380D01*
X124801333Y-95354380D01*
X124706095Y-95306761D01*
X124658476Y-95259142D01*
X125610857Y-94354380D02*
X126277523Y-94354380D01*
X125848952Y-95354380D01*
X125722142Y-67281380D02*
X125388809Y-66805190D01*
X125150714Y-67281380D02*
X125150714Y-66281380D01*
X125531666Y-66281380D01*
X125626904Y-66329000D01*
X125674523Y-66376619D01*
X125722142Y-66471857D01*
X125722142Y-66614714D01*
X125674523Y-66709952D01*
X125626904Y-66757571D01*
X125531666Y-66805190D01*
X125150714Y-66805190D01*
X126055476Y-66281380D02*
X126674523Y-66281380D01*
X126341190Y-66662333D01*
X126484047Y-66662333D01*
X126579285Y-66709952D01*
X126626904Y-66757571D01*
X126674523Y-66852809D01*
X126674523Y-67090904D01*
X126626904Y-67186142D01*
X126579285Y-67233761D01*
X126484047Y-67281380D01*
X126198333Y-67281380D01*
X126103095Y-67233761D01*
X126055476Y-67186142D01*
X127531666Y-66281380D02*
X127341190Y-66281380D01*
X127245952Y-66329000D01*
X127198333Y-66376619D01*
X127103095Y-66519476D01*
X127055476Y-66709952D01*
X127055476Y-67090904D01*
X127103095Y-67186142D01*
X127150714Y-67233761D01*
X127245952Y-67281380D01*
X127436428Y-67281380D01*
X127531666Y-67233761D01*
X127579285Y-67186142D01*
X127626904Y-67090904D01*
X127626904Y-66852809D01*
X127579285Y-66757571D01*
X127531666Y-66709952D01*
X127436428Y-66662333D01*
X127245952Y-66662333D01*
X127150714Y-66709952D01*
X127103095Y-66757571D01*
X127055476Y-66852809D01*
X125006380Y-68460857D02*
X124530190Y-68794190D01*
X125006380Y-69032285D02*
X124006380Y-69032285D01*
X124006380Y-68651333D01*
X124054000Y-68556095D01*
X124101619Y-68508476D01*
X124196857Y-68460857D01*
X124339714Y-68460857D01*
X124434952Y-68508476D01*
X124482571Y-68556095D01*
X124530190Y-68651333D01*
X124530190Y-69032285D01*
X124006380Y-68127523D02*
X124006380Y-67508476D01*
X124387333Y-67841809D01*
X124387333Y-67698952D01*
X124434952Y-67603714D01*
X124482571Y-67556095D01*
X124577809Y-67508476D01*
X124815904Y-67508476D01*
X124911142Y-67556095D01*
X124958761Y-67603714D01*
X125006380Y-67698952D01*
X125006380Y-67984666D01*
X124958761Y-68079904D01*
X124911142Y-68127523D01*
X124006380Y-66603714D02*
X124006380Y-67079904D01*
X124482571Y-67127523D01*
X124434952Y-67079904D01*
X124387333Y-66984666D01*
X124387333Y-66746571D01*
X124434952Y-66651333D01*
X124482571Y-66603714D01*
X124577809Y-66556095D01*
X124815904Y-66556095D01*
X124911142Y-66603714D01*
X124958761Y-66651333D01*
X125006380Y-66746571D01*
X125006380Y-66984666D01*
X124958761Y-67079904D01*
X124911142Y-67127523D01*
X125107980Y-99855257D02*
X124631790Y-100188590D01*
X125107980Y-100426685D02*
X124107980Y-100426685D01*
X124107980Y-100045733D01*
X124155600Y-99950495D01*
X124203219Y-99902876D01*
X124298457Y-99855257D01*
X124441314Y-99855257D01*
X124536552Y-99902876D01*
X124584171Y-99950495D01*
X124631790Y-100045733D01*
X124631790Y-100426685D01*
X124107980Y-99521923D02*
X124107980Y-98902876D01*
X124488933Y-99236209D01*
X124488933Y-99093352D01*
X124536552Y-98998114D01*
X124584171Y-98950495D01*
X124679409Y-98902876D01*
X124917504Y-98902876D01*
X125012742Y-98950495D01*
X125060361Y-98998114D01*
X125107980Y-99093352D01*
X125107980Y-99379066D01*
X125060361Y-99474304D01*
X125012742Y-99521923D01*
X124441314Y-98045733D02*
X125107980Y-98045733D01*
X124060361Y-98283828D02*
X124774647Y-98521923D01*
X124774647Y-97902876D01*
X123736380Y-71508857D02*
X123260190Y-71842190D01*
X123736380Y-72080285D02*
X122736380Y-72080285D01*
X122736380Y-71699333D01*
X122784000Y-71604095D01*
X122831619Y-71556476D01*
X122926857Y-71508857D01*
X123069714Y-71508857D01*
X123164952Y-71556476D01*
X123212571Y-71604095D01*
X123260190Y-71699333D01*
X123260190Y-72080285D01*
X122736380Y-71175523D02*
X122736380Y-70556476D01*
X123117333Y-70889809D01*
X123117333Y-70746952D01*
X123164952Y-70651714D01*
X123212571Y-70604095D01*
X123307809Y-70556476D01*
X123545904Y-70556476D01*
X123641142Y-70604095D01*
X123688761Y-70651714D01*
X123736380Y-70746952D01*
X123736380Y-71032666D01*
X123688761Y-71127904D01*
X123641142Y-71175523D01*
X122831619Y-70175523D02*
X122784000Y-70127904D01*
X122736380Y-70032666D01*
X122736380Y-69794571D01*
X122784000Y-69699333D01*
X122831619Y-69651714D01*
X122926857Y-69604095D01*
X123022095Y-69604095D01*
X123164952Y-69651714D01*
X123736380Y-70223142D01*
X123736380Y-69604095D01*
X123355380Y-68460857D02*
X122879190Y-68794190D01*
X123355380Y-69032285D02*
X122355380Y-69032285D01*
X122355380Y-68651333D01*
X122403000Y-68556095D01*
X122450619Y-68508476D01*
X122545857Y-68460857D01*
X122688714Y-68460857D01*
X122783952Y-68508476D01*
X122831571Y-68556095D01*
X122879190Y-68651333D01*
X122879190Y-69032285D01*
X122355380Y-68127523D02*
X122355380Y-67508476D01*
X122736333Y-67841809D01*
X122736333Y-67698952D01*
X122783952Y-67603714D01*
X122831571Y-67556095D01*
X122926809Y-67508476D01*
X123164904Y-67508476D01*
X123260142Y-67556095D01*
X123307761Y-67603714D01*
X123355380Y-67698952D01*
X123355380Y-67984666D01*
X123307761Y-68079904D01*
X123260142Y-68127523D01*
X123355380Y-66556095D02*
X123355380Y-67127523D01*
X123355380Y-66841809D02*
X122355380Y-66841809D01*
X122498238Y-66937047D01*
X122593476Y-67032285D01*
X122641095Y-67127523D01*
X142486142Y-76679380D02*
X142152809Y-76203190D01*
X141914714Y-76679380D02*
X141914714Y-75679380D01*
X142295666Y-75679380D01*
X142390904Y-75727000D01*
X142438523Y-75774619D01*
X142486142Y-75869857D01*
X142486142Y-76012714D01*
X142438523Y-76107952D01*
X142390904Y-76155571D01*
X142295666Y-76203190D01*
X141914714Y-76203190D01*
X142819476Y-75679380D02*
X143438523Y-75679380D01*
X143105190Y-76060333D01*
X143248047Y-76060333D01*
X143343285Y-76107952D01*
X143390904Y-76155571D01*
X143438523Y-76250809D01*
X143438523Y-76488904D01*
X143390904Y-76584142D01*
X143343285Y-76631761D01*
X143248047Y-76679380D01*
X142962333Y-76679380D01*
X142867095Y-76631761D01*
X142819476Y-76584142D01*
X144057571Y-75679380D02*
X144152809Y-75679380D01*
X144248047Y-75727000D01*
X144295666Y-75774619D01*
X144343285Y-75869857D01*
X144390904Y-76060333D01*
X144390904Y-76298428D01*
X144343285Y-76488904D01*
X144295666Y-76584142D01*
X144248047Y-76631761D01*
X144152809Y-76679380D01*
X144057571Y-76679380D01*
X143962333Y-76631761D01*
X143914714Y-76584142D01*
X143867095Y-76488904D01*
X143819476Y-76298428D01*
X143819476Y-76060333D01*
X143867095Y-75869857D01*
X143914714Y-75774619D01*
X143962333Y-75727000D01*
X144057571Y-75679380D01*
X142486142Y-77758880D02*
X142152809Y-77282690D01*
X141914714Y-77758880D02*
X141914714Y-76758880D01*
X142295666Y-76758880D01*
X142390904Y-76806500D01*
X142438523Y-76854119D01*
X142486142Y-76949357D01*
X142486142Y-77092214D01*
X142438523Y-77187452D01*
X142390904Y-77235071D01*
X142295666Y-77282690D01*
X141914714Y-77282690D01*
X142867095Y-76854119D02*
X142914714Y-76806500D01*
X143009952Y-76758880D01*
X143248047Y-76758880D01*
X143343285Y-76806500D01*
X143390904Y-76854119D01*
X143438523Y-76949357D01*
X143438523Y-77044595D01*
X143390904Y-77187452D01*
X142819476Y-77758880D01*
X143438523Y-77758880D01*
X143914714Y-77758880D02*
X144105190Y-77758880D01*
X144200428Y-77711261D01*
X144248047Y-77663642D01*
X144343285Y-77520785D01*
X144390904Y-77330309D01*
X144390904Y-76949357D01*
X144343285Y-76854119D01*
X144295666Y-76806500D01*
X144200428Y-76758880D01*
X144009952Y-76758880D01*
X143914714Y-76806500D01*
X143867095Y-76854119D01*
X143819476Y-76949357D01*
X143819476Y-77187452D01*
X143867095Y-77282690D01*
X143914714Y-77330309D01*
X144009952Y-77377928D01*
X144200428Y-77377928D01*
X144295666Y-77330309D01*
X144343285Y-77282690D01*
X144390904Y-77187452D01*
X124452142Y-103482380D02*
X124118809Y-103006190D01*
X123880714Y-103482380D02*
X123880714Y-102482380D01*
X124261666Y-102482380D01*
X124356904Y-102530000D01*
X124404523Y-102577619D01*
X124452142Y-102672857D01*
X124452142Y-102815714D01*
X124404523Y-102910952D01*
X124356904Y-102958571D01*
X124261666Y-103006190D01*
X123880714Y-103006190D01*
X124833095Y-102577619D02*
X124880714Y-102530000D01*
X124975952Y-102482380D01*
X125214047Y-102482380D01*
X125309285Y-102530000D01*
X125356904Y-102577619D01*
X125404523Y-102672857D01*
X125404523Y-102768095D01*
X125356904Y-102910952D01*
X124785476Y-103482380D01*
X125404523Y-103482380D01*
X125975952Y-102910952D02*
X125880714Y-102863333D01*
X125833095Y-102815714D01*
X125785476Y-102720476D01*
X125785476Y-102672857D01*
X125833095Y-102577619D01*
X125880714Y-102530000D01*
X125975952Y-102482380D01*
X126166428Y-102482380D01*
X126261666Y-102530000D01*
X126309285Y-102577619D01*
X126356904Y-102672857D01*
X126356904Y-102720476D01*
X126309285Y-102815714D01*
X126261666Y-102863333D01*
X126166428Y-102910952D01*
X125975952Y-102910952D01*
X125880714Y-102958571D01*
X125833095Y-103006190D01*
X125785476Y-103101428D01*
X125785476Y-103291904D01*
X125833095Y-103387142D01*
X125880714Y-103434761D01*
X125975952Y-103482380D01*
X126166428Y-103482380D01*
X126261666Y-103434761D01*
X126309285Y-103387142D01*
X126356904Y-103291904D01*
X126356904Y-103101428D01*
X126309285Y-103006190D01*
X126261666Y-102958571D01*
X126166428Y-102910952D01*
X123563142Y-67281380D02*
X123229809Y-66805190D01*
X122991714Y-67281380D02*
X122991714Y-66281380D01*
X123372666Y-66281380D01*
X123467904Y-66329000D01*
X123515523Y-66376619D01*
X123563142Y-66471857D01*
X123563142Y-66614714D01*
X123515523Y-66709952D01*
X123467904Y-66757571D01*
X123372666Y-66805190D01*
X122991714Y-66805190D01*
X123944095Y-66376619D02*
X123991714Y-66329000D01*
X124086952Y-66281380D01*
X124325047Y-66281380D01*
X124420285Y-66329000D01*
X124467904Y-66376619D01*
X124515523Y-66471857D01*
X124515523Y-66567095D01*
X124467904Y-66709952D01*
X123896476Y-67281380D01*
X124515523Y-67281380D01*
X124848857Y-66281380D02*
X125515523Y-66281380D01*
X125086952Y-67281380D01*
X140517642Y-74339380D02*
X140184309Y-73863190D01*
X139946214Y-74339380D02*
X139946214Y-73339380D01*
X140327166Y-73339380D01*
X140422404Y-73387000D01*
X140470023Y-73434619D01*
X140517642Y-73529857D01*
X140517642Y-73672714D01*
X140470023Y-73767952D01*
X140422404Y-73815571D01*
X140327166Y-73863190D01*
X139946214Y-73863190D01*
X140898595Y-73434619D02*
X140946214Y-73387000D01*
X141041452Y-73339380D01*
X141279547Y-73339380D01*
X141374785Y-73387000D01*
X141422404Y-73434619D01*
X141470023Y-73529857D01*
X141470023Y-73625095D01*
X141422404Y-73767952D01*
X140850976Y-74339380D01*
X141470023Y-74339380D01*
X142327166Y-73339380D02*
X142136690Y-73339380D01*
X142041452Y-73387000D01*
X141993833Y-73434619D01*
X141898595Y-73577476D01*
X141850976Y-73767952D01*
X141850976Y-74148904D01*
X141898595Y-74244142D01*
X141946214Y-74291761D01*
X142041452Y-74339380D01*
X142231928Y-74339380D01*
X142327166Y-74291761D01*
X142374785Y-74244142D01*
X142422404Y-74148904D01*
X142422404Y-73910809D01*
X142374785Y-73815571D01*
X142327166Y-73767952D01*
X142231928Y-73720333D01*
X142041452Y-73720333D01*
X141946214Y-73767952D01*
X141898595Y-73815571D01*
X141850976Y-73910809D01*
X121236642Y-75418880D02*
X120903309Y-74942690D01*
X120665214Y-75418880D02*
X120665214Y-74418880D01*
X121046166Y-74418880D01*
X121141404Y-74466500D01*
X121189023Y-74514119D01*
X121236642Y-74609357D01*
X121236642Y-74752214D01*
X121189023Y-74847452D01*
X121141404Y-74895071D01*
X121046166Y-74942690D01*
X120665214Y-74942690D01*
X121617595Y-74514119D02*
X121665214Y-74466500D01*
X121760452Y-74418880D01*
X121998547Y-74418880D01*
X122093785Y-74466500D01*
X122141404Y-74514119D01*
X122189023Y-74609357D01*
X122189023Y-74704595D01*
X122141404Y-74847452D01*
X121569976Y-75418880D01*
X122189023Y-75418880D01*
X123093785Y-74418880D02*
X122617595Y-74418880D01*
X122569976Y-74895071D01*
X122617595Y-74847452D01*
X122712833Y-74799833D01*
X122950928Y-74799833D01*
X123046166Y-74847452D01*
X123093785Y-74895071D01*
X123141404Y-74990309D01*
X123141404Y-75228404D01*
X123093785Y-75323642D01*
X123046166Y-75371261D01*
X122950928Y-75418880D01*
X122712833Y-75418880D01*
X122617595Y-75371261D01*
X122569976Y-75323642D01*
X131673880Y-95130857D02*
X131197690Y-95464190D01*
X131673880Y-95702285D02*
X130673880Y-95702285D01*
X130673880Y-95321333D01*
X130721500Y-95226095D01*
X130769119Y-95178476D01*
X130864357Y-95130857D01*
X131007214Y-95130857D01*
X131102452Y-95178476D01*
X131150071Y-95226095D01*
X131197690Y-95321333D01*
X131197690Y-95702285D01*
X130769119Y-94749904D02*
X130721500Y-94702285D01*
X130673880Y-94607047D01*
X130673880Y-94368952D01*
X130721500Y-94273714D01*
X130769119Y-94226095D01*
X130864357Y-94178476D01*
X130959595Y-94178476D01*
X131102452Y-94226095D01*
X131673880Y-94797523D01*
X131673880Y-94178476D01*
X131007214Y-93321333D02*
X131673880Y-93321333D01*
X130626261Y-93559428D02*
X131340547Y-93797523D01*
X131340547Y-93178476D01*
X111015542Y-104390780D02*
X110682209Y-103914590D01*
X110444114Y-104390780D02*
X110444114Y-103390780D01*
X110825066Y-103390780D01*
X110920304Y-103438400D01*
X110967923Y-103486019D01*
X111015542Y-103581257D01*
X111015542Y-103724114D01*
X110967923Y-103819352D01*
X110920304Y-103866971D01*
X110825066Y-103914590D01*
X110444114Y-103914590D01*
X111396495Y-103486019D02*
X111444114Y-103438400D01*
X111539352Y-103390780D01*
X111777447Y-103390780D01*
X111872685Y-103438400D01*
X111920304Y-103486019D01*
X111967923Y-103581257D01*
X111967923Y-103676495D01*
X111920304Y-103819352D01*
X111348876Y-104390780D01*
X111967923Y-104390780D01*
X112301257Y-103390780D02*
X112920304Y-103390780D01*
X112586971Y-103771733D01*
X112729828Y-103771733D01*
X112825066Y-103819352D01*
X112872685Y-103866971D01*
X112920304Y-103962209D01*
X112920304Y-104200304D01*
X112872685Y-104295542D01*
X112825066Y-104343161D01*
X112729828Y-104390780D01*
X112444114Y-104390780D01*
X112348876Y-104343161D01*
X112301257Y-104295542D01*
X129961880Y-95956357D02*
X129485690Y-96289690D01*
X129961880Y-96527785D02*
X128961880Y-96527785D01*
X128961880Y-96146833D01*
X129009500Y-96051595D01*
X129057119Y-96003976D01*
X129152357Y-95956357D01*
X129295214Y-95956357D01*
X129390452Y-96003976D01*
X129438071Y-96051595D01*
X129485690Y-96146833D01*
X129485690Y-96527785D01*
X129057119Y-95575404D02*
X129009500Y-95527785D01*
X128961880Y-95432547D01*
X128961880Y-95194452D01*
X129009500Y-95099214D01*
X129057119Y-95051595D01*
X129152357Y-95003976D01*
X129247595Y-95003976D01*
X129390452Y-95051595D01*
X129961880Y-95623023D01*
X129961880Y-95003976D01*
X129057119Y-94623023D02*
X129009500Y-94575404D01*
X128961880Y-94480166D01*
X128961880Y-94242071D01*
X129009500Y-94146833D01*
X129057119Y-94099214D01*
X129152357Y-94051595D01*
X129247595Y-94051595D01*
X129390452Y-94099214D01*
X129961880Y-94670642D01*
X129961880Y-94051595D01*
X133342142Y-67922380D02*
X133008809Y-67446190D01*
X132770714Y-67922380D02*
X132770714Y-66922380D01*
X133151666Y-66922380D01*
X133246904Y-66970000D01*
X133294523Y-67017619D01*
X133342142Y-67112857D01*
X133342142Y-67255714D01*
X133294523Y-67350952D01*
X133246904Y-67398571D01*
X133151666Y-67446190D01*
X132770714Y-67446190D01*
X134294523Y-67922380D02*
X133723095Y-67922380D01*
X134008809Y-67922380D02*
X134008809Y-66922380D01*
X133913571Y-67065238D01*
X133818333Y-67160476D01*
X133723095Y-67208095D01*
X134770714Y-67922380D02*
X134961190Y-67922380D01*
X135056428Y-67874761D01*
X135104047Y-67827142D01*
X135199285Y-67684285D01*
X135246904Y-67493809D01*
X135246904Y-67112857D01*
X135199285Y-67017619D01*
X135151666Y-66970000D01*
X135056428Y-66922380D01*
X134865952Y-66922380D01*
X134770714Y-66970000D01*
X134723095Y-67017619D01*
X134675476Y-67112857D01*
X134675476Y-67350952D01*
X134723095Y-67446190D01*
X134770714Y-67493809D01*
X134865952Y-67541428D01*
X135056428Y-67541428D01*
X135151666Y-67493809D01*
X135199285Y-67446190D01*
X135246904Y-67350952D01*
X134167642Y-77508380D02*
X133834309Y-77032190D01*
X133596214Y-77508380D02*
X133596214Y-76508380D01*
X133977166Y-76508380D01*
X134072404Y-76556000D01*
X134120023Y-76603619D01*
X134167642Y-76698857D01*
X134167642Y-76841714D01*
X134120023Y-76936952D01*
X134072404Y-76984571D01*
X133977166Y-77032190D01*
X133596214Y-77032190D01*
X135120023Y-77508380D02*
X134548595Y-77508380D01*
X134834309Y-77508380D02*
X134834309Y-76508380D01*
X134739071Y-76651238D01*
X134643833Y-76746476D01*
X134548595Y-76794095D01*
X135691452Y-76936952D02*
X135596214Y-76889333D01*
X135548595Y-76841714D01*
X135500976Y-76746476D01*
X135500976Y-76698857D01*
X135548595Y-76603619D01*
X135596214Y-76556000D01*
X135691452Y-76508380D01*
X135881928Y-76508380D01*
X135977166Y-76556000D01*
X136024785Y-76603619D01*
X136072404Y-76698857D01*
X136072404Y-76746476D01*
X136024785Y-76841714D01*
X135977166Y-76889333D01*
X135881928Y-76936952D01*
X135691452Y-76936952D01*
X135596214Y-76984571D01*
X135548595Y-77032190D01*
X135500976Y-77127428D01*
X135500976Y-77317904D01*
X135548595Y-77413142D01*
X135596214Y-77460761D01*
X135691452Y-77508380D01*
X135881928Y-77508380D01*
X135977166Y-77460761D01*
X136024785Y-77413142D01*
X136072404Y-77317904D01*
X136072404Y-77127428D01*
X136024785Y-77032190D01*
X135977166Y-76984571D01*
X135881928Y-76936952D01*
X134023380Y-69095857D02*
X133547190Y-69429190D01*
X134023380Y-69667285D02*
X133023380Y-69667285D01*
X133023380Y-69286333D01*
X133071000Y-69191095D01*
X133118619Y-69143476D01*
X133213857Y-69095857D01*
X133356714Y-69095857D01*
X133451952Y-69143476D01*
X133499571Y-69191095D01*
X133547190Y-69286333D01*
X133547190Y-69667285D01*
X134023380Y-68143476D02*
X134023380Y-68714904D01*
X134023380Y-68429190D02*
X133023380Y-68429190D01*
X133166238Y-68524428D01*
X133261476Y-68619666D01*
X133309095Y-68714904D01*
X133023380Y-67810142D02*
X133023380Y-67143476D01*
X134023380Y-67572047D01*
X137585380Y-108084857D02*
X137109190Y-108418190D01*
X137585380Y-108656285D02*
X136585380Y-108656285D01*
X136585380Y-108275333D01*
X136633000Y-108180095D01*
X136680619Y-108132476D01*
X136775857Y-108084857D01*
X136918714Y-108084857D01*
X137013952Y-108132476D01*
X137061571Y-108180095D01*
X137109190Y-108275333D01*
X137109190Y-108656285D01*
X137585380Y-107132476D02*
X137585380Y-107703904D01*
X137585380Y-107418190D02*
X136585380Y-107418190D01*
X136728238Y-107513428D01*
X136823476Y-107608666D01*
X136871095Y-107703904D01*
X136585380Y-106275333D02*
X136585380Y-106465809D01*
X136633000Y-106561047D01*
X136680619Y-106608666D01*
X136823476Y-106703904D01*
X137013952Y-106751523D01*
X137394904Y-106751523D01*
X137490142Y-106703904D01*
X137537761Y-106656285D01*
X137585380Y-106561047D01*
X137585380Y-106370571D01*
X137537761Y-106275333D01*
X137490142Y-106227714D01*
X137394904Y-106180095D01*
X137156809Y-106180095D01*
X137061571Y-106227714D01*
X137013952Y-106275333D01*
X136966333Y-106370571D01*
X136966333Y-106561047D01*
X137013952Y-106656285D01*
X137061571Y-106703904D01*
X137156809Y-106751523D01*
X128495380Y-76080857D02*
X128019190Y-76414190D01*
X128495380Y-76652285D02*
X127495380Y-76652285D01*
X127495380Y-76271333D01*
X127543000Y-76176095D01*
X127590619Y-76128476D01*
X127685857Y-76080857D01*
X127828714Y-76080857D01*
X127923952Y-76128476D01*
X127971571Y-76176095D01*
X128019190Y-76271333D01*
X128019190Y-76652285D01*
X128495380Y-75128476D02*
X128495380Y-75699904D01*
X128495380Y-75414190D02*
X127495380Y-75414190D01*
X127638238Y-75509428D01*
X127733476Y-75604666D01*
X127781095Y-75699904D01*
X127828714Y-74271333D02*
X128495380Y-74271333D01*
X127447761Y-74509428D02*
X128162047Y-74747523D01*
X128162047Y-74128476D01*
X128943380Y-74937857D02*
X128467190Y-75271190D01*
X128943380Y-75509285D02*
X127943380Y-75509285D01*
X127943380Y-75128333D01*
X127991000Y-75033095D01*
X128038619Y-74985476D01*
X128133857Y-74937857D01*
X128276714Y-74937857D01*
X128371952Y-74985476D01*
X128419571Y-75033095D01*
X128467190Y-75128333D01*
X128467190Y-75509285D01*
X128943380Y-73985476D02*
X128943380Y-74556904D01*
X128943380Y-74271190D02*
X127943380Y-74271190D01*
X128086238Y-74366428D01*
X128181476Y-74461666D01*
X128229095Y-74556904D01*
X127943380Y-73652142D02*
X127943380Y-73033095D01*
X128324333Y-73366428D01*
X128324333Y-73223571D01*
X128371952Y-73128333D01*
X128419571Y-73080714D01*
X128514809Y-73033095D01*
X128752904Y-73033095D01*
X128848142Y-73080714D01*
X128895761Y-73128333D01*
X128943380Y-73223571D01*
X128943380Y-73509285D01*
X128895761Y-73604523D01*
X128848142Y-73652142D01*
X133469142Y-83610380D02*
X133135809Y-83134190D01*
X132897714Y-83610380D02*
X132897714Y-82610380D01*
X133278666Y-82610380D01*
X133373904Y-82658000D01*
X133421523Y-82705619D01*
X133469142Y-82800857D01*
X133469142Y-82943714D01*
X133421523Y-83038952D01*
X133373904Y-83086571D01*
X133278666Y-83134190D01*
X132897714Y-83134190D01*
X134421523Y-83610380D02*
X133850095Y-83610380D01*
X134135809Y-83610380D02*
X134135809Y-82610380D01*
X134040571Y-82753238D01*
X133945333Y-82848476D01*
X133850095Y-82896095D01*
X134802476Y-82705619D02*
X134850095Y-82658000D01*
X134945333Y-82610380D01*
X135183428Y-82610380D01*
X135278666Y-82658000D01*
X135326285Y-82705619D01*
X135373904Y-82800857D01*
X135373904Y-82896095D01*
X135326285Y-83038952D01*
X134754857Y-83610380D01*
X135373904Y-83610380D01*
X139045880Y-92146357D02*
X138569690Y-92479690D01*
X139045880Y-92717785D02*
X138045880Y-92717785D01*
X138045880Y-92336833D01*
X138093500Y-92241595D01*
X138141119Y-92193976D01*
X138236357Y-92146357D01*
X138379214Y-92146357D01*
X138474452Y-92193976D01*
X138522071Y-92241595D01*
X138569690Y-92336833D01*
X138569690Y-92717785D01*
X139045880Y-91193976D02*
X139045880Y-91765404D01*
X139045880Y-91479690D02*
X138045880Y-91479690D01*
X138188738Y-91574928D01*
X138283976Y-91670166D01*
X138331595Y-91765404D01*
X139045880Y-90241595D02*
X139045880Y-90813023D01*
X139045880Y-90527309D02*
X138045880Y-90527309D01*
X138188738Y-90622547D01*
X138283976Y-90717785D01*
X138331595Y-90813023D01*
X112823580Y-104935257D02*
X112347390Y-105268590D01*
X112823580Y-105506685D02*
X111823580Y-105506685D01*
X111823580Y-105125733D01*
X111871200Y-105030495D01*
X111918819Y-104982876D01*
X112014057Y-104935257D01*
X112156914Y-104935257D01*
X112252152Y-104982876D01*
X112299771Y-105030495D01*
X112347390Y-105125733D01*
X112347390Y-105506685D01*
X112823580Y-103982876D02*
X112823580Y-104554304D01*
X112823580Y-104268590D02*
X111823580Y-104268590D01*
X111966438Y-104363828D01*
X112061676Y-104459066D01*
X112109295Y-104554304D01*
X111823580Y-103363828D02*
X111823580Y-103268590D01*
X111871200Y-103173352D01*
X111918819Y-103125733D01*
X112014057Y-103078114D01*
X112204533Y-103030495D01*
X112442628Y-103030495D01*
X112633104Y-103078114D01*
X112728342Y-103125733D01*
X112775961Y-103173352D01*
X112823580Y-103268590D01*
X112823580Y-103363828D01*
X112775961Y-103459066D01*
X112728342Y-103506685D01*
X112633104Y-103554304D01*
X112442628Y-103601923D01*
X112204533Y-103601923D01*
X112014057Y-103554304D01*
X111918819Y-103506685D01*
X111871200Y-103459066D01*
X111823580Y-103363828D01*
X113890380Y-104459066D02*
X113414190Y-104792400D01*
X113890380Y-105030495D02*
X112890380Y-105030495D01*
X112890380Y-104649542D01*
X112938000Y-104554304D01*
X112985619Y-104506685D01*
X113080857Y-104459066D01*
X113223714Y-104459066D01*
X113318952Y-104506685D01*
X113366571Y-104554304D01*
X113414190Y-104649542D01*
X113414190Y-105030495D01*
X113318952Y-103887638D02*
X113271333Y-103982876D01*
X113223714Y-104030495D01*
X113128476Y-104078114D01*
X113080857Y-104078114D01*
X112985619Y-104030495D01*
X112938000Y-103982876D01*
X112890380Y-103887638D01*
X112890380Y-103697161D01*
X112938000Y-103601923D01*
X112985619Y-103554304D01*
X113080857Y-103506685D01*
X113128476Y-103506685D01*
X113223714Y-103554304D01*
X113271333Y-103601923D01*
X113318952Y-103697161D01*
X113318952Y-103887638D01*
X113366571Y-103982876D01*
X113414190Y-104030495D01*
X113509428Y-104078114D01*
X113699904Y-104078114D01*
X113795142Y-104030495D01*
X113842761Y-103982876D01*
X113890380Y-103887638D01*
X113890380Y-103697161D01*
X113842761Y-103601923D01*
X113795142Y-103554304D01*
X113699904Y-103506685D01*
X113509428Y-103506685D01*
X113414190Y-103554304D01*
X113366571Y-103601923D01*
X113318952Y-103697161D01*
X132120880Y-93511666D02*
X131644690Y-93845000D01*
X132120880Y-94083095D02*
X131120880Y-94083095D01*
X131120880Y-93702142D01*
X131168500Y-93606904D01*
X131216119Y-93559285D01*
X131311357Y-93511666D01*
X131454214Y-93511666D01*
X131549452Y-93559285D01*
X131597071Y-93606904D01*
X131644690Y-93702142D01*
X131644690Y-94083095D01*
X131454214Y-92654523D02*
X132120880Y-92654523D01*
X131073261Y-92892619D02*
X131787547Y-93130714D01*
X131787547Y-92511666D01*
X138072833Y-96621880D02*
X137739500Y-96145690D01*
X137501404Y-96621880D02*
X137501404Y-95621880D01*
X137882357Y-95621880D01*
X137977595Y-95669500D01*
X138025214Y-95717119D01*
X138072833Y-95812357D01*
X138072833Y-95955214D01*
X138025214Y-96050452D01*
X137977595Y-96098071D01*
X137882357Y-96145690D01*
X137501404Y-96145690D01*
X138406166Y-95621880D02*
X139025214Y-95621880D01*
X138691880Y-96002833D01*
X138834738Y-96002833D01*
X138929976Y-96050452D01*
X138977595Y-96098071D01*
X139025214Y-96193309D01*
X139025214Y-96431404D01*
X138977595Y-96526642D01*
X138929976Y-96574261D01*
X138834738Y-96621880D01*
X138549023Y-96621880D01*
X138453785Y-96574261D01*
X138406166Y-96526642D01*
X138072833Y-97640380D02*
X137739500Y-97164190D01*
X137501404Y-97640380D02*
X137501404Y-96640380D01*
X137882357Y-96640380D01*
X137977595Y-96688000D01*
X138025214Y-96735619D01*
X138072833Y-96830857D01*
X138072833Y-96973714D01*
X138025214Y-97068952D01*
X137977595Y-97116571D01*
X137882357Y-97164190D01*
X137501404Y-97164190D01*
X139025214Y-97640380D02*
X138453785Y-97640380D01*
X138739500Y-97640380D02*
X138739500Y-96640380D01*
X138644261Y-96783238D01*
X138549023Y-96878476D01*
X138453785Y-96926095D01*
X138273619Y-68909238D02*
X138226000Y-69004476D01*
X138130761Y-69099714D01*
X137987904Y-69242571D01*
X137940285Y-69337809D01*
X137940285Y-69433047D01*
X138178380Y-69385428D02*
X138130761Y-69480666D01*
X138035523Y-69575904D01*
X137845047Y-69623523D01*
X137511714Y-69623523D01*
X137321238Y-69575904D01*
X137226000Y-69480666D01*
X137178380Y-69385428D01*
X137178380Y-69194952D01*
X137226000Y-69099714D01*
X137321238Y-69004476D01*
X137511714Y-68956857D01*
X137845047Y-68956857D01*
X138035523Y-69004476D01*
X138130761Y-69099714D01*
X138178380Y-69194952D01*
X138178380Y-69385428D01*
X137273619Y-68575904D02*
X137226000Y-68528285D01*
X137178380Y-68433047D01*
X137178380Y-68194952D01*
X137226000Y-68099714D01*
X137273619Y-68052095D01*
X137368857Y-68004476D01*
X137464095Y-68004476D01*
X137606952Y-68052095D01*
X138178380Y-68623523D01*
X138178380Y-68004476D01*
X119094261Y-83386119D02*
X118999023Y-83338500D01*
X118903785Y-83243261D01*
X118760928Y-83100404D01*
X118665690Y-83052785D01*
X118570452Y-83052785D01*
X118618071Y-83290880D02*
X118522833Y-83243261D01*
X118427595Y-83148023D01*
X118379976Y-82957547D01*
X118379976Y-82624214D01*
X118427595Y-82433738D01*
X118522833Y-82338500D01*
X118618071Y-82290880D01*
X118808547Y-82290880D01*
X118903785Y-82338500D01*
X118999023Y-82433738D01*
X119046642Y-82624214D01*
X119046642Y-82957547D01*
X118999023Y-83148023D01*
X118903785Y-83243261D01*
X118808547Y-83290880D01*
X118618071Y-83290880D01*
X119999023Y-83290880D02*
X119427595Y-83290880D01*
X119713309Y-83290880D02*
X119713309Y-82290880D01*
X119618071Y-82433738D01*
X119522833Y-82528976D01*
X119427595Y-82576595D01*
X126916666Y-56702380D02*
X126916666Y-57416666D01*
X126869047Y-57559523D01*
X126773809Y-57654761D01*
X126630952Y-57702380D01*
X126535714Y-57702380D01*
X127345238Y-56797619D02*
X127392857Y-56750000D01*
X127488095Y-56702380D01*
X127726190Y-56702380D01*
X127821428Y-56750000D01*
X127869047Y-56797619D01*
X127916666Y-56892857D01*
X127916666Y-56988095D01*
X127869047Y-57130952D01*
X127297619Y-57702380D01*
X127916666Y-57702380D01*
X125214285Y-52928571D02*
X124880952Y-52928571D01*
X124880952Y-53452380D02*
X124880952Y-52452380D01*
X125357142Y-52452380D01*
X126309523Y-53452380D02*
X125976190Y-52976190D01*
X125738095Y-53452380D02*
X125738095Y-52452380D01*
X126119047Y-52452380D01*
X126214285Y-52500000D01*
X126261904Y-52547619D01*
X126309523Y-52642857D01*
X126309523Y-52785714D01*
X126261904Y-52880952D01*
X126214285Y-52928571D01*
X126119047Y-52976190D01*
X125738095Y-52976190D01*
X126928571Y-52452380D02*
X127119047Y-52452380D01*
X127214285Y-52500000D01*
X127309523Y-52595238D01*
X127357142Y-52785714D01*
X127357142Y-53119047D01*
X127309523Y-53309523D01*
X127214285Y-53404761D01*
X127119047Y-53452380D01*
X126928571Y-53452380D01*
X126833333Y-53404761D01*
X126738095Y-53309523D01*
X126690476Y-53119047D01*
X126690476Y-52785714D01*
X126738095Y-52595238D01*
X126833333Y-52500000D01*
X126928571Y-52452380D01*
X127785714Y-53452380D02*
X127785714Y-52452380D01*
X128357142Y-53452380D01*
X128357142Y-52452380D01*
X128690476Y-52452380D02*
X129261904Y-52452380D01*
X128976190Y-53452380D02*
X128976190Y-52452380D01*
X112899866Y-64241371D02*
X112566533Y-64241371D01*
X112566533Y-64765180D02*
X112566533Y-63765180D01*
X113042723Y-63765180D01*
X113947485Y-64765180D02*
X113376057Y-64765180D01*
X113661771Y-64765180D02*
X113661771Y-63765180D01*
X113566533Y-63908038D01*
X113471295Y-64003276D01*
X113376057Y-64050895D01*
X145486380Y-79376495D02*
X144486380Y-79376495D01*
X144486380Y-79138400D01*
X144534000Y-78995542D01*
X144629238Y-78900304D01*
X144724476Y-78852685D01*
X144914952Y-78805066D01*
X145057809Y-78805066D01*
X145248285Y-78852685D01*
X145343523Y-78900304D01*
X145438761Y-78995542D01*
X145486380Y-79138400D01*
X145486380Y-79376495D01*
X144914952Y-78233638D02*
X144867333Y-78328876D01*
X144819714Y-78376495D01*
X144724476Y-78424114D01*
X144676857Y-78424114D01*
X144581619Y-78376495D01*
X144534000Y-78328876D01*
X144486380Y-78233638D01*
X144486380Y-78043161D01*
X144534000Y-77947923D01*
X144581619Y-77900304D01*
X144676857Y-77852685D01*
X144724476Y-77852685D01*
X144819714Y-77900304D01*
X144867333Y-77947923D01*
X144914952Y-78043161D01*
X144914952Y-78233638D01*
X144962571Y-78328876D01*
X145010190Y-78376495D01*
X145105428Y-78424114D01*
X145295904Y-78424114D01*
X145391142Y-78376495D01*
X145438761Y-78328876D01*
X145486380Y-78233638D01*
X145486380Y-78043161D01*
X145438761Y-77947923D01*
X145391142Y-77900304D01*
X145295904Y-77852685D01*
X145105428Y-77852685D01*
X145010190Y-77900304D01*
X144962571Y-77947923D01*
X144914952Y-78043161D01*
X124372380Y-73636095D02*
X123372380Y-73636095D01*
X123372380Y-73398000D01*
X123420000Y-73255142D01*
X123515238Y-73159904D01*
X123610476Y-73112285D01*
X123800952Y-73064666D01*
X123943809Y-73064666D01*
X124134285Y-73112285D01*
X124229523Y-73159904D01*
X124324761Y-73255142D01*
X124372380Y-73398000D01*
X124372380Y-73636095D01*
X123372380Y-72731333D02*
X123372380Y-72064666D01*
X124372380Y-72493238D01*
X117832380Y-73636095D02*
X116832380Y-73636095D01*
X116832380Y-73398000D01*
X116880000Y-73255142D01*
X116975238Y-73159904D01*
X117070476Y-73112285D01*
X117260952Y-73064666D01*
X117403809Y-73064666D01*
X117594285Y-73112285D01*
X117689523Y-73159904D01*
X117784761Y-73255142D01*
X117832380Y-73398000D01*
X117832380Y-73636095D01*
X116832380Y-72207523D02*
X116832380Y-72398000D01*
X116880000Y-72493238D01*
X116927619Y-72540857D01*
X117070476Y-72636095D01*
X117260952Y-72683714D01*
X117641904Y-72683714D01*
X117737142Y-72636095D01*
X117784761Y-72588476D01*
X117832380Y-72493238D01*
X117832380Y-72302761D01*
X117784761Y-72207523D01*
X117737142Y-72159904D01*
X117641904Y-72112285D01*
X117403809Y-72112285D01*
X117308571Y-72159904D01*
X117260952Y-72207523D01*
X117213333Y-72302761D01*
X117213333Y-72493238D01*
X117260952Y-72588476D01*
X117308571Y-72636095D01*
X117403809Y-72683714D01*
X119292380Y-73636095D02*
X118292380Y-73636095D01*
X118292380Y-73398000D01*
X118340000Y-73255142D01*
X118435238Y-73159904D01*
X118530476Y-73112285D01*
X118720952Y-73064666D01*
X118863809Y-73064666D01*
X119054285Y-73112285D01*
X119149523Y-73159904D01*
X119244761Y-73255142D01*
X119292380Y-73398000D01*
X119292380Y-73636095D01*
X118292380Y-72731333D02*
X118292380Y-72112285D01*
X118673333Y-72445619D01*
X118673333Y-72302761D01*
X118720952Y-72207523D01*
X118768571Y-72159904D01*
X118863809Y-72112285D01*
X119101904Y-72112285D01*
X119197142Y-72159904D01*
X119244761Y-72207523D01*
X119292380Y-72302761D01*
X119292380Y-72588476D01*
X119244761Y-72683714D01*
X119197142Y-72731333D01*
X111737380Y-108053095D02*
X110737380Y-108053095D01*
X110737380Y-107815000D01*
X110785000Y-107672142D01*
X110880238Y-107576904D01*
X110975476Y-107529285D01*
X111165952Y-107481666D01*
X111308809Y-107481666D01*
X111499285Y-107529285D01*
X111594523Y-107576904D01*
X111689761Y-107672142D01*
X111737380Y-107815000D01*
X111737380Y-108053095D01*
X110832619Y-107100714D02*
X110785000Y-107053095D01*
X110737380Y-106957857D01*
X110737380Y-106719761D01*
X110785000Y-106624523D01*
X110832619Y-106576904D01*
X110927857Y-106529285D01*
X111023095Y-106529285D01*
X111165952Y-106576904D01*
X111737380Y-107148333D01*
X111737380Y-106529285D01*
X111737380Y-111609095D02*
X110737380Y-111609095D01*
X110737380Y-111371000D01*
X110785000Y-111228142D01*
X110880238Y-111132904D01*
X110975476Y-111085285D01*
X111165952Y-111037666D01*
X111308809Y-111037666D01*
X111499285Y-111085285D01*
X111594523Y-111132904D01*
X111689761Y-111228142D01*
X111737380Y-111371000D01*
X111737380Y-111609095D01*
X111737380Y-110085285D02*
X111737380Y-110656714D01*
X111737380Y-110371000D02*
X110737380Y-110371000D01*
X110880238Y-110466238D01*
X110975476Y-110561476D01*
X111023095Y-110656714D01*
X124579142Y-98561142D02*
X124531523Y-98608761D01*
X124388666Y-98656380D01*
X124293428Y-98656380D01*
X124150571Y-98608761D01*
X124055333Y-98513523D01*
X124007714Y-98418285D01*
X123960095Y-98227809D01*
X123960095Y-98084952D01*
X124007714Y-97894476D01*
X124055333Y-97799238D01*
X124150571Y-97704000D01*
X124293428Y-97656380D01*
X124388666Y-97656380D01*
X124531523Y-97704000D01*
X124579142Y-97751619D01*
X124912476Y-97656380D02*
X125531523Y-97656380D01*
X125198190Y-98037333D01*
X125341047Y-98037333D01*
X125436285Y-98084952D01*
X125483904Y-98132571D01*
X125531523Y-98227809D01*
X125531523Y-98465904D01*
X125483904Y-98561142D01*
X125436285Y-98608761D01*
X125341047Y-98656380D01*
X125055333Y-98656380D01*
X124960095Y-98608761D01*
X124912476Y-98561142D01*
X126388666Y-97656380D02*
X126198190Y-97656380D01*
X126102952Y-97704000D01*
X126055333Y-97751619D01*
X125960095Y-97894476D01*
X125912476Y-98084952D01*
X125912476Y-98465904D01*
X125960095Y-98561142D01*
X126007714Y-98608761D01*
X126102952Y-98656380D01*
X126293428Y-98656380D01*
X126388666Y-98608761D01*
X126436285Y-98561142D01*
X126483904Y-98465904D01*
X126483904Y-98227809D01*
X126436285Y-98132571D01*
X126388666Y-98084952D01*
X126293428Y-98037333D01*
X126102952Y-98037333D01*
X126007714Y-98084952D01*
X125960095Y-98132571D01*
X125912476Y-98227809D01*
X126622142Y-83954857D02*
X126669761Y-84002476D01*
X126717380Y-84145333D01*
X126717380Y-84240571D01*
X126669761Y-84383428D01*
X126574523Y-84478666D01*
X126479285Y-84526285D01*
X126288809Y-84573904D01*
X126145952Y-84573904D01*
X125955476Y-84526285D01*
X125860238Y-84478666D01*
X125765000Y-84383428D01*
X125717380Y-84240571D01*
X125717380Y-84145333D01*
X125765000Y-84002476D01*
X125812619Y-83954857D01*
X125717380Y-83621523D02*
X125717380Y-83002476D01*
X126098333Y-83335809D01*
X126098333Y-83192952D01*
X126145952Y-83097714D01*
X126193571Y-83050095D01*
X126288809Y-83002476D01*
X126526904Y-83002476D01*
X126622142Y-83050095D01*
X126669761Y-83097714D01*
X126717380Y-83192952D01*
X126717380Y-83478666D01*
X126669761Y-83573904D01*
X126622142Y-83621523D01*
X126050714Y-82145333D02*
X126717380Y-82145333D01*
X125669761Y-82383428D02*
X126384047Y-82621523D01*
X126384047Y-82002476D01*
X123285542Y-99855257D02*
X123333161Y-99902876D01*
X123380780Y-100045733D01*
X123380780Y-100140971D01*
X123333161Y-100283828D01*
X123237923Y-100379066D01*
X123142685Y-100426685D01*
X122952209Y-100474304D01*
X122809352Y-100474304D01*
X122618876Y-100426685D01*
X122523638Y-100379066D01*
X122428400Y-100283828D01*
X122380780Y-100140971D01*
X122380780Y-100045733D01*
X122428400Y-99902876D01*
X122476019Y-99855257D01*
X122380780Y-99521923D02*
X122380780Y-98902876D01*
X122761733Y-99236209D01*
X122761733Y-99093352D01*
X122809352Y-98998114D01*
X122856971Y-98950495D01*
X122952209Y-98902876D01*
X123190304Y-98902876D01*
X123285542Y-98950495D01*
X123333161Y-98998114D01*
X123380780Y-99093352D01*
X123380780Y-99379066D01*
X123333161Y-99474304D01*
X123285542Y-99521923D01*
X122380780Y-98569542D02*
X122380780Y-97950495D01*
X122761733Y-98283828D01*
X122761733Y-98140971D01*
X122809352Y-98045733D01*
X122856971Y-97998114D01*
X122952209Y-97950495D01*
X123190304Y-97950495D01*
X123285542Y-97998114D01*
X123333161Y-98045733D01*
X123380780Y-98140971D01*
X123380780Y-98426685D01*
X123333161Y-98521923D01*
X123285542Y-98569542D01*
X143201642Y-79573357D02*
X143249261Y-79620976D01*
X143296880Y-79763833D01*
X143296880Y-79859071D01*
X143249261Y-80001928D01*
X143154023Y-80097166D01*
X143058785Y-80144785D01*
X142868309Y-80192404D01*
X142725452Y-80192404D01*
X142534976Y-80144785D01*
X142439738Y-80097166D01*
X142344500Y-80001928D01*
X142296880Y-79859071D01*
X142296880Y-79763833D01*
X142344500Y-79620976D01*
X142392119Y-79573357D01*
X142296880Y-79240023D02*
X142296880Y-78620976D01*
X142677833Y-78954309D01*
X142677833Y-78811452D01*
X142725452Y-78716214D01*
X142773071Y-78668595D01*
X142868309Y-78620976D01*
X143106404Y-78620976D01*
X143201642Y-78668595D01*
X143249261Y-78716214D01*
X143296880Y-78811452D01*
X143296880Y-79097166D01*
X143249261Y-79192404D01*
X143201642Y-79240023D01*
X142392119Y-78240023D02*
X142344500Y-78192404D01*
X142296880Y-78097166D01*
X142296880Y-77859071D01*
X142344500Y-77763833D01*
X142392119Y-77716214D01*
X142487357Y-77668595D01*
X142582595Y-77668595D01*
X142725452Y-77716214D01*
X143296880Y-78287642D01*
X143296880Y-77668595D01*
X127881142Y-94745142D02*
X127833523Y-94792761D01*
X127690666Y-94840380D01*
X127595428Y-94840380D01*
X127452571Y-94792761D01*
X127357333Y-94697523D01*
X127309714Y-94602285D01*
X127262095Y-94411809D01*
X127262095Y-94268952D01*
X127309714Y-94078476D01*
X127357333Y-93983238D01*
X127452571Y-93888000D01*
X127595428Y-93840380D01*
X127690666Y-93840380D01*
X127833523Y-93888000D01*
X127881142Y-93935619D01*
X128214476Y-93840380D02*
X128833523Y-93840380D01*
X128500190Y-94221333D01*
X128643047Y-94221333D01*
X128738285Y-94268952D01*
X128785904Y-94316571D01*
X128833523Y-94411809D01*
X128833523Y-94649904D01*
X128785904Y-94745142D01*
X128738285Y-94792761D01*
X128643047Y-94840380D01*
X128357333Y-94840380D01*
X128262095Y-94792761D01*
X128214476Y-94745142D01*
X129785904Y-94840380D02*
X129214476Y-94840380D01*
X129500190Y-94840380D02*
X129500190Y-93840380D01*
X129404952Y-93983238D01*
X129309714Y-94078476D01*
X129214476Y-94126095D01*
X112340642Y-101353857D02*
X112388261Y-101401476D01*
X112435880Y-101544333D01*
X112435880Y-101639571D01*
X112388261Y-101782428D01*
X112293023Y-101877666D01*
X112197785Y-101925285D01*
X112007309Y-101972904D01*
X111864452Y-101972904D01*
X111673976Y-101925285D01*
X111578738Y-101877666D01*
X111483500Y-101782428D01*
X111435880Y-101639571D01*
X111435880Y-101544333D01*
X111483500Y-101401476D01*
X111531119Y-101353857D01*
X111435880Y-101020523D02*
X111435880Y-100401476D01*
X111816833Y-100734809D01*
X111816833Y-100591952D01*
X111864452Y-100496714D01*
X111912071Y-100449095D01*
X112007309Y-100401476D01*
X112245404Y-100401476D01*
X112340642Y-100449095D01*
X112388261Y-100496714D01*
X112435880Y-100591952D01*
X112435880Y-100877666D01*
X112388261Y-100972904D01*
X112340642Y-101020523D01*
X111435880Y-99782428D02*
X111435880Y-99687190D01*
X111483500Y-99591952D01*
X111531119Y-99544333D01*
X111626357Y-99496714D01*
X111816833Y-99449095D01*
X112054928Y-99449095D01*
X112245404Y-99496714D01*
X112340642Y-99544333D01*
X112388261Y-99591952D01*
X112435880Y-99687190D01*
X112435880Y-99782428D01*
X112388261Y-99877666D01*
X112340642Y-99925285D01*
X112245404Y-99972904D01*
X112054928Y-100020523D01*
X111816833Y-100020523D01*
X111626357Y-99972904D01*
X111531119Y-99925285D01*
X111483500Y-99877666D01*
X111435880Y-99782428D01*
X113991642Y-101353857D02*
X114039261Y-101401476D01*
X114086880Y-101544333D01*
X114086880Y-101639571D01*
X114039261Y-101782428D01*
X113944023Y-101877666D01*
X113848785Y-101925285D01*
X113658309Y-101972904D01*
X113515452Y-101972904D01*
X113324976Y-101925285D01*
X113229738Y-101877666D01*
X113134500Y-101782428D01*
X113086880Y-101639571D01*
X113086880Y-101544333D01*
X113134500Y-101401476D01*
X113182119Y-101353857D01*
X113182119Y-100972904D02*
X113134500Y-100925285D01*
X113086880Y-100830047D01*
X113086880Y-100591952D01*
X113134500Y-100496714D01*
X113182119Y-100449095D01*
X113277357Y-100401476D01*
X113372595Y-100401476D01*
X113515452Y-100449095D01*
X114086880Y-101020523D01*
X114086880Y-100401476D01*
X114086880Y-99925285D02*
X114086880Y-99734809D01*
X114039261Y-99639571D01*
X113991642Y-99591952D01*
X113848785Y-99496714D01*
X113658309Y-99449095D01*
X113277357Y-99449095D01*
X113182119Y-99496714D01*
X113134500Y-99544333D01*
X113086880Y-99639571D01*
X113086880Y-99830047D01*
X113134500Y-99925285D01*
X113182119Y-99972904D01*
X113277357Y-100020523D01*
X113515452Y-100020523D01*
X113610690Y-99972904D01*
X113658309Y-99925285D01*
X113705928Y-99830047D01*
X113705928Y-99639571D01*
X113658309Y-99544333D01*
X113610690Y-99496714D01*
X113515452Y-99449095D01*
X113911142Y-98939642D02*
X113863523Y-98987261D01*
X113720666Y-99034880D01*
X113625428Y-99034880D01*
X113482571Y-98987261D01*
X113387333Y-98892023D01*
X113339714Y-98796785D01*
X113292095Y-98606309D01*
X113292095Y-98463452D01*
X113339714Y-98272976D01*
X113387333Y-98177738D01*
X113482571Y-98082500D01*
X113625428Y-98034880D01*
X113720666Y-98034880D01*
X113863523Y-98082500D01*
X113911142Y-98130119D01*
X114292095Y-98130119D02*
X114339714Y-98082500D01*
X114434952Y-98034880D01*
X114673047Y-98034880D01*
X114768285Y-98082500D01*
X114815904Y-98130119D01*
X114863523Y-98225357D01*
X114863523Y-98320595D01*
X114815904Y-98463452D01*
X114244476Y-99034880D01*
X114863523Y-99034880D01*
X115434952Y-98463452D02*
X115339714Y-98415833D01*
X115292095Y-98368214D01*
X115244476Y-98272976D01*
X115244476Y-98225357D01*
X115292095Y-98130119D01*
X115339714Y-98082500D01*
X115434952Y-98034880D01*
X115625428Y-98034880D01*
X115720666Y-98082500D01*
X115768285Y-98130119D01*
X115815904Y-98225357D01*
X115815904Y-98272976D01*
X115768285Y-98368214D01*
X115720666Y-98415833D01*
X115625428Y-98463452D01*
X115434952Y-98463452D01*
X115339714Y-98511071D01*
X115292095Y-98558690D01*
X115244476Y-98653928D01*
X115244476Y-98844404D01*
X115292095Y-98939642D01*
X115339714Y-98987261D01*
X115434952Y-99034880D01*
X115625428Y-99034880D01*
X115720666Y-98987261D01*
X115768285Y-98939642D01*
X115815904Y-98844404D01*
X115815904Y-98653928D01*
X115768285Y-98558690D01*
X115720666Y-98511071D01*
X115625428Y-98463452D01*
X113761142Y-97802642D02*
X113713523Y-97850261D01*
X113570666Y-97897880D01*
X113475428Y-97897880D01*
X113332571Y-97850261D01*
X113237333Y-97755023D01*
X113189714Y-97659785D01*
X113142095Y-97469309D01*
X113142095Y-97326452D01*
X113189714Y-97135976D01*
X113237333Y-97040738D01*
X113332571Y-96945500D01*
X113475428Y-96897880D01*
X113570666Y-96897880D01*
X113713523Y-96945500D01*
X113761142Y-96993119D01*
X114142095Y-96993119D02*
X114189714Y-96945500D01*
X114284952Y-96897880D01*
X114523047Y-96897880D01*
X114618285Y-96945500D01*
X114665904Y-96993119D01*
X114713523Y-97088357D01*
X114713523Y-97183595D01*
X114665904Y-97326452D01*
X114094476Y-97897880D01*
X114713523Y-97897880D01*
X115046857Y-96897880D02*
X115713523Y-96897880D01*
X115284952Y-97897880D01*
X112133142Y-93929142D02*
X112085523Y-93976761D01*
X111942666Y-94024380D01*
X111847428Y-94024380D01*
X111704571Y-93976761D01*
X111609333Y-93881523D01*
X111561714Y-93786285D01*
X111514095Y-93595809D01*
X111514095Y-93452952D01*
X111561714Y-93262476D01*
X111609333Y-93167238D01*
X111704571Y-93072000D01*
X111847428Y-93024380D01*
X111942666Y-93024380D01*
X112085523Y-93072000D01*
X112133142Y-93119619D01*
X112514095Y-93119619D02*
X112561714Y-93072000D01*
X112656952Y-93024380D01*
X112895047Y-93024380D01*
X112990285Y-93072000D01*
X113037904Y-93119619D01*
X113085523Y-93214857D01*
X113085523Y-93310095D01*
X113037904Y-93452952D01*
X112466476Y-94024380D01*
X113085523Y-94024380D01*
X113942666Y-93024380D02*
X113752190Y-93024380D01*
X113656952Y-93072000D01*
X113609333Y-93119619D01*
X113514095Y-93262476D01*
X113466476Y-93452952D01*
X113466476Y-93833904D01*
X113514095Y-93929142D01*
X113561714Y-93976761D01*
X113656952Y-94024380D01*
X113847428Y-94024380D01*
X113942666Y-93976761D01*
X113990285Y-93929142D01*
X114037904Y-93833904D01*
X114037904Y-93595809D01*
X113990285Y-93500571D01*
X113942666Y-93452952D01*
X113847428Y-93405333D01*
X113656952Y-93405333D01*
X113561714Y-93452952D01*
X113514095Y-93500571D01*
X113466476Y-93595809D01*
X109466142Y-96275142D02*
X109418523Y-96322761D01*
X109275666Y-96370380D01*
X109180428Y-96370380D01*
X109037571Y-96322761D01*
X108942333Y-96227523D01*
X108894714Y-96132285D01*
X108847095Y-95941809D01*
X108847095Y-95798952D01*
X108894714Y-95608476D01*
X108942333Y-95513238D01*
X109037571Y-95418000D01*
X109180428Y-95370380D01*
X109275666Y-95370380D01*
X109418523Y-95418000D01*
X109466142Y-95465619D01*
X109847095Y-95465619D02*
X109894714Y-95418000D01*
X109989952Y-95370380D01*
X110228047Y-95370380D01*
X110323285Y-95418000D01*
X110370904Y-95465619D01*
X110418523Y-95560857D01*
X110418523Y-95656095D01*
X110370904Y-95798952D01*
X109799476Y-96370380D01*
X110418523Y-96370380D01*
X111323285Y-95370380D02*
X110847095Y-95370380D01*
X110799476Y-95846571D01*
X110847095Y-95798952D01*
X110942333Y-95751333D01*
X111180428Y-95751333D01*
X111275666Y-95798952D01*
X111323285Y-95846571D01*
X111370904Y-95941809D01*
X111370904Y-96179904D01*
X111323285Y-96275142D01*
X111275666Y-96322761D01*
X111180428Y-96370380D01*
X110942333Y-96370380D01*
X110847095Y-96322761D01*
X110799476Y-96275142D01*
X109466142Y-94624142D02*
X109418523Y-94671761D01*
X109275666Y-94719380D01*
X109180428Y-94719380D01*
X109037571Y-94671761D01*
X108942333Y-94576523D01*
X108894714Y-94481285D01*
X108847095Y-94290809D01*
X108847095Y-94147952D01*
X108894714Y-93957476D01*
X108942333Y-93862238D01*
X109037571Y-93767000D01*
X109180428Y-93719380D01*
X109275666Y-93719380D01*
X109418523Y-93767000D01*
X109466142Y-93814619D01*
X109847095Y-93814619D02*
X109894714Y-93767000D01*
X109989952Y-93719380D01*
X110228047Y-93719380D01*
X110323285Y-93767000D01*
X110370904Y-93814619D01*
X110418523Y-93909857D01*
X110418523Y-94005095D01*
X110370904Y-94147952D01*
X109799476Y-94719380D01*
X110418523Y-94719380D01*
X111275666Y-94052714D02*
X111275666Y-94719380D01*
X111037571Y-93671761D02*
X110799476Y-94386047D01*
X111418523Y-94386047D01*
X109466142Y-92973142D02*
X109418523Y-93020761D01*
X109275666Y-93068380D01*
X109180428Y-93068380D01*
X109037571Y-93020761D01*
X108942333Y-92925523D01*
X108894714Y-92830285D01*
X108847095Y-92639809D01*
X108847095Y-92496952D01*
X108894714Y-92306476D01*
X108942333Y-92211238D01*
X109037571Y-92116000D01*
X109180428Y-92068380D01*
X109275666Y-92068380D01*
X109418523Y-92116000D01*
X109466142Y-92163619D01*
X109847095Y-92163619D02*
X109894714Y-92116000D01*
X109989952Y-92068380D01*
X110228047Y-92068380D01*
X110323285Y-92116000D01*
X110370904Y-92163619D01*
X110418523Y-92258857D01*
X110418523Y-92354095D01*
X110370904Y-92496952D01*
X109799476Y-93068380D01*
X110418523Y-93068380D01*
X110751857Y-92068380D02*
X111370904Y-92068380D01*
X111037571Y-92449333D01*
X111180428Y-92449333D01*
X111275666Y-92496952D01*
X111323285Y-92544571D01*
X111370904Y-92639809D01*
X111370904Y-92877904D01*
X111323285Y-92973142D01*
X111275666Y-93020761D01*
X111180428Y-93068380D01*
X110894714Y-93068380D01*
X110799476Y-93020761D01*
X110751857Y-92973142D01*
X120769142Y-85480142D02*
X120721523Y-85527761D01*
X120578666Y-85575380D01*
X120483428Y-85575380D01*
X120340571Y-85527761D01*
X120245333Y-85432523D01*
X120197714Y-85337285D01*
X120150095Y-85146809D01*
X120150095Y-85003952D01*
X120197714Y-84813476D01*
X120245333Y-84718238D01*
X120340571Y-84623000D01*
X120483428Y-84575380D01*
X120578666Y-84575380D01*
X120721523Y-84623000D01*
X120769142Y-84670619D01*
X121150095Y-84670619D02*
X121197714Y-84623000D01*
X121292952Y-84575380D01*
X121531047Y-84575380D01*
X121626285Y-84623000D01*
X121673904Y-84670619D01*
X121721523Y-84765857D01*
X121721523Y-84861095D01*
X121673904Y-85003952D01*
X121102476Y-85575380D01*
X121721523Y-85575380D01*
X122102476Y-84670619D02*
X122150095Y-84623000D01*
X122245333Y-84575380D01*
X122483428Y-84575380D01*
X122578666Y-84623000D01*
X122626285Y-84670619D01*
X122673904Y-84765857D01*
X122673904Y-84861095D01*
X122626285Y-85003952D01*
X122054857Y-85575380D01*
X122673904Y-85575380D01*
X120769142Y-87131142D02*
X120721523Y-87178761D01*
X120578666Y-87226380D01*
X120483428Y-87226380D01*
X120340571Y-87178761D01*
X120245333Y-87083523D01*
X120197714Y-86988285D01*
X120150095Y-86797809D01*
X120150095Y-86654952D01*
X120197714Y-86464476D01*
X120245333Y-86369238D01*
X120340571Y-86274000D01*
X120483428Y-86226380D01*
X120578666Y-86226380D01*
X120721523Y-86274000D01*
X120769142Y-86321619D01*
X121150095Y-86321619D02*
X121197714Y-86274000D01*
X121292952Y-86226380D01*
X121531047Y-86226380D01*
X121626285Y-86274000D01*
X121673904Y-86321619D01*
X121721523Y-86416857D01*
X121721523Y-86512095D01*
X121673904Y-86654952D01*
X121102476Y-87226380D01*
X121721523Y-87226380D01*
X122673904Y-87226380D02*
X122102476Y-87226380D01*
X122388190Y-87226380D02*
X122388190Y-86226380D01*
X122292952Y-86369238D01*
X122197714Y-86464476D01*
X122102476Y-86512095D01*
X117155142Y-85986857D02*
X117202761Y-86034476D01*
X117250380Y-86177333D01*
X117250380Y-86272571D01*
X117202761Y-86415428D01*
X117107523Y-86510666D01*
X117012285Y-86558285D01*
X116821809Y-86605904D01*
X116678952Y-86605904D01*
X116488476Y-86558285D01*
X116393238Y-86510666D01*
X116298000Y-86415428D01*
X116250380Y-86272571D01*
X116250380Y-86177333D01*
X116298000Y-86034476D01*
X116345619Y-85986857D01*
X116345619Y-85605904D02*
X116298000Y-85558285D01*
X116250380Y-85463047D01*
X116250380Y-85224952D01*
X116298000Y-85129714D01*
X116345619Y-85082095D01*
X116440857Y-85034476D01*
X116536095Y-85034476D01*
X116678952Y-85082095D01*
X117250380Y-85653523D01*
X117250380Y-85034476D01*
X116250380Y-84415428D02*
X116250380Y-84320190D01*
X116298000Y-84224952D01*
X116345619Y-84177333D01*
X116440857Y-84129714D01*
X116631333Y-84082095D01*
X116869428Y-84082095D01*
X117059904Y-84129714D01*
X117155142Y-84177333D01*
X117202761Y-84224952D01*
X117250380Y-84320190D01*
X117250380Y-84415428D01*
X117202761Y-84510666D01*
X117155142Y-84558285D01*
X117059904Y-84605904D01*
X116869428Y-84653523D01*
X116631333Y-84653523D01*
X116440857Y-84605904D01*
X116345619Y-84558285D01*
X116298000Y-84510666D01*
X116250380Y-84415428D01*
X124097142Y-68206857D02*
X124144761Y-68254476D01*
X124192380Y-68397333D01*
X124192380Y-68492571D01*
X124144761Y-68635428D01*
X124049523Y-68730666D01*
X123954285Y-68778285D01*
X123763809Y-68825904D01*
X123620952Y-68825904D01*
X123430476Y-68778285D01*
X123335238Y-68730666D01*
X123240000Y-68635428D01*
X123192380Y-68492571D01*
X123192380Y-68397333D01*
X123240000Y-68254476D01*
X123287619Y-68206857D01*
X124192380Y-67254476D02*
X124192380Y-67825904D01*
X124192380Y-67540190D02*
X123192380Y-67540190D01*
X123335238Y-67635428D01*
X123430476Y-67730666D01*
X123478095Y-67825904D01*
X123192380Y-66921142D02*
X123192380Y-66254476D01*
X124192380Y-66683047D01*
X121557142Y-68206857D02*
X121604761Y-68254476D01*
X121652380Y-68397333D01*
X121652380Y-68492571D01*
X121604761Y-68635428D01*
X121509523Y-68730666D01*
X121414285Y-68778285D01*
X121223809Y-68825904D01*
X121080952Y-68825904D01*
X120890476Y-68778285D01*
X120795238Y-68730666D01*
X120700000Y-68635428D01*
X120652380Y-68492571D01*
X120652380Y-68397333D01*
X120700000Y-68254476D01*
X120747619Y-68206857D01*
X121652380Y-67254476D02*
X121652380Y-67825904D01*
X121652380Y-67540190D02*
X120652380Y-67540190D01*
X120795238Y-67635428D01*
X120890476Y-67730666D01*
X120938095Y-67825904D01*
X120652380Y-66397333D02*
X120652380Y-66587809D01*
X120700000Y-66683047D01*
X120747619Y-66730666D01*
X120890476Y-66825904D01*
X121080952Y-66873523D01*
X121461904Y-66873523D01*
X121557142Y-66825904D01*
X121604761Y-66778285D01*
X121652380Y-66683047D01*
X121652380Y-66492571D01*
X121604761Y-66397333D01*
X121557142Y-66349714D01*
X121461904Y-66302095D01*
X121223809Y-66302095D01*
X121128571Y-66349714D01*
X121080952Y-66397333D01*
X121033333Y-66492571D01*
X121033333Y-66683047D01*
X121080952Y-66778285D01*
X121128571Y-66825904D01*
X121223809Y-66873523D01*
X119017142Y-68206857D02*
X119064761Y-68254476D01*
X119112380Y-68397333D01*
X119112380Y-68492571D01*
X119064761Y-68635428D01*
X118969523Y-68730666D01*
X118874285Y-68778285D01*
X118683809Y-68825904D01*
X118540952Y-68825904D01*
X118350476Y-68778285D01*
X118255238Y-68730666D01*
X118160000Y-68635428D01*
X118112380Y-68492571D01*
X118112380Y-68397333D01*
X118160000Y-68254476D01*
X118207619Y-68206857D01*
X119112380Y-67254476D02*
X119112380Y-67825904D01*
X119112380Y-67540190D02*
X118112380Y-67540190D01*
X118255238Y-67635428D01*
X118350476Y-67730666D01*
X118398095Y-67825904D01*
X118112380Y-66349714D02*
X118112380Y-66825904D01*
X118588571Y-66873523D01*
X118540952Y-66825904D01*
X118493333Y-66730666D01*
X118493333Y-66492571D01*
X118540952Y-66397333D01*
X118588571Y-66349714D01*
X118683809Y-66302095D01*
X118921904Y-66302095D01*
X119017142Y-66349714D01*
X119064761Y-66397333D01*
X119112380Y-66492571D01*
X119112380Y-66730666D01*
X119064761Y-66825904D01*
X119017142Y-66873523D01*
X136707642Y-74180642D02*
X136660023Y-74228261D01*
X136517166Y-74275880D01*
X136421928Y-74275880D01*
X136279071Y-74228261D01*
X136183833Y-74133023D01*
X136136214Y-74037785D01*
X136088595Y-73847309D01*
X136088595Y-73704452D01*
X136136214Y-73513976D01*
X136183833Y-73418738D01*
X136279071Y-73323500D01*
X136421928Y-73275880D01*
X136517166Y-73275880D01*
X136660023Y-73323500D01*
X136707642Y-73371119D01*
X137660023Y-74275880D02*
X137088595Y-74275880D01*
X137374309Y-74275880D02*
X137374309Y-73275880D01*
X137279071Y-73418738D01*
X137183833Y-73513976D01*
X137088595Y-73561595D01*
X138517166Y-73609214D02*
X138517166Y-74275880D01*
X138279071Y-73228261D02*
X138040976Y-73942547D01*
X138660023Y-73942547D01*
X136707642Y-73101142D02*
X136660023Y-73148761D01*
X136517166Y-73196380D01*
X136421928Y-73196380D01*
X136279071Y-73148761D01*
X136183833Y-73053523D01*
X136136214Y-72958285D01*
X136088595Y-72767809D01*
X136088595Y-72624952D01*
X136136214Y-72434476D01*
X136183833Y-72339238D01*
X136279071Y-72244000D01*
X136421928Y-72196380D01*
X136517166Y-72196380D01*
X136660023Y-72244000D01*
X136707642Y-72291619D01*
X137660023Y-73196380D02*
X137088595Y-73196380D01*
X137374309Y-73196380D02*
X137374309Y-72196380D01*
X137279071Y-72339238D01*
X137183833Y-72434476D01*
X137088595Y-72482095D01*
X137993357Y-72196380D02*
X138612404Y-72196380D01*
X138279071Y-72577333D01*
X138421928Y-72577333D01*
X138517166Y-72624952D01*
X138564785Y-72672571D01*
X138612404Y-72767809D01*
X138612404Y-73005904D01*
X138564785Y-73101142D01*
X138517166Y-73148761D01*
X138421928Y-73196380D01*
X138136214Y-73196380D01*
X138040976Y-73148761D01*
X137993357Y-73101142D01*
X136707642Y-72021642D02*
X136660023Y-72069261D01*
X136517166Y-72116880D01*
X136421928Y-72116880D01*
X136279071Y-72069261D01*
X136183833Y-71974023D01*
X136136214Y-71878785D01*
X136088595Y-71688309D01*
X136088595Y-71545452D01*
X136136214Y-71354976D01*
X136183833Y-71259738D01*
X136279071Y-71164500D01*
X136421928Y-71116880D01*
X136517166Y-71116880D01*
X136660023Y-71164500D01*
X136707642Y-71212119D01*
X137660023Y-72116880D02*
X137088595Y-72116880D01*
X137374309Y-72116880D02*
X137374309Y-71116880D01*
X137279071Y-71259738D01*
X137183833Y-71354976D01*
X137088595Y-71402595D01*
X138040976Y-71212119D02*
X138088595Y-71164500D01*
X138183833Y-71116880D01*
X138421928Y-71116880D01*
X138517166Y-71164500D01*
X138564785Y-71212119D01*
X138612404Y-71307357D01*
X138612404Y-71402595D01*
X138564785Y-71545452D01*
X137993357Y-72116880D01*
X138612404Y-72116880D01*
X134421642Y-93859642D02*
X134374023Y-93907261D01*
X134231166Y-93954880D01*
X134135928Y-93954880D01*
X133993071Y-93907261D01*
X133897833Y-93812023D01*
X133850214Y-93716785D01*
X133802595Y-93526309D01*
X133802595Y-93383452D01*
X133850214Y-93192976D01*
X133897833Y-93097738D01*
X133993071Y-93002500D01*
X134135928Y-92954880D01*
X134231166Y-92954880D01*
X134374023Y-93002500D01*
X134421642Y-93050119D01*
X135374023Y-93954880D02*
X134802595Y-93954880D01*
X135088309Y-93954880D02*
X135088309Y-92954880D01*
X134993071Y-93097738D01*
X134897833Y-93192976D01*
X134802595Y-93240595D01*
X135993071Y-92954880D02*
X136088309Y-92954880D01*
X136183547Y-93002500D01*
X136231166Y-93050119D01*
X136278785Y-93145357D01*
X136326404Y-93335833D01*
X136326404Y-93573928D01*
X136278785Y-93764404D01*
X136231166Y-93859642D01*
X136183547Y-93907261D01*
X136088309Y-93954880D01*
X135993071Y-93954880D01*
X135897833Y-93907261D01*
X135850214Y-93859642D01*
X135802595Y-93764404D01*
X135754976Y-93573928D01*
X135754976Y-93335833D01*
X135802595Y-93145357D01*
X135850214Y-93050119D01*
X135897833Y-93002500D01*
X135993071Y-92954880D01*
X130643333Y-64967142D02*
X130595714Y-65014761D01*
X130452857Y-65062380D01*
X130357619Y-65062380D01*
X130214761Y-65014761D01*
X130119523Y-64919523D01*
X130071904Y-64824285D01*
X130024285Y-64633809D01*
X130024285Y-64490952D01*
X130071904Y-64300476D01*
X130119523Y-64205238D01*
X130214761Y-64110000D01*
X130357619Y-64062380D01*
X130452857Y-64062380D01*
X130595714Y-64110000D01*
X130643333Y-64157619D01*
X131214761Y-64490952D02*
X131119523Y-64443333D01*
X131071904Y-64395714D01*
X131024285Y-64300476D01*
X131024285Y-64252857D01*
X131071904Y-64157619D01*
X131119523Y-64110000D01*
X131214761Y-64062380D01*
X131405238Y-64062380D01*
X131500476Y-64110000D01*
X131548095Y-64157619D01*
X131595714Y-64252857D01*
X131595714Y-64300476D01*
X131548095Y-64395714D01*
X131500476Y-64443333D01*
X131405238Y-64490952D01*
X131214761Y-64490952D01*
X131119523Y-64538571D01*
X131071904Y-64586190D01*
X131024285Y-64681428D01*
X131024285Y-64871904D01*
X131071904Y-64967142D01*
X131119523Y-65014761D01*
X131214761Y-65062380D01*
X131405238Y-65062380D01*
X131500476Y-65014761D01*
X131548095Y-64967142D01*
X131595714Y-64871904D01*
X131595714Y-64681428D01*
X131548095Y-64586190D01*
X131500476Y-64538571D01*
X131405238Y-64490952D01*
X140084142Y-101957166D02*
X140131761Y-102004785D01*
X140179380Y-102147642D01*
X140179380Y-102242880D01*
X140131761Y-102385738D01*
X140036523Y-102480976D01*
X139941285Y-102528595D01*
X139750809Y-102576214D01*
X139607952Y-102576214D01*
X139417476Y-102528595D01*
X139322238Y-102480976D01*
X139227000Y-102385738D01*
X139179380Y-102242880D01*
X139179380Y-102147642D01*
X139227000Y-102004785D01*
X139274619Y-101957166D01*
X139179380Y-101100023D02*
X139179380Y-101290500D01*
X139227000Y-101385738D01*
X139274619Y-101433357D01*
X139417476Y-101528595D01*
X139607952Y-101576214D01*
X139988904Y-101576214D01*
X140084142Y-101528595D01*
X140131761Y-101480976D01*
X140179380Y-101385738D01*
X140179380Y-101195261D01*
X140131761Y-101100023D01*
X140084142Y-101052404D01*
X139988904Y-101004785D01*
X139750809Y-101004785D01*
X139655571Y-101052404D01*
X139607952Y-101100023D01*
X139560333Y-101195261D01*
X139560333Y-101385738D01*
X139607952Y-101480976D01*
X139655571Y-101528595D01*
X139750809Y-101576214D01*
X141163642Y-101957166D02*
X141211261Y-102004785D01*
X141258880Y-102147642D01*
X141258880Y-102242880D01*
X141211261Y-102385738D01*
X141116023Y-102480976D01*
X141020785Y-102528595D01*
X140830309Y-102576214D01*
X140687452Y-102576214D01*
X140496976Y-102528595D01*
X140401738Y-102480976D01*
X140306500Y-102385738D01*
X140258880Y-102242880D01*
X140258880Y-102147642D01*
X140306500Y-102004785D01*
X140354119Y-101957166D01*
X140258880Y-101052404D02*
X140258880Y-101528595D01*
X140735071Y-101576214D01*
X140687452Y-101528595D01*
X140639833Y-101433357D01*
X140639833Y-101195261D01*
X140687452Y-101100023D01*
X140735071Y-101052404D01*
X140830309Y-101004785D01*
X141068404Y-101004785D01*
X141163642Y-101052404D01*
X141211261Y-101100023D01*
X141258880Y-101195261D01*
X141258880Y-101433357D01*
X141211261Y-101528595D01*
X141163642Y-101576214D01*
X123641142Y-106592666D02*
X123688761Y-106640285D01*
X123736380Y-106783142D01*
X123736380Y-106878380D01*
X123688761Y-107021238D01*
X123593523Y-107116476D01*
X123498285Y-107164095D01*
X123307809Y-107211714D01*
X123164952Y-107211714D01*
X122974476Y-107164095D01*
X122879238Y-107116476D01*
X122784000Y-107021238D01*
X122736380Y-106878380D01*
X122736380Y-106783142D01*
X122784000Y-106640285D01*
X122831619Y-106592666D01*
X123069714Y-105735523D02*
X123736380Y-105735523D01*
X122688761Y-105973619D02*
X123403047Y-106211714D01*
X123403047Y-105592666D01*
X125332333Y-110112142D02*
X125284714Y-110159761D01*
X125141857Y-110207380D01*
X125046619Y-110207380D01*
X124903761Y-110159761D01*
X124808523Y-110064523D01*
X124760904Y-109969285D01*
X124713285Y-109778809D01*
X124713285Y-109635952D01*
X124760904Y-109445476D01*
X124808523Y-109350238D01*
X124903761Y-109255000D01*
X125046619Y-109207380D01*
X125141857Y-109207380D01*
X125284714Y-109255000D01*
X125332333Y-109302619D01*
X125665666Y-109207380D02*
X126284714Y-109207380D01*
X125951380Y-109588333D01*
X126094238Y-109588333D01*
X126189476Y-109635952D01*
X126237095Y-109683571D01*
X126284714Y-109778809D01*
X126284714Y-110016904D01*
X126237095Y-110112142D01*
X126189476Y-110159761D01*
X126094238Y-110207380D01*
X125808523Y-110207380D01*
X125713285Y-110159761D01*
X125665666Y-110112142D01*
X126960333Y-106115142D02*
X126912714Y-106162761D01*
X126769857Y-106210380D01*
X126674619Y-106210380D01*
X126531761Y-106162761D01*
X126436523Y-106067523D01*
X126388904Y-105972285D01*
X126341285Y-105781809D01*
X126341285Y-105638952D01*
X126388904Y-105448476D01*
X126436523Y-105353238D01*
X126531761Y-105258000D01*
X126674619Y-105210380D01*
X126769857Y-105210380D01*
X126912714Y-105258000D01*
X126960333Y-105305619D01*
X127912714Y-106210380D02*
X127341285Y-106210380D01*
X127627000Y-106210380D02*
X127627000Y-105210380D01*
X127531761Y-105353238D01*
X127436523Y-105448476D01*
X127341285Y-105496095D01*
M02*
