M48
; DRILL file {KiCad (5.1.6)-1} date 01/27/21 01:30:31
; FORMAT={-:-/ absolute / inch / decimal}
; #@! TF.CreationDate,2021-01-27T01:30:31-05:00
; #@! TF.GenerationSoftware,Kicad,Pcbnew,(5.1.6)-1
; #@! TF.FileFunction,Plated,1,4,PTH
FMAT,2
INCH
T1C0.0118
T2C0.0197
T3C0.0394
T4C0.0571
T5C0.0701
%
G90
G05
T1
X4.3Y-3.35
X4.3Y-3.4
X4.3Y-3.9
X4.302Y-2.75
X4.302Y-2.8
X4.302Y-2.85
X4.302Y-2.9
X4.302Y-3.1125
X4.302Y-3.15
X4.302Y-3.3
X4.3025Y-2.9425
X4.304Y-3.786
X4.305Y-2.51
X4.346Y-3.308
X4.348Y-4.294
X4.35Y-2.51
X4.35Y-2.75
X4.35Y-2.8
X4.35Y-2.85
X4.35Y-2.9
X4.35Y-2.9425
X4.354Y-3.144
X4.36Y-3.35
X4.38Y-3.102
X4.384Y-4.216
X4.384Y-4.256
X4.3891Y-2.4359
X4.396Y-3.308
X4.4Y-2.75
X4.4Y-2.8
X4.4Y-2.85
X4.4Y-2.9
X4.4Y-2.9475
X4.412Y-3.684
X4.416Y-3.126
X4.42Y-3.35
X4.42Y-3.88
X4.446Y-2.75
X4.446Y-2.8
X4.446Y-2.85
X4.446Y-2.9
X4.446Y-3.308
X4.4485Y-2.9425
X4.45Y-4.05
X4.452Y-3.634
X4.458Y-3.69
X4.46Y-3.778
X4.478Y-3.992
X4.478Y-4.094
X4.48Y-3.35
X4.482Y-3.838
X4.488Y-3.438
X4.49Y-3.394
X4.492Y-2.75
X4.492Y-2.8
X4.492Y-2.85
X4.492Y-2.9
X4.492Y-2.945
X4.5Y-3.25
X4.5Y-3.3
X4.5Y-3.6
X4.5Y-3.65
X4.5Y-3.7
X4.5Y-3.75
X4.5Y-3.802
X4.514Y-4.3
X4.514Y-4.35
X4.514Y-4.388
X4.52Y-3.47
X4.52Y-3.495
X4.522Y-3.844
X4.524Y-3.626
X4.524Y-3.676
X4.524Y-3.726
X4.524Y-3.776
X4.526Y-3.576
X4.55Y-3.47
X4.55Y-3.495
X4.55Y-3.6
X4.55Y-3.65
X4.55Y-3.7
X4.55Y-3.75
X4.55Y-3.802
X4.564Y-3.992
X4.576Y-4.304
X4.576Y-4.352
X4.578Y-3.626
X4.585Y-3.2475
X4.6Y-3.6
X4.6Y-3.95
X4.622Y-3.626
X4.624Y-3.92
X4.626Y-3.982
X4.646Y-3.6
X4.65Y-3.95
X4.666Y-3.184
X4.668Y-3.982
X4.67Y-3.244
X4.67Y-3.576
X4.67Y-3.626
X4.67Y-4.19
X4.676Y-3.92
X4.694Y-3.6
X4.7Y-3.95
X4.7Y-4.0
X4.7Y-4.05
X4.716Y-3.63
X4.718Y-3.2
X4.722Y-3.974
X4.724Y-4.024
X4.726Y-3.922
X4.726Y-4.092
X4.73Y-3.24
X4.735Y-2.9975
X4.75Y-3.95
X4.75Y-4.0
X4.75Y-4.05
X4.764Y-3.63
X4.774Y-3.922
X4.774Y-3.976
X4.774Y-4.092
X4.776Y-4.024
X4.786Y-4.202
X4.8Y-3.95
X4.8Y-4.0
X4.8Y-4.05
X4.808Y-3.63
X4.822Y-4.024
X4.824Y-3.974
X4.826Y-3.92
X4.844Y-4.044
X4.85Y-3.95
X4.85Y-4.0
X4.855Y-3.13
X4.89Y-3.1
X4.9Y-3.47
X4.918Y-4.316
X4.93Y-3.335
X4.93Y-3.844
X4.94Y-4.13
X4.97Y-2.5525
X5.008Y-3.268
X5.014Y-3.89
X5.055Y-3.53
X5.065Y-4.17
X5.08Y-2.7225
X5.08Y-3.825
X5.08Y-4.25
X5.118Y-2.842
X5.13Y-3.012
X5.155Y-2.55
X5.1625Y-3.4675
X5.1775Y-3.14
X5.185Y-2.875
X5.185Y-3.7975
X5.2Y-3.1
X5.205Y-4.1025
X5.21Y-3.92
X5.2175Y-3.9625
X5.2175Y-4.0125
X5.22Y-4.0625
X5.2425Y-3.5025
X5.25Y-3.15
X5.265Y-3.78
X5.275Y-3.445
X5.2975Y-4.2675
X5.3Y-3.15
X5.3Y-3.2
X5.3075Y-3.7825
X5.3375Y-2.9325
X5.3475Y-3.7825
X5.35Y-2.576
X5.35Y-3.25
X5.35Y-3.6925
X5.3525Y-3.3225
X5.355Y-4.215
X5.4Y-3.3
X5.4075Y-4.2375
X5.41Y-4.175
X5.4275Y-3.014
X5.446Y-4.096
X5.45Y-3.3
X5.45Y-3.35
X5.45Y-3.56
X5.472Y-2.95
X5.5Y-3.3
X5.5Y-4.24
X5.505Y-3.155
X5.525Y-3.49
X5.542Y-4.156
X5.544Y-4.025
X5.55Y-3.55
X5.55Y-4.24
X5.56Y-3.62
X5.565Y-3.02
X5.5675Y-3.185
X5.5675Y-3.725
X5.5675Y-3.79
X5.5675Y-3.85
X5.59Y-4.28
X5.6Y-3.26
X5.6Y-3.96
X5.6175Y-3.095
X5.618Y-3.13
X5.64Y-4.28
X5.65Y-3.19
X5.68Y-3.28
X5.686Y-3.478
X5.686Y-3.5575
X5.686Y-3.798
X5.686Y-3.876
X5.688Y-3.6375
X5.688Y-3.7175
X5.688Y-3.952
X5.69Y-4.28
T2
X4.345Y-3.4075
X4.39Y-3.41
X4.435Y-3.4075
X4.575Y-3.36
X4.6Y-2.66
X4.67Y-3.36
X4.7Y-2.66
X4.8Y-2.66
T3
X4.766Y-4.388
X4.866Y-4.388
X4.966Y-4.388
X5.066Y-4.388
X5.166Y-4.388
X5.266Y-4.388
X5.366Y-4.388
X5.466Y-4.388
X5.566Y-4.388
X5.666Y-4.388
X4.525Y-4.045
X4.525Y-4.145
X4.625Y-4.045
X4.625Y-4.145
X5.624Y-4.216
X5.6275Y-4.0475
T4
X4.6555Y-2.3622
X4.6555Y-2.5
X4.7933Y-2.3622
X4.7933Y-2.5
X4.9311Y-2.3622
X4.9311Y-2.5
X5.0689Y-2.3622
X5.0689Y-2.5
X5.2067Y-2.3622
X5.2067Y-2.5
X5.3445Y-2.3622
X5.3445Y-2.5
T5
X4.33Y-2.6394
X4.33Y-3.03
X4.4639Y-2.6394
X4.4639Y-3.03
T0
M30
