G04 #@! TF.GenerationSoftware,KiCad,Pcbnew,6.0.4-6f826c9f35~116~ubuntu18.04.1*
G04 #@! TF.CreationDate,2022-04-10T17:08:25+03:00*
G04 #@! TF.ProjectId,wideband_controller,77696465-6261-46e6-945f-636f6e74726f,rev?*
G04 #@! TF.SameCoordinates,Original*
G04 #@! TF.FileFunction,Soldermask,Top*
G04 #@! TF.FilePolarity,Negative*
%FSLAX46Y46*%
G04 Gerber Fmt 4.6, Leading zero omitted, Abs format (unit mm)*
G04 Created by KiCad (PCBNEW 6.0.4-6f826c9f35~116~ubuntu18.04.1) date 2022-04-10 17:08:25*
%MOMM*%
%LPD*%
G01*
G04 APERTURE LIST*
G04 Aperture macros list*
%AMRoundRect*
0 Rectangle with rounded corners*
0 $1 Rounding radius*
0 $2 $3 $4 $5 $6 $7 $8 $9 X,Y pos of 4 corners*
0 Add a 4 corners polygon primitive as box body*
4,1,4,$2,$3,$4,$5,$6,$7,$8,$9,$2,$3,0*
0 Add four circle primitives for the rounded corners*
1,1,$1+$1,$2,$3*
1,1,$1+$1,$4,$5*
1,1,$1+$1,$6,$7*
1,1,$1+$1,$8,$9*
0 Add four rect primitives between the rounded corners*
20,1,$1+$1,$2,$3,$4,$5,0*
20,1,$1+$1,$4,$5,$6,$7,0*
20,1,$1+$1,$6,$7,$8,$9,0*
20,1,$1+$1,$8,$9,$2,$3,0*%
G04 Aperture macros list end*
%ADD10C,4.098000*%
%ADD11C,2.248000*%
%ADD12RoundRect,0.267750X-0.218750X-0.256250X0.218750X-0.256250X0.218750X0.256250X-0.218750X0.256250X0*%
%ADD13RoundRect,0.267750X0.256250X-0.218750X0.256250X0.218750X-0.256250X0.218750X-0.256250X-0.218750X0*%
%ADD14RoundRect,0.267750X-0.256250X0.218750X-0.256250X-0.218750X0.256250X-0.218750X0.256250X0.218750X0*%
%ADD15RoundRect,0.049000X-0.450000X-0.400000X0.450000X-0.400000X0.450000X0.400000X-0.450000X0.400000X0*%
%ADD16RoundRect,0.196500X-0.147500X-0.172500X0.147500X-0.172500X0.147500X0.172500X-0.147500X0.172500X0*%
%ADD17RoundRect,0.267750X0.218750X0.256250X-0.218750X0.256250X-0.218750X-0.256250X0.218750X-0.256250X0*%
%ADD18RoundRect,0.049000X0.850000X0.850000X-0.850000X0.850000X-0.850000X-0.850000X0.850000X-0.850000X0*%
%ADD19RoundRect,0.049000X-1.650000X-1.250000X1.650000X-1.250000X1.650000X1.250000X-1.650000X1.250000X0*%
%ADD20RoundRect,0.196500X-0.172500X0.147500X-0.172500X-0.147500X0.172500X-0.147500X0.172500X0.147500X0*%
%ADD21RoundRect,0.189000X0.140000X0.170000X-0.140000X0.170000X-0.140000X-0.170000X0.140000X-0.170000X0*%
%ADD22RoundRect,0.196500X0.147500X0.172500X-0.147500X0.172500X-0.147500X-0.172500X0.147500X-0.172500X0*%
%ADD23RoundRect,0.189000X-0.170000X0.140000X-0.170000X-0.140000X0.170000X-0.140000X0.170000X0.140000X0*%
%ADD24RoundRect,0.196500X0.172500X-0.147500X0.172500X0.147500X-0.172500X0.147500X-0.172500X-0.147500X0*%
%ADD25RoundRect,0.249000X0.200000X0.275000X-0.200000X0.275000X-0.200000X-0.275000X0.200000X-0.275000X0*%
%ADD26RoundRect,0.299000X-0.625000X0.375000X-0.625000X-0.375000X0.625000X-0.375000X0.625000X0.375000X0*%
%ADD27RoundRect,0.184000X0.185000X-0.135000X0.185000X0.135000X-0.185000X0.135000X-0.185000X-0.135000X0*%
%ADD28RoundRect,0.184000X-0.185000X0.135000X-0.185000X-0.135000X0.185000X-0.135000X0.185000X0.135000X0*%
%ADD29RoundRect,0.249000X-0.200000X-0.275000X0.200000X-0.275000X0.200000X0.275000X-0.200000X0.275000X0*%
%ADD30RoundRect,0.189000X0.170000X-0.140000X0.170000X0.140000X-0.170000X0.140000X-0.170000X-0.140000X0*%
%ADD31RoundRect,0.189000X-0.140000X-0.170000X0.140000X-0.170000X0.140000X0.170000X-0.140000X0.170000X0*%
%ADD32C,2.878000*%
%ADD33RoundRect,0.049000X0.600000X-1.100000X0.600000X1.100000X-0.600000X1.100000X-0.600000X-1.100000X0*%
%ADD34RoundRect,0.049000X2.900000X-3.200000X2.900000X3.200000X-2.900000X3.200000X-2.900000X-3.200000X0*%
%ADD35RoundRect,0.049000X0.370000X-1.200000X0.370000X1.200000X-0.370000X1.200000X-0.370000X-1.200000X0*%
%ADD36RoundRect,0.124000X0.662500X0.075000X-0.662500X0.075000X-0.662500X-0.075000X0.662500X-0.075000X0*%
%ADD37RoundRect,0.124000X0.075000X0.662500X-0.075000X0.662500X-0.075000X-0.662500X0.075000X-0.662500X0*%
%ADD38RoundRect,0.049000X-0.850000X0.850000X-0.850000X-0.850000X0.850000X-0.850000X0.850000X0.850000X0*%
%ADD39O,1.798000X1.798000*%
%ADD40RoundRect,0.199000X0.825000X0.150000X-0.825000X0.150000X-0.825000X-0.150000X0.825000X-0.150000X0*%
%ADD41RoundRect,0.049000X0.850000X-0.850000X0.850000X0.850000X-0.850000X0.850000X-0.850000X-0.850000X0*%
%ADD42RoundRect,0.049000X-0.600000X1.100000X-0.600000X-1.100000X0.600000X-1.100000X0.600000X1.100000X0*%
%ADD43RoundRect,0.049000X-2.900000X3.200000X-2.900000X-3.200000X2.900000X-3.200000X2.900000X3.200000X0*%
%ADD44RoundRect,0.199000X0.150000X-0.725000X0.150000X0.725000X-0.150000X0.725000X-0.150000X-0.725000X0*%
%ADD45RoundRect,0.184000X-0.135000X-0.185000X0.135000X-0.185000X0.135000X0.185000X-0.135000X0.185000X0*%
%ADD46RoundRect,0.184000X0.135000X0.185000X-0.135000X0.185000X-0.135000X-0.185000X0.135000X-0.185000X0*%
%ADD47RoundRect,0.049000X-0.550000X-0.200000X0.550000X-0.200000X0.550000X0.200000X-0.550000X0.200000X0*%
%ADD48RoundRect,0.149000X-0.100000X0.637500X-0.100000X-0.637500X0.100000X-0.637500X0.100000X0.637500X0*%
%ADD49RoundRect,0.049000X0.450000X0.600000X-0.450000X0.600000X-0.450000X-0.600000X0.450000X-0.600000X0*%
%ADD50C,1.098000*%
%ADD51RoundRect,0.299000X0.625000X-0.312500X0.625000X0.312500X-0.625000X0.312500X-0.625000X-0.312500X0*%
%ADD52RoundRect,0.249000X-0.275000X0.200000X-0.275000X-0.200000X0.275000X-0.200000X0.275000X0.200000X0*%
G04 APERTURE END LIST*
D10*
X142750000Y-57800000D03*
X111250000Y-57800000D03*
D11*
X135750000Y-63500000D03*
X132250000Y-63500000D03*
X128750000Y-63500000D03*
X125250000Y-63500000D03*
X121750000Y-63500000D03*
X118250000Y-63500000D03*
X135750000Y-60000000D03*
X132250000Y-60000000D03*
X128750000Y-60000000D03*
X125250000Y-60000000D03*
X121750000Y-60000000D03*
X118250000Y-60000000D03*
D12*
X133045000Y-78994000D03*
X134620000Y-78994000D03*
D13*
X130048000Y-71399500D03*
X130048000Y-69824500D03*
D14*
X126025000Y-75707500D03*
X126025000Y-77282500D03*
D15*
X109220000Y-91318000D03*
X109220000Y-93218000D03*
X111220000Y-92268000D03*
D16*
X123698000Y-66802000D03*
X124668000Y-66802000D03*
D17*
X124993500Y-89916000D03*
X123418500Y-89916000D03*
D12*
X123418500Y-91440000D03*
X124993500Y-91440000D03*
D18*
X144018000Y-100330000D03*
D19*
X111760000Y-81944000D03*
X111760000Y-88744000D03*
D20*
X143510000Y-91971000D03*
X143510000Y-92941000D03*
D21*
X144498000Y-64897000D03*
X143538000Y-64897000D03*
D22*
X130828000Y-76835000D03*
X129858000Y-76835000D03*
D20*
X141986000Y-91971000D03*
X141986000Y-92941000D03*
D23*
X131826000Y-98326000D03*
X131826000Y-99286000D03*
D20*
X141986000Y-75946000D03*
X141986000Y-76916000D03*
D12*
X124180500Y-80264000D03*
X125755500Y-80264000D03*
D16*
X136421000Y-70866000D03*
X137391000Y-70866000D03*
D21*
X138656000Y-81280000D03*
X137696000Y-81280000D03*
D16*
X133904000Y-67945000D03*
X134874000Y-67945000D03*
X136421000Y-71882000D03*
X137391000Y-71882000D03*
D24*
X133350000Y-82273000D03*
X133350000Y-81303000D03*
D13*
X109220000Y-99339500D03*
X109220000Y-97764500D03*
D25*
X137858000Y-83312000D03*
X136208000Y-83312000D03*
D26*
X144526000Y-66291000D03*
X144526000Y-69091000D03*
D20*
X123952000Y-75230000D03*
X123952000Y-76200000D03*
D13*
X123952000Y-69621500D03*
X123952000Y-68046500D03*
D16*
X121181000Y-77470000D03*
X122151000Y-77470000D03*
D20*
X114554000Y-100607000D03*
X114554000Y-101577000D03*
D13*
X125476000Y-69621500D03*
X125476000Y-68046500D03*
D16*
X142517000Y-106680000D03*
X143487000Y-106680000D03*
D27*
X132334000Y-82298000D03*
X132334000Y-81278000D03*
D14*
X141097000Y-66903500D03*
X141097000Y-68478500D03*
D16*
X125626000Y-65786000D03*
X126596000Y-65786000D03*
D17*
X125755500Y-78740000D03*
X124180500Y-78740000D03*
X131597500Y-68072000D03*
X130022500Y-68072000D03*
D28*
X128016000Y-79500000D03*
X128016000Y-80520000D03*
D29*
X133033000Y-69215000D03*
X134683000Y-69215000D03*
D13*
X131572000Y-71399500D03*
X131572000Y-69824500D03*
X138049000Y-68478500D03*
X138049000Y-66903500D03*
D16*
X109227000Y-94742000D03*
X110197000Y-94742000D03*
D20*
X128397000Y-84739250D03*
X128397000Y-85709250D03*
D12*
X119837000Y-80772000D03*
X121412000Y-80772000D03*
D17*
X118135500Y-80772000D03*
X116560500Y-80772000D03*
D23*
X115062000Y-94008000D03*
X115062000Y-94968000D03*
X112760000Y-92230000D03*
X112760000Y-93190000D03*
D20*
X113792000Y-92225000D03*
X113792000Y-93195000D03*
D16*
X139192000Y-65659000D03*
X140162000Y-65659000D03*
D30*
X127000000Y-80490000D03*
X127000000Y-79530000D03*
D13*
X112776000Y-99339500D03*
X112776000Y-97764500D03*
D31*
X109204000Y-95758000D03*
X110164000Y-95758000D03*
D13*
X110998000Y-99339500D03*
X110998000Y-97764500D03*
D32*
X109982000Y-76962000D03*
X113382000Y-76962000D03*
X113382000Y-67042000D03*
X109982000Y-67042000D03*
D24*
X134874000Y-82273000D03*
X134874000Y-81303000D03*
D14*
X126025000Y-72659500D03*
X126025000Y-74234500D03*
D17*
X134645500Y-71374000D03*
X133070500Y-71374000D03*
D24*
X112776000Y-101577000D03*
X112776000Y-100607000D03*
D20*
X135890000Y-67968000D03*
X135890000Y-68938000D03*
D14*
X114554000Y-97764500D03*
X114554000Y-99339500D03*
D13*
X134620000Y-74447500D03*
X134620000Y-72872500D03*
D33*
X117353000Y-75491000D03*
D34*
X119633000Y-69191000D03*
D33*
X121913000Y-75491000D03*
D24*
X110998000Y-101577000D03*
X110998000Y-100607000D03*
D25*
X141223000Y-83312000D03*
X139573000Y-83312000D03*
D35*
X109728000Y-110916000D03*
X109728000Y-107016000D03*
X110998000Y-110916000D03*
X110998000Y-107016000D03*
X112268000Y-110916000D03*
X112268000Y-107016000D03*
X113538000Y-110916000D03*
X113538000Y-107016000D03*
X114808000Y-110916000D03*
X114808000Y-107016000D03*
X116078000Y-110916000D03*
X116078000Y-107016000D03*
X117348000Y-110916000D03*
X117348000Y-107016000D03*
D36*
X140052500Y-96222000D03*
X140052500Y-95722000D03*
X140052500Y-95222000D03*
X140052500Y-94722000D03*
X140052500Y-94222000D03*
X140052500Y-93722000D03*
X140052500Y-93222000D03*
X140052500Y-92722000D03*
X140052500Y-92222000D03*
X140052500Y-91722000D03*
X140052500Y-91222000D03*
X140052500Y-90722000D03*
D37*
X138640000Y-89309500D03*
X138140000Y-89309500D03*
X137640000Y-89309500D03*
X137140000Y-89309500D03*
X136640000Y-89309500D03*
X136140000Y-89309500D03*
X135640000Y-89309500D03*
X135140000Y-89309500D03*
X134640000Y-89309500D03*
X134140000Y-89309500D03*
X133640000Y-89309500D03*
X133140000Y-89309500D03*
D36*
X131727500Y-90722000D03*
X131727500Y-91222000D03*
X131727500Y-91722000D03*
X131727500Y-92222000D03*
X131727500Y-92722000D03*
X131727500Y-93222000D03*
X131727500Y-93722000D03*
X131727500Y-94222000D03*
X131727500Y-94722000D03*
X131727500Y-95222000D03*
X131727500Y-95722000D03*
X131727500Y-96222000D03*
D37*
X133140000Y-97634500D03*
X133640000Y-97634500D03*
X134140000Y-97634500D03*
X134640000Y-97634500D03*
X135140000Y-97634500D03*
X135640000Y-97634500D03*
X136140000Y-97634500D03*
X136640000Y-97634500D03*
X137140000Y-97634500D03*
X137640000Y-97634500D03*
X138140000Y-97634500D03*
X138640000Y-97634500D03*
D16*
X132357000Y-87630000D03*
X133327000Y-87630000D03*
D24*
X130048000Y-96982000D03*
X130048000Y-96012000D03*
D22*
X139423000Y-99314000D03*
X138453000Y-99314000D03*
D20*
X141732000Y-96289000D03*
X141732000Y-97259000D03*
D23*
X126492000Y-89690000D03*
X126492000Y-90650000D03*
D27*
X127508000Y-90680000D03*
X127508000Y-89660000D03*
D22*
X123952000Y-96520000D03*
X122982000Y-96520000D03*
D24*
X118807000Y-101450000D03*
X118807000Y-100480000D03*
X118807000Y-98910000D03*
X118807000Y-97940000D03*
D38*
X131572000Y-105156000D03*
D39*
X131572000Y-107696000D03*
X129032000Y-105156000D03*
X129032000Y-107696000D03*
D24*
X109220000Y-101577000D03*
X109220000Y-100607000D03*
D40*
X125600000Y-101600000D03*
X125600000Y-100330000D03*
X125600000Y-99060000D03*
X125600000Y-97790000D03*
X120650000Y-97790000D03*
X120650000Y-99060000D03*
X120650000Y-100330000D03*
X120650000Y-101600000D03*
D41*
X121056400Y-111455200D03*
D39*
X123596400Y-111455200D03*
X126136400Y-111455200D03*
X128676400Y-111455200D03*
X131216400Y-111455200D03*
X133756400Y-111455200D03*
X136296400Y-111455200D03*
X138836400Y-111455200D03*
X141376400Y-111455200D03*
X143916400Y-111455200D03*
D42*
X121152000Y-83176000D03*
D43*
X118872000Y-89476000D03*
D42*
X116592000Y-83176000D03*
D18*
X144018000Y-104140000D03*
D44*
X123190000Y-87695250D03*
X124460000Y-87695250D03*
X125730000Y-87695250D03*
X127000000Y-87695250D03*
X127000000Y-82545250D03*
X125730000Y-82545250D03*
X124460000Y-82545250D03*
X123190000Y-82545250D03*
D28*
X139192000Y-104646000D03*
X139192000Y-105666000D03*
X141224000Y-104646000D03*
X141224000Y-105666000D03*
D23*
X130810000Y-98326000D03*
X130810000Y-99286000D03*
D13*
X134620000Y-77495500D03*
X134620000Y-75920500D03*
D15*
X116602000Y-94046000D03*
X116602000Y-95946000D03*
X118602000Y-94996000D03*
D45*
X127379000Y-67818000D03*
X128399000Y-67818000D03*
D21*
X128369000Y-70866000D03*
X127409000Y-70866000D03*
D28*
X144272000Y-82548000D03*
X144272000Y-83568000D03*
D45*
X139952000Y-71882000D03*
X140972000Y-71882000D03*
D46*
X143004000Y-81280000D03*
X141984000Y-81280000D03*
D27*
X141224000Y-103126000D03*
X141224000Y-102106000D03*
D46*
X129161000Y-65786000D03*
X128141000Y-65786000D03*
D27*
X139192000Y-103126000D03*
X139192000Y-102106000D03*
D21*
X128369000Y-66802000D03*
X127409000Y-66802000D03*
D47*
X128193000Y-73488000D03*
X128193000Y-74138000D03*
X128193000Y-74788000D03*
X128193000Y-75438000D03*
X132493000Y-75438000D03*
X132493000Y-74788000D03*
X132493000Y-74138000D03*
X132493000Y-73488000D03*
D23*
X143002000Y-86134000D03*
X143002000Y-87094000D03*
D45*
X126744000Y-68834000D03*
X127764000Y-68834000D03*
D48*
X140634000Y-73591500D03*
X139984000Y-73591500D03*
X139334000Y-73591500D03*
X138684000Y-73591500D03*
X138034000Y-73591500D03*
X137384000Y-73591500D03*
X136734000Y-73591500D03*
X136734000Y-79316500D03*
X137384000Y-79316500D03*
X138034000Y-79316500D03*
X138684000Y-79316500D03*
X139334000Y-79316500D03*
X139984000Y-79316500D03*
X140634000Y-79316500D03*
D46*
X138178000Y-65659000D03*
X137158000Y-65659000D03*
D49*
X119506000Y-78740000D03*
X116206000Y-78740000D03*
D50*
X138684000Y-85979000D03*
D51*
X117029000Y-101157500D03*
X117029000Y-98232500D03*
D52*
X139573000Y-66866000D03*
X139573000Y-68516000D03*
D45*
X127379000Y-69850000D03*
X128399000Y-69850000D03*
D50*
X140716000Y-85979000D03*
X140716000Y-88011000D03*
D52*
X142621000Y-66866000D03*
X142621000Y-68516000D03*
D27*
X144272000Y-87124000D03*
X144272000Y-86104000D03*
G36*
X136312975Y-96896302D02*
G01*
X136356118Y-96930312D01*
X136416573Y-96932686D01*
X136463914Y-96901054D01*
X136465910Y-96900923D01*
X136467021Y-96902586D01*
X136466688Y-96903828D01*
X136452324Y-96925326D01*
X136443000Y-96972199D01*
X136443000Y-98296801D01*
X136452324Y-98343674D01*
X136469926Y-98370016D01*
X136470057Y-98372012D01*
X136468394Y-98373123D01*
X136467025Y-98372698D01*
X136423882Y-98338688D01*
X136363427Y-98336314D01*
X136316086Y-98367946D01*
X136314090Y-98368077D01*
X136312979Y-98366414D01*
X136313312Y-98365172D01*
X136327676Y-98343674D01*
X136337000Y-98296801D01*
X136337000Y-96972199D01*
X136327676Y-96925326D01*
X136310074Y-96898984D01*
X136309943Y-96896988D01*
X136311606Y-96895877D01*
X136312975Y-96896302D01*
G37*
G36*
X133812975Y-96896302D02*
G01*
X133856118Y-96930312D01*
X133916573Y-96932686D01*
X133963914Y-96901054D01*
X133965910Y-96900923D01*
X133967021Y-96902586D01*
X133966688Y-96903828D01*
X133952324Y-96925326D01*
X133943000Y-96972199D01*
X133943000Y-98296801D01*
X133952324Y-98343674D01*
X133969926Y-98370016D01*
X133970057Y-98372012D01*
X133968394Y-98373123D01*
X133967025Y-98372698D01*
X133923882Y-98338688D01*
X133863427Y-98336314D01*
X133816086Y-98367946D01*
X133814090Y-98368077D01*
X133812979Y-98366414D01*
X133813312Y-98365172D01*
X133827676Y-98343674D01*
X133837000Y-98296801D01*
X133837000Y-96972199D01*
X133827676Y-96925326D01*
X133810074Y-96898984D01*
X133809943Y-96896988D01*
X133811606Y-96895877D01*
X133812975Y-96896302D01*
G37*
G36*
X135812975Y-96896302D02*
G01*
X135856118Y-96930312D01*
X135916573Y-96932686D01*
X135963914Y-96901054D01*
X135965910Y-96900923D01*
X135967021Y-96902586D01*
X135966688Y-96903828D01*
X135952324Y-96925326D01*
X135943000Y-96972199D01*
X135943000Y-98296801D01*
X135952324Y-98343674D01*
X135969926Y-98370016D01*
X135970057Y-98372012D01*
X135968394Y-98373123D01*
X135967025Y-98372698D01*
X135923882Y-98338688D01*
X135863427Y-98336314D01*
X135816086Y-98367946D01*
X135814090Y-98368077D01*
X135812979Y-98366414D01*
X135813312Y-98365172D01*
X135827676Y-98343674D01*
X135837000Y-98296801D01*
X135837000Y-96972199D01*
X135827676Y-96925326D01*
X135810074Y-96898984D01*
X135809943Y-96896988D01*
X135811606Y-96895877D01*
X135812975Y-96896302D01*
G37*
G36*
X136812975Y-96896302D02*
G01*
X136856118Y-96930312D01*
X136916573Y-96932686D01*
X136963914Y-96901054D01*
X136965910Y-96900923D01*
X136967021Y-96902586D01*
X136966688Y-96903828D01*
X136952324Y-96925326D01*
X136943000Y-96972199D01*
X136943000Y-98296801D01*
X136952324Y-98343674D01*
X136969926Y-98370016D01*
X136970057Y-98372012D01*
X136968394Y-98373123D01*
X136967025Y-98372698D01*
X136923882Y-98338688D01*
X136863427Y-98336314D01*
X136816086Y-98367946D01*
X136814090Y-98368077D01*
X136812979Y-98366414D01*
X136813312Y-98365172D01*
X136827676Y-98343674D01*
X136837000Y-98296801D01*
X136837000Y-96972199D01*
X136827676Y-96925326D01*
X136810074Y-96898984D01*
X136809943Y-96896988D01*
X136811606Y-96895877D01*
X136812975Y-96896302D01*
G37*
G36*
X135312975Y-96896302D02*
G01*
X135356118Y-96930312D01*
X135416573Y-96932686D01*
X135463914Y-96901054D01*
X135465910Y-96900923D01*
X135467021Y-96902586D01*
X135466688Y-96903828D01*
X135452324Y-96925326D01*
X135443000Y-96972199D01*
X135443000Y-98296801D01*
X135452324Y-98343674D01*
X135469926Y-98370016D01*
X135470057Y-98372012D01*
X135468394Y-98373123D01*
X135467025Y-98372698D01*
X135423882Y-98338688D01*
X135363427Y-98336314D01*
X135316086Y-98367946D01*
X135314090Y-98368077D01*
X135312979Y-98366414D01*
X135313312Y-98365172D01*
X135327676Y-98343674D01*
X135337000Y-98296801D01*
X135337000Y-96972199D01*
X135327676Y-96925326D01*
X135310074Y-96898984D01*
X135309943Y-96896988D01*
X135311606Y-96895877D01*
X135312975Y-96896302D01*
G37*
G36*
X137312975Y-96896302D02*
G01*
X137356118Y-96930312D01*
X137416573Y-96932686D01*
X137463914Y-96901054D01*
X137465910Y-96900923D01*
X137467021Y-96902586D01*
X137466688Y-96903828D01*
X137452324Y-96925326D01*
X137443000Y-96972199D01*
X137443000Y-98296801D01*
X137452324Y-98343674D01*
X137469926Y-98370016D01*
X137470057Y-98372012D01*
X137468394Y-98373123D01*
X137467025Y-98372698D01*
X137423882Y-98338688D01*
X137363427Y-98336314D01*
X137316086Y-98367946D01*
X137314090Y-98368077D01*
X137312979Y-98366414D01*
X137313312Y-98365172D01*
X137327676Y-98343674D01*
X137337000Y-98296801D01*
X137337000Y-96972199D01*
X137327676Y-96925326D01*
X137310074Y-96898984D01*
X137309943Y-96896988D01*
X137311606Y-96895877D01*
X137312975Y-96896302D01*
G37*
G36*
X134312975Y-96896302D02*
G01*
X134356118Y-96930312D01*
X134416573Y-96932686D01*
X134463914Y-96901054D01*
X134465910Y-96900923D01*
X134467021Y-96902586D01*
X134466688Y-96903828D01*
X134452324Y-96925326D01*
X134443000Y-96972199D01*
X134443000Y-98296801D01*
X134452324Y-98343674D01*
X134469926Y-98370016D01*
X134470057Y-98372012D01*
X134468394Y-98373123D01*
X134467025Y-98372698D01*
X134423882Y-98338688D01*
X134363427Y-98336314D01*
X134316086Y-98367946D01*
X134314090Y-98368077D01*
X134312979Y-98366414D01*
X134313312Y-98365172D01*
X134327676Y-98343674D01*
X134337000Y-98296801D01*
X134337000Y-96972199D01*
X134327676Y-96925326D01*
X134310074Y-96898984D01*
X134309943Y-96896988D01*
X134311606Y-96895877D01*
X134312975Y-96896302D01*
G37*
G36*
X133312975Y-96896302D02*
G01*
X133356118Y-96930312D01*
X133416573Y-96932686D01*
X133463914Y-96901054D01*
X133465910Y-96900923D01*
X133467021Y-96902586D01*
X133466688Y-96903828D01*
X133452324Y-96925326D01*
X133443000Y-96972199D01*
X133443000Y-98296801D01*
X133452324Y-98343674D01*
X133469926Y-98370016D01*
X133470057Y-98372012D01*
X133468394Y-98373123D01*
X133467025Y-98372698D01*
X133423882Y-98338688D01*
X133363427Y-98336314D01*
X133316086Y-98367946D01*
X133314090Y-98368077D01*
X133312979Y-98366414D01*
X133313312Y-98365172D01*
X133327676Y-98343674D01*
X133337000Y-98296801D01*
X133337000Y-96972199D01*
X133327676Y-96925326D01*
X133310074Y-96898984D01*
X133309943Y-96896988D01*
X133311606Y-96895877D01*
X133312975Y-96896302D01*
G37*
G36*
X134812975Y-96896302D02*
G01*
X134856118Y-96930312D01*
X134916573Y-96932686D01*
X134963914Y-96901054D01*
X134965910Y-96900923D01*
X134967021Y-96902586D01*
X134966688Y-96903828D01*
X134952324Y-96925326D01*
X134943000Y-96972199D01*
X134943000Y-98296801D01*
X134952324Y-98343674D01*
X134969926Y-98370016D01*
X134970057Y-98372012D01*
X134968394Y-98373123D01*
X134967025Y-98372698D01*
X134923882Y-98338688D01*
X134863427Y-98336314D01*
X134816086Y-98367946D01*
X134814090Y-98368077D01*
X134812979Y-98366414D01*
X134813312Y-98365172D01*
X134827676Y-98343674D01*
X134837000Y-98296801D01*
X134837000Y-96972199D01*
X134827676Y-96925326D01*
X134810074Y-96898984D01*
X134809943Y-96896988D01*
X134811606Y-96895877D01*
X134812975Y-96896302D01*
G37*
G36*
X138312975Y-96896302D02*
G01*
X138356118Y-96930312D01*
X138416573Y-96932686D01*
X138463914Y-96901054D01*
X138465910Y-96900923D01*
X138467021Y-96902586D01*
X138466688Y-96903828D01*
X138452324Y-96925326D01*
X138443000Y-96972199D01*
X138443000Y-98296801D01*
X138452324Y-98343674D01*
X138469926Y-98370016D01*
X138470057Y-98372012D01*
X138468394Y-98373123D01*
X138467025Y-98372698D01*
X138423882Y-98338688D01*
X138363427Y-98336314D01*
X138316086Y-98367946D01*
X138314090Y-98368077D01*
X138312979Y-98366414D01*
X138313312Y-98365172D01*
X138327676Y-98343674D01*
X138337000Y-98296801D01*
X138337000Y-96972199D01*
X138327676Y-96925326D01*
X138310074Y-96898984D01*
X138309943Y-96896988D01*
X138311606Y-96895877D01*
X138312975Y-96896302D01*
G37*
G36*
X137812975Y-96896302D02*
G01*
X137856118Y-96930312D01*
X137916573Y-96932686D01*
X137963914Y-96901054D01*
X137965910Y-96900923D01*
X137967021Y-96902586D01*
X137966688Y-96903828D01*
X137952324Y-96925326D01*
X137943000Y-96972199D01*
X137943000Y-98296801D01*
X137952324Y-98343674D01*
X137969926Y-98370016D01*
X137970057Y-98372012D01*
X137968394Y-98373123D01*
X137967025Y-98372698D01*
X137923882Y-98338688D01*
X137863427Y-98336314D01*
X137816086Y-98367946D01*
X137814090Y-98368077D01*
X137812979Y-98366414D01*
X137813312Y-98365172D01*
X137827676Y-98343674D01*
X137837000Y-98296801D01*
X137837000Y-96972199D01*
X137827676Y-96925326D01*
X137810074Y-96898984D01*
X137809943Y-96896988D01*
X137811606Y-96895877D01*
X137812975Y-96896302D01*
G37*
G36*
X140791123Y-95893606D02*
G01*
X140790698Y-95894975D01*
X140756688Y-95938118D01*
X140754314Y-95998573D01*
X140785946Y-96045914D01*
X140786077Y-96047910D01*
X140784414Y-96049021D01*
X140783172Y-96048688D01*
X140761674Y-96034324D01*
X140714801Y-96025000D01*
X139390199Y-96025000D01*
X139343326Y-96034324D01*
X139316984Y-96051926D01*
X139314988Y-96052057D01*
X139313877Y-96050394D01*
X139314302Y-96049025D01*
X139348312Y-96005882D01*
X139350686Y-95945427D01*
X139319054Y-95898086D01*
X139318923Y-95896090D01*
X139320586Y-95894979D01*
X139321828Y-95895312D01*
X139343326Y-95909676D01*
X139390199Y-95919000D01*
X140714801Y-95919000D01*
X140761674Y-95909676D01*
X140788016Y-95892074D01*
X140790012Y-95891943D01*
X140791123Y-95893606D01*
G37*
G36*
X132466123Y-95893606D02*
G01*
X132465698Y-95894975D01*
X132431688Y-95938118D01*
X132429314Y-95998573D01*
X132460946Y-96045914D01*
X132461077Y-96047910D01*
X132459414Y-96049021D01*
X132458172Y-96048688D01*
X132436674Y-96034324D01*
X132389801Y-96025000D01*
X131065199Y-96025000D01*
X131018326Y-96034324D01*
X130991984Y-96051926D01*
X130989988Y-96052057D01*
X130988877Y-96050394D01*
X130989302Y-96049025D01*
X131023312Y-96005882D01*
X131025686Y-95945427D01*
X130994054Y-95898086D01*
X130993923Y-95896090D01*
X130995586Y-95894979D01*
X130996828Y-95895312D01*
X131018326Y-95909676D01*
X131065199Y-95919000D01*
X132389801Y-95919000D01*
X132436674Y-95909676D01*
X132463016Y-95892074D01*
X132465012Y-95891943D01*
X132466123Y-95893606D01*
G37*
G36*
X140791123Y-95393606D02*
G01*
X140790698Y-95394975D01*
X140756688Y-95438118D01*
X140754314Y-95498573D01*
X140785946Y-95545914D01*
X140786077Y-95547910D01*
X140784414Y-95549021D01*
X140783172Y-95548688D01*
X140761674Y-95534324D01*
X140714801Y-95525000D01*
X139390199Y-95525000D01*
X139343326Y-95534324D01*
X139316984Y-95551926D01*
X139314988Y-95552057D01*
X139313877Y-95550394D01*
X139314302Y-95549025D01*
X139348312Y-95505882D01*
X139350686Y-95445427D01*
X139319054Y-95398086D01*
X139318923Y-95396090D01*
X139320586Y-95394979D01*
X139321828Y-95395312D01*
X139343326Y-95409676D01*
X139390199Y-95419000D01*
X140714801Y-95419000D01*
X140761674Y-95409676D01*
X140788016Y-95392074D01*
X140790012Y-95391943D01*
X140791123Y-95393606D01*
G37*
G36*
X132466123Y-95393606D02*
G01*
X132465698Y-95394975D01*
X132431688Y-95438118D01*
X132429314Y-95498573D01*
X132460946Y-95545914D01*
X132461077Y-95547910D01*
X132459414Y-95549021D01*
X132458172Y-95548688D01*
X132436674Y-95534324D01*
X132389801Y-95525000D01*
X131065199Y-95525000D01*
X131018326Y-95534324D01*
X130991984Y-95551926D01*
X130989988Y-95552057D01*
X130988877Y-95550394D01*
X130989302Y-95549025D01*
X131023312Y-95505882D01*
X131025686Y-95445427D01*
X130994054Y-95398086D01*
X130993923Y-95396090D01*
X130995586Y-95394979D01*
X130996828Y-95395312D01*
X131018326Y-95409676D01*
X131065199Y-95419000D01*
X132389801Y-95419000D01*
X132436674Y-95409676D01*
X132463016Y-95392074D01*
X132465012Y-95391943D01*
X132466123Y-95393606D01*
G37*
G36*
X140791123Y-94893606D02*
G01*
X140790698Y-94894975D01*
X140756688Y-94938118D01*
X140754314Y-94998573D01*
X140785946Y-95045914D01*
X140786077Y-95047910D01*
X140784414Y-95049021D01*
X140783172Y-95048688D01*
X140761674Y-95034324D01*
X140714801Y-95025000D01*
X139390199Y-95025000D01*
X139343326Y-95034324D01*
X139316984Y-95051926D01*
X139314988Y-95052057D01*
X139313877Y-95050394D01*
X139314302Y-95049025D01*
X139348312Y-95005882D01*
X139350686Y-94945427D01*
X139319054Y-94898086D01*
X139318923Y-94896090D01*
X139320586Y-94894979D01*
X139321828Y-94895312D01*
X139343326Y-94909676D01*
X139390199Y-94919000D01*
X140714801Y-94919000D01*
X140761674Y-94909676D01*
X140788016Y-94892074D01*
X140790012Y-94891943D01*
X140791123Y-94893606D01*
G37*
G36*
X132466123Y-94893606D02*
G01*
X132465698Y-94894975D01*
X132431688Y-94938118D01*
X132429314Y-94998573D01*
X132460946Y-95045914D01*
X132461077Y-95047910D01*
X132459414Y-95049021D01*
X132458172Y-95048688D01*
X132436674Y-95034324D01*
X132389801Y-95025000D01*
X131065199Y-95025000D01*
X131018326Y-95034324D01*
X130991984Y-95051926D01*
X130989988Y-95052057D01*
X130988877Y-95050394D01*
X130989302Y-95049025D01*
X131023312Y-95005882D01*
X131025686Y-94945427D01*
X130994054Y-94898086D01*
X130993923Y-94896090D01*
X130995586Y-94894979D01*
X130996828Y-94895312D01*
X131018326Y-94909676D01*
X131065199Y-94919000D01*
X132389801Y-94919000D01*
X132436674Y-94909676D01*
X132463016Y-94892074D01*
X132465012Y-94891943D01*
X132466123Y-94893606D01*
G37*
G36*
X140791123Y-94393606D02*
G01*
X140790698Y-94394975D01*
X140756688Y-94438118D01*
X140754314Y-94498573D01*
X140785946Y-94545914D01*
X140786077Y-94547910D01*
X140784414Y-94549021D01*
X140783172Y-94548688D01*
X140761674Y-94534324D01*
X140714801Y-94525000D01*
X139390199Y-94525000D01*
X139343326Y-94534324D01*
X139316984Y-94551926D01*
X139314988Y-94552057D01*
X139313877Y-94550394D01*
X139314302Y-94549025D01*
X139348312Y-94505882D01*
X139350686Y-94445427D01*
X139319054Y-94398086D01*
X139318923Y-94396090D01*
X139320586Y-94394979D01*
X139321828Y-94395312D01*
X139343326Y-94409676D01*
X139390199Y-94419000D01*
X140714801Y-94419000D01*
X140761674Y-94409676D01*
X140788016Y-94392074D01*
X140790012Y-94391943D01*
X140791123Y-94393606D01*
G37*
G36*
X132466123Y-94393606D02*
G01*
X132465698Y-94394975D01*
X132431688Y-94438118D01*
X132429314Y-94498573D01*
X132460946Y-94545914D01*
X132461077Y-94547910D01*
X132459414Y-94549021D01*
X132458172Y-94548688D01*
X132436674Y-94534324D01*
X132389801Y-94525000D01*
X131065199Y-94525000D01*
X131018326Y-94534324D01*
X130991984Y-94551926D01*
X130989988Y-94552057D01*
X130988877Y-94550394D01*
X130989302Y-94549025D01*
X131023312Y-94505882D01*
X131025686Y-94445427D01*
X130994054Y-94398086D01*
X130993923Y-94396090D01*
X130995586Y-94394979D01*
X130996828Y-94395312D01*
X131018326Y-94409676D01*
X131065199Y-94419000D01*
X132389801Y-94419000D01*
X132436674Y-94409676D01*
X132463016Y-94392074D01*
X132465012Y-94391943D01*
X132466123Y-94393606D01*
G37*
G36*
X140791123Y-93893606D02*
G01*
X140790698Y-93894975D01*
X140756688Y-93938118D01*
X140754314Y-93998573D01*
X140785946Y-94045914D01*
X140786077Y-94047910D01*
X140784414Y-94049021D01*
X140783172Y-94048688D01*
X140761674Y-94034324D01*
X140714801Y-94025000D01*
X139390199Y-94025000D01*
X139343326Y-94034324D01*
X139316984Y-94051926D01*
X139314988Y-94052057D01*
X139313877Y-94050394D01*
X139314302Y-94049025D01*
X139348312Y-94005882D01*
X139350686Y-93945427D01*
X139319054Y-93898086D01*
X139318923Y-93896090D01*
X139320586Y-93894979D01*
X139321828Y-93895312D01*
X139343326Y-93909676D01*
X139390199Y-93919000D01*
X140714801Y-93919000D01*
X140761674Y-93909676D01*
X140788016Y-93892074D01*
X140790012Y-93891943D01*
X140791123Y-93893606D01*
G37*
G36*
X132466123Y-93893606D02*
G01*
X132465698Y-93894975D01*
X132431688Y-93938118D01*
X132429314Y-93998573D01*
X132460946Y-94045914D01*
X132461077Y-94047910D01*
X132459414Y-94049021D01*
X132458172Y-94048688D01*
X132436674Y-94034324D01*
X132389801Y-94025000D01*
X131065199Y-94025000D01*
X131018326Y-94034324D01*
X130991984Y-94051926D01*
X130989988Y-94052057D01*
X130988877Y-94050394D01*
X130989302Y-94049025D01*
X131023312Y-94005882D01*
X131025686Y-93945427D01*
X130994054Y-93898086D01*
X130993923Y-93896090D01*
X130995586Y-93894979D01*
X130996828Y-93895312D01*
X131018326Y-93909676D01*
X131065199Y-93919000D01*
X132389801Y-93919000D01*
X132436674Y-93909676D01*
X132463016Y-93892074D01*
X132465012Y-93891943D01*
X132466123Y-93893606D01*
G37*
G36*
X132466123Y-93393606D02*
G01*
X132465698Y-93394975D01*
X132431688Y-93438118D01*
X132429314Y-93498573D01*
X132460946Y-93545914D01*
X132461077Y-93547910D01*
X132459414Y-93549021D01*
X132458172Y-93548688D01*
X132436674Y-93534324D01*
X132389801Y-93525000D01*
X131065199Y-93525000D01*
X131018326Y-93534324D01*
X130991984Y-93551926D01*
X130989988Y-93552057D01*
X130988877Y-93550394D01*
X130989302Y-93549025D01*
X131023312Y-93505882D01*
X131025686Y-93445427D01*
X130994054Y-93398086D01*
X130993923Y-93396090D01*
X130995586Y-93394979D01*
X130996828Y-93395312D01*
X131018326Y-93409676D01*
X131065199Y-93419000D01*
X132389801Y-93419000D01*
X132436674Y-93409676D01*
X132463016Y-93392074D01*
X132465012Y-93391943D01*
X132466123Y-93393606D01*
G37*
G36*
X140791123Y-93393606D02*
G01*
X140790698Y-93394975D01*
X140756688Y-93438118D01*
X140754314Y-93498573D01*
X140785946Y-93545914D01*
X140786077Y-93547910D01*
X140784414Y-93549021D01*
X140783172Y-93548688D01*
X140761674Y-93534324D01*
X140714801Y-93525000D01*
X139390199Y-93525000D01*
X139343326Y-93534324D01*
X139316984Y-93551926D01*
X139314988Y-93552057D01*
X139313877Y-93550394D01*
X139314302Y-93549025D01*
X139348312Y-93505882D01*
X139350686Y-93445427D01*
X139319054Y-93398086D01*
X139318923Y-93396090D01*
X139320586Y-93394979D01*
X139321828Y-93395312D01*
X139343326Y-93409676D01*
X139390199Y-93419000D01*
X140714801Y-93419000D01*
X140761674Y-93409676D01*
X140788016Y-93392074D01*
X140790012Y-93391943D01*
X140791123Y-93393606D01*
G37*
G36*
X140791123Y-92893606D02*
G01*
X140790698Y-92894975D01*
X140756688Y-92938118D01*
X140754314Y-92998573D01*
X140785946Y-93045914D01*
X140786077Y-93047910D01*
X140784414Y-93049021D01*
X140783172Y-93048688D01*
X140761674Y-93034324D01*
X140714801Y-93025000D01*
X139390199Y-93025000D01*
X139343326Y-93034324D01*
X139316984Y-93051926D01*
X139314988Y-93052057D01*
X139313877Y-93050394D01*
X139314302Y-93049025D01*
X139348312Y-93005882D01*
X139350686Y-92945427D01*
X139319054Y-92898086D01*
X139318923Y-92896090D01*
X139320586Y-92894979D01*
X139321828Y-92895312D01*
X139343326Y-92909676D01*
X139390199Y-92919000D01*
X140714801Y-92919000D01*
X140761674Y-92909676D01*
X140788016Y-92892074D01*
X140790012Y-92891943D01*
X140791123Y-92893606D01*
G37*
G36*
X132466123Y-92893606D02*
G01*
X132465698Y-92894975D01*
X132431688Y-92938118D01*
X132429314Y-92998573D01*
X132460946Y-93045914D01*
X132461077Y-93047910D01*
X132459414Y-93049021D01*
X132458172Y-93048688D01*
X132436674Y-93034324D01*
X132389801Y-93025000D01*
X131065199Y-93025000D01*
X131018326Y-93034324D01*
X130991984Y-93051926D01*
X130989988Y-93052057D01*
X130988877Y-93050394D01*
X130989302Y-93049025D01*
X131023312Y-93005882D01*
X131025686Y-92945427D01*
X130994054Y-92898086D01*
X130993923Y-92896090D01*
X130995586Y-92894979D01*
X130996828Y-92895312D01*
X131018326Y-92909676D01*
X131065199Y-92919000D01*
X132389801Y-92919000D01*
X132436674Y-92909676D01*
X132463016Y-92892074D01*
X132465012Y-92891943D01*
X132466123Y-92893606D01*
G37*
G36*
X132466123Y-92393606D02*
G01*
X132465698Y-92394975D01*
X132431688Y-92438118D01*
X132429314Y-92498573D01*
X132460946Y-92545914D01*
X132461077Y-92547910D01*
X132459414Y-92549021D01*
X132458172Y-92548688D01*
X132436674Y-92534324D01*
X132389801Y-92525000D01*
X131065199Y-92525000D01*
X131018326Y-92534324D01*
X130991984Y-92551926D01*
X130989988Y-92552057D01*
X130988877Y-92550394D01*
X130989302Y-92549025D01*
X131023312Y-92505882D01*
X131025686Y-92445427D01*
X130994054Y-92398086D01*
X130993923Y-92396090D01*
X130995586Y-92394979D01*
X130996828Y-92395312D01*
X131018326Y-92409676D01*
X131065199Y-92419000D01*
X132389801Y-92419000D01*
X132436674Y-92409676D01*
X132463016Y-92392074D01*
X132465012Y-92391943D01*
X132466123Y-92393606D01*
G37*
G36*
X140791123Y-92393606D02*
G01*
X140790698Y-92394975D01*
X140756688Y-92438118D01*
X140754314Y-92498573D01*
X140785946Y-92545914D01*
X140786077Y-92547910D01*
X140784414Y-92549021D01*
X140783172Y-92548688D01*
X140761674Y-92534324D01*
X140714801Y-92525000D01*
X139390199Y-92525000D01*
X139343326Y-92534324D01*
X139316984Y-92551926D01*
X139314988Y-92552057D01*
X139313877Y-92550394D01*
X139314302Y-92549025D01*
X139348312Y-92505882D01*
X139350686Y-92445427D01*
X139319054Y-92398086D01*
X139318923Y-92396090D01*
X139320586Y-92394979D01*
X139321828Y-92395312D01*
X139343326Y-92409676D01*
X139390199Y-92419000D01*
X140714801Y-92419000D01*
X140761674Y-92409676D01*
X140788016Y-92392074D01*
X140790012Y-92391943D01*
X140791123Y-92393606D01*
G37*
G36*
X140791123Y-91893606D02*
G01*
X140790698Y-91894975D01*
X140756688Y-91938118D01*
X140754314Y-91998573D01*
X140785946Y-92045914D01*
X140786077Y-92047910D01*
X140784414Y-92049021D01*
X140783172Y-92048688D01*
X140761674Y-92034324D01*
X140714801Y-92025000D01*
X139390199Y-92025000D01*
X139343326Y-92034324D01*
X139316984Y-92051926D01*
X139314988Y-92052057D01*
X139313877Y-92050394D01*
X139314302Y-92049025D01*
X139348312Y-92005882D01*
X139350686Y-91945427D01*
X139319054Y-91898086D01*
X139318923Y-91896090D01*
X139320586Y-91894979D01*
X139321828Y-91895312D01*
X139343326Y-91909676D01*
X139390199Y-91919000D01*
X140714801Y-91919000D01*
X140761674Y-91909676D01*
X140788016Y-91892074D01*
X140790012Y-91891943D01*
X140791123Y-91893606D01*
G37*
G36*
X132466123Y-91893606D02*
G01*
X132465698Y-91894975D01*
X132431688Y-91938118D01*
X132429314Y-91998573D01*
X132460946Y-92045914D01*
X132461077Y-92047910D01*
X132459414Y-92049021D01*
X132458172Y-92048688D01*
X132436674Y-92034324D01*
X132389801Y-92025000D01*
X131065199Y-92025000D01*
X131018326Y-92034324D01*
X130991984Y-92051926D01*
X130989988Y-92052057D01*
X130988877Y-92050394D01*
X130989302Y-92049025D01*
X131023312Y-92005882D01*
X131025686Y-91945427D01*
X130994054Y-91898086D01*
X130993923Y-91896090D01*
X130995586Y-91894979D01*
X130996828Y-91895312D01*
X131018326Y-91909676D01*
X131065199Y-91919000D01*
X132389801Y-91919000D01*
X132436674Y-91909676D01*
X132463016Y-91892074D01*
X132465012Y-91891943D01*
X132466123Y-91893606D01*
G37*
G36*
X140791123Y-91393606D02*
G01*
X140790698Y-91394975D01*
X140756688Y-91438118D01*
X140754314Y-91498573D01*
X140785946Y-91545914D01*
X140786077Y-91547910D01*
X140784414Y-91549021D01*
X140783172Y-91548688D01*
X140761674Y-91534324D01*
X140714801Y-91525000D01*
X139390199Y-91525000D01*
X139343326Y-91534324D01*
X139316984Y-91551926D01*
X139314988Y-91552057D01*
X139313877Y-91550394D01*
X139314302Y-91549025D01*
X139348312Y-91505882D01*
X139350686Y-91445427D01*
X139319054Y-91398086D01*
X139318923Y-91396090D01*
X139320586Y-91394979D01*
X139321828Y-91395312D01*
X139343326Y-91409676D01*
X139390199Y-91419000D01*
X140714801Y-91419000D01*
X140761674Y-91409676D01*
X140788016Y-91392074D01*
X140790012Y-91391943D01*
X140791123Y-91393606D01*
G37*
G36*
X132466123Y-91393606D02*
G01*
X132465698Y-91394975D01*
X132431688Y-91438118D01*
X132429314Y-91498573D01*
X132460946Y-91545914D01*
X132461077Y-91547910D01*
X132459414Y-91549021D01*
X132458172Y-91548688D01*
X132436674Y-91534324D01*
X132389801Y-91525000D01*
X131065199Y-91525000D01*
X131018326Y-91534324D01*
X130991984Y-91551926D01*
X130989988Y-91552057D01*
X130988877Y-91550394D01*
X130989302Y-91549025D01*
X131023312Y-91505882D01*
X131025686Y-91445427D01*
X130994054Y-91398086D01*
X130993923Y-91396090D01*
X130995586Y-91394979D01*
X130996828Y-91395312D01*
X131018326Y-91409676D01*
X131065199Y-91419000D01*
X132389801Y-91419000D01*
X132436674Y-91409676D01*
X132463016Y-91392074D01*
X132465012Y-91391943D01*
X132466123Y-91393606D01*
G37*
G36*
X132466123Y-90893606D02*
G01*
X132465698Y-90894975D01*
X132431688Y-90938118D01*
X132429314Y-90998573D01*
X132460946Y-91045914D01*
X132461077Y-91047910D01*
X132459414Y-91049021D01*
X132458172Y-91048688D01*
X132436674Y-91034324D01*
X132389801Y-91025000D01*
X131065199Y-91025000D01*
X131018326Y-91034324D01*
X130991984Y-91051926D01*
X130989988Y-91052057D01*
X130988877Y-91050394D01*
X130989302Y-91049025D01*
X131023312Y-91005882D01*
X131025686Y-90945427D01*
X130994054Y-90898086D01*
X130993923Y-90896090D01*
X130995586Y-90894979D01*
X130996828Y-90895312D01*
X131018326Y-90909676D01*
X131065199Y-90919000D01*
X132389801Y-90919000D01*
X132436674Y-90909676D01*
X132463016Y-90892074D01*
X132465012Y-90891943D01*
X132466123Y-90893606D01*
G37*
G36*
X140791123Y-90893606D02*
G01*
X140790698Y-90894975D01*
X140756688Y-90938118D01*
X140754314Y-90998573D01*
X140785946Y-91045914D01*
X140786077Y-91047910D01*
X140784414Y-91049021D01*
X140783172Y-91048688D01*
X140761674Y-91034324D01*
X140714801Y-91025000D01*
X139390199Y-91025000D01*
X139343326Y-91034324D01*
X139316984Y-91051926D01*
X139314988Y-91052057D01*
X139313877Y-91050394D01*
X139314302Y-91049025D01*
X139348312Y-91005882D01*
X139350686Y-90945427D01*
X139319054Y-90898086D01*
X139318923Y-90896090D01*
X139320586Y-90894979D01*
X139321828Y-90895312D01*
X139343326Y-90909676D01*
X139390199Y-90919000D01*
X140714801Y-90919000D01*
X140761674Y-90909676D01*
X140788016Y-90892074D01*
X140790012Y-90891943D01*
X140791123Y-90893606D01*
G37*
G36*
X133312975Y-88571302D02*
G01*
X133356118Y-88605312D01*
X133416573Y-88607686D01*
X133463914Y-88576054D01*
X133465910Y-88575923D01*
X133467021Y-88577586D01*
X133466688Y-88578828D01*
X133452324Y-88600326D01*
X133443000Y-88647199D01*
X133443000Y-89971801D01*
X133452324Y-90018674D01*
X133469926Y-90045016D01*
X133470057Y-90047012D01*
X133468394Y-90048123D01*
X133467025Y-90047698D01*
X133423882Y-90013688D01*
X133363427Y-90011314D01*
X133316086Y-90042946D01*
X133314090Y-90043077D01*
X133312979Y-90041414D01*
X133313312Y-90040172D01*
X133327676Y-90018674D01*
X133337000Y-89971801D01*
X133337000Y-88647199D01*
X133327676Y-88600326D01*
X133310074Y-88573984D01*
X133309943Y-88571988D01*
X133311606Y-88570877D01*
X133312975Y-88571302D01*
G37*
G36*
X136312975Y-88571302D02*
G01*
X136356118Y-88605312D01*
X136416573Y-88607686D01*
X136463914Y-88576054D01*
X136465910Y-88575923D01*
X136467021Y-88577586D01*
X136466688Y-88578828D01*
X136452324Y-88600326D01*
X136443000Y-88647199D01*
X136443000Y-89971801D01*
X136452324Y-90018674D01*
X136469926Y-90045016D01*
X136470057Y-90047012D01*
X136468394Y-90048123D01*
X136467025Y-90047698D01*
X136423882Y-90013688D01*
X136363427Y-90011314D01*
X136316086Y-90042946D01*
X136314090Y-90043077D01*
X136312979Y-90041414D01*
X136313312Y-90040172D01*
X136327676Y-90018674D01*
X136337000Y-89971801D01*
X136337000Y-88647199D01*
X136327676Y-88600326D01*
X136310074Y-88573984D01*
X136309943Y-88571988D01*
X136311606Y-88570877D01*
X136312975Y-88571302D01*
G37*
G36*
X135812975Y-88571302D02*
G01*
X135856118Y-88605312D01*
X135916573Y-88607686D01*
X135963914Y-88576054D01*
X135965910Y-88575923D01*
X135967021Y-88577586D01*
X135966688Y-88578828D01*
X135952324Y-88600326D01*
X135943000Y-88647199D01*
X135943000Y-89971801D01*
X135952324Y-90018674D01*
X135969926Y-90045016D01*
X135970057Y-90047012D01*
X135968394Y-90048123D01*
X135967025Y-90047698D01*
X135923882Y-90013688D01*
X135863427Y-90011314D01*
X135816086Y-90042946D01*
X135814090Y-90043077D01*
X135812979Y-90041414D01*
X135813312Y-90040172D01*
X135827676Y-90018674D01*
X135837000Y-89971801D01*
X135837000Y-88647199D01*
X135827676Y-88600326D01*
X135810074Y-88573984D01*
X135809943Y-88571988D01*
X135811606Y-88570877D01*
X135812975Y-88571302D01*
G37*
G36*
X135312975Y-88571302D02*
G01*
X135356118Y-88605312D01*
X135416573Y-88607686D01*
X135463914Y-88576054D01*
X135465910Y-88575923D01*
X135467021Y-88577586D01*
X135466688Y-88578828D01*
X135452324Y-88600326D01*
X135443000Y-88647199D01*
X135443000Y-89971801D01*
X135452324Y-90018674D01*
X135469926Y-90045016D01*
X135470057Y-90047012D01*
X135468394Y-90048123D01*
X135467025Y-90047698D01*
X135423882Y-90013688D01*
X135363427Y-90011314D01*
X135316086Y-90042946D01*
X135314090Y-90043077D01*
X135312979Y-90041414D01*
X135313312Y-90040172D01*
X135327676Y-90018674D01*
X135337000Y-89971801D01*
X135337000Y-88647199D01*
X135327676Y-88600326D01*
X135310074Y-88573984D01*
X135309943Y-88571988D01*
X135311606Y-88570877D01*
X135312975Y-88571302D01*
G37*
G36*
X138312975Y-88571302D02*
G01*
X138356118Y-88605312D01*
X138416573Y-88607686D01*
X138463914Y-88576054D01*
X138465910Y-88575923D01*
X138467021Y-88577586D01*
X138466688Y-88578828D01*
X138452324Y-88600326D01*
X138443000Y-88647199D01*
X138443000Y-89971801D01*
X138452324Y-90018674D01*
X138469926Y-90045016D01*
X138470057Y-90047012D01*
X138468394Y-90048123D01*
X138467025Y-90047698D01*
X138423882Y-90013688D01*
X138363427Y-90011314D01*
X138316086Y-90042946D01*
X138314090Y-90043077D01*
X138312979Y-90041414D01*
X138313312Y-90040172D01*
X138327676Y-90018674D01*
X138337000Y-89971801D01*
X138337000Y-88647199D01*
X138327676Y-88600326D01*
X138310074Y-88573984D01*
X138309943Y-88571988D01*
X138311606Y-88570877D01*
X138312975Y-88571302D01*
G37*
G36*
X136812975Y-88571302D02*
G01*
X136856118Y-88605312D01*
X136916573Y-88607686D01*
X136963914Y-88576054D01*
X136965910Y-88575923D01*
X136967021Y-88577586D01*
X136966688Y-88578828D01*
X136952324Y-88600326D01*
X136943000Y-88647199D01*
X136943000Y-89971801D01*
X136952324Y-90018674D01*
X136969926Y-90045016D01*
X136970057Y-90047012D01*
X136968394Y-90048123D01*
X136967025Y-90047698D01*
X136923882Y-90013688D01*
X136863427Y-90011314D01*
X136816086Y-90042946D01*
X136814090Y-90043077D01*
X136812979Y-90041414D01*
X136813312Y-90040172D01*
X136827676Y-90018674D01*
X136837000Y-89971801D01*
X136837000Y-88647199D01*
X136827676Y-88600326D01*
X136810074Y-88573984D01*
X136809943Y-88571988D01*
X136811606Y-88570877D01*
X136812975Y-88571302D01*
G37*
G36*
X133812975Y-88571302D02*
G01*
X133856118Y-88605312D01*
X133916573Y-88607686D01*
X133963914Y-88576054D01*
X133965910Y-88575923D01*
X133967021Y-88577586D01*
X133966688Y-88578828D01*
X133952324Y-88600326D01*
X133943000Y-88647199D01*
X133943000Y-89971801D01*
X133952324Y-90018674D01*
X133969926Y-90045016D01*
X133970057Y-90047012D01*
X133968394Y-90048123D01*
X133967025Y-90047698D01*
X133923882Y-90013688D01*
X133863427Y-90011314D01*
X133816086Y-90042946D01*
X133814090Y-90043077D01*
X133812979Y-90041414D01*
X133813312Y-90040172D01*
X133827676Y-90018674D01*
X133837000Y-89971801D01*
X133837000Y-88647199D01*
X133827676Y-88600326D01*
X133810074Y-88573984D01*
X133809943Y-88571988D01*
X133811606Y-88570877D01*
X133812975Y-88571302D01*
G37*
G36*
X134812975Y-88571302D02*
G01*
X134856118Y-88605312D01*
X134916573Y-88607686D01*
X134963914Y-88576054D01*
X134965910Y-88575923D01*
X134967021Y-88577586D01*
X134966688Y-88578828D01*
X134952324Y-88600326D01*
X134943000Y-88647199D01*
X134943000Y-89971801D01*
X134952324Y-90018674D01*
X134969926Y-90045016D01*
X134970057Y-90047012D01*
X134968394Y-90048123D01*
X134967025Y-90047698D01*
X134923882Y-90013688D01*
X134863427Y-90011314D01*
X134816086Y-90042946D01*
X134814090Y-90043077D01*
X134812979Y-90041414D01*
X134813312Y-90040172D01*
X134827676Y-90018674D01*
X134837000Y-89971801D01*
X134837000Y-88647199D01*
X134827676Y-88600326D01*
X134810074Y-88573984D01*
X134809943Y-88571988D01*
X134811606Y-88570877D01*
X134812975Y-88571302D01*
G37*
G36*
X137812975Y-88571302D02*
G01*
X137856118Y-88605312D01*
X137916573Y-88607686D01*
X137963914Y-88576054D01*
X137965910Y-88575923D01*
X137967021Y-88577586D01*
X137966688Y-88578828D01*
X137952324Y-88600326D01*
X137943000Y-88647199D01*
X137943000Y-89971801D01*
X137952324Y-90018674D01*
X137969926Y-90045016D01*
X137970057Y-90047012D01*
X137968394Y-90048123D01*
X137967025Y-90047698D01*
X137923882Y-90013688D01*
X137863427Y-90011314D01*
X137816086Y-90042946D01*
X137814090Y-90043077D01*
X137812979Y-90041414D01*
X137813312Y-90040172D01*
X137827676Y-90018674D01*
X137837000Y-89971801D01*
X137837000Y-88647199D01*
X137827676Y-88600326D01*
X137810074Y-88573984D01*
X137809943Y-88571988D01*
X137811606Y-88570877D01*
X137812975Y-88571302D01*
G37*
G36*
X137312975Y-88571302D02*
G01*
X137356118Y-88605312D01*
X137416573Y-88607686D01*
X137463914Y-88576054D01*
X137465910Y-88575923D01*
X137467021Y-88577586D01*
X137466688Y-88578828D01*
X137452324Y-88600326D01*
X137443000Y-88647199D01*
X137443000Y-89971801D01*
X137452324Y-90018674D01*
X137469926Y-90045016D01*
X137470057Y-90047012D01*
X137468394Y-90048123D01*
X137467025Y-90047698D01*
X137423882Y-90013688D01*
X137363427Y-90011314D01*
X137316086Y-90042946D01*
X137314090Y-90043077D01*
X137312979Y-90041414D01*
X137313312Y-90040172D01*
X137327676Y-90018674D01*
X137337000Y-89971801D01*
X137337000Y-88647199D01*
X137327676Y-88600326D01*
X137310074Y-88573984D01*
X137309943Y-88571988D01*
X137311606Y-88570877D01*
X137312975Y-88571302D01*
G37*
G36*
X134312975Y-88571302D02*
G01*
X134356118Y-88605312D01*
X134416573Y-88607686D01*
X134463914Y-88576054D01*
X134465910Y-88575923D01*
X134467021Y-88577586D01*
X134466688Y-88578828D01*
X134452324Y-88600326D01*
X134443000Y-88647199D01*
X134443000Y-89971801D01*
X134452324Y-90018674D01*
X134469926Y-90045016D01*
X134470057Y-90047012D01*
X134468394Y-90048123D01*
X134467025Y-90047698D01*
X134423882Y-90013688D01*
X134363427Y-90011314D01*
X134316086Y-90042946D01*
X134314090Y-90043077D01*
X134312979Y-90041414D01*
X134313312Y-90040172D01*
X134327676Y-90018674D01*
X134337000Y-89971801D01*
X134337000Y-88647199D01*
X134327676Y-88600326D01*
X134310074Y-88573984D01*
X134309943Y-88571988D01*
X134311606Y-88570877D01*
X134312975Y-88571302D01*
G37*
G36*
X139097157Y-78626020D02*
G01*
X139097325Y-78627294D01*
X139087000Y-78679199D01*
X139087000Y-79953801D01*
X139097325Y-80005706D01*
X139096682Y-80007600D01*
X139094720Y-80007990D01*
X139093700Y-80007207D01*
X139090659Y-80002657D01*
X139042883Y-79964992D01*
X138982428Y-79962617D01*
X138931876Y-79996394D01*
X138927500Y-80002419D01*
X138924300Y-80007207D01*
X138922506Y-80008092D01*
X138920843Y-80006980D01*
X138920675Y-80005706D01*
X138931000Y-79953801D01*
X138931000Y-78679199D01*
X138920675Y-78627294D01*
X138921318Y-78625400D01*
X138923280Y-78625010D01*
X138924300Y-78625793D01*
X138927341Y-78630343D01*
X138975117Y-78668008D01*
X139035572Y-78670383D01*
X139086124Y-78636606D01*
X139090500Y-78630581D01*
X139093700Y-78625793D01*
X139095494Y-78624908D01*
X139097157Y-78626020D01*
G37*
G36*
X137147157Y-78626020D02*
G01*
X137147325Y-78627294D01*
X137137000Y-78679199D01*
X137137000Y-79953801D01*
X137147325Y-80005706D01*
X137146682Y-80007600D01*
X137144720Y-80007990D01*
X137143700Y-80007207D01*
X137140659Y-80002657D01*
X137092883Y-79964992D01*
X137032428Y-79962617D01*
X136981876Y-79996394D01*
X136977500Y-80002419D01*
X136974300Y-80007207D01*
X136972506Y-80008092D01*
X136970843Y-80006980D01*
X136970675Y-80005706D01*
X136981000Y-79953801D01*
X136981000Y-78679199D01*
X136970675Y-78627294D01*
X136971318Y-78625400D01*
X136973280Y-78625010D01*
X136974300Y-78625793D01*
X136977341Y-78630343D01*
X137025117Y-78668008D01*
X137085572Y-78670383D01*
X137136124Y-78636606D01*
X137140500Y-78630581D01*
X137143700Y-78625793D01*
X137145494Y-78624908D01*
X137147157Y-78626020D01*
G37*
G36*
X137797157Y-78626020D02*
G01*
X137797325Y-78627294D01*
X137787000Y-78679199D01*
X137787000Y-79953801D01*
X137797325Y-80005706D01*
X137796682Y-80007600D01*
X137794720Y-80007990D01*
X137793700Y-80007207D01*
X137790659Y-80002657D01*
X137742883Y-79964992D01*
X137682428Y-79962617D01*
X137631876Y-79996394D01*
X137627500Y-80002419D01*
X137624300Y-80007207D01*
X137622506Y-80008092D01*
X137620843Y-80006980D01*
X137620675Y-80005706D01*
X137631000Y-79953801D01*
X137631000Y-78679199D01*
X137620675Y-78627294D01*
X137621318Y-78625400D01*
X137623280Y-78625010D01*
X137624300Y-78625793D01*
X137627341Y-78630343D01*
X137675117Y-78668008D01*
X137735572Y-78670383D01*
X137786124Y-78636606D01*
X137790500Y-78630581D01*
X137793700Y-78625793D01*
X137795494Y-78624908D01*
X137797157Y-78626020D01*
G37*
G36*
X140397157Y-78626020D02*
G01*
X140397325Y-78627294D01*
X140387000Y-78679199D01*
X140387000Y-79953801D01*
X140397325Y-80005706D01*
X140396682Y-80007600D01*
X140394720Y-80007990D01*
X140393700Y-80007207D01*
X140390659Y-80002657D01*
X140342883Y-79964992D01*
X140282428Y-79962617D01*
X140231876Y-79996394D01*
X140227500Y-80002419D01*
X140224300Y-80007207D01*
X140222506Y-80008092D01*
X140220843Y-80006980D01*
X140220675Y-80005706D01*
X140231000Y-79953801D01*
X140231000Y-78679199D01*
X140220675Y-78627294D01*
X140221318Y-78625400D01*
X140223280Y-78625010D01*
X140224300Y-78625793D01*
X140227341Y-78630343D01*
X140275117Y-78668008D01*
X140335572Y-78670383D01*
X140386124Y-78636606D01*
X140390500Y-78630581D01*
X140393700Y-78625793D01*
X140395494Y-78624908D01*
X140397157Y-78626020D01*
G37*
G36*
X138447157Y-78626020D02*
G01*
X138447325Y-78627294D01*
X138437000Y-78679199D01*
X138437000Y-79953801D01*
X138447325Y-80005706D01*
X138446682Y-80007600D01*
X138444720Y-80007990D01*
X138443700Y-80007207D01*
X138440659Y-80002657D01*
X138392883Y-79964992D01*
X138332428Y-79962617D01*
X138281876Y-79996394D01*
X138277500Y-80002419D01*
X138274300Y-80007207D01*
X138272506Y-80008092D01*
X138270843Y-80006980D01*
X138270675Y-80005706D01*
X138281000Y-79953801D01*
X138281000Y-78679199D01*
X138270675Y-78627294D01*
X138271318Y-78625400D01*
X138273280Y-78625010D01*
X138274300Y-78625793D01*
X138277341Y-78630343D01*
X138325117Y-78668008D01*
X138385572Y-78670383D01*
X138436124Y-78636606D01*
X138440500Y-78630581D01*
X138443700Y-78625793D01*
X138445494Y-78624908D01*
X138447157Y-78626020D01*
G37*
G36*
X139747157Y-78626020D02*
G01*
X139747325Y-78627294D01*
X139737000Y-78679199D01*
X139737000Y-79953801D01*
X139747325Y-80005706D01*
X139746682Y-80007600D01*
X139744720Y-80007990D01*
X139743700Y-80007207D01*
X139740659Y-80002657D01*
X139692883Y-79964992D01*
X139632428Y-79962617D01*
X139581876Y-79996394D01*
X139577500Y-80002419D01*
X139574300Y-80007207D01*
X139572506Y-80008092D01*
X139570843Y-80006980D01*
X139570675Y-80005706D01*
X139581000Y-79953801D01*
X139581000Y-78679199D01*
X139570675Y-78627294D01*
X139571318Y-78625400D01*
X139573280Y-78625010D01*
X139574300Y-78625793D01*
X139577341Y-78630343D01*
X139625117Y-78668008D01*
X139685572Y-78670383D01*
X139736124Y-78636606D01*
X139740500Y-78630581D01*
X139743700Y-78625793D01*
X139745494Y-78624908D01*
X139747157Y-78626020D01*
G37*
G36*
X133062023Y-75032196D02*
G01*
X133062413Y-75034158D01*
X133062090Y-75034753D01*
X133027116Y-75079118D01*
X133024742Y-75139573D01*
X133058518Y-75190122D01*
X133058730Y-75190276D01*
X133059545Y-75192102D01*
X133058371Y-75193721D01*
X133057166Y-75193857D01*
X133042801Y-75191000D01*
X131943199Y-75191000D01*
X131925871Y-75194447D01*
X131923977Y-75193804D01*
X131923587Y-75191842D01*
X131923910Y-75191247D01*
X131958884Y-75146882D01*
X131961258Y-75086427D01*
X131927482Y-75035878D01*
X131927270Y-75035724D01*
X131926455Y-75033898D01*
X131927629Y-75032279D01*
X131928834Y-75032143D01*
X131943199Y-75035000D01*
X133042801Y-75035000D01*
X133060129Y-75031553D01*
X133062023Y-75032196D01*
G37*
G36*
X128762023Y-75032196D02*
G01*
X128762413Y-75034158D01*
X128762090Y-75034753D01*
X128727116Y-75079118D01*
X128724742Y-75139573D01*
X128758518Y-75190122D01*
X128758730Y-75190276D01*
X128759545Y-75192102D01*
X128758371Y-75193721D01*
X128757166Y-75193857D01*
X128742801Y-75191000D01*
X127643199Y-75191000D01*
X127625871Y-75194447D01*
X127623977Y-75193804D01*
X127623587Y-75191842D01*
X127623910Y-75191247D01*
X127658884Y-75146882D01*
X127661258Y-75086427D01*
X127627482Y-75035878D01*
X127627270Y-75035724D01*
X127626455Y-75033898D01*
X127627629Y-75032279D01*
X127628834Y-75032143D01*
X127643199Y-75035000D01*
X128742801Y-75035000D01*
X128760129Y-75031553D01*
X128762023Y-75032196D01*
G37*
G36*
X133062023Y-74382196D02*
G01*
X133062413Y-74384158D01*
X133062090Y-74384753D01*
X133027116Y-74429118D01*
X133024742Y-74489573D01*
X133058518Y-74540122D01*
X133058730Y-74540276D01*
X133059545Y-74542102D01*
X133058371Y-74543721D01*
X133057166Y-74543857D01*
X133042801Y-74541000D01*
X131943199Y-74541000D01*
X131925871Y-74544447D01*
X131923977Y-74543804D01*
X131923587Y-74541842D01*
X131923910Y-74541247D01*
X131958884Y-74496882D01*
X131961258Y-74436427D01*
X131927482Y-74385878D01*
X131927270Y-74385724D01*
X131926455Y-74383898D01*
X131927629Y-74382279D01*
X131928834Y-74382143D01*
X131943199Y-74385000D01*
X133042801Y-74385000D01*
X133060129Y-74381553D01*
X133062023Y-74382196D01*
G37*
G36*
X128762023Y-74382196D02*
G01*
X128762413Y-74384158D01*
X128762090Y-74384753D01*
X128727116Y-74429118D01*
X128724742Y-74489573D01*
X128758518Y-74540122D01*
X128758730Y-74540276D01*
X128759545Y-74542102D01*
X128758371Y-74543721D01*
X128757166Y-74543857D01*
X128742801Y-74541000D01*
X127643199Y-74541000D01*
X127625871Y-74544447D01*
X127623977Y-74543804D01*
X127623587Y-74541842D01*
X127623910Y-74541247D01*
X127658884Y-74496882D01*
X127661258Y-74436427D01*
X127627482Y-74385878D01*
X127627270Y-74385724D01*
X127626455Y-74383898D01*
X127627629Y-74382279D01*
X127628834Y-74382143D01*
X127643199Y-74385000D01*
X128742801Y-74385000D01*
X128760129Y-74381553D01*
X128762023Y-74382196D01*
G37*
G36*
X137147157Y-72901020D02*
G01*
X137147325Y-72902294D01*
X137137000Y-72954199D01*
X137137000Y-74228801D01*
X137147325Y-74280706D01*
X137146682Y-74282600D01*
X137144720Y-74282990D01*
X137143700Y-74282207D01*
X137140659Y-74277657D01*
X137092883Y-74239992D01*
X137032428Y-74237617D01*
X136981876Y-74271394D01*
X136977500Y-74277419D01*
X136974300Y-74282207D01*
X136972506Y-74283092D01*
X136970843Y-74281980D01*
X136970675Y-74280706D01*
X136981000Y-74228801D01*
X136981000Y-72954199D01*
X136970675Y-72902294D01*
X136971318Y-72900400D01*
X136973280Y-72900010D01*
X136974300Y-72900793D01*
X136977341Y-72905343D01*
X137025117Y-72943008D01*
X137085572Y-72945383D01*
X137136124Y-72911606D01*
X137140500Y-72905581D01*
X137143700Y-72900793D01*
X137145494Y-72899908D01*
X137147157Y-72901020D01*
G37*
G36*
X137797157Y-72901020D02*
G01*
X137797325Y-72902294D01*
X137787000Y-72954199D01*
X137787000Y-74228801D01*
X137797325Y-74280706D01*
X137796682Y-74282600D01*
X137794720Y-74282990D01*
X137793700Y-74282207D01*
X137790659Y-74277657D01*
X137742883Y-74239992D01*
X137682428Y-74237617D01*
X137631876Y-74271394D01*
X137627500Y-74277419D01*
X137624300Y-74282207D01*
X137622506Y-74283092D01*
X137620843Y-74281980D01*
X137620675Y-74280706D01*
X137631000Y-74228801D01*
X137631000Y-72954199D01*
X137620675Y-72902294D01*
X137621318Y-72900400D01*
X137623280Y-72900010D01*
X137624300Y-72900793D01*
X137627341Y-72905343D01*
X137675117Y-72943008D01*
X137735572Y-72945383D01*
X137786124Y-72911606D01*
X137790500Y-72905581D01*
X137793700Y-72900793D01*
X137795494Y-72899908D01*
X137797157Y-72901020D01*
G37*
G36*
X140397157Y-72901020D02*
G01*
X140397325Y-72902294D01*
X140387000Y-72954199D01*
X140387000Y-74228801D01*
X140397325Y-74280706D01*
X140396682Y-74282600D01*
X140394720Y-74282990D01*
X140393700Y-74282207D01*
X140390659Y-74277657D01*
X140342883Y-74239992D01*
X140282428Y-74237617D01*
X140231876Y-74271394D01*
X140227500Y-74277419D01*
X140224300Y-74282207D01*
X140222506Y-74283092D01*
X140220843Y-74281980D01*
X140220675Y-74280706D01*
X140231000Y-74228801D01*
X140231000Y-72954199D01*
X140220675Y-72902294D01*
X140221318Y-72900400D01*
X140223280Y-72900010D01*
X140224300Y-72900793D01*
X140227341Y-72905343D01*
X140275117Y-72943008D01*
X140335572Y-72945383D01*
X140386124Y-72911606D01*
X140390500Y-72905581D01*
X140393700Y-72900793D01*
X140395494Y-72899908D01*
X140397157Y-72901020D01*
G37*
G36*
X139747157Y-72901020D02*
G01*
X139747325Y-72902294D01*
X139737000Y-72954199D01*
X139737000Y-74228801D01*
X139747325Y-74280706D01*
X139746682Y-74282600D01*
X139744720Y-74282990D01*
X139743700Y-74282207D01*
X139740659Y-74277657D01*
X139692883Y-74239992D01*
X139632428Y-74237617D01*
X139581876Y-74271394D01*
X139577500Y-74277419D01*
X139574300Y-74282207D01*
X139572506Y-74283092D01*
X139570843Y-74281980D01*
X139570675Y-74280706D01*
X139581000Y-74228801D01*
X139581000Y-72954199D01*
X139570675Y-72902294D01*
X139571318Y-72900400D01*
X139573280Y-72900010D01*
X139574300Y-72900793D01*
X139577341Y-72905343D01*
X139625117Y-72943008D01*
X139685572Y-72945383D01*
X139736124Y-72911606D01*
X139740500Y-72905581D01*
X139743700Y-72900793D01*
X139745494Y-72899908D01*
X139747157Y-72901020D01*
G37*
G36*
X139097157Y-72901020D02*
G01*
X139097325Y-72902294D01*
X139087000Y-72954199D01*
X139087000Y-74228801D01*
X139097325Y-74280706D01*
X139096682Y-74282600D01*
X139094720Y-74282990D01*
X139093700Y-74282207D01*
X139090659Y-74277657D01*
X139042883Y-74239992D01*
X138982428Y-74237617D01*
X138931876Y-74271394D01*
X138927500Y-74277419D01*
X138924300Y-74282207D01*
X138922506Y-74283092D01*
X138920843Y-74281980D01*
X138920675Y-74280706D01*
X138931000Y-74228801D01*
X138931000Y-72954199D01*
X138920675Y-72902294D01*
X138921318Y-72900400D01*
X138923280Y-72900010D01*
X138924300Y-72900793D01*
X138927341Y-72905343D01*
X138975117Y-72943008D01*
X139035572Y-72945383D01*
X139086124Y-72911606D01*
X139090500Y-72905581D01*
X139093700Y-72900793D01*
X139095494Y-72899908D01*
X139097157Y-72901020D01*
G37*
G36*
X138447157Y-72901020D02*
G01*
X138447325Y-72902294D01*
X138437000Y-72954199D01*
X138437000Y-74228801D01*
X138447325Y-74280706D01*
X138446682Y-74282600D01*
X138444720Y-74282990D01*
X138443700Y-74282207D01*
X138440659Y-74277657D01*
X138392883Y-74239992D01*
X138332428Y-74237617D01*
X138281876Y-74271394D01*
X138277500Y-74277419D01*
X138274300Y-74282207D01*
X138272506Y-74283092D01*
X138270843Y-74281980D01*
X138270675Y-74280706D01*
X138281000Y-74228801D01*
X138281000Y-72954199D01*
X138270675Y-72902294D01*
X138271318Y-72900400D01*
X138273280Y-72900010D01*
X138274300Y-72900793D01*
X138277341Y-72905343D01*
X138325117Y-72943008D01*
X138385572Y-72945383D01*
X138436124Y-72911606D01*
X138440500Y-72905581D01*
X138443700Y-72900793D01*
X138445494Y-72899908D01*
X138447157Y-72901020D01*
G37*
G36*
X133062023Y-73732196D02*
G01*
X133062413Y-73734158D01*
X133062090Y-73734753D01*
X133027116Y-73779118D01*
X133024742Y-73839573D01*
X133058518Y-73890122D01*
X133058730Y-73890276D01*
X133059545Y-73892102D01*
X133058371Y-73893721D01*
X133057166Y-73893857D01*
X133042801Y-73891000D01*
X131943199Y-73891000D01*
X131925871Y-73894447D01*
X131923977Y-73893804D01*
X131923587Y-73891842D01*
X131923910Y-73891247D01*
X131958884Y-73846882D01*
X131961258Y-73786427D01*
X131927482Y-73735878D01*
X131927270Y-73735724D01*
X131926455Y-73733898D01*
X131927629Y-73732279D01*
X131928834Y-73732143D01*
X131943199Y-73735000D01*
X133042801Y-73735000D01*
X133060129Y-73731553D01*
X133062023Y-73732196D01*
G37*
G36*
X128762023Y-73732196D02*
G01*
X128762413Y-73734158D01*
X128762090Y-73734753D01*
X128727116Y-73779118D01*
X128724742Y-73839573D01*
X128758518Y-73890122D01*
X128758730Y-73890276D01*
X128759545Y-73892102D01*
X128758371Y-73893721D01*
X128757166Y-73893857D01*
X128742801Y-73891000D01*
X127643199Y-73891000D01*
X127625871Y-73894447D01*
X127623977Y-73893804D01*
X127623587Y-73891842D01*
X127623910Y-73891247D01*
X127658884Y-73846882D01*
X127661258Y-73786427D01*
X127627482Y-73735878D01*
X127627270Y-73735724D01*
X127626455Y-73733898D01*
X127627629Y-73732279D01*
X127628834Y-73732143D01*
X127643199Y-73735000D01*
X128742801Y-73735000D01*
X128760129Y-73731553D01*
X128762023Y-73732196D01*
G37*
M02*
