G04 #@! TF.GenerationSoftware,KiCad,Pcbnew,(6.0.1)*
G04 #@! TF.CreationDate,2022-08-31T18:15:56+03:00*
G04 #@! TF.ProjectId,wideband_controller,77696465-6261-46e6-945f-636f6e74726f,rev?*
G04 #@! TF.SameCoordinates,PX5d42830PY713e7a8*
G04 #@! TF.FileFunction,Copper,L4,Bot*
G04 #@! TF.FilePolarity,Positive*
%FSLAX46Y46*%
G04 Gerber Fmt 4.6, Leading zero omitted, Abs format (unit mm)*
G04 Created by KiCad (PCBNEW (6.0.1)) date 2022-08-31 18:15:56*
%MOMM*%
%LPD*%
G01*
G04 APERTURE LIST*
G04 #@! TA.AperFunction,ComponentPad*
%ADD10R,1.700000X1.700000*%
G04 #@! TD*
G04 #@! TA.AperFunction,ComponentPad*
%ADD11O,1.700000X1.700000*%
G04 #@! TD*
G04 #@! TA.AperFunction,ComponentPad*
%ADD12C,1.050000*%
G04 #@! TD*
G04 #@! TA.AperFunction,ViaPad*
%ADD13C,0.600000*%
G04 #@! TD*
G04 #@! TA.AperFunction,Conductor*
%ADD14C,0.250000*%
G04 #@! TD*
G04 #@! TA.AperFunction,Conductor*
%ADD15C,0.500000*%
G04 #@! TD*
G04 APERTURE END LIST*
D10*
G04 #@! TO.P,J3,1,Pin_1*
G04 #@! TO.N,/UART_TX*
X35819000Y6482000D03*
D11*
G04 #@! TO.P,J3,2,Pin_2*
G04 #@! TO.N,/UART_RX*
X35819000Y3942000D03*
G04 #@! TO.P,J3,3,Pin_3*
G04 #@! TO.N,GND*
X33279000Y6482000D03*
G04 #@! TO.P,J3,4,Pin_4*
G04 #@! TO.N,+5V*
X33279000Y3942000D03*
G04 #@! TD*
D10*
G04 #@! TO.P,J4,1,Pin_1*
G04 #@! TO.N,+3V3*
X27554000Y6604000D03*
D11*
G04 #@! TO.P,J4,2,Pin_2*
G04 #@! TO.N,+5V*
X25014000Y6604000D03*
G04 #@! TO.P,J4,3,Pin_3*
G04 #@! TO.N,/DISP0*
X22474000Y6604000D03*
G04 #@! TO.P,J4,4,Pin_4*
G04 #@! TO.N,/SWO*
X19934000Y6604000D03*
G04 #@! TO.P,J4,5,Pin_5*
G04 #@! TO.N,/DISP1*
X17394000Y6604000D03*
G04 #@! TO.P,J4,6,Pin_6*
G04 #@! TO.N,/DISP2*
X14854000Y6604000D03*
G04 #@! TO.P,J4,7,Pin_7*
G04 #@! TO.N,/DISP4*
X12314000Y6604000D03*
G04 #@! TO.P,J4,8,Pin_8*
G04 #@! TO.N,/DISP5*
X9774000Y6604000D03*
G04 #@! TO.P,J4,9,Pin_9*
G04 #@! TO.N,/DISP6*
X7234000Y6604000D03*
G04 #@! TO.P,J4,10,Pin_10*
G04 #@! TO.N,GND*
X4694000Y6604000D03*
G04 #@! TD*
D12*
G04 #@! TO.P,J2,1*
G04 #@! TO.N,12V_PROT*
X14215402Y56257490D03*
G04 #@! TO.P,J2,2*
G04 #@! TO.N,12V_RAW*
X14215402Y59257490D03*
G04 #@! TO.P,J2,3*
G04 #@! TO.N,/Vout2*
X16715402Y56257490D03*
G04 #@! TO.P,J2,4*
G04 #@! TO.N,/Vout1*
X16715402Y59257490D03*
G04 #@! TO.P,J2,5*
G04 #@! TO.N,/LSU_Vm*
X19215402Y56257490D03*
G04 #@! TO.P,J2,6*
G04 #@! TO.N,/LSU_Un*
X19215402Y59257490D03*
G04 #@! TO.P,J2,7*
G04 #@! TO.N,/LSU_Ip*
X21715402Y56257490D03*
G04 #@! TO.P,J2,8*
G04 #@! TO.N,/LSU_Rtrim*
X21715402Y59257490D03*
G04 #@! TO.P,J2,9*
G04 #@! TO.N,unconnected-(J2-Pad9)*
X24215402Y56257490D03*
G04 #@! TO.P,J2,10*
G04 #@! TO.N,unconnected-(J2-Pad10)*
X24215402Y59257490D03*
G04 #@! TO.P,J2,11*
G04 #@! TO.N,unconnected-(J2-Pad11)*
X26715402Y56257490D03*
G04 #@! TO.P,J2,12*
G04 #@! TO.N,unconnected-(J2-Pad12)*
X26715402Y59257490D03*
G04 #@! TO.P,J2,13*
G04 #@! TO.N,unconnected-(J2-Pad13)*
X29215402Y56257490D03*
G04 #@! TO.P,J2,14*
G04 #@! TO.N,unconnected-(J2-Pad14)*
X29215402Y59257490D03*
G04 #@! TO.P,J2,15*
G04 #@! TO.N,GND*
X31715402Y56257490D03*
G04 #@! TO.P,J2,16*
X31715402Y59257490D03*
G04 #@! TO.P,J2,17*
X34215402Y56257490D03*
G04 #@! TO.P,J2,18*
X34215402Y59257490D03*
G04 #@! TO.P,J2,19*
G04 #@! TO.N,/IN3*
X36715402Y56257490D03*
G04 #@! TO.P,J2,20*
G04 #@! TO.N,unconnected-(J2-Pad20)*
X36715402Y59257490D03*
G04 #@! TO.P,J2,21*
G04 #@! TO.N,/IN1*
X39215402Y56257490D03*
G04 #@! TO.P,J2,22*
G04 #@! TO.N,/IN4*
X39215402Y59257490D03*
G04 #@! TO.P,J2,23*
G04 #@! TO.N,/LSU_Heater-*
X41715402Y56257490D03*
G04 #@! TO.P,J2,24*
G04 #@! TO.N,/IN2*
X41715402Y59257490D03*
G04 #@! TO.P,J2,25*
G04 #@! TO.N,/CAN_H*
X44215402Y56257490D03*
G04 #@! TO.P,J2,26*
G04 #@! TO.N,/CAN_L*
X44215402Y59257490D03*
G04 #@! TD*
D10*
G04 #@! TO.P,TP1,1,1*
G04 #@! TO.N,/Boot0*
X22606000Y11049000D03*
G04 #@! TD*
G04 #@! TO.P,TP2,1,1*
G04 #@! TO.N,/nRESET*
X18034000Y11049000D03*
G04 #@! TD*
D13*
G04 #@! TO.N,GND*
X15494000Y17526000D03*
X48514000Y38504250D03*
X30950000Y45400000D03*
X31115000Y6350000D03*
X31115000Y10795000D03*
X39450000Y2600000D03*
X18209935Y22733000D03*
X12144600Y33401000D03*
X44577000Y38504250D03*
X47400000Y36250000D03*
X30861000Y53086000D03*
X32229332Y20066000D03*
X32258000Y53086000D03*
X18288000Y14605000D03*
X33020000Y10795000D03*
X18592175Y30748898D03*
X17780000Y27305000D03*
X40902989Y30942476D03*
X4064000Y42164000D03*
X44600000Y33500000D03*
X4850000Y22550000D03*
X28327425Y44339068D03*
X54229000Y35052000D03*
X29300000Y53100000D03*
X51950000Y31700000D03*
X43695000Y47439000D03*
X32766000Y35941000D03*
X4852779Y33329234D03*
X13335000Y36195000D03*
X40005000Y10795000D03*
X16002000Y24511000D03*
X9398000Y44831000D03*
X49150000Y33450000D03*
X54800000Y29750000D03*
X37846000Y36957000D03*
X38100000Y10795000D03*
X52578000Y38504250D03*
X43314000Y53154000D03*
X55300000Y31750000D03*
X32766000Y37211000D03*
X29763400Y35941000D03*
X40005000Y13335000D03*
X10414000Y19304000D03*
X26924000Y35941000D03*
X44965000Y42105000D03*
X11684000Y17526000D03*
X49450000Y53774000D03*
X15494000Y35179000D03*
X24060000Y53086000D03*
X52200000Y36250000D03*
X4064000Y44069000D03*
X25330000Y53086000D03*
X41400000Y45250000D03*
X10546337Y40235521D03*
X26600000Y53086000D03*
X24638000Y25527000D03*
X24638000Y32131000D03*
X46900000Y32900000D03*
X14478000Y41275000D03*
X12954000Y13335000D03*
X48267000Y42105000D03*
X13309412Y28977833D03*
X36354483Y19524122D03*
X38100000Y13335000D03*
X26924000Y34671000D03*
X42000000Y33435815D03*
X9398000Y43307000D03*
X20828000Y39497000D03*
G04 #@! TO.N,/LSU_Rtrim*
X22312400Y30099000D03*
X26924000Y38989000D03*
G04 #@! TO.N,/LSU_Un*
X17335508Y38290492D03*
X17526000Y25019000D03*
G04 #@! TO.N,/LSU_Vm*
X17526000Y34163000D03*
X26924000Y37211000D03*
G04 #@! TO.N,/LSU_Ip*
X26924000Y42799000D03*
G04 #@! TO.N,+5V*
X46235000Y41089000D03*
X51265379Y37559683D03*
X45645516Y37550158D03*
X47371000Y37557027D03*
X19276000Y16101000D03*
X51277690Y33109114D03*
X20066000Y16129000D03*
X13510500Y42339500D03*
X49700000Y45850000D03*
X13510500Y43101500D03*
G04 #@! TO.N,+3V3*
X44550000Y31200000D03*
X52070000Y30734000D03*
X40900000Y33445780D03*
X3200000Y29450000D03*
X10414000Y38735000D03*
X5334000Y12618400D03*
X5334000Y17907000D03*
X36830000Y36957000D03*
X10414000Y36195000D03*
X37464979Y20105751D03*
X24638000Y31115000D03*
X9652000Y37465000D03*
X49150000Y31200000D03*
X19558000Y30765432D03*
X9652000Y38735000D03*
X42049999Y38036393D03*
X24638000Y24592600D03*
X42030020Y35172942D03*
X47505000Y47439000D03*
X10414000Y37465000D03*
X51308000Y30734000D03*
G04 #@! TO.N,/nRESET*
X34036000Y32893000D03*
X24251131Y23413400D03*
G04 #@! TO.N,/Un_3x_sense*
X20447000Y27686000D03*
X25376369Y28994116D03*
G04 #@! TO.N,Net-(R12-Pad1)*
X23876000Y38735000D03*
X21491205Y36416372D03*
G04 #@! TO.N,/Ip_dac*
X30018979Y32974600D03*
X21336000Y31115000D03*
G04 #@! TO.N,/heater_pwm*
X40350000Y29350000D03*
X29099967Y49696671D03*
G04 #@! TO.N,/UART_TX*
X34036000Y12192000D03*
G04 #@! TO.N,/UART_RX*
X34036000Y13462000D03*
G04 #@! TO.N,/Boot0*
X27178000Y22733000D03*
X40400000Y30250000D03*
G04 #@! TO.N,/LED_BLUE*
X32766000Y18161000D03*
X22860000Y14856397D03*
G04 #@! TO.N,/LED_GREEN*
X36110289Y25366778D03*
X22860000Y15621000D03*
G04 #@! TO.N,/SWCLK*
X35520689Y24795706D03*
X6604000Y16510000D03*
X7076160Y22078659D03*
G04 #@! TO.N,/SWDIO*
X35113600Y20800000D03*
X5334000Y16510000D03*
G04 #@! TO.N,VDDA*
X23876000Y34671000D03*
X16764000Y22606000D03*
X13589000Y34449061D03*
X23876000Y35941000D03*
X12954000Y34462766D03*
G04 #@! TO.N,/Vout1*
X11094524Y31430930D03*
G04 #@! TO.N,/Vout2*
X14986000Y11049000D03*
G04 #@! TO.N,Net-(R20-Pad1)*
X24292916Y42623877D03*
X14732000Y26035000D03*
G04 #@! TO.N,/SWO*
X36113600Y27885724D03*
X7493000Y13208000D03*
X8532618Y22987000D03*
G04 #@! TO.N,/DISP6*
X37413336Y31335705D03*
G04 #@! TO.N,/DISP5*
X37338000Y30414600D03*
G04 #@! TO.N,/DISP4*
X36245669Y30168039D03*
G04 #@! TO.N,/DISP2*
X36113600Y29414930D03*
G04 #@! TO.N,/DISP1*
X36113600Y28650327D03*
G04 #@! TO.N,/DISP0*
X36874756Y25381160D03*
G04 #@! TO.N,/Vbatt_sense*
X25777187Y27828552D03*
X7620000Y23749000D03*
G04 #@! TO.N,/Un_sense*
X28194000Y34238316D03*
X17780000Y32893000D03*
G04 #@! TO.N,/Heater_sense*
X35052000Y32893000D03*
X28312256Y45465183D03*
G04 #@! TO.N,Net-(D3-Pad2)*
X6711194Y29488910D03*
X40386000Y24384000D03*
G04 #@! TO.N,/DAC_B*
X25254455Y22530856D03*
X29210000Y30099000D03*
G04 #@! TO.N,Net-(R56-Pad2)*
X55550000Y9700000D03*
X36703000Y13462000D03*
G04 #@! TO.N,Net-(R57-Pad2)*
X55600000Y11150000D03*
X36703000Y12192000D03*
G04 #@! TO.N,/DAC_A*
X29210000Y31115000D03*
X23368000Y22560600D03*
G04 #@! TO.N,/Input_1*
X32030926Y27219293D03*
X45550000Y31200000D03*
G04 #@! TO.N,/Input_3*
X32624291Y25888088D03*
X50150000Y31200000D03*
G04 #@! TO.N,/Input_4*
X48250000Y30010400D03*
X33388289Y25672111D03*
G04 #@! TO.N,/Input_2*
X32113600Y26457133D03*
X43600000Y30010400D03*
G04 #@! TO.N,Net-(C29-Pad2)*
X54356000Y37361250D03*
X52200000Y45900000D03*
X46881260Y35534762D03*
G04 #@! TD*
D14*
G04 #@! TO.N,/LSU_Rtrim*
X26924000Y38989000D02*
X26924000Y38481000D01*
X28796220Y36608780D02*
X28796220Y33749220D01*
D15*
X27638611Y43354389D02*
X22655013Y48337987D01*
D14*
X26924000Y38481000D02*
X28796220Y36608780D01*
X21341386Y30099000D02*
X22312400Y30099000D01*
D15*
X26924000Y41529000D02*
X27638611Y42243611D01*
X22655013Y58317879D02*
X21715402Y59257490D01*
X22655013Y48337987D02*
X22655013Y58317879D01*
X27638611Y42243611D02*
X27638611Y43354389D01*
D14*
X28033380Y32986380D02*
X22196766Y32986380D01*
D15*
X26924000Y38989000D02*
X26924000Y41529000D01*
D14*
X22196766Y32986380D02*
X20621389Y31411003D01*
X20621389Y31411003D02*
X20621389Y30818997D01*
X20621389Y30818997D02*
X21341386Y30099000D01*
X28796220Y33749220D02*
X28033380Y32986380D01*
G04 #@! TO.N,/LSU_Un*
X17335508Y38290492D02*
X18034000Y38988984D01*
X16510000Y37464984D02*
X16510000Y26035000D01*
X16510000Y26035000D02*
X17526000Y25019000D01*
X18034000Y38988984D02*
X18034000Y58039000D01*
X17335508Y38290492D02*
X16510000Y37464984D01*
X19215402Y59220402D02*
X19215402Y59257490D01*
X18034000Y58039000D02*
X19215402Y59220402D01*
G04 #@! TO.N,/LSU_Vm*
X18381380Y33815620D02*
X23901843Y33815620D01*
X26924000Y36837777D02*
X26924000Y37211000D01*
X18034000Y34163000D02*
X18381380Y33815620D01*
X23901843Y33815620D02*
X26924000Y36837777D01*
X17526000Y34163000D02*
X18034000Y34163000D01*
D15*
G04 #@! TO.N,/LSU_Ip*
X26924000Y42799000D02*
X26924000Y43053000D01*
X26924000Y43053000D02*
X21715402Y48261598D01*
X21715402Y48261598D02*
X21715402Y56257490D01*
D14*
G04 #@! TO.N,/nRESET*
X28877639Y31877000D02*
X29972000Y31877000D01*
X27779380Y30778741D02*
X28877639Y31877000D01*
X27779380Y26543000D02*
X27779380Y30778741D01*
X24251131Y23413400D02*
X24649780Y23413400D01*
X24649780Y23413400D02*
X27779380Y26543000D01*
X29972000Y31877000D02*
X30988000Y32893000D01*
X30988000Y32893000D02*
X34036000Y32893000D01*
G04 #@! TO.N,/Un_3x_sense*
X20447000Y28448000D02*
X20447000Y27686000D01*
X21336000Y29337000D02*
X20447000Y28448000D01*
X25376369Y28994116D02*
X25033485Y29337000D01*
X25033485Y29337000D02*
X21336000Y29337000D01*
G04 #@! TO.N,Net-(R12-Pad1)*
X23114000Y38735000D02*
X23876000Y38735000D01*
X21491205Y37112205D02*
X23114000Y38735000D01*
X21491205Y36416372D02*
X21491205Y37112205D01*
G04 #@! TO.N,/Ip_dac*
X21336000Y31115000D02*
X23622000Y31115000D01*
X29370620Y32291620D02*
X30018979Y32939979D01*
X30018979Y32939979D02*
X30018979Y32974600D01*
X24939062Y30525389D02*
X26705293Y32291620D01*
X26705293Y32291620D02*
X29370620Y32291620D01*
X24211611Y30525389D02*
X24939062Y30525389D01*
X23622000Y31115000D02*
X24211611Y30525389D01*
G04 #@! TO.N,/heater_pwm*
X40597837Y29350000D02*
X41535380Y30287543D01*
X41535380Y30287543D02*
X41535380Y31164620D01*
X41535380Y31164620D02*
X39116000Y33584000D01*
X40350000Y29350000D02*
X40597837Y29350000D01*
X30253329Y49696671D02*
X29099967Y49696671D01*
X39116000Y33584000D02*
X39116000Y40834000D01*
X39116000Y40834000D02*
X30253329Y49696671D01*
G04 #@! TO.N,/UART_TX*
X35814000Y10414000D02*
X35814000Y9906000D01*
X35814000Y9906000D02*
X35819000Y9901000D01*
X34036000Y12192000D02*
X35814000Y10414000D01*
X35819000Y9901000D02*
X35819000Y6482000D01*
G04 #@! TO.N,/UART_RX*
X34544000Y10541000D02*
X34544000Y5217000D01*
X34544000Y5217000D02*
X35819000Y3942000D01*
X33446389Y11638611D02*
X34544000Y10541000D01*
X34036000Y13462000D02*
X33446389Y12872389D01*
X33446389Y12872389D02*
X33446389Y11638611D01*
G04 #@! TO.N,/Boot0*
X34000000Y29301000D02*
X34000000Y25450000D01*
X31283000Y22733000D02*
X27178000Y22733000D01*
X40400000Y30250000D02*
X39950000Y30250000D01*
X34000000Y25450000D02*
X31283000Y22733000D01*
X38274684Y31925316D02*
X36624316Y31925316D01*
X39950000Y30250000D02*
X38274684Y31925316D01*
X36624316Y31925316D02*
X34000000Y29301000D01*
G04 #@! TO.N,/LED_BLUE*
X29461397Y14856397D02*
X32766000Y18161000D01*
X22860000Y14856397D02*
X29461397Y14856397D01*
G04 #@! TO.N,/LED_GREEN*
X29144688Y15621000D02*
X22860000Y15621000D01*
X34197437Y19050000D02*
X32573688Y19050000D01*
X32573688Y19050000D02*
X29144688Y15621000D01*
X36110289Y25366778D02*
X36110289Y20962852D01*
X36110289Y20962852D02*
X34197437Y19050000D01*
G04 #@! TO.N,/SWCLK*
X8783262Y22078659D02*
X7076160Y22078659D01*
X31299362Y21463000D02*
X10628397Y21463000D01*
X34636362Y24800000D02*
X31299362Y21463000D01*
X8783624Y22079021D02*
X8783262Y22078659D01*
X10012376Y22079021D02*
X8783624Y22079021D01*
X35516395Y24800000D02*
X34636362Y24800000D01*
X7076160Y22078659D02*
X6604000Y21606499D01*
X6604000Y21606499D02*
X6604000Y16510000D01*
X10628397Y21463000D02*
X10012376Y22079021D01*
X35520689Y24795706D02*
X35516395Y24800000D01*
G04 #@! TO.N,/SWDIO*
X8001000Y15875000D02*
X5962377Y15875000D01*
X5962377Y15875000D02*
X5334000Y16503377D01*
X5334000Y16503377D02*
X5334000Y16510000D01*
X35040200Y20873400D02*
X12999400Y20873400D01*
X35113600Y20800000D02*
X35040200Y20873400D01*
X12999400Y20873400D02*
X8001000Y15875000D01*
D15*
G04 #@! TO.N,/Vout1*
X15494000Y39497000D02*
X15494000Y58036088D01*
X11100000Y35103000D02*
X15494000Y39497000D01*
X15494000Y58036088D02*
X16715402Y59257490D01*
X11100000Y31436406D02*
X11100000Y35103000D01*
X11094524Y31430930D02*
X11100000Y31436406D01*
D14*
G04 #@! TO.N,/Vout2*
X14986000Y11049000D02*
X8763000Y11049000D01*
X8763000Y11049000D02*
X4157380Y15654620D01*
X5774760Y22919760D02*
X16095380Y33240380D01*
X16095380Y55637468D02*
X16715402Y56257490D01*
X16095380Y33240380D02*
X16095380Y55637468D01*
X4157380Y15654620D02*
X4157380Y18208206D01*
X5774760Y19825586D02*
X5774760Y22919760D01*
X4157380Y18208206D02*
X5774760Y19825586D01*
G04 #@! TO.N,Net-(R20-Pad1)*
X15676163Y26035000D02*
X17281774Y24429389D01*
X17281774Y24429389D02*
X17770226Y24429389D01*
X17770226Y24429389D02*
X18115611Y24774774D01*
X18115611Y25263226D02*
X16924620Y26454217D01*
X16924620Y26454217D02*
X16924620Y37045783D01*
X18115611Y24774774D02*
X18115611Y25263226D01*
X16924620Y37045783D02*
X22502714Y42623877D01*
X14732000Y26035000D02*
X15676163Y26035000D01*
X22502714Y42623877D02*
X24292916Y42623877D01*
G04 #@! TO.N,/SWO*
X4572000Y16129000D02*
X7493000Y13208000D01*
X36085724Y27885724D02*
X34414620Y26214620D01*
X34414620Y25164620D02*
X31191256Y21941256D01*
X34414620Y26214620D02*
X34414620Y25164620D01*
X8532618Y22987000D02*
X6786152Y22987000D01*
X10033000Y22987000D02*
X8532618Y22987000D01*
X6786152Y22987000D02*
X6189380Y22390228D01*
X11078744Y21941256D02*
X10033000Y22987000D01*
X31191256Y21941256D02*
X11078744Y21941256D01*
X36113600Y27885724D02*
X36085724Y27885724D01*
X6189380Y19653845D02*
X4572000Y18036465D01*
X6189380Y22390228D02*
X6189380Y19653845D01*
X4572000Y18036465D02*
X4572000Y16129000D01*
G04 #@! TO.N,/DISP6*
X39717866Y29031175D02*
X39717866Y18635866D01*
X29527851Y5241127D02*
X28092632Y3805909D01*
X37338000Y16256000D02*
X35238447Y16256000D01*
X39717866Y18635866D02*
X37338000Y16256000D01*
X37413336Y31335705D02*
X39717866Y29031175D01*
X28092632Y3805909D02*
X10032091Y3805909D01*
X29527851Y10545404D02*
X29527851Y5241127D01*
X35238447Y16256000D02*
X29527851Y10545404D01*
X10032091Y3805909D02*
X7234000Y6604000D01*
G04 #@! TO.N,/DISP5*
X39303246Y18807608D02*
X37166258Y16670620D01*
X39303246Y28449354D02*
X39303246Y18807608D01*
X37338000Y30414600D02*
X39303246Y28449354D01*
X35066706Y16670620D02*
X29113231Y10717146D01*
X37166258Y16670620D02*
X35066706Y16670620D01*
X29113231Y10717146D02*
X29113231Y5412869D01*
X12157471Y4220529D02*
X9774000Y6604000D01*
X27920891Y4220529D02*
X12157471Y4220529D01*
X29113231Y5412869D02*
X27920891Y4220529D01*
G04 #@! TO.N,/DISP4*
X36245669Y30154331D02*
X38888626Y27511374D01*
X28698611Y10888888D02*
X28698611Y5584611D01*
X36994516Y17085240D02*
X34894964Y17085240D01*
X14282851Y4635149D02*
X12314000Y6604000D01*
X27749149Y4635149D02*
X14282851Y4635149D01*
X34894964Y17085240D02*
X28698611Y10888888D01*
X38888626Y18979350D02*
X36994516Y17085240D01*
X36245669Y30168039D02*
X36245669Y30154331D01*
X38888626Y27511374D02*
X38888626Y18979350D01*
X28698611Y5584611D02*
X27749149Y4635149D01*
G04 #@! TO.N,/DISP2*
X36113600Y29414930D02*
X36235070Y29414930D01*
X38474006Y19151092D02*
X36822774Y17499860D01*
X36822774Y17499860D02*
X34723223Y17499860D01*
X25115769Y5049769D02*
X16408231Y5049769D01*
X26289000Y6223000D02*
X25115769Y5049769D01*
X26289000Y9065639D02*
X26289000Y6223000D01*
X34723223Y17499860D02*
X26289000Y9065639D01*
X36235070Y29414930D02*
X38474006Y27175994D01*
X16408231Y5049769D02*
X14854000Y6604000D01*
X38474006Y27175994D02*
X38474006Y19151092D01*
G04 #@! TO.N,/DISP1*
X22990389Y5464389D02*
X18533611Y5464389D01*
X18533611Y5464389D02*
X17394000Y6604000D01*
X36651032Y17914480D02*
X34551481Y17914480D01*
X34551481Y17914480D02*
X23749000Y7112001D01*
X23749000Y6223000D02*
X22990389Y5464389D01*
X23749000Y7112001D02*
X23749000Y6223000D01*
X36199673Y28650327D02*
X38059386Y26790614D01*
X36113600Y28650327D02*
X36199673Y28650327D01*
X38059386Y19322834D02*
X36651032Y17914480D01*
X38059386Y26790614D02*
X38059386Y19322834D01*
G04 #@! TO.N,/DISP0*
X35155715Y19420715D02*
X22474000Y6739000D01*
X36850000Y21116202D02*
X35155715Y19421917D01*
X35155715Y19421917D02*
X35155715Y19420715D01*
X36850000Y25356404D02*
X36850000Y21116202D01*
X36874756Y25381160D02*
X36850000Y25356404D01*
X22474000Y6739000D02*
X22474000Y6604000D01*
G04 #@! TO.N,/Vbatt_sense*
X7620000Y23749000D02*
X21697635Y23749000D01*
X21697635Y23749000D02*
X25777187Y27828552D01*
G04 #@! TO.N,/Un_sense*
X28194000Y34238316D02*
X27356684Y33401000D01*
X18288000Y33401000D02*
X17780000Y32893000D01*
X27356684Y33401000D02*
X18288000Y33401000D01*
G04 #@! TO.N,/Heater_sense*
X35052000Y40251073D02*
X29837890Y45465183D01*
X29837890Y45465183D02*
X28312256Y45465183D01*
X35052000Y32893000D02*
X35052000Y40251073D01*
G04 #@! TO.N,Net-(D3-Pad2)*
X6711194Y29488910D02*
X6711194Y31603194D01*
X6711194Y31603194D02*
X12700000Y37592000D01*
X39530620Y33755742D02*
X41950000Y31336362D01*
X41950000Y31336362D02*
X41950000Y25948000D01*
X22062319Y60186261D02*
X25400000Y56848580D01*
X25400000Y55150000D02*
X39530620Y41019380D01*
X25400000Y56848580D02*
X25400000Y55150000D01*
X12700000Y59055000D02*
X13831261Y60186261D01*
X13831261Y60186261D02*
X22062319Y60186261D01*
X39530620Y41019380D02*
X39530620Y33755742D01*
X41950000Y25948000D02*
X40386000Y24384000D01*
X12700000Y37592000D02*
X12700000Y59055000D01*
G04 #@! TO.N,/DAC_B*
X25254455Y22530856D02*
X25254455Y22587455D01*
X28608620Y29497620D02*
X29210000Y30099000D01*
X25254455Y22587455D02*
X28608620Y25941620D01*
X28608620Y25941620D02*
X28608620Y29497620D01*
G04 #@! TO.N,Net-(R56-Pad2)*
X36458774Y11602389D02*
X36113389Y11947774D01*
X55070000Y9700000D02*
X53167611Y11602389D01*
X36113389Y12872389D02*
X36703000Y13462000D01*
X36113389Y11947774D02*
X36113389Y12872389D01*
X53167611Y11602389D02*
X36458774Y11602389D01*
X55550000Y9700000D02*
X55070000Y9700000D01*
G04 #@! TO.N,Net-(R57-Pad2)*
X54636000Y11150000D02*
X53594000Y12192000D01*
X53594000Y12192000D02*
X36703000Y12192000D01*
X55600000Y11150000D02*
X54636000Y11150000D01*
G04 #@! TO.N,/DAC_A*
X23368000Y22560600D02*
X24465600Y22560600D01*
X24664844Y22759844D02*
X24664844Y22775082D01*
X25010229Y23120467D02*
X25025467Y23120467D01*
X24664844Y22775082D02*
X25010229Y23120467D01*
X28194000Y30607000D02*
X28702000Y31115000D01*
X28702000Y31115000D02*
X29210000Y31115000D01*
X24465600Y22560600D02*
X24664844Y22759844D01*
X25025467Y23120467D02*
X28194000Y26289000D01*
X28194000Y26289000D02*
X28194000Y30607000D01*
G04 #@! TO.N,Net-(C29-Pad2)*
X54356000Y37361250D02*
X54356000Y43706000D01*
X46881260Y35534762D02*
X46896498Y35550000D01*
X46896498Y35550000D02*
X52544750Y35550000D01*
X54356000Y43744000D02*
X52200000Y45900000D01*
X52544750Y35550000D02*
X54356000Y37361250D01*
G04 #@! TD*
G04 #@! TA.AperFunction,Conductor*
G04 #@! TO.N,GND*
G36*
X53744609Y66873086D02*
G01*
X53749146Y66872286D01*
X53760001Y66870372D01*
X53770856Y66872286D01*
X53781881Y66872286D01*
X53781881Y66872206D01*
X53794388Y66872920D01*
X54017576Y66859420D01*
X54032678Y66857586D01*
X54155839Y66835017D01*
X54278997Y66812448D01*
X54293770Y66808807D01*
X54413315Y66771556D01*
X54532864Y66734303D01*
X54547068Y66728917D01*
X54775464Y66626125D01*
X54788906Y66619069D01*
X54915388Y66542608D01*
X55003225Y66489508D01*
X55015741Y66480869D01*
X55212884Y66326419D01*
X55224264Y66316336D01*
X55401336Y66139264D01*
X55411419Y66127884D01*
X55565866Y65930746D01*
X55574508Y65918225D01*
X55627608Y65830388D01*
X55704067Y65703909D01*
X55711125Y65690464D01*
X55813917Y65462068D01*
X55819303Y65447864D01*
X55856556Y65328315D01*
X55893807Y65208770D01*
X55897448Y65193997D01*
X55942586Y64947681D01*
X55944420Y64932576D01*
X55957920Y64709388D01*
X55957206Y64696881D01*
X55957286Y64696881D01*
X55957286Y64685856D01*
X55955372Y64675001D01*
X55957286Y64664146D01*
X55958086Y64659609D01*
X55960000Y64637730D01*
X55960000Y11839433D01*
X55939998Y11771312D01*
X55886342Y11724819D01*
X55816068Y11714715D01*
X55785784Y11723024D01*
X55764398Y11731882D01*
X55764392Y11731884D01*
X55756762Y11735044D01*
X55600000Y11755682D01*
X55443238Y11735044D01*
X55297159Y11674536D01*
X55290606Y11669508D01*
X55290603Y11669506D01*
X55202025Y11601538D01*
X55135805Y11575937D01*
X55125321Y11575500D01*
X54864438Y11575500D01*
X54796317Y11595502D01*
X54775343Y11612405D01*
X53847220Y12540528D01*
X53825837Y12551423D01*
X53808991Y12561747D01*
X53797604Y12570020D01*
X53789581Y12575849D01*
X53780150Y12578913D01*
X53780147Y12578915D01*
X53766763Y12583264D01*
X53748502Y12590828D01*
X53735964Y12597216D01*
X53735963Y12597216D01*
X53727126Y12601719D01*
X53703429Y12605472D01*
X53684210Y12610086D01*
X53661393Y12617500D01*
X37177679Y12617500D01*
X37109558Y12637502D01*
X37100975Y12643538D01*
X37012394Y12711508D01*
X37012393Y12711509D01*
X37005841Y12716536D01*
X37000550Y12718728D01*
X36952364Y12769262D01*
X36938926Y12838975D01*
X36965312Y12904886D01*
X37000224Y12935137D01*
X37005841Y12937464D01*
X37131282Y13033718D01*
X37150326Y13058536D01*
X37211230Y13137909D01*
X37227536Y13159159D01*
X37288044Y13305238D01*
X37308682Y13462000D01*
X37288044Y13618762D01*
X37284090Y13628309D01*
X37230696Y13757211D01*
X37227536Y13764841D01*
X37131282Y13890282D01*
X37005841Y13986536D01*
X36859762Y14047044D01*
X36703000Y14067682D01*
X36546238Y14047044D01*
X36400159Y13986536D01*
X36274718Y13890282D01*
X36178464Y13764841D01*
X36175304Y13757211D01*
X36121911Y13628309D01*
X36117956Y13618762D01*
X36116878Y13610574D01*
X36116878Y13610573D01*
X36102304Y13499874D01*
X36073582Y13434946D01*
X36066477Y13427225D01*
X35764861Y13125609D01*
X35753966Y13104226D01*
X35743642Y13087380D01*
X35729540Y13067970D01*
X35726476Y13058539D01*
X35726474Y13058536D01*
X35722125Y13045152D01*
X35714561Y13026891D01*
X35703670Y13005515D01*
X35702119Y12995721D01*
X35699917Y12981819D01*
X35695303Y12962599D01*
X35687889Y12939782D01*
X35687889Y11880381D01*
X35695303Y11857564D01*
X35699917Y11838345D01*
X35703670Y11814648D01*
X35708173Y11805811D01*
X35708173Y11805810D01*
X35714561Y11793272D01*
X35722125Y11775011D01*
X35726474Y11761627D01*
X35726476Y11761624D01*
X35729540Y11752193D01*
X35735369Y11744170D01*
X35743642Y11732783D01*
X35753966Y11715937D01*
X35764861Y11694554D01*
X35788835Y11670580D01*
X36110245Y11349171D01*
X36110246Y11349169D01*
X36205554Y11253861D01*
X36226933Y11242968D01*
X36243786Y11232640D01*
X36263193Y11218540D01*
X36272624Y11215476D01*
X36272625Y11215475D01*
X36286011Y11211125D01*
X36304272Y11203561D01*
X36316023Y11197574D01*
X36325648Y11192670D01*
X36349345Y11188917D01*
X36368564Y11184303D01*
X36391381Y11176889D01*
X52939173Y11176889D01*
X53007294Y11156887D01*
X53028268Y11139984D01*
X54812460Y9355792D01*
X54832605Y9318900D01*
X54873138Y9312202D01*
X54874421Y9316150D01*
X54897237Y9308736D01*
X54915498Y9301172D01*
X54928036Y9294784D01*
X54936874Y9290281D01*
X54960571Y9286528D01*
X54979790Y9281914D01*
X55002607Y9274500D01*
X55075321Y9274500D01*
X55143442Y9254498D01*
X55152025Y9248462D01*
X55240603Y9180494D01*
X55240606Y9180492D01*
X55247159Y9175464D01*
X55393238Y9114956D01*
X55550000Y9094318D01*
X55558188Y9095396D01*
X55698574Y9113878D01*
X55706762Y9114956D01*
X55714389Y9118115D01*
X55714392Y9118116D01*
X55785782Y9147687D01*
X55856372Y9155276D01*
X55919859Y9123497D01*
X55956086Y9062438D01*
X55960000Y9031278D01*
X55960000Y3912270D01*
X55958086Y3890391D01*
X55955372Y3874999D01*
X55957286Y3864144D01*
X55957286Y3853119D01*
X55957206Y3853119D01*
X55957920Y3840612D01*
X55944420Y3617424D01*
X55942586Y3602319D01*
X55897448Y3356003D01*
X55893807Y3341230D01*
X55875697Y3283112D01*
X55819312Y3102162D01*
X55819305Y3102141D01*
X55813919Y3087937D01*
X55711125Y2859536D01*
X55704069Y2846094D01*
X55669180Y2788381D01*
X55574508Y2631775D01*
X55565869Y2619259D01*
X55411419Y2422116D01*
X55401336Y2410736D01*
X55224264Y2233664D01*
X55212884Y2223581D01*
X55015741Y2069131D01*
X55003225Y2060492D01*
X54957089Y2032601D01*
X54919005Y2009579D01*
X54850362Y1991454D01*
X54782816Y2013319D01*
X54781965Y2014358D01*
X54785131Y1992336D01*
X54755637Y1927756D01*
X54712125Y1895369D01*
X54547082Y1821089D01*
X54532864Y1815697D01*
X54413315Y1778444D01*
X54293770Y1741193D01*
X54278997Y1737552D01*
X54155839Y1714983D01*
X54032678Y1692414D01*
X54017576Y1690580D01*
X53794388Y1677080D01*
X53781881Y1677794D01*
X53781881Y1677714D01*
X53770856Y1677714D01*
X53760001Y1679628D01*
X53749146Y1677714D01*
X53744609Y1676914D01*
X53722730Y1675000D01*
X4697281Y1675000D01*
X4675396Y1676915D01*
X4670869Y1677714D01*
X4670866Y1677714D01*
X4660014Y1679628D01*
X4649159Y1677715D01*
X4638135Y1677715D01*
X4638135Y1677795D01*
X4625631Y1677081D01*
X4494963Y1684990D01*
X4402439Y1690591D01*
X4387335Y1692426D01*
X4264180Y1714999D01*
X4141021Y1737574D01*
X4126257Y1741213D01*
X3887157Y1815727D01*
X3872942Y1821119D01*
X3644580Y1923901D01*
X3631131Y1930960D01*
X3416792Y2060536D01*
X3404292Y2069166D01*
X3318644Y2136268D01*
X41731941Y2136268D01*
X54660413Y2136268D01*
X54728534Y2116266D01*
X54733882Y2110094D01*
X54731424Y2136268D01*
X54731941Y2136268D01*
X54724870Y9140697D01*
X54719550Y9140695D01*
X54719550Y9140696D01*
X44046192Y9137057D01*
X41731941Y9136268D01*
X41731941Y2136268D01*
X3318644Y2136268D01*
X3207156Y2223615D01*
X3195768Y2233704D01*
X3018704Y2410768D01*
X3008615Y2422156D01*
X2854166Y2619292D01*
X2845536Y2631792D01*
X2715960Y2846131D01*
X2708899Y2859585D01*
X2678742Y2926589D01*
X2606119Y3087942D01*
X2600725Y3102162D01*
X2593612Y3124988D01*
X2526213Y3341257D01*
X2522573Y3356025D01*
X2520098Y3369531D01*
X2485001Y3561006D01*
X2477426Y3602335D01*
X2475591Y3617439D01*
X2466537Y3767019D01*
X2462081Y3840631D01*
X2462795Y3853135D01*
X2462715Y3853135D01*
X2462715Y3864159D01*
X2464628Y3875014D01*
X2462714Y3885866D01*
X2462714Y3885869D01*
X2461915Y3890396D01*
X2460000Y3912281D01*
X2460000Y6438397D01*
X3552305Y6438397D01*
X3552914Y6429099D01*
X3554715Y6417727D01*
X3603896Y6224077D01*
X3607737Y6213231D01*
X3691386Y6031782D01*
X3697137Y6021821D01*
X3812455Y5858650D01*
X3819921Y5849908D01*
X3963047Y5710480D01*
X3971981Y5703246D01*
X4138112Y5592240D01*
X4148225Y5586749D01*
X4331805Y5507877D01*
X4342738Y5504325D01*
X4532700Y5461342D01*
X4541300Y5463509D01*
X4541666Y5463900D01*
X4544000Y5473709D01*
X4544000Y6435885D01*
X4539525Y6451124D01*
X4538135Y6452329D01*
X4530452Y6454000D01*
X3569397Y6454000D01*
X3554357Y6449584D01*
X3552305Y6438397D01*
X2460000Y6438397D01*
X2460000Y6771988D01*
X3555773Y6771988D01*
X3558215Y6757569D01*
X3570957Y6754000D01*
X4525885Y6754000D01*
X4541124Y6758475D01*
X4542329Y6759865D01*
X4544000Y6767548D01*
X4544000Y7727048D01*
X4540194Y7740010D01*
X4525279Y7741946D01*
X4400780Y7720553D01*
X4389660Y7717573D01*
X4202207Y7648418D01*
X4191829Y7643468D01*
X4020119Y7541312D01*
X4010807Y7534547D01*
X3860587Y7402806D01*
X3852670Y7394463D01*
X3728975Y7237557D01*
X3722704Y7227900D01*
X3629679Y7051088D01*
X3625273Y7040451D01*
X3566025Y6849644D01*
X3563632Y6838386D01*
X3555773Y6771988D01*
X2460000Y6771988D01*
X2460000Y10154354D01*
X16883500Y10154354D01*
X16886618Y10128154D01*
X16932061Y10025847D01*
X17011287Y9946759D01*
X17021924Y9942056D01*
X17021926Y9942055D01*
X17081462Y9915735D01*
X17113673Y9901494D01*
X17139354Y9898500D01*
X18928646Y9898500D01*
X18932350Y9898941D01*
X18932353Y9898941D01*
X18939746Y9899821D01*
X18954846Y9901618D01*
X19057153Y9947061D01*
X19136241Y10026287D01*
X19181506Y10128673D01*
X19184500Y10154354D01*
X21455500Y10154354D01*
X21458618Y10128154D01*
X21504061Y10025847D01*
X21583287Y9946759D01*
X21593924Y9942056D01*
X21593926Y9942055D01*
X21653462Y9915735D01*
X21685673Y9901494D01*
X21711354Y9898500D01*
X23500646Y9898500D01*
X23504350Y9898941D01*
X23504353Y9898941D01*
X23511746Y9899821D01*
X23526846Y9901618D01*
X23629153Y9947061D01*
X23708241Y10026287D01*
X23753506Y10128673D01*
X23756500Y10154354D01*
X23756500Y11943646D01*
X23753382Y11969846D01*
X23707939Y12072153D01*
X23628713Y12151241D01*
X23618076Y12155944D01*
X23618074Y12155945D01*
X23552138Y12185095D01*
X23526327Y12196506D01*
X23500646Y12199500D01*
X21711354Y12199500D01*
X21707650Y12199059D01*
X21707647Y12199059D01*
X21700254Y12198179D01*
X21685154Y12196382D01*
X21676514Y12192544D01*
X21676513Y12192544D01*
X21667463Y12188524D01*
X21582847Y12150939D01*
X21503759Y12071713D01*
X21499056Y12061076D01*
X21499055Y12061074D01*
X21478154Y12013796D01*
X21458494Y11969327D01*
X21455500Y11943646D01*
X21455500Y10154354D01*
X19184500Y10154354D01*
X19184500Y11943646D01*
X19181382Y11969846D01*
X19135939Y12072153D01*
X19056713Y12151241D01*
X19046076Y12155944D01*
X19046074Y12155945D01*
X18980138Y12185095D01*
X18954327Y12196506D01*
X18928646Y12199500D01*
X17139354Y12199500D01*
X17135650Y12199059D01*
X17135647Y12199059D01*
X17128254Y12198179D01*
X17113154Y12196382D01*
X17104514Y12192544D01*
X17104513Y12192544D01*
X17095463Y12188524D01*
X17010847Y12150939D01*
X16931759Y12071713D01*
X16927056Y12061076D01*
X16927055Y12061074D01*
X16906154Y12013796D01*
X16886494Y11969327D01*
X16883500Y11943646D01*
X16883500Y10154354D01*
X2460000Y10154354D01*
X2460000Y12618400D01*
X4728318Y12618400D01*
X4748956Y12461638D01*
X4809464Y12315559D01*
X4814491Y12309008D01*
X4899975Y12197603D01*
X4905718Y12190118D01*
X5031159Y12093864D01*
X5177238Y12033356D01*
X5334000Y12012718D01*
X5342188Y12013796D01*
X5482574Y12032278D01*
X5490762Y12033356D01*
X5636841Y12093864D01*
X5762282Y12190118D01*
X5768026Y12197603D01*
X5853509Y12309008D01*
X5858536Y12315559D01*
X5919044Y12461638D01*
X5939682Y12618400D01*
X5919044Y12775162D01*
X5858536Y12921241D01*
X5762282Y13046682D01*
X5636841Y13142936D01*
X5490762Y13203444D01*
X5334000Y13224082D01*
X5177238Y13203444D01*
X5031159Y13142936D01*
X4905718Y13046682D01*
X4809464Y12921241D01*
X4748956Y12775162D01*
X4728318Y12618400D01*
X2460000Y12618400D01*
X2460000Y15587227D01*
X3731880Y15587227D01*
X3739294Y15564410D01*
X3743908Y15545191D01*
X3747661Y15521494D01*
X3752164Y15512657D01*
X3752164Y15512656D01*
X3758552Y15500118D01*
X3766116Y15481857D01*
X3770465Y15468473D01*
X3770467Y15468470D01*
X3773531Y15459039D01*
X3779360Y15451016D01*
X3787633Y15439629D01*
X3797957Y15422783D01*
X3808852Y15401400D01*
X8509780Y10700472D01*
X8531163Y10689577D01*
X8548009Y10679253D01*
X8567419Y10665151D01*
X8576850Y10662087D01*
X8576853Y10662085D01*
X8590237Y10657736D01*
X8608498Y10650172D01*
X8616985Y10645848D01*
X8629874Y10639281D01*
X8653571Y10635528D01*
X8672790Y10630914D01*
X8695607Y10623500D01*
X14511321Y10623500D01*
X14579442Y10603498D01*
X14588025Y10597462D01*
X14676603Y10529494D01*
X14676606Y10529492D01*
X14683159Y10524464D01*
X14829238Y10463956D01*
X14986000Y10443318D01*
X14994188Y10444396D01*
X15134574Y10462878D01*
X15142762Y10463956D01*
X15288841Y10524464D01*
X15414282Y10620718D01*
X15510536Y10746159D01*
X15571044Y10892238D01*
X15591682Y11049000D01*
X15571044Y11205762D01*
X15510536Y11351841D01*
X15440564Y11443030D01*
X15419305Y11470736D01*
X15414282Y11477282D01*
X15288841Y11573536D01*
X15142762Y11634044D01*
X14986000Y11654682D01*
X14829238Y11634044D01*
X14683159Y11573536D01*
X14676608Y11568509D01*
X14676603Y11568506D01*
X14588025Y11500538D01*
X14521805Y11474937D01*
X14511321Y11474500D01*
X8991438Y11474500D01*
X8923317Y11494502D01*
X8902343Y11511405D01*
X7860341Y12553407D01*
X7826315Y12615719D01*
X7831380Y12686534D01*
X7872733Y12742465D01*
X7914733Y12774692D01*
X7914736Y12774695D01*
X7921282Y12779718D01*
X8017536Y12905159D01*
X8078044Y13051238D01*
X8098682Y13208000D01*
X8078044Y13364762D01*
X8017536Y13510841D01*
X7921282Y13636282D01*
X7795841Y13732536D01*
X7649762Y13793044D01*
X7602964Y13799205D01*
X7530874Y13808696D01*
X7465946Y13837418D01*
X7458225Y13844523D01*
X6068343Y15234405D01*
X6034317Y15296717D01*
X6039382Y15367532D01*
X6081929Y15424368D01*
X6148449Y15449179D01*
X6157438Y15449500D01*
X8068393Y15449500D01*
X8091210Y15456914D01*
X8110429Y15461528D01*
X8134126Y15465281D01*
X8142964Y15469784D01*
X8155502Y15476172D01*
X8173763Y15483736D01*
X8187147Y15488085D01*
X8187150Y15488087D01*
X8196581Y15491151D01*
X8215991Y15505253D01*
X8232837Y15515577D01*
X8254220Y15526472D01*
X8349528Y15621780D01*
X8828748Y16101000D01*
X18670318Y16101000D01*
X18690956Y15944238D01*
X18751464Y15798159D01*
X18847718Y15672718D01*
X18973159Y15576464D01*
X19119238Y15515956D01*
X19276000Y15495318D01*
X19284188Y15496396D01*
X19424574Y15514878D01*
X19432762Y15515956D01*
X19578841Y15576464D01*
X19585391Y15581490D01*
X19585398Y15581494D01*
X19612934Y15602624D01*
X19679154Y15628226D01*
X19752639Y15611782D01*
X19756610Y15609490D01*
X19763159Y15604464D01*
X19770785Y15601305D01*
X19770787Y15601304D01*
X19859841Y15564417D01*
X19909238Y15543956D01*
X20066000Y15523318D01*
X20074188Y15524396D01*
X20214574Y15542878D01*
X20222762Y15543956D01*
X20368841Y15604464D01*
X20494282Y15700718D01*
X20590536Y15826159D01*
X20651044Y15972238D01*
X20671682Y16129000D01*
X20651044Y16285762D01*
X20590536Y16431841D01*
X20494282Y16557282D01*
X20368841Y16653536D01*
X20222762Y16714044D01*
X20066000Y16734682D01*
X19909238Y16714044D01*
X19763159Y16653536D01*
X19756609Y16648510D01*
X19756602Y16648506D01*
X19729066Y16627376D01*
X19662846Y16601774D01*
X19589361Y16618218D01*
X19585390Y16620510D01*
X19578841Y16625536D01*
X19571215Y16628695D01*
X19571213Y16628696D01*
X19440391Y16682884D01*
X19432762Y16686044D01*
X19276000Y16706682D01*
X19119238Y16686044D01*
X18973159Y16625536D01*
X18847718Y16529282D01*
X18751464Y16403841D01*
X18690956Y16257762D01*
X18670318Y16101000D01*
X8828748Y16101000D01*
X13138742Y20410995D01*
X13201054Y20445021D01*
X13227837Y20447900D01*
X34564725Y20447900D01*
X34632846Y20427898D01*
X34664688Y20398603D01*
X34680292Y20378267D01*
X34680296Y20378263D01*
X34685318Y20371718D01*
X34691864Y20366695D01*
X34691867Y20366692D01*
X34702654Y20358415D01*
X34744522Y20301077D01*
X34748744Y20230206D01*
X34715046Y20169357D01*
X34058094Y19512405D01*
X33995782Y19478379D01*
X33968999Y19475500D01*
X32506295Y19475500D01*
X32483478Y19468086D01*
X32464259Y19463472D01*
X32440562Y19459719D01*
X32431725Y19455216D01*
X32431724Y19455216D01*
X32419186Y19448828D01*
X32400925Y19441264D01*
X32387541Y19436915D01*
X32387538Y19436913D01*
X32378107Y19433849D01*
X32370084Y19428020D01*
X32358697Y19419747D01*
X32341851Y19409423D01*
X32320468Y19398528D01*
X29005345Y16083405D01*
X28943033Y16049379D01*
X28916250Y16046500D01*
X23334679Y16046500D01*
X23266558Y16066502D01*
X23257975Y16072538D01*
X23169397Y16140506D01*
X23169392Y16140509D01*
X23162841Y16145536D01*
X23016762Y16206044D01*
X22860000Y16226682D01*
X22703238Y16206044D01*
X22557159Y16145536D01*
X22431718Y16049282D01*
X22335464Y15923841D01*
X22274956Y15777762D01*
X22254318Y15621000D01*
X22274956Y15464238D01*
X22335464Y15318159D01*
X22340494Y15311604D01*
X22344620Y15304457D01*
X22342325Y15303132D01*
X22363181Y15249173D01*
X22348911Y15179626D01*
X22344616Y15172943D01*
X22344620Y15172940D01*
X22340493Y15165792D01*
X22335464Y15159238D01*
X22274956Y15013159D01*
X22254318Y14856397D01*
X22274956Y14699635D01*
X22335464Y14553556D01*
X22431718Y14428115D01*
X22557159Y14331861D01*
X22703238Y14271353D01*
X22860000Y14250715D01*
X22868188Y14251793D01*
X23008574Y14270275D01*
X23016762Y14271353D01*
X23162841Y14331861D01*
X23169394Y14336889D01*
X23169397Y14336891D01*
X23257975Y14404859D01*
X23324195Y14430460D01*
X23334679Y14430897D01*
X29259959Y14430897D01*
X29328080Y14410895D01*
X29374573Y14357239D01*
X29384677Y14286965D01*
X29355183Y14222385D01*
X29349054Y14215802D01*
X22885599Y7752347D01*
X22823287Y7718321D01*
X22771923Y7717863D01*
X22600442Y7751972D01*
X22600440Y7751972D01*
X22594775Y7753099D01*
X22589000Y7753175D01*
X22588996Y7753175D01*
X22482976Y7754563D01*
X22383346Y7755867D01*
X22377649Y7754888D01*
X22377648Y7754888D01*
X22180650Y7721038D01*
X22180649Y7721038D01*
X22174953Y7720059D01*
X21976575Y7646873D01*
X21971614Y7643921D01*
X21971613Y7643921D01*
X21871300Y7584241D01*
X21794856Y7538762D01*
X21635881Y7399345D01*
X21504976Y7233292D01*
X21502287Y7228181D01*
X21502285Y7228178D01*
X21488792Y7202531D01*
X21406523Y7046164D01*
X21343820Y6844227D01*
X21343141Y6838490D01*
X21329088Y6719761D01*
X21301217Y6654463D01*
X21242469Y6614599D01*
X21171494Y6612826D01*
X21110828Y6649705D01*
X21079730Y6713529D01*
X21078490Y6723042D01*
X21078068Y6727644D01*
X21070081Y6814560D01*
X21063362Y6838386D01*
X21037781Y6929088D01*
X21012686Y7018069D01*
X21001649Y7040451D01*
X20921719Y7202531D01*
X20919165Y7207710D01*
X20792651Y7377133D01*
X20654160Y7505153D01*
X20641622Y7516743D01*
X20641620Y7516745D01*
X20637381Y7520663D01*
X20605670Y7540671D01*
X20463434Y7630416D01*
X20463433Y7630416D01*
X20458554Y7633495D01*
X20262160Y7711848D01*
X20256503Y7712973D01*
X20256497Y7712975D01*
X20060442Y7751972D01*
X20060440Y7751972D01*
X20054775Y7753099D01*
X20049000Y7753175D01*
X20048996Y7753175D01*
X19942976Y7754563D01*
X19843346Y7755867D01*
X19837649Y7754888D01*
X19837648Y7754888D01*
X19640650Y7721038D01*
X19640649Y7721038D01*
X19634953Y7720059D01*
X19436575Y7646873D01*
X19431614Y7643921D01*
X19431613Y7643921D01*
X19331300Y7584241D01*
X19254856Y7538762D01*
X19095881Y7399345D01*
X18964976Y7233292D01*
X18962287Y7228181D01*
X18962285Y7228178D01*
X18948792Y7202531D01*
X18866523Y7046164D01*
X18803820Y6844227D01*
X18803141Y6838490D01*
X18789088Y6719761D01*
X18761217Y6654463D01*
X18702469Y6614599D01*
X18631494Y6612826D01*
X18570828Y6649705D01*
X18539730Y6713529D01*
X18538490Y6723042D01*
X18538068Y6727644D01*
X18530081Y6814560D01*
X18523362Y6838386D01*
X18497781Y6929088D01*
X18472686Y7018069D01*
X18461649Y7040451D01*
X18381719Y7202531D01*
X18379165Y7207710D01*
X18252651Y7377133D01*
X18114160Y7505153D01*
X18101622Y7516743D01*
X18101620Y7516745D01*
X18097381Y7520663D01*
X18065670Y7540671D01*
X17923434Y7630416D01*
X17923433Y7630416D01*
X17918554Y7633495D01*
X17722160Y7711848D01*
X17716503Y7712973D01*
X17716497Y7712975D01*
X17520442Y7751972D01*
X17520440Y7751972D01*
X17514775Y7753099D01*
X17509000Y7753175D01*
X17508996Y7753175D01*
X17402976Y7754563D01*
X17303346Y7755867D01*
X17297649Y7754888D01*
X17297648Y7754888D01*
X17100650Y7721038D01*
X17100649Y7721038D01*
X17094953Y7720059D01*
X16896575Y7646873D01*
X16891614Y7643921D01*
X16891613Y7643921D01*
X16791300Y7584241D01*
X16714856Y7538762D01*
X16555881Y7399345D01*
X16424976Y7233292D01*
X16422287Y7228181D01*
X16422285Y7228178D01*
X16408792Y7202531D01*
X16326523Y7046164D01*
X16263820Y6844227D01*
X16263141Y6838490D01*
X16249088Y6719761D01*
X16221217Y6654463D01*
X16162469Y6614599D01*
X16091494Y6612826D01*
X16030828Y6649705D01*
X15999730Y6713529D01*
X15998490Y6723042D01*
X15998068Y6727644D01*
X15990081Y6814560D01*
X15983362Y6838386D01*
X15957781Y6929088D01*
X15932686Y7018069D01*
X15921649Y7040451D01*
X15841719Y7202531D01*
X15839165Y7207710D01*
X15712651Y7377133D01*
X15574160Y7505153D01*
X15561622Y7516743D01*
X15561620Y7516745D01*
X15557381Y7520663D01*
X15525670Y7540671D01*
X15383434Y7630416D01*
X15383433Y7630416D01*
X15378554Y7633495D01*
X15182160Y7711848D01*
X15176503Y7712973D01*
X15176497Y7712975D01*
X14980442Y7751972D01*
X14980440Y7751972D01*
X14974775Y7753099D01*
X14969000Y7753175D01*
X14968996Y7753175D01*
X14862976Y7754563D01*
X14763346Y7755867D01*
X14757649Y7754888D01*
X14757648Y7754888D01*
X14560650Y7721038D01*
X14560649Y7721038D01*
X14554953Y7720059D01*
X14356575Y7646873D01*
X14351614Y7643921D01*
X14351613Y7643921D01*
X14251300Y7584241D01*
X14174856Y7538762D01*
X14015881Y7399345D01*
X13884976Y7233292D01*
X13882287Y7228181D01*
X13882285Y7228178D01*
X13868792Y7202531D01*
X13786523Y7046164D01*
X13723820Y6844227D01*
X13723141Y6838490D01*
X13709088Y6719761D01*
X13681217Y6654463D01*
X13622469Y6614599D01*
X13551494Y6612826D01*
X13490828Y6649705D01*
X13459730Y6713529D01*
X13458490Y6723042D01*
X13458068Y6727644D01*
X13450081Y6814560D01*
X13443362Y6838386D01*
X13417781Y6929088D01*
X13392686Y7018069D01*
X13381649Y7040451D01*
X13301719Y7202531D01*
X13299165Y7207710D01*
X13172651Y7377133D01*
X13034160Y7505153D01*
X13021622Y7516743D01*
X13021620Y7516745D01*
X13017381Y7520663D01*
X12985670Y7540671D01*
X12843434Y7630416D01*
X12843433Y7630416D01*
X12838554Y7633495D01*
X12642160Y7711848D01*
X12636503Y7712973D01*
X12636497Y7712975D01*
X12440442Y7751972D01*
X12440440Y7751972D01*
X12434775Y7753099D01*
X12429000Y7753175D01*
X12428996Y7753175D01*
X12322976Y7754563D01*
X12223346Y7755867D01*
X12217649Y7754888D01*
X12217648Y7754888D01*
X12020650Y7721038D01*
X12020649Y7721038D01*
X12014953Y7720059D01*
X11816575Y7646873D01*
X11811614Y7643921D01*
X11811613Y7643921D01*
X11711300Y7584241D01*
X11634856Y7538762D01*
X11475881Y7399345D01*
X11344976Y7233292D01*
X11342287Y7228181D01*
X11342285Y7228178D01*
X11328792Y7202531D01*
X11246523Y7046164D01*
X11183820Y6844227D01*
X11183141Y6838490D01*
X11169088Y6719761D01*
X11141217Y6654463D01*
X11082469Y6614599D01*
X11011494Y6612826D01*
X10950828Y6649705D01*
X10919730Y6713529D01*
X10918490Y6723042D01*
X10918068Y6727644D01*
X10910081Y6814560D01*
X10903362Y6838386D01*
X10877781Y6929088D01*
X10852686Y7018069D01*
X10841649Y7040451D01*
X10761719Y7202531D01*
X10759165Y7207710D01*
X10632651Y7377133D01*
X10494160Y7505153D01*
X10481622Y7516743D01*
X10481620Y7516745D01*
X10477381Y7520663D01*
X10445670Y7540671D01*
X10303434Y7630416D01*
X10303433Y7630416D01*
X10298554Y7633495D01*
X10102160Y7711848D01*
X10096503Y7712973D01*
X10096497Y7712975D01*
X9900442Y7751972D01*
X9900440Y7751972D01*
X9894775Y7753099D01*
X9889000Y7753175D01*
X9888996Y7753175D01*
X9782976Y7754563D01*
X9683346Y7755867D01*
X9677649Y7754888D01*
X9677648Y7754888D01*
X9480650Y7721038D01*
X9480649Y7721038D01*
X9474953Y7720059D01*
X9276575Y7646873D01*
X9271614Y7643921D01*
X9271613Y7643921D01*
X9171300Y7584241D01*
X9094856Y7538762D01*
X8935881Y7399345D01*
X8804976Y7233292D01*
X8802287Y7228181D01*
X8802285Y7228178D01*
X8788792Y7202531D01*
X8706523Y7046164D01*
X8643820Y6844227D01*
X8643141Y6838490D01*
X8629088Y6719761D01*
X8601217Y6654463D01*
X8542469Y6614599D01*
X8471494Y6612826D01*
X8410828Y6649705D01*
X8379730Y6713529D01*
X8378490Y6723042D01*
X8378068Y6727644D01*
X8370081Y6814560D01*
X8363362Y6838386D01*
X8337781Y6929088D01*
X8312686Y7018069D01*
X8301649Y7040451D01*
X8221719Y7202531D01*
X8219165Y7207710D01*
X8092651Y7377133D01*
X7954160Y7505153D01*
X7941622Y7516743D01*
X7941620Y7516745D01*
X7937381Y7520663D01*
X7905670Y7540671D01*
X7763434Y7630416D01*
X7763433Y7630416D01*
X7758554Y7633495D01*
X7562160Y7711848D01*
X7556503Y7712973D01*
X7556497Y7712975D01*
X7360442Y7751972D01*
X7360440Y7751972D01*
X7354775Y7753099D01*
X7349000Y7753175D01*
X7348996Y7753175D01*
X7242976Y7754563D01*
X7143346Y7755867D01*
X7137649Y7754888D01*
X7137648Y7754888D01*
X6940650Y7721038D01*
X6940649Y7721038D01*
X6934953Y7720059D01*
X6736575Y7646873D01*
X6731614Y7643921D01*
X6731613Y7643921D01*
X6631300Y7584241D01*
X6554856Y7538762D01*
X6395881Y7399345D01*
X6264976Y7233292D01*
X6262287Y7228181D01*
X6262285Y7228178D01*
X6248792Y7202531D01*
X6166523Y7046164D01*
X6103820Y6844227D01*
X6103141Y6838490D01*
X6088806Y6717375D01*
X6060935Y6652078D01*
X6002187Y6612214D01*
X5931213Y6610440D01*
X5870546Y6647319D01*
X5839448Y6711143D01*
X5838208Y6720656D01*
X5830117Y6808715D01*
X5828020Y6820029D01*
X5773785Y7012330D01*
X5769663Y7023069D01*
X5681292Y7202267D01*
X5675282Y7212075D01*
X5555731Y7372173D01*
X5548041Y7380713D01*
X5401315Y7516346D01*
X5392190Y7523347D01*
X5223209Y7629966D01*
X5212965Y7635186D01*
X5027385Y7709225D01*
X5016347Y7712495D01*
X4861770Y7743241D01*
X4848894Y7742089D01*
X4844000Y7726936D01*
X4844000Y5481756D01*
X4847966Y5468250D01*
X4861966Y5466246D01*
X4957898Y5480155D01*
X4969081Y5482840D01*
X5158283Y5547066D01*
X5168786Y5551742D01*
X5343124Y5649375D01*
X5352596Y5655885D01*
X5506219Y5783652D01*
X5514348Y5791781D01*
X5642115Y5945404D01*
X5648625Y5954876D01*
X5746258Y6129214D01*
X5750934Y6139717D01*
X5815160Y6328919D01*
X5817845Y6340102D01*
X5838932Y6485541D01*
X5868502Y6550087D01*
X5928273Y6588399D01*
X5999270Y6588315D01*
X6058950Y6549860D01*
X6088367Y6485244D01*
X6089358Y6475702D01*
X6092796Y6423251D01*
X6094217Y6417655D01*
X6094218Y6417650D01*
X6119934Y6316397D01*
X6144845Y6218310D01*
X6233369Y6026286D01*
X6355405Y5853609D01*
X6367642Y5841688D01*
X6484441Y5727908D01*
X6506865Y5706063D01*
X6511661Y5702858D01*
X6511664Y5702856D01*
X6591704Y5649375D01*
X6682677Y5588589D01*
X6687985Y5586308D01*
X6687986Y5586308D01*
X6871650Y5507400D01*
X6871653Y5507399D01*
X6876953Y5505122D01*
X6882582Y5503848D01*
X6882583Y5503848D01*
X7077550Y5459731D01*
X7077553Y5459731D01*
X7083186Y5458456D01*
X7088957Y5458229D01*
X7088959Y5458229D01*
X7150989Y5455792D01*
X7294470Y5450154D01*
X7300179Y5450982D01*
X7300183Y5450982D01*
X7498015Y5479667D01*
X7498019Y5479668D01*
X7503730Y5480496D01*
X7617693Y5519181D01*
X7688628Y5522137D01*
X7747289Y5488963D01*
X9778871Y3457381D01*
X9800254Y3446486D01*
X9817100Y3436162D01*
X9836510Y3422060D01*
X9845941Y3418996D01*
X9845944Y3418994D01*
X9859328Y3414645D01*
X9877589Y3407081D01*
X9890127Y3400693D01*
X9898965Y3396190D01*
X9922662Y3392437D01*
X9941881Y3387823D01*
X9964698Y3380409D01*
X28160025Y3380409D01*
X28182842Y3387823D01*
X28202061Y3392437D01*
X28225758Y3396190D01*
X28234596Y3400693D01*
X28247134Y3407081D01*
X28265395Y3414645D01*
X28278779Y3418994D01*
X28278782Y3418996D01*
X28288213Y3422060D01*
X28307623Y3436162D01*
X28324469Y3446486D01*
X28345852Y3457381D01*
X28441160Y3552689D01*
X29852404Y4963932D01*
X29876379Y4987907D01*
X29887274Y5009290D01*
X29897598Y5026136D01*
X29905871Y5037523D01*
X29911700Y5045546D01*
X29914764Y5054977D01*
X29914766Y5054980D01*
X29919115Y5068364D01*
X29926679Y5086625D01*
X29933067Y5099163D01*
X29933067Y5099164D01*
X29937570Y5108001D01*
X29941323Y5131698D01*
X29945937Y5150917D01*
X29953351Y5173734D01*
X29953351Y6649988D01*
X32140773Y6649988D01*
X32143215Y6635569D01*
X32155957Y6632000D01*
X33110885Y6632000D01*
X33126124Y6636475D01*
X33127329Y6637865D01*
X33129000Y6645548D01*
X33129000Y7605048D01*
X33125194Y7618010D01*
X33110279Y7619946D01*
X32985780Y7598553D01*
X32974660Y7595573D01*
X32787207Y7526418D01*
X32776829Y7521468D01*
X32605119Y7419312D01*
X32595807Y7412547D01*
X32445587Y7280806D01*
X32437670Y7272463D01*
X32313975Y7115557D01*
X32307704Y7105900D01*
X32214679Y6929088D01*
X32210273Y6918451D01*
X32151025Y6727644D01*
X32148632Y6716386D01*
X32140773Y6649988D01*
X29953351Y6649988D01*
X29953351Y10316966D01*
X29973353Y10385087D01*
X29990256Y10406061D01*
X33226090Y13641895D01*
X33288402Y13675921D01*
X33359217Y13670856D01*
X33416053Y13628309D01*
X33440864Y13561789D01*
X33440107Y13536356D01*
X33436748Y13510841D01*
X33435304Y13499873D01*
X33406581Y13434946D01*
X33399477Y13427225D01*
X33097861Y13125609D01*
X33086966Y13104226D01*
X33076642Y13087380D01*
X33062540Y13067970D01*
X33059476Y13058539D01*
X33059474Y13058536D01*
X33055125Y13045152D01*
X33047561Y13026891D01*
X33036670Y13005515D01*
X33035119Y12995721D01*
X33032917Y12981819D01*
X33028303Y12962599D01*
X33020889Y12939782D01*
X33020889Y11571218D01*
X33028303Y11548401D01*
X33032917Y11529182D01*
X33036670Y11505485D01*
X33041173Y11496648D01*
X33041173Y11496647D01*
X33047561Y11484109D01*
X33055125Y11465848D01*
X33059474Y11452464D01*
X33059476Y11452461D01*
X33062540Y11443030D01*
X33068369Y11435007D01*
X33076642Y11423620D01*
X33086966Y11406774D01*
X33097861Y11385391D01*
X34081595Y10401657D01*
X34115621Y10339345D01*
X34118500Y10312562D01*
X34118500Y7540671D01*
X34098498Y7472550D01*
X34044842Y7426057D01*
X33974568Y7415953D01*
X33925264Y7434109D01*
X33808203Y7507969D01*
X33797965Y7513186D01*
X33612385Y7587225D01*
X33601347Y7590495D01*
X33446770Y7621241D01*
X33433894Y7620089D01*
X33429000Y7604936D01*
X33429000Y6458000D01*
X33408998Y6389879D01*
X33355342Y6343386D01*
X33303000Y6332000D01*
X32154397Y6332000D01*
X32139357Y6327584D01*
X32137305Y6316397D01*
X32137914Y6307099D01*
X32139715Y6295727D01*
X32188896Y6102077D01*
X32192737Y6091231D01*
X32276386Y5909782D01*
X32282137Y5899821D01*
X32397455Y5736650D01*
X32404921Y5727908D01*
X32548047Y5588480D01*
X32556981Y5581246D01*
X32723112Y5470240D01*
X32733225Y5464749D01*
X32916805Y5385877D01*
X32927738Y5382325D01*
X33122615Y5338229D01*
X33139753Y5335973D01*
X33139480Y5333900D01*
X33197986Y5314184D01*
X33242326Y5258736D01*
X33249650Y5188118D01*
X33217633Y5124751D01*
X33156439Y5088753D01*
X33147081Y5086776D01*
X32979953Y5058059D01*
X32781575Y4984873D01*
X32776614Y4981921D01*
X32776613Y4981921D01*
X32617633Y4887338D01*
X32599856Y4876762D01*
X32440881Y4737345D01*
X32309976Y4571292D01*
X32307287Y4566181D01*
X32307285Y4566178D01*
X32294928Y4542691D01*
X32211523Y4384164D01*
X32148820Y4182227D01*
X32123967Y3972246D01*
X32137796Y3761251D01*
X32139217Y3755655D01*
X32139218Y3755650D01*
X32178156Y3602335D01*
X32189845Y3556310D01*
X32278369Y3364286D01*
X32400405Y3191609D01*
X32551865Y3044063D01*
X32556661Y3040858D01*
X32556664Y3040856D01*
X32694482Y2948769D01*
X32727677Y2926589D01*
X32732985Y2924308D01*
X32732986Y2924308D01*
X32916650Y2845400D01*
X32916653Y2845399D01*
X32921953Y2843122D01*
X32927582Y2841848D01*
X32927583Y2841848D01*
X33122550Y2797731D01*
X33122553Y2797731D01*
X33128186Y2796456D01*
X33133957Y2796229D01*
X33133959Y2796229D01*
X33195989Y2793792D01*
X33339470Y2788154D01*
X33345179Y2788982D01*
X33345183Y2788982D01*
X33543015Y2817667D01*
X33543019Y2817668D01*
X33548730Y2818496D01*
X33630005Y2846085D01*
X33743483Y2884605D01*
X33743488Y2884607D01*
X33748955Y2886463D01*
X33753998Y2889287D01*
X33928395Y2986954D01*
X33928399Y2986957D01*
X33933442Y2989781D01*
X34096012Y3124988D01*
X34231219Y3287558D01*
X34234043Y3292601D01*
X34234046Y3292605D01*
X34331713Y3467002D01*
X34331714Y3467004D01*
X34334537Y3472045D01*
X34336393Y3477512D01*
X34336395Y3477517D01*
X34400647Y3666800D01*
X34402504Y3672270D01*
X34416242Y3767018D01*
X34424090Y3821140D01*
X34453660Y3885685D01*
X34513432Y3923997D01*
X34584429Y3923913D01*
X34644109Y3885458D01*
X34673525Y3820842D01*
X34674515Y3811305D01*
X34677796Y3761251D01*
X34679217Y3755655D01*
X34679218Y3755650D01*
X34718156Y3602335D01*
X34729845Y3556310D01*
X34818369Y3364286D01*
X34940405Y3191609D01*
X35091865Y3044063D01*
X35096661Y3040858D01*
X35096664Y3040856D01*
X35234482Y2948769D01*
X35267677Y2926589D01*
X35272985Y2924308D01*
X35272986Y2924308D01*
X35456650Y2845400D01*
X35456653Y2845399D01*
X35461953Y2843122D01*
X35467582Y2841848D01*
X35467583Y2841848D01*
X35662550Y2797731D01*
X35662553Y2797731D01*
X35668186Y2796456D01*
X35673957Y2796229D01*
X35673959Y2796229D01*
X35735989Y2793792D01*
X35879470Y2788154D01*
X35885179Y2788982D01*
X35885183Y2788982D01*
X36083015Y2817667D01*
X36083019Y2817668D01*
X36088730Y2818496D01*
X36170005Y2846085D01*
X36283483Y2884605D01*
X36283488Y2884607D01*
X36288955Y2886463D01*
X36293998Y2889287D01*
X36468395Y2986954D01*
X36468399Y2986957D01*
X36473442Y2989781D01*
X36636012Y3124988D01*
X36771219Y3287558D01*
X36774043Y3292601D01*
X36774046Y3292605D01*
X36871713Y3467002D01*
X36871714Y3467004D01*
X36874537Y3472045D01*
X36876393Y3477512D01*
X36876395Y3477517D01*
X36940647Y3666800D01*
X36942504Y3672270D01*
X36956243Y3767019D01*
X36972314Y3877860D01*
X36972314Y3877862D01*
X36972846Y3881530D01*
X36974429Y3942000D01*
X36955081Y4152560D01*
X36897686Y4356069D01*
X36886553Y4378646D01*
X36806719Y4540531D01*
X36804165Y4545710D01*
X36710486Y4671161D01*
X36681104Y4710509D01*
X36681103Y4710510D01*
X36677651Y4715133D01*
X36577286Y4807910D01*
X36526622Y4854743D01*
X36526620Y4854745D01*
X36522381Y4858663D01*
X36372672Y4953123D01*
X36348434Y4968416D01*
X36348433Y4968416D01*
X36343554Y4971495D01*
X36147160Y5049848D01*
X36141503Y5050973D01*
X36141497Y5050975D01*
X35985916Y5081921D01*
X35923006Y5114828D01*
X35887874Y5176523D01*
X35891674Y5247418D01*
X35933199Y5305004D01*
X35999266Y5330998D01*
X36010497Y5331500D01*
X36713646Y5331500D01*
X36717350Y5331941D01*
X36717353Y5331941D01*
X36724746Y5332821D01*
X36739846Y5334618D01*
X36798881Y5360840D01*
X36831518Y5375337D01*
X36842153Y5380061D01*
X36921241Y5459287D01*
X36926084Y5470240D01*
X36952265Y5529462D01*
X36966506Y5561673D01*
X36969500Y5587354D01*
X36969500Y7376646D01*
X36966382Y7402846D01*
X36920939Y7505153D01*
X36909727Y7516346D01*
X36849945Y7576023D01*
X36841713Y7584241D01*
X36831076Y7588944D01*
X36831074Y7588945D01*
X36760951Y7619946D01*
X36739327Y7629506D01*
X36713646Y7632500D01*
X36370500Y7632500D01*
X36302379Y7652502D01*
X36255886Y7706158D01*
X36244500Y7758500D01*
X36244500Y9968393D01*
X36241435Y9977825D01*
X36241051Y9980251D01*
X36239500Y9999962D01*
X36239500Y10481393D01*
X36236437Y10490820D01*
X36236436Y10490827D01*
X36232087Y10504212D01*
X36227473Y10523431D01*
X36225272Y10537328D01*
X36225270Y10537335D01*
X36223719Y10547126D01*
X36212827Y10568502D01*
X36205264Y10586763D01*
X36197850Y10609581D01*
X36183749Y10628989D01*
X36173417Y10645848D01*
X36167031Y10658382D01*
X36162528Y10667220D01*
X34672523Y12157225D01*
X34638497Y12219537D01*
X34636696Y12229874D01*
X34622122Y12340573D01*
X34621044Y12348762D01*
X34560536Y12494841D01*
X34464282Y12620282D01*
X34338841Y12716536D01*
X34333550Y12718728D01*
X34285364Y12769262D01*
X34271926Y12838975D01*
X34298312Y12904886D01*
X34333224Y12935137D01*
X34338841Y12937464D01*
X34464282Y13033718D01*
X34483326Y13058536D01*
X34544230Y13137909D01*
X34560536Y13159159D01*
X34621044Y13305238D01*
X34641682Y13462000D01*
X34621044Y13618762D01*
X34617090Y13628309D01*
X34563696Y13757211D01*
X34560536Y13764841D01*
X34464282Y13890282D01*
X34338841Y13986536D01*
X34192762Y14047044D01*
X34036000Y14067682D01*
X33961645Y14057893D01*
X33891498Y14068832D01*
X33838399Y14115960D01*
X33819209Y14184314D01*
X33840020Y14252192D01*
X33856105Y14271910D01*
X35377790Y15793595D01*
X35440102Y15827621D01*
X35466885Y15830500D01*
X37405393Y15830500D01*
X37428210Y15837914D01*
X37447429Y15842528D01*
X37471126Y15846281D01*
X37479964Y15850784D01*
X37492502Y15857172D01*
X37510763Y15864736D01*
X37524147Y15869085D01*
X37524150Y15869087D01*
X37533581Y15872151D01*
X37552991Y15886253D01*
X37569837Y15896577D01*
X37591220Y15907472D01*
X40066394Y18382646D01*
X40077285Y18404022D01*
X40087615Y18420877D01*
X40095887Y18432262D01*
X40095887Y18432263D01*
X40101716Y18440285D01*
X40109130Y18463103D01*
X40116693Y18481364D01*
X40127585Y18502740D01*
X40129136Y18512531D01*
X40129138Y18512538D01*
X40131339Y18526435D01*
X40135953Y18545654D01*
X40140302Y18559039D01*
X40140303Y18559046D01*
X40143366Y18568473D01*
X40143366Y23666586D01*
X40163368Y23734707D01*
X40217024Y23781200D01*
X40285812Y23791508D01*
X40386000Y23778318D01*
X40394188Y23779396D01*
X40534574Y23797878D01*
X40542762Y23798956D01*
X40688841Y23859464D01*
X40814282Y23955718D01*
X40910536Y24081159D01*
X40971044Y24227238D01*
X40986696Y24346126D01*
X41015418Y24411054D01*
X41022523Y24418775D01*
X42298528Y25694780D01*
X42309423Y25716163D01*
X42319747Y25733009D01*
X42328020Y25744396D01*
X42333849Y25752419D01*
X42336913Y25761850D01*
X42336915Y25761853D01*
X42341264Y25775237D01*
X42348828Y25793498D01*
X42355216Y25806036D01*
X42355216Y25806037D01*
X42359719Y25814874D01*
X42363472Y25838571D01*
X42368086Y25857790D01*
X42375500Y25880607D01*
X42375500Y30010400D01*
X42994318Y30010400D01*
X42995396Y30002212D01*
X43005355Y29926569D01*
X43014956Y29853638D01*
X43075464Y29707559D01*
X43171718Y29582118D01*
X43297159Y29485864D01*
X43443238Y29425356D01*
X43600000Y29404718D01*
X43608188Y29405796D01*
X43748574Y29424278D01*
X43756762Y29425356D01*
X43902841Y29485864D01*
X44028282Y29582118D01*
X44124536Y29707559D01*
X44185044Y29853638D01*
X44194646Y29926569D01*
X44204604Y30002212D01*
X44205682Y30010400D01*
X47644318Y30010400D01*
X47645396Y30002212D01*
X47655355Y29926569D01*
X47664956Y29853638D01*
X47725464Y29707559D01*
X47821718Y29582118D01*
X47947159Y29485864D01*
X48093238Y29425356D01*
X48250000Y29404718D01*
X48258188Y29405796D01*
X48398574Y29424278D01*
X48406762Y29425356D01*
X48552841Y29485864D01*
X48678282Y29582118D01*
X48774536Y29707559D01*
X48835044Y29853638D01*
X48844646Y29926569D01*
X48854604Y30002212D01*
X48855682Y30010400D01*
X48840016Y30129396D01*
X48836122Y30158974D01*
X48835044Y30167162D01*
X48774536Y30313241D01*
X48678282Y30438682D01*
X48552841Y30534936D01*
X48406762Y30595444D01*
X48250000Y30616082D01*
X48093238Y30595444D01*
X47947159Y30534936D01*
X47821718Y30438682D01*
X47725464Y30313241D01*
X47664956Y30167162D01*
X47663878Y30158974D01*
X47659984Y30129396D01*
X47644318Y30010400D01*
X44205682Y30010400D01*
X44190016Y30129396D01*
X44186122Y30158974D01*
X44185044Y30167162D01*
X44124536Y30313241D01*
X44028282Y30438682D01*
X43902841Y30534936D01*
X43756762Y30595444D01*
X43600000Y30616082D01*
X43443238Y30595444D01*
X43297159Y30534936D01*
X43171718Y30438682D01*
X43075464Y30313241D01*
X43014956Y30167162D01*
X43013878Y30158974D01*
X43009984Y30129396D01*
X42994318Y30010400D01*
X42375500Y30010400D01*
X42375500Y31200000D01*
X43944318Y31200000D01*
X43964956Y31043238D01*
X44025464Y30897159D01*
X44121718Y30771718D01*
X44247159Y30675464D01*
X44393238Y30614956D01*
X44550000Y30594318D01*
X44558188Y30595396D01*
X44601067Y30601041D01*
X44706762Y30614956D01*
X44852841Y30675464D01*
X44973296Y30767892D01*
X45039517Y30793492D01*
X45109065Y30779227D01*
X45126704Y30767892D01*
X45247159Y30675464D01*
X45393238Y30614956D01*
X45550000Y30594318D01*
X45558188Y30595396D01*
X45601067Y30601041D01*
X45706762Y30614956D01*
X45852841Y30675464D01*
X45978282Y30771718D01*
X46074536Y30897159D01*
X46135044Y31043238D01*
X46155682Y31200000D01*
X48544318Y31200000D01*
X48564956Y31043238D01*
X48625464Y30897159D01*
X48721718Y30771718D01*
X48847159Y30675464D01*
X48993238Y30614956D01*
X49150000Y30594318D01*
X49158188Y30595396D01*
X49201067Y30601041D01*
X49306762Y30614956D01*
X49452841Y30675464D01*
X49573296Y30767892D01*
X49639517Y30793492D01*
X49709065Y30779227D01*
X49726704Y30767892D01*
X49847159Y30675464D01*
X49993238Y30614956D01*
X50150000Y30594318D01*
X50158188Y30595396D01*
X50201067Y30601041D01*
X50306762Y30614956D01*
X50452841Y30675464D01*
X50459394Y30680492D01*
X50459397Y30680494D01*
X50513287Y30721845D01*
X50579507Y30747446D01*
X50649056Y30733181D01*
X50699852Y30683580D01*
X50714913Y30638330D01*
X50716989Y30622565D01*
X50722956Y30577238D01*
X50783464Y30431159D01*
X50879718Y30305718D01*
X51005159Y30209464D01*
X51151238Y30148956D01*
X51159426Y30147878D01*
X51207568Y30141540D01*
X51308000Y30128318D01*
X51316188Y30129396D01*
X51456574Y30147878D01*
X51464762Y30148956D01*
X51610841Y30209464D01*
X51617393Y30214491D01*
X51624546Y30218621D01*
X51626104Y30215922D01*
X51678541Y30236182D01*
X51748087Y30221904D01*
X51753384Y30218500D01*
X51753454Y30218621D01*
X51760607Y30214491D01*
X51767159Y30209464D01*
X51913238Y30148956D01*
X51921426Y30147878D01*
X51969568Y30141540D01*
X52070000Y30128318D01*
X52078188Y30129396D01*
X52218574Y30147878D01*
X52226762Y30148956D01*
X52372841Y30209464D01*
X52498282Y30305718D01*
X52594536Y30431159D01*
X52655044Y30577238D01*
X52675682Y30734000D01*
X52662225Y30836215D01*
X52656122Y30882574D01*
X52655044Y30890762D01*
X52594536Y31036841D01*
X52498282Y31162282D01*
X52372841Y31258536D01*
X52226762Y31319044D01*
X52070000Y31339682D01*
X51913238Y31319044D01*
X51767159Y31258536D01*
X51760607Y31253509D01*
X51753454Y31249379D01*
X51751896Y31252078D01*
X51699459Y31231818D01*
X51629913Y31246096D01*
X51624616Y31249500D01*
X51624546Y31249379D01*
X51617393Y31253509D01*
X51610841Y31258536D01*
X51464762Y31319044D01*
X51308000Y31339682D01*
X51151238Y31319044D01*
X51005159Y31258536D01*
X50998608Y31253509D01*
X50998603Y31253506D01*
X50944713Y31212155D01*
X50878493Y31186554D01*
X50808944Y31200819D01*
X50758148Y31250420D01*
X50743087Y31295670D01*
X50736122Y31348574D01*
X50735044Y31356762D01*
X50674536Y31502841D01*
X50578282Y31628282D01*
X50563616Y31639536D01*
X50542082Y31656059D01*
X50452841Y31724536D01*
X50306762Y31785044D01*
X50150000Y31805682D01*
X49993238Y31785044D01*
X49847159Y31724536D01*
X49811122Y31696884D01*
X49726704Y31632108D01*
X49660483Y31606508D01*
X49590935Y31620773D01*
X49573296Y31632108D01*
X49488878Y31696884D01*
X49452841Y31724536D01*
X49306762Y31785044D01*
X49150000Y31805682D01*
X48993238Y31785044D01*
X48847159Y31724536D01*
X48757918Y31656059D01*
X48736385Y31639536D01*
X48721718Y31628282D01*
X48625464Y31502841D01*
X48564956Y31356762D01*
X48544318Y31200000D01*
X46155682Y31200000D01*
X46135044Y31356762D01*
X46074536Y31502841D01*
X45978282Y31628282D01*
X45963616Y31639536D01*
X45942082Y31656059D01*
X45852841Y31724536D01*
X45706762Y31785044D01*
X45550000Y31805682D01*
X45393238Y31785044D01*
X45247159Y31724536D01*
X45211122Y31696884D01*
X45126704Y31632108D01*
X45060483Y31606508D01*
X44990935Y31620773D01*
X44973296Y31632108D01*
X44888878Y31696884D01*
X44852841Y31724536D01*
X44706762Y31785044D01*
X44550000Y31805682D01*
X44393238Y31785044D01*
X44247159Y31724536D01*
X44157918Y31656059D01*
X44136385Y31639536D01*
X44121718Y31628282D01*
X44025464Y31502841D01*
X43964956Y31356762D01*
X43944318Y31200000D01*
X42375500Y31200000D01*
X42375500Y31403755D01*
X42368086Y31426572D01*
X42363472Y31445792D01*
X42362420Y31452434D01*
X42359719Y31469488D01*
X42353001Y31482674D01*
X42348828Y31490864D01*
X42341264Y31509125D01*
X42336915Y31522509D01*
X42336913Y31522512D01*
X42333849Y31531943D01*
X42319747Y31551353D01*
X42309423Y31568199D01*
X42298528Y31589582D01*
X41168561Y32719549D01*
X41134535Y32781861D01*
X41139600Y32852676D01*
X41182147Y32909512D01*
X41194658Y32917765D01*
X41195207Y32918082D01*
X41202841Y32921244D01*
X41328282Y33017498D01*
X41398581Y33109114D01*
X50672008Y33109114D01*
X50673086Y33100926D01*
X50689599Y32975500D01*
X50692646Y32952352D01*
X50753154Y32806273D01*
X50849408Y32680832D01*
X50974849Y32584578D01*
X51120928Y32524070D01*
X51277690Y32503432D01*
X51285878Y32504510D01*
X51426264Y32522992D01*
X51434452Y32524070D01*
X51580531Y32584578D01*
X51705972Y32680832D01*
X51802226Y32806273D01*
X51862734Y32952352D01*
X51865782Y32975500D01*
X51882294Y33100926D01*
X51883372Y33109114D01*
X51862734Y33265876D01*
X51802226Y33411955D01*
X51705972Y33537396D01*
X51695260Y33545616D01*
X51614923Y33607260D01*
X51580531Y33633650D01*
X51434452Y33694158D01*
X51277690Y33714796D01*
X51120928Y33694158D01*
X50974849Y33633650D01*
X50940457Y33607260D01*
X50860121Y33545616D01*
X50849408Y33537396D01*
X50753154Y33411955D01*
X50692646Y33265876D01*
X50672008Y33109114D01*
X41398581Y33109114D01*
X41424536Y33142939D01*
X41485044Y33289018D01*
X41505682Y33445780D01*
X41488281Y33577956D01*
X41486122Y33594354D01*
X41485044Y33602542D01*
X41424536Y33748621D01*
X41350999Y33844457D01*
X41333305Y33867516D01*
X41328282Y33874062D01*
X41202841Y33970316D01*
X41056762Y34030824D01*
X41028962Y34034484D01*
X40908188Y34050384D01*
X40900000Y34051462D01*
X40891812Y34050384D01*
X40771039Y34034484D01*
X40743238Y34030824D01*
X40597159Y33970316D01*
X40471718Y33874062D01*
X40466695Y33867516D01*
X40449001Y33844457D01*
X40375464Y33748621D01*
X40372304Y33740991D01*
X40371985Y33740438D01*
X40320603Y33691444D01*
X40250890Y33678006D01*
X40184978Y33704392D01*
X40173769Y33714341D01*
X39993025Y33895085D01*
X39958999Y33957397D01*
X39956120Y33984180D01*
X39956120Y35172942D01*
X41424338Y35172942D01*
X41444976Y35016180D01*
X41505484Y34870101D01*
X41526341Y34842920D01*
X41591520Y34757977D01*
X41601738Y34744660D01*
X41727179Y34648406D01*
X41873258Y34587898D01*
X42030020Y34567260D01*
X42038208Y34568338D01*
X42083267Y34574270D01*
X42186782Y34587898D01*
X42332861Y34648406D01*
X42458302Y34744660D01*
X42468521Y34757977D01*
X42533699Y34842920D01*
X42554556Y34870101D01*
X42615064Y35016180D01*
X42635702Y35172942D01*
X42615064Y35329704D01*
X42554556Y35475783D01*
X42509300Y35534762D01*
X46275578Y35534762D01*
X46296216Y35378000D01*
X46356724Y35231921D01*
X46452978Y35106480D01*
X46578419Y35010226D01*
X46724498Y34949718D01*
X46881260Y34929080D01*
X46889448Y34930158D01*
X47029834Y34948640D01*
X47038022Y34949718D01*
X47184101Y35010226D01*
X47299094Y35098463D01*
X47365315Y35124063D01*
X47375798Y35124500D01*
X52612143Y35124500D01*
X52634960Y35131914D01*
X52654179Y35136528D01*
X52677876Y35140281D01*
X52686714Y35144784D01*
X52699252Y35151172D01*
X52717513Y35158736D01*
X52730897Y35163085D01*
X52730900Y35163087D01*
X52740331Y35166151D01*
X52759741Y35180253D01*
X52776587Y35190577D01*
X52797970Y35201472D01*
X54321225Y36724727D01*
X54383537Y36758753D01*
X54393874Y36760554D01*
X54468539Y36770384D01*
X54512762Y36776206D01*
X54658841Y36836714D01*
X54784282Y36932968D01*
X54796440Y36948812D01*
X54859235Y37030649D01*
X54880536Y37058409D01*
X54941044Y37204488D01*
X54947937Y37256842D01*
X54953401Y37298352D01*
X54961682Y37361250D01*
X54941044Y37518012D01*
X54880536Y37664091D01*
X54875508Y37670644D01*
X54875506Y37670647D01*
X54807538Y37759225D01*
X54781937Y37825445D01*
X54781500Y37835929D01*
X54781500Y43811393D01*
X54739849Y43939581D01*
X54722232Y43963829D01*
X54683465Y44017188D01*
X54683460Y44017194D01*
X54680553Y44021195D01*
X52836523Y45865225D01*
X52802497Y45927537D01*
X52800696Y45937874D01*
X52786122Y46048573D01*
X52786122Y46048574D01*
X52785044Y46056762D01*
X52724536Y46202841D01*
X52628282Y46328282D01*
X52502841Y46424536D01*
X52356762Y46485044D01*
X52200000Y46505682D01*
X52043238Y46485044D01*
X51897159Y46424536D01*
X51771718Y46328282D01*
X51675464Y46202841D01*
X51614956Y46056762D01*
X51594318Y45900000D01*
X51614956Y45743238D01*
X51675464Y45597159D01*
X51771718Y45471718D01*
X51778264Y45466695D01*
X51790905Y45456995D01*
X51897159Y45375464D01*
X52043238Y45314956D01*
X52090036Y45308795D01*
X52162126Y45299304D01*
X52227054Y45270582D01*
X52234775Y45263477D01*
X53893595Y43604657D01*
X53927621Y43542345D01*
X53930500Y43515562D01*
X53930500Y37835929D01*
X53910498Y37767808D01*
X53904462Y37759225D01*
X53836494Y37670647D01*
X53836492Y37670644D01*
X53831464Y37664091D01*
X53770956Y37518012D01*
X53769878Y37509824D01*
X53769878Y37509823D01*
X53755304Y37399124D01*
X53726582Y37334196D01*
X53719477Y37326475D01*
X52405407Y36012405D01*
X52343095Y35978379D01*
X52316312Y35975500D01*
X47336081Y35975500D01*
X47267960Y35995502D01*
X47259377Y36001537D01*
X47190652Y36054271D01*
X47184101Y36059298D01*
X47038022Y36119806D01*
X46881260Y36140444D01*
X46724498Y36119806D01*
X46578419Y36059298D01*
X46452978Y35963044D01*
X46356724Y35837603D01*
X46296216Y35691524D01*
X46275578Y35534762D01*
X42509300Y35534762D01*
X42458302Y35601224D01*
X42332861Y35697478D01*
X42186782Y35757986D01*
X42030020Y35778624D01*
X41873258Y35757986D01*
X41727179Y35697478D01*
X41601738Y35601224D01*
X41505484Y35475783D01*
X41444976Y35329704D01*
X41424338Y35172942D01*
X39956120Y35172942D01*
X39956120Y38036393D01*
X41444317Y38036393D01*
X41464955Y37879631D01*
X41525463Y37733552D01*
X41621717Y37608111D01*
X41747158Y37511857D01*
X41893237Y37451349D01*
X42049999Y37430711D01*
X42058187Y37431789D01*
X42198573Y37450271D01*
X42206761Y37451349D01*
X42352840Y37511857D01*
X42402755Y37550158D01*
X45039834Y37550158D01*
X45060472Y37393396D01*
X45120980Y37247317D01*
X45217234Y37121876D01*
X45223780Y37116853D01*
X45253434Y37094099D01*
X45342675Y37025622D01*
X45488754Y36965114D01*
X45645516Y36944476D01*
X45653704Y36945554D01*
X45657062Y36945996D01*
X45802278Y36965114D01*
X45948357Y37025622D01*
X46037598Y37094099D01*
X46067252Y37116853D01*
X46073798Y37121876D01*
X46170052Y37247317D01*
X46230560Y37393396D01*
X46251198Y37550158D01*
X46250294Y37557027D01*
X46765318Y37557027D01*
X46785956Y37400265D01*
X46846464Y37254186D01*
X46942718Y37128745D01*
X47068159Y37032491D01*
X47214238Y36971983D01*
X47222426Y36970905D01*
X47274602Y36964036D01*
X47371000Y36951345D01*
X47379188Y36952423D01*
X47519574Y36970905D01*
X47527762Y36971983D01*
X47673841Y37032491D01*
X47799282Y37128745D01*
X47895536Y37254186D01*
X47956044Y37400265D01*
X47976682Y37557027D01*
X47976332Y37559683D01*
X50659697Y37559683D01*
X50680335Y37402921D01*
X50740843Y37256842D01*
X50837097Y37131401D01*
X50962538Y37035147D01*
X51108617Y36974639D01*
X51265379Y36954001D01*
X51273567Y36955079D01*
X51413953Y36973561D01*
X51422141Y36974639D01*
X51568220Y37035147D01*
X51693661Y37131401D01*
X51789915Y37256842D01*
X51850423Y37402921D01*
X51871061Y37559683D01*
X51858320Y37656461D01*
X51851501Y37708257D01*
X51850423Y37716445D01*
X51844598Y37730509D01*
X51832703Y37759225D01*
X51789915Y37862524D01*
X51693661Y37987965D01*
X51568220Y38084219D01*
X51422141Y38144727D01*
X51265379Y38165365D01*
X51108617Y38144727D01*
X50962538Y38084219D01*
X50837097Y37987965D01*
X50740843Y37862524D01*
X50698055Y37759225D01*
X50686161Y37730509D01*
X50680335Y37716445D01*
X50679257Y37708257D01*
X50672438Y37656461D01*
X50659697Y37559683D01*
X47976332Y37559683D01*
X47956044Y37713789D01*
X47895536Y37859868D01*
X47799282Y37985309D01*
X47673841Y38081563D01*
X47527762Y38142071D01*
X47476058Y38148878D01*
X47431364Y38154762D01*
X47371000Y38162709D01*
X47310636Y38154762D01*
X47265943Y38148878D01*
X47214238Y38142071D01*
X47068159Y38081563D01*
X46942718Y37985309D01*
X46846464Y37859868D01*
X46785956Y37713789D01*
X46765318Y37557027D01*
X46250294Y37557027D01*
X46230560Y37706920D01*
X46170052Y37852999D01*
X46073798Y37978440D01*
X45948357Y38074694D01*
X45802278Y38135202D01*
X45750103Y38142071D01*
X45653704Y38154762D01*
X45645516Y38155840D01*
X45637328Y38154762D01*
X45540930Y38142071D01*
X45488754Y38135202D01*
X45342675Y38074694D01*
X45217234Y37978440D01*
X45120980Y37852999D01*
X45060472Y37706920D01*
X45039834Y37550158D01*
X42402755Y37550158D01*
X42478281Y37608111D01*
X42574535Y37733552D01*
X42635043Y37879631D01*
X42655681Y38036393D01*
X42635043Y38193155D01*
X42574535Y38339234D01*
X42478281Y38464675D01*
X42352840Y38560929D01*
X42206761Y38621437D01*
X42049999Y38642075D01*
X41893237Y38621437D01*
X41747158Y38560929D01*
X41621717Y38464675D01*
X41525463Y38339234D01*
X41464955Y38193155D01*
X41444317Y38036393D01*
X39956120Y38036393D01*
X39956120Y41086773D01*
X39955396Y41089000D01*
X45629318Y41089000D01*
X45649956Y40932238D01*
X45710464Y40786159D01*
X45806718Y40660718D01*
X45932159Y40564464D01*
X46078238Y40503956D01*
X46235000Y40483318D01*
X46243188Y40484396D01*
X46383574Y40502878D01*
X46391762Y40503956D01*
X46537841Y40564464D01*
X46663282Y40660718D01*
X46759536Y40786159D01*
X46820044Y40932238D01*
X46840682Y41089000D01*
X46820044Y41245762D01*
X46759536Y41391841D01*
X46663282Y41517282D01*
X46537841Y41613536D01*
X46391762Y41674044D01*
X46235000Y41694682D01*
X46078238Y41674044D01*
X45932159Y41613536D01*
X45806718Y41517282D01*
X45710464Y41391841D01*
X45649956Y41245762D01*
X45629318Y41089000D01*
X39955396Y41089000D01*
X39948706Y41109590D01*
X39944092Y41128810D01*
X39941890Y41142712D01*
X39940339Y41152506D01*
X39929448Y41173882D01*
X39921884Y41192143D01*
X39917535Y41205527D01*
X39917533Y41205530D01*
X39914469Y41214961D01*
X39900367Y41234371D01*
X39890043Y41251217D01*
X39879148Y41272600D01*
X35301748Y45850000D01*
X49094318Y45850000D01*
X49114956Y45693238D01*
X49175464Y45547159D01*
X49271718Y45421718D01*
X49397159Y45325464D01*
X49543238Y45264956D01*
X49700000Y45244318D01*
X49708188Y45245396D01*
X49848574Y45263878D01*
X49856762Y45264956D01*
X50002841Y45325464D01*
X50128282Y45421718D01*
X50224536Y45547159D01*
X50285044Y45693238D01*
X50305682Y45850000D01*
X50285044Y46006762D01*
X50224536Y46152841D01*
X50128282Y46278282D01*
X50002841Y46374536D01*
X49856762Y46435044D01*
X49700000Y46455682D01*
X49543238Y46435044D01*
X49397159Y46374536D01*
X49271718Y46278282D01*
X49175464Y46152841D01*
X49114956Y46006762D01*
X49094318Y45850000D01*
X35301748Y45850000D01*
X33712748Y47439000D01*
X46899318Y47439000D01*
X46919956Y47282238D01*
X46980464Y47136159D01*
X47076718Y47010718D01*
X47202159Y46914464D01*
X47348238Y46853956D01*
X47505000Y46833318D01*
X47513188Y46834396D01*
X47653574Y46852878D01*
X47661762Y46853956D01*
X47807841Y46914464D01*
X47933282Y47010718D01*
X48029536Y47136159D01*
X48090044Y47282238D01*
X48110682Y47439000D01*
X48090044Y47595762D01*
X48029536Y47741841D01*
X47933282Y47867282D01*
X47807841Y47963536D01*
X47661762Y48024044D01*
X47505000Y48044682D01*
X47348238Y48024044D01*
X47202159Y47963536D01*
X47076718Y47867282D01*
X46980464Y47741841D01*
X46919956Y47595762D01*
X46899318Y47439000D01*
X33712748Y47439000D01*
X25862405Y55289343D01*
X25828379Y55351655D01*
X25825500Y55378438D01*
X25825500Y55683896D01*
X25845502Y55752017D01*
X25899158Y55798510D01*
X25969432Y55808614D01*
X26034012Y55779120D01*
X26045136Y55768206D01*
X26159992Y55640645D01*
X26300378Y55538648D01*
X26306406Y55535964D01*
X26306408Y55535963D01*
X26452872Y55470753D01*
X26458903Y55468068D01*
X26543770Y55450029D01*
X26622181Y55433362D01*
X26622185Y55433362D01*
X26628638Y55431990D01*
X26802166Y55431990D01*
X26808619Y55433362D01*
X26808623Y55433362D01*
X26887034Y55450029D01*
X26971901Y55468068D01*
X26977932Y55470753D01*
X27124396Y55535963D01*
X27124398Y55535964D01*
X27130426Y55538648D01*
X27270812Y55640645D01*
X27386924Y55769601D01*
X27473688Y55919879D01*
X27527310Y56084914D01*
X27545449Y56257490D01*
X28385355Y56257490D01*
X28403494Y56084914D01*
X28457116Y55919879D01*
X28543880Y55769601D01*
X28659992Y55640645D01*
X28800378Y55538648D01*
X28806406Y55535964D01*
X28806408Y55535963D01*
X28952872Y55470753D01*
X28958903Y55468068D01*
X29043770Y55450029D01*
X29122181Y55433362D01*
X29122185Y55433362D01*
X29128638Y55431990D01*
X29302166Y55431990D01*
X29308619Y55433362D01*
X29308623Y55433362D01*
X29387034Y55450029D01*
X29471901Y55468068D01*
X29477932Y55470753D01*
X29624396Y55535963D01*
X29624398Y55535964D01*
X29630426Y55538648D01*
X29684988Y55578290D01*
X31253832Y55578290D01*
X31262660Y55566671D01*
X31295288Y55542965D01*
X31306660Y55536399D01*
X31453028Y55471232D01*
X31465516Y55467175D01*
X31622234Y55433862D01*
X31635294Y55432490D01*
X31795510Y55432490D01*
X31808570Y55433862D01*
X31965288Y55467175D01*
X31977776Y55471232D01*
X32124144Y55536399D01*
X32135516Y55542965D01*
X32168515Y55566940D01*
X32176939Y55577865D01*
X32176711Y55578290D01*
X33753832Y55578290D01*
X33762660Y55566671D01*
X33795288Y55542965D01*
X33806660Y55536399D01*
X33953028Y55471232D01*
X33965516Y55467175D01*
X34122234Y55433862D01*
X34135294Y55432490D01*
X34295510Y55432490D01*
X34308570Y55433862D01*
X34465288Y55467175D01*
X34477776Y55471232D01*
X34624144Y55536399D01*
X34635516Y55542965D01*
X34668515Y55566940D01*
X34676939Y55577865D01*
X34670036Y55590724D01*
X34228214Y56032546D01*
X34214270Y56040160D01*
X34212437Y56040029D01*
X34205822Y56035778D01*
X33760445Y55590401D01*
X33753832Y55578290D01*
X32176711Y55578290D01*
X32170036Y55590724D01*
X31728214Y56032546D01*
X31714270Y56040160D01*
X31712437Y56040029D01*
X31705822Y56035778D01*
X31260445Y55590401D01*
X31253832Y55578290D01*
X29684988Y55578290D01*
X29770812Y55640645D01*
X29886924Y55769601D01*
X29973688Y55919879D01*
X30027310Y56084914D01*
X30044759Y56250925D01*
X30886548Y56250925D01*
X30903296Y56091582D01*
X30906026Y56078739D01*
X30955534Y55926369D01*
X30960880Y55914361D01*
X31024757Y55803724D01*
X31034963Y55793993D01*
X31042984Y55797204D01*
X31490458Y56244678D01*
X31496836Y56256358D01*
X31932732Y56256358D01*
X31932863Y56254525D01*
X31937114Y56247910D01*
X32384177Y55800847D01*
X32396557Y55794087D01*
X32403472Y55799263D01*
X32469924Y55914361D01*
X32475270Y55926369D01*
X32524778Y56078739D01*
X32527508Y56091582D01*
X32544256Y56250925D01*
X33386548Y56250925D01*
X33403296Y56091582D01*
X33406026Y56078739D01*
X33455534Y55926369D01*
X33460880Y55914361D01*
X33524757Y55803724D01*
X33534963Y55793993D01*
X33542984Y55797204D01*
X33990458Y56244678D01*
X33996836Y56256358D01*
X34432732Y56256358D01*
X34432863Y56254525D01*
X34437114Y56247910D01*
X34884177Y55800847D01*
X34896557Y55794087D01*
X34903472Y55799263D01*
X34969924Y55914361D01*
X34975270Y55926369D01*
X35024778Y56078739D01*
X35027508Y56091582D01*
X35044256Y56250925D01*
X35044256Y56257490D01*
X35885355Y56257490D01*
X35903494Y56084914D01*
X35957116Y55919879D01*
X36043880Y55769601D01*
X36159992Y55640645D01*
X36300378Y55538648D01*
X36306406Y55535964D01*
X36306408Y55535963D01*
X36452872Y55470753D01*
X36458903Y55468068D01*
X36543770Y55450029D01*
X36622181Y55433362D01*
X36622185Y55433362D01*
X36628638Y55431990D01*
X36802166Y55431990D01*
X36808619Y55433362D01*
X36808623Y55433362D01*
X36887034Y55450029D01*
X36971901Y55468068D01*
X36977932Y55470753D01*
X37124396Y55535963D01*
X37124398Y55535964D01*
X37130426Y55538648D01*
X37270812Y55640645D01*
X37386924Y55769601D01*
X37473688Y55919879D01*
X37527310Y56084914D01*
X37545449Y56257490D01*
X38385355Y56257490D01*
X38403494Y56084914D01*
X38457116Y55919879D01*
X38543880Y55769601D01*
X38659992Y55640645D01*
X38800378Y55538648D01*
X38806406Y55535964D01*
X38806408Y55535963D01*
X38952872Y55470753D01*
X38958903Y55468068D01*
X39043770Y55450029D01*
X39122181Y55433362D01*
X39122185Y55433362D01*
X39128638Y55431990D01*
X39302166Y55431990D01*
X39308619Y55433362D01*
X39308623Y55433362D01*
X39387034Y55450029D01*
X39471901Y55468068D01*
X39477932Y55470753D01*
X39624396Y55535963D01*
X39624398Y55535964D01*
X39630426Y55538648D01*
X39770812Y55640645D01*
X39886924Y55769601D01*
X39973688Y55919879D01*
X40027310Y56084914D01*
X40045449Y56257490D01*
X40885355Y56257490D01*
X40903494Y56084914D01*
X40957116Y55919879D01*
X41043880Y55769601D01*
X41159992Y55640645D01*
X41300378Y55538648D01*
X41306406Y55535964D01*
X41306408Y55535963D01*
X41452872Y55470753D01*
X41458903Y55468068D01*
X41543770Y55450029D01*
X41622181Y55433362D01*
X41622185Y55433362D01*
X41628638Y55431990D01*
X41802166Y55431990D01*
X41808619Y55433362D01*
X41808623Y55433362D01*
X41887034Y55450029D01*
X41971901Y55468068D01*
X41977932Y55470753D01*
X42124396Y55535963D01*
X42124398Y55535964D01*
X42130426Y55538648D01*
X42270812Y55640645D01*
X42386924Y55769601D01*
X42473688Y55919879D01*
X42527310Y56084914D01*
X42545449Y56257490D01*
X43385355Y56257490D01*
X43403494Y56084914D01*
X43457116Y55919879D01*
X43543880Y55769601D01*
X43659992Y55640645D01*
X43800378Y55538648D01*
X43806406Y55535964D01*
X43806408Y55535963D01*
X43952872Y55470753D01*
X43958903Y55468068D01*
X44043770Y55450029D01*
X44122181Y55433362D01*
X44122185Y55433362D01*
X44128638Y55431990D01*
X44302166Y55431990D01*
X44308619Y55433362D01*
X44308623Y55433362D01*
X44387034Y55450029D01*
X44471901Y55468068D01*
X44477932Y55470753D01*
X44624396Y55535963D01*
X44624398Y55535964D01*
X44630426Y55538648D01*
X44770812Y55640645D01*
X44886924Y55769601D01*
X44973688Y55919879D01*
X45027310Y56084914D01*
X45045449Y56257490D01*
X45027310Y56430066D01*
X44973688Y56595101D01*
X44886924Y56745379D01*
X44809755Y56831084D01*
X44775234Y56869424D01*
X44775233Y56869425D01*
X44770812Y56874335D01*
X44630426Y56976332D01*
X44624398Y56979016D01*
X44624396Y56979017D01*
X44477932Y57044227D01*
X44477931Y57044227D01*
X44471901Y57046912D01*
X44387034Y57064951D01*
X44308623Y57081618D01*
X44308619Y57081618D01*
X44302166Y57082990D01*
X44128638Y57082990D01*
X44122185Y57081618D01*
X44122181Y57081618D01*
X44043770Y57064951D01*
X43958903Y57046912D01*
X43952874Y57044228D01*
X43952872Y57044227D01*
X43806409Y56979017D01*
X43806407Y56979016D01*
X43800379Y56976332D01*
X43795038Y56972452D01*
X43795037Y56972451D01*
X43669916Y56881545D01*
X43659992Y56874335D01*
X43655571Y56869425D01*
X43655570Y56869424D01*
X43621049Y56831084D01*
X43543880Y56745379D01*
X43457116Y56595101D01*
X43403494Y56430066D01*
X43385355Y56257490D01*
X42545449Y56257490D01*
X42527310Y56430066D01*
X42473688Y56595101D01*
X42386924Y56745379D01*
X42309755Y56831084D01*
X42275234Y56869424D01*
X42275233Y56869425D01*
X42270812Y56874335D01*
X42130426Y56976332D01*
X42124398Y56979016D01*
X42124396Y56979017D01*
X41977932Y57044227D01*
X41977931Y57044227D01*
X41971901Y57046912D01*
X41887034Y57064951D01*
X41808623Y57081618D01*
X41808619Y57081618D01*
X41802166Y57082990D01*
X41628638Y57082990D01*
X41622185Y57081618D01*
X41622181Y57081618D01*
X41543770Y57064951D01*
X41458903Y57046912D01*
X41452874Y57044228D01*
X41452872Y57044227D01*
X41306409Y56979017D01*
X41306407Y56979016D01*
X41300379Y56976332D01*
X41295038Y56972452D01*
X41295037Y56972451D01*
X41169916Y56881545D01*
X41159992Y56874335D01*
X41155571Y56869425D01*
X41155570Y56869424D01*
X41121049Y56831084D01*
X41043880Y56745379D01*
X40957116Y56595101D01*
X40903494Y56430066D01*
X40885355Y56257490D01*
X40045449Y56257490D01*
X40027310Y56430066D01*
X39973688Y56595101D01*
X39886924Y56745379D01*
X39809755Y56831084D01*
X39775234Y56869424D01*
X39775233Y56869425D01*
X39770812Y56874335D01*
X39630426Y56976332D01*
X39624398Y56979016D01*
X39624396Y56979017D01*
X39477932Y57044227D01*
X39477931Y57044227D01*
X39471901Y57046912D01*
X39387034Y57064951D01*
X39308623Y57081618D01*
X39308619Y57081618D01*
X39302166Y57082990D01*
X39128638Y57082990D01*
X39122185Y57081618D01*
X39122181Y57081618D01*
X39043770Y57064951D01*
X38958903Y57046912D01*
X38952874Y57044228D01*
X38952872Y57044227D01*
X38806409Y56979017D01*
X38806407Y56979016D01*
X38800379Y56976332D01*
X38795038Y56972452D01*
X38795037Y56972451D01*
X38669916Y56881545D01*
X38659992Y56874335D01*
X38655571Y56869425D01*
X38655570Y56869424D01*
X38621049Y56831084D01*
X38543880Y56745379D01*
X38457116Y56595101D01*
X38403494Y56430066D01*
X38385355Y56257490D01*
X37545449Y56257490D01*
X37527310Y56430066D01*
X37473688Y56595101D01*
X37386924Y56745379D01*
X37309755Y56831084D01*
X37275234Y56869424D01*
X37275233Y56869425D01*
X37270812Y56874335D01*
X37130426Y56976332D01*
X37124398Y56979016D01*
X37124396Y56979017D01*
X36977932Y57044227D01*
X36977931Y57044227D01*
X36971901Y57046912D01*
X36887034Y57064951D01*
X36808623Y57081618D01*
X36808619Y57081618D01*
X36802166Y57082990D01*
X36628638Y57082990D01*
X36622185Y57081618D01*
X36622181Y57081618D01*
X36543770Y57064951D01*
X36458903Y57046912D01*
X36452874Y57044228D01*
X36452872Y57044227D01*
X36306409Y56979017D01*
X36306407Y56979016D01*
X36300379Y56976332D01*
X36295038Y56972452D01*
X36295037Y56972451D01*
X36169916Y56881545D01*
X36159992Y56874335D01*
X36155571Y56869425D01*
X36155570Y56869424D01*
X36121049Y56831084D01*
X36043880Y56745379D01*
X35957116Y56595101D01*
X35903494Y56430066D01*
X35885355Y56257490D01*
X35044256Y56257490D01*
X35044256Y56264055D01*
X35027508Y56423398D01*
X35024778Y56436241D01*
X34975270Y56588611D01*
X34969924Y56600619D01*
X34906047Y56711256D01*
X34895841Y56720987D01*
X34887820Y56717776D01*
X34440346Y56270302D01*
X34432732Y56256358D01*
X33996836Y56256358D01*
X33998072Y56258622D01*
X33997941Y56260455D01*
X33993690Y56267070D01*
X33546627Y56714133D01*
X33534247Y56720893D01*
X33527332Y56715717D01*
X33460880Y56600619D01*
X33455534Y56588611D01*
X33406026Y56436241D01*
X33403296Y56423398D01*
X33386548Y56264055D01*
X33386548Y56250925D01*
X32544256Y56250925D01*
X32544256Y56264055D01*
X32527508Y56423398D01*
X32524778Y56436241D01*
X32475270Y56588611D01*
X32469924Y56600619D01*
X32406047Y56711256D01*
X32395841Y56720987D01*
X32387820Y56717776D01*
X31940346Y56270302D01*
X31932732Y56256358D01*
X31496836Y56256358D01*
X31498072Y56258622D01*
X31497941Y56260455D01*
X31493690Y56267070D01*
X31046627Y56714133D01*
X31034247Y56720893D01*
X31027332Y56715717D01*
X30960880Y56600619D01*
X30955534Y56588611D01*
X30906026Y56436241D01*
X30903296Y56423398D01*
X30886548Y56264055D01*
X30886548Y56250925D01*
X30044759Y56250925D01*
X30045449Y56257490D01*
X30027310Y56430066D01*
X29973688Y56595101D01*
X29886924Y56745379D01*
X29809755Y56831084D01*
X29775234Y56869424D01*
X29775233Y56869425D01*
X29770812Y56874335D01*
X29684403Y56937115D01*
X31253865Y56937115D01*
X31260768Y56924256D01*
X31702590Y56482434D01*
X31716534Y56474820D01*
X31718367Y56474951D01*
X31724982Y56479202D01*
X32170359Y56924579D01*
X32176972Y56936690D01*
X32176649Y56937115D01*
X33753865Y56937115D01*
X33760768Y56924256D01*
X34202590Y56482434D01*
X34216534Y56474820D01*
X34218367Y56474951D01*
X34224982Y56479202D01*
X34670359Y56924579D01*
X34676972Y56936690D01*
X34668144Y56948309D01*
X34635516Y56972015D01*
X34624144Y56978581D01*
X34477776Y57043748D01*
X34465288Y57047805D01*
X34308570Y57081118D01*
X34295510Y57082490D01*
X34135294Y57082490D01*
X34122234Y57081118D01*
X33965516Y57047805D01*
X33953028Y57043748D01*
X33806660Y56978581D01*
X33795288Y56972015D01*
X33762289Y56948040D01*
X33753865Y56937115D01*
X32176649Y56937115D01*
X32168144Y56948309D01*
X32135516Y56972015D01*
X32124144Y56978581D01*
X31977776Y57043748D01*
X31965288Y57047805D01*
X31808570Y57081118D01*
X31795510Y57082490D01*
X31635294Y57082490D01*
X31622234Y57081118D01*
X31465516Y57047805D01*
X31453028Y57043748D01*
X31306660Y56978581D01*
X31295288Y56972015D01*
X31262289Y56948040D01*
X31253865Y56937115D01*
X29684403Y56937115D01*
X29630426Y56976332D01*
X29624398Y56979016D01*
X29624396Y56979017D01*
X29477932Y57044227D01*
X29477931Y57044227D01*
X29471901Y57046912D01*
X29387034Y57064951D01*
X29308623Y57081618D01*
X29308619Y57081618D01*
X29302166Y57082990D01*
X29128638Y57082990D01*
X29122185Y57081618D01*
X29122181Y57081618D01*
X29043770Y57064951D01*
X28958903Y57046912D01*
X28952874Y57044228D01*
X28952872Y57044227D01*
X28806409Y56979017D01*
X28806407Y56979016D01*
X28800379Y56976332D01*
X28795038Y56972452D01*
X28795037Y56972451D01*
X28669916Y56881545D01*
X28659992Y56874335D01*
X28655571Y56869425D01*
X28655570Y56869424D01*
X28621049Y56831084D01*
X28543880Y56745379D01*
X28457116Y56595101D01*
X28403494Y56430066D01*
X28385355Y56257490D01*
X27545449Y56257490D01*
X27527310Y56430066D01*
X27473688Y56595101D01*
X27386924Y56745379D01*
X27309755Y56831084D01*
X27275234Y56869424D01*
X27275233Y56869425D01*
X27270812Y56874335D01*
X27130426Y56976332D01*
X27124398Y56979016D01*
X27124396Y56979017D01*
X26977932Y57044227D01*
X26977931Y57044227D01*
X26971901Y57046912D01*
X26887034Y57064951D01*
X26808623Y57081618D01*
X26808619Y57081618D01*
X26802166Y57082990D01*
X26628638Y57082990D01*
X26622185Y57081618D01*
X26622181Y57081618D01*
X26543770Y57064951D01*
X26458903Y57046912D01*
X26452874Y57044228D01*
X26452872Y57044227D01*
X26306409Y56979017D01*
X26306407Y56979016D01*
X26300379Y56976332D01*
X26295038Y56972452D01*
X26295037Y56972451D01*
X26169916Y56881545D01*
X26159992Y56874335D01*
X26155571Y56869425D01*
X26155570Y56869424D01*
X26045136Y56746774D01*
X25984690Y56709534D01*
X25913707Y56710886D01*
X25854722Y56750399D01*
X25826464Y56815530D01*
X25825500Y56831084D01*
X25825500Y56915973D01*
X25822437Y56925400D01*
X25822436Y56925407D01*
X25818087Y56938792D01*
X25813473Y56958011D01*
X25811272Y56971908D01*
X25811270Y56971915D01*
X25809719Y56981706D01*
X25798827Y57003082D01*
X25791264Y57021343D01*
X25786914Y57034730D01*
X25783850Y57044161D01*
X25769749Y57063569D01*
X25759417Y57080428D01*
X25759066Y57081118D01*
X25748528Y57101800D01*
X24539510Y58310818D01*
X24505484Y58373130D01*
X24510549Y58443945D01*
X24553096Y58500781D01*
X24577357Y58515020D01*
X24624393Y58535961D01*
X24624400Y58535965D01*
X24630426Y58538648D01*
X24770812Y58640645D01*
X24822771Y58698351D01*
X24882503Y58764691D01*
X24886924Y58769601D01*
X24973688Y58919879D01*
X25027310Y59084914D01*
X25045449Y59257490D01*
X25885355Y59257490D01*
X25903494Y59084914D01*
X25957116Y58919879D01*
X26043880Y58769601D01*
X26048301Y58764691D01*
X26108034Y58698351D01*
X26159992Y58640645D01*
X26300378Y58538648D01*
X26306406Y58535964D01*
X26306408Y58535963D01*
X26452872Y58470753D01*
X26458903Y58468068D01*
X26532832Y58452354D01*
X26622181Y58433362D01*
X26622185Y58433362D01*
X26628638Y58431990D01*
X26802166Y58431990D01*
X26808619Y58433362D01*
X26808623Y58433362D01*
X26897972Y58452354D01*
X26971901Y58468068D01*
X26977932Y58470753D01*
X27124396Y58535963D01*
X27124398Y58535964D01*
X27130426Y58538648D01*
X27270812Y58640645D01*
X27322771Y58698351D01*
X27382503Y58764691D01*
X27386924Y58769601D01*
X27473688Y58919879D01*
X27527310Y59084914D01*
X27545449Y59257490D01*
X28385355Y59257490D01*
X28403494Y59084914D01*
X28457116Y58919879D01*
X28543880Y58769601D01*
X28548301Y58764691D01*
X28608034Y58698351D01*
X28659992Y58640645D01*
X28800378Y58538648D01*
X28806406Y58535964D01*
X28806408Y58535963D01*
X28952872Y58470753D01*
X28958903Y58468068D01*
X29032832Y58452354D01*
X29122181Y58433362D01*
X29122185Y58433362D01*
X29128638Y58431990D01*
X29302166Y58431990D01*
X29308619Y58433362D01*
X29308623Y58433362D01*
X29397972Y58452354D01*
X29471901Y58468068D01*
X29477932Y58470753D01*
X29624396Y58535963D01*
X29624398Y58535964D01*
X29630426Y58538648D01*
X29684988Y58578290D01*
X31253832Y58578290D01*
X31262660Y58566671D01*
X31295288Y58542965D01*
X31306660Y58536399D01*
X31453028Y58471232D01*
X31465516Y58467175D01*
X31622234Y58433862D01*
X31635294Y58432490D01*
X31795510Y58432490D01*
X31808570Y58433862D01*
X31965288Y58467175D01*
X31977776Y58471232D01*
X32124144Y58536399D01*
X32135516Y58542965D01*
X32168515Y58566940D01*
X32176939Y58577865D01*
X32176711Y58578290D01*
X33753832Y58578290D01*
X33762660Y58566671D01*
X33795288Y58542965D01*
X33806660Y58536399D01*
X33953028Y58471232D01*
X33965516Y58467175D01*
X34122234Y58433862D01*
X34135294Y58432490D01*
X34295510Y58432490D01*
X34308570Y58433862D01*
X34465288Y58467175D01*
X34477776Y58471232D01*
X34624144Y58536399D01*
X34635516Y58542965D01*
X34668515Y58566940D01*
X34676939Y58577865D01*
X34670036Y58590724D01*
X34228214Y59032546D01*
X34214270Y59040160D01*
X34212437Y59040029D01*
X34205822Y59035778D01*
X33760445Y58590401D01*
X33753832Y58578290D01*
X32176711Y58578290D01*
X32170036Y58590724D01*
X31728214Y59032546D01*
X31714270Y59040160D01*
X31712437Y59040029D01*
X31705822Y59035778D01*
X31260445Y58590401D01*
X31253832Y58578290D01*
X29684988Y58578290D01*
X29770812Y58640645D01*
X29822771Y58698351D01*
X29882503Y58764691D01*
X29886924Y58769601D01*
X29973688Y58919879D01*
X30027310Y59084914D01*
X30044759Y59250925D01*
X30886548Y59250925D01*
X30903296Y59091582D01*
X30906026Y59078739D01*
X30955534Y58926369D01*
X30960880Y58914361D01*
X31024757Y58803724D01*
X31034963Y58793993D01*
X31042984Y58797204D01*
X31490458Y59244678D01*
X31496836Y59256358D01*
X31932732Y59256358D01*
X31932863Y59254525D01*
X31937114Y59247910D01*
X32384177Y58800847D01*
X32396557Y58794087D01*
X32403472Y58799263D01*
X32469924Y58914361D01*
X32475270Y58926369D01*
X32524778Y59078739D01*
X32527508Y59091582D01*
X32544256Y59250925D01*
X33386548Y59250925D01*
X33403296Y59091582D01*
X33406026Y59078739D01*
X33455534Y58926369D01*
X33460880Y58914361D01*
X33524757Y58803724D01*
X33534963Y58793993D01*
X33542984Y58797204D01*
X33990458Y59244678D01*
X33996836Y59256358D01*
X34432732Y59256358D01*
X34432863Y59254525D01*
X34437114Y59247910D01*
X34884177Y58800847D01*
X34896557Y58794087D01*
X34903472Y58799263D01*
X34969924Y58914361D01*
X34975270Y58926369D01*
X35024778Y59078739D01*
X35027508Y59091582D01*
X35044256Y59250925D01*
X35044256Y59257490D01*
X35885355Y59257490D01*
X35903494Y59084914D01*
X35957116Y58919879D01*
X36043880Y58769601D01*
X36048301Y58764691D01*
X36108034Y58698351D01*
X36159992Y58640645D01*
X36300378Y58538648D01*
X36306406Y58535964D01*
X36306408Y58535963D01*
X36452872Y58470753D01*
X36458903Y58468068D01*
X36532832Y58452354D01*
X36622181Y58433362D01*
X36622185Y58433362D01*
X36628638Y58431990D01*
X36802166Y58431990D01*
X36808619Y58433362D01*
X36808623Y58433362D01*
X36897972Y58452354D01*
X36971901Y58468068D01*
X36977932Y58470753D01*
X37124396Y58535963D01*
X37124398Y58535964D01*
X37130426Y58538648D01*
X37270812Y58640645D01*
X37322771Y58698351D01*
X37382503Y58764691D01*
X37386924Y58769601D01*
X37473688Y58919879D01*
X37527310Y59084914D01*
X37545449Y59257490D01*
X38385355Y59257490D01*
X38403494Y59084914D01*
X38457116Y58919879D01*
X38543880Y58769601D01*
X38548301Y58764691D01*
X38608034Y58698351D01*
X38659992Y58640645D01*
X38800378Y58538648D01*
X38806406Y58535964D01*
X38806408Y58535963D01*
X38952872Y58470753D01*
X38958903Y58468068D01*
X39032832Y58452354D01*
X39122181Y58433362D01*
X39122185Y58433362D01*
X39128638Y58431990D01*
X39302166Y58431990D01*
X39308619Y58433362D01*
X39308623Y58433362D01*
X39397972Y58452354D01*
X39471901Y58468068D01*
X39477932Y58470753D01*
X39624396Y58535963D01*
X39624398Y58535964D01*
X39630426Y58538648D01*
X39770812Y58640645D01*
X39822771Y58698351D01*
X39882503Y58764691D01*
X39886924Y58769601D01*
X39973688Y58919879D01*
X40027310Y59084914D01*
X40045449Y59257490D01*
X40885355Y59257490D01*
X40903494Y59084914D01*
X40957116Y58919879D01*
X41043880Y58769601D01*
X41048301Y58764691D01*
X41108034Y58698351D01*
X41159992Y58640645D01*
X41300378Y58538648D01*
X41306406Y58535964D01*
X41306408Y58535963D01*
X41452872Y58470753D01*
X41458903Y58468068D01*
X41532832Y58452354D01*
X41622181Y58433362D01*
X41622185Y58433362D01*
X41628638Y58431990D01*
X41802166Y58431990D01*
X41808619Y58433362D01*
X41808623Y58433362D01*
X41897972Y58452354D01*
X41971901Y58468068D01*
X41977932Y58470753D01*
X42124396Y58535963D01*
X42124398Y58535964D01*
X42130426Y58538648D01*
X42270812Y58640645D01*
X42322771Y58698351D01*
X42382503Y58764691D01*
X42386924Y58769601D01*
X42473688Y58919879D01*
X42527310Y59084914D01*
X42545449Y59257490D01*
X43385355Y59257490D01*
X43403494Y59084914D01*
X43457116Y58919879D01*
X43543880Y58769601D01*
X43548301Y58764691D01*
X43608034Y58698351D01*
X43659992Y58640645D01*
X43800378Y58538648D01*
X43806406Y58535964D01*
X43806408Y58535963D01*
X43952872Y58470753D01*
X43958903Y58468068D01*
X44032832Y58452354D01*
X44122181Y58433362D01*
X44122185Y58433362D01*
X44128638Y58431990D01*
X44302166Y58431990D01*
X44308619Y58433362D01*
X44308623Y58433362D01*
X44397972Y58452354D01*
X44471901Y58468068D01*
X44477932Y58470753D01*
X44624396Y58535963D01*
X44624398Y58535964D01*
X44630426Y58538648D01*
X44770812Y58640645D01*
X44822771Y58698351D01*
X44882503Y58764691D01*
X44886924Y58769601D01*
X44973688Y58919879D01*
X45027310Y59084914D01*
X45045449Y59257490D01*
X45027310Y59430066D01*
X45018928Y59455866D01*
X44992318Y59537762D01*
X44973688Y59595101D01*
X44886924Y59745379D01*
X44770812Y59874335D01*
X44630426Y59976332D01*
X44624398Y59979016D01*
X44624396Y59979017D01*
X44477932Y60044227D01*
X44477931Y60044227D01*
X44471901Y60046912D01*
X44387034Y60064951D01*
X44308623Y60081618D01*
X44308619Y60081618D01*
X44302166Y60082990D01*
X44128638Y60082990D01*
X44122185Y60081618D01*
X44122181Y60081618D01*
X44043770Y60064951D01*
X43958903Y60046912D01*
X43952874Y60044228D01*
X43952872Y60044227D01*
X43806409Y59979017D01*
X43806407Y59979016D01*
X43800379Y59976332D01*
X43795038Y59972452D01*
X43795037Y59972451D01*
X43668589Y59880581D01*
X43659992Y59874335D01*
X43543880Y59745379D01*
X43457116Y59595101D01*
X43438486Y59537762D01*
X43411877Y59455866D01*
X43403494Y59430066D01*
X43385355Y59257490D01*
X42545449Y59257490D01*
X42527310Y59430066D01*
X42518928Y59455866D01*
X42492318Y59537762D01*
X42473688Y59595101D01*
X42386924Y59745379D01*
X42270812Y59874335D01*
X42130426Y59976332D01*
X42124398Y59979016D01*
X42124396Y59979017D01*
X41977932Y60044227D01*
X41977931Y60044227D01*
X41971901Y60046912D01*
X41887034Y60064951D01*
X41808623Y60081618D01*
X41808619Y60081618D01*
X41802166Y60082990D01*
X41628638Y60082990D01*
X41622185Y60081618D01*
X41622181Y60081618D01*
X41543770Y60064951D01*
X41458903Y60046912D01*
X41452874Y60044228D01*
X41452872Y60044227D01*
X41306409Y59979017D01*
X41306407Y59979016D01*
X41300379Y59976332D01*
X41295038Y59972452D01*
X41295037Y59972451D01*
X41168589Y59880581D01*
X41159992Y59874335D01*
X41043880Y59745379D01*
X40957116Y59595101D01*
X40938486Y59537762D01*
X40911877Y59455866D01*
X40903494Y59430066D01*
X40885355Y59257490D01*
X40045449Y59257490D01*
X40027310Y59430066D01*
X40018928Y59455866D01*
X39992318Y59537762D01*
X39973688Y59595101D01*
X39886924Y59745379D01*
X39770812Y59874335D01*
X39630426Y59976332D01*
X39624398Y59979016D01*
X39624396Y59979017D01*
X39477932Y60044227D01*
X39477931Y60044227D01*
X39471901Y60046912D01*
X39387034Y60064951D01*
X39308623Y60081618D01*
X39308619Y60081618D01*
X39302166Y60082990D01*
X39128638Y60082990D01*
X39122185Y60081618D01*
X39122181Y60081618D01*
X39043770Y60064951D01*
X38958903Y60046912D01*
X38952874Y60044228D01*
X38952872Y60044227D01*
X38806409Y59979017D01*
X38806407Y59979016D01*
X38800379Y59976332D01*
X38795038Y59972452D01*
X38795037Y59972451D01*
X38668589Y59880581D01*
X38659992Y59874335D01*
X38543880Y59745379D01*
X38457116Y59595101D01*
X38438486Y59537762D01*
X38411877Y59455866D01*
X38403494Y59430066D01*
X38385355Y59257490D01*
X37545449Y59257490D01*
X37527310Y59430066D01*
X37518928Y59455866D01*
X37492318Y59537762D01*
X37473688Y59595101D01*
X37386924Y59745379D01*
X37270812Y59874335D01*
X37130426Y59976332D01*
X37124398Y59979016D01*
X37124396Y59979017D01*
X36977932Y60044227D01*
X36977931Y60044227D01*
X36971901Y60046912D01*
X36887034Y60064951D01*
X36808623Y60081618D01*
X36808619Y60081618D01*
X36802166Y60082990D01*
X36628638Y60082990D01*
X36622185Y60081618D01*
X36622181Y60081618D01*
X36543770Y60064951D01*
X36458903Y60046912D01*
X36452874Y60044228D01*
X36452872Y60044227D01*
X36306409Y59979017D01*
X36306407Y59979016D01*
X36300379Y59976332D01*
X36295038Y59972452D01*
X36295037Y59972451D01*
X36168589Y59880581D01*
X36159992Y59874335D01*
X36043880Y59745379D01*
X35957116Y59595101D01*
X35938486Y59537762D01*
X35911877Y59455866D01*
X35903494Y59430066D01*
X35885355Y59257490D01*
X35044256Y59257490D01*
X35044256Y59264055D01*
X35027508Y59423398D01*
X35024778Y59436241D01*
X34975270Y59588611D01*
X34969924Y59600619D01*
X34906047Y59711256D01*
X34895841Y59720987D01*
X34887820Y59717776D01*
X34440346Y59270302D01*
X34432732Y59256358D01*
X33996836Y59256358D01*
X33998072Y59258622D01*
X33997941Y59260455D01*
X33993690Y59267070D01*
X33546627Y59714133D01*
X33534247Y59720893D01*
X33527332Y59715717D01*
X33460880Y59600619D01*
X33455534Y59588611D01*
X33406026Y59436241D01*
X33403296Y59423398D01*
X33386548Y59264055D01*
X33386548Y59250925D01*
X32544256Y59250925D01*
X32544256Y59264055D01*
X32527508Y59423398D01*
X32524778Y59436241D01*
X32475270Y59588611D01*
X32469924Y59600619D01*
X32406047Y59711256D01*
X32395841Y59720987D01*
X32387820Y59717776D01*
X31940346Y59270302D01*
X31932732Y59256358D01*
X31496836Y59256358D01*
X31498072Y59258622D01*
X31497941Y59260455D01*
X31493690Y59267070D01*
X31046627Y59714133D01*
X31034247Y59720893D01*
X31027332Y59715717D01*
X30960880Y59600619D01*
X30955534Y59588611D01*
X30906026Y59436241D01*
X30903296Y59423398D01*
X30886548Y59264055D01*
X30886548Y59250925D01*
X30044759Y59250925D01*
X30045449Y59257490D01*
X30027310Y59430066D01*
X30018928Y59455866D01*
X29992318Y59537762D01*
X29973688Y59595101D01*
X29886924Y59745379D01*
X29770812Y59874335D01*
X29684403Y59937115D01*
X31253865Y59937115D01*
X31260768Y59924256D01*
X31702590Y59482434D01*
X31716534Y59474820D01*
X31718367Y59474951D01*
X31724982Y59479202D01*
X32170359Y59924579D01*
X32176972Y59936690D01*
X32176649Y59937115D01*
X33753865Y59937115D01*
X33760768Y59924256D01*
X34202590Y59482434D01*
X34216534Y59474820D01*
X34218367Y59474951D01*
X34224982Y59479202D01*
X34670359Y59924579D01*
X34676972Y59936690D01*
X34668144Y59948309D01*
X34635516Y59972015D01*
X34624144Y59978581D01*
X34477776Y60043748D01*
X34465288Y60047805D01*
X34308570Y60081118D01*
X34295510Y60082490D01*
X34135294Y60082490D01*
X34122234Y60081118D01*
X33965516Y60047805D01*
X33953028Y60043748D01*
X33806660Y59978581D01*
X33795288Y59972015D01*
X33762289Y59948040D01*
X33753865Y59937115D01*
X32176649Y59937115D01*
X32168144Y59948309D01*
X32135516Y59972015D01*
X32124144Y59978581D01*
X31977776Y60043748D01*
X31965288Y60047805D01*
X31808570Y60081118D01*
X31795510Y60082490D01*
X31635294Y60082490D01*
X31622234Y60081118D01*
X31465516Y60047805D01*
X31453028Y60043748D01*
X31306660Y59978581D01*
X31295288Y59972015D01*
X31262289Y59948040D01*
X31253865Y59937115D01*
X29684403Y59937115D01*
X29630426Y59976332D01*
X29624398Y59979016D01*
X29624396Y59979017D01*
X29477932Y60044227D01*
X29477931Y60044227D01*
X29471901Y60046912D01*
X29387034Y60064951D01*
X29308623Y60081618D01*
X29308619Y60081618D01*
X29302166Y60082990D01*
X29128638Y60082990D01*
X29122185Y60081618D01*
X29122181Y60081618D01*
X29043770Y60064951D01*
X28958903Y60046912D01*
X28952874Y60044228D01*
X28952872Y60044227D01*
X28806409Y59979017D01*
X28806407Y59979016D01*
X28800379Y59976332D01*
X28795038Y59972452D01*
X28795037Y59972451D01*
X28668589Y59880581D01*
X28659992Y59874335D01*
X28543880Y59745379D01*
X28457116Y59595101D01*
X28438486Y59537762D01*
X28411877Y59455866D01*
X28403494Y59430066D01*
X28385355Y59257490D01*
X27545449Y59257490D01*
X27527310Y59430066D01*
X27518928Y59455866D01*
X27492318Y59537762D01*
X27473688Y59595101D01*
X27386924Y59745379D01*
X27270812Y59874335D01*
X27130426Y59976332D01*
X27124398Y59979016D01*
X27124396Y59979017D01*
X26977932Y60044227D01*
X26977931Y60044227D01*
X26971901Y60046912D01*
X26887034Y60064951D01*
X26808623Y60081618D01*
X26808619Y60081618D01*
X26802166Y60082990D01*
X26628638Y60082990D01*
X26622185Y60081618D01*
X26622181Y60081618D01*
X26543770Y60064951D01*
X26458903Y60046912D01*
X26452874Y60044228D01*
X26452872Y60044227D01*
X26306409Y59979017D01*
X26306407Y59979016D01*
X26300379Y59976332D01*
X26295038Y59972452D01*
X26295037Y59972451D01*
X26168589Y59880581D01*
X26159992Y59874335D01*
X26043880Y59745379D01*
X25957116Y59595101D01*
X25938486Y59537762D01*
X25911877Y59455866D01*
X25903494Y59430066D01*
X25885355Y59257490D01*
X25045449Y59257490D01*
X25027310Y59430066D01*
X25018928Y59455866D01*
X24992318Y59537762D01*
X24973688Y59595101D01*
X24886924Y59745379D01*
X24770812Y59874335D01*
X24630426Y59976332D01*
X24624398Y59979016D01*
X24624396Y59979017D01*
X24477932Y60044227D01*
X24477931Y60044227D01*
X24471901Y60046912D01*
X24387034Y60064951D01*
X24308623Y60081618D01*
X24308619Y60081618D01*
X24302166Y60082990D01*
X24128638Y60082990D01*
X24122185Y60081618D01*
X24122181Y60081618D01*
X24043770Y60064951D01*
X23958903Y60046912D01*
X23952874Y60044228D01*
X23952872Y60044227D01*
X23806409Y59979017D01*
X23806407Y59979016D01*
X23800379Y59976332D01*
X23795038Y59972452D01*
X23795037Y59972451D01*
X23668589Y59880581D01*
X23659992Y59874335D01*
X23543880Y59745379D01*
X23525840Y59714133D01*
X23465322Y59609314D01*
X23413939Y59560321D01*
X23344225Y59546886D01*
X23278315Y59573273D01*
X23267108Y59583220D01*
X22315539Y60534789D01*
X22294156Y60545684D01*
X22277310Y60556008D01*
X22265923Y60564281D01*
X22257900Y60570110D01*
X22248469Y60573174D01*
X22248466Y60573176D01*
X22235082Y60577525D01*
X22216821Y60585089D01*
X22204283Y60591477D01*
X22204282Y60591477D01*
X22195445Y60595980D01*
X22171748Y60599733D01*
X22152529Y60604347D01*
X22129712Y60611761D01*
X13763868Y60611761D01*
X13754441Y60608698D01*
X13754434Y60608697D01*
X13741049Y60604348D01*
X13721830Y60599734D01*
X13707933Y60597533D01*
X13707926Y60597531D01*
X13698135Y60595980D01*
X13676760Y60585089D01*
X13658498Y60577525D01*
X13635680Y60570111D01*
X13627658Y60564282D01*
X13627657Y60564282D01*
X13616272Y60556010D01*
X13599417Y60545680D01*
X13578041Y60534789D01*
X12351472Y59308220D01*
X12340577Y59286837D01*
X12330253Y59269991D01*
X12316151Y59250581D01*
X12313087Y59241150D01*
X12313085Y59241147D01*
X12308736Y59227763D01*
X12301172Y59209502D01*
X12290281Y59188126D01*
X12288730Y59178332D01*
X12286528Y59164430D01*
X12281914Y59145210D01*
X12274500Y59122393D01*
X12274500Y37820438D01*
X12254498Y37752317D01*
X12237595Y37731343D01*
X11068593Y36562341D01*
X11006281Y36528315D01*
X10935466Y36533380D01*
X10879535Y36574733D01*
X10847308Y36616733D01*
X10847305Y36616736D01*
X10842282Y36623282D01*
X10716841Y36719536D01*
X10711550Y36721728D01*
X10663364Y36772262D01*
X10649926Y36841975D01*
X10676312Y36907886D01*
X10711224Y36938137D01*
X10716841Y36940464D01*
X10842282Y37036718D01*
X10938536Y37162159D01*
X10999044Y37308238D01*
X11019682Y37465000D01*
X10999044Y37621762D01*
X10938536Y37767841D01*
X10862895Y37866419D01*
X10847305Y37886736D01*
X10842282Y37893282D01*
X10716841Y37989536D01*
X10711550Y37991728D01*
X10663364Y38042262D01*
X10649926Y38111975D01*
X10676312Y38177886D01*
X10711224Y38208137D01*
X10716841Y38210464D01*
X10842282Y38306718D01*
X10938536Y38432159D01*
X10999044Y38578238D01*
X11019682Y38735000D01*
X10999044Y38891762D01*
X10938536Y39037841D01*
X10842282Y39163282D01*
X10716841Y39259536D01*
X10570762Y39320044D01*
X10414000Y39340682D01*
X10257238Y39320044D01*
X10111159Y39259536D01*
X10104607Y39254509D01*
X10097454Y39250379D01*
X10095896Y39253078D01*
X10043459Y39232818D01*
X9973913Y39247096D01*
X9968616Y39250500D01*
X9968546Y39250379D01*
X9961393Y39254509D01*
X9954841Y39259536D01*
X9808762Y39320044D01*
X9652000Y39340682D01*
X9495238Y39320044D01*
X9349159Y39259536D01*
X9223718Y39163282D01*
X9127464Y39037841D01*
X9066956Y38891762D01*
X9046318Y38735000D01*
X9066956Y38578238D01*
X9127464Y38432159D01*
X9223718Y38306718D01*
X9349159Y38210464D01*
X9354450Y38208272D01*
X9402636Y38157738D01*
X9416074Y38088025D01*
X9389688Y38022114D01*
X9354776Y37991863D01*
X9349159Y37989536D01*
X9223718Y37893282D01*
X9218695Y37886736D01*
X9203105Y37866419D01*
X9127464Y37767841D01*
X9066956Y37621762D01*
X9046318Y37465000D01*
X9066956Y37308238D01*
X9127464Y37162159D01*
X9223718Y37036718D01*
X9349159Y36940464D01*
X9495238Y36879956D01*
X9503426Y36878878D01*
X9573619Y36869637D01*
X9652000Y36859318D01*
X9660188Y36860396D01*
X9800574Y36878878D01*
X9808762Y36879956D01*
X9954841Y36940464D01*
X9961393Y36945491D01*
X9968546Y36949621D01*
X9970104Y36946922D01*
X10022541Y36967182D01*
X10092087Y36952904D01*
X10097383Y36949500D01*
X10097453Y36949621D01*
X10104611Y36945489D01*
X10111159Y36940464D01*
X10116450Y36938272D01*
X10164636Y36887738D01*
X10178074Y36818025D01*
X10151688Y36752114D01*
X10116776Y36721863D01*
X10111159Y36719536D01*
X9985718Y36623282D01*
X9889464Y36497841D01*
X9828956Y36351762D01*
X9808318Y36195000D01*
X9828956Y36038238D01*
X9889464Y35892159D01*
X9985718Y35766718D01*
X9992264Y35761695D01*
X9992267Y35761692D01*
X10034267Y35729465D01*
X10076135Y35672128D01*
X10080357Y35601257D01*
X10046659Y35540407D01*
X6362666Y31856414D01*
X6351771Y31835031D01*
X6341447Y31818185D01*
X6327345Y31798775D01*
X6324281Y31789344D01*
X6324279Y31789341D01*
X6319930Y31775957D01*
X6312366Y31757696D01*
X6301475Y31736320D01*
X6297722Y31712624D01*
X6293108Y31693404D01*
X6285694Y31670587D01*
X6285694Y29963589D01*
X6265692Y29895468D01*
X6259656Y29886885D01*
X6191688Y29798307D01*
X6191686Y29798304D01*
X6186658Y29791751D01*
X6126150Y29645672D01*
X6105512Y29488910D01*
X6126150Y29332148D01*
X6186658Y29186069D01*
X6282912Y29060628D01*
X6408353Y28964374D01*
X6554432Y28903866D01*
X6711194Y28883228D01*
X6719382Y28884306D01*
X6859768Y28902788D01*
X6867956Y28903866D01*
X7014035Y28964374D01*
X7139476Y29060628D01*
X7235730Y29186069D01*
X7296238Y29332148D01*
X7316876Y29488910D01*
X7296238Y29645672D01*
X7235730Y29791751D01*
X7230702Y29798304D01*
X7230700Y29798307D01*
X7162732Y29886885D01*
X7137131Y29953105D01*
X7136694Y29963589D01*
X7136694Y31374756D01*
X7156696Y31442877D01*
X7173599Y31463851D01*
X10334405Y34624657D01*
X10396717Y34658683D01*
X10467532Y34653618D01*
X10524368Y34611071D01*
X10549179Y34544551D01*
X10549500Y34535562D01*
X10549500Y31709372D01*
X10539909Y31661154D01*
X10509480Y31587692D01*
X10488842Y31430930D01*
X10509480Y31274168D01*
X10569988Y31128089D01*
X10610860Y31074824D01*
X10643057Y31032864D01*
X10666242Y31002648D01*
X10672788Y30997625D01*
X10684847Y30988372D01*
X10791683Y30906394D01*
X10937762Y30845886D01*
X11094524Y30825248D01*
X11102712Y30826326D01*
X11243098Y30844808D01*
X11251286Y30845886D01*
X11397365Y30906394D01*
X11504201Y30988372D01*
X11516260Y30997625D01*
X11522806Y31002648D01*
X11545992Y31032864D01*
X11578188Y31074824D01*
X11619060Y31128089D01*
X11679568Y31274168D01*
X11700206Y31430930D01*
X11679568Y31587692D01*
X11660090Y31634715D01*
X11650500Y31682931D01*
X11650500Y34462766D01*
X12348318Y34462766D01*
X12368956Y34306004D01*
X12429464Y34159925D01*
X12434491Y34153374D01*
X12520262Y34041595D01*
X12525718Y34034484D01*
X12651159Y33938230D01*
X12797238Y33877722D01*
X12805426Y33876644D01*
X12874761Y33867516D01*
X12954000Y33857084D01*
X12962188Y33858162D01*
X13102574Y33876644D01*
X13110762Y33877722D01*
X13206739Y33917477D01*
X13277329Y33925066D01*
X13303173Y33917478D01*
X13432238Y33864017D01*
X13589000Y33843379D01*
X13597188Y33844457D01*
X13612722Y33846502D01*
X13745762Y33864017D01*
X13891841Y33924525D01*
X14017282Y34020779D01*
X14113536Y34146220D01*
X14174044Y34292299D01*
X14194682Y34449061D01*
X14174044Y34605823D01*
X14113536Y34751902D01*
X14017282Y34877343D01*
X13891841Y34973597D01*
X13745762Y35034105D01*
X13589000Y35054743D01*
X13432238Y35034105D01*
X13424609Y35030945D01*
X13336261Y34994350D01*
X13265671Y34986761D01*
X13239827Y34994349D01*
X13110762Y35047810D01*
X12954000Y35068448D01*
X12797238Y35047810D01*
X12651159Y34987302D01*
X12600774Y34948640D01*
X12532546Y34896287D01*
X12525718Y34891048D01*
X12520695Y34884502D01*
X12515202Y34877343D01*
X12429464Y34765607D01*
X12368956Y34619528D01*
X12367878Y34611340D01*
X12362217Y34568338D01*
X12348318Y34462766D01*
X11650500Y34462766D01*
X11650500Y34822785D01*
X11670502Y34890906D01*
X11687405Y34911880D01*
X15454785Y38679260D01*
X15517097Y38713286D01*
X15587912Y38708221D01*
X15644748Y38665674D01*
X15669559Y38599154D01*
X15669880Y38590165D01*
X15669880Y33468818D01*
X15649878Y33400697D01*
X15632975Y33379723D01*
X5426232Y23172980D01*
X5415337Y23151597D01*
X5405013Y23134751D01*
X5390911Y23115341D01*
X5387847Y23105910D01*
X5387845Y23105907D01*
X5383496Y23092523D01*
X5375932Y23074262D01*
X5365041Y23052886D01*
X5361288Y23029190D01*
X5356674Y23009970D01*
X5349260Y22987153D01*
X5349260Y20054024D01*
X5329258Y19985903D01*
X5312355Y19964929D01*
X4887016Y19539590D01*
X4824704Y19505564D01*
X4753889Y19510629D01*
X4714841Y19539860D01*
X4741690Y19508069D01*
X4750901Y19437672D01*
X4720591Y19373471D01*
X4715516Y19368090D01*
X3808852Y18461426D01*
X3797957Y18440043D01*
X3787633Y18423197D01*
X3773531Y18403787D01*
X3770467Y18394356D01*
X3770465Y18394353D01*
X3766116Y18380969D01*
X3758552Y18362708D01*
X3747661Y18341332D01*
X3746110Y18331538D01*
X3743908Y18317636D01*
X3739294Y18298416D01*
X3731880Y18275599D01*
X3731880Y15587227D01*
X2460000Y15587227D01*
X2460000Y20198592D01*
X3262983Y20198592D01*
X3281649Y20020989D01*
X3283919Y20014321D01*
X3323890Y19896909D01*
X3339200Y19851935D01*
X3432774Y19699832D01*
X3461823Y19670168D01*
X3547014Y19583175D01*
X3557721Y19572241D01*
X3707831Y19475502D01*
X3714451Y19473092D01*
X3714454Y19473091D01*
X3869023Y19416832D01*
X3875642Y19414423D01*
X3882630Y19413540D01*
X3882631Y19413540D01*
X3895859Y19411869D01*
X4013561Y19397000D01*
X4108907Y19397000D01*
X4185068Y19405543D01*
X4234473Y19411084D01*
X4234475Y19411085D01*
X4241469Y19411869D01*
X4410117Y19470599D01*
X4559651Y19564039D01*
X4628020Y19583175D01*
X4693357Y19563086D01*
X4672242Y19619696D01*
X4687333Y19689070D01*
X4691524Y19696180D01*
X4783967Y19841848D01*
X4843873Y20010083D01*
X4865017Y20187408D01*
X4846351Y20365011D01*
X4824952Y20427869D01*
X4791070Y20527398D01*
X4791069Y20527401D01*
X4788800Y20534065D01*
X4695226Y20686168D01*
X4570279Y20813759D01*
X4420169Y20910498D01*
X4413549Y20912908D01*
X4413546Y20912909D01*
X4258977Y20969168D01*
X4258976Y20969168D01*
X4252358Y20971577D01*
X4245370Y20972460D01*
X4245369Y20972460D01*
X4221223Y20975510D01*
X4114439Y20989000D01*
X4019093Y20989000D01*
X3942932Y20980457D01*
X3893527Y20974916D01*
X3893525Y20974915D01*
X3886531Y20974131D01*
X3717883Y20915401D01*
X3566438Y20820767D01*
X3561435Y20815799D01*
X3561434Y20815798D01*
X3510028Y20764750D01*
X3439721Y20694933D01*
X3344033Y20544152D01*
X3284127Y20375917D01*
X3262983Y20198592D01*
X2460000Y20198592D01*
X2460000Y29056772D01*
X2480002Y29124893D01*
X2533658Y29171386D01*
X2603932Y29181490D01*
X2668512Y29151996D01*
X2685962Y29133476D01*
X2766691Y29028268D01*
X2766695Y29028264D01*
X2771718Y29021718D01*
X2897159Y28925464D01*
X3043238Y28864956D01*
X3200000Y28844318D01*
X3208188Y28845396D01*
X3348574Y28863878D01*
X3356762Y28864956D01*
X3502841Y28925464D01*
X3628282Y29021718D01*
X3724536Y29147159D01*
X3785044Y29293238D01*
X3805682Y29450000D01*
X3785044Y29606762D01*
X3724536Y29752841D01*
X3628282Y29878282D01*
X3502841Y29974536D01*
X3356762Y30035044D01*
X3200000Y30055682D01*
X3043238Y30035044D01*
X2897159Y29974536D01*
X2771718Y29878282D01*
X2766695Y29871736D01*
X2766691Y29871732D01*
X2685962Y29766524D01*
X2628624Y29724657D01*
X2557754Y29720435D01*
X2495851Y29755199D01*
X2462569Y29817912D01*
X2460000Y29843228D01*
X2460000Y60788532D01*
X6615610Y60788532D01*
X6632093Y60502675D01*
X6632918Y60498470D01*
X6632919Y60498462D01*
X6664721Y60336371D01*
X6687218Y60221700D01*
X6688605Y60217650D01*
X6688606Y60217645D01*
X6778577Y59954862D01*
X6779966Y59950806D01*
X6815285Y59880581D01*
X6900447Y59711256D01*
X6908620Y59695005D01*
X6911046Y59691476D01*
X6911049Y59691470D01*
X6962349Y59616829D01*
X7070800Y59459032D01*
X7112012Y59413741D01*
X7260163Y59250925D01*
X7263505Y59247252D01*
X7286814Y59227763D01*
X7479877Y59066336D01*
X7479882Y59066332D01*
X7483169Y59063584D01*
X7547236Y59023395D01*
X7722087Y58913711D01*
X7722091Y58913709D01*
X7725727Y58911428D01*
X7986690Y58793599D01*
X7990809Y58792379D01*
X8257118Y58713494D01*
X8257123Y58713493D01*
X8261231Y58712276D01*
X8265465Y58711628D01*
X8265470Y58711627D01*
X8516274Y58673249D01*
X8544268Y58668965D01*
X8690084Y58666675D01*
X8826273Y58664535D01*
X8826279Y58664535D01*
X8830564Y58664468D01*
X9114822Y58698867D01*
X9391782Y58771526D01*
X9395742Y58773166D01*
X9395747Y58773168D01*
X9650649Y58878752D01*
X9656318Y58881100D01*
X9708219Y58911428D01*
X9899827Y59023395D01*
X9899829Y59023397D01*
X9903535Y59025562D01*
X10128860Y59202239D01*
X10135899Y59209502D01*
X10325139Y59404784D01*
X10328122Y59407862D01*
X10330655Y59411310D01*
X10330659Y59411315D01*
X10495096Y59635169D01*
X10497634Y59638624D01*
X10499680Y59642392D01*
X10632209Y59886482D01*
X10632210Y59886484D01*
X10634259Y59890258D01*
X10735471Y60158105D01*
X10799394Y60437210D01*
X10805620Y60506963D01*
X10824627Y60719943D01*
X10824847Y60722408D01*
X10825309Y60766490D01*
X10825140Y60768970D01*
X10823806Y60788532D01*
X47605610Y60788532D01*
X47622093Y60502675D01*
X47622918Y60498470D01*
X47622919Y60498462D01*
X47654721Y60336371D01*
X47677218Y60221700D01*
X47678605Y60217650D01*
X47678606Y60217645D01*
X47768577Y59954862D01*
X47769966Y59950806D01*
X47805285Y59880581D01*
X47890447Y59711256D01*
X47898620Y59695005D01*
X47901046Y59691476D01*
X47901049Y59691470D01*
X47952349Y59616829D01*
X48060800Y59459032D01*
X48102012Y59413741D01*
X48250163Y59250925D01*
X48253505Y59247252D01*
X48276814Y59227763D01*
X48469877Y59066336D01*
X48469882Y59066332D01*
X48473169Y59063584D01*
X48537236Y59023395D01*
X48712087Y58913711D01*
X48712091Y58913709D01*
X48715727Y58911428D01*
X48976690Y58793599D01*
X48980809Y58792379D01*
X49247118Y58713494D01*
X49247123Y58713493D01*
X49251231Y58712276D01*
X49255465Y58711628D01*
X49255470Y58711627D01*
X49506274Y58673249D01*
X49534268Y58668965D01*
X49680084Y58666675D01*
X49816273Y58664535D01*
X49816279Y58664535D01*
X49820564Y58664468D01*
X50104822Y58698867D01*
X50381782Y58771526D01*
X50385742Y58773166D01*
X50385747Y58773168D01*
X50640649Y58878752D01*
X50646318Y58881100D01*
X50698219Y58911428D01*
X50889827Y59023395D01*
X50889829Y59023397D01*
X50893535Y59025562D01*
X51118860Y59202239D01*
X51125899Y59209502D01*
X51315139Y59404784D01*
X51318122Y59407862D01*
X51320655Y59411310D01*
X51320659Y59411315D01*
X51485096Y59635169D01*
X51487634Y59638624D01*
X51489680Y59642392D01*
X51622209Y59886482D01*
X51622210Y59886484D01*
X51624259Y59890258D01*
X51725471Y60158105D01*
X51789394Y60437210D01*
X51795620Y60506963D01*
X51814627Y60719943D01*
X51814847Y60722408D01*
X51815309Y60766490D01*
X51815140Y60768970D01*
X51796126Y61047882D01*
X51796125Y61047888D01*
X51795834Y61052159D01*
X51737770Y61332541D01*
X51642190Y61602449D01*
X51510864Y61856889D01*
X51497656Y61875683D01*
X51348685Y62087646D01*
X51346222Y62091151D01*
X51151310Y62300901D01*
X50929735Y62482258D01*
X50685597Y62631866D01*
X50681661Y62633594D01*
X50427342Y62745233D01*
X50427338Y62745234D01*
X50423414Y62746957D01*
X50148037Y62825400D01*
X49937080Y62855423D01*
X49868814Y62865139D01*
X49868812Y62865139D01*
X49864562Y62865744D01*
X49713567Y62866534D01*
X49582520Y62867221D01*
X49582514Y62867221D01*
X49578234Y62867243D01*
X49573990Y62866684D01*
X49573986Y62866684D01*
X49449623Y62850311D01*
X49294352Y62829870D01*
X49290212Y62828737D01*
X49290210Y62828737D01*
X49191494Y62801731D01*
X49018168Y62754314D01*
X48754794Y62641976D01*
X48751113Y62639773D01*
X48512785Y62497137D01*
X48512781Y62497134D01*
X48509103Y62494933D01*
X48285641Y62315906D01*
X48232430Y62259833D01*
X48127524Y62149285D01*
X48088543Y62108208D01*
X47921457Y61875683D01*
X47787474Y61622633D01*
X47689073Y61353740D01*
X47628076Y61073981D01*
X47627740Y61069711D01*
X47606760Y60803138D01*
X47606759Y60803138D01*
X47606760Y60803133D01*
X47605610Y60788532D01*
X10823806Y60788532D01*
X10806126Y61047882D01*
X10806125Y61047888D01*
X10805834Y61052159D01*
X10747770Y61332541D01*
X10652190Y61602449D01*
X10520864Y61856889D01*
X10507656Y61875683D01*
X10358685Y62087646D01*
X10356222Y62091151D01*
X10161310Y62300901D01*
X9939735Y62482258D01*
X9695597Y62631866D01*
X9691661Y62633594D01*
X9437342Y62745233D01*
X9437338Y62745234D01*
X9433414Y62746957D01*
X9158037Y62825400D01*
X8947080Y62855423D01*
X8878814Y62865139D01*
X8878812Y62865139D01*
X8874562Y62865744D01*
X8723567Y62866534D01*
X8592520Y62867221D01*
X8592514Y62867221D01*
X8588234Y62867243D01*
X8583990Y62866684D01*
X8583986Y62866684D01*
X8459623Y62850311D01*
X8304352Y62829870D01*
X8300212Y62828737D01*
X8300210Y62828737D01*
X8201494Y62801731D01*
X8028168Y62754314D01*
X7764794Y62641976D01*
X7761113Y62639773D01*
X7522785Y62497137D01*
X7522781Y62497134D01*
X7519103Y62494933D01*
X7295641Y62315906D01*
X7242430Y62259833D01*
X7137524Y62149285D01*
X7098543Y62108208D01*
X6931457Y61875683D01*
X6797474Y61622633D01*
X6699073Y61353740D01*
X6638076Y61073981D01*
X6637740Y61069711D01*
X6616760Y60803138D01*
X6616759Y60803138D01*
X6616760Y60803133D01*
X6615610Y60788532D01*
X2460000Y60788532D01*
X2460000Y64637726D01*
X2461914Y64659607D01*
X2462714Y64664144D01*
X2462714Y64664146D01*
X2464628Y64674998D01*
X2462714Y64685853D01*
X2462714Y64696878D01*
X2462795Y64696878D01*
X2462080Y64709386D01*
X2475582Y64932573D01*
X2477416Y64947676D01*
X2522555Y65193991D01*
X2526196Y65208765D01*
X2554328Y65299040D01*
X2600702Y65447861D01*
X2606097Y65462083D01*
X2606099Y65462086D01*
X2708874Y65690442D01*
X2715942Y65703909D01*
X2829521Y65891790D01*
X2845496Y65918216D01*
X2854138Y65930737D01*
X3008584Y66127872D01*
X3018674Y66139260D01*
X3195740Y66316326D01*
X3207128Y66326416D01*
X3404263Y66480862D01*
X3416785Y66489505D01*
X3631091Y66619058D01*
X3644564Y66626129D01*
X3644580Y66626136D01*
X3872920Y66728904D01*
X3887139Y66734298D01*
X4126241Y66808805D01*
X4141003Y66812444D01*
X4332782Y66847589D01*
X4387324Y66857584D01*
X4402427Y66859418D01*
X4583496Y66870372D01*
X4625614Y66872920D01*
X4638122Y66872205D01*
X4638122Y66872286D01*
X4649147Y66872286D01*
X4660002Y66870372D01*
X4670856Y66872286D01*
X4675393Y66873086D01*
X4697274Y66875000D01*
X53722730Y66875000D01*
X53744609Y66873086D01*
G37*
G04 #@! TD.AperFunction*
G04 #@! TA.AperFunction,Conductor*
G36*
X8346656Y21633157D02*
G01*
X8393149Y21579501D01*
X8403253Y21509227D01*
X8397234Y21484892D01*
X8364127Y21391917D01*
X8342983Y21214592D01*
X8361649Y21036989D01*
X8363919Y21030321D01*
X8413611Y20884353D01*
X8419200Y20867935D01*
X8512774Y20715832D01*
X8637721Y20588241D01*
X8787831Y20491502D01*
X8794451Y20489092D01*
X8794454Y20489091D01*
X8949023Y20432832D01*
X8955642Y20430423D01*
X8962630Y20429540D01*
X8962631Y20429540D01*
X8975859Y20427869D01*
X9093561Y20413000D01*
X9188907Y20413000D01*
X9265068Y20421543D01*
X9314473Y20427084D01*
X9314475Y20427085D01*
X9321469Y20427869D01*
X9490117Y20486599D01*
X9641562Y20581233D01*
X9653687Y20593273D01*
X9741192Y20680169D01*
X9768279Y20707067D01*
X9863967Y20857848D01*
X9923873Y21026083D01*
X9945017Y21203408D01*
X9942133Y21230846D01*
X9954905Y21300683D01*
X10003406Y21352530D01*
X10072239Y21369925D01*
X10139549Y21347344D01*
X10156538Y21333111D01*
X10375177Y21114472D01*
X10396560Y21103577D01*
X10413406Y21093253D01*
X10432816Y21079151D01*
X10442247Y21076087D01*
X10442250Y21076085D01*
X10455634Y21071736D01*
X10473895Y21064172D01*
X10484588Y21058724D01*
X10495271Y21053281D01*
X10518968Y21049528D01*
X10538187Y21044914D01*
X10561004Y21037500D01*
X12257563Y21037500D01*
X12325684Y21017498D01*
X12372177Y20963842D01*
X12382281Y20893568D01*
X12352787Y20828988D01*
X12346659Y20822406D01*
X10102640Y18578388D01*
X7861657Y16337405D01*
X7799345Y16303379D01*
X7772562Y16300500D01*
X7325776Y16300500D01*
X7257655Y16320502D01*
X7211162Y16374158D01*
X7200854Y16442947D01*
X7208604Y16501813D01*
X7209682Y16510000D01*
X7189044Y16666762D01*
X7128536Y16812841D01*
X7123508Y16819394D01*
X7123506Y16819397D01*
X7055538Y16907975D01*
X7029937Y16974195D01*
X7029500Y16984679D01*
X7029500Y19182592D01*
X8342983Y19182592D01*
X8361649Y19004989D01*
X8419200Y18835935D01*
X8512774Y18683832D01*
X8574709Y18620586D01*
X8610187Y18584358D01*
X8637721Y18556241D01*
X8787831Y18459502D01*
X8794451Y18457092D01*
X8794454Y18457091D01*
X8949023Y18400832D01*
X8955642Y18398423D01*
X8962630Y18397540D01*
X8962631Y18397540D01*
X8975859Y18395869D01*
X9093561Y18381000D01*
X9188907Y18381000D01*
X9265068Y18389543D01*
X9314473Y18395084D01*
X9314475Y18395085D01*
X9321469Y18395869D01*
X9490117Y18454599D01*
X9641562Y18549233D01*
X9653687Y18561273D01*
X9763276Y18670099D01*
X9768279Y18675067D01*
X9863967Y18825848D01*
X9923873Y18994083D01*
X9945017Y19171408D01*
X9926351Y19349011D01*
X9904952Y19411869D01*
X9871070Y19511398D01*
X9871069Y19511401D01*
X9868800Y19518065D01*
X9775226Y19670168D01*
X9650279Y19797759D01*
X9500169Y19894498D01*
X9493549Y19896908D01*
X9493546Y19896909D01*
X9338977Y19953168D01*
X9338976Y19953168D01*
X9332358Y19955577D01*
X9325370Y19956460D01*
X9325369Y19956460D01*
X9301223Y19959510D01*
X9194439Y19973000D01*
X9099093Y19973000D01*
X9022932Y19964457D01*
X8973527Y19958916D01*
X8973525Y19958915D01*
X8966531Y19958131D01*
X8797883Y19899401D01*
X8646438Y19804767D01*
X8641435Y19799799D01*
X8641434Y19799798D01*
X8584594Y19743354D01*
X8519721Y19678933D01*
X8424033Y19528152D01*
X8364127Y19359917D01*
X8342983Y19182592D01*
X7029500Y19182592D01*
X7029500Y21356335D01*
X7049502Y21424456D01*
X7103158Y21470949D01*
X7139054Y21481257D01*
X7224734Y21492537D01*
X7232922Y21493615D01*
X7379001Y21554123D01*
X7385554Y21559151D01*
X7385557Y21559153D01*
X7474135Y21627121D01*
X7540355Y21652722D01*
X7550839Y21653159D01*
X8278535Y21653159D01*
X8346656Y21633157D01*
G37*
G04 #@! TD.AperFunction*
G04 #@! TA.AperFunction,Conductor*
G36*
X36793332Y20353620D02*
G01*
X36850168Y20311073D01*
X36874979Y20244553D01*
X36874222Y20219118D01*
X36859297Y20105751D01*
X36879935Y19948989D01*
X36940443Y19802910D01*
X37036697Y19677469D01*
X37162138Y19581215D01*
X37308217Y19520707D01*
X37361793Y19513654D01*
X37426719Y19484932D01*
X37465811Y19425667D01*
X37466656Y19354675D01*
X37434441Y19299637D01*
X36511689Y18376885D01*
X36449377Y18342859D01*
X36422594Y18339980D01*
X34980918Y18339980D01*
X34912797Y18359982D01*
X34866304Y18413638D01*
X34856200Y18483912D01*
X34885694Y18548492D01*
X34891823Y18555075D01*
X35504243Y19167495D01*
X35505073Y19169123D01*
X35507437Y19171891D01*
X36660205Y20324659D01*
X36722517Y20358685D01*
X36793332Y20353620D01*
G37*
G04 #@! TD.AperFunction*
G04 #@! TA.AperFunction,Conductor*
G36*
X28028942Y31846118D02*
G01*
X28075435Y31792462D01*
X28085539Y31722188D01*
X28056045Y31657608D01*
X28049916Y31651025D01*
X27430852Y31031961D01*
X27419957Y31010578D01*
X27409633Y30993732D01*
X27395531Y30974322D01*
X27392467Y30964891D01*
X27392465Y30964888D01*
X27388116Y30951504D01*
X27380552Y30933243D01*
X27369661Y30911867D01*
X27366318Y30890762D01*
X27365908Y30888171D01*
X27361294Y30868951D01*
X27353880Y30846134D01*
X27353880Y26771438D01*
X27333878Y26703317D01*
X27316975Y26682343D01*
X25403526Y24768894D01*
X25341214Y24734868D01*
X25270399Y24739933D01*
X25213563Y24782480D01*
X25198022Y24809771D01*
X25165697Y24887811D01*
X25165695Y24887814D01*
X25162536Y24895441D01*
X25066282Y25020882D01*
X24940841Y25117136D01*
X24794762Y25177644D01*
X24638000Y25198282D01*
X24481238Y25177644D01*
X24335159Y25117136D01*
X24209718Y25020882D01*
X24113464Y24895441D01*
X24052956Y24749362D01*
X24032318Y24592600D01*
X24052956Y24435838D01*
X24113464Y24289759D01*
X24155154Y24235427D01*
X24181881Y24200596D01*
X24207481Y24134375D01*
X24193216Y24064827D01*
X24143615Y24014031D01*
X24110198Y24002908D01*
X24110533Y24001659D01*
X24102557Y23999522D01*
X24094369Y23998444D01*
X23948290Y23937936D01*
X23822849Y23841682D01*
X23726595Y23716241D01*
X23666087Y23570162D01*
X23645449Y23413400D01*
X23657327Y23323179D01*
X23662017Y23287553D01*
X23651078Y23217404D01*
X23603950Y23164306D01*
X23535596Y23145116D01*
X23520658Y23146184D01*
X23368000Y23166282D01*
X23211238Y23145644D01*
X23065159Y23085136D01*
X22939718Y22988882D01*
X22843464Y22863441D01*
X22782956Y22717362D01*
X22762318Y22560600D01*
X22765278Y22538121D01*
X22769085Y22509203D01*
X22758146Y22439054D01*
X22711018Y22385955D01*
X22644163Y22366756D01*
X17481860Y22366756D01*
X17413739Y22386758D01*
X17367246Y22440414D01*
X17356938Y22509201D01*
X17369682Y22606000D01*
X17349044Y22762762D01*
X17288536Y22908841D01*
X17192282Y23034282D01*
X17109846Y23097537D01*
X17067979Y23154875D01*
X17063757Y23225746D01*
X17098521Y23287649D01*
X17161233Y23320930D01*
X17186550Y23323500D01*
X21765028Y23323500D01*
X21787845Y23330914D01*
X21807064Y23335528D01*
X21830761Y23339281D01*
X21839599Y23343784D01*
X21852137Y23350172D01*
X21870398Y23357736D01*
X21883782Y23362085D01*
X21883785Y23362087D01*
X21893216Y23365151D01*
X21912626Y23379253D01*
X21929472Y23389577D01*
X21950855Y23400472D01*
X25742412Y27192029D01*
X25804724Y27226055D01*
X25815061Y27227856D01*
X25887151Y27237347D01*
X25933949Y27243508D01*
X26080028Y27304016D01*
X26174632Y27376608D01*
X26198923Y27395247D01*
X26205469Y27400270D01*
X26301723Y27525711D01*
X26362231Y27671790D01*
X26382869Y27828552D01*
X26362231Y27985314D01*
X26358055Y27995397D01*
X26341941Y28034298D01*
X26301723Y28131393D01*
X26205469Y28256834D01*
X26080028Y28353088D01*
X25933949Y28413596D01*
X25925761Y28414674D01*
X25917785Y28416811D01*
X25918194Y28418339D01*
X25861857Y28443264D01*
X25822768Y28502530D01*
X25821925Y28573522D01*
X25843272Y28616165D01*
X25895875Y28684719D01*
X25895878Y28684724D01*
X25900905Y28691275D01*
X25961413Y28837354D01*
X25982051Y28994116D01*
X25961413Y29150878D01*
X25900905Y29296957D01*
X25804651Y29422398D01*
X25679210Y29518652D01*
X25533131Y29579160D01*
X25460941Y29588664D01*
X25414243Y29594812D01*
X25349315Y29623534D01*
X25341594Y29630639D01*
X25286705Y29685528D01*
X25265322Y29696423D01*
X25248476Y29706747D01*
X25247358Y29707559D01*
X25229066Y29720849D01*
X25219635Y29723913D01*
X25219632Y29723915D01*
X25206248Y29728264D01*
X25187987Y29735828D01*
X25175449Y29742216D01*
X25175448Y29742216D01*
X25166611Y29746719D01*
X25142914Y29750472D01*
X25123695Y29755086D01*
X25100878Y29762500D01*
X23011567Y29762500D01*
X22943446Y29782502D01*
X22896953Y29836158D01*
X22886849Y29906432D01*
X22892373Y29926569D01*
X22892146Y29926630D01*
X22894284Y29934609D01*
X22897444Y29942238D01*
X22918082Y30099000D01*
X22897444Y30255762D01*
X22836936Y30401841D01*
X22771748Y30486796D01*
X22746148Y30553017D01*
X22760413Y30622565D01*
X22810014Y30673361D01*
X22871711Y30689500D01*
X23393562Y30689500D01*
X23461683Y30669498D01*
X23482657Y30652595D01*
X23958391Y30176861D01*
X23979774Y30165966D01*
X23996620Y30155642D01*
X24016030Y30141540D01*
X24025461Y30138476D01*
X24025464Y30138474D01*
X24038848Y30134125D01*
X24057109Y30126561D01*
X24069647Y30120173D01*
X24078485Y30115670D01*
X24102182Y30111917D01*
X24121401Y30107303D01*
X24144218Y30099889D01*
X25006455Y30099889D01*
X25029272Y30107303D01*
X25048491Y30111917D01*
X25072188Y30115670D01*
X25081026Y30120173D01*
X25093564Y30126561D01*
X25111825Y30134125D01*
X25125209Y30138474D01*
X25125212Y30138476D01*
X25134643Y30141540D01*
X25154053Y30155642D01*
X25170899Y30165966D01*
X25192282Y30176861D01*
X26844636Y31829215D01*
X26906948Y31863241D01*
X26933731Y31866120D01*
X27960821Y31866120D01*
X28028942Y31846118D01*
G37*
G04 #@! TD.AperFunction*
G04 #@! TA.AperFunction,Conductor*
G36*
X23414025Y55993927D02*
G01*
X23451345Y55937641D01*
X23457116Y55919879D01*
X23543880Y55769601D01*
X23659992Y55640645D01*
X23800378Y55538648D01*
X23806406Y55535964D01*
X23806408Y55535963D01*
X23952872Y55470753D01*
X23958903Y55468068D01*
X24043770Y55450029D01*
X24122181Y55433362D01*
X24122185Y55433362D01*
X24128638Y55431990D01*
X24302166Y55431990D01*
X24308619Y55433362D01*
X24308623Y55433362D01*
X24387034Y55450029D01*
X24471901Y55468068D01*
X24477932Y55470753D01*
X24624396Y55535963D01*
X24624398Y55535964D01*
X24630426Y55538648D01*
X24669367Y55566940D01*
X24770812Y55640645D01*
X24771812Y55639268D01*
X24828193Y55666328D01*
X24898647Y55657566D01*
X24953179Y55612105D01*
X24974500Y55541975D01*
X24974500Y55082607D01*
X24981914Y55059790D01*
X24986528Y55040571D01*
X24990281Y55016874D01*
X24994784Y55008037D01*
X24994784Y55008036D01*
X25001172Y54995498D01*
X25008736Y54977237D01*
X25013085Y54963853D01*
X25013087Y54963850D01*
X25016151Y54954419D01*
X25021980Y54946396D01*
X25030253Y54935009D01*
X25040577Y54918163D01*
X25051472Y54896780D01*
X29508403Y50439849D01*
X29542429Y50377537D01*
X29537364Y50306722D01*
X29494817Y50249886D01*
X29428297Y50225075D01*
X29371090Y50234345D01*
X29264358Y50278555D01*
X29256729Y50281715D01*
X29099967Y50302353D01*
X28943205Y50281715D01*
X28797126Y50221207D01*
X28671685Y50124953D01*
X28575431Y49999512D01*
X28514923Y49853433D01*
X28494285Y49696671D01*
X28514923Y49539909D01*
X28575431Y49393830D01*
X28671685Y49268389D01*
X28797126Y49172135D01*
X28943205Y49111627D01*
X29099967Y49090989D01*
X29108155Y49092067D01*
X29248541Y49110549D01*
X29256729Y49111627D01*
X29402808Y49172135D01*
X29409361Y49177163D01*
X29409364Y49177165D01*
X29497942Y49245133D01*
X29564162Y49270734D01*
X29574646Y49271171D01*
X30024891Y49271171D01*
X30093012Y49251169D01*
X30113986Y49234266D01*
X38653595Y40694657D01*
X38687621Y40632345D01*
X38690500Y40605562D01*
X38690500Y33516607D01*
X38697914Y33493790D01*
X38702528Y33474571D01*
X38706281Y33450874D01*
X38710784Y33442037D01*
X38710784Y33442036D01*
X38717172Y33429498D01*
X38724736Y33411237D01*
X38729085Y33397853D01*
X38729087Y33397850D01*
X38732151Y33388419D01*
X38737980Y33380396D01*
X38746253Y33369009D01*
X38756577Y33352163D01*
X38767472Y33330780D01*
X41072975Y31025277D01*
X41107001Y30962965D01*
X41109880Y30936182D01*
X41109880Y30682481D01*
X41089878Y30614360D01*
X41036222Y30567867D01*
X40965948Y30557763D01*
X40901368Y30587257D01*
X40883917Y30605777D01*
X40833305Y30671736D01*
X40828282Y30678282D01*
X40821378Y30683580D01*
X40768711Y30723992D01*
X40702841Y30774536D01*
X40556762Y30835044D01*
X40547868Y30836215D01*
X40408188Y30854604D01*
X40400000Y30855682D01*
X40391812Y30854604D01*
X40252133Y30836215D01*
X40243238Y30835044D01*
X40235609Y30831884D01*
X40125480Y30786267D01*
X40054890Y30778678D01*
X39988167Y30813581D01*
X38527904Y32273844D01*
X38506521Y32284739D01*
X38489675Y32295063D01*
X38478288Y32303336D01*
X38470265Y32309165D01*
X38460834Y32312229D01*
X38460831Y32312231D01*
X38447447Y32316580D01*
X38429186Y32324144D01*
X38416648Y32330532D01*
X38416647Y32330532D01*
X38407810Y32335035D01*
X38384113Y32338788D01*
X38364894Y32343402D01*
X38342077Y32350816D01*
X36556923Y32350816D01*
X36534106Y32343402D01*
X36514887Y32338788D01*
X36491190Y32335035D01*
X36482353Y32330532D01*
X36482352Y32330532D01*
X36469814Y32324144D01*
X36451553Y32316580D01*
X36438169Y32312231D01*
X36438166Y32312229D01*
X36428735Y32309165D01*
X36420712Y32303336D01*
X36409325Y32295063D01*
X36392479Y32284739D01*
X36371096Y32273844D01*
X33651472Y29554220D01*
X33640577Y29532837D01*
X33630253Y29515991D01*
X33616151Y29496581D01*
X33613087Y29487150D01*
X33613085Y29487147D01*
X33608736Y29473763D01*
X33601172Y29455502D01*
X33590281Y29434126D01*
X33587387Y29415852D01*
X33586528Y29410430D01*
X33581914Y29391210D01*
X33574500Y29368393D01*
X33574500Y26396953D01*
X33554498Y26328832D01*
X33500842Y26282339D01*
X33432054Y26272031D01*
X33388289Y26277793D01*
X33231527Y26257155D01*
X33223898Y26253995D01*
X33219533Y26252187D01*
X33148943Y26244599D01*
X33085457Y26276380D01*
X33071355Y26291893D01*
X33057602Y26309817D01*
X33057599Y26309820D01*
X33052573Y26316370D01*
X33024592Y26337841D01*
X32933683Y26407597D01*
X32927132Y26412624D01*
X32781053Y26473132D01*
X32782402Y26476390D01*
X32735625Y26504952D01*
X32704003Y26573188D01*
X32699722Y26605707D01*
X32698644Y26613895D01*
X32638136Y26759974D01*
X32586637Y26827089D01*
X32561037Y26893310D01*
X32570191Y26952011D01*
X32612810Y27054902D01*
X32615970Y27062531D01*
X32636608Y27219293D01*
X32615970Y27376055D01*
X32555462Y27522134D01*
X32459208Y27647575D01*
X32333767Y27743829D01*
X32187688Y27804337D01*
X32030926Y27824975D01*
X31874164Y27804337D01*
X31728085Y27743829D01*
X31602644Y27647575D01*
X31506390Y27522134D01*
X31445882Y27376055D01*
X31425244Y27219293D01*
X31445882Y27062531D01*
X31506390Y26916452D01*
X31556273Y26851443D01*
X31557889Y26849337D01*
X31583489Y26783116D01*
X31574335Y26724415D01*
X31535420Y26630465D01*
X31528556Y26613895D01*
X31507918Y26457133D01*
X31508996Y26448945D01*
X31524628Y26330211D01*
X31528556Y26300371D01*
X31589064Y26154292D01*
X31685318Y26028851D01*
X31810759Y25932597D01*
X31922561Y25886287D01*
X31956838Y25872089D01*
X31955489Y25868831D01*
X32002266Y25840269D01*
X32033888Y25772033D01*
X32039247Y25731326D01*
X32099755Y25585247D01*
X32196009Y25459806D01*
X32202555Y25454783D01*
X32208846Y25449956D01*
X32321450Y25363552D01*
X32467529Y25303044D01*
X32624291Y25282406D01*
X32632479Y25283484D01*
X32772865Y25301966D01*
X32781053Y25303044D01*
X32793047Y25308012D01*
X32863637Y25315600D01*
X32927123Y25283819D01*
X32941225Y25268306D01*
X32954978Y25250382D01*
X32954981Y25250379D01*
X32960007Y25243829D01*
X32966557Y25238803D01*
X32966562Y25238798D01*
X32977338Y25230529D01*
X33019203Y25173190D01*
X33023423Y25102319D01*
X32989726Y25041474D01*
X31143657Y23195405D01*
X31081345Y23161379D01*
X31054562Y23158500D01*
X27652679Y23158500D01*
X27584558Y23178502D01*
X27575975Y23184538D01*
X27487397Y23252506D01*
X27487394Y23252508D01*
X27480841Y23257536D01*
X27334762Y23318044D01*
X27178000Y23338682D01*
X27021238Y23318044D01*
X26875159Y23257536D01*
X26873073Y23255935D01*
X26806612Y23239813D01*
X26739520Y23263034D01*
X26695633Y23318842D01*
X26688885Y23389517D01*
X26723513Y23454765D01*
X28957148Y25688400D01*
X28968039Y25709776D01*
X28978369Y25726631D01*
X28986641Y25738016D01*
X28986641Y25738017D01*
X28992470Y25746039D01*
X28999884Y25768857D01*
X29007447Y25787118D01*
X29018339Y25808494D01*
X29019890Y25818285D01*
X29019892Y25818292D01*
X29022093Y25832189D01*
X29026707Y25851408D01*
X29031056Y25864793D01*
X29031057Y25864800D01*
X29034120Y25874227D01*
X29034120Y29269182D01*
X29054122Y29337303D01*
X29071025Y29358277D01*
X29175225Y29462477D01*
X29237537Y29496503D01*
X29247874Y29498304D01*
X29319964Y29507795D01*
X29366762Y29513956D01*
X29512841Y29574464D01*
X29638282Y29670718D01*
X29734536Y29796159D01*
X29795044Y29942238D01*
X29815682Y30099000D01*
X29795044Y30255762D01*
X29734536Y30401841D01*
X29638282Y30527282D01*
X29640208Y30528760D01*
X29612110Y30580217D01*
X29617175Y30651032D01*
X29639506Y30685779D01*
X29638282Y30686718D01*
X29656000Y30709809D01*
X29734536Y30812159D01*
X29795044Y30958238D01*
X29797162Y30974322D01*
X29814604Y31106812D01*
X29815682Y31115000D01*
X29800303Y31231818D01*
X29796122Y31263574D01*
X29795044Y31271762D01*
X29791884Y31279391D01*
X29789746Y31287370D01*
X29791618Y31287872D01*
X29785171Y31347881D01*
X29816954Y31411365D01*
X29878015Y31447588D01*
X29909167Y31451500D01*
X30039393Y31451500D01*
X30062210Y31458914D01*
X30081429Y31463528D01*
X30105126Y31467281D01*
X30113964Y31471784D01*
X30126502Y31478172D01*
X30144763Y31485736D01*
X30158147Y31490085D01*
X30158150Y31490087D01*
X30167581Y31493151D01*
X30186991Y31507253D01*
X30203837Y31517577D01*
X30225220Y31528472D01*
X31127343Y32430595D01*
X31189655Y32464621D01*
X31216438Y32467500D01*
X33561321Y32467500D01*
X33629442Y32447498D01*
X33638025Y32441462D01*
X33726603Y32373494D01*
X33726606Y32373492D01*
X33733159Y32368464D01*
X33879238Y32307956D01*
X33887426Y32306878D01*
X33934854Y32300634D01*
X34036000Y32287318D01*
X34044188Y32288396D01*
X34184574Y32306878D01*
X34192762Y32307956D01*
X34338841Y32368464D01*
X34464282Y32464718D01*
X34465760Y32462792D01*
X34517217Y32490890D01*
X34588032Y32485825D01*
X34622779Y32463494D01*
X34623718Y32464718D01*
X34749159Y32368464D01*
X34895238Y32307956D01*
X34903426Y32306878D01*
X34950854Y32300634D01*
X35052000Y32287318D01*
X35060188Y32288396D01*
X35200574Y32306878D01*
X35208762Y32307956D01*
X35354841Y32368464D01*
X35480282Y32464718D01*
X35576536Y32590159D01*
X35637044Y32736238D01*
X35657682Y32893000D01*
X35637044Y33049762D01*
X35576536Y33195841D01*
X35571508Y33202394D01*
X35571506Y33202397D01*
X35503538Y33290975D01*
X35477937Y33357195D01*
X35477500Y33367679D01*
X35477500Y36957000D01*
X36224318Y36957000D01*
X36225396Y36948812D01*
X36243099Y36814347D01*
X36244956Y36800238D01*
X36305464Y36654159D01*
X36401718Y36528718D01*
X36527159Y36432464D01*
X36673238Y36371956D01*
X36830000Y36351318D01*
X36838188Y36352396D01*
X36978574Y36370878D01*
X36986762Y36371956D01*
X37132841Y36432464D01*
X37258282Y36528718D01*
X37354536Y36654159D01*
X37415044Y36800238D01*
X37416902Y36814347D01*
X37434604Y36948812D01*
X37435682Y36957000D01*
X37415044Y37113762D01*
X37354536Y37259841D01*
X37271726Y37367762D01*
X37263305Y37378736D01*
X37258282Y37385282D01*
X37132841Y37481536D01*
X36986762Y37542044D01*
X36830000Y37562682D01*
X36673238Y37542044D01*
X36527159Y37481536D01*
X36401718Y37385282D01*
X36396695Y37378736D01*
X36388274Y37367762D01*
X36305464Y37259841D01*
X36244956Y37113762D01*
X36224318Y36957000D01*
X35477500Y36957000D01*
X35477500Y40318466D01*
X35470086Y40341283D01*
X35465472Y40360503D01*
X35463270Y40374405D01*
X35461719Y40384199D01*
X35450828Y40405575D01*
X35443264Y40423836D01*
X35438914Y40437222D01*
X35438913Y40437223D01*
X35435849Y40446654D01*
X35421749Y40466061D01*
X35411421Y40482914D01*
X35400528Y40504293D01*
X35305220Y40599601D01*
X35305218Y40599602D01*
X30115084Y45789737D01*
X30091110Y45813711D01*
X30069727Y45824606D01*
X30052881Y45834930D01*
X30041494Y45843203D01*
X30033471Y45849032D01*
X30024040Y45852096D01*
X30024037Y45852098D01*
X30010653Y45856447D01*
X29992392Y45864011D01*
X29979854Y45870399D01*
X29979853Y45870399D01*
X29971016Y45874902D01*
X29947319Y45878655D01*
X29928100Y45883269D01*
X29905283Y45890683D01*
X28786935Y45890683D01*
X28718814Y45910685D01*
X28710231Y45916721D01*
X28621653Y45984689D01*
X28621648Y45984692D01*
X28615097Y45989719D01*
X28469018Y46050227D01*
X28419380Y46056762D01*
X28320444Y46069787D01*
X28312256Y46070865D01*
X28304068Y46069787D01*
X28205133Y46056762D01*
X28155494Y46050227D01*
X28009415Y45989719D01*
X28002864Y45984692D01*
X27892491Y45900000D01*
X27883974Y45893465D01*
X27787720Y45768024D01*
X27727212Y45621945D01*
X27706574Y45465183D01*
X27727212Y45308421D01*
X27787720Y45162342D01*
X27883974Y45036901D01*
X28009415Y44940647D01*
X28155494Y44880139D01*
X28312256Y44859501D01*
X28320444Y44860579D01*
X28460830Y44879061D01*
X28469018Y44880139D01*
X28615097Y44940647D01*
X28621650Y44945675D01*
X28621653Y44945677D01*
X28710231Y45013645D01*
X28776451Y45039246D01*
X28786935Y45039683D01*
X29609452Y45039683D01*
X29677573Y45019681D01*
X29698547Y45002778D01*
X34589595Y40111731D01*
X34623621Y40049419D01*
X34626500Y40022636D01*
X34626500Y33452311D01*
X34606498Y33384190D01*
X34552842Y33337697D01*
X34482568Y33327593D01*
X34423796Y33352348D01*
X34360786Y33400697D01*
X34338841Y33417536D01*
X34192762Y33478044D01*
X34036000Y33498682D01*
X33879238Y33478044D01*
X33733159Y33417536D01*
X33726608Y33412509D01*
X33726603Y33412506D01*
X33638025Y33344538D01*
X33571805Y33318937D01*
X33561321Y33318500D01*
X30920607Y33318500D01*
X30897790Y33311086D01*
X30878571Y33306472D01*
X30854874Y33302719D01*
X30846037Y33298216D01*
X30846036Y33298216D01*
X30833498Y33291828D01*
X30815237Y33284264D01*
X30801853Y33279915D01*
X30801850Y33279913D01*
X30792419Y33276849D01*
X30784396Y33271020D01*
X30773009Y33262747D01*
X30756163Y33252423D01*
X30734780Y33241528D01*
X30727765Y33234513D01*
X30727758Y33234508D01*
X30660891Y33210650D01*
X30591739Y33226730D01*
X30545582Y33272450D01*
X30543515Y33277441D01*
X30473253Y33369009D01*
X30452284Y33396336D01*
X30447261Y33402882D01*
X30428164Y33417536D01*
X30380684Y33453968D01*
X30321820Y33499136D01*
X30175741Y33559644D01*
X30018979Y33580282D01*
X29862217Y33559644D01*
X29716138Y33499136D01*
X29657274Y33453968D01*
X29609795Y33417536D01*
X29590697Y33402882D01*
X29585674Y33396336D01*
X29564705Y33369009D01*
X29494443Y33277441D01*
X29433935Y33131362D01*
X29413297Y32974600D01*
X29410176Y32975011D01*
X29394373Y32921192D01*
X29377470Y32900218D01*
X29231277Y32754025D01*
X29168965Y32719999D01*
X29142182Y32717120D01*
X28670058Y32717120D01*
X28601937Y32737122D01*
X28555444Y32790778D01*
X28545340Y32861052D01*
X28574834Y32925632D01*
X28580963Y32932215D01*
X29144748Y33496000D01*
X29155639Y33517376D01*
X29165969Y33534231D01*
X29174241Y33545616D01*
X29174241Y33545617D01*
X29180070Y33553639D01*
X29187484Y33576457D01*
X29195047Y33594718D01*
X29205939Y33616094D01*
X29207490Y33625885D01*
X29207492Y33625892D01*
X29209693Y33639789D01*
X29214307Y33659008D01*
X29218656Y33672393D01*
X29218657Y33672400D01*
X29221720Y33681827D01*
X29221720Y36676173D01*
X29214306Y36698990D01*
X29209692Y36718210D01*
X29208495Y36725769D01*
X29205939Y36741906D01*
X29195048Y36763282D01*
X29187484Y36781543D01*
X29183135Y36794927D01*
X29183133Y36794930D01*
X29180069Y36804361D01*
X29165967Y36823771D01*
X29155643Y36840617D01*
X29144748Y36862000D01*
X27469281Y38537467D01*
X27435255Y38599779D01*
X27440320Y38670594D01*
X27446249Y38683178D01*
X27448536Y38686159D01*
X27451697Y38693789D01*
X27505884Y38824609D01*
X27509044Y38832238D01*
X27529682Y38989000D01*
X27509044Y39145762D01*
X27484090Y39206005D01*
X27474500Y39254221D01*
X27474500Y41248785D01*
X27494502Y41316906D01*
X27511405Y41337880D01*
X28017266Y41843741D01*
X28021075Y41847394D01*
X28054366Y41878007D01*
X28066767Y41889410D01*
X28089698Y41926394D01*
X28096421Y41936176D01*
X28117529Y41963985D01*
X28122723Y41970828D01*
X28128257Y41984807D01*
X28138318Y42004810D01*
X28146246Y42017597D01*
X28152103Y42037755D01*
X28158386Y42059383D01*
X28162232Y42070616D01*
X28168682Y42086905D01*
X28178247Y42111064D01*
X28179145Y42119606D01*
X28179146Y42119611D01*
X28179820Y42126020D01*
X28184131Y42147996D01*
X28186485Y42156099D01*
X28186485Y42156100D01*
X28188326Y42162436D01*
X28189111Y42173126D01*
X28189111Y42207821D01*
X28189801Y42220992D01*
X28193115Y42252522D01*
X28194013Y42261066D01*
X28192282Y42271304D01*
X28190876Y42279613D01*
X28189111Y42300626D01*
X28189111Y43339396D01*
X28189222Y43344672D01*
X28191461Y43398098D01*
X28191821Y43406683D01*
X28189859Y43415048D01*
X28181884Y43449051D01*
X28179721Y43460722D01*
X28174983Y43495308D01*
X28173817Y43503821D01*
X28167846Y43517619D01*
X28160812Y43538888D01*
X28159340Y43545164D01*
X28157379Y43553525D01*
X28153242Y43561050D01*
X28153241Y43561053D01*
X28136416Y43591657D01*
X28131200Y43602302D01*
X28113916Y43642244D01*
X28104453Y43653930D01*
X28091965Y43672515D01*
X28087901Y43679907D01*
X28084718Y43685697D01*
X28077714Y43693811D01*
X28053178Y43718347D01*
X28044353Y43728148D01*
X28024405Y43752781D01*
X28024404Y43752782D01*
X28018997Y43759459D01*
X28011999Y43764432D01*
X28011994Y43764437D01*
X28003663Y43770357D01*
X27987557Y43783968D01*
X25618684Y46152841D01*
X23242418Y48529106D01*
X23208392Y48591418D01*
X23205513Y48618201D01*
X23205513Y55898703D01*
X23225515Y55966824D01*
X23279171Y56013317D01*
X23349445Y56023421D01*
X23414025Y55993927D01*
G37*
G04 #@! TD.AperFunction*
G04 #@! TA.AperFunction,Conductor*
G36*
X21348069Y32955498D02*
G01*
X21394562Y32901842D01*
X21404666Y32831568D01*
X21375172Y32766988D01*
X21369043Y32760405D01*
X20272861Y31664223D01*
X20261966Y31642840D01*
X20251642Y31625994D01*
X20237540Y31606584D01*
X20234476Y31597153D01*
X20234474Y31597150D01*
X20230125Y31583766D01*
X20222561Y31565505D01*
X20216173Y31552967D01*
X20211670Y31544129D01*
X20208246Y31522509D01*
X20207917Y31520433D01*
X20203303Y31501213D01*
X20195889Y31478396D01*
X20195889Y31286774D01*
X20175887Y31218653D01*
X20122231Y31172160D01*
X20051957Y31162056D01*
X19988248Y31191152D01*
X19986282Y31193714D01*
X19860841Y31289968D01*
X19714762Y31350476D01*
X19558000Y31371114D01*
X19401238Y31350476D01*
X19255159Y31289968D01*
X19129718Y31193714D01*
X19033464Y31068273D01*
X18972956Y30922194D01*
X18952318Y30765432D01*
X18972956Y30608670D01*
X19033464Y30462591D01*
X19129718Y30337150D01*
X19136264Y30332127D01*
X19152339Y30319792D01*
X19255159Y30240896D01*
X19401238Y30180388D01*
X19558000Y30159750D01*
X19566188Y30160828D01*
X19571050Y30161468D01*
X19714762Y30180388D01*
X19860841Y30240896D01*
X19963661Y30319792D01*
X19979736Y30332127D01*
X19986282Y30337150D01*
X20082536Y30462591D01*
X20096340Y30495917D01*
X20140888Y30551198D01*
X20208252Y30573619D01*
X20277043Y30556061D01*
X20301844Y30536794D01*
X21028850Y29809788D01*
X21062876Y29747476D01*
X21057811Y29676661D01*
X21028850Y29631598D01*
X20098472Y28701220D01*
X20087577Y28679837D01*
X20077253Y28662991D01*
X20063151Y28643581D01*
X20060087Y28634150D01*
X20060085Y28634147D01*
X20055736Y28620763D01*
X20048172Y28602502D01*
X20037281Y28581126D01*
X20033528Y28557430D01*
X20028914Y28538210D01*
X20021500Y28515393D01*
X20021500Y28160679D01*
X20001498Y28092558D01*
X19995462Y28083975D01*
X19927494Y27995397D01*
X19927492Y27995394D01*
X19922464Y27988841D01*
X19861956Y27842762D01*
X19841318Y27686000D01*
X19861956Y27529238D01*
X19922464Y27383159D01*
X20018718Y27257718D01*
X20144159Y27161464D01*
X20290238Y27100956D01*
X20447000Y27080318D01*
X20455188Y27081396D01*
X20595574Y27099878D01*
X20603762Y27100956D01*
X20749841Y27161464D01*
X20875282Y27257718D01*
X20971536Y27383159D01*
X21032044Y27529238D01*
X21052682Y27686000D01*
X21032044Y27842762D01*
X20971536Y27988841D01*
X20966508Y27995394D01*
X20966506Y27995397D01*
X20898538Y28083975D01*
X20872937Y28150195D01*
X20872500Y28160679D01*
X20872500Y28219562D01*
X20892502Y28287683D01*
X20909405Y28308657D01*
X21475343Y28874595D01*
X21537655Y28908621D01*
X21564438Y28911500D01*
X24676422Y28911500D01*
X24744543Y28891498D01*
X24792831Y28833718D01*
X24851833Y28691275D01*
X24948087Y28565834D01*
X25073528Y28469580D01*
X25219607Y28409072D01*
X25227795Y28407994D01*
X25235771Y28405857D01*
X25235362Y28404329D01*
X25291699Y28379404D01*
X25330788Y28320138D01*
X25331631Y28249146D01*
X25310284Y28206503D01*
X25257681Y28137949D01*
X25257679Y28137946D01*
X25252651Y28131393D01*
X25212433Y28034298D01*
X25196320Y27995397D01*
X25192143Y27985314D01*
X25191065Y27977126D01*
X25191065Y27977125D01*
X25176491Y27866426D01*
X25147769Y27801498D01*
X25140664Y27793777D01*
X21558292Y24211405D01*
X21495980Y24177379D01*
X21469197Y24174500D01*
X18421274Y24174500D01*
X18353153Y24194502D01*
X18306660Y24248158D01*
X18296556Y24318432D01*
X18326050Y24383012D01*
X18332179Y24389595D01*
X18368827Y24426243D01*
X18368830Y24426245D01*
X18464139Y24521554D01*
X18475032Y24542933D01*
X18485360Y24559786D01*
X18493632Y24571171D01*
X18493633Y24571173D01*
X18499460Y24579193D01*
X18502525Y24588625D01*
X18506875Y24602011D01*
X18514439Y24620272D01*
X18520827Y24632810D01*
X18520827Y24632811D01*
X18525330Y24641648D01*
X18529083Y24665345D01*
X18533697Y24684564D01*
X18541111Y24707381D01*
X18541111Y25330619D01*
X18538048Y25340046D01*
X18538047Y25340053D01*
X18533698Y25353438D01*
X18529084Y25372657D01*
X18526883Y25386554D01*
X18526881Y25386561D01*
X18525330Y25396352D01*
X18514438Y25417728D01*
X18506875Y25435989D01*
X18502525Y25449376D01*
X18499461Y25458807D01*
X18485360Y25478215D01*
X18475028Y25495074D01*
X18468642Y25507608D01*
X18464139Y25516446D01*
X17387025Y26593560D01*
X17352999Y26655872D01*
X17350120Y26682655D01*
X17350120Y32232513D01*
X17370122Y32300634D01*
X17423778Y32347127D01*
X17494052Y32357231D01*
X17524336Y32348922D01*
X17623238Y32307956D01*
X17631426Y32306878D01*
X17678854Y32300634D01*
X17780000Y32287318D01*
X17788188Y32288396D01*
X17928574Y32306878D01*
X17936762Y32307956D01*
X18082841Y32368464D01*
X18208282Y32464718D01*
X18304536Y32590159D01*
X18365044Y32736238D01*
X18380696Y32855126D01*
X18409418Y32920054D01*
X18416523Y32927775D01*
X18427343Y32938595D01*
X18489655Y32972621D01*
X18516438Y32975500D01*
X21279948Y32975500D01*
X21348069Y32955498D01*
G37*
G04 #@! TD.AperFunction*
G04 #@! TA.AperFunction,Conductor*
G36*
X16002532Y32441618D02*
G01*
X16059368Y32399071D01*
X16084179Y32332551D01*
X16084500Y32323562D01*
X16084500Y26511562D01*
X16064498Y26443441D01*
X16010842Y26396948D01*
X15940568Y26386844D01*
X15884440Y26409625D01*
X15879767Y26413020D01*
X15871744Y26418849D01*
X15862313Y26421913D01*
X15862310Y26421915D01*
X15848926Y26426264D01*
X15830665Y26433828D01*
X15818127Y26440216D01*
X15818126Y26440216D01*
X15809289Y26444719D01*
X15785592Y26448472D01*
X15766373Y26453086D01*
X15743556Y26460500D01*
X15206679Y26460500D01*
X15138558Y26480502D01*
X15129975Y26486538D01*
X15041397Y26554506D01*
X15041392Y26554509D01*
X15034841Y26559536D01*
X14888762Y26620044D01*
X14732000Y26640682D01*
X14575238Y26620044D01*
X14429159Y26559536D01*
X14303718Y26463282D01*
X14298695Y26456736D01*
X14286019Y26440216D01*
X14207464Y26337841D01*
X14146956Y26191762D01*
X14145878Y26183574D01*
X14142023Y26154292D01*
X14126318Y26035000D01*
X14127396Y26026812D01*
X14145235Y25891314D01*
X14146956Y25878238D01*
X14150116Y25870609D01*
X14152525Y25864793D01*
X14207464Y25732159D01*
X14303718Y25606718D01*
X14429159Y25510464D01*
X14575238Y25449956D01*
X14732000Y25429318D01*
X14740188Y25430396D01*
X14782672Y25435989D01*
X14888762Y25449956D01*
X15034841Y25510464D01*
X15041394Y25515492D01*
X15041397Y25515494D01*
X15129975Y25583462D01*
X15196195Y25609063D01*
X15206679Y25609500D01*
X15447725Y25609500D01*
X15515846Y25589498D01*
X15536820Y25572595D01*
X16719820Y24389595D01*
X16753846Y24327283D01*
X16748781Y24256468D01*
X16706234Y24199632D01*
X16639714Y24174821D01*
X16630725Y24174500D01*
X8094679Y24174500D01*
X8026558Y24194502D01*
X8017975Y24200537D01*
X7927871Y24269676D01*
X7886005Y24327013D01*
X7881783Y24397884D01*
X7915481Y24458733D01*
X15869405Y32412657D01*
X15931717Y32446683D01*
X16002532Y32441618D01*
G37*
G04 #@! TD.AperFunction*
G04 #@! TA.AperFunction,Conductor*
G36*
X26136736Y32540878D02*
G01*
X26183229Y32487222D01*
X26193333Y32416948D01*
X26163839Y32352368D01*
X26157710Y32345785D01*
X25293320Y31481395D01*
X25231008Y31447369D01*
X25160193Y31452434D01*
X25104263Y31493786D01*
X25071309Y31536732D01*
X25071305Y31536736D01*
X25066282Y31543282D01*
X24940841Y31639536D01*
X24794762Y31700044D01*
X24638000Y31720682D01*
X24481238Y31700044D01*
X24335159Y31639536D01*
X24209718Y31543282D01*
X24204695Y31536736D01*
X24204692Y31536733D01*
X24117325Y31422873D01*
X24059987Y31381005D01*
X23989116Y31376783D01*
X23928267Y31410481D01*
X23875220Y31463528D01*
X23853837Y31474423D01*
X23836991Y31484747D01*
X23825604Y31493020D01*
X23817581Y31498849D01*
X23808150Y31501913D01*
X23808147Y31501915D01*
X23794763Y31506264D01*
X23776502Y31513828D01*
X23763964Y31520216D01*
X23763963Y31520216D01*
X23755126Y31524719D01*
X23731429Y31528472D01*
X23712210Y31533086D01*
X23689393Y31540500D01*
X21810679Y31540500D01*
X21742558Y31560502D01*
X21733975Y31566538D01*
X21646920Y31633338D01*
X21605053Y31690676D01*
X21600831Y31761547D01*
X21634529Y31822395D01*
X22336109Y32523975D01*
X22398421Y32558001D01*
X22425204Y32560880D01*
X26068615Y32560880D01*
X26136736Y32540878D01*
G37*
G04 #@! TD.AperFunction*
G04 #@! TA.AperFunction,Conductor*
G36*
X27687869Y37109849D02*
G01*
X27712670Y37090582D01*
X28333815Y36469437D01*
X28367841Y36407125D01*
X28370720Y36380342D01*
X28370720Y34964408D01*
X28350718Y34896287D01*
X28297062Y34849794D01*
X28228275Y34839486D01*
X28202190Y34842920D01*
X28202188Y34842920D01*
X28194000Y34843998D01*
X28037238Y34823360D01*
X27891159Y34762852D01*
X27765718Y34666598D01*
X27669464Y34541157D01*
X27608956Y34395078D01*
X27607878Y34386889D01*
X27593304Y34276190D01*
X27564582Y34211262D01*
X27557477Y34203541D01*
X27217341Y33863405D01*
X27155029Y33829379D01*
X27128246Y33826500D01*
X24818661Y33826500D01*
X24750540Y33846502D01*
X24704047Y33900158D01*
X24693943Y33970432D01*
X24723437Y34035012D01*
X24729566Y34041595D01*
X27272528Y36584557D01*
X27283423Y36605940D01*
X27293747Y36622786D01*
X27302020Y36634173D01*
X27307849Y36642196D01*
X27310913Y36651627D01*
X27310915Y36651630D01*
X27315264Y36665014D01*
X27322828Y36683275D01*
X27329216Y36695813D01*
X27329216Y36695814D01*
X27333719Y36704651D01*
X27337472Y36728348D01*
X27342089Y36747576D01*
X27343119Y36750744D01*
X27346306Y36760554D01*
X27347718Y36764899D01*
X27367587Y36802664D01*
X27393714Y36836714D01*
X27448536Y36908159D01*
X27507167Y37049706D01*
X27551714Y37104986D01*
X27619078Y37127407D01*
X27687869Y37109849D01*
G37*
G04 #@! TD.AperFunction*
G04 #@! TA.AperFunction,Conductor*
G36*
X20905727Y59740759D02*
G01*
X20952220Y59687103D01*
X20962324Y59616829D01*
X20956144Y59595417D01*
X20957116Y59595101D01*
X20911877Y59455866D01*
X20903494Y59430066D01*
X20885355Y59257490D01*
X20903494Y59084914D01*
X20957116Y58919879D01*
X21043880Y58769601D01*
X21048301Y58764691D01*
X21108034Y58698351D01*
X21159992Y58640645D01*
X21300378Y58538648D01*
X21306406Y58535964D01*
X21306408Y58535963D01*
X21452872Y58470753D01*
X21458903Y58468068D01*
X21532832Y58452354D01*
X21622181Y58433362D01*
X21622185Y58433362D01*
X21628638Y58431990D01*
X21710187Y58431990D01*
X21778308Y58411988D01*
X21799282Y58395085D01*
X22067608Y58126759D01*
X22101634Y58064447D01*
X22104513Y58037664D01*
X22104513Y57174322D01*
X22084511Y57106201D01*
X22030855Y57059708D01*
X21960581Y57049604D01*
X21952316Y57051075D01*
X21808623Y57081618D01*
X21808619Y57081618D01*
X21802166Y57082990D01*
X21628638Y57082990D01*
X21622185Y57081618D01*
X21622181Y57081618D01*
X21543770Y57064951D01*
X21458903Y57046912D01*
X21452874Y57044228D01*
X21452872Y57044227D01*
X21306409Y56979017D01*
X21306407Y56979016D01*
X21300379Y56976332D01*
X21295038Y56972452D01*
X21295037Y56972451D01*
X21169916Y56881545D01*
X21159992Y56874335D01*
X21155571Y56869425D01*
X21155570Y56869424D01*
X21121049Y56831084D01*
X21043880Y56745379D01*
X20957116Y56595101D01*
X20903494Y56430066D01*
X20885355Y56257490D01*
X20903494Y56084914D01*
X20957116Y55919879D01*
X21043880Y55769601D01*
X21048301Y55764691D01*
X21132538Y55671136D01*
X21163256Y55607129D01*
X21164902Y55586826D01*
X21164902Y48276591D01*
X21164791Y48271315D01*
X21162192Y48209304D01*
X21164154Y48200939D01*
X21172129Y48166936D01*
X21174292Y48155265D01*
X21180196Y48112166D01*
X21183608Y48104282D01*
X21183608Y48104281D01*
X21186167Y48098368D01*
X21193201Y48077099D01*
X21196634Y48062462D01*
X21200771Y48054937D01*
X21200772Y48054934D01*
X21217597Y48024330D01*
X21222813Y48013685D01*
X21240097Y47973743D01*
X21249560Y47962057D01*
X21262047Y47943473D01*
X21269295Y47930290D01*
X21276299Y47922176D01*
X21300835Y47897640D01*
X21309660Y47887839D01*
X21329608Y47863206D01*
X21335016Y47856528D01*
X21342014Y47851555D01*
X21342019Y47851550D01*
X21350350Y47845630D01*
X21366456Y47832019D01*
X23826172Y45372304D01*
X26283822Y42914654D01*
X26317848Y42852342D01*
X26319385Y42815447D01*
X26319396Y42815447D01*
X26319396Y42815188D01*
X26319649Y42809116D01*
X26319396Y42807194D01*
X26319396Y42807188D01*
X26318318Y42799000D01*
X26338956Y42642238D01*
X26399464Y42496159D01*
X26495718Y42370718D01*
X26621159Y42274464D01*
X26633047Y42269540D01*
X26637708Y42267609D01*
X26692988Y42223059D01*
X26715407Y42155695D01*
X26697847Y42086905D01*
X26678582Y42062106D01*
X26545357Y41928881D01*
X26541548Y41925228D01*
X26495844Y41883201D01*
X26472901Y41846198D01*
X26466200Y41836448D01*
X26439888Y41801783D01*
X26434354Y41787805D01*
X26424293Y41767801D01*
X26416365Y41755014D01*
X26413968Y41746763D01*
X26413967Y41746761D01*
X26404225Y41713228D01*
X26400380Y41701998D01*
X26384364Y41661547D01*
X26383466Y41653006D01*
X26383466Y41653005D01*
X26382792Y41646592D01*
X26378480Y41624617D01*
X26374285Y41610175D01*
X26373500Y41599485D01*
X26373500Y41564783D01*
X26372810Y41551613D01*
X26368599Y41511546D01*
X26370031Y41503081D01*
X26370031Y41503072D01*
X26371735Y41493000D01*
X26373500Y41471987D01*
X26373500Y39254221D01*
X26363910Y39206005D01*
X26338956Y39145762D01*
X26318318Y38989000D01*
X26338956Y38832238D01*
X26399464Y38686159D01*
X26404492Y38679606D01*
X26404494Y38679603D01*
X26472462Y38591025D01*
X26498063Y38524805D01*
X26498500Y38514321D01*
X26498500Y38413607D01*
X26505914Y38390790D01*
X26510528Y38371571D01*
X26514281Y38347874D01*
X26518784Y38339037D01*
X26518784Y38339036D01*
X26525172Y38326498D01*
X26532736Y38308237D01*
X26537085Y38294853D01*
X26537087Y38294850D01*
X26540151Y38285419D01*
X26545980Y38277396D01*
X26554253Y38266009D01*
X26564577Y38249163D01*
X26575472Y38227780D01*
X26803582Y37999670D01*
X26837608Y37937358D01*
X26832543Y37866543D01*
X26789996Y37809707D01*
X26762707Y37794167D01*
X26621159Y37735536D01*
X26495718Y37639282D01*
X26399464Y37513841D01*
X26338956Y37367762D01*
X26318318Y37211000D01*
X26319396Y37202812D01*
X26332198Y37105574D01*
X26338956Y37054238D01*
X26342116Y37046610D01*
X26342116Y37046609D01*
X26365245Y36990769D01*
X26372834Y36920179D01*
X26337931Y36853456D01*
X24527217Y35042742D01*
X24464905Y35008716D01*
X24394090Y35013781D01*
X24338160Y35055133D01*
X24309309Y35092732D01*
X24309305Y35092736D01*
X24304282Y35099282D01*
X24178841Y35195536D01*
X24173550Y35197728D01*
X24125364Y35248262D01*
X24111926Y35317975D01*
X24138312Y35383886D01*
X24173224Y35414137D01*
X24178841Y35416464D01*
X24304282Y35512718D01*
X24400536Y35638159D01*
X24461044Y35784238D01*
X24481682Y35941000D01*
X24461044Y36097762D01*
X24400536Y36243841D01*
X24304282Y36369282D01*
X24178841Y36465536D01*
X24032762Y36526044D01*
X23876000Y36546682D01*
X23719238Y36526044D01*
X23573159Y36465536D01*
X23447718Y36369282D01*
X23351464Y36243841D01*
X23290956Y36097762D01*
X23270318Y35941000D01*
X23290956Y35784238D01*
X23351464Y35638159D01*
X23447718Y35512718D01*
X23573159Y35416464D01*
X23578450Y35414272D01*
X23626636Y35363738D01*
X23640074Y35294025D01*
X23613688Y35228114D01*
X23578776Y35197863D01*
X23573159Y35195536D01*
X23447718Y35099282D01*
X23351464Y34973841D01*
X23290956Y34827762D01*
X23289878Y34819574D01*
X23282773Y34765607D01*
X23270318Y34671000D01*
X23271396Y34662812D01*
X23285687Y34554264D01*
X23290956Y34514238D01*
X23312277Y34462766D01*
X23331922Y34415338D01*
X23339511Y34344749D01*
X23307732Y34281262D01*
X23246674Y34245034D01*
X23215513Y34241120D01*
X18609818Y34241120D01*
X18541697Y34261122D01*
X18520723Y34278025D01*
X18287220Y34511528D01*
X18265837Y34522423D01*
X18248991Y34532747D01*
X18237604Y34541020D01*
X18229581Y34546849D01*
X18220150Y34549913D01*
X18220147Y34549915D01*
X18206763Y34554264D01*
X18188502Y34561828D01*
X18175964Y34568216D01*
X18175963Y34568216D01*
X18167126Y34572719D01*
X18143429Y34576472D01*
X18124210Y34581086D01*
X18101393Y34588500D01*
X18000679Y34588500D01*
X17932558Y34608502D01*
X17923975Y34614538D01*
X17835397Y34682506D01*
X17835394Y34682508D01*
X17828841Y34687536D01*
X17682762Y34748044D01*
X17653458Y34751902D01*
X17534188Y34767604D01*
X17526000Y34768682D01*
X17492566Y34764280D01*
X17422419Y34775219D01*
X17369320Y34822346D01*
X17350120Y34889202D01*
X17350120Y36416372D01*
X20885523Y36416372D01*
X20906161Y36259610D01*
X20966669Y36113531D01*
X20971696Y36106980D01*
X21057236Y35995502D01*
X21062923Y35988090D01*
X21188364Y35891836D01*
X21334443Y35831328D01*
X21491205Y35810690D01*
X21499393Y35811768D01*
X21639779Y35830250D01*
X21647967Y35831328D01*
X21794046Y35891836D01*
X21919487Y35988090D01*
X21925175Y35995502D01*
X22010714Y36106980D01*
X22015741Y36113531D01*
X22076249Y36259610D01*
X22096887Y36416372D01*
X22076249Y36573134D01*
X22015741Y36719213D01*
X22010714Y36725764D01*
X22010712Y36725768D01*
X21945905Y36810227D01*
X21920305Y36876447D01*
X21934570Y36945996D01*
X21956773Y36976025D01*
X23253343Y38272595D01*
X23315655Y38306621D01*
X23342438Y38309500D01*
X23401321Y38309500D01*
X23469442Y38289498D01*
X23478025Y38283462D01*
X23566603Y38215494D01*
X23566606Y38215492D01*
X23573159Y38210464D01*
X23719238Y38149956D01*
X23727426Y38148878D01*
X23779131Y38142071D01*
X23876000Y38129318D01*
X23884188Y38130396D01*
X24024574Y38148878D01*
X24032762Y38149956D01*
X24178841Y38210464D01*
X24304282Y38306718D01*
X24400536Y38432159D01*
X24461044Y38578238D01*
X24481682Y38735000D01*
X24461044Y38891762D01*
X24400536Y39037841D01*
X24304282Y39163282D01*
X24178841Y39259536D01*
X24032762Y39320044D01*
X23876000Y39340682D01*
X23719238Y39320044D01*
X23573159Y39259536D01*
X23566608Y39254509D01*
X23566603Y39254506D01*
X23478025Y39186538D01*
X23411805Y39160937D01*
X23401321Y39160500D01*
X23046607Y39160500D01*
X23037180Y39157437D01*
X23037173Y39157436D01*
X23023788Y39153087D01*
X23004569Y39148473D01*
X22990672Y39146272D01*
X22990665Y39146270D01*
X22980874Y39144719D01*
X22959498Y39133827D01*
X22941237Y39126264D01*
X22918419Y39118850D01*
X22910397Y39113021D01*
X22910396Y39113021D01*
X22899011Y39104749D01*
X22882156Y39094419D01*
X22860780Y39083528D01*
X21142677Y37365425D01*
X21131782Y37344042D01*
X21121458Y37327196D01*
X21107356Y37307786D01*
X21104292Y37298355D01*
X21104290Y37298352D01*
X21099941Y37284968D01*
X21092377Y37266707D01*
X21085998Y37254186D01*
X21081486Y37245331D01*
X21079935Y37235537D01*
X21077733Y37221635D01*
X21073119Y37202415D01*
X21065705Y37179598D01*
X21065705Y36891051D01*
X21045703Y36822930D01*
X21039667Y36814347D01*
X20971699Y36725769D01*
X20971697Y36725766D01*
X20966669Y36719213D01*
X20906161Y36573134D01*
X20885523Y36416372D01*
X17350120Y36416372D01*
X17350120Y36817345D01*
X17370122Y36885466D01*
X17387025Y36906440D01*
X22642056Y42161472D01*
X22704368Y42195498D01*
X22731151Y42198377D01*
X23818237Y42198377D01*
X23886358Y42178375D01*
X23894941Y42172339D01*
X23983519Y42104371D01*
X23983522Y42104369D01*
X23990075Y42099341D01*
X24136154Y42038833D01*
X24292916Y42018195D01*
X24301104Y42019273D01*
X24441490Y42037755D01*
X24449678Y42038833D01*
X24595757Y42099341D01*
X24721198Y42195595D01*
X24729646Y42206604D01*
X24748975Y42231795D01*
X24817452Y42321036D01*
X24877960Y42467115D01*
X24898598Y42623877D01*
X24877960Y42780639D01*
X24817452Y42926718D01*
X24721198Y43052159D01*
X24595757Y43148413D01*
X24449678Y43208921D01*
X24292916Y43229559D01*
X24136154Y43208921D01*
X23990075Y43148413D01*
X23983524Y43143386D01*
X23983519Y43143383D01*
X23894941Y43075415D01*
X23828721Y43049814D01*
X23818237Y43049377D01*
X22435321Y43049377D01*
X22412504Y43041963D01*
X22393285Y43037349D01*
X22369588Y43033596D01*
X22360751Y43029093D01*
X22360750Y43029093D01*
X22348212Y43022705D01*
X22329951Y43015141D01*
X22316565Y43010791D01*
X22316564Y43010790D01*
X22307133Y43007726D01*
X22299113Y43001899D01*
X22299111Y43001898D01*
X22287726Y42993626D01*
X22270873Y42983298D01*
X22249494Y42972405D01*
X22154186Y42877097D01*
X22154185Y42877095D01*
X18674595Y39397506D01*
X18612283Y39363480D01*
X18541467Y39368545D01*
X18484632Y39411092D01*
X18459821Y39477612D01*
X18459500Y39486601D01*
X18459500Y55539097D01*
X18479502Y55607218D01*
X18533158Y55653711D01*
X18603432Y55663815D01*
X18658197Y55638174D01*
X18659992Y55640645D01*
X18761438Y55566940D01*
X18800378Y55538648D01*
X18806406Y55535964D01*
X18806408Y55535963D01*
X18952872Y55470753D01*
X18958903Y55468068D01*
X19043770Y55450029D01*
X19122181Y55433362D01*
X19122185Y55433362D01*
X19128638Y55431990D01*
X19302166Y55431990D01*
X19308619Y55433362D01*
X19308623Y55433362D01*
X19387034Y55450029D01*
X19471901Y55468068D01*
X19477932Y55470753D01*
X19624396Y55535963D01*
X19624398Y55535964D01*
X19630426Y55538648D01*
X19770812Y55640645D01*
X19886924Y55769601D01*
X19973688Y55919879D01*
X20027310Y56084914D01*
X20045449Y56257490D01*
X20027310Y56430066D01*
X19973688Y56595101D01*
X19886924Y56745379D01*
X19809755Y56831084D01*
X19775234Y56869424D01*
X19775233Y56869425D01*
X19770812Y56874335D01*
X19630426Y56976332D01*
X19624398Y56979016D01*
X19624396Y56979017D01*
X19477932Y57044227D01*
X19477931Y57044227D01*
X19471901Y57046912D01*
X19387034Y57064951D01*
X19308623Y57081618D01*
X19308619Y57081618D01*
X19302166Y57082990D01*
X19128638Y57082990D01*
X19122185Y57081618D01*
X19122181Y57081618D01*
X19043770Y57064951D01*
X18958903Y57046912D01*
X18952874Y57044228D01*
X18952872Y57044227D01*
X18806409Y56979017D01*
X18806407Y56979016D01*
X18800379Y56976332D01*
X18795038Y56972452D01*
X18795037Y56972451D01*
X18669916Y56881545D01*
X18659992Y56874335D01*
X18658269Y56876706D01*
X18605791Y56851528D01*
X18535338Y56860298D01*
X18480812Y56905766D01*
X18459500Y56975883D01*
X18459500Y57810562D01*
X18479502Y57878683D01*
X18496405Y57899657D01*
X18997875Y58401127D01*
X19060187Y58435153D01*
X19113169Y58435278D01*
X19118705Y58434101D01*
X19122182Y58433362D01*
X19122184Y58433362D01*
X19128638Y58431990D01*
X19302166Y58431990D01*
X19308619Y58433362D01*
X19308623Y58433362D01*
X19397972Y58452354D01*
X19471901Y58468068D01*
X19477932Y58470753D01*
X19624396Y58535963D01*
X19624398Y58535964D01*
X19630426Y58538648D01*
X19770812Y58640645D01*
X19822771Y58698351D01*
X19882503Y58764691D01*
X19886924Y58769601D01*
X19973688Y58919879D01*
X20027310Y59084914D01*
X20045449Y59257490D01*
X20027310Y59430066D01*
X20018928Y59455866D01*
X19973688Y59595101D01*
X19976424Y59595990D01*
X19968652Y59653849D01*
X19998743Y59718153D01*
X20058823Y59755981D01*
X20093198Y59760761D01*
X20837606Y59760761D01*
X20905727Y59740759D01*
G37*
G04 #@! TD.AperFunction*
G04 #@! TA.AperFunction,Conductor*
G36*
X15905727Y59740759D02*
G01*
X15952220Y59687103D01*
X15962324Y59616829D01*
X15956144Y59595417D01*
X15957116Y59595101D01*
X15911877Y59455866D01*
X15903494Y59430066D01*
X15885355Y59257490D01*
X15885432Y59256760D01*
X15866043Y59190728D01*
X15849141Y59169754D01*
X15115346Y58435958D01*
X15111537Y58432306D01*
X15065844Y58390289D01*
X15042901Y58353286D01*
X15036200Y58343536D01*
X15009888Y58308871D01*
X15006073Y58299234D01*
X15004354Y58294893D01*
X14994293Y58274889D01*
X14986365Y58262102D01*
X14983968Y58253851D01*
X14983967Y58253849D01*
X14974225Y58220316D01*
X14970380Y58209086D01*
X14954364Y58168635D01*
X14953466Y58160094D01*
X14953466Y58160093D01*
X14952792Y58153680D01*
X14948480Y58131705D01*
X14944285Y58117263D01*
X14943500Y58106573D01*
X14943500Y58071871D01*
X14942810Y58058701D01*
X14938599Y58018634D01*
X14940031Y58010169D01*
X14940031Y58010160D01*
X14941735Y58000088D01*
X14943500Y57979075D01*
X14943500Y56996159D01*
X14923498Y56928038D01*
X14869842Y56881545D01*
X14799568Y56871441D01*
X14743439Y56894223D01*
X14635768Y56972451D01*
X14635767Y56972452D01*
X14630426Y56976332D01*
X14624398Y56979016D01*
X14624396Y56979017D01*
X14477932Y57044227D01*
X14477931Y57044227D01*
X14471901Y57046912D01*
X14387034Y57064951D01*
X14308623Y57081618D01*
X14308619Y57081618D01*
X14302166Y57082990D01*
X14128638Y57082990D01*
X14122185Y57081618D01*
X14122181Y57081618D01*
X14043770Y57064951D01*
X13958903Y57046912D01*
X13952874Y57044228D01*
X13952872Y57044227D01*
X13806409Y56979017D01*
X13806407Y56979016D01*
X13800379Y56976332D01*
X13795038Y56972452D01*
X13795037Y56972451D01*
X13669916Y56881545D01*
X13659992Y56874335D01*
X13655571Y56869425D01*
X13655570Y56869424D01*
X13621049Y56831084D01*
X13543880Y56745379D01*
X13457116Y56595101D01*
X13403494Y56430066D01*
X13385355Y56257490D01*
X13403494Y56084914D01*
X13457116Y55919879D01*
X13543880Y55769601D01*
X13659992Y55640645D01*
X13800378Y55538648D01*
X13806406Y55535964D01*
X13806408Y55535963D01*
X13952872Y55470753D01*
X13958903Y55468068D01*
X14043770Y55450029D01*
X14122181Y55433362D01*
X14122185Y55433362D01*
X14128638Y55431990D01*
X14302166Y55431990D01*
X14308619Y55433362D01*
X14308623Y55433362D01*
X14387034Y55450029D01*
X14471901Y55468068D01*
X14477932Y55470753D01*
X14624396Y55535963D01*
X14624398Y55535964D01*
X14630426Y55538648D01*
X14668996Y55566671D01*
X14743439Y55620757D01*
X14810307Y55644615D01*
X14879458Y55628535D01*
X14928938Y55577621D01*
X14943500Y55518821D01*
X14943500Y39777214D01*
X14923498Y39709093D01*
X14906595Y39688119D01*
X13340595Y38122119D01*
X13278283Y38088093D01*
X13207468Y38093158D01*
X13150632Y38135705D01*
X13125821Y38202225D01*
X13125500Y38211214D01*
X13125500Y41660423D01*
X13145502Y41728544D01*
X13199158Y41775037D01*
X13269432Y41785141D01*
X13299717Y41776832D01*
X13353738Y41754456D01*
X13510500Y41733818D01*
X13518688Y41734896D01*
X13659074Y41753378D01*
X13667262Y41754456D01*
X13813341Y41814964D01*
X13910361Y41889410D01*
X13932236Y41906195D01*
X13938782Y41911218D01*
X14035036Y42036659D01*
X14095544Y42182738D01*
X14116182Y42339500D01*
X14095544Y42496262D01*
X14035036Y42642341D01*
X14030009Y42648893D01*
X14025879Y42656046D01*
X14028578Y42657604D01*
X14008318Y42710041D01*
X14022596Y42779587D01*
X14026000Y42784884D01*
X14025879Y42784954D01*
X14030009Y42792107D01*
X14035036Y42798659D01*
X14095544Y42944738D01*
X14116182Y43101500D01*
X14095544Y43258262D01*
X14035036Y43404341D01*
X13938782Y43529782D01*
X13813341Y43626036D01*
X13667262Y43686544D01*
X13510500Y43707182D01*
X13353738Y43686544D01*
X13346109Y43683384D01*
X13299718Y43664168D01*
X13229129Y43656579D01*
X13165642Y43688358D01*
X13129414Y43749416D01*
X13125500Y43780577D01*
X13125500Y58826562D01*
X13145502Y58894683D01*
X13162405Y58915657D01*
X13240487Y58993739D01*
X13302799Y59027765D01*
X13373614Y59022700D01*
X13430450Y58980153D01*
X13449414Y58943584D01*
X13457116Y58919879D01*
X13543880Y58769601D01*
X13548301Y58764691D01*
X13608034Y58698351D01*
X13659992Y58640645D01*
X13800378Y58538648D01*
X13806406Y58535964D01*
X13806408Y58535963D01*
X13952872Y58470753D01*
X13958903Y58468068D01*
X14032832Y58452354D01*
X14122181Y58433362D01*
X14122185Y58433362D01*
X14128638Y58431990D01*
X14302166Y58431990D01*
X14308619Y58433362D01*
X14308623Y58433362D01*
X14397972Y58452354D01*
X14471901Y58468068D01*
X14477932Y58470753D01*
X14624396Y58535963D01*
X14624398Y58535964D01*
X14630426Y58538648D01*
X14770812Y58640645D01*
X14822771Y58698351D01*
X14882503Y58764691D01*
X14886924Y58769601D01*
X14973688Y58919879D01*
X15027310Y59084914D01*
X15045449Y59257490D01*
X15027310Y59430066D01*
X15018928Y59455866D01*
X14973688Y59595101D01*
X14976424Y59595990D01*
X14968652Y59653849D01*
X14998743Y59718153D01*
X15058823Y59755981D01*
X15093198Y59760761D01*
X15837606Y59760761D01*
X15905727Y59740759D01*
G37*
G04 #@! TD.AperFunction*
G04 #@! TD*
M02*
