G04 #@! TF.GenerationSoftware,KiCad,Pcbnew,(6.0.1)*
G04 #@! TF.CreationDate,2022-08-31T18:15:56+03:00*
G04 #@! TF.ProjectId,wideband_controller,77696465-6261-46e6-945f-636f6e74726f,rev?*
G04 #@! TF.SameCoordinates,PX5d42830PY713e7a8*
G04 #@! TF.FileFunction,Copper,L3,Inr*
G04 #@! TF.FilePolarity,Positive*
%FSLAX46Y46*%
G04 Gerber Fmt 4.6, Leading zero omitted, Abs format (unit mm)*
G04 Created by KiCad (PCBNEW (6.0.1)) date 2022-08-31 18:15:56*
%MOMM*%
%LPD*%
G01*
G04 APERTURE LIST*
G04 #@! TA.AperFunction,ComponentPad*
%ADD10R,1.700000X1.700000*%
G04 #@! TD*
G04 #@! TA.AperFunction,ComponentPad*
%ADD11O,1.700000X1.700000*%
G04 #@! TD*
G04 #@! TA.AperFunction,ComponentPad*
%ADD12C,1.050000*%
G04 #@! TD*
G04 #@! TA.AperFunction,ViaPad*
%ADD13C,0.600000*%
G04 #@! TD*
G04 APERTURE END LIST*
D10*
G04 #@! TO.N,/UART_TX*
G04 #@! TO.C,J3*
X35819000Y6482000D03*
D11*
G04 #@! TO.N,/UART_RX*
X35819000Y3942000D03*
G04 #@! TO.N,GND*
X33279000Y6482000D03*
G04 #@! TO.N,+5V*
X33279000Y3942000D03*
G04 #@! TD*
D10*
G04 #@! TO.N,+3V3*
G04 #@! TO.C,J4*
X27554000Y6604000D03*
D11*
G04 #@! TO.N,+5V*
X25014000Y6604000D03*
G04 #@! TO.N,/DISP0*
X22474000Y6604000D03*
G04 #@! TO.N,/SWO*
X19934000Y6604000D03*
G04 #@! TO.N,/DISP1*
X17394000Y6604000D03*
G04 #@! TO.N,/DISP2*
X14854000Y6604000D03*
G04 #@! TO.N,/DISP4*
X12314000Y6604000D03*
G04 #@! TO.N,/DISP5*
X9774000Y6604000D03*
G04 #@! TO.N,/DISP6*
X7234000Y6604000D03*
G04 #@! TO.N,GND*
X4694000Y6604000D03*
G04 #@! TD*
D12*
G04 #@! TO.N,12V_PROT*
G04 #@! TO.C,J2*
X14215402Y56257490D03*
G04 #@! TO.N,12V_RAW*
X14215402Y59257490D03*
G04 #@! TO.N,/Vout2*
X16715402Y56257490D03*
G04 #@! TO.N,/Vout1*
X16715402Y59257490D03*
G04 #@! TO.N,/LSU_Vm*
X19215402Y56257490D03*
G04 #@! TO.N,/LSU_Un*
X19215402Y59257490D03*
G04 #@! TO.N,/LSU_Ip*
X21715402Y56257490D03*
G04 #@! TO.N,/LSU_Rtrim*
X21715402Y59257490D03*
G04 #@! TO.N,unconnected-(J2-Pad9)*
X24215402Y56257490D03*
G04 #@! TO.N,unconnected-(J2-Pad10)*
X24215402Y59257490D03*
G04 #@! TO.N,unconnected-(J2-Pad11)*
X26715402Y56257490D03*
G04 #@! TO.N,unconnected-(J2-Pad12)*
X26715402Y59257490D03*
G04 #@! TO.N,unconnected-(J2-Pad13)*
X29215402Y56257490D03*
G04 #@! TO.N,unconnected-(J2-Pad14)*
X29215402Y59257490D03*
G04 #@! TO.N,GND*
X31715402Y56257490D03*
X31715402Y59257490D03*
X34215402Y56257490D03*
X34215402Y59257490D03*
G04 #@! TO.N,/IN3*
X36715402Y56257490D03*
G04 #@! TO.N,unconnected-(J2-Pad20)*
X36715402Y59257490D03*
G04 #@! TO.N,/IN1*
X39215402Y56257490D03*
G04 #@! TO.N,/IN4*
X39215402Y59257490D03*
G04 #@! TO.N,/LSU_Heater-*
X41715402Y56257490D03*
G04 #@! TO.N,/IN2*
X41715402Y59257490D03*
G04 #@! TO.N,/CAN_H*
X44215402Y56257490D03*
G04 #@! TO.N,/CAN_L*
X44215402Y59257490D03*
G04 #@! TD*
D10*
G04 #@! TO.N,/Boot0*
G04 #@! TO.C,TP1*
X22606000Y11049000D03*
G04 #@! TD*
G04 #@! TO.N,/nRESET*
G04 #@! TO.C,TP2*
X18034000Y11049000D03*
G04 #@! TD*
D13*
G04 #@! TO.N,GND*
X15494000Y17526000D03*
X48514000Y38504250D03*
X30950000Y45400000D03*
X31115000Y6350000D03*
X31115000Y10795000D03*
X39450000Y2600000D03*
X18209935Y22733000D03*
X12144600Y33401000D03*
X44577000Y38504250D03*
X47400000Y36250000D03*
X30861000Y53086000D03*
X32229332Y20066000D03*
X32258000Y53086000D03*
X18288000Y14605000D03*
X33020000Y10795000D03*
X18592175Y30748898D03*
X17780000Y27305000D03*
X40902989Y30942476D03*
X4064000Y42164000D03*
X44600000Y33500000D03*
X4850000Y22550000D03*
X28327425Y44339068D03*
X54229000Y35052000D03*
X29300000Y53100000D03*
X51950000Y31700000D03*
X43695000Y47439000D03*
X32766000Y35941000D03*
X4852779Y33329234D03*
X13335000Y36195000D03*
X40005000Y10795000D03*
X16002000Y24511000D03*
X9398000Y44831000D03*
X49150000Y33450000D03*
X54800000Y29750000D03*
X37846000Y36957000D03*
X38100000Y10795000D03*
X52578000Y38504250D03*
X43314000Y53154000D03*
X55300000Y31750000D03*
X32766000Y37211000D03*
X29763400Y35941000D03*
X40005000Y13335000D03*
X10414000Y19304000D03*
X26924000Y35941000D03*
X44965000Y42105000D03*
X11684000Y17526000D03*
X49450000Y53774000D03*
X15494000Y35179000D03*
X24060000Y53086000D03*
X52200000Y36250000D03*
X4064000Y44069000D03*
X25330000Y53086000D03*
X41400000Y45250000D03*
X10546337Y40235521D03*
X26600000Y53086000D03*
X24638000Y25527000D03*
X24638000Y32131000D03*
X46900000Y32900000D03*
X14478000Y41275000D03*
X12954000Y13335000D03*
X48267000Y42105000D03*
X13309412Y28977833D03*
X36354483Y19524122D03*
X38100000Y13335000D03*
X26924000Y34671000D03*
X42000000Y33435815D03*
X9398000Y43307000D03*
X20828000Y39497000D03*
G04 #@! TO.N,/LSU_Rtrim*
X22312400Y30099000D03*
X26924000Y38989000D03*
G04 #@! TO.N,/LSU_Un*
X17335508Y38290492D03*
X17526000Y25019000D03*
G04 #@! TO.N,/LSU_Vm*
X17526000Y34163000D03*
X26924000Y37211000D03*
G04 #@! TO.N,/LSU_Ip*
X26924000Y42799000D03*
G04 #@! TO.N,+5V*
X46235000Y41089000D03*
X51265379Y37559683D03*
X45645516Y37550158D03*
X47371000Y37557027D03*
X19276000Y16101000D03*
X51277690Y33109114D03*
X20066000Y16129000D03*
X13510500Y42339500D03*
X49700000Y45850000D03*
X13510500Y43101500D03*
G04 #@! TO.N,+3V3*
X44550000Y31200000D03*
X52070000Y30734000D03*
X40900000Y33445780D03*
X3200000Y29450000D03*
X10414000Y38735000D03*
X5334000Y12618400D03*
X5334000Y17907000D03*
X36830000Y36957000D03*
X10414000Y36195000D03*
X37464979Y20105751D03*
X24638000Y31115000D03*
X9652000Y37465000D03*
X49150000Y31200000D03*
X19558000Y30765432D03*
X9652000Y38735000D03*
X42049999Y38036393D03*
X24638000Y24592600D03*
X42030020Y35172942D03*
X47505000Y47439000D03*
X10414000Y37465000D03*
X51308000Y30734000D03*
G04 #@! TO.N,/nRESET*
X34036000Y32893000D03*
X24251131Y23413400D03*
G04 #@! TO.N,/Un_3x_sense*
X20447000Y27686000D03*
X25376369Y28994116D03*
G04 #@! TO.N,Net-(R12-Pad1)*
X23876000Y38735000D03*
X21491205Y36416372D03*
G04 #@! TO.N,/Ip_dac*
X30018979Y32974600D03*
X21336000Y31115000D03*
G04 #@! TO.N,/heater_pwm*
X40350000Y29350000D03*
X29099967Y49696671D03*
G04 #@! TO.N,/UART_TX*
X34036000Y12192000D03*
G04 #@! TO.N,/UART_RX*
X34036000Y13462000D03*
G04 #@! TO.N,/Boot0*
X27178000Y22733000D03*
X40400000Y30250000D03*
G04 #@! TO.N,/LED_BLUE*
X32766000Y18161000D03*
X22860000Y14856397D03*
G04 #@! TO.N,/LED_GREEN*
X36110289Y25366778D03*
X22860000Y15621000D03*
G04 #@! TO.N,/SWCLK*
X35520689Y24795706D03*
X6604000Y16510000D03*
X7076160Y22078659D03*
G04 #@! TO.N,/SWDIO*
X35113600Y20800000D03*
X5334000Y16510000D03*
G04 #@! TO.N,VDDA*
X23876000Y34671000D03*
X16764000Y22606000D03*
X13589000Y34449061D03*
X23876000Y35941000D03*
X12954000Y34462766D03*
G04 #@! TO.N,/Vout1*
X11094524Y31430930D03*
G04 #@! TO.N,/Vout2*
X14986000Y11049000D03*
G04 #@! TO.N,Net-(R20-Pad1)*
X24292916Y42623877D03*
X14732000Y26035000D03*
G04 #@! TO.N,/SWO*
X36113600Y27885724D03*
X7493000Y13208000D03*
X8532618Y22987000D03*
G04 #@! TO.N,/DISP6*
X37413336Y31335705D03*
G04 #@! TO.N,/DISP5*
X37338000Y30414600D03*
G04 #@! TO.N,/DISP4*
X36245669Y30168039D03*
G04 #@! TO.N,/DISP2*
X36113600Y29414930D03*
G04 #@! TO.N,/DISP1*
X36113600Y28650327D03*
G04 #@! TO.N,/DISP0*
X36874756Y25381160D03*
G04 #@! TO.N,/Vbatt_sense*
X25777187Y27828552D03*
X7620000Y23749000D03*
G04 #@! TO.N,/Un_sense*
X28194000Y34238316D03*
X17780000Y32893000D03*
G04 #@! TO.N,/Heater_sense*
X35052000Y32893000D03*
X28312256Y45465183D03*
G04 #@! TO.N,Net-(D3-Pad2)*
X6711194Y29488910D03*
X40386000Y24384000D03*
G04 #@! TO.N,/DAC_B*
X25254455Y22530856D03*
X29210000Y30099000D03*
G04 #@! TO.N,Net-(R56-Pad2)*
X55550000Y9700000D03*
X36703000Y13462000D03*
G04 #@! TO.N,Net-(R57-Pad2)*
X55600000Y11150000D03*
X36703000Y12192000D03*
G04 #@! TO.N,/DAC_A*
X29210000Y31115000D03*
X23368000Y22560600D03*
G04 #@! TO.N,/Input_1*
X32030926Y27219293D03*
X45550000Y31200000D03*
G04 #@! TO.N,/Input_3*
X32624291Y25888088D03*
X50150000Y31200000D03*
G04 #@! TO.N,/Input_4*
X48250000Y30010400D03*
X33388289Y25672111D03*
G04 #@! TO.N,/Input_2*
X32113600Y26457133D03*
X43600000Y30010400D03*
G04 #@! TO.N,Net-(C29-Pad2)*
X54356000Y37361250D03*
X52200000Y45900000D03*
X46881260Y35534762D03*
G04 #@! TD*
G04 #@! TA.AperFunction,Conductor*
G04 #@! TO.N,GND*
G36*
X53744609Y66873086D02*
G01*
X53749146Y66872286D01*
X53760001Y66870372D01*
X53770856Y66872286D01*
X53781881Y66872286D01*
X53781881Y66872206D01*
X53794388Y66872920D01*
X54017576Y66859420D01*
X54032678Y66857586D01*
X54155839Y66835017D01*
X54278997Y66812448D01*
X54293770Y66808807D01*
X54413315Y66771556D01*
X54532864Y66734303D01*
X54547068Y66728917D01*
X54775464Y66626125D01*
X54788906Y66619069D01*
X54915388Y66542608D01*
X55003225Y66489508D01*
X55015741Y66480869D01*
X55212884Y66326419D01*
X55224264Y66316336D01*
X55401336Y66139264D01*
X55411419Y66127884D01*
X55565866Y65930746D01*
X55574508Y65918225D01*
X55627608Y65830388D01*
X55704067Y65703909D01*
X55711125Y65690464D01*
X55813917Y65462068D01*
X55819303Y65447864D01*
X55856556Y65328315D01*
X55893807Y65208770D01*
X55897448Y65193997D01*
X55942586Y64947681D01*
X55944420Y64932576D01*
X55957920Y64709388D01*
X55957206Y64696881D01*
X55957286Y64696881D01*
X55957286Y64685856D01*
X55955372Y64675001D01*
X55957286Y64664146D01*
X55958086Y64659609D01*
X55960000Y64637730D01*
X55960000Y11839433D01*
X55939998Y11771312D01*
X55886342Y11724819D01*
X55816068Y11714715D01*
X55785784Y11723024D01*
X55764398Y11731882D01*
X55764392Y11731884D01*
X55756762Y11735044D01*
X55600000Y11755682D01*
X55443238Y11735044D01*
X55297159Y11674536D01*
X55171718Y11578282D01*
X55075464Y11452841D01*
X55014956Y11306762D01*
X54994318Y11150000D01*
X55014956Y10993238D01*
X55075464Y10847159D01*
X55171718Y10721718D01*
X55297159Y10625464D01*
X55443238Y10564956D01*
X55451426Y10563878D01*
X55532434Y10553213D01*
X55582998Y10530844D01*
X55617566Y10546631D01*
X55756762Y10564956D01*
X55764392Y10568116D01*
X55764398Y10568118D01*
X55785784Y10576976D01*
X55856373Y10584565D01*
X55919860Y10552785D01*
X55956087Y10491726D01*
X55960000Y10460567D01*
X55960000Y10368722D01*
X55939998Y10300601D01*
X55886342Y10254108D01*
X55816068Y10244004D01*
X55785782Y10252313D01*
X55714392Y10281884D01*
X55714389Y10281885D01*
X55706762Y10285044D01*
X55698574Y10286122D01*
X55617566Y10296787D01*
X55567002Y10319156D01*
X55532434Y10303369D01*
X55393238Y10285044D01*
X55247159Y10224536D01*
X55121718Y10128282D01*
X55025464Y10002841D01*
X54964956Y9856762D01*
X54944318Y9700000D01*
X54964956Y9543238D01*
X55025464Y9397159D01*
X55121718Y9271718D01*
X55247159Y9175464D01*
X55393238Y9114956D01*
X55550000Y9094318D01*
X55558188Y9095396D01*
X55698574Y9113878D01*
X55706762Y9114956D01*
X55714389Y9118115D01*
X55714392Y9118116D01*
X55785782Y9147687D01*
X55856372Y9155276D01*
X55919859Y9123497D01*
X55956086Y9062438D01*
X55960000Y9031278D01*
X55960000Y3912270D01*
X55958086Y3890391D01*
X55955372Y3874999D01*
X55957286Y3864144D01*
X55957286Y3853119D01*
X55957206Y3853119D01*
X55957920Y3840612D01*
X55944420Y3617424D01*
X55942586Y3602319D01*
X55897448Y3356003D01*
X55893807Y3341230D01*
X55875697Y3283112D01*
X55819312Y3102162D01*
X55819305Y3102141D01*
X55813919Y3087937D01*
X55711125Y2859536D01*
X55704069Y2846094D01*
X55669180Y2788381D01*
X55574508Y2631775D01*
X55565869Y2619259D01*
X55411419Y2422116D01*
X55401336Y2410736D01*
X55224264Y2233664D01*
X55212884Y2223581D01*
X55015741Y2069131D01*
X55003225Y2060492D01*
X54915388Y2007392D01*
X54788906Y1930931D01*
X54775464Y1923875D01*
X54547068Y1821083D01*
X54532864Y1815697D01*
X54413315Y1778444D01*
X54293770Y1741193D01*
X54278997Y1737552D01*
X54155839Y1714983D01*
X54032678Y1692414D01*
X54017576Y1690580D01*
X53794388Y1677080D01*
X53781881Y1677794D01*
X53781881Y1677714D01*
X53770856Y1677714D01*
X53760001Y1679628D01*
X53749146Y1677714D01*
X53744609Y1676914D01*
X53722730Y1675000D01*
X4697281Y1675000D01*
X4675396Y1676915D01*
X4670869Y1677714D01*
X4670866Y1677714D01*
X4660014Y1679628D01*
X4649159Y1677715D01*
X4638135Y1677715D01*
X4638135Y1677795D01*
X4625631Y1677081D01*
X4494963Y1684990D01*
X4402439Y1690591D01*
X4387335Y1692426D01*
X4264180Y1714999D01*
X4141021Y1737574D01*
X4126257Y1741213D01*
X3887157Y1815727D01*
X3872942Y1821119D01*
X3644580Y1923901D01*
X3631131Y1930960D01*
X3416792Y2060536D01*
X3404292Y2069166D01*
X3207156Y2223615D01*
X3195768Y2233704D01*
X3018704Y2410768D01*
X3008615Y2422156D01*
X2854166Y2619292D01*
X2845536Y2631792D01*
X2715960Y2846131D01*
X2708899Y2859585D01*
X2678742Y2926589D01*
X2606119Y3087942D01*
X2600725Y3102162D01*
X2593612Y3124988D01*
X2526213Y3341257D01*
X2522573Y3356025D01*
X2520098Y3369531D01*
X2485001Y3561006D01*
X2477426Y3602335D01*
X2475591Y3617439D01*
X2466537Y3767019D01*
X2462081Y3840631D01*
X2462795Y3853135D01*
X2462715Y3853135D01*
X2462715Y3864159D01*
X2464628Y3875014D01*
X2462714Y3885866D01*
X2462714Y3885869D01*
X2461915Y3890396D01*
X2460000Y3912281D01*
X2460000Y3972246D01*
X32123967Y3972246D01*
X32137796Y3761251D01*
X32139217Y3755655D01*
X32139218Y3755650D01*
X32178156Y3602335D01*
X32189845Y3556310D01*
X32278369Y3364286D01*
X32400405Y3191609D01*
X32551865Y3044063D01*
X32556661Y3040858D01*
X32556664Y3040856D01*
X32694482Y2948769D01*
X32727677Y2926589D01*
X32732985Y2924308D01*
X32732986Y2924308D01*
X32916650Y2845400D01*
X32916653Y2845399D01*
X32921953Y2843122D01*
X32927582Y2841848D01*
X32927583Y2841848D01*
X33122550Y2797731D01*
X33122553Y2797731D01*
X33128186Y2796456D01*
X33133957Y2796229D01*
X33133959Y2796229D01*
X33195989Y2793792D01*
X33339470Y2788154D01*
X33345179Y2788982D01*
X33345183Y2788982D01*
X33543015Y2817667D01*
X33543019Y2817668D01*
X33548730Y2818496D01*
X33630005Y2846085D01*
X33743483Y2884605D01*
X33743488Y2884607D01*
X33748955Y2886463D01*
X33753998Y2889287D01*
X33928395Y2986954D01*
X33928399Y2986957D01*
X33933442Y2989781D01*
X34096012Y3124988D01*
X34231219Y3287558D01*
X34234043Y3292601D01*
X34234046Y3292605D01*
X34331713Y3467002D01*
X34331714Y3467004D01*
X34334537Y3472045D01*
X34336393Y3477512D01*
X34336395Y3477517D01*
X34400647Y3666800D01*
X34402504Y3672270D01*
X34416242Y3767018D01*
X34424090Y3821140D01*
X34453660Y3885685D01*
X34513432Y3923997D01*
X34584429Y3923913D01*
X34644109Y3885458D01*
X34673525Y3820842D01*
X34674515Y3811305D01*
X34677796Y3761251D01*
X34679217Y3755655D01*
X34679218Y3755650D01*
X34718156Y3602335D01*
X34729845Y3556310D01*
X34818369Y3364286D01*
X34940405Y3191609D01*
X35091865Y3044063D01*
X35096661Y3040858D01*
X35096664Y3040856D01*
X35234482Y2948769D01*
X35267677Y2926589D01*
X35272985Y2924308D01*
X35272986Y2924308D01*
X35456650Y2845400D01*
X35456653Y2845399D01*
X35461953Y2843122D01*
X35467582Y2841848D01*
X35467583Y2841848D01*
X35662550Y2797731D01*
X35662553Y2797731D01*
X35668186Y2796456D01*
X35673957Y2796229D01*
X35673959Y2796229D01*
X35735989Y2793792D01*
X35879470Y2788154D01*
X35885179Y2788982D01*
X35885183Y2788982D01*
X36083015Y2817667D01*
X36083019Y2817668D01*
X36088730Y2818496D01*
X36170005Y2846085D01*
X36283483Y2884605D01*
X36283488Y2884607D01*
X36288955Y2886463D01*
X36293998Y2889287D01*
X36468395Y2986954D01*
X36468399Y2986957D01*
X36473442Y2989781D01*
X36636012Y3124988D01*
X36771219Y3287558D01*
X36774043Y3292601D01*
X36774046Y3292605D01*
X36871713Y3467002D01*
X36871714Y3467004D01*
X36874537Y3472045D01*
X36876393Y3477512D01*
X36876395Y3477517D01*
X36940647Y3666800D01*
X36942504Y3672270D01*
X36956243Y3767019D01*
X36972314Y3877860D01*
X36972314Y3877862D01*
X36972846Y3881530D01*
X36974429Y3942000D01*
X36955081Y4152560D01*
X36897686Y4356069D01*
X36886553Y4378646D01*
X36806719Y4540531D01*
X36804165Y4545710D01*
X36677651Y4715133D01*
X36522381Y4858663D01*
X36343554Y4971495D01*
X36147160Y5049848D01*
X36141503Y5050973D01*
X36141497Y5050975D01*
X35985916Y5081921D01*
X35923006Y5114828D01*
X35887874Y5176523D01*
X35891674Y5247418D01*
X35933199Y5305004D01*
X35999266Y5330998D01*
X36010497Y5331500D01*
X36713646Y5331500D01*
X36717350Y5331941D01*
X36717353Y5331941D01*
X36724746Y5332821D01*
X36739846Y5334618D01*
X36798881Y5360840D01*
X36831518Y5375337D01*
X36842153Y5380061D01*
X36921241Y5459287D01*
X36926084Y5470240D01*
X36962675Y5553008D01*
X36966506Y5561673D01*
X36969500Y5587354D01*
X36969500Y7376646D01*
X36966382Y7402846D01*
X36920939Y7505153D01*
X36909727Y7516346D01*
X36849945Y7576023D01*
X36841713Y7584241D01*
X36831076Y7588944D01*
X36831074Y7588945D01*
X36760951Y7619946D01*
X36739327Y7629506D01*
X36713646Y7632500D01*
X34924354Y7632500D01*
X34920650Y7632059D01*
X34920647Y7632059D01*
X34913254Y7631179D01*
X34898154Y7629382D01*
X34889514Y7625544D01*
X34889513Y7625544D01*
X34807117Y7588945D01*
X34795847Y7583939D01*
X34716759Y7504713D01*
X34671494Y7402327D01*
X34668500Y7376646D01*
X34668500Y6677432D01*
X34648498Y6609311D01*
X34594842Y6562818D01*
X34524568Y6552714D01*
X34459988Y6582208D01*
X34421604Y6641934D01*
X34417029Y6665903D01*
X34415117Y6686715D01*
X34413020Y6698029D01*
X34358785Y6890330D01*
X34354663Y6901069D01*
X34266292Y7080267D01*
X34260282Y7090075D01*
X34140731Y7250173D01*
X34133041Y7258713D01*
X33986315Y7394346D01*
X33977190Y7401347D01*
X33808209Y7507966D01*
X33797965Y7513186D01*
X33612385Y7587225D01*
X33601347Y7590495D01*
X33446770Y7621241D01*
X33433894Y7620089D01*
X33429000Y7604936D01*
X33429000Y6458000D01*
X33408998Y6389879D01*
X33355342Y6343386D01*
X33303000Y6332000D01*
X32154397Y6332000D01*
X32139357Y6327584D01*
X32137305Y6316397D01*
X32137914Y6307099D01*
X32139715Y6295727D01*
X32188896Y6102077D01*
X32192737Y6091231D01*
X32276386Y5909782D01*
X32282137Y5899821D01*
X32397455Y5736650D01*
X32404921Y5727908D01*
X32548047Y5588480D01*
X32556981Y5581246D01*
X32723112Y5470240D01*
X32733225Y5464749D01*
X32916805Y5385877D01*
X32927738Y5382325D01*
X33122615Y5338229D01*
X33139753Y5335973D01*
X33139480Y5333900D01*
X33197986Y5314184D01*
X33242326Y5258736D01*
X33249650Y5188118D01*
X33217633Y5124751D01*
X33156439Y5088753D01*
X33147081Y5086776D01*
X32979953Y5058059D01*
X32781575Y4984873D01*
X32776614Y4981921D01*
X32776613Y4981921D01*
X32759089Y4971495D01*
X32599856Y4876762D01*
X32440881Y4737345D01*
X32309976Y4571292D01*
X32307287Y4566181D01*
X32307285Y4566178D01*
X32293792Y4540531D01*
X32211523Y4384164D01*
X32148820Y4182227D01*
X32123967Y3972246D01*
X2460000Y3972246D01*
X2460000Y6438397D01*
X3552305Y6438397D01*
X3552914Y6429099D01*
X3554715Y6417727D01*
X3603896Y6224077D01*
X3607737Y6213231D01*
X3691386Y6031782D01*
X3697137Y6021821D01*
X3812455Y5858650D01*
X3819921Y5849908D01*
X3963047Y5710480D01*
X3971981Y5703246D01*
X4138112Y5592240D01*
X4148225Y5586749D01*
X4331805Y5507877D01*
X4342738Y5504325D01*
X4532700Y5461342D01*
X4541300Y5463509D01*
X4541666Y5463900D01*
X4544000Y5473709D01*
X4544000Y5481756D01*
X4844000Y5481756D01*
X4847966Y5468250D01*
X4861966Y5466246D01*
X4957898Y5480155D01*
X4969081Y5482840D01*
X5158283Y5547066D01*
X5168786Y5551742D01*
X5343124Y5649375D01*
X5352596Y5655885D01*
X5506219Y5783652D01*
X5514348Y5791781D01*
X5642115Y5945404D01*
X5648625Y5954876D01*
X5746258Y6129214D01*
X5750934Y6139717D01*
X5815160Y6328919D01*
X5817845Y6340102D01*
X5838932Y6485541D01*
X5868502Y6550087D01*
X5928273Y6588399D01*
X5999270Y6588315D01*
X6058950Y6549860D01*
X6088367Y6485244D01*
X6089358Y6475702D01*
X6092796Y6423251D01*
X6094217Y6417655D01*
X6094218Y6417650D01*
X6118770Y6320979D01*
X6144845Y6218310D01*
X6233369Y6026286D01*
X6355405Y5853609D01*
X6359539Y5849582D01*
X6499727Y5713017D01*
X6506865Y5706063D01*
X6511661Y5702858D01*
X6511664Y5702856D01*
X6654936Y5607125D01*
X6682677Y5588589D01*
X6687985Y5586308D01*
X6687986Y5586308D01*
X6871650Y5507400D01*
X6871653Y5507399D01*
X6876953Y5505122D01*
X6882582Y5503848D01*
X6882583Y5503848D01*
X7077550Y5459731D01*
X7077553Y5459731D01*
X7083186Y5458456D01*
X7088957Y5458229D01*
X7088959Y5458229D01*
X7150989Y5455792D01*
X7294470Y5450154D01*
X7300179Y5450982D01*
X7300183Y5450982D01*
X7498015Y5479667D01*
X7498019Y5479668D01*
X7503730Y5480496D01*
X7590579Y5509977D01*
X7698483Y5546605D01*
X7698488Y5546607D01*
X7703955Y5548463D01*
X7712071Y5553008D01*
X7883395Y5648954D01*
X7883399Y5648957D01*
X7888442Y5651781D01*
X8051012Y5786988D01*
X8186219Y5949558D01*
X8189043Y5954601D01*
X8189046Y5954605D01*
X8286713Y6129002D01*
X8286714Y6129004D01*
X8289537Y6134045D01*
X8291393Y6139512D01*
X8291395Y6139517D01*
X8355647Y6328800D01*
X8357504Y6334270D01*
X8369605Y6417727D01*
X8379090Y6483140D01*
X8408660Y6547685D01*
X8468432Y6585997D01*
X8539429Y6585913D01*
X8599109Y6547458D01*
X8628525Y6482842D01*
X8629515Y6473305D01*
X8632796Y6423251D01*
X8634217Y6417655D01*
X8634218Y6417650D01*
X8658770Y6320979D01*
X8684845Y6218310D01*
X8773369Y6026286D01*
X8895405Y5853609D01*
X8899539Y5849582D01*
X9039727Y5713017D01*
X9046865Y5706063D01*
X9051661Y5702858D01*
X9051664Y5702856D01*
X9194936Y5607125D01*
X9222677Y5588589D01*
X9227985Y5586308D01*
X9227986Y5586308D01*
X9411650Y5507400D01*
X9411653Y5507399D01*
X9416953Y5505122D01*
X9422582Y5503848D01*
X9422583Y5503848D01*
X9617550Y5459731D01*
X9617553Y5459731D01*
X9623186Y5458456D01*
X9628957Y5458229D01*
X9628959Y5458229D01*
X9690989Y5455792D01*
X9834470Y5450154D01*
X9840179Y5450982D01*
X9840183Y5450982D01*
X10038015Y5479667D01*
X10038019Y5479668D01*
X10043730Y5480496D01*
X10130579Y5509977D01*
X10238483Y5546605D01*
X10238488Y5546607D01*
X10243955Y5548463D01*
X10252071Y5553008D01*
X10423395Y5648954D01*
X10423399Y5648957D01*
X10428442Y5651781D01*
X10591012Y5786988D01*
X10726219Y5949558D01*
X10729043Y5954601D01*
X10729046Y5954605D01*
X10826713Y6129002D01*
X10826714Y6129004D01*
X10829537Y6134045D01*
X10831393Y6139512D01*
X10831395Y6139517D01*
X10895647Y6328800D01*
X10897504Y6334270D01*
X10909605Y6417727D01*
X10919090Y6483140D01*
X10948660Y6547685D01*
X11008432Y6585997D01*
X11079429Y6585913D01*
X11139109Y6547458D01*
X11168525Y6482842D01*
X11169515Y6473305D01*
X11172796Y6423251D01*
X11174217Y6417655D01*
X11174218Y6417650D01*
X11198770Y6320979D01*
X11224845Y6218310D01*
X11313369Y6026286D01*
X11435405Y5853609D01*
X11439539Y5849582D01*
X11579727Y5713017D01*
X11586865Y5706063D01*
X11591661Y5702858D01*
X11591664Y5702856D01*
X11734936Y5607125D01*
X11762677Y5588589D01*
X11767985Y5586308D01*
X11767986Y5586308D01*
X11951650Y5507400D01*
X11951653Y5507399D01*
X11956953Y5505122D01*
X11962582Y5503848D01*
X11962583Y5503848D01*
X12157550Y5459731D01*
X12157553Y5459731D01*
X12163186Y5458456D01*
X12168957Y5458229D01*
X12168959Y5458229D01*
X12230989Y5455792D01*
X12374470Y5450154D01*
X12380179Y5450982D01*
X12380183Y5450982D01*
X12578015Y5479667D01*
X12578019Y5479668D01*
X12583730Y5480496D01*
X12670579Y5509977D01*
X12778483Y5546605D01*
X12778488Y5546607D01*
X12783955Y5548463D01*
X12792071Y5553008D01*
X12963395Y5648954D01*
X12963399Y5648957D01*
X12968442Y5651781D01*
X13131012Y5786988D01*
X13266219Y5949558D01*
X13269043Y5954601D01*
X13269046Y5954605D01*
X13366713Y6129002D01*
X13366714Y6129004D01*
X13369537Y6134045D01*
X13371393Y6139512D01*
X13371395Y6139517D01*
X13435647Y6328800D01*
X13437504Y6334270D01*
X13449605Y6417727D01*
X13459090Y6483140D01*
X13488660Y6547685D01*
X13548432Y6585997D01*
X13619429Y6585913D01*
X13679109Y6547458D01*
X13708525Y6482842D01*
X13709515Y6473305D01*
X13712796Y6423251D01*
X13714217Y6417655D01*
X13714218Y6417650D01*
X13738770Y6320979D01*
X13764845Y6218310D01*
X13853369Y6026286D01*
X13975405Y5853609D01*
X13979539Y5849582D01*
X14119727Y5713017D01*
X14126865Y5706063D01*
X14131661Y5702858D01*
X14131664Y5702856D01*
X14274936Y5607125D01*
X14302677Y5588589D01*
X14307985Y5586308D01*
X14307986Y5586308D01*
X14491650Y5507400D01*
X14491653Y5507399D01*
X14496953Y5505122D01*
X14502582Y5503848D01*
X14502583Y5503848D01*
X14697550Y5459731D01*
X14697553Y5459731D01*
X14703186Y5458456D01*
X14708957Y5458229D01*
X14708959Y5458229D01*
X14770989Y5455792D01*
X14914470Y5450154D01*
X14920179Y5450982D01*
X14920183Y5450982D01*
X15118015Y5479667D01*
X15118019Y5479668D01*
X15123730Y5480496D01*
X15210579Y5509977D01*
X15318483Y5546605D01*
X15318488Y5546607D01*
X15323955Y5548463D01*
X15332071Y5553008D01*
X15503395Y5648954D01*
X15503399Y5648957D01*
X15508442Y5651781D01*
X15671012Y5786988D01*
X15806219Y5949558D01*
X15809043Y5954601D01*
X15809046Y5954605D01*
X15906713Y6129002D01*
X15906714Y6129004D01*
X15909537Y6134045D01*
X15911393Y6139512D01*
X15911395Y6139517D01*
X15975647Y6328800D01*
X15977504Y6334270D01*
X15989605Y6417727D01*
X15999090Y6483140D01*
X16028660Y6547685D01*
X16088432Y6585997D01*
X16159429Y6585913D01*
X16219109Y6547458D01*
X16248525Y6482842D01*
X16249515Y6473305D01*
X16252796Y6423251D01*
X16254217Y6417655D01*
X16254218Y6417650D01*
X16278770Y6320979D01*
X16304845Y6218310D01*
X16393369Y6026286D01*
X16515405Y5853609D01*
X16519539Y5849582D01*
X16659727Y5713017D01*
X16666865Y5706063D01*
X16671661Y5702858D01*
X16671664Y5702856D01*
X16814936Y5607125D01*
X16842677Y5588589D01*
X16847985Y5586308D01*
X16847986Y5586308D01*
X17031650Y5507400D01*
X17031653Y5507399D01*
X17036953Y5505122D01*
X17042582Y5503848D01*
X17042583Y5503848D01*
X17237550Y5459731D01*
X17237553Y5459731D01*
X17243186Y5458456D01*
X17248957Y5458229D01*
X17248959Y5458229D01*
X17310989Y5455792D01*
X17454470Y5450154D01*
X17460179Y5450982D01*
X17460183Y5450982D01*
X17658015Y5479667D01*
X17658019Y5479668D01*
X17663730Y5480496D01*
X17750579Y5509977D01*
X17858483Y5546605D01*
X17858488Y5546607D01*
X17863955Y5548463D01*
X17872071Y5553008D01*
X18043395Y5648954D01*
X18043399Y5648957D01*
X18048442Y5651781D01*
X18211012Y5786988D01*
X18346219Y5949558D01*
X18349043Y5954601D01*
X18349046Y5954605D01*
X18446713Y6129002D01*
X18446714Y6129004D01*
X18449537Y6134045D01*
X18451393Y6139512D01*
X18451395Y6139517D01*
X18515647Y6328800D01*
X18517504Y6334270D01*
X18529605Y6417727D01*
X18539090Y6483140D01*
X18568660Y6547685D01*
X18628432Y6585997D01*
X18699429Y6585913D01*
X18759109Y6547458D01*
X18788525Y6482842D01*
X18789515Y6473305D01*
X18792796Y6423251D01*
X18794217Y6417655D01*
X18794218Y6417650D01*
X18818770Y6320979D01*
X18844845Y6218310D01*
X18933369Y6026286D01*
X19055405Y5853609D01*
X19059539Y5849582D01*
X19199727Y5713017D01*
X19206865Y5706063D01*
X19211661Y5702858D01*
X19211664Y5702856D01*
X19354936Y5607125D01*
X19382677Y5588589D01*
X19387985Y5586308D01*
X19387986Y5586308D01*
X19571650Y5507400D01*
X19571653Y5507399D01*
X19576953Y5505122D01*
X19582582Y5503848D01*
X19582583Y5503848D01*
X19777550Y5459731D01*
X19777553Y5459731D01*
X19783186Y5458456D01*
X19788957Y5458229D01*
X19788959Y5458229D01*
X19850989Y5455792D01*
X19994470Y5450154D01*
X20000179Y5450982D01*
X20000183Y5450982D01*
X20198015Y5479667D01*
X20198019Y5479668D01*
X20203730Y5480496D01*
X20290579Y5509977D01*
X20398483Y5546605D01*
X20398488Y5546607D01*
X20403955Y5548463D01*
X20412071Y5553008D01*
X20583395Y5648954D01*
X20583399Y5648957D01*
X20588442Y5651781D01*
X20751012Y5786988D01*
X20886219Y5949558D01*
X20889043Y5954601D01*
X20889046Y5954605D01*
X20986713Y6129002D01*
X20986714Y6129004D01*
X20989537Y6134045D01*
X20991393Y6139512D01*
X20991395Y6139517D01*
X21055647Y6328800D01*
X21057504Y6334270D01*
X21069605Y6417727D01*
X21079090Y6483140D01*
X21108660Y6547685D01*
X21168432Y6585997D01*
X21239429Y6585913D01*
X21299109Y6547458D01*
X21328525Y6482842D01*
X21329515Y6473305D01*
X21332796Y6423251D01*
X21334217Y6417655D01*
X21334218Y6417650D01*
X21358770Y6320979D01*
X21384845Y6218310D01*
X21473369Y6026286D01*
X21595405Y5853609D01*
X21599539Y5849582D01*
X21739727Y5713017D01*
X21746865Y5706063D01*
X21751661Y5702858D01*
X21751664Y5702856D01*
X21894936Y5607125D01*
X21922677Y5588589D01*
X21927985Y5586308D01*
X21927986Y5586308D01*
X22111650Y5507400D01*
X22111653Y5507399D01*
X22116953Y5505122D01*
X22122582Y5503848D01*
X22122583Y5503848D01*
X22317550Y5459731D01*
X22317553Y5459731D01*
X22323186Y5458456D01*
X22328957Y5458229D01*
X22328959Y5458229D01*
X22390989Y5455792D01*
X22534470Y5450154D01*
X22540179Y5450982D01*
X22540183Y5450982D01*
X22738015Y5479667D01*
X22738019Y5479668D01*
X22743730Y5480496D01*
X22830579Y5509977D01*
X22938483Y5546605D01*
X22938488Y5546607D01*
X22943955Y5548463D01*
X22952071Y5553008D01*
X23123395Y5648954D01*
X23123399Y5648957D01*
X23128442Y5651781D01*
X23291012Y5786988D01*
X23426219Y5949558D01*
X23429043Y5954601D01*
X23429046Y5954605D01*
X23526713Y6129002D01*
X23526714Y6129004D01*
X23529537Y6134045D01*
X23531393Y6139512D01*
X23531395Y6139517D01*
X23595647Y6328800D01*
X23597504Y6334270D01*
X23609605Y6417727D01*
X23619090Y6483140D01*
X23648660Y6547685D01*
X23708432Y6585997D01*
X23779429Y6585913D01*
X23839109Y6547458D01*
X23868525Y6482842D01*
X23869515Y6473305D01*
X23872796Y6423251D01*
X23874217Y6417655D01*
X23874218Y6417650D01*
X23898770Y6320979D01*
X23924845Y6218310D01*
X24013369Y6026286D01*
X24135405Y5853609D01*
X24139539Y5849582D01*
X24279727Y5713017D01*
X24286865Y5706063D01*
X24291661Y5702858D01*
X24291664Y5702856D01*
X24434936Y5607125D01*
X24462677Y5588589D01*
X24467985Y5586308D01*
X24467986Y5586308D01*
X24651650Y5507400D01*
X24651653Y5507399D01*
X24656953Y5505122D01*
X24662582Y5503848D01*
X24662583Y5503848D01*
X24857550Y5459731D01*
X24857553Y5459731D01*
X24863186Y5458456D01*
X24868957Y5458229D01*
X24868959Y5458229D01*
X24930989Y5455792D01*
X25074470Y5450154D01*
X25080179Y5450982D01*
X25080183Y5450982D01*
X25278015Y5479667D01*
X25278019Y5479668D01*
X25283730Y5480496D01*
X25370579Y5509977D01*
X25478483Y5546605D01*
X25478488Y5546607D01*
X25483955Y5548463D01*
X25492071Y5553008D01*
X25663395Y5648954D01*
X25663399Y5648957D01*
X25668442Y5651781D01*
X25831012Y5786988D01*
X25966219Y5949558D01*
X25969043Y5954601D01*
X25969046Y5954605D01*
X26066713Y6129002D01*
X26066714Y6129004D01*
X26069537Y6134045D01*
X26071393Y6139512D01*
X26071395Y6139517D01*
X26135647Y6328800D01*
X26137504Y6334270D01*
X26152804Y6439789D01*
X26182374Y6504335D01*
X26242146Y6542647D01*
X26313143Y6542563D01*
X26372823Y6504108D01*
X26402239Y6439492D01*
X26403500Y6421709D01*
X26403500Y5709354D01*
X26406618Y5683154D01*
X26452061Y5580847D01*
X26460294Y5572628D01*
X26460295Y5572627D01*
X26485901Y5547066D01*
X26531287Y5501759D01*
X26541924Y5497056D01*
X26541926Y5497055D01*
X26581257Y5479667D01*
X26633673Y5456494D01*
X26659354Y5453500D01*
X28448646Y5453500D01*
X28452350Y5453941D01*
X28452353Y5453941D01*
X28459746Y5454821D01*
X28474846Y5456618D01*
X28485482Y5461342D01*
X28566518Y5497337D01*
X28577153Y5502061D01*
X28656241Y5581287D01*
X28661084Y5592240D01*
X28687265Y5651462D01*
X28701506Y5683673D01*
X28704500Y5709354D01*
X28704500Y6649988D01*
X32140773Y6649988D01*
X32143215Y6635569D01*
X32155957Y6632000D01*
X33110885Y6632000D01*
X33126124Y6636475D01*
X33127329Y6637865D01*
X33129000Y6645548D01*
X33129000Y7605048D01*
X33125194Y7618010D01*
X33110279Y7619946D01*
X32985780Y7598553D01*
X32974660Y7595573D01*
X32787207Y7526418D01*
X32776829Y7521468D01*
X32605119Y7419312D01*
X32595807Y7412547D01*
X32445587Y7280806D01*
X32437670Y7272463D01*
X32313975Y7115557D01*
X32307704Y7105900D01*
X32214679Y6929088D01*
X32210273Y6918451D01*
X32151025Y6727644D01*
X32148632Y6716386D01*
X32140773Y6649988D01*
X28704500Y6649988D01*
X28704500Y7498646D01*
X28701382Y7524846D01*
X28665808Y7604936D01*
X28660663Y7616518D01*
X28655939Y7627153D01*
X28647444Y7635634D01*
X28584945Y7698023D01*
X28576713Y7706241D01*
X28566076Y7710944D01*
X28566074Y7710945D01*
X28495951Y7741946D01*
X28474327Y7751506D01*
X28448646Y7754500D01*
X26659354Y7754500D01*
X26655650Y7754059D01*
X26655647Y7754059D01*
X26648254Y7753179D01*
X26633154Y7751382D01*
X26624514Y7747544D01*
X26624513Y7747544D01*
X26544150Y7711848D01*
X26530847Y7705939D01*
X26451759Y7626713D01*
X26447056Y7616076D01*
X26447055Y7616074D01*
X26429349Y7576023D01*
X26406494Y7524327D01*
X26403500Y7498646D01*
X26403500Y6804889D01*
X26383498Y6736768D01*
X26329842Y6690275D01*
X26259568Y6680171D01*
X26194988Y6709665D01*
X26156604Y6769391D01*
X26152029Y6793360D01*
X26150610Y6808803D01*
X26150081Y6814560D01*
X26143362Y6838386D01*
X26117781Y6929088D01*
X26092686Y7018069D01*
X26081649Y7040451D01*
X26001719Y7202531D01*
X25999165Y7207710D01*
X25872651Y7377133D01*
X25745236Y7494914D01*
X25721622Y7516743D01*
X25721620Y7516745D01*
X25717381Y7520663D01*
X25688696Y7538762D01*
X25543434Y7630416D01*
X25543433Y7630416D01*
X25538554Y7633495D01*
X25342160Y7711848D01*
X25336503Y7712973D01*
X25336497Y7712975D01*
X25140442Y7751972D01*
X25140440Y7751972D01*
X25134775Y7753099D01*
X25129000Y7753175D01*
X25128996Y7753175D01*
X25022976Y7754563D01*
X24923346Y7755867D01*
X24917649Y7754888D01*
X24917648Y7754888D01*
X24720650Y7721038D01*
X24720649Y7721038D01*
X24714953Y7720059D01*
X24516575Y7646873D01*
X24511614Y7643921D01*
X24511613Y7643921D01*
X24411300Y7584241D01*
X24334856Y7538762D01*
X24175881Y7399345D01*
X24044976Y7233292D01*
X24042287Y7228181D01*
X24042285Y7228178D01*
X24028792Y7202531D01*
X23946523Y7046164D01*
X23883820Y6844227D01*
X23883141Y6838490D01*
X23869088Y6719761D01*
X23841217Y6654463D01*
X23782469Y6614599D01*
X23711494Y6612826D01*
X23650828Y6649705D01*
X23619730Y6713529D01*
X23618490Y6723042D01*
X23618068Y6727644D01*
X23610081Y6814560D01*
X23603362Y6838386D01*
X23577781Y6929088D01*
X23552686Y7018069D01*
X23541649Y7040451D01*
X23461719Y7202531D01*
X23459165Y7207710D01*
X23332651Y7377133D01*
X23205236Y7494914D01*
X23181622Y7516743D01*
X23181620Y7516745D01*
X23177381Y7520663D01*
X23148696Y7538762D01*
X23003434Y7630416D01*
X23003433Y7630416D01*
X22998554Y7633495D01*
X22802160Y7711848D01*
X22796503Y7712973D01*
X22796497Y7712975D01*
X22600442Y7751972D01*
X22600440Y7751972D01*
X22594775Y7753099D01*
X22589000Y7753175D01*
X22588996Y7753175D01*
X22482976Y7754563D01*
X22383346Y7755867D01*
X22377649Y7754888D01*
X22377648Y7754888D01*
X22180650Y7721038D01*
X22180649Y7721038D01*
X22174953Y7720059D01*
X21976575Y7646873D01*
X21971614Y7643921D01*
X21971613Y7643921D01*
X21871300Y7584241D01*
X21794856Y7538762D01*
X21635881Y7399345D01*
X21504976Y7233292D01*
X21502287Y7228181D01*
X21502285Y7228178D01*
X21488792Y7202531D01*
X21406523Y7046164D01*
X21343820Y6844227D01*
X21343141Y6838490D01*
X21329088Y6719761D01*
X21301217Y6654463D01*
X21242469Y6614599D01*
X21171494Y6612826D01*
X21110828Y6649705D01*
X21079730Y6713529D01*
X21078490Y6723042D01*
X21078068Y6727644D01*
X21070081Y6814560D01*
X21063362Y6838386D01*
X21037781Y6929088D01*
X21012686Y7018069D01*
X21001649Y7040451D01*
X20921719Y7202531D01*
X20919165Y7207710D01*
X20792651Y7377133D01*
X20665236Y7494914D01*
X20641622Y7516743D01*
X20641620Y7516745D01*
X20637381Y7520663D01*
X20608696Y7538762D01*
X20463434Y7630416D01*
X20463433Y7630416D01*
X20458554Y7633495D01*
X20262160Y7711848D01*
X20256503Y7712973D01*
X20256497Y7712975D01*
X20060442Y7751972D01*
X20060440Y7751972D01*
X20054775Y7753099D01*
X20049000Y7753175D01*
X20048996Y7753175D01*
X19942976Y7754563D01*
X19843346Y7755867D01*
X19837649Y7754888D01*
X19837648Y7754888D01*
X19640650Y7721038D01*
X19640649Y7721038D01*
X19634953Y7720059D01*
X19436575Y7646873D01*
X19431614Y7643921D01*
X19431613Y7643921D01*
X19331300Y7584241D01*
X19254856Y7538762D01*
X19095881Y7399345D01*
X18964976Y7233292D01*
X18962287Y7228181D01*
X18962285Y7228178D01*
X18948792Y7202531D01*
X18866523Y7046164D01*
X18803820Y6844227D01*
X18803141Y6838490D01*
X18789088Y6719761D01*
X18761217Y6654463D01*
X18702469Y6614599D01*
X18631494Y6612826D01*
X18570828Y6649705D01*
X18539730Y6713529D01*
X18538490Y6723042D01*
X18538068Y6727644D01*
X18530081Y6814560D01*
X18523362Y6838386D01*
X18497781Y6929088D01*
X18472686Y7018069D01*
X18461649Y7040451D01*
X18381719Y7202531D01*
X18379165Y7207710D01*
X18252651Y7377133D01*
X18125236Y7494914D01*
X18101622Y7516743D01*
X18101620Y7516745D01*
X18097381Y7520663D01*
X18068696Y7538762D01*
X17923434Y7630416D01*
X17923433Y7630416D01*
X17918554Y7633495D01*
X17722160Y7711848D01*
X17716503Y7712973D01*
X17716497Y7712975D01*
X17520442Y7751972D01*
X17520440Y7751972D01*
X17514775Y7753099D01*
X17509000Y7753175D01*
X17508996Y7753175D01*
X17402976Y7754563D01*
X17303346Y7755867D01*
X17297649Y7754888D01*
X17297648Y7754888D01*
X17100650Y7721038D01*
X17100649Y7721038D01*
X17094953Y7720059D01*
X16896575Y7646873D01*
X16891614Y7643921D01*
X16891613Y7643921D01*
X16791300Y7584241D01*
X16714856Y7538762D01*
X16555881Y7399345D01*
X16424976Y7233292D01*
X16422287Y7228181D01*
X16422285Y7228178D01*
X16408792Y7202531D01*
X16326523Y7046164D01*
X16263820Y6844227D01*
X16263141Y6838490D01*
X16249088Y6719761D01*
X16221217Y6654463D01*
X16162469Y6614599D01*
X16091494Y6612826D01*
X16030828Y6649705D01*
X15999730Y6713529D01*
X15998490Y6723042D01*
X15998068Y6727644D01*
X15990081Y6814560D01*
X15983362Y6838386D01*
X15957781Y6929088D01*
X15932686Y7018069D01*
X15921649Y7040451D01*
X15841719Y7202531D01*
X15839165Y7207710D01*
X15712651Y7377133D01*
X15585236Y7494914D01*
X15561622Y7516743D01*
X15561620Y7516745D01*
X15557381Y7520663D01*
X15528696Y7538762D01*
X15383434Y7630416D01*
X15383433Y7630416D01*
X15378554Y7633495D01*
X15182160Y7711848D01*
X15176503Y7712973D01*
X15176497Y7712975D01*
X14980442Y7751972D01*
X14980440Y7751972D01*
X14974775Y7753099D01*
X14969000Y7753175D01*
X14968996Y7753175D01*
X14862976Y7754563D01*
X14763346Y7755867D01*
X14757649Y7754888D01*
X14757648Y7754888D01*
X14560650Y7721038D01*
X14560649Y7721038D01*
X14554953Y7720059D01*
X14356575Y7646873D01*
X14351614Y7643921D01*
X14351613Y7643921D01*
X14251300Y7584241D01*
X14174856Y7538762D01*
X14015881Y7399345D01*
X13884976Y7233292D01*
X13882287Y7228181D01*
X13882285Y7228178D01*
X13868792Y7202531D01*
X13786523Y7046164D01*
X13723820Y6844227D01*
X13723141Y6838490D01*
X13709088Y6719761D01*
X13681217Y6654463D01*
X13622469Y6614599D01*
X13551494Y6612826D01*
X13490828Y6649705D01*
X13459730Y6713529D01*
X13458490Y6723042D01*
X13458068Y6727644D01*
X13450081Y6814560D01*
X13443362Y6838386D01*
X13417781Y6929088D01*
X13392686Y7018069D01*
X13381649Y7040451D01*
X13301719Y7202531D01*
X13299165Y7207710D01*
X13172651Y7377133D01*
X13045236Y7494914D01*
X13021622Y7516743D01*
X13021620Y7516745D01*
X13017381Y7520663D01*
X12988696Y7538762D01*
X12843434Y7630416D01*
X12843433Y7630416D01*
X12838554Y7633495D01*
X12642160Y7711848D01*
X12636503Y7712973D01*
X12636497Y7712975D01*
X12440442Y7751972D01*
X12440440Y7751972D01*
X12434775Y7753099D01*
X12429000Y7753175D01*
X12428996Y7753175D01*
X12322976Y7754563D01*
X12223346Y7755867D01*
X12217649Y7754888D01*
X12217648Y7754888D01*
X12020650Y7721038D01*
X12020649Y7721038D01*
X12014953Y7720059D01*
X11816575Y7646873D01*
X11811614Y7643921D01*
X11811613Y7643921D01*
X11711300Y7584241D01*
X11634856Y7538762D01*
X11475881Y7399345D01*
X11344976Y7233292D01*
X11342287Y7228181D01*
X11342285Y7228178D01*
X11328792Y7202531D01*
X11246523Y7046164D01*
X11183820Y6844227D01*
X11183141Y6838490D01*
X11169088Y6719761D01*
X11141217Y6654463D01*
X11082469Y6614599D01*
X11011494Y6612826D01*
X10950828Y6649705D01*
X10919730Y6713529D01*
X10918490Y6723042D01*
X10918068Y6727644D01*
X10910081Y6814560D01*
X10903362Y6838386D01*
X10877781Y6929088D01*
X10852686Y7018069D01*
X10841649Y7040451D01*
X10761719Y7202531D01*
X10759165Y7207710D01*
X10632651Y7377133D01*
X10505236Y7494914D01*
X10481622Y7516743D01*
X10481620Y7516745D01*
X10477381Y7520663D01*
X10448696Y7538762D01*
X10303434Y7630416D01*
X10303433Y7630416D01*
X10298554Y7633495D01*
X10102160Y7711848D01*
X10096503Y7712973D01*
X10096497Y7712975D01*
X9900442Y7751972D01*
X9900440Y7751972D01*
X9894775Y7753099D01*
X9889000Y7753175D01*
X9888996Y7753175D01*
X9782976Y7754563D01*
X9683346Y7755867D01*
X9677649Y7754888D01*
X9677648Y7754888D01*
X9480650Y7721038D01*
X9480649Y7721038D01*
X9474953Y7720059D01*
X9276575Y7646873D01*
X9271614Y7643921D01*
X9271613Y7643921D01*
X9171300Y7584241D01*
X9094856Y7538762D01*
X8935881Y7399345D01*
X8804976Y7233292D01*
X8802287Y7228181D01*
X8802285Y7228178D01*
X8788792Y7202531D01*
X8706523Y7046164D01*
X8643820Y6844227D01*
X8643141Y6838490D01*
X8629088Y6719761D01*
X8601217Y6654463D01*
X8542469Y6614599D01*
X8471494Y6612826D01*
X8410828Y6649705D01*
X8379730Y6713529D01*
X8378490Y6723042D01*
X8378068Y6727644D01*
X8370081Y6814560D01*
X8363362Y6838386D01*
X8337781Y6929088D01*
X8312686Y7018069D01*
X8301649Y7040451D01*
X8221719Y7202531D01*
X8219165Y7207710D01*
X8092651Y7377133D01*
X7965236Y7494914D01*
X7941622Y7516743D01*
X7941620Y7516745D01*
X7937381Y7520663D01*
X7908696Y7538762D01*
X7763434Y7630416D01*
X7763433Y7630416D01*
X7758554Y7633495D01*
X7562160Y7711848D01*
X7556503Y7712973D01*
X7556497Y7712975D01*
X7360442Y7751972D01*
X7360440Y7751972D01*
X7354775Y7753099D01*
X7349000Y7753175D01*
X7348996Y7753175D01*
X7242976Y7754563D01*
X7143346Y7755867D01*
X7137649Y7754888D01*
X7137648Y7754888D01*
X6940650Y7721038D01*
X6940649Y7721038D01*
X6934953Y7720059D01*
X6736575Y7646873D01*
X6731614Y7643921D01*
X6731613Y7643921D01*
X6631300Y7584241D01*
X6554856Y7538762D01*
X6395881Y7399345D01*
X6264976Y7233292D01*
X6262287Y7228181D01*
X6262285Y7228178D01*
X6248792Y7202531D01*
X6166523Y7046164D01*
X6103820Y6844227D01*
X6103141Y6838490D01*
X6088806Y6717375D01*
X6060935Y6652078D01*
X6002187Y6612214D01*
X5931213Y6610440D01*
X5870546Y6647319D01*
X5839448Y6711143D01*
X5838208Y6720656D01*
X5830117Y6808715D01*
X5828020Y6820029D01*
X5773785Y7012330D01*
X5769663Y7023069D01*
X5681292Y7202267D01*
X5675282Y7212075D01*
X5555731Y7372173D01*
X5548041Y7380713D01*
X5401315Y7516346D01*
X5392190Y7523347D01*
X5223209Y7629966D01*
X5212965Y7635186D01*
X5027385Y7709225D01*
X5016347Y7712495D01*
X4861770Y7743241D01*
X4848894Y7742089D01*
X4844000Y7726936D01*
X4844000Y5481756D01*
X4544000Y5481756D01*
X4544000Y6435885D01*
X4539525Y6451124D01*
X4538135Y6452329D01*
X4530452Y6454000D01*
X3569397Y6454000D01*
X3554357Y6449584D01*
X3552305Y6438397D01*
X2460000Y6438397D01*
X2460000Y6771988D01*
X3555773Y6771988D01*
X3558215Y6757569D01*
X3570957Y6754000D01*
X4525885Y6754000D01*
X4541124Y6758475D01*
X4542329Y6759865D01*
X4544000Y6767548D01*
X4544000Y7727048D01*
X4540194Y7740010D01*
X4525279Y7741946D01*
X4400780Y7720553D01*
X4389660Y7717573D01*
X4202207Y7648418D01*
X4191829Y7643468D01*
X4020119Y7541312D01*
X4010807Y7534547D01*
X3860587Y7402806D01*
X3852670Y7394463D01*
X3728975Y7237557D01*
X3722704Y7227900D01*
X3629679Y7051088D01*
X3625273Y7040451D01*
X3566025Y6849644D01*
X3563632Y6838386D01*
X3555773Y6771988D01*
X2460000Y6771988D01*
X2460000Y10154354D01*
X16883500Y10154354D01*
X16886618Y10128154D01*
X16932061Y10025847D01*
X16940294Y10017628D01*
X16940295Y10017627D01*
X16955107Y10002841D01*
X17011287Y9946759D01*
X17021924Y9942056D01*
X17021926Y9942055D01*
X17081462Y9915735D01*
X17113673Y9901494D01*
X17139354Y9898500D01*
X18928646Y9898500D01*
X18932350Y9898941D01*
X18932353Y9898941D01*
X18939746Y9899821D01*
X18954846Y9901618D01*
X19057153Y9947061D01*
X19136241Y10026287D01*
X19181506Y10128673D01*
X19184500Y10154354D01*
X21455500Y10154354D01*
X21458618Y10128154D01*
X21504061Y10025847D01*
X21512294Y10017628D01*
X21512295Y10017627D01*
X21527107Y10002841D01*
X21583287Y9946759D01*
X21593924Y9942056D01*
X21593926Y9942055D01*
X21653462Y9915735D01*
X21685673Y9901494D01*
X21711354Y9898500D01*
X23500646Y9898500D01*
X23504350Y9898941D01*
X23504353Y9898941D01*
X23511746Y9899821D01*
X23526846Y9901618D01*
X23629153Y9947061D01*
X23708241Y10026287D01*
X23753506Y10128673D01*
X23756500Y10154354D01*
X23756500Y11943646D01*
X23753382Y11969846D01*
X23707939Y12072153D01*
X23628713Y12151241D01*
X23618076Y12155944D01*
X23618074Y12155945D01*
X23536519Y12192000D01*
X33430318Y12192000D01*
X33450956Y12035238D01*
X33511464Y11889159D01*
X33607718Y11763718D01*
X33733159Y11667464D01*
X33879238Y11606956D01*
X34036000Y11586318D01*
X34044188Y11587396D01*
X34184574Y11605878D01*
X34192762Y11606956D01*
X34338841Y11667464D01*
X34464282Y11763718D01*
X34560536Y11889159D01*
X34621044Y12035238D01*
X34641682Y12192000D01*
X36097318Y12192000D01*
X36117956Y12035238D01*
X36178464Y11889159D01*
X36274718Y11763718D01*
X36400159Y11667464D01*
X36546238Y11606956D01*
X36703000Y11586318D01*
X36711188Y11587396D01*
X36851574Y11605878D01*
X36859762Y11606956D01*
X37005841Y11667464D01*
X37131282Y11763718D01*
X37227536Y11889159D01*
X37288044Y12035238D01*
X37308682Y12192000D01*
X37288044Y12348762D01*
X37227536Y12494841D01*
X37131282Y12620282D01*
X37005841Y12716536D01*
X37000550Y12718728D01*
X36952364Y12769262D01*
X36938926Y12838975D01*
X36965312Y12904886D01*
X37000224Y12935137D01*
X37005841Y12937464D01*
X37131282Y13033718D01*
X37227536Y13159159D01*
X37288044Y13305238D01*
X37308682Y13462000D01*
X37288044Y13618762D01*
X37227536Y13764841D01*
X37131282Y13890282D01*
X37005841Y13986536D01*
X36859762Y14047044D01*
X36703000Y14067682D01*
X36546238Y14047044D01*
X36400159Y13986536D01*
X36274718Y13890282D01*
X36178464Y13764841D01*
X36117956Y13618762D01*
X36097318Y13462000D01*
X36117956Y13305238D01*
X36178464Y13159159D01*
X36274718Y13033718D01*
X36400159Y12937464D01*
X36405450Y12935272D01*
X36453636Y12884738D01*
X36467074Y12815025D01*
X36440688Y12749114D01*
X36405776Y12718863D01*
X36400159Y12716536D01*
X36274718Y12620282D01*
X36178464Y12494841D01*
X36117956Y12348762D01*
X36097318Y12192000D01*
X34641682Y12192000D01*
X34621044Y12348762D01*
X34560536Y12494841D01*
X34464282Y12620282D01*
X34338841Y12716536D01*
X34333550Y12718728D01*
X34285364Y12769262D01*
X34271926Y12838975D01*
X34298312Y12904886D01*
X34333224Y12935137D01*
X34338841Y12937464D01*
X34464282Y13033718D01*
X34560536Y13159159D01*
X34621044Y13305238D01*
X34641682Y13462000D01*
X34621044Y13618762D01*
X34560536Y13764841D01*
X34464282Y13890282D01*
X34338841Y13986536D01*
X34192762Y14047044D01*
X34036000Y14067682D01*
X33879238Y14047044D01*
X33733159Y13986536D01*
X33607718Y13890282D01*
X33511464Y13764841D01*
X33450956Y13618762D01*
X33430318Y13462000D01*
X33450956Y13305238D01*
X33511464Y13159159D01*
X33607718Y13033718D01*
X33733159Y12937464D01*
X33738450Y12935272D01*
X33786636Y12884738D01*
X33800074Y12815025D01*
X33773688Y12749114D01*
X33738776Y12718863D01*
X33733159Y12716536D01*
X33607718Y12620282D01*
X33511464Y12494841D01*
X33450956Y12348762D01*
X33430318Y12192000D01*
X23536519Y12192000D01*
X23526327Y12196506D01*
X23500646Y12199500D01*
X21711354Y12199500D01*
X21707650Y12199059D01*
X21707647Y12199059D01*
X21700254Y12198179D01*
X21685154Y12196382D01*
X21676514Y12192544D01*
X21676513Y12192544D01*
X21594117Y12155945D01*
X21582847Y12150939D01*
X21503759Y12071713D01*
X21499056Y12061076D01*
X21499055Y12061074D01*
X21478154Y12013796D01*
X21458494Y11969327D01*
X21455500Y11943646D01*
X21455500Y10154354D01*
X19184500Y10154354D01*
X19184500Y11943646D01*
X19181382Y11969846D01*
X19135939Y12072153D01*
X19056713Y12151241D01*
X19046076Y12155944D01*
X19046074Y12155945D01*
X18964519Y12192000D01*
X18954327Y12196506D01*
X18928646Y12199500D01*
X17139354Y12199500D01*
X17135650Y12199059D01*
X17135647Y12199059D01*
X17128254Y12198179D01*
X17113154Y12196382D01*
X17104514Y12192544D01*
X17104513Y12192544D01*
X17022117Y12155945D01*
X17010847Y12150939D01*
X16931759Y12071713D01*
X16927056Y12061076D01*
X16927055Y12061074D01*
X16906154Y12013796D01*
X16886494Y11969327D01*
X16883500Y11943646D01*
X16883500Y10154354D01*
X2460000Y10154354D01*
X2460000Y11049000D01*
X14380318Y11049000D01*
X14400956Y10892238D01*
X14461464Y10746159D01*
X14557718Y10620718D01*
X14683159Y10524464D01*
X14829238Y10463956D01*
X14986000Y10443318D01*
X14994188Y10444396D01*
X15134574Y10462878D01*
X15142762Y10463956D01*
X15288841Y10524464D01*
X15414282Y10620718D01*
X15510536Y10746159D01*
X15571044Y10892238D01*
X15591682Y11049000D01*
X15571044Y11205762D01*
X15510536Y11351841D01*
X15414282Y11477282D01*
X15288841Y11573536D01*
X15142762Y11634044D01*
X14986000Y11654682D01*
X14829238Y11634044D01*
X14683159Y11573536D01*
X14557718Y11477282D01*
X14461464Y11351841D01*
X14400956Y11205762D01*
X14380318Y11049000D01*
X2460000Y11049000D01*
X2460000Y12618400D01*
X4728318Y12618400D01*
X4748956Y12461638D01*
X4809464Y12315559D01*
X4814491Y12309008D01*
X4899975Y12197603D01*
X4905718Y12190118D01*
X5031159Y12093864D01*
X5177238Y12033356D01*
X5334000Y12012718D01*
X5342188Y12013796D01*
X5482574Y12032278D01*
X5490762Y12033356D01*
X5636841Y12093864D01*
X5762282Y12190118D01*
X5768026Y12197603D01*
X5853509Y12309008D01*
X5858536Y12315559D01*
X5919044Y12461638D01*
X5939682Y12618400D01*
X5919044Y12775162D01*
X5858536Y12921241D01*
X5762282Y13046682D01*
X5636841Y13142936D01*
X5490762Y13203444D01*
X5456156Y13208000D01*
X6887318Y13208000D01*
X6907956Y13051238D01*
X6968464Y12905159D01*
X7064718Y12779718D01*
X7071264Y12774695D01*
X7081326Y12766974D01*
X7190159Y12683464D01*
X7336238Y12622956D01*
X7493000Y12602318D01*
X7501188Y12603396D01*
X7641574Y12621878D01*
X7649762Y12622956D01*
X7795841Y12683464D01*
X7904674Y12766974D01*
X7914736Y12774695D01*
X7921282Y12779718D01*
X8017536Y12905159D01*
X8078044Y13051238D01*
X8098682Y13208000D01*
X8078044Y13364762D01*
X8017536Y13510841D01*
X7921282Y13636282D01*
X7795841Y13732536D01*
X7649762Y13793044D01*
X7493000Y13813682D01*
X7336238Y13793044D01*
X7190159Y13732536D01*
X7064718Y13636282D01*
X6968464Y13510841D01*
X6907956Y13364762D01*
X6887318Y13208000D01*
X5456156Y13208000D01*
X5334000Y13224082D01*
X5177238Y13203444D01*
X5031159Y13142936D01*
X4905718Y13046682D01*
X4809464Y12921241D01*
X4748956Y12775162D01*
X4728318Y12618400D01*
X2460000Y12618400D01*
X2460000Y14856397D01*
X22254318Y14856397D01*
X22274956Y14699635D01*
X22335464Y14553556D01*
X22431718Y14428115D01*
X22557159Y14331861D01*
X22703238Y14271353D01*
X22860000Y14250715D01*
X22868188Y14251793D01*
X23008574Y14270275D01*
X23016762Y14271353D01*
X23162841Y14331861D01*
X23288282Y14428115D01*
X23384536Y14553556D01*
X23445044Y14699635D01*
X23465682Y14856397D01*
X23445044Y15013159D01*
X23384536Y15159238D01*
X23379507Y15165792D01*
X23375380Y15172940D01*
X23377677Y15174266D01*
X23356820Y15228207D01*
X23371081Y15297757D01*
X23375385Y15304454D01*
X23375380Y15304457D01*
X23379506Y15311604D01*
X23384536Y15318159D01*
X23445044Y15464238D01*
X23465682Y15621000D01*
X23445044Y15777762D01*
X23384536Y15923841D01*
X23288282Y16049282D01*
X23162841Y16145536D01*
X23016762Y16206044D01*
X22860000Y16226682D01*
X22703238Y16206044D01*
X22557159Y16145536D01*
X22431718Y16049282D01*
X22335464Y15923841D01*
X22274956Y15777762D01*
X22254318Y15621000D01*
X22274956Y15464238D01*
X22335464Y15318159D01*
X22340494Y15311604D01*
X22344620Y15304457D01*
X22342325Y15303132D01*
X22363181Y15249173D01*
X22348911Y15179626D01*
X22344616Y15172943D01*
X22344620Y15172940D01*
X22340493Y15165792D01*
X22335464Y15159238D01*
X22274956Y15013159D01*
X22254318Y14856397D01*
X2460000Y14856397D01*
X2460000Y16510000D01*
X4728318Y16510000D01*
X4748956Y16353238D01*
X4809464Y16207159D01*
X4905718Y16081718D01*
X5031159Y15985464D01*
X5177238Y15924956D01*
X5334000Y15904318D01*
X5342188Y15905396D01*
X5482574Y15923878D01*
X5490762Y15924956D01*
X5636841Y15985464D01*
X5762282Y16081718D01*
X5858536Y16207159D01*
X5860728Y16212450D01*
X5911262Y16260636D01*
X5980975Y16274074D01*
X6046886Y16247688D01*
X6077137Y16212776D01*
X6079464Y16207159D01*
X6175718Y16081718D01*
X6301159Y15985464D01*
X6447238Y15924956D01*
X6604000Y15904318D01*
X6612188Y15905396D01*
X6752574Y15923878D01*
X6760762Y15924956D01*
X6906841Y15985464D01*
X7032282Y16081718D01*
X7047078Y16101000D01*
X18670318Y16101000D01*
X18690956Y15944238D01*
X18751464Y15798159D01*
X18847718Y15672718D01*
X18973159Y15576464D01*
X19119238Y15515956D01*
X19276000Y15495318D01*
X19284188Y15496396D01*
X19424574Y15514878D01*
X19432762Y15515956D01*
X19578841Y15576464D01*
X19585391Y15581490D01*
X19585398Y15581494D01*
X19612934Y15602624D01*
X19679154Y15628226D01*
X19752639Y15611782D01*
X19756610Y15609490D01*
X19763159Y15604464D01*
X19770785Y15601305D01*
X19770787Y15601304D01*
X19901609Y15547116D01*
X19909238Y15543956D01*
X20066000Y15523318D01*
X20074188Y15524396D01*
X20214574Y15542878D01*
X20222762Y15543956D01*
X20368841Y15604464D01*
X20494282Y15700718D01*
X20590536Y15826159D01*
X20651044Y15972238D01*
X20671682Y16129000D01*
X20651044Y16285762D01*
X20590536Y16431841D01*
X20494282Y16557282D01*
X20368841Y16653536D01*
X20222762Y16714044D01*
X20066000Y16734682D01*
X19909238Y16714044D01*
X19763159Y16653536D01*
X19756609Y16648510D01*
X19756602Y16648506D01*
X19729066Y16627376D01*
X19662846Y16601774D01*
X19589361Y16618218D01*
X19585390Y16620510D01*
X19578841Y16625536D01*
X19571215Y16628695D01*
X19571213Y16628696D01*
X19440391Y16682884D01*
X19432762Y16686044D01*
X19276000Y16706682D01*
X19119238Y16686044D01*
X18973159Y16625536D01*
X18847718Y16529282D01*
X18751464Y16403841D01*
X18690956Y16257762D01*
X18670318Y16101000D01*
X7047078Y16101000D01*
X7128536Y16207159D01*
X7189044Y16353238D01*
X7209682Y16510000D01*
X7189044Y16666762D01*
X7128536Y16812841D01*
X7032282Y16938282D01*
X6906841Y17034536D01*
X6760762Y17095044D01*
X6604000Y17115682D01*
X6447238Y17095044D01*
X6301159Y17034536D01*
X6175718Y16938282D01*
X6079464Y16812841D01*
X6077272Y16807550D01*
X6026738Y16759364D01*
X5957025Y16745926D01*
X5891114Y16772312D01*
X5860863Y16807224D01*
X5858536Y16812841D01*
X5762282Y16938282D01*
X5636841Y17034536D01*
X5497891Y17092091D01*
X5442610Y17136639D01*
X5420189Y17204003D01*
X5437747Y17272794D01*
X5489709Y17321172D01*
X5497891Y17324909D01*
X5636841Y17382464D01*
X5762282Y17478718D01*
X5858536Y17604159D01*
X5919044Y17750238D01*
X5939682Y17907000D01*
X5919044Y18063762D01*
X5878767Y18161000D01*
X32160318Y18161000D01*
X32180956Y18004238D01*
X32241464Y17858159D01*
X32337718Y17732718D01*
X32463159Y17636464D01*
X32609238Y17575956D01*
X32766000Y17555318D01*
X32774188Y17556396D01*
X32914574Y17574878D01*
X32922762Y17575956D01*
X33068841Y17636464D01*
X33194282Y17732718D01*
X33290536Y17858159D01*
X33351044Y18004238D01*
X33371682Y18161000D01*
X33351044Y18317762D01*
X33290536Y18463841D01*
X33194282Y18589282D01*
X33068841Y18685536D01*
X32922762Y18746044D01*
X32766000Y18766682D01*
X32609238Y18746044D01*
X32463159Y18685536D01*
X32337718Y18589282D01*
X32241464Y18463841D01*
X32180956Y18317762D01*
X32160318Y18161000D01*
X5878767Y18161000D01*
X5858536Y18209841D01*
X5762282Y18335282D01*
X5636841Y18431536D01*
X5490762Y18492044D01*
X5334000Y18512682D01*
X5177238Y18492044D01*
X5031159Y18431536D01*
X4905718Y18335282D01*
X4809464Y18209841D01*
X4748956Y18063762D01*
X4728318Y17907000D01*
X4748956Y17750238D01*
X4809464Y17604159D01*
X4905718Y17478718D01*
X5031159Y17382464D01*
X5170109Y17324909D01*
X5225390Y17280361D01*
X5247811Y17212997D01*
X5230253Y17144206D01*
X5178291Y17095828D01*
X5170111Y17092092D01*
X5031159Y17034536D01*
X4905718Y16938282D01*
X4809464Y16812841D01*
X4748956Y16666762D01*
X4728318Y16510000D01*
X2460000Y16510000D01*
X2460000Y19182592D01*
X8342983Y19182592D01*
X8361649Y19004989D01*
X8419200Y18835935D01*
X8512774Y18683832D01*
X8637721Y18556241D01*
X8787831Y18459502D01*
X8794451Y18457092D01*
X8794454Y18457091D01*
X8878477Y18426509D01*
X8955642Y18398423D01*
X8962630Y18397540D01*
X8962631Y18397540D01*
X8975859Y18395869D01*
X9093561Y18381000D01*
X9188907Y18381000D01*
X9265068Y18389543D01*
X9314473Y18395084D01*
X9314475Y18395085D01*
X9321469Y18395869D01*
X9490117Y18454599D01*
X9641562Y18549233D01*
X9653687Y18561273D01*
X9763276Y18670099D01*
X9768279Y18675067D01*
X9863967Y18825848D01*
X9923873Y18994083D01*
X9945017Y19171408D01*
X9926351Y19349011D01*
X9904952Y19411869D01*
X9871070Y19511398D01*
X9871069Y19511401D01*
X9868800Y19518065D01*
X9775226Y19670168D01*
X9650279Y19797759D01*
X9500169Y19894498D01*
X9493549Y19896908D01*
X9493546Y19896909D01*
X9338977Y19953168D01*
X9338976Y19953168D01*
X9332358Y19955577D01*
X9325370Y19956460D01*
X9325369Y19956460D01*
X9301223Y19959510D01*
X9194439Y19973000D01*
X9099093Y19973000D01*
X9022932Y19964457D01*
X8973527Y19958916D01*
X8973525Y19958915D01*
X8966531Y19958131D01*
X8797883Y19899401D01*
X8646438Y19804767D01*
X8641435Y19799799D01*
X8641434Y19799798D01*
X8584594Y19743354D01*
X8519721Y19678933D01*
X8424033Y19528152D01*
X8364127Y19359917D01*
X8342983Y19182592D01*
X2460000Y19182592D01*
X2460000Y20198592D01*
X3262983Y20198592D01*
X3281649Y20020989D01*
X3283919Y20014321D01*
X3323890Y19896909D01*
X3339200Y19851935D01*
X3432774Y19699832D01*
X3557721Y19572241D01*
X3707831Y19475502D01*
X3714451Y19473092D01*
X3714454Y19473091D01*
X3869023Y19416832D01*
X3875642Y19414423D01*
X3882630Y19413540D01*
X3882631Y19413540D01*
X3895859Y19411869D01*
X4013561Y19397000D01*
X4108907Y19397000D01*
X4185068Y19405543D01*
X4234473Y19411084D01*
X4234475Y19411085D01*
X4241469Y19411869D01*
X4410117Y19470599D01*
X4561562Y19565233D01*
X4573687Y19577273D01*
X4672302Y19675201D01*
X4688279Y19691067D01*
X4783967Y19841848D01*
X4843873Y20010083D01*
X4855280Y20105751D01*
X36859297Y20105751D01*
X36879935Y19948989D01*
X36940443Y19802910D01*
X37036697Y19677469D01*
X37162138Y19581215D01*
X37308217Y19520707D01*
X37464979Y19500069D01*
X37473167Y19501147D01*
X37613553Y19519629D01*
X37621741Y19520707D01*
X37767820Y19581215D01*
X37893261Y19677469D01*
X37989515Y19802910D01*
X38050023Y19948989D01*
X38070661Y20105751D01*
X38050023Y20262513D01*
X37989515Y20408592D01*
X37893261Y20534033D01*
X37767820Y20630287D01*
X37621741Y20690795D01*
X37464979Y20711433D01*
X37308217Y20690795D01*
X37162138Y20630287D01*
X37036697Y20534033D01*
X36940443Y20408592D01*
X36879935Y20262513D01*
X36859297Y20105751D01*
X4855280Y20105751D01*
X4865017Y20187408D01*
X4864178Y20195396D01*
X4847087Y20358005D01*
X4846351Y20365011D01*
X4824952Y20427869D01*
X4791070Y20527398D01*
X4791069Y20527401D01*
X4788800Y20534065D01*
X4695226Y20686168D01*
X4570279Y20813759D01*
X4420169Y20910498D01*
X4413549Y20912908D01*
X4413546Y20912909D01*
X4258977Y20969168D01*
X4258976Y20969168D01*
X4252358Y20971577D01*
X4245370Y20972460D01*
X4245369Y20972460D01*
X4221223Y20975510D01*
X4114439Y20989000D01*
X4019093Y20989000D01*
X3942932Y20980457D01*
X3893527Y20974916D01*
X3893525Y20974915D01*
X3886531Y20974131D01*
X3717883Y20915401D01*
X3566438Y20820767D01*
X3561435Y20815799D01*
X3561434Y20815798D01*
X3553771Y20808188D01*
X3439721Y20694933D01*
X3344033Y20544152D01*
X3284127Y20375917D01*
X3262983Y20198592D01*
X2460000Y20198592D01*
X2460000Y21214592D01*
X8342983Y21214592D01*
X8361649Y21036989D01*
X8363919Y21030321D01*
X8403890Y20912909D01*
X8419200Y20867935D01*
X8512774Y20715832D01*
X8637721Y20588241D01*
X8787831Y20491502D01*
X8794451Y20489092D01*
X8794454Y20489091D01*
X8949023Y20432832D01*
X8955642Y20430423D01*
X8962630Y20429540D01*
X8962631Y20429540D01*
X8975859Y20427869D01*
X9093561Y20413000D01*
X9188907Y20413000D01*
X9265068Y20421543D01*
X9314473Y20427084D01*
X9314475Y20427085D01*
X9321469Y20427869D01*
X9490117Y20486599D01*
X9641562Y20581233D01*
X9653687Y20593273D01*
X9763276Y20702099D01*
X9768279Y20707067D01*
X9827256Y20800000D01*
X34507918Y20800000D01*
X34528556Y20643238D01*
X34589064Y20497159D01*
X34685318Y20371718D01*
X34810759Y20275464D01*
X34956838Y20214956D01*
X35113600Y20194318D01*
X35121788Y20195396D01*
X35262174Y20213878D01*
X35270362Y20214956D01*
X35416441Y20275464D01*
X35541882Y20371718D01*
X35638136Y20497159D01*
X35698644Y20643238D01*
X35719282Y20800000D01*
X35698644Y20956762D01*
X35638136Y21102841D01*
X35541882Y21228282D01*
X35416441Y21324536D01*
X35270362Y21385044D01*
X35113600Y21405682D01*
X34956838Y21385044D01*
X34810759Y21324536D01*
X34685318Y21228282D01*
X34589064Y21102841D01*
X34528556Y20956762D01*
X34507918Y20800000D01*
X9827256Y20800000D01*
X9863967Y20857848D01*
X9923873Y21026083D01*
X9945017Y21203408D01*
X9926351Y21381011D01*
X9888017Y21493615D01*
X9871070Y21543398D01*
X9871069Y21543401D01*
X9868800Y21550065D01*
X9775226Y21702168D01*
X9650279Y21829759D01*
X9500169Y21926498D01*
X9493549Y21928908D01*
X9493546Y21928909D01*
X9338977Y21985168D01*
X9338976Y21985168D01*
X9332358Y21987577D01*
X9325370Y21988460D01*
X9325369Y21988460D01*
X9301223Y21991510D01*
X9194439Y22005000D01*
X9099093Y22005000D01*
X9022932Y21996457D01*
X8973527Y21990916D01*
X8973525Y21990915D01*
X8966531Y21990131D01*
X8797883Y21931401D01*
X8646438Y21836767D01*
X8641435Y21831799D01*
X8641434Y21831798D01*
X8592745Y21783448D01*
X8519721Y21710933D01*
X8424033Y21560152D01*
X8364127Y21391917D01*
X8342983Y21214592D01*
X2460000Y21214592D01*
X2460000Y22078659D01*
X6470478Y22078659D01*
X6491116Y21921897D01*
X6551624Y21775818D01*
X6647878Y21650377D01*
X6773319Y21554123D01*
X6919398Y21493615D01*
X7076160Y21472977D01*
X7084348Y21474055D01*
X7224734Y21492537D01*
X7232922Y21493615D01*
X7379001Y21554123D01*
X7504442Y21650377D01*
X7600696Y21775818D01*
X7661204Y21921897D01*
X7681842Y22078659D01*
X7661204Y22235421D01*
X7600696Y22381500D01*
X7504442Y22506941D01*
X7379001Y22603195D01*
X7232922Y22663703D01*
X7076160Y22684341D01*
X6919398Y22663703D01*
X6773319Y22603195D01*
X6647878Y22506941D01*
X6551624Y22381500D01*
X6491116Y22235421D01*
X6470478Y22078659D01*
X2460000Y22078659D01*
X2460000Y23749000D01*
X7014318Y23749000D01*
X7034956Y23592238D01*
X7095464Y23446159D01*
X7191718Y23320718D01*
X7317159Y23224464D01*
X7463238Y23163956D01*
X7471426Y23162878D01*
X7483549Y23161282D01*
X7620000Y23143318D01*
X7628188Y23144396D01*
X7768576Y23162878D01*
X7768578Y23162879D01*
X7776762Y23163956D01*
X7777858Y23164410D01*
X7845560Y23162797D01*
X7904356Y23123002D01*
X7932302Y23057737D01*
X7932115Y23026339D01*
X7926936Y22987000D01*
X7947574Y22830238D01*
X8008082Y22684159D01*
X8104336Y22558718D01*
X8229777Y22462464D01*
X8375856Y22401956D01*
X8532618Y22381318D01*
X8540806Y22382396D01*
X8681192Y22400878D01*
X8689380Y22401956D01*
X8835459Y22462464D01*
X8960900Y22558718D01*
X8997181Y22606000D01*
X16158318Y22606000D01*
X16178956Y22449238D01*
X16239464Y22303159D01*
X16335718Y22177718D01*
X16461159Y22081464D01*
X16607238Y22020956D01*
X16764000Y22000318D01*
X16772188Y22001396D01*
X16799564Y22005000D01*
X16920762Y22020956D01*
X17066841Y22081464D01*
X17192282Y22177718D01*
X17288536Y22303159D01*
X17349044Y22449238D01*
X17363705Y22560600D01*
X22762318Y22560600D01*
X22782956Y22403838D01*
X22843464Y22257759D01*
X22939718Y22132318D01*
X23065159Y22036064D01*
X23211238Y21975556D01*
X23368000Y21954918D01*
X23376188Y21955996D01*
X23516574Y21974478D01*
X23524762Y21975556D01*
X23670841Y22036064D01*
X23796282Y22132318D01*
X23892536Y22257759D01*
X23953044Y22403838D01*
X23973682Y22560600D01*
X23957114Y22686447D01*
X23968053Y22756596D01*
X24015181Y22809694D01*
X24083535Y22828884D01*
X24098473Y22827816D01*
X24251131Y22807718D01*
X24259319Y22808796D01*
X24399705Y22827278D01*
X24407893Y22828356D01*
X24512906Y22871854D01*
X24583496Y22879443D01*
X24646983Y22847664D01*
X24683210Y22786606D01*
X24680676Y22715654D01*
X24677533Y22707228D01*
X24672572Y22695251D01*
X24672571Y22695247D01*
X24669411Y22687618D01*
X24648773Y22530856D01*
X24649851Y22522668D01*
X24666500Y22396209D01*
X24669411Y22374094D01*
X24729919Y22228015D01*
X24826173Y22102574D01*
X24951614Y22006320D01*
X25097693Y21945812D01*
X25254455Y21925174D01*
X25262643Y21926252D01*
X25403029Y21944734D01*
X25411217Y21945812D01*
X25557296Y22006320D01*
X25682737Y22102574D01*
X25778991Y22228015D01*
X25839499Y22374094D01*
X25842411Y22396209D01*
X25859059Y22522668D01*
X25860137Y22530856D01*
X25839499Y22687618D01*
X25820701Y22733000D01*
X26572318Y22733000D01*
X26592956Y22576238D01*
X26653464Y22430159D01*
X26749718Y22304718D01*
X26875159Y22208464D01*
X27021238Y22147956D01*
X27178000Y22127318D01*
X27186188Y22128396D01*
X27326574Y22146878D01*
X27334762Y22147956D01*
X27480841Y22208464D01*
X27606282Y22304718D01*
X27702536Y22430159D01*
X27763044Y22576238D01*
X27783682Y22733000D01*
X27763044Y22889762D01*
X27702536Y23035841D01*
X27606282Y23161282D01*
X27480841Y23257536D01*
X27334762Y23318044D01*
X27178000Y23338682D01*
X27021238Y23318044D01*
X26875159Y23257536D01*
X26749718Y23161282D01*
X26653464Y23035841D01*
X26592956Y22889762D01*
X26572318Y22733000D01*
X25820701Y22733000D01*
X25778991Y22833697D01*
X25682737Y22959138D01*
X25557296Y23055392D01*
X25411217Y23115900D01*
X25254455Y23136538D01*
X25097693Y23115900D01*
X25090064Y23112740D01*
X24992680Y23072402D01*
X24922090Y23064813D01*
X24858603Y23096592D01*
X24822376Y23157650D01*
X24824910Y23228602D01*
X24828053Y23237028D01*
X24833014Y23249005D01*
X24833015Y23249010D01*
X24836175Y23256638D01*
X24856813Y23413400D01*
X24836175Y23570162D01*
X24775667Y23716241D01*
X24707250Y23805404D01*
X24681650Y23871625D01*
X24695915Y23941173D01*
X24745516Y23991969D01*
X24778933Y24003092D01*
X24778598Y24004341D01*
X24786574Y24006478D01*
X24794762Y24007556D01*
X24940841Y24068064D01*
X25066282Y24164318D01*
X25162536Y24289759D01*
X25223044Y24435838D01*
X25243682Y24592600D01*
X25223044Y24749362D01*
X25203848Y24795706D01*
X34915007Y24795706D01*
X34935645Y24638944D01*
X34996153Y24492865D01*
X35092407Y24367424D01*
X35217848Y24271170D01*
X35363927Y24210662D01*
X35520689Y24190024D01*
X35528877Y24191102D01*
X35669263Y24209584D01*
X35677451Y24210662D01*
X35823530Y24271170D01*
X35948971Y24367424D01*
X35961690Y24384000D01*
X39780318Y24384000D01*
X39800956Y24227238D01*
X39861464Y24081159D01*
X39957718Y23955718D01*
X40083159Y23859464D01*
X40229238Y23798956D01*
X40386000Y23778318D01*
X40394188Y23779396D01*
X40534574Y23797878D01*
X40542762Y23798956D01*
X40688841Y23859464D01*
X40814282Y23955718D01*
X40910536Y24081159D01*
X40971044Y24227238D01*
X40991682Y24384000D01*
X40971044Y24540762D01*
X40910536Y24686841D01*
X40837722Y24781734D01*
X40819305Y24805736D01*
X40814282Y24812282D01*
X40688841Y24908536D01*
X40542762Y24969044D01*
X40386000Y24989682D01*
X40229238Y24969044D01*
X40083159Y24908536D01*
X39957718Y24812282D01*
X39952695Y24805736D01*
X39934278Y24781734D01*
X39861464Y24686841D01*
X39800956Y24540762D01*
X39780318Y24384000D01*
X35961690Y24384000D01*
X36045225Y24492865D01*
X36105733Y24638944D01*
X36109398Y24666783D01*
X36138120Y24731711D01*
X36197385Y24770803D01*
X36217871Y24775259D01*
X36267051Y24781734D01*
X36413130Y24842242D01*
X36426131Y24852218D01*
X36492350Y24877821D01*
X36565673Y24861414D01*
X36571915Y24856624D01*
X36579541Y24853465D01*
X36579543Y24853464D01*
X36666839Y24817305D01*
X36717994Y24796116D01*
X36874756Y24775478D01*
X36882944Y24776556D01*
X37023330Y24795038D01*
X37031518Y24796116D01*
X37177597Y24856624D01*
X37303038Y24952878D01*
X37399292Y25078319D01*
X37459800Y25224398D01*
X37480438Y25381160D01*
X37459800Y25537922D01*
X37399292Y25684001D01*
X37303038Y25809442D01*
X37177597Y25905696D01*
X37031518Y25966204D01*
X36874756Y25986842D01*
X36717994Y25966204D01*
X36571915Y25905696D01*
X36565364Y25900669D01*
X36565362Y25900668D01*
X36558914Y25895720D01*
X36492695Y25870117D01*
X36419372Y25886524D01*
X36413130Y25891314D01*
X36405504Y25894473D01*
X36405502Y25894474D01*
X36274680Y25948662D01*
X36267051Y25951822D01*
X36110289Y25972460D01*
X35953527Y25951822D01*
X35807448Y25891314D01*
X35682007Y25795060D01*
X35585753Y25669619D01*
X35525245Y25523540D01*
X35521580Y25495701D01*
X35492858Y25430773D01*
X35433593Y25391681D01*
X35413107Y25387225D01*
X35363927Y25380750D01*
X35217848Y25320242D01*
X35092407Y25223988D01*
X34996153Y25098547D01*
X34935645Y24952468D01*
X34915007Y24795706D01*
X25203848Y24795706D01*
X25162536Y24895441D01*
X25066282Y25020882D01*
X24940841Y25117136D01*
X24794762Y25177644D01*
X24638000Y25198282D01*
X24481238Y25177644D01*
X24335159Y25117136D01*
X24209718Y25020882D01*
X24113464Y24895441D01*
X24052956Y24749362D01*
X24032318Y24592600D01*
X24052956Y24435838D01*
X24113464Y24289759D01*
X24127728Y24271170D01*
X24181881Y24200596D01*
X24207481Y24134375D01*
X24193216Y24064827D01*
X24143615Y24014031D01*
X24110198Y24002908D01*
X24110533Y24001659D01*
X24102557Y23999522D01*
X24094369Y23998444D01*
X23948290Y23937936D01*
X23822849Y23841682D01*
X23726595Y23716241D01*
X23666087Y23570162D01*
X23645449Y23413400D01*
X23646527Y23405212D01*
X23662017Y23287553D01*
X23651078Y23217404D01*
X23603950Y23164306D01*
X23535596Y23145116D01*
X23520658Y23146184D01*
X23368000Y23166282D01*
X23211238Y23145644D01*
X23065159Y23085136D01*
X23009454Y23042392D01*
X22947934Y22995186D01*
X22939718Y22988882D01*
X22843464Y22863441D01*
X22782956Y22717362D01*
X22781878Y22709174D01*
X22779589Y22691789D01*
X22762318Y22560600D01*
X17363705Y22560600D01*
X17369682Y22606000D01*
X17349044Y22762762D01*
X17288536Y22908841D01*
X17220059Y22998082D01*
X17197305Y23027736D01*
X17192282Y23034282D01*
X17066841Y23130536D01*
X16920762Y23191044D01*
X16764000Y23211682D01*
X16607238Y23191044D01*
X16461159Y23130536D01*
X16335718Y23034282D01*
X16330695Y23027736D01*
X16307941Y22998082D01*
X16239464Y22908841D01*
X16178956Y22762762D01*
X16158318Y22606000D01*
X8997181Y22606000D01*
X9057154Y22684159D01*
X9117662Y22830238D01*
X9138300Y22987000D01*
X9117662Y23143762D01*
X9057154Y23289841D01*
X8960900Y23415282D01*
X8835459Y23511536D01*
X8689380Y23572044D01*
X8680577Y23573203D01*
X8540806Y23591604D01*
X8532618Y23592682D01*
X8524430Y23591604D01*
X8384042Y23573122D01*
X8384040Y23573121D01*
X8375856Y23572044D01*
X8374760Y23571590D01*
X8307058Y23573203D01*
X8248262Y23612998D01*
X8220316Y23678263D01*
X8220503Y23709661D01*
X8225682Y23749000D01*
X8205044Y23905762D01*
X8144536Y24051841D01*
X8048282Y24177282D01*
X7922841Y24273536D01*
X7776762Y24334044D01*
X7620000Y24354682D01*
X7463238Y24334044D01*
X7317159Y24273536D01*
X7191718Y24177282D01*
X7095464Y24051841D01*
X7034956Y23905762D01*
X7014318Y23749000D01*
X2460000Y23749000D01*
X2460000Y25019000D01*
X16920318Y25019000D01*
X16940956Y24862238D01*
X17001464Y24716159D01*
X17097718Y24590718D01*
X17223159Y24494464D01*
X17369238Y24433956D01*
X17526000Y24413318D01*
X17534188Y24414396D01*
X17674574Y24432878D01*
X17682762Y24433956D01*
X17828841Y24494464D01*
X17954282Y24590718D01*
X18050536Y24716159D01*
X18111044Y24862238D01*
X18131682Y25019000D01*
X18111044Y25175762D01*
X18050536Y25321841D01*
X17954282Y25447282D01*
X17944507Y25454783D01*
X17891181Y25495701D01*
X17828841Y25543536D01*
X17682762Y25604044D01*
X17526000Y25624682D01*
X17369238Y25604044D01*
X17223159Y25543536D01*
X17160819Y25495701D01*
X17107494Y25454783D01*
X17097718Y25447282D01*
X17001464Y25321841D01*
X16940956Y25175762D01*
X16920318Y25019000D01*
X2460000Y25019000D01*
X2460000Y26035000D01*
X14126318Y26035000D01*
X14127396Y26026812D01*
X14145235Y25891314D01*
X14146956Y25878238D01*
X14150116Y25870609D01*
X14153048Y25863531D01*
X14207464Y25732159D01*
X14303718Y25606718D01*
X14429159Y25510464D01*
X14575238Y25449956D01*
X14732000Y25429318D01*
X14740188Y25430396D01*
X14880574Y25448878D01*
X14888762Y25449956D01*
X15034841Y25510464D01*
X15160282Y25606718D01*
X15256536Y25732159D01*
X15310952Y25863531D01*
X15313884Y25870609D01*
X15317044Y25878238D01*
X15318766Y25891314D01*
X15336604Y26026812D01*
X15337682Y26035000D01*
X15321977Y26154292D01*
X15318122Y26183574D01*
X15317044Y26191762D01*
X15256536Y26337841D01*
X15160282Y26463282D01*
X15034841Y26559536D01*
X14888762Y26620044D01*
X14732000Y26640682D01*
X14575238Y26620044D01*
X14429159Y26559536D01*
X14303718Y26463282D01*
X14207464Y26337841D01*
X14146956Y26191762D01*
X14145878Y26183574D01*
X14142023Y26154292D01*
X14126318Y26035000D01*
X2460000Y26035000D01*
X2460000Y27686000D01*
X19841318Y27686000D01*
X19861956Y27529238D01*
X19922464Y27383159D01*
X20018718Y27257718D01*
X20144159Y27161464D01*
X20290238Y27100956D01*
X20447000Y27080318D01*
X20455188Y27081396D01*
X20595574Y27099878D01*
X20603762Y27100956D01*
X20749841Y27161464D01*
X20825205Y27219293D01*
X31425244Y27219293D01*
X31445882Y27062531D01*
X31506390Y26916452D01*
X31556273Y26851443D01*
X31557889Y26849337D01*
X31583489Y26783116D01*
X31574335Y26724415D01*
X31528556Y26613895D01*
X31507918Y26457133D01*
X31508996Y26448945D01*
X31524628Y26330211D01*
X31528556Y26300371D01*
X31589064Y26154292D01*
X31685318Y26028851D01*
X31810759Y25932597D01*
X31922561Y25886287D01*
X31956838Y25872089D01*
X31955489Y25868831D01*
X32002266Y25840269D01*
X32033888Y25772033D01*
X32039247Y25731326D01*
X32099755Y25585247D01*
X32196009Y25459806D01*
X32202555Y25454783D01*
X32208846Y25449956D01*
X32321450Y25363552D01*
X32467529Y25303044D01*
X32624291Y25282406D01*
X32632479Y25283484D01*
X32772865Y25301966D01*
X32781053Y25303044D01*
X32793047Y25308012D01*
X32863637Y25315600D01*
X32927123Y25283819D01*
X32941225Y25268306D01*
X32954978Y25250382D01*
X32954981Y25250379D01*
X32960007Y25243829D01*
X33085448Y25147575D01*
X33231527Y25087067D01*
X33388289Y25066429D01*
X33396477Y25067507D01*
X33536863Y25085989D01*
X33545051Y25087067D01*
X33691130Y25147575D01*
X33816571Y25243829D01*
X33912825Y25369270D01*
X33973333Y25515349D01*
X33993971Y25672111D01*
X33973333Y25828873D01*
X33912825Y25974952D01*
X33816571Y26100393D01*
X33691130Y26196647D01*
X33545051Y26257155D01*
X33388289Y26277793D01*
X33231527Y26257155D01*
X33223898Y26253995D01*
X33219533Y26252187D01*
X33148943Y26244599D01*
X33085457Y26276380D01*
X33071355Y26291893D01*
X33057602Y26309817D01*
X33057599Y26309820D01*
X33052573Y26316370D01*
X33024592Y26337841D01*
X32933683Y26407597D01*
X32927132Y26412624D01*
X32781053Y26473132D01*
X32782402Y26476390D01*
X32735625Y26504952D01*
X32704003Y26573188D01*
X32699722Y26605707D01*
X32698644Y26613895D01*
X32638136Y26759974D01*
X32586637Y26827089D01*
X32561037Y26893310D01*
X32570191Y26952011D01*
X32612810Y27054902D01*
X32615970Y27062531D01*
X32636608Y27219293D01*
X32615970Y27376055D01*
X32555462Y27522134D01*
X32459208Y27647575D01*
X32333767Y27743829D01*
X32187688Y27804337D01*
X32030926Y27824975D01*
X31874164Y27804337D01*
X31728085Y27743829D01*
X31602644Y27647575D01*
X31506390Y27522134D01*
X31445882Y27376055D01*
X31425244Y27219293D01*
X20825205Y27219293D01*
X20875282Y27257718D01*
X20971536Y27383159D01*
X21032044Y27529238D01*
X21052682Y27686000D01*
X21032044Y27842762D01*
X20971536Y27988841D01*
X20875282Y28114282D01*
X20852983Y28131393D01*
X20756392Y28205509D01*
X20749841Y28210536D01*
X20603762Y28271044D01*
X20447000Y28291682D01*
X20290238Y28271044D01*
X20144159Y28210536D01*
X20137608Y28205509D01*
X20041018Y28131393D01*
X20018718Y28114282D01*
X19922464Y27988841D01*
X19861956Y27842762D01*
X19841318Y27686000D01*
X2460000Y27686000D01*
X2460000Y29056772D01*
X2480002Y29124893D01*
X2533658Y29171386D01*
X2603932Y29181490D01*
X2668512Y29151996D01*
X2685962Y29133476D01*
X2766691Y29028268D01*
X2766695Y29028264D01*
X2771718Y29021718D01*
X2897159Y28925464D01*
X3043238Y28864956D01*
X3200000Y28844318D01*
X3208188Y28845396D01*
X3348574Y28863878D01*
X3356762Y28864956D01*
X3502841Y28925464D01*
X3628282Y29021718D01*
X3724536Y29147159D01*
X3785044Y29293238D01*
X3805682Y29450000D01*
X3800559Y29488910D01*
X6105512Y29488910D01*
X6126150Y29332148D01*
X6186658Y29186069D01*
X6282912Y29060628D01*
X6289458Y29055605D01*
X6300465Y29047159D01*
X6408353Y28964374D01*
X6554432Y28903866D01*
X6711194Y28883228D01*
X6719382Y28884306D01*
X6859768Y28902788D01*
X6867956Y28903866D01*
X7014035Y28964374D01*
X7052796Y28994116D01*
X24770687Y28994116D01*
X24791325Y28837354D01*
X24851833Y28691275D01*
X24948087Y28565834D01*
X25073528Y28469580D01*
X25219607Y28409072D01*
X25227795Y28407994D01*
X25235771Y28405857D01*
X25235362Y28404329D01*
X25291699Y28379404D01*
X25330788Y28320138D01*
X25331631Y28249146D01*
X25310284Y28206503D01*
X25257681Y28137949D01*
X25257679Y28137946D01*
X25252651Y28131393D01*
X25192143Y27985314D01*
X25171505Y27828552D01*
X25192143Y27671790D01*
X25252651Y27525711D01*
X25348905Y27400270D01*
X25355451Y27395247D01*
X25379742Y27376608D01*
X25474346Y27304016D01*
X25620425Y27243508D01*
X25777187Y27222870D01*
X25785375Y27223948D01*
X25925761Y27242430D01*
X25933949Y27243508D01*
X26080028Y27304016D01*
X26174632Y27376608D01*
X26198923Y27395247D01*
X26205469Y27400270D01*
X26301723Y27525711D01*
X26362231Y27671790D01*
X26382869Y27828552D01*
X26375342Y27885724D01*
X35507918Y27885724D01*
X35528556Y27728962D01*
X35589064Y27582883D01*
X35685318Y27457442D01*
X35810759Y27361188D01*
X35956838Y27300680D01*
X36113600Y27280042D01*
X36121788Y27281120D01*
X36262174Y27299602D01*
X36270362Y27300680D01*
X36416441Y27361188D01*
X36541882Y27457442D01*
X36638136Y27582883D01*
X36698644Y27728962D01*
X36719282Y27885724D01*
X36698644Y28042486D01*
X36638136Y28188565D01*
X36633107Y28195119D01*
X36628980Y28202267D01*
X36631277Y28203593D01*
X36610420Y28257534D01*
X36624681Y28327084D01*
X36628985Y28333781D01*
X36628980Y28333784D01*
X36633106Y28340931D01*
X36638136Y28347486D01*
X36698644Y28493565D01*
X36719282Y28650327D01*
X36698644Y28807089D01*
X36638136Y28953168D01*
X36633107Y28959722D01*
X36628980Y28966870D01*
X36631277Y28968196D01*
X36610420Y29022137D01*
X36624681Y29091687D01*
X36628985Y29098384D01*
X36628980Y29098387D01*
X36633106Y29105534D01*
X36638136Y29112089D01*
X36698644Y29258168D01*
X36710734Y29350000D01*
X39744318Y29350000D01*
X39764956Y29193238D01*
X39825464Y29047159D01*
X39921718Y28921718D01*
X40047159Y28825464D01*
X40193238Y28764956D01*
X40350000Y28744318D01*
X40358188Y28745396D01*
X40498574Y28763878D01*
X40506762Y28764956D01*
X40652841Y28825464D01*
X40778282Y28921718D01*
X40874536Y29047159D01*
X40935044Y29193238D01*
X40955682Y29350000D01*
X40935044Y29506762D01*
X40874536Y29652841D01*
X40869508Y29659394D01*
X40869506Y29659397D01*
X40845475Y29690715D01*
X40819874Y29756935D01*
X40834138Y29826484D01*
X40845474Y29844123D01*
X40866662Y29871736D01*
X40924536Y29947159D01*
X40950731Y30010400D01*
X42994318Y30010400D01*
X43014956Y29853638D01*
X43075464Y29707559D01*
X43171718Y29582118D01*
X43297159Y29485864D01*
X43443238Y29425356D01*
X43600000Y29404718D01*
X43608188Y29405796D01*
X43748574Y29424278D01*
X43756762Y29425356D01*
X43902841Y29485864D01*
X44028282Y29582118D01*
X44124536Y29707559D01*
X44185044Y29853638D01*
X44205682Y30010400D01*
X47644318Y30010400D01*
X47664956Y29853638D01*
X47725464Y29707559D01*
X47821718Y29582118D01*
X47947159Y29485864D01*
X48093238Y29425356D01*
X48250000Y29404718D01*
X48258188Y29405796D01*
X48398574Y29424278D01*
X48406762Y29425356D01*
X48552841Y29485864D01*
X48678282Y29582118D01*
X48774536Y29707559D01*
X48835044Y29853638D01*
X48855682Y30010400D01*
X48835044Y30167162D01*
X48774536Y30313241D01*
X48678282Y30438682D01*
X48552841Y30534936D01*
X48406762Y30595444D01*
X48394184Y30597100D01*
X48258188Y30615004D01*
X48250000Y30616082D01*
X48241812Y30615004D01*
X48105817Y30597100D01*
X48093238Y30595444D01*
X47947159Y30534936D01*
X47821718Y30438682D01*
X47725464Y30313241D01*
X47664956Y30167162D01*
X47644318Y30010400D01*
X44205682Y30010400D01*
X44185044Y30167162D01*
X44124536Y30313241D01*
X44028282Y30438682D01*
X43902841Y30534936D01*
X43756762Y30595444D01*
X43744184Y30597100D01*
X43608188Y30615004D01*
X43600000Y30616082D01*
X43591812Y30615004D01*
X43455817Y30597100D01*
X43443238Y30595444D01*
X43297159Y30534936D01*
X43171718Y30438682D01*
X43075464Y30313241D01*
X43014956Y30167162D01*
X42994318Y30010400D01*
X40950731Y30010400D01*
X40985044Y30093238D01*
X41005682Y30250000D01*
X40985044Y30406762D01*
X40924536Y30552841D01*
X40828282Y30678282D01*
X40821378Y30683580D01*
X40768706Y30723996D01*
X40702841Y30774536D01*
X40556762Y30835044D01*
X40400000Y30855682D01*
X40243238Y30835044D01*
X40097159Y30774536D01*
X40031294Y30723996D01*
X39978623Y30683580D01*
X39971718Y30678282D01*
X39875464Y30552841D01*
X39814956Y30406762D01*
X39794318Y30250000D01*
X39814956Y30093238D01*
X39875464Y29947159D01*
X39880491Y29940608D01*
X39880494Y29940603D01*
X39904525Y29909285D01*
X39930126Y29843065D01*
X39915862Y29773516D01*
X39904526Y29755877D01*
X39825464Y29652841D01*
X39764956Y29506762D01*
X39744318Y29350000D01*
X36710734Y29350000D01*
X36719282Y29414930D01*
X36698644Y29571692D01*
X36672616Y29634529D01*
X36665027Y29705117D01*
X36689062Y29759450D01*
X36733921Y29817912D01*
X36770205Y29865198D01*
X36773364Y29872826D01*
X36773367Y29872830D01*
X36779083Y29886631D01*
X36823630Y29941912D01*
X36890993Y29964334D01*
X36959785Y29946776D01*
X36972196Y29938377D01*
X37035159Y29890064D01*
X37181238Y29829556D01*
X37338000Y29808918D01*
X37346188Y29809996D01*
X37486574Y29828478D01*
X37494762Y29829556D01*
X37640841Y29890064D01*
X37766282Y29986318D01*
X37862536Y30111759D01*
X37923044Y30257838D01*
X37929348Y30305718D01*
X37942604Y30406412D01*
X37943682Y30414600D01*
X37923044Y30571362D01*
X37917219Y30585426D01*
X37912383Y30597100D01*
X37862536Y30717441D01*
X37857509Y30723992D01*
X37857507Y30723996D01*
X37837574Y30749974D01*
X37811975Y30816195D01*
X37826241Y30885743D01*
X37842034Y30907103D01*
X37841618Y30907423D01*
X37910832Y30997625D01*
X37937872Y31032864D01*
X37998380Y31178943D01*
X38001152Y31200000D01*
X43944318Y31200000D01*
X43964956Y31043238D01*
X44025464Y30897159D01*
X44121718Y30771718D01*
X44247159Y30675464D01*
X44393238Y30614956D01*
X44550000Y30594318D01*
X44558188Y30595396D01*
X44601067Y30601041D01*
X44706762Y30614956D01*
X44852841Y30675464D01*
X44973296Y30767892D01*
X45039517Y30793492D01*
X45109065Y30779227D01*
X45126704Y30767892D01*
X45247159Y30675464D01*
X45393238Y30614956D01*
X45550000Y30594318D01*
X45558188Y30595396D01*
X45601067Y30601041D01*
X45706762Y30614956D01*
X45852841Y30675464D01*
X45978282Y30771718D01*
X46074536Y30897159D01*
X46135044Y31043238D01*
X46155682Y31200000D01*
X48544318Y31200000D01*
X48564956Y31043238D01*
X48625464Y30897159D01*
X48721718Y30771718D01*
X48847159Y30675464D01*
X48993238Y30614956D01*
X49150000Y30594318D01*
X49158188Y30595396D01*
X49201067Y30601041D01*
X49306762Y30614956D01*
X49452841Y30675464D01*
X49573296Y30767892D01*
X49639517Y30793492D01*
X49709065Y30779227D01*
X49726704Y30767892D01*
X49847159Y30675464D01*
X49993238Y30614956D01*
X50150000Y30594318D01*
X50158188Y30595396D01*
X50201067Y30601041D01*
X50306762Y30614956D01*
X50452841Y30675464D01*
X50459394Y30680492D01*
X50459397Y30680494D01*
X50513287Y30721845D01*
X50579507Y30747446D01*
X50649056Y30733181D01*
X50699852Y30683580D01*
X50714913Y30638330D01*
X50722956Y30577238D01*
X50726116Y30569609D01*
X50728867Y30562968D01*
X50783464Y30431159D01*
X50879718Y30305718D01*
X51005159Y30209464D01*
X51151238Y30148956D01*
X51308000Y30128318D01*
X51316188Y30129396D01*
X51456574Y30147878D01*
X51464762Y30148956D01*
X51610841Y30209464D01*
X51617393Y30214491D01*
X51624546Y30218621D01*
X51626104Y30215922D01*
X51678541Y30236182D01*
X51748087Y30221904D01*
X51753384Y30218500D01*
X51753454Y30218621D01*
X51760607Y30214491D01*
X51767159Y30209464D01*
X51913238Y30148956D01*
X52070000Y30128318D01*
X52078188Y30129396D01*
X52218574Y30147878D01*
X52226762Y30148956D01*
X52372841Y30209464D01*
X52498282Y30305718D01*
X52594536Y30431159D01*
X52649133Y30562968D01*
X52651884Y30569609D01*
X52655044Y30577238D01*
X52675682Y30734000D01*
X52662237Y30836122D01*
X52656122Y30882574D01*
X52655044Y30890762D01*
X52594536Y31036841D01*
X52498282Y31162282D01*
X52372841Y31258536D01*
X52226762Y31319044D01*
X52070000Y31339682D01*
X51913238Y31319044D01*
X51767159Y31258536D01*
X51760607Y31253509D01*
X51753454Y31249379D01*
X51751896Y31252078D01*
X51699459Y31231818D01*
X51629913Y31246096D01*
X51624616Y31249500D01*
X51624546Y31249379D01*
X51617393Y31253509D01*
X51610841Y31258536D01*
X51464762Y31319044D01*
X51308000Y31339682D01*
X51151238Y31319044D01*
X51005159Y31258536D01*
X50998608Y31253509D01*
X50998603Y31253506D01*
X50944713Y31212155D01*
X50878493Y31186554D01*
X50808944Y31200819D01*
X50758148Y31250420D01*
X50743087Y31295670D01*
X50736122Y31348574D01*
X50735044Y31356762D01*
X50674536Y31502841D01*
X50578282Y31628282D01*
X50563616Y31639536D01*
X50488878Y31696884D01*
X50452841Y31724536D01*
X50306762Y31785044D01*
X50150000Y31805682D01*
X49993238Y31785044D01*
X49847159Y31724536D01*
X49811122Y31696884D01*
X49726704Y31632108D01*
X49660483Y31606508D01*
X49590935Y31620773D01*
X49573296Y31632108D01*
X49488878Y31696884D01*
X49452841Y31724536D01*
X49306762Y31785044D01*
X49150000Y31805682D01*
X48993238Y31785044D01*
X48847159Y31724536D01*
X48811122Y31696884D01*
X48736385Y31639536D01*
X48721718Y31628282D01*
X48625464Y31502841D01*
X48564956Y31356762D01*
X48544318Y31200000D01*
X46155682Y31200000D01*
X46135044Y31356762D01*
X46074536Y31502841D01*
X45978282Y31628282D01*
X45963616Y31639536D01*
X45888878Y31696884D01*
X45852841Y31724536D01*
X45706762Y31785044D01*
X45550000Y31805682D01*
X45393238Y31785044D01*
X45247159Y31724536D01*
X45211122Y31696884D01*
X45126704Y31632108D01*
X45060483Y31606508D01*
X44990935Y31620773D01*
X44973296Y31632108D01*
X44888878Y31696884D01*
X44852841Y31724536D01*
X44706762Y31785044D01*
X44550000Y31805682D01*
X44393238Y31785044D01*
X44247159Y31724536D01*
X44211122Y31696884D01*
X44136385Y31639536D01*
X44121718Y31628282D01*
X44025464Y31502841D01*
X43964956Y31356762D01*
X43944318Y31200000D01*
X38001152Y31200000D01*
X38019018Y31335705D01*
X38006481Y31430930D01*
X37999458Y31484279D01*
X37998380Y31492467D01*
X37937872Y31638546D01*
X37869395Y31727787D01*
X37846641Y31757441D01*
X37841618Y31763987D01*
X37716177Y31860241D01*
X37570098Y31920749D01*
X37413336Y31941387D01*
X37256574Y31920749D01*
X37110495Y31860241D01*
X36985054Y31763987D01*
X36980031Y31757441D01*
X36957277Y31727787D01*
X36888800Y31638546D01*
X36828292Y31492467D01*
X36827214Y31484279D01*
X36820191Y31430930D01*
X36807654Y31335705D01*
X36828292Y31178943D01*
X36888800Y31032864D01*
X36893827Y31026313D01*
X36893829Y31026309D01*
X36913762Y31000331D01*
X36939361Y30934110D01*
X36925095Y30864562D01*
X36909302Y30843202D01*
X36909718Y30842882D01*
X36813464Y30717441D01*
X36810305Y30709813D01*
X36810302Y30709809D01*
X36804586Y30696008D01*
X36760039Y30640727D01*
X36692676Y30618305D01*
X36623884Y30635863D01*
X36611473Y30644262D01*
X36574928Y30672304D01*
X36548510Y30692575D01*
X36402431Y30753083D01*
X36245669Y30773721D01*
X36088907Y30753083D01*
X35942828Y30692575D01*
X35879865Y30644262D01*
X35833481Y30608670D01*
X35817387Y30596321D01*
X35812364Y30589775D01*
X35810468Y30587304D01*
X35721133Y30470880D01*
X35660625Y30324801D01*
X35639987Y30168039D01*
X35660625Y30011277D01*
X35686653Y29948440D01*
X35694242Y29877852D01*
X35670207Y29823519D01*
X35589064Y29717771D01*
X35528556Y29571692D01*
X35507918Y29414930D01*
X35528556Y29258168D01*
X35589064Y29112089D01*
X35594094Y29105534D01*
X35598220Y29098387D01*
X35595925Y29097062D01*
X35616781Y29043103D01*
X35602511Y28973556D01*
X35598216Y28966873D01*
X35598220Y28966870D01*
X35594093Y28959722D01*
X35589064Y28953168D01*
X35528556Y28807089D01*
X35507918Y28650327D01*
X35528556Y28493565D01*
X35589064Y28347486D01*
X35594094Y28340931D01*
X35598220Y28333784D01*
X35595925Y28332459D01*
X35616781Y28278500D01*
X35602511Y28208953D01*
X35598216Y28202270D01*
X35598220Y28202267D01*
X35594093Y28195119D01*
X35589064Y28188565D01*
X35528556Y28042486D01*
X35507918Y27885724D01*
X26375342Y27885724D01*
X26362231Y27985314D01*
X26301723Y28131393D01*
X26205469Y28256834D01*
X26080028Y28353088D01*
X25933949Y28413596D01*
X25925761Y28414674D01*
X25917785Y28416811D01*
X25918194Y28418339D01*
X25861857Y28443264D01*
X25822768Y28502530D01*
X25821925Y28573522D01*
X25843272Y28616165D01*
X25895875Y28684719D01*
X25895878Y28684724D01*
X25900905Y28691275D01*
X25961413Y28837354D01*
X25982051Y28994116D01*
X25961413Y29150878D01*
X25900905Y29296957D01*
X25804651Y29422398D01*
X25679210Y29518652D01*
X25533131Y29579160D01*
X25376369Y29599798D01*
X25219607Y29579160D01*
X25073528Y29518652D01*
X24948087Y29422398D01*
X24851833Y29296957D01*
X24791325Y29150878D01*
X24770687Y28994116D01*
X7052796Y28994116D01*
X7121923Y29047159D01*
X7132930Y29055605D01*
X7139476Y29060628D01*
X7235730Y29186069D01*
X7296238Y29332148D01*
X7316876Y29488910D01*
X7296238Y29645672D01*
X7235730Y29791751D01*
X7139476Y29917192D01*
X7014035Y30013446D01*
X6867956Y30073954D01*
X6711194Y30094592D01*
X6554432Y30073954D01*
X6408353Y30013446D01*
X6282912Y29917192D01*
X6186658Y29791751D01*
X6126150Y29645672D01*
X6105512Y29488910D01*
X3800559Y29488910D01*
X3785044Y29606762D01*
X3724536Y29752841D01*
X3628282Y29878282D01*
X3502841Y29974536D01*
X3356762Y30035044D01*
X3200000Y30055682D01*
X3043238Y30035044D01*
X2897159Y29974536D01*
X2771718Y29878282D01*
X2766695Y29871736D01*
X2766691Y29871732D01*
X2685962Y29766524D01*
X2628624Y29724657D01*
X2557754Y29720435D01*
X2495851Y29755199D01*
X2462569Y29817912D01*
X2460000Y29843228D01*
X2460000Y30765432D01*
X18952318Y30765432D01*
X18953396Y30757244D01*
X18971873Y30616900D01*
X18972956Y30608670D01*
X19033464Y30462591D01*
X19129718Y30337150D01*
X19136264Y30332127D01*
X19152339Y30319792D01*
X19255159Y30240896D01*
X19401238Y30180388D01*
X19558000Y30159750D01*
X19566188Y30160828D01*
X19620962Y30168039D01*
X19714762Y30180388D01*
X19860841Y30240896D01*
X19963661Y30319792D01*
X19979736Y30332127D01*
X19986282Y30337150D01*
X20082536Y30462591D01*
X20143044Y30608670D01*
X20144128Y30616900D01*
X20162604Y30757244D01*
X20163682Y30765432D01*
X20143044Y30922194D01*
X20082536Y31068273D01*
X20046681Y31115000D01*
X20730318Y31115000D01*
X20750956Y30958238D01*
X20811464Y30812159D01*
X20871437Y30734000D01*
X20900590Y30696008D01*
X20907718Y30686718D01*
X20914264Y30681695D01*
X20926503Y30672304D01*
X21033159Y30590464D01*
X21179238Y30529956D01*
X21187426Y30528878D01*
X21199549Y30527282D01*
X21336000Y30509318D01*
X21344188Y30510396D01*
X21484574Y30528878D01*
X21492762Y30529956D01*
X21500389Y30533115D01*
X21500392Y30533116D01*
X21636541Y30589511D01*
X21707131Y30597100D01*
X21770618Y30565321D01*
X21806845Y30504262D01*
X21804311Y30433311D01*
X21793878Y30410102D01*
X21792890Y30408392D01*
X21787864Y30401841D01*
X21784705Y30394215D01*
X21784704Y30394213D01*
X21750760Y30312264D01*
X21727356Y30255762D01*
X21706718Y30099000D01*
X21727356Y29942238D01*
X21787864Y29796159D01*
X21884118Y29670718D01*
X22009559Y29574464D01*
X22155638Y29513956D01*
X22312400Y29493318D01*
X22320588Y29494396D01*
X22460974Y29512878D01*
X22469162Y29513956D01*
X22615241Y29574464D01*
X22740682Y29670718D01*
X22836936Y29796159D01*
X22897444Y29942238D01*
X22918082Y30099000D01*
X28604318Y30099000D01*
X28624956Y29942238D01*
X28685464Y29796159D01*
X28781718Y29670718D01*
X28907159Y29574464D01*
X29053238Y29513956D01*
X29210000Y29493318D01*
X29218188Y29494396D01*
X29358574Y29512878D01*
X29366762Y29513956D01*
X29512841Y29574464D01*
X29638282Y29670718D01*
X29734536Y29796159D01*
X29795044Y29942238D01*
X29815682Y30099000D01*
X29795044Y30255762D01*
X29734536Y30401841D01*
X29638282Y30527282D01*
X29640208Y30528760D01*
X29612110Y30580217D01*
X29617175Y30651032D01*
X29639506Y30685779D01*
X29638282Y30686718D01*
X29656002Y30709811D01*
X29734536Y30812159D01*
X29795044Y30958238D01*
X29815682Y31115000D01*
X29795044Y31271762D01*
X29734536Y31417841D01*
X29638282Y31543282D01*
X29512841Y31639536D01*
X29366762Y31700044D01*
X29210000Y31720682D01*
X29053238Y31700044D01*
X28907159Y31639536D01*
X28781718Y31543282D01*
X28685464Y31417841D01*
X28624956Y31271762D01*
X28604318Y31115000D01*
X28624956Y30958238D01*
X28685464Y30812159D01*
X28763998Y30709811D01*
X28781718Y30686718D01*
X28779792Y30685240D01*
X28807890Y30633783D01*
X28802825Y30562968D01*
X28780494Y30528221D01*
X28781718Y30527282D01*
X28685464Y30401841D01*
X28624956Y30255762D01*
X28604318Y30099000D01*
X22918082Y30099000D01*
X22897444Y30255762D01*
X22836936Y30401841D01*
X22740682Y30527282D01*
X22615241Y30623536D01*
X22477740Y30680491D01*
X22476791Y30680884D01*
X22469162Y30684044D01*
X22460078Y30685240D01*
X22320588Y30703604D01*
X22312400Y30704682D01*
X22304212Y30703604D01*
X22164723Y30685240D01*
X22155638Y30684044D01*
X22148011Y30680885D01*
X22148008Y30680884D01*
X22011859Y30624489D01*
X21941269Y30616900D01*
X21877782Y30648679D01*
X21841555Y30709738D01*
X21844089Y30780689D01*
X21854522Y30803898D01*
X21855510Y30805608D01*
X21860536Y30812159D01*
X21863697Y30819789D01*
X21917884Y30950609D01*
X21921044Y30958238D01*
X21941682Y31115000D01*
X24032318Y31115000D01*
X24052956Y30958238D01*
X24113464Y30812159D01*
X24173437Y30734000D01*
X24202590Y30696008D01*
X24209718Y30686718D01*
X24216264Y30681695D01*
X24228503Y30672304D01*
X24335159Y30590464D01*
X24481238Y30529956D01*
X24489426Y30528878D01*
X24501549Y30527282D01*
X24638000Y30509318D01*
X24646188Y30510396D01*
X24786574Y30528878D01*
X24794762Y30529956D01*
X24940841Y30590464D01*
X25047497Y30672304D01*
X25059736Y30681695D01*
X25066282Y30686718D01*
X25073411Y30696008D01*
X25102563Y30734000D01*
X25162536Y30812159D01*
X25223044Y30958238D01*
X25243682Y31115000D01*
X25223044Y31271762D01*
X25162536Y31417841D01*
X25066282Y31543282D01*
X24940841Y31639536D01*
X24794762Y31700044D01*
X24638000Y31720682D01*
X24481238Y31700044D01*
X24335159Y31639536D01*
X24209718Y31543282D01*
X24113464Y31417841D01*
X24052956Y31271762D01*
X24032318Y31115000D01*
X21941682Y31115000D01*
X21921044Y31271762D01*
X21860536Y31417841D01*
X21764282Y31543282D01*
X21638841Y31639536D01*
X21492762Y31700044D01*
X21336000Y31720682D01*
X21179238Y31700044D01*
X21033159Y31639536D01*
X20907718Y31543282D01*
X20811464Y31417841D01*
X20750956Y31271762D01*
X20730318Y31115000D01*
X20046681Y31115000D01*
X19986282Y31193714D01*
X19860841Y31289968D01*
X19714762Y31350476D01*
X19558000Y31371114D01*
X19401238Y31350476D01*
X19255159Y31289968D01*
X19129718Y31193714D01*
X19033464Y31068273D01*
X18972956Y30922194D01*
X18952318Y30765432D01*
X2460000Y30765432D01*
X2460000Y31430930D01*
X10488842Y31430930D01*
X10489920Y31422742D01*
X10502457Y31327517D01*
X10509480Y31274168D01*
X10569988Y31128089D01*
X10610860Y31074824D01*
X10643057Y31032864D01*
X10666242Y31002648D01*
X10791683Y30906394D01*
X10937762Y30845886D01*
X11094524Y30825248D01*
X11102712Y30826326D01*
X11243098Y30844808D01*
X11251286Y30845886D01*
X11397365Y30906394D01*
X11522806Y31002648D01*
X11545992Y31032864D01*
X11578188Y31074824D01*
X11619060Y31128089D01*
X11679568Y31274168D01*
X11686592Y31327517D01*
X11699128Y31422742D01*
X11700206Y31430930D01*
X11679568Y31587692D01*
X11619060Y31733771D01*
X11522806Y31859212D01*
X11397365Y31955466D01*
X11251286Y32015974D01*
X11094524Y32036612D01*
X10937762Y32015974D01*
X10791683Y31955466D01*
X10666242Y31859212D01*
X10569988Y31733771D01*
X10509480Y31587692D01*
X10488842Y31430930D01*
X2460000Y31430930D01*
X2460000Y34462766D01*
X12348318Y34462766D01*
X12368956Y34306004D01*
X12429464Y34159925D01*
X12434491Y34153374D01*
X12513518Y34050384D01*
X12525718Y34034484D01*
X12651159Y33938230D01*
X12797238Y33877722D01*
X12805426Y33876644D01*
X12872687Y33867789D01*
X12954000Y33857084D01*
X12962188Y33858162D01*
X13102574Y33876644D01*
X13110762Y33877722D01*
X13206739Y33917477D01*
X13277329Y33925066D01*
X13303173Y33917478D01*
X13432238Y33864017D01*
X13440426Y33862939D01*
X13476711Y33858162D01*
X13589000Y33843379D01*
X13597188Y33844457D01*
X13737574Y33862939D01*
X13745762Y33864017D01*
X13891841Y33924525D01*
X14017282Y34020779D01*
X14113536Y34146220D01*
X14120487Y34163000D01*
X16920318Y34163000D01*
X16940956Y34006238D01*
X17001464Y33860159D01*
X17097718Y33734718D01*
X17223159Y33638464D01*
X17329650Y33594354D01*
X17369238Y33577956D01*
X17368389Y33575907D01*
X17419081Y33545012D01*
X17450105Y33481152D01*
X17441679Y33410657D01*
X17402554Y33360291D01*
X17358268Y33326309D01*
X17358264Y33326305D01*
X17351718Y33321282D01*
X17255464Y33195841D01*
X17194956Y33049762D01*
X17174318Y32893000D01*
X17194956Y32736238D01*
X17255464Y32590159D01*
X17351718Y32464718D01*
X17358264Y32459695D01*
X17374934Y32446904D01*
X17477159Y32368464D01*
X17623238Y32307956D01*
X17780000Y32287318D01*
X17788188Y32288396D01*
X17928574Y32306878D01*
X17936762Y32307956D01*
X18082841Y32368464D01*
X18185066Y32446904D01*
X18201736Y32459695D01*
X18208282Y32464718D01*
X18304536Y32590159D01*
X18365044Y32736238D01*
X18385682Y32893000D01*
X18374939Y32974600D01*
X29413297Y32974600D01*
X29414375Y32966412D01*
X29430863Y32841176D01*
X29433935Y32817838D01*
X29494443Y32671759D01*
X29590697Y32546318D01*
X29716138Y32450064D01*
X29862217Y32389556D01*
X30018979Y32368918D01*
X30027167Y32369996D01*
X30053715Y32373491D01*
X30175741Y32389556D01*
X30321820Y32450064D01*
X30447261Y32546318D01*
X30543515Y32671759D01*
X30604023Y32817838D01*
X30607096Y32841176D01*
X30613918Y32893000D01*
X33430318Y32893000D01*
X33450956Y32736238D01*
X33511464Y32590159D01*
X33607718Y32464718D01*
X33614264Y32459695D01*
X33630934Y32446904D01*
X33733159Y32368464D01*
X33879238Y32307956D01*
X34036000Y32287318D01*
X34044188Y32288396D01*
X34184574Y32306878D01*
X34192762Y32307956D01*
X34338841Y32368464D01*
X34464282Y32464718D01*
X34465760Y32462792D01*
X34517217Y32490890D01*
X34588032Y32485825D01*
X34622779Y32463494D01*
X34623718Y32464718D01*
X34749159Y32368464D01*
X34895238Y32307956D01*
X35052000Y32287318D01*
X35060188Y32288396D01*
X35200574Y32306878D01*
X35208762Y32307956D01*
X35354841Y32368464D01*
X35457066Y32446904D01*
X35473736Y32459695D01*
X35480282Y32464718D01*
X35576536Y32590159D01*
X35637044Y32736238D01*
X35657682Y32893000D01*
X35637044Y33049762D01*
X35576536Y33195841D01*
X35480282Y33321282D01*
X35354841Y33417536D01*
X35286654Y33445780D01*
X40294318Y33445780D01*
X40314956Y33289018D01*
X40375464Y33142939D01*
X40471718Y33017498D01*
X40597159Y32921244D01*
X40743238Y32860736D01*
X40900000Y32840098D01*
X40908188Y32841176D01*
X41048574Y32859658D01*
X41056762Y32860736D01*
X41202841Y32921244D01*
X41328282Y33017498D01*
X41398581Y33109114D01*
X50672008Y33109114D01*
X50692646Y32952352D01*
X50753154Y32806273D01*
X50849408Y32680832D01*
X50974849Y32584578D01*
X51120928Y32524070D01*
X51277690Y32503432D01*
X51285878Y32504510D01*
X51426264Y32522992D01*
X51434452Y32524070D01*
X51580531Y32584578D01*
X51705972Y32680832D01*
X51802226Y32806273D01*
X51862734Y32952352D01*
X51883372Y33109114D01*
X51862734Y33265876D01*
X51802226Y33411955D01*
X51705972Y33537396D01*
X51580531Y33633650D01*
X51434452Y33694158D01*
X51277690Y33714796D01*
X51120928Y33694158D01*
X50974849Y33633650D01*
X50849408Y33537396D01*
X50753154Y33411955D01*
X50692646Y33265876D01*
X50672008Y33109114D01*
X41398581Y33109114D01*
X41424536Y33142939D01*
X41485044Y33289018D01*
X41505682Y33445780D01*
X41488281Y33577956D01*
X41486122Y33594354D01*
X41485044Y33602542D01*
X41424536Y33748621D01*
X41341310Y33857084D01*
X41333305Y33867516D01*
X41328282Y33874062D01*
X41202841Y33970316D01*
X41056762Y34030824D01*
X41028962Y34034484D01*
X40908188Y34050384D01*
X40900000Y34051462D01*
X40891812Y34050384D01*
X40771039Y34034484D01*
X40743238Y34030824D01*
X40597159Y33970316D01*
X40471718Y33874062D01*
X40466695Y33867516D01*
X40458690Y33857084D01*
X40375464Y33748621D01*
X40314956Y33602542D01*
X40313878Y33594354D01*
X40311719Y33577956D01*
X40294318Y33445780D01*
X35286654Y33445780D01*
X35208762Y33478044D01*
X35052000Y33498682D01*
X34895238Y33478044D01*
X34749159Y33417536D01*
X34623718Y33321282D01*
X34622240Y33323208D01*
X34570783Y33295110D01*
X34499968Y33300175D01*
X34465221Y33322506D01*
X34464282Y33321282D01*
X34366469Y33396336D01*
X34338841Y33417536D01*
X34192762Y33478044D01*
X34036000Y33498682D01*
X33879238Y33478044D01*
X33733159Y33417536D01*
X33607718Y33321282D01*
X33511464Y33195841D01*
X33450956Y33049762D01*
X33430318Y32893000D01*
X30613918Y32893000D01*
X30623583Y32966412D01*
X30624661Y32974600D01*
X30604023Y33131362D01*
X30543515Y33277441D01*
X30447261Y33402882D01*
X30428164Y33417536D01*
X30353426Y33474884D01*
X30321820Y33499136D01*
X30175741Y33559644D01*
X30018979Y33580282D01*
X29862217Y33559644D01*
X29716138Y33499136D01*
X29684532Y33474884D01*
X29609795Y33417536D01*
X29590697Y33402882D01*
X29494443Y33277441D01*
X29433935Y33131362D01*
X29413297Y32974600D01*
X18374939Y32974600D01*
X18365044Y33049762D01*
X18304536Y33195841D01*
X18208282Y33321282D01*
X18082841Y33417536D01*
X17936762Y33478044D01*
X17937611Y33480093D01*
X17886919Y33510988D01*
X17855895Y33574848D01*
X17864321Y33645343D01*
X17903446Y33695709D01*
X17947732Y33729691D01*
X17947736Y33729695D01*
X17954282Y33734718D01*
X18050536Y33860159D01*
X18111044Y34006238D01*
X18131682Y34163000D01*
X18111044Y34319762D01*
X18050536Y34465841D01*
X17954282Y34591282D01*
X17850391Y34671000D01*
X23270318Y34671000D01*
X23290956Y34514238D01*
X23351464Y34368159D01*
X23447718Y34242718D01*
X23573159Y34146464D01*
X23719238Y34085956D01*
X23876000Y34065318D01*
X23884188Y34066396D01*
X24024574Y34084878D01*
X24032762Y34085956D01*
X24178841Y34146464D01*
X24298545Y34238316D01*
X27588318Y34238316D01*
X27589396Y34230128D01*
X27600827Y34143304D01*
X27608956Y34081554D01*
X27669464Y33935475D01*
X27765718Y33810034D01*
X27891159Y33713780D01*
X28037238Y33653272D01*
X28194000Y33632634D01*
X28202188Y33633712D01*
X28342574Y33652194D01*
X28350762Y33653272D01*
X28496841Y33713780D01*
X28622282Y33810034D01*
X28718536Y33935475D01*
X28779044Y34081554D01*
X28787174Y34143304D01*
X28798604Y34230128D01*
X28799682Y34238316D01*
X28779044Y34395078D01*
X28718536Y34541157D01*
X28622282Y34666598D01*
X28496841Y34762852D01*
X28350762Y34823360D01*
X28194000Y34843998D01*
X28037238Y34823360D01*
X27891159Y34762852D01*
X27765718Y34666598D01*
X27669464Y34541157D01*
X27608956Y34395078D01*
X27588318Y34238316D01*
X24298545Y34238316D01*
X24304282Y34242718D01*
X24400536Y34368159D01*
X24461044Y34514238D01*
X24481682Y34671000D01*
X24469227Y34765607D01*
X24462122Y34819574D01*
X24461044Y34827762D01*
X24400536Y34973841D01*
X24304282Y35099282D01*
X24208286Y35172942D01*
X41424338Y35172942D01*
X41444976Y35016180D01*
X41505484Y34870101D01*
X41526341Y34842920D01*
X41591520Y34757977D01*
X41601738Y34744660D01*
X41727179Y34648406D01*
X41873258Y34587898D01*
X42030020Y34567260D01*
X42038208Y34568338D01*
X42178594Y34586820D01*
X42186782Y34587898D01*
X42332861Y34648406D01*
X42458302Y34744660D01*
X42468521Y34757977D01*
X42533699Y34842920D01*
X42554556Y34870101D01*
X42615064Y35016180D01*
X42635702Y35172942D01*
X42615064Y35329704D01*
X42554556Y35475783D01*
X42509300Y35534762D01*
X46275578Y35534762D01*
X46296216Y35378000D01*
X46356724Y35231921D01*
X46452978Y35106480D01*
X46578419Y35010226D01*
X46724498Y34949718D01*
X46881260Y34929080D01*
X46889448Y34930158D01*
X47029834Y34948640D01*
X47038022Y34949718D01*
X47184101Y35010226D01*
X47309542Y35106480D01*
X47405796Y35231921D01*
X47466304Y35378000D01*
X47486942Y35534762D01*
X47466304Y35691524D01*
X47405796Y35837603D01*
X47309542Y35963044D01*
X47184101Y36059298D01*
X47038022Y36119806D01*
X46881260Y36140444D01*
X46724498Y36119806D01*
X46578419Y36059298D01*
X46452978Y35963044D01*
X46356724Y35837603D01*
X46296216Y35691524D01*
X46275578Y35534762D01*
X42509300Y35534762D01*
X42458302Y35601224D01*
X42332861Y35697478D01*
X42186782Y35757986D01*
X42030020Y35778624D01*
X41873258Y35757986D01*
X41727179Y35697478D01*
X41601738Y35601224D01*
X41505484Y35475783D01*
X41444976Y35329704D01*
X41424338Y35172942D01*
X24208286Y35172942D01*
X24178841Y35195536D01*
X24173550Y35197728D01*
X24125364Y35248262D01*
X24111926Y35317975D01*
X24138312Y35383886D01*
X24173224Y35414137D01*
X24178841Y35416464D01*
X24304282Y35512718D01*
X24400536Y35638159D01*
X24461044Y35784238D01*
X24481682Y35941000D01*
X24461044Y36097762D01*
X24400536Y36243841D01*
X24304282Y36369282D01*
X24178841Y36465536D01*
X24032762Y36526044D01*
X23876000Y36546682D01*
X23719238Y36526044D01*
X23573159Y36465536D01*
X23447718Y36369282D01*
X23351464Y36243841D01*
X23290956Y36097762D01*
X23270318Y35941000D01*
X23290956Y35784238D01*
X23351464Y35638159D01*
X23447718Y35512718D01*
X23573159Y35416464D01*
X23578450Y35414272D01*
X23626636Y35363738D01*
X23640074Y35294025D01*
X23613688Y35228114D01*
X23578776Y35197863D01*
X23573159Y35195536D01*
X23447718Y35099282D01*
X23351464Y34973841D01*
X23290956Y34827762D01*
X23289878Y34819574D01*
X23282773Y34765607D01*
X23270318Y34671000D01*
X17850391Y34671000D01*
X17828841Y34687536D01*
X17682762Y34748044D01*
X17653458Y34751902D01*
X17534188Y34767604D01*
X17526000Y34768682D01*
X17517812Y34767604D01*
X17398543Y34751902D01*
X17369238Y34748044D01*
X17223159Y34687536D01*
X17097718Y34591282D01*
X17001464Y34465841D01*
X16940956Y34319762D01*
X16920318Y34163000D01*
X14120487Y34163000D01*
X14174044Y34292299D01*
X14194682Y34449061D01*
X14174044Y34605823D01*
X14113536Y34751902D01*
X14017282Y34877343D01*
X13891841Y34973597D01*
X13745762Y35034105D01*
X13589000Y35054743D01*
X13432238Y35034105D01*
X13424609Y35030945D01*
X13336261Y34994350D01*
X13265671Y34986761D01*
X13239827Y34994349D01*
X13110762Y35047810D01*
X12954000Y35068448D01*
X12797238Y35047810D01*
X12651159Y34987302D01*
X12525718Y34891048D01*
X12520695Y34884502D01*
X12515202Y34877343D01*
X12429464Y34765607D01*
X12368956Y34619528D01*
X12348318Y34462766D01*
X2460000Y34462766D01*
X2460000Y37465000D01*
X9046318Y37465000D01*
X9066956Y37308238D01*
X9127464Y37162159D01*
X9223718Y37036718D01*
X9230264Y37031695D01*
X9244233Y37020976D01*
X9349159Y36940464D01*
X9495238Y36879956D01*
X9652000Y36859318D01*
X9660188Y36860396D01*
X9800574Y36878878D01*
X9808762Y36879956D01*
X9954841Y36940464D01*
X9961393Y36945491D01*
X9968546Y36949621D01*
X9970104Y36946922D01*
X10022541Y36967182D01*
X10092087Y36952904D01*
X10097383Y36949500D01*
X10097453Y36949621D01*
X10104611Y36945489D01*
X10111159Y36940464D01*
X10116450Y36938272D01*
X10164636Y36887738D01*
X10178074Y36818025D01*
X10151688Y36752114D01*
X10116776Y36721863D01*
X10111159Y36719536D01*
X9985718Y36623282D01*
X9889464Y36497841D01*
X9828956Y36351762D01*
X9808318Y36195000D01*
X9828956Y36038238D01*
X9889464Y35892159D01*
X9985718Y35766718D01*
X10111159Y35670464D01*
X10257238Y35609956D01*
X10414000Y35589318D01*
X10422188Y35590396D01*
X10562574Y35608878D01*
X10570762Y35609956D01*
X10716841Y35670464D01*
X10842282Y35766718D01*
X10938536Y35892159D01*
X10999044Y36038238D01*
X11019682Y36195000D01*
X10999044Y36351762D01*
X10972282Y36416372D01*
X20885523Y36416372D01*
X20906161Y36259610D01*
X20966669Y36113531D01*
X21062923Y35988090D01*
X21188364Y35891836D01*
X21334443Y35831328D01*
X21491205Y35810690D01*
X21499393Y35811768D01*
X21639779Y35830250D01*
X21647967Y35831328D01*
X21794046Y35891836D01*
X21919487Y35988090D01*
X22015741Y36113531D01*
X22076249Y36259610D01*
X22096887Y36416372D01*
X22076249Y36573134D01*
X22015741Y36719213D01*
X21919487Y36844654D01*
X21900377Y36859318D01*
X21826782Y36915789D01*
X21794046Y36940908D01*
X21647967Y37001416D01*
X21491205Y37022054D01*
X21334443Y37001416D01*
X21188364Y36940908D01*
X21155628Y36915789D01*
X21082034Y36859318D01*
X21062923Y36844654D01*
X20966669Y36719213D01*
X20906161Y36573134D01*
X20885523Y36416372D01*
X10972282Y36416372D01*
X10938536Y36497841D01*
X10842282Y36623282D01*
X10716841Y36719536D01*
X10711550Y36721728D01*
X10663364Y36772262D01*
X10649926Y36841975D01*
X10676312Y36907886D01*
X10711224Y36938137D01*
X10716841Y36940464D01*
X10842282Y37036718D01*
X10938536Y37162159D01*
X10958767Y37211000D01*
X26318318Y37211000D01*
X26338956Y37054238D01*
X26342116Y37046609D01*
X26345882Y37037518D01*
X26399464Y36908159D01*
X26495718Y36782718D01*
X26502264Y36777695D01*
X26529696Y36756646D01*
X26621159Y36686464D01*
X26767238Y36625956D01*
X26924000Y36605318D01*
X26932188Y36606396D01*
X27072574Y36624878D01*
X27080762Y36625956D01*
X27226841Y36686464D01*
X27318304Y36756646D01*
X27345736Y36777695D01*
X27352282Y36782718D01*
X27448536Y36908159D01*
X27468767Y36957000D01*
X36224318Y36957000D01*
X36244956Y36800238D01*
X36305464Y36654159D01*
X36401718Y36528718D01*
X36527159Y36432464D01*
X36673238Y36371956D01*
X36830000Y36351318D01*
X36838188Y36352396D01*
X36978574Y36370878D01*
X36986762Y36371956D01*
X37132841Y36432464D01*
X37258282Y36528718D01*
X37354536Y36654159D01*
X37415044Y36800238D01*
X37435682Y36957000D01*
X37415044Y37113762D01*
X37354536Y37259841D01*
X37271726Y37367762D01*
X37263305Y37378736D01*
X37258282Y37385282D01*
X37132841Y37481536D01*
X36986762Y37542044D01*
X36830000Y37562682D01*
X36673238Y37542044D01*
X36527159Y37481536D01*
X36401718Y37385282D01*
X36396695Y37378736D01*
X36388274Y37367762D01*
X36305464Y37259841D01*
X36244956Y37113762D01*
X36224318Y36957000D01*
X27468767Y36957000D01*
X27502118Y37037518D01*
X27505884Y37046609D01*
X27509044Y37054238D01*
X27529682Y37211000D01*
X27509044Y37367762D01*
X27448536Y37513841D01*
X27352282Y37639282D01*
X27226841Y37735536D01*
X27080762Y37796044D01*
X26924000Y37816682D01*
X26767238Y37796044D01*
X26621159Y37735536D01*
X26495718Y37639282D01*
X26399464Y37513841D01*
X26338956Y37367762D01*
X26318318Y37211000D01*
X10958767Y37211000D01*
X10999044Y37308238D01*
X11019682Y37465000D01*
X10999044Y37621762D01*
X10938536Y37767841D01*
X10842282Y37893282D01*
X10716841Y37989536D01*
X10711550Y37991728D01*
X10663364Y38042262D01*
X10649926Y38111975D01*
X10676312Y38177886D01*
X10711224Y38208137D01*
X10716841Y38210464D01*
X10821136Y38290492D01*
X16729826Y38290492D01*
X16750464Y38133730D01*
X16810972Y37987651D01*
X16907226Y37862210D01*
X17032667Y37765956D01*
X17178746Y37705448D01*
X17335508Y37684810D01*
X17343696Y37685888D01*
X17484082Y37704370D01*
X17492270Y37705448D01*
X17638349Y37765956D01*
X17763790Y37862210D01*
X17860044Y37987651D01*
X17880234Y38036393D01*
X41444317Y38036393D01*
X41464955Y37879631D01*
X41525463Y37733552D01*
X41621717Y37608111D01*
X41747158Y37511857D01*
X41893237Y37451349D01*
X42049999Y37430711D01*
X42058187Y37431789D01*
X42198573Y37450271D01*
X42206761Y37451349D01*
X42352840Y37511857D01*
X42402755Y37550158D01*
X45039834Y37550158D01*
X45060472Y37393396D01*
X45120980Y37247317D01*
X45217234Y37121876D01*
X45342675Y37025622D01*
X45488754Y36965114D01*
X45645516Y36944476D01*
X45653704Y36945554D01*
X45697692Y36951345D01*
X45802278Y36965114D01*
X45948357Y37025622D01*
X46073798Y37121876D01*
X46170052Y37247317D01*
X46230560Y37393396D01*
X46251198Y37550158D01*
X46250294Y37557027D01*
X46765318Y37557027D01*
X46785956Y37400265D01*
X46846464Y37254186D01*
X46942718Y37128745D01*
X47068159Y37032491D01*
X47214238Y36971983D01*
X47222426Y36970905D01*
X47274602Y36964036D01*
X47371000Y36951345D01*
X47379188Y36952423D01*
X47519574Y36970905D01*
X47527762Y36971983D01*
X47673841Y37032491D01*
X47799282Y37128745D01*
X47895536Y37254186D01*
X47956044Y37400265D01*
X47976682Y37557027D01*
X47976332Y37559683D01*
X50659697Y37559683D01*
X50680335Y37402921D01*
X50740843Y37256842D01*
X50837097Y37131401D01*
X50962538Y37035147D01*
X51108617Y36974639D01*
X51265379Y36954001D01*
X51273567Y36955079D01*
X51413953Y36973561D01*
X51422141Y36974639D01*
X51568220Y37035147D01*
X51693661Y37131401D01*
X51789915Y37256842D01*
X51833162Y37361250D01*
X53750318Y37361250D01*
X53760637Y37282869D01*
X53764064Y37256842D01*
X53770956Y37204488D01*
X53831464Y37058409D01*
X53852765Y37030649D01*
X53915561Y36948812D01*
X53927718Y36932968D01*
X54053159Y36836714D01*
X54199238Y36776206D01*
X54356000Y36755568D01*
X54364188Y36756646D01*
X54504574Y36775128D01*
X54512762Y36776206D01*
X54658841Y36836714D01*
X54784282Y36932968D01*
X54796440Y36948812D01*
X54859235Y37030649D01*
X54880536Y37058409D01*
X54941044Y37204488D01*
X54947937Y37256842D01*
X54951363Y37282869D01*
X54961682Y37361250D01*
X54941044Y37518012D01*
X54880536Y37664091D01*
X54784282Y37789532D01*
X54774391Y37797122D01*
X54748082Y37817309D01*
X54658841Y37885786D01*
X54512762Y37946294D01*
X54356000Y37966932D01*
X54199238Y37946294D01*
X54053159Y37885786D01*
X53963918Y37817309D01*
X53937610Y37797122D01*
X53927718Y37789532D01*
X53831464Y37664091D01*
X53770956Y37518012D01*
X53750318Y37361250D01*
X51833162Y37361250D01*
X51850423Y37402921D01*
X51871061Y37559683D01*
X51858320Y37656461D01*
X51851501Y37708257D01*
X51850423Y37716445D01*
X51844598Y37730509D01*
X51840177Y37741182D01*
X51789915Y37862524D01*
X51693661Y37987965D01*
X51568220Y38084219D01*
X51422141Y38144727D01*
X51265379Y38165365D01*
X51108617Y38144727D01*
X50962538Y38084219D01*
X50837097Y37987965D01*
X50740843Y37862524D01*
X50690581Y37741182D01*
X50686161Y37730509D01*
X50680335Y37716445D01*
X50679257Y37708257D01*
X50672438Y37656461D01*
X50659697Y37559683D01*
X47976332Y37559683D01*
X47956044Y37713789D01*
X47895536Y37859868D01*
X47799282Y37985309D01*
X47673841Y38081563D01*
X47527762Y38142071D01*
X47476058Y38148878D01*
X47431364Y38154762D01*
X47371000Y38162709D01*
X47310636Y38154762D01*
X47265943Y38148878D01*
X47214238Y38142071D01*
X47068159Y38081563D01*
X46942718Y37985309D01*
X46846464Y37859868D01*
X46785956Y37713789D01*
X46765318Y37557027D01*
X46250294Y37557027D01*
X46230560Y37706920D01*
X46170052Y37852999D01*
X46073798Y37978440D01*
X45948357Y38074694D01*
X45802278Y38135202D01*
X45750103Y38142071D01*
X45653704Y38154762D01*
X45645516Y38155840D01*
X45637328Y38154762D01*
X45540930Y38142071D01*
X45488754Y38135202D01*
X45342675Y38074694D01*
X45217234Y37978440D01*
X45120980Y37852999D01*
X45060472Y37706920D01*
X45039834Y37550158D01*
X42402755Y37550158D01*
X42478281Y37608111D01*
X42574535Y37733552D01*
X42635043Y37879631D01*
X42655681Y38036393D01*
X42635043Y38193155D01*
X42574535Y38339234D01*
X42478281Y38464675D01*
X42352840Y38560929D01*
X42206761Y38621437D01*
X42049999Y38642075D01*
X41893237Y38621437D01*
X41747158Y38560929D01*
X41621717Y38464675D01*
X41525463Y38339234D01*
X41464955Y38193155D01*
X41444317Y38036393D01*
X17880234Y38036393D01*
X17920552Y38133730D01*
X17941190Y38290492D01*
X17920552Y38447254D01*
X17860044Y38593333D01*
X17763790Y38718774D01*
X17742644Y38735000D01*
X23270318Y38735000D01*
X23290956Y38578238D01*
X23351464Y38432159D01*
X23447718Y38306718D01*
X23573159Y38210464D01*
X23719238Y38149956D01*
X23727426Y38148878D01*
X23779131Y38142071D01*
X23876000Y38129318D01*
X23884188Y38130396D01*
X23909513Y38133730D01*
X23972869Y38142071D01*
X24024574Y38148878D01*
X24032762Y38149956D01*
X24178841Y38210464D01*
X24304282Y38306718D01*
X24400536Y38432159D01*
X24461044Y38578238D01*
X24481682Y38735000D01*
X24461044Y38891762D01*
X24420767Y38989000D01*
X26318318Y38989000D01*
X26338956Y38832238D01*
X26399464Y38686159D01*
X26495718Y38560718D01*
X26621159Y38464464D01*
X26767238Y38403956D01*
X26924000Y38383318D01*
X26932188Y38384396D01*
X27072574Y38402878D01*
X27080762Y38403956D01*
X27226841Y38464464D01*
X27352282Y38560718D01*
X27448536Y38686159D01*
X27509044Y38832238D01*
X27529682Y38989000D01*
X27509044Y39145762D01*
X27448536Y39291841D01*
X27352282Y39417282D01*
X27226841Y39513536D01*
X27080762Y39574044D01*
X26924000Y39594682D01*
X26767238Y39574044D01*
X26621159Y39513536D01*
X26495718Y39417282D01*
X26399464Y39291841D01*
X26338956Y39145762D01*
X26318318Y38989000D01*
X24420767Y38989000D01*
X24400536Y39037841D01*
X24304282Y39163282D01*
X24178841Y39259536D01*
X24032762Y39320044D01*
X23876000Y39340682D01*
X23719238Y39320044D01*
X23573159Y39259536D01*
X23447718Y39163282D01*
X23351464Y39037841D01*
X23290956Y38891762D01*
X23270318Y38735000D01*
X17742644Y38735000D01*
X17638349Y38815028D01*
X17492270Y38875536D01*
X17335508Y38896174D01*
X17178746Y38875536D01*
X17032667Y38815028D01*
X16907226Y38718774D01*
X16810972Y38593333D01*
X16750464Y38447254D01*
X16729826Y38290492D01*
X10821136Y38290492D01*
X10842282Y38306718D01*
X10938536Y38432159D01*
X10999044Y38578238D01*
X11019682Y38735000D01*
X10999044Y38891762D01*
X10938536Y39037841D01*
X10842282Y39163282D01*
X10716841Y39259536D01*
X10570762Y39320044D01*
X10414000Y39340682D01*
X10257238Y39320044D01*
X10111159Y39259536D01*
X10104607Y39254509D01*
X10097454Y39250379D01*
X10095896Y39253078D01*
X10043459Y39232818D01*
X9973913Y39247096D01*
X9968616Y39250500D01*
X9968546Y39250379D01*
X9961393Y39254509D01*
X9954841Y39259536D01*
X9808762Y39320044D01*
X9652000Y39340682D01*
X9495238Y39320044D01*
X9349159Y39259536D01*
X9223718Y39163282D01*
X9127464Y39037841D01*
X9066956Y38891762D01*
X9046318Y38735000D01*
X9066956Y38578238D01*
X9127464Y38432159D01*
X9223718Y38306718D01*
X9349159Y38210464D01*
X9354450Y38208272D01*
X9402636Y38157738D01*
X9416074Y38088025D01*
X9389688Y38022114D01*
X9354776Y37991863D01*
X9349159Y37989536D01*
X9223718Y37893282D01*
X9127464Y37767841D01*
X9066956Y37621762D01*
X9046318Y37465000D01*
X2460000Y37465000D01*
X2460000Y41089000D01*
X45629318Y41089000D01*
X45649956Y40932238D01*
X45710464Y40786159D01*
X45806718Y40660718D01*
X45932159Y40564464D01*
X46078238Y40503956D01*
X46235000Y40483318D01*
X46243188Y40484396D01*
X46383574Y40502878D01*
X46391762Y40503956D01*
X46537841Y40564464D01*
X46663282Y40660718D01*
X46759536Y40786159D01*
X46820044Y40932238D01*
X46840682Y41089000D01*
X46820044Y41245762D01*
X46759536Y41391841D01*
X46663282Y41517282D01*
X46537841Y41613536D01*
X46391762Y41674044D01*
X46235000Y41694682D01*
X46078238Y41674044D01*
X45932159Y41613536D01*
X45806718Y41517282D01*
X45710464Y41391841D01*
X45649956Y41245762D01*
X45629318Y41089000D01*
X2460000Y41089000D01*
X2460000Y42339500D01*
X12904818Y42339500D01*
X12925456Y42182738D01*
X12985964Y42036659D01*
X13082218Y41911218D01*
X13207659Y41814964D01*
X13353738Y41754456D01*
X13510500Y41733818D01*
X13518688Y41734896D01*
X13659074Y41753378D01*
X13667262Y41754456D01*
X13813341Y41814964D01*
X13938782Y41911218D01*
X14035036Y42036659D01*
X14095544Y42182738D01*
X14116182Y42339500D01*
X14095544Y42496262D01*
X14042684Y42623877D01*
X23687234Y42623877D01*
X23707872Y42467115D01*
X23768380Y42321036D01*
X23864634Y42195595D01*
X23990075Y42099341D01*
X24136154Y42038833D01*
X24292916Y42018195D01*
X24301104Y42019273D01*
X24441490Y42037755D01*
X24449678Y42038833D01*
X24595757Y42099341D01*
X24721198Y42195595D01*
X24817452Y42321036D01*
X24877960Y42467115D01*
X24898598Y42623877D01*
X24877960Y42780639D01*
X24870355Y42799000D01*
X26318318Y42799000D01*
X26338956Y42642238D01*
X26399464Y42496159D01*
X26495718Y42370718D01*
X26621159Y42274464D01*
X26767238Y42213956D01*
X26924000Y42193318D01*
X26932188Y42194396D01*
X26941296Y42195595D01*
X27080762Y42213956D01*
X27226841Y42274464D01*
X27352282Y42370718D01*
X27448536Y42496159D01*
X27509044Y42642238D01*
X27529682Y42799000D01*
X27509044Y42955762D01*
X27448536Y43101841D01*
X27352282Y43227282D01*
X27226841Y43323536D01*
X27080762Y43384044D01*
X26924000Y43404682D01*
X26767238Y43384044D01*
X26621159Y43323536D01*
X26495718Y43227282D01*
X26399464Y43101841D01*
X26338956Y42955762D01*
X26318318Y42799000D01*
X24870355Y42799000D01*
X24817452Y42926718D01*
X24721198Y43052159D01*
X24595757Y43148413D01*
X24449678Y43208921D01*
X24292916Y43229559D01*
X24136154Y43208921D01*
X23990075Y43148413D01*
X23864634Y43052159D01*
X23768380Y42926718D01*
X23707872Y42780639D01*
X23687234Y42623877D01*
X14042684Y42623877D01*
X14035036Y42642341D01*
X14030009Y42648893D01*
X14025879Y42656046D01*
X14028578Y42657604D01*
X14008318Y42710041D01*
X14022596Y42779587D01*
X14026000Y42784884D01*
X14025879Y42784954D01*
X14030009Y42792107D01*
X14035036Y42798659D01*
X14095544Y42944738D01*
X14116182Y43101500D01*
X14095544Y43258262D01*
X14035036Y43404341D01*
X13938782Y43529782D01*
X13813341Y43626036D01*
X13667262Y43686544D01*
X13510500Y43707182D01*
X13353738Y43686544D01*
X13207659Y43626036D01*
X13082218Y43529782D01*
X12985964Y43404341D01*
X12925456Y43258262D01*
X12904818Y43101500D01*
X12925456Y42944738D01*
X12985964Y42798659D01*
X12990991Y42792107D01*
X12995121Y42784954D01*
X12992422Y42783396D01*
X13012682Y42730959D01*
X12998404Y42661413D01*
X12995000Y42656116D01*
X12995121Y42656046D01*
X12990991Y42648893D01*
X12985964Y42642341D01*
X12925456Y42496262D01*
X12904818Y42339500D01*
X2460000Y42339500D01*
X2460000Y45465183D01*
X27706574Y45465183D01*
X27727212Y45308421D01*
X27787720Y45162342D01*
X27883974Y45036901D01*
X28009415Y44940647D01*
X28155494Y44880139D01*
X28312256Y44859501D01*
X28320444Y44860579D01*
X28460830Y44879061D01*
X28469018Y44880139D01*
X28615097Y44940647D01*
X28740538Y45036901D01*
X28836792Y45162342D01*
X28897300Y45308421D01*
X28917938Y45465183D01*
X28897300Y45621945D01*
X28836792Y45768024D01*
X28773890Y45850000D01*
X49094318Y45850000D01*
X49114956Y45693238D01*
X49175464Y45547159D01*
X49271718Y45421718D01*
X49397159Y45325464D01*
X49543238Y45264956D01*
X49700000Y45244318D01*
X49708188Y45245396D01*
X49848574Y45263878D01*
X49856762Y45264956D01*
X50002841Y45325464D01*
X50128282Y45421718D01*
X50224536Y45547159D01*
X50285044Y45693238D01*
X50305682Y45850000D01*
X50299099Y45900000D01*
X51594318Y45900000D01*
X51614956Y45743238D01*
X51675464Y45597159D01*
X51771718Y45471718D01*
X51778264Y45466695D01*
X51790905Y45456995D01*
X51897159Y45375464D01*
X52043238Y45314956D01*
X52051426Y45313878D01*
X52121619Y45304637D01*
X52200000Y45294318D01*
X52208188Y45295396D01*
X52348574Y45313878D01*
X52356762Y45314956D01*
X52502841Y45375464D01*
X52609095Y45456995D01*
X52621736Y45466695D01*
X52628282Y45471718D01*
X52724536Y45597159D01*
X52785044Y45743238D01*
X52805682Y45900000D01*
X52785044Y46056762D01*
X52724536Y46202841D01*
X52628282Y46328282D01*
X52502841Y46424536D01*
X52356762Y46485044D01*
X52200000Y46505682D01*
X52043238Y46485044D01*
X51897159Y46424536D01*
X51771718Y46328282D01*
X51675464Y46202841D01*
X51614956Y46056762D01*
X51594318Y45900000D01*
X50299099Y45900000D01*
X50285044Y46006762D01*
X50224536Y46152841D01*
X50128282Y46278282D01*
X50002841Y46374536D01*
X49856762Y46435044D01*
X49700000Y46455682D01*
X49543238Y46435044D01*
X49397159Y46374536D01*
X49271718Y46278282D01*
X49175464Y46152841D01*
X49114956Y46006762D01*
X49094318Y45850000D01*
X28773890Y45850000D01*
X28740538Y45893465D01*
X28732022Y45900000D01*
X28621648Y45984692D01*
X28615097Y45989719D01*
X28469018Y46050227D01*
X28419380Y46056762D01*
X28320444Y46069787D01*
X28312256Y46070865D01*
X28304068Y46069787D01*
X28205133Y46056762D01*
X28155494Y46050227D01*
X28009415Y45989719D01*
X28002864Y45984692D01*
X27892491Y45900000D01*
X27883974Y45893465D01*
X27787720Y45768024D01*
X27727212Y45621945D01*
X27706574Y45465183D01*
X2460000Y45465183D01*
X2460000Y47439000D01*
X46899318Y47439000D01*
X46919956Y47282238D01*
X46980464Y47136159D01*
X47076718Y47010718D01*
X47202159Y46914464D01*
X47348238Y46853956D01*
X47505000Y46833318D01*
X47513188Y46834396D01*
X47653574Y46852878D01*
X47661762Y46853956D01*
X47807841Y46914464D01*
X47933282Y47010718D01*
X48029536Y47136159D01*
X48090044Y47282238D01*
X48110682Y47439000D01*
X48090044Y47595762D01*
X48029536Y47741841D01*
X47933282Y47867282D01*
X47807841Y47963536D01*
X47661762Y48024044D01*
X47505000Y48044682D01*
X47348238Y48024044D01*
X47202159Y47963536D01*
X47076718Y47867282D01*
X46980464Y47741841D01*
X46919956Y47595762D01*
X46899318Y47439000D01*
X2460000Y47439000D01*
X2460000Y49696671D01*
X28494285Y49696671D01*
X28514923Y49539909D01*
X28575431Y49393830D01*
X28671685Y49268389D01*
X28797126Y49172135D01*
X28943205Y49111627D01*
X29099967Y49090989D01*
X29108155Y49092067D01*
X29248541Y49110549D01*
X29256729Y49111627D01*
X29402808Y49172135D01*
X29528249Y49268389D01*
X29624503Y49393830D01*
X29685011Y49539909D01*
X29705649Y49696671D01*
X29685011Y49853433D01*
X29624503Y49999512D01*
X29528249Y50124953D01*
X29402808Y50221207D01*
X29256729Y50281715D01*
X29099967Y50302353D01*
X28943205Y50281715D01*
X28797126Y50221207D01*
X28671685Y50124953D01*
X28575431Y49999512D01*
X28514923Y49853433D01*
X28494285Y49696671D01*
X2460000Y49696671D01*
X2460000Y56257490D01*
X13385355Y56257490D01*
X13403494Y56084914D01*
X13457116Y55919879D01*
X13543880Y55769601D01*
X13659992Y55640645D01*
X13800378Y55538648D01*
X13806406Y55535964D01*
X13806408Y55535963D01*
X13952872Y55470753D01*
X13958903Y55468068D01*
X14043770Y55450029D01*
X14122181Y55433362D01*
X14122185Y55433362D01*
X14128638Y55431990D01*
X14302166Y55431990D01*
X14308619Y55433362D01*
X14308623Y55433362D01*
X14387034Y55450029D01*
X14471901Y55468068D01*
X14477932Y55470753D01*
X14624396Y55535963D01*
X14624398Y55535964D01*
X14630426Y55538648D01*
X14770812Y55640645D01*
X14886924Y55769601D01*
X14973688Y55919879D01*
X15027310Y56084914D01*
X15045449Y56257490D01*
X15885355Y56257490D01*
X15903494Y56084914D01*
X15957116Y55919879D01*
X16043880Y55769601D01*
X16159992Y55640645D01*
X16300378Y55538648D01*
X16306406Y55535964D01*
X16306408Y55535963D01*
X16452872Y55470753D01*
X16458903Y55468068D01*
X16543770Y55450029D01*
X16622181Y55433362D01*
X16622185Y55433362D01*
X16628638Y55431990D01*
X16802166Y55431990D01*
X16808619Y55433362D01*
X16808623Y55433362D01*
X16887034Y55450029D01*
X16971901Y55468068D01*
X16977932Y55470753D01*
X17124396Y55535963D01*
X17124398Y55535964D01*
X17130426Y55538648D01*
X17270812Y55640645D01*
X17386924Y55769601D01*
X17473688Y55919879D01*
X17527310Y56084914D01*
X17545449Y56257490D01*
X18385355Y56257490D01*
X18403494Y56084914D01*
X18457116Y55919879D01*
X18543880Y55769601D01*
X18659992Y55640645D01*
X18800378Y55538648D01*
X18806406Y55535964D01*
X18806408Y55535963D01*
X18952872Y55470753D01*
X18958903Y55468068D01*
X19043770Y55450029D01*
X19122181Y55433362D01*
X19122185Y55433362D01*
X19128638Y55431990D01*
X19302166Y55431990D01*
X19308619Y55433362D01*
X19308623Y55433362D01*
X19387034Y55450029D01*
X19471901Y55468068D01*
X19477932Y55470753D01*
X19624396Y55535963D01*
X19624398Y55535964D01*
X19630426Y55538648D01*
X19770812Y55640645D01*
X19886924Y55769601D01*
X19973688Y55919879D01*
X20027310Y56084914D01*
X20045449Y56257490D01*
X20885355Y56257490D01*
X20903494Y56084914D01*
X20957116Y55919879D01*
X21043880Y55769601D01*
X21159992Y55640645D01*
X21300378Y55538648D01*
X21306406Y55535964D01*
X21306408Y55535963D01*
X21452872Y55470753D01*
X21458903Y55468068D01*
X21543770Y55450029D01*
X21622181Y55433362D01*
X21622185Y55433362D01*
X21628638Y55431990D01*
X21802166Y55431990D01*
X21808619Y55433362D01*
X21808623Y55433362D01*
X21887034Y55450029D01*
X21971901Y55468068D01*
X21977932Y55470753D01*
X22124396Y55535963D01*
X22124398Y55535964D01*
X22130426Y55538648D01*
X22270812Y55640645D01*
X22386924Y55769601D01*
X22473688Y55919879D01*
X22527310Y56084914D01*
X22545449Y56257490D01*
X23385355Y56257490D01*
X23403494Y56084914D01*
X23457116Y55919879D01*
X23543880Y55769601D01*
X23659992Y55640645D01*
X23800378Y55538648D01*
X23806406Y55535964D01*
X23806408Y55535963D01*
X23952872Y55470753D01*
X23958903Y55468068D01*
X24043770Y55450029D01*
X24122181Y55433362D01*
X24122185Y55433362D01*
X24128638Y55431990D01*
X24302166Y55431990D01*
X24308619Y55433362D01*
X24308623Y55433362D01*
X24387034Y55450029D01*
X24471901Y55468068D01*
X24477932Y55470753D01*
X24624396Y55535963D01*
X24624398Y55535964D01*
X24630426Y55538648D01*
X24770812Y55640645D01*
X24886924Y55769601D01*
X24973688Y55919879D01*
X25027310Y56084914D01*
X25045449Y56257490D01*
X25885355Y56257490D01*
X25903494Y56084914D01*
X25957116Y55919879D01*
X26043880Y55769601D01*
X26159992Y55640645D01*
X26300378Y55538648D01*
X26306406Y55535964D01*
X26306408Y55535963D01*
X26452872Y55470753D01*
X26458903Y55468068D01*
X26543770Y55450029D01*
X26622181Y55433362D01*
X26622185Y55433362D01*
X26628638Y55431990D01*
X26802166Y55431990D01*
X26808619Y55433362D01*
X26808623Y55433362D01*
X26887034Y55450029D01*
X26971901Y55468068D01*
X26977932Y55470753D01*
X27124396Y55535963D01*
X27124398Y55535964D01*
X27130426Y55538648D01*
X27270812Y55640645D01*
X27386924Y55769601D01*
X27473688Y55919879D01*
X27527310Y56084914D01*
X27545449Y56257490D01*
X28385355Y56257490D01*
X28403494Y56084914D01*
X28457116Y55919879D01*
X28543880Y55769601D01*
X28659992Y55640645D01*
X28800378Y55538648D01*
X28806406Y55535964D01*
X28806408Y55535963D01*
X28952872Y55470753D01*
X28958903Y55468068D01*
X29043770Y55450029D01*
X29122181Y55433362D01*
X29122185Y55433362D01*
X29128638Y55431990D01*
X29302166Y55431990D01*
X29308619Y55433362D01*
X29308623Y55433362D01*
X29387034Y55450029D01*
X29471901Y55468068D01*
X29477932Y55470753D01*
X29624396Y55535963D01*
X29624398Y55535964D01*
X29630426Y55538648D01*
X29684988Y55578290D01*
X31253832Y55578290D01*
X31262660Y55566671D01*
X31295288Y55542965D01*
X31306660Y55536399D01*
X31453028Y55471232D01*
X31465516Y55467175D01*
X31622234Y55433862D01*
X31635294Y55432490D01*
X31795510Y55432490D01*
X31808570Y55433862D01*
X31965288Y55467175D01*
X31977776Y55471232D01*
X32124144Y55536399D01*
X32135516Y55542965D01*
X32168515Y55566940D01*
X32176939Y55577865D01*
X32176711Y55578290D01*
X33753832Y55578290D01*
X33762660Y55566671D01*
X33795288Y55542965D01*
X33806660Y55536399D01*
X33953028Y55471232D01*
X33965516Y55467175D01*
X34122234Y55433862D01*
X34135294Y55432490D01*
X34295510Y55432490D01*
X34308570Y55433862D01*
X34465288Y55467175D01*
X34477776Y55471232D01*
X34624144Y55536399D01*
X34635516Y55542965D01*
X34668515Y55566940D01*
X34676939Y55577865D01*
X34670036Y55590724D01*
X34228214Y56032546D01*
X34214270Y56040160D01*
X34212437Y56040029D01*
X34205822Y56035778D01*
X33760445Y55590401D01*
X33753832Y55578290D01*
X32176711Y55578290D01*
X32170036Y55590724D01*
X31728214Y56032546D01*
X31714270Y56040160D01*
X31712437Y56040029D01*
X31705822Y56035778D01*
X31260445Y55590401D01*
X31253832Y55578290D01*
X29684988Y55578290D01*
X29770812Y55640645D01*
X29886924Y55769601D01*
X29973688Y55919879D01*
X30027310Y56084914D01*
X30044759Y56250925D01*
X30886548Y56250925D01*
X30903296Y56091582D01*
X30906026Y56078739D01*
X30955534Y55926369D01*
X30960880Y55914361D01*
X31024757Y55803724D01*
X31034963Y55793993D01*
X31042984Y55797204D01*
X31490458Y56244678D01*
X31496836Y56256358D01*
X31932732Y56256358D01*
X31932863Y56254525D01*
X31937114Y56247910D01*
X32384177Y55800847D01*
X32396557Y55794087D01*
X32403472Y55799263D01*
X32469924Y55914361D01*
X32475270Y55926369D01*
X32524778Y56078739D01*
X32527508Y56091582D01*
X32544256Y56250925D01*
X33386548Y56250925D01*
X33403296Y56091582D01*
X33406026Y56078739D01*
X33455534Y55926369D01*
X33460880Y55914361D01*
X33524757Y55803724D01*
X33534963Y55793993D01*
X33542984Y55797204D01*
X33990458Y56244678D01*
X33996836Y56256358D01*
X34432732Y56256358D01*
X34432863Y56254525D01*
X34437114Y56247910D01*
X34884177Y55800847D01*
X34896557Y55794087D01*
X34903472Y55799263D01*
X34969924Y55914361D01*
X34975270Y55926369D01*
X35024778Y56078739D01*
X35027508Y56091582D01*
X35044256Y56250925D01*
X35044256Y56257490D01*
X35885355Y56257490D01*
X35903494Y56084914D01*
X35957116Y55919879D01*
X36043880Y55769601D01*
X36159992Y55640645D01*
X36300378Y55538648D01*
X36306406Y55535964D01*
X36306408Y55535963D01*
X36452872Y55470753D01*
X36458903Y55468068D01*
X36543770Y55450029D01*
X36622181Y55433362D01*
X36622185Y55433362D01*
X36628638Y55431990D01*
X36802166Y55431990D01*
X36808619Y55433362D01*
X36808623Y55433362D01*
X36887034Y55450029D01*
X36971901Y55468068D01*
X36977932Y55470753D01*
X37124396Y55535963D01*
X37124398Y55535964D01*
X37130426Y55538648D01*
X37270812Y55640645D01*
X37386924Y55769601D01*
X37473688Y55919879D01*
X37527310Y56084914D01*
X37545449Y56257490D01*
X38385355Y56257490D01*
X38403494Y56084914D01*
X38457116Y55919879D01*
X38543880Y55769601D01*
X38659992Y55640645D01*
X38800378Y55538648D01*
X38806406Y55535964D01*
X38806408Y55535963D01*
X38952872Y55470753D01*
X38958903Y55468068D01*
X39043770Y55450029D01*
X39122181Y55433362D01*
X39122185Y55433362D01*
X39128638Y55431990D01*
X39302166Y55431990D01*
X39308619Y55433362D01*
X39308623Y55433362D01*
X39387034Y55450029D01*
X39471901Y55468068D01*
X39477932Y55470753D01*
X39624396Y55535963D01*
X39624398Y55535964D01*
X39630426Y55538648D01*
X39770812Y55640645D01*
X39886924Y55769601D01*
X39973688Y55919879D01*
X40027310Y56084914D01*
X40045449Y56257490D01*
X40885355Y56257490D01*
X40903494Y56084914D01*
X40957116Y55919879D01*
X41043880Y55769601D01*
X41159992Y55640645D01*
X41300378Y55538648D01*
X41306406Y55535964D01*
X41306408Y55535963D01*
X41452872Y55470753D01*
X41458903Y55468068D01*
X41543770Y55450029D01*
X41622181Y55433362D01*
X41622185Y55433362D01*
X41628638Y55431990D01*
X41802166Y55431990D01*
X41808619Y55433362D01*
X41808623Y55433362D01*
X41887034Y55450029D01*
X41971901Y55468068D01*
X41977932Y55470753D01*
X42124396Y55535963D01*
X42124398Y55535964D01*
X42130426Y55538648D01*
X42270812Y55640645D01*
X42386924Y55769601D01*
X42473688Y55919879D01*
X42527310Y56084914D01*
X42545449Y56257490D01*
X43385355Y56257490D01*
X43403494Y56084914D01*
X43457116Y55919879D01*
X43543880Y55769601D01*
X43659992Y55640645D01*
X43800378Y55538648D01*
X43806406Y55535964D01*
X43806408Y55535963D01*
X43952872Y55470753D01*
X43958903Y55468068D01*
X44043770Y55450029D01*
X44122181Y55433362D01*
X44122185Y55433362D01*
X44128638Y55431990D01*
X44302166Y55431990D01*
X44308619Y55433362D01*
X44308623Y55433362D01*
X44387034Y55450029D01*
X44471901Y55468068D01*
X44477932Y55470753D01*
X44624396Y55535963D01*
X44624398Y55535964D01*
X44630426Y55538648D01*
X44770812Y55640645D01*
X44886924Y55769601D01*
X44973688Y55919879D01*
X45027310Y56084914D01*
X45045449Y56257490D01*
X45027310Y56430066D01*
X44973688Y56595101D01*
X44886924Y56745379D01*
X44770812Y56874335D01*
X44630426Y56976332D01*
X44624398Y56979016D01*
X44624396Y56979017D01*
X44477932Y57044227D01*
X44477931Y57044227D01*
X44471901Y57046912D01*
X44387034Y57064951D01*
X44308623Y57081618D01*
X44308619Y57081618D01*
X44302166Y57082990D01*
X44128638Y57082990D01*
X44122185Y57081618D01*
X44122181Y57081618D01*
X44043770Y57064951D01*
X43958903Y57046912D01*
X43952874Y57044228D01*
X43952872Y57044227D01*
X43806409Y56979017D01*
X43806407Y56979016D01*
X43800379Y56976332D01*
X43795038Y56972452D01*
X43795037Y56972451D01*
X43761809Y56948309D01*
X43659992Y56874335D01*
X43543880Y56745379D01*
X43457116Y56595101D01*
X43403494Y56430066D01*
X43385355Y56257490D01*
X42545449Y56257490D01*
X42527310Y56430066D01*
X42473688Y56595101D01*
X42386924Y56745379D01*
X42270812Y56874335D01*
X42130426Y56976332D01*
X42124398Y56979016D01*
X42124396Y56979017D01*
X41977932Y57044227D01*
X41977931Y57044227D01*
X41971901Y57046912D01*
X41887034Y57064951D01*
X41808623Y57081618D01*
X41808619Y57081618D01*
X41802166Y57082990D01*
X41628638Y57082990D01*
X41622185Y57081618D01*
X41622181Y57081618D01*
X41543770Y57064951D01*
X41458903Y57046912D01*
X41452874Y57044228D01*
X41452872Y57044227D01*
X41306409Y56979017D01*
X41306407Y56979016D01*
X41300379Y56976332D01*
X41295038Y56972452D01*
X41295037Y56972451D01*
X41261809Y56948309D01*
X41159992Y56874335D01*
X41043880Y56745379D01*
X40957116Y56595101D01*
X40903494Y56430066D01*
X40885355Y56257490D01*
X40045449Y56257490D01*
X40027310Y56430066D01*
X39973688Y56595101D01*
X39886924Y56745379D01*
X39770812Y56874335D01*
X39630426Y56976332D01*
X39624398Y56979016D01*
X39624396Y56979017D01*
X39477932Y57044227D01*
X39477931Y57044227D01*
X39471901Y57046912D01*
X39387034Y57064951D01*
X39308623Y57081618D01*
X39308619Y57081618D01*
X39302166Y57082990D01*
X39128638Y57082990D01*
X39122185Y57081618D01*
X39122181Y57081618D01*
X39043770Y57064951D01*
X38958903Y57046912D01*
X38952874Y57044228D01*
X38952872Y57044227D01*
X38806409Y56979017D01*
X38806407Y56979016D01*
X38800379Y56976332D01*
X38795038Y56972452D01*
X38795037Y56972451D01*
X38761809Y56948309D01*
X38659992Y56874335D01*
X38543880Y56745379D01*
X38457116Y56595101D01*
X38403494Y56430066D01*
X38385355Y56257490D01*
X37545449Y56257490D01*
X37527310Y56430066D01*
X37473688Y56595101D01*
X37386924Y56745379D01*
X37270812Y56874335D01*
X37130426Y56976332D01*
X37124398Y56979016D01*
X37124396Y56979017D01*
X36977932Y57044227D01*
X36977931Y57044227D01*
X36971901Y57046912D01*
X36887034Y57064951D01*
X36808623Y57081618D01*
X36808619Y57081618D01*
X36802166Y57082990D01*
X36628638Y57082990D01*
X36622185Y57081618D01*
X36622181Y57081618D01*
X36543770Y57064951D01*
X36458903Y57046912D01*
X36452874Y57044228D01*
X36452872Y57044227D01*
X36306409Y56979017D01*
X36306407Y56979016D01*
X36300379Y56976332D01*
X36295038Y56972452D01*
X36295037Y56972451D01*
X36261809Y56948309D01*
X36159992Y56874335D01*
X36043880Y56745379D01*
X35957116Y56595101D01*
X35903494Y56430066D01*
X35885355Y56257490D01*
X35044256Y56257490D01*
X35044256Y56264055D01*
X35027508Y56423398D01*
X35024778Y56436241D01*
X34975270Y56588611D01*
X34969924Y56600619D01*
X34906047Y56711256D01*
X34895841Y56720987D01*
X34887820Y56717776D01*
X34440346Y56270302D01*
X34432732Y56256358D01*
X33996836Y56256358D01*
X33998072Y56258622D01*
X33997941Y56260455D01*
X33993690Y56267070D01*
X33546627Y56714133D01*
X33534247Y56720893D01*
X33527332Y56715717D01*
X33460880Y56600619D01*
X33455534Y56588611D01*
X33406026Y56436241D01*
X33403296Y56423398D01*
X33386548Y56264055D01*
X33386548Y56250925D01*
X32544256Y56250925D01*
X32544256Y56264055D01*
X32527508Y56423398D01*
X32524778Y56436241D01*
X32475270Y56588611D01*
X32469924Y56600619D01*
X32406047Y56711256D01*
X32395841Y56720987D01*
X32387820Y56717776D01*
X31940346Y56270302D01*
X31932732Y56256358D01*
X31496836Y56256358D01*
X31498072Y56258622D01*
X31497941Y56260455D01*
X31493690Y56267070D01*
X31046627Y56714133D01*
X31034247Y56720893D01*
X31027332Y56715717D01*
X30960880Y56600619D01*
X30955534Y56588611D01*
X30906026Y56436241D01*
X30903296Y56423398D01*
X30886548Y56264055D01*
X30886548Y56250925D01*
X30044759Y56250925D01*
X30045449Y56257490D01*
X30027310Y56430066D01*
X29973688Y56595101D01*
X29886924Y56745379D01*
X29770812Y56874335D01*
X29684403Y56937115D01*
X31253865Y56937115D01*
X31260768Y56924256D01*
X31702590Y56482434D01*
X31716534Y56474820D01*
X31718367Y56474951D01*
X31724982Y56479202D01*
X32170359Y56924579D01*
X32176972Y56936690D01*
X32176649Y56937115D01*
X33753865Y56937115D01*
X33760768Y56924256D01*
X34202590Y56482434D01*
X34216534Y56474820D01*
X34218367Y56474951D01*
X34224982Y56479202D01*
X34670359Y56924579D01*
X34676972Y56936690D01*
X34668144Y56948309D01*
X34635516Y56972015D01*
X34624144Y56978581D01*
X34477776Y57043748D01*
X34465288Y57047805D01*
X34308570Y57081118D01*
X34295510Y57082490D01*
X34135294Y57082490D01*
X34122234Y57081118D01*
X33965516Y57047805D01*
X33953028Y57043748D01*
X33806660Y56978581D01*
X33795288Y56972015D01*
X33762289Y56948040D01*
X33753865Y56937115D01*
X32176649Y56937115D01*
X32168144Y56948309D01*
X32135516Y56972015D01*
X32124144Y56978581D01*
X31977776Y57043748D01*
X31965288Y57047805D01*
X31808570Y57081118D01*
X31795510Y57082490D01*
X31635294Y57082490D01*
X31622234Y57081118D01*
X31465516Y57047805D01*
X31453028Y57043748D01*
X31306660Y56978581D01*
X31295288Y56972015D01*
X31262289Y56948040D01*
X31253865Y56937115D01*
X29684403Y56937115D01*
X29630426Y56976332D01*
X29624398Y56979016D01*
X29624396Y56979017D01*
X29477932Y57044227D01*
X29477931Y57044227D01*
X29471901Y57046912D01*
X29387034Y57064951D01*
X29308623Y57081618D01*
X29308619Y57081618D01*
X29302166Y57082990D01*
X29128638Y57082990D01*
X29122185Y57081618D01*
X29122181Y57081618D01*
X29043770Y57064951D01*
X28958903Y57046912D01*
X28952874Y57044228D01*
X28952872Y57044227D01*
X28806409Y56979017D01*
X28806407Y56979016D01*
X28800379Y56976332D01*
X28795038Y56972452D01*
X28795037Y56972451D01*
X28761809Y56948309D01*
X28659992Y56874335D01*
X28543880Y56745379D01*
X28457116Y56595101D01*
X28403494Y56430066D01*
X28385355Y56257490D01*
X27545449Y56257490D01*
X27527310Y56430066D01*
X27473688Y56595101D01*
X27386924Y56745379D01*
X27270812Y56874335D01*
X27130426Y56976332D01*
X27124398Y56979016D01*
X27124396Y56979017D01*
X26977932Y57044227D01*
X26977931Y57044227D01*
X26971901Y57046912D01*
X26887034Y57064951D01*
X26808623Y57081618D01*
X26808619Y57081618D01*
X26802166Y57082990D01*
X26628638Y57082990D01*
X26622185Y57081618D01*
X26622181Y57081618D01*
X26543770Y57064951D01*
X26458903Y57046912D01*
X26452874Y57044228D01*
X26452872Y57044227D01*
X26306409Y56979017D01*
X26306407Y56979016D01*
X26300379Y56976332D01*
X26295038Y56972452D01*
X26295037Y56972451D01*
X26261809Y56948309D01*
X26159992Y56874335D01*
X26043880Y56745379D01*
X25957116Y56595101D01*
X25903494Y56430066D01*
X25885355Y56257490D01*
X25045449Y56257490D01*
X25027310Y56430066D01*
X24973688Y56595101D01*
X24886924Y56745379D01*
X24770812Y56874335D01*
X24630426Y56976332D01*
X24624398Y56979016D01*
X24624396Y56979017D01*
X24477932Y57044227D01*
X24477931Y57044227D01*
X24471901Y57046912D01*
X24387034Y57064951D01*
X24308623Y57081618D01*
X24308619Y57081618D01*
X24302166Y57082990D01*
X24128638Y57082990D01*
X24122185Y57081618D01*
X24122181Y57081618D01*
X24043770Y57064951D01*
X23958903Y57046912D01*
X23952874Y57044228D01*
X23952872Y57044227D01*
X23806409Y56979017D01*
X23806407Y56979016D01*
X23800379Y56976332D01*
X23795038Y56972452D01*
X23795037Y56972451D01*
X23761809Y56948309D01*
X23659992Y56874335D01*
X23543880Y56745379D01*
X23457116Y56595101D01*
X23403494Y56430066D01*
X23385355Y56257490D01*
X22545449Y56257490D01*
X22527310Y56430066D01*
X22473688Y56595101D01*
X22386924Y56745379D01*
X22270812Y56874335D01*
X22130426Y56976332D01*
X22124398Y56979016D01*
X22124396Y56979017D01*
X21977932Y57044227D01*
X21977931Y57044227D01*
X21971901Y57046912D01*
X21887034Y57064951D01*
X21808623Y57081618D01*
X21808619Y57081618D01*
X21802166Y57082990D01*
X21628638Y57082990D01*
X21622185Y57081618D01*
X21622181Y57081618D01*
X21543770Y57064951D01*
X21458903Y57046912D01*
X21452874Y57044228D01*
X21452872Y57044227D01*
X21306409Y56979017D01*
X21306407Y56979016D01*
X21300379Y56976332D01*
X21295038Y56972452D01*
X21295037Y56972451D01*
X21261809Y56948309D01*
X21159992Y56874335D01*
X21043880Y56745379D01*
X20957116Y56595101D01*
X20903494Y56430066D01*
X20885355Y56257490D01*
X20045449Y56257490D01*
X20027310Y56430066D01*
X19973688Y56595101D01*
X19886924Y56745379D01*
X19770812Y56874335D01*
X19630426Y56976332D01*
X19624398Y56979016D01*
X19624396Y56979017D01*
X19477932Y57044227D01*
X19477931Y57044227D01*
X19471901Y57046912D01*
X19387034Y57064951D01*
X19308623Y57081618D01*
X19308619Y57081618D01*
X19302166Y57082990D01*
X19128638Y57082990D01*
X19122185Y57081618D01*
X19122181Y57081618D01*
X19043770Y57064951D01*
X18958903Y57046912D01*
X18952874Y57044228D01*
X18952872Y57044227D01*
X18806409Y56979017D01*
X18806407Y56979016D01*
X18800379Y56976332D01*
X18795038Y56972452D01*
X18795037Y56972451D01*
X18761809Y56948309D01*
X18659992Y56874335D01*
X18543880Y56745379D01*
X18457116Y56595101D01*
X18403494Y56430066D01*
X18385355Y56257490D01*
X17545449Y56257490D01*
X17527310Y56430066D01*
X17473688Y56595101D01*
X17386924Y56745379D01*
X17270812Y56874335D01*
X17130426Y56976332D01*
X17124398Y56979016D01*
X17124396Y56979017D01*
X16977932Y57044227D01*
X16977931Y57044227D01*
X16971901Y57046912D01*
X16887034Y57064951D01*
X16808623Y57081618D01*
X16808619Y57081618D01*
X16802166Y57082990D01*
X16628638Y57082990D01*
X16622185Y57081618D01*
X16622181Y57081618D01*
X16543770Y57064951D01*
X16458903Y57046912D01*
X16452874Y57044228D01*
X16452872Y57044227D01*
X16306409Y56979017D01*
X16306407Y56979016D01*
X16300379Y56976332D01*
X16295038Y56972452D01*
X16295037Y56972451D01*
X16261809Y56948309D01*
X16159992Y56874335D01*
X16043880Y56745379D01*
X15957116Y56595101D01*
X15903494Y56430066D01*
X15885355Y56257490D01*
X15045449Y56257490D01*
X15027310Y56430066D01*
X14973688Y56595101D01*
X14886924Y56745379D01*
X14770812Y56874335D01*
X14630426Y56976332D01*
X14624398Y56979016D01*
X14624396Y56979017D01*
X14477932Y57044227D01*
X14477931Y57044227D01*
X14471901Y57046912D01*
X14387034Y57064951D01*
X14308623Y57081618D01*
X14308619Y57081618D01*
X14302166Y57082990D01*
X14128638Y57082990D01*
X14122185Y57081618D01*
X14122181Y57081618D01*
X14043770Y57064951D01*
X13958903Y57046912D01*
X13952874Y57044228D01*
X13952872Y57044227D01*
X13806409Y56979017D01*
X13806407Y56979016D01*
X13800379Y56976332D01*
X13795038Y56972452D01*
X13795037Y56972451D01*
X13761809Y56948309D01*
X13659992Y56874335D01*
X13543880Y56745379D01*
X13457116Y56595101D01*
X13403494Y56430066D01*
X13385355Y56257490D01*
X2460000Y56257490D01*
X2460000Y60788532D01*
X6615610Y60788532D01*
X6632093Y60502675D01*
X6632918Y60498470D01*
X6632919Y60498462D01*
X6664721Y60336371D01*
X6687218Y60221700D01*
X6688605Y60217650D01*
X6688606Y60217645D01*
X6778577Y59954862D01*
X6779966Y59950806D01*
X6815285Y59880581D01*
X6900447Y59711256D01*
X6908620Y59695005D01*
X6911046Y59691476D01*
X6911049Y59691470D01*
X6973354Y59600816D01*
X7070800Y59459032D01*
X7112012Y59413741D01*
X7260163Y59250925D01*
X7263505Y59247252D01*
X7266793Y59244503D01*
X7479877Y59066336D01*
X7479882Y59066332D01*
X7483169Y59063584D01*
X7547236Y59023395D01*
X7722087Y58913711D01*
X7722091Y58913709D01*
X7725727Y58911428D01*
X7986690Y58793599D01*
X7990809Y58792379D01*
X8257118Y58713494D01*
X8257123Y58713493D01*
X8261231Y58712276D01*
X8265465Y58711628D01*
X8265470Y58711627D01*
X8516274Y58673249D01*
X8544268Y58668965D01*
X8690084Y58666675D01*
X8826273Y58664535D01*
X8826279Y58664535D01*
X8830564Y58664468D01*
X9114822Y58698867D01*
X9391782Y58771526D01*
X9395742Y58773166D01*
X9395747Y58773168D01*
X9538512Y58832304D01*
X9656318Y58881100D01*
X9708219Y58911428D01*
X9899827Y59023395D01*
X9899829Y59023397D01*
X9903535Y59025562D01*
X10128860Y59202239D01*
X10182402Y59257490D01*
X13385355Y59257490D01*
X13403494Y59084914D01*
X13457116Y58919879D01*
X13543880Y58769601D01*
X13548301Y58764691D01*
X13608034Y58698351D01*
X13659992Y58640645D01*
X13800378Y58538648D01*
X13806406Y58535964D01*
X13806408Y58535963D01*
X13952872Y58470753D01*
X13958903Y58468068D01*
X14043770Y58450029D01*
X14122181Y58433362D01*
X14122185Y58433362D01*
X14128638Y58431990D01*
X14302166Y58431990D01*
X14308619Y58433362D01*
X14308623Y58433362D01*
X14387034Y58450029D01*
X14471901Y58468068D01*
X14477932Y58470753D01*
X14624396Y58535963D01*
X14624398Y58535964D01*
X14630426Y58538648D01*
X14770812Y58640645D01*
X14822771Y58698351D01*
X14882503Y58764691D01*
X14886924Y58769601D01*
X14973688Y58919879D01*
X15027310Y59084914D01*
X15045449Y59257490D01*
X15885355Y59257490D01*
X15903494Y59084914D01*
X15957116Y58919879D01*
X16043880Y58769601D01*
X16048301Y58764691D01*
X16108034Y58698351D01*
X16159992Y58640645D01*
X16300378Y58538648D01*
X16306406Y58535964D01*
X16306408Y58535963D01*
X16452872Y58470753D01*
X16458903Y58468068D01*
X16543770Y58450029D01*
X16622181Y58433362D01*
X16622185Y58433362D01*
X16628638Y58431990D01*
X16802166Y58431990D01*
X16808619Y58433362D01*
X16808623Y58433362D01*
X16887034Y58450029D01*
X16971901Y58468068D01*
X16977932Y58470753D01*
X17124396Y58535963D01*
X17124398Y58535964D01*
X17130426Y58538648D01*
X17270812Y58640645D01*
X17322771Y58698351D01*
X17382503Y58764691D01*
X17386924Y58769601D01*
X17473688Y58919879D01*
X17527310Y59084914D01*
X17545449Y59257490D01*
X18385355Y59257490D01*
X18403494Y59084914D01*
X18457116Y58919879D01*
X18543880Y58769601D01*
X18548301Y58764691D01*
X18608034Y58698351D01*
X18659992Y58640645D01*
X18800378Y58538648D01*
X18806406Y58535964D01*
X18806408Y58535963D01*
X18952872Y58470753D01*
X18958903Y58468068D01*
X19043770Y58450029D01*
X19122181Y58433362D01*
X19122185Y58433362D01*
X19128638Y58431990D01*
X19302166Y58431990D01*
X19308619Y58433362D01*
X19308623Y58433362D01*
X19387034Y58450029D01*
X19471901Y58468068D01*
X19477932Y58470753D01*
X19624396Y58535963D01*
X19624398Y58535964D01*
X19630426Y58538648D01*
X19770812Y58640645D01*
X19822771Y58698351D01*
X19882503Y58764691D01*
X19886924Y58769601D01*
X19973688Y58919879D01*
X20027310Y59084914D01*
X20045449Y59257490D01*
X20885355Y59257490D01*
X20903494Y59084914D01*
X20957116Y58919879D01*
X21043880Y58769601D01*
X21048301Y58764691D01*
X21108034Y58698351D01*
X21159992Y58640645D01*
X21300378Y58538648D01*
X21306406Y58535964D01*
X21306408Y58535963D01*
X21452872Y58470753D01*
X21458903Y58468068D01*
X21543770Y58450029D01*
X21622181Y58433362D01*
X21622185Y58433362D01*
X21628638Y58431990D01*
X21802166Y58431990D01*
X21808619Y58433362D01*
X21808623Y58433362D01*
X21887034Y58450029D01*
X21971901Y58468068D01*
X21977932Y58470753D01*
X22124396Y58535963D01*
X22124398Y58535964D01*
X22130426Y58538648D01*
X22270812Y58640645D01*
X22322771Y58698351D01*
X22382503Y58764691D01*
X22386924Y58769601D01*
X22473688Y58919879D01*
X22527310Y59084914D01*
X22545449Y59257490D01*
X23385355Y59257490D01*
X23403494Y59084914D01*
X23457116Y58919879D01*
X23543880Y58769601D01*
X23548301Y58764691D01*
X23608034Y58698351D01*
X23659992Y58640645D01*
X23800378Y58538648D01*
X23806406Y58535964D01*
X23806408Y58535963D01*
X23952872Y58470753D01*
X23958903Y58468068D01*
X24043770Y58450029D01*
X24122181Y58433362D01*
X24122185Y58433362D01*
X24128638Y58431990D01*
X24302166Y58431990D01*
X24308619Y58433362D01*
X24308623Y58433362D01*
X24387034Y58450029D01*
X24471901Y58468068D01*
X24477932Y58470753D01*
X24624396Y58535963D01*
X24624398Y58535964D01*
X24630426Y58538648D01*
X24770812Y58640645D01*
X24822771Y58698351D01*
X24882503Y58764691D01*
X24886924Y58769601D01*
X24973688Y58919879D01*
X25027310Y59084914D01*
X25045449Y59257490D01*
X25885355Y59257490D01*
X25903494Y59084914D01*
X25957116Y58919879D01*
X26043880Y58769601D01*
X26048301Y58764691D01*
X26108034Y58698351D01*
X26159992Y58640645D01*
X26300378Y58538648D01*
X26306406Y58535964D01*
X26306408Y58535963D01*
X26452872Y58470753D01*
X26458903Y58468068D01*
X26543770Y58450029D01*
X26622181Y58433362D01*
X26622185Y58433362D01*
X26628638Y58431990D01*
X26802166Y58431990D01*
X26808619Y58433362D01*
X26808623Y58433362D01*
X26887034Y58450029D01*
X26971901Y58468068D01*
X26977932Y58470753D01*
X27124396Y58535963D01*
X27124398Y58535964D01*
X27130426Y58538648D01*
X27270812Y58640645D01*
X27322771Y58698351D01*
X27382503Y58764691D01*
X27386924Y58769601D01*
X27473688Y58919879D01*
X27527310Y59084914D01*
X27545449Y59257490D01*
X28385355Y59257490D01*
X28403494Y59084914D01*
X28457116Y58919879D01*
X28543880Y58769601D01*
X28548301Y58764691D01*
X28608034Y58698351D01*
X28659992Y58640645D01*
X28800378Y58538648D01*
X28806406Y58535964D01*
X28806408Y58535963D01*
X28952872Y58470753D01*
X28958903Y58468068D01*
X29043770Y58450029D01*
X29122181Y58433362D01*
X29122185Y58433362D01*
X29128638Y58431990D01*
X29302166Y58431990D01*
X29308619Y58433362D01*
X29308623Y58433362D01*
X29387034Y58450029D01*
X29471901Y58468068D01*
X29477932Y58470753D01*
X29624396Y58535963D01*
X29624398Y58535964D01*
X29630426Y58538648D01*
X29684988Y58578290D01*
X31253832Y58578290D01*
X31262660Y58566671D01*
X31295288Y58542965D01*
X31306660Y58536399D01*
X31453028Y58471232D01*
X31465516Y58467175D01*
X31622234Y58433862D01*
X31635294Y58432490D01*
X31795510Y58432490D01*
X31808570Y58433862D01*
X31965288Y58467175D01*
X31977776Y58471232D01*
X32124144Y58536399D01*
X32135516Y58542965D01*
X32168515Y58566940D01*
X32176939Y58577865D01*
X32176711Y58578290D01*
X33753832Y58578290D01*
X33762660Y58566671D01*
X33795288Y58542965D01*
X33806660Y58536399D01*
X33953028Y58471232D01*
X33965516Y58467175D01*
X34122234Y58433862D01*
X34135294Y58432490D01*
X34295510Y58432490D01*
X34308570Y58433862D01*
X34465288Y58467175D01*
X34477776Y58471232D01*
X34624144Y58536399D01*
X34635516Y58542965D01*
X34668515Y58566940D01*
X34676939Y58577865D01*
X34670036Y58590724D01*
X34228214Y59032546D01*
X34214270Y59040160D01*
X34212437Y59040029D01*
X34205822Y59035778D01*
X33760445Y58590401D01*
X33753832Y58578290D01*
X32176711Y58578290D01*
X32170036Y58590724D01*
X31728214Y59032546D01*
X31714270Y59040160D01*
X31712437Y59040029D01*
X31705822Y59035778D01*
X31260445Y58590401D01*
X31253832Y58578290D01*
X29684988Y58578290D01*
X29770812Y58640645D01*
X29822771Y58698351D01*
X29882503Y58764691D01*
X29886924Y58769601D01*
X29973688Y58919879D01*
X30027310Y59084914D01*
X30044759Y59250925D01*
X30886548Y59250925D01*
X30903296Y59091582D01*
X30906026Y59078739D01*
X30955534Y58926369D01*
X30960880Y58914361D01*
X31024757Y58803724D01*
X31034963Y58793993D01*
X31042984Y58797204D01*
X31490458Y59244678D01*
X31496836Y59256358D01*
X31932732Y59256358D01*
X31932863Y59254525D01*
X31937114Y59247910D01*
X32384177Y58800847D01*
X32396557Y58794087D01*
X32403472Y58799263D01*
X32469924Y58914361D01*
X32475270Y58926369D01*
X32524778Y59078739D01*
X32527508Y59091582D01*
X32544256Y59250925D01*
X33386548Y59250925D01*
X33403296Y59091582D01*
X33406026Y59078739D01*
X33455534Y58926369D01*
X33460880Y58914361D01*
X33524757Y58803724D01*
X33534963Y58793993D01*
X33542984Y58797204D01*
X33990458Y59244678D01*
X33996836Y59256358D01*
X34432732Y59256358D01*
X34432863Y59254525D01*
X34437114Y59247910D01*
X34884177Y58800847D01*
X34896557Y58794087D01*
X34903472Y58799263D01*
X34969924Y58914361D01*
X34975270Y58926369D01*
X35024778Y59078739D01*
X35027508Y59091582D01*
X35044256Y59250925D01*
X35044256Y59257490D01*
X35885355Y59257490D01*
X35903494Y59084914D01*
X35957116Y58919879D01*
X36043880Y58769601D01*
X36048301Y58764691D01*
X36108034Y58698351D01*
X36159992Y58640645D01*
X36300378Y58538648D01*
X36306406Y58535964D01*
X36306408Y58535963D01*
X36452872Y58470753D01*
X36458903Y58468068D01*
X36543770Y58450029D01*
X36622181Y58433362D01*
X36622185Y58433362D01*
X36628638Y58431990D01*
X36802166Y58431990D01*
X36808619Y58433362D01*
X36808623Y58433362D01*
X36887034Y58450029D01*
X36971901Y58468068D01*
X36977932Y58470753D01*
X37124396Y58535963D01*
X37124398Y58535964D01*
X37130426Y58538648D01*
X37270812Y58640645D01*
X37322771Y58698351D01*
X37382503Y58764691D01*
X37386924Y58769601D01*
X37473688Y58919879D01*
X37527310Y59084914D01*
X37545449Y59257490D01*
X38385355Y59257490D01*
X38403494Y59084914D01*
X38457116Y58919879D01*
X38543880Y58769601D01*
X38548301Y58764691D01*
X38608034Y58698351D01*
X38659992Y58640645D01*
X38800378Y58538648D01*
X38806406Y58535964D01*
X38806408Y58535963D01*
X38952872Y58470753D01*
X38958903Y58468068D01*
X39043770Y58450029D01*
X39122181Y58433362D01*
X39122185Y58433362D01*
X39128638Y58431990D01*
X39302166Y58431990D01*
X39308619Y58433362D01*
X39308623Y58433362D01*
X39387034Y58450029D01*
X39471901Y58468068D01*
X39477932Y58470753D01*
X39624396Y58535963D01*
X39624398Y58535964D01*
X39630426Y58538648D01*
X39770812Y58640645D01*
X39822771Y58698351D01*
X39882503Y58764691D01*
X39886924Y58769601D01*
X39973688Y58919879D01*
X40027310Y59084914D01*
X40045449Y59257490D01*
X40885355Y59257490D01*
X40903494Y59084914D01*
X40957116Y58919879D01*
X41043880Y58769601D01*
X41048301Y58764691D01*
X41108034Y58698351D01*
X41159992Y58640645D01*
X41300378Y58538648D01*
X41306406Y58535964D01*
X41306408Y58535963D01*
X41452872Y58470753D01*
X41458903Y58468068D01*
X41543770Y58450029D01*
X41622181Y58433362D01*
X41622185Y58433362D01*
X41628638Y58431990D01*
X41802166Y58431990D01*
X41808619Y58433362D01*
X41808623Y58433362D01*
X41887034Y58450029D01*
X41971901Y58468068D01*
X41977932Y58470753D01*
X42124396Y58535963D01*
X42124398Y58535964D01*
X42130426Y58538648D01*
X42270812Y58640645D01*
X42322771Y58698351D01*
X42382503Y58764691D01*
X42386924Y58769601D01*
X42473688Y58919879D01*
X42527310Y59084914D01*
X42545449Y59257490D01*
X43385355Y59257490D01*
X43403494Y59084914D01*
X43457116Y58919879D01*
X43543880Y58769601D01*
X43548301Y58764691D01*
X43608034Y58698351D01*
X43659992Y58640645D01*
X43800378Y58538648D01*
X43806406Y58535964D01*
X43806408Y58535963D01*
X43952872Y58470753D01*
X43958903Y58468068D01*
X44043770Y58450029D01*
X44122181Y58433362D01*
X44122185Y58433362D01*
X44128638Y58431990D01*
X44302166Y58431990D01*
X44308619Y58433362D01*
X44308623Y58433362D01*
X44387034Y58450029D01*
X44471901Y58468068D01*
X44477932Y58470753D01*
X44624396Y58535963D01*
X44624398Y58535964D01*
X44630426Y58538648D01*
X44770812Y58640645D01*
X44822771Y58698351D01*
X44882503Y58764691D01*
X44886924Y58769601D01*
X44973688Y58919879D01*
X45027310Y59084914D01*
X45045449Y59257490D01*
X45027310Y59430066D01*
X45018928Y59455866D01*
X44992318Y59537762D01*
X44973688Y59595101D01*
X44886924Y59745379D01*
X44770812Y59874335D01*
X44630426Y59976332D01*
X44624398Y59979016D01*
X44624396Y59979017D01*
X44477932Y60044227D01*
X44477931Y60044227D01*
X44471901Y60046912D01*
X44387034Y60064951D01*
X44308623Y60081618D01*
X44308619Y60081618D01*
X44302166Y60082990D01*
X44128638Y60082990D01*
X44122185Y60081618D01*
X44122181Y60081618D01*
X44043770Y60064951D01*
X43958903Y60046912D01*
X43952874Y60044228D01*
X43952872Y60044227D01*
X43806409Y59979017D01*
X43806407Y59979016D01*
X43800379Y59976332D01*
X43795038Y59972452D01*
X43795037Y59972451D01*
X43668589Y59880581D01*
X43659992Y59874335D01*
X43543880Y59745379D01*
X43457116Y59595101D01*
X43438486Y59537762D01*
X43411877Y59455866D01*
X43403494Y59430066D01*
X43385355Y59257490D01*
X42545449Y59257490D01*
X42527310Y59430066D01*
X42518928Y59455866D01*
X42492318Y59537762D01*
X42473688Y59595101D01*
X42386924Y59745379D01*
X42270812Y59874335D01*
X42130426Y59976332D01*
X42124398Y59979016D01*
X42124396Y59979017D01*
X41977932Y60044227D01*
X41977931Y60044227D01*
X41971901Y60046912D01*
X41887034Y60064951D01*
X41808623Y60081618D01*
X41808619Y60081618D01*
X41802166Y60082990D01*
X41628638Y60082990D01*
X41622185Y60081618D01*
X41622181Y60081618D01*
X41543770Y60064951D01*
X41458903Y60046912D01*
X41452874Y60044228D01*
X41452872Y60044227D01*
X41306409Y59979017D01*
X41306407Y59979016D01*
X41300379Y59976332D01*
X41295038Y59972452D01*
X41295037Y59972451D01*
X41168589Y59880581D01*
X41159992Y59874335D01*
X41043880Y59745379D01*
X40957116Y59595101D01*
X40938486Y59537762D01*
X40911877Y59455866D01*
X40903494Y59430066D01*
X40885355Y59257490D01*
X40045449Y59257490D01*
X40027310Y59430066D01*
X40018928Y59455866D01*
X39992318Y59537762D01*
X39973688Y59595101D01*
X39886924Y59745379D01*
X39770812Y59874335D01*
X39630426Y59976332D01*
X39624398Y59979016D01*
X39624396Y59979017D01*
X39477932Y60044227D01*
X39477931Y60044227D01*
X39471901Y60046912D01*
X39387034Y60064951D01*
X39308623Y60081618D01*
X39308619Y60081618D01*
X39302166Y60082990D01*
X39128638Y60082990D01*
X39122185Y60081618D01*
X39122181Y60081618D01*
X39043770Y60064951D01*
X38958903Y60046912D01*
X38952874Y60044228D01*
X38952872Y60044227D01*
X38806409Y59979017D01*
X38806407Y59979016D01*
X38800379Y59976332D01*
X38795038Y59972452D01*
X38795037Y59972451D01*
X38668589Y59880581D01*
X38659992Y59874335D01*
X38543880Y59745379D01*
X38457116Y59595101D01*
X38438486Y59537762D01*
X38411877Y59455866D01*
X38403494Y59430066D01*
X38385355Y59257490D01*
X37545449Y59257490D01*
X37527310Y59430066D01*
X37518928Y59455866D01*
X37492318Y59537762D01*
X37473688Y59595101D01*
X37386924Y59745379D01*
X37270812Y59874335D01*
X37130426Y59976332D01*
X37124398Y59979016D01*
X37124396Y59979017D01*
X36977932Y60044227D01*
X36977931Y60044227D01*
X36971901Y60046912D01*
X36887034Y60064951D01*
X36808623Y60081618D01*
X36808619Y60081618D01*
X36802166Y60082990D01*
X36628638Y60082990D01*
X36622185Y60081618D01*
X36622181Y60081618D01*
X36543770Y60064951D01*
X36458903Y60046912D01*
X36452874Y60044228D01*
X36452872Y60044227D01*
X36306409Y59979017D01*
X36306407Y59979016D01*
X36300379Y59976332D01*
X36295038Y59972452D01*
X36295037Y59972451D01*
X36168589Y59880581D01*
X36159992Y59874335D01*
X36043880Y59745379D01*
X35957116Y59595101D01*
X35938486Y59537762D01*
X35911877Y59455866D01*
X35903494Y59430066D01*
X35885355Y59257490D01*
X35044256Y59257490D01*
X35044256Y59264055D01*
X35027508Y59423398D01*
X35024778Y59436241D01*
X34975270Y59588611D01*
X34969924Y59600619D01*
X34906047Y59711256D01*
X34895841Y59720987D01*
X34887820Y59717776D01*
X34440346Y59270302D01*
X34432732Y59256358D01*
X33996836Y59256358D01*
X33998072Y59258622D01*
X33997941Y59260455D01*
X33993690Y59267070D01*
X33546627Y59714133D01*
X33534247Y59720893D01*
X33527332Y59715717D01*
X33460880Y59600619D01*
X33455534Y59588611D01*
X33406026Y59436241D01*
X33403296Y59423398D01*
X33386548Y59264055D01*
X33386548Y59250925D01*
X32544256Y59250925D01*
X32544256Y59264055D01*
X32527508Y59423398D01*
X32524778Y59436241D01*
X32475270Y59588611D01*
X32469924Y59600619D01*
X32406047Y59711256D01*
X32395841Y59720987D01*
X32387820Y59717776D01*
X31940346Y59270302D01*
X31932732Y59256358D01*
X31496836Y59256358D01*
X31498072Y59258622D01*
X31497941Y59260455D01*
X31493690Y59267070D01*
X31046627Y59714133D01*
X31034247Y59720893D01*
X31027332Y59715717D01*
X30960880Y59600619D01*
X30955534Y59588611D01*
X30906026Y59436241D01*
X30903296Y59423398D01*
X30886548Y59264055D01*
X30886548Y59250925D01*
X30044759Y59250925D01*
X30045449Y59257490D01*
X30027310Y59430066D01*
X30018928Y59455866D01*
X29992318Y59537762D01*
X29973688Y59595101D01*
X29886924Y59745379D01*
X29770812Y59874335D01*
X29684403Y59937115D01*
X31253865Y59937115D01*
X31260768Y59924256D01*
X31702590Y59482434D01*
X31716534Y59474820D01*
X31718367Y59474951D01*
X31724982Y59479202D01*
X32170359Y59924579D01*
X32176972Y59936690D01*
X32176649Y59937115D01*
X33753865Y59937115D01*
X33760768Y59924256D01*
X34202590Y59482434D01*
X34216534Y59474820D01*
X34218367Y59474951D01*
X34224982Y59479202D01*
X34670359Y59924579D01*
X34676972Y59936690D01*
X34668144Y59948309D01*
X34635516Y59972015D01*
X34624144Y59978581D01*
X34477776Y60043748D01*
X34465288Y60047805D01*
X34308570Y60081118D01*
X34295510Y60082490D01*
X34135294Y60082490D01*
X34122234Y60081118D01*
X33965516Y60047805D01*
X33953028Y60043748D01*
X33806660Y59978581D01*
X33795288Y59972015D01*
X33762289Y59948040D01*
X33753865Y59937115D01*
X32176649Y59937115D01*
X32168144Y59948309D01*
X32135516Y59972015D01*
X32124144Y59978581D01*
X31977776Y60043748D01*
X31965288Y60047805D01*
X31808570Y60081118D01*
X31795510Y60082490D01*
X31635294Y60082490D01*
X31622234Y60081118D01*
X31465516Y60047805D01*
X31453028Y60043748D01*
X31306660Y59978581D01*
X31295288Y59972015D01*
X31262289Y59948040D01*
X31253865Y59937115D01*
X29684403Y59937115D01*
X29630426Y59976332D01*
X29624398Y59979016D01*
X29624396Y59979017D01*
X29477932Y60044227D01*
X29477931Y60044227D01*
X29471901Y60046912D01*
X29387034Y60064951D01*
X29308623Y60081618D01*
X29308619Y60081618D01*
X29302166Y60082990D01*
X29128638Y60082990D01*
X29122185Y60081618D01*
X29122181Y60081618D01*
X29043770Y60064951D01*
X28958903Y60046912D01*
X28952874Y60044228D01*
X28952872Y60044227D01*
X28806409Y59979017D01*
X28806407Y59979016D01*
X28800379Y59976332D01*
X28795038Y59972452D01*
X28795037Y59972451D01*
X28668589Y59880581D01*
X28659992Y59874335D01*
X28543880Y59745379D01*
X28457116Y59595101D01*
X28438486Y59537762D01*
X28411877Y59455866D01*
X28403494Y59430066D01*
X28385355Y59257490D01*
X27545449Y59257490D01*
X27527310Y59430066D01*
X27518928Y59455866D01*
X27492318Y59537762D01*
X27473688Y59595101D01*
X27386924Y59745379D01*
X27270812Y59874335D01*
X27130426Y59976332D01*
X27124398Y59979016D01*
X27124396Y59979017D01*
X26977932Y60044227D01*
X26977931Y60044227D01*
X26971901Y60046912D01*
X26887034Y60064951D01*
X26808623Y60081618D01*
X26808619Y60081618D01*
X26802166Y60082990D01*
X26628638Y60082990D01*
X26622185Y60081618D01*
X26622181Y60081618D01*
X26543770Y60064951D01*
X26458903Y60046912D01*
X26452874Y60044228D01*
X26452872Y60044227D01*
X26306409Y59979017D01*
X26306407Y59979016D01*
X26300379Y59976332D01*
X26295038Y59972452D01*
X26295037Y59972451D01*
X26168589Y59880581D01*
X26159992Y59874335D01*
X26043880Y59745379D01*
X25957116Y59595101D01*
X25938486Y59537762D01*
X25911877Y59455866D01*
X25903494Y59430066D01*
X25885355Y59257490D01*
X25045449Y59257490D01*
X25027310Y59430066D01*
X25018928Y59455866D01*
X24992318Y59537762D01*
X24973688Y59595101D01*
X24886924Y59745379D01*
X24770812Y59874335D01*
X24630426Y59976332D01*
X24624398Y59979016D01*
X24624396Y59979017D01*
X24477932Y60044227D01*
X24477931Y60044227D01*
X24471901Y60046912D01*
X24387034Y60064951D01*
X24308623Y60081618D01*
X24308619Y60081618D01*
X24302166Y60082990D01*
X24128638Y60082990D01*
X24122185Y60081618D01*
X24122181Y60081618D01*
X24043770Y60064951D01*
X23958903Y60046912D01*
X23952874Y60044228D01*
X23952872Y60044227D01*
X23806409Y59979017D01*
X23806407Y59979016D01*
X23800379Y59976332D01*
X23795038Y59972452D01*
X23795037Y59972451D01*
X23668589Y59880581D01*
X23659992Y59874335D01*
X23543880Y59745379D01*
X23457116Y59595101D01*
X23438486Y59537762D01*
X23411877Y59455866D01*
X23403494Y59430066D01*
X23385355Y59257490D01*
X22545449Y59257490D01*
X22527310Y59430066D01*
X22518928Y59455866D01*
X22492318Y59537762D01*
X22473688Y59595101D01*
X22386924Y59745379D01*
X22270812Y59874335D01*
X22130426Y59976332D01*
X22124398Y59979016D01*
X22124396Y59979017D01*
X21977932Y60044227D01*
X21977931Y60044227D01*
X21971901Y60046912D01*
X21887034Y60064951D01*
X21808623Y60081618D01*
X21808619Y60081618D01*
X21802166Y60082990D01*
X21628638Y60082990D01*
X21622185Y60081618D01*
X21622181Y60081618D01*
X21543770Y60064951D01*
X21458903Y60046912D01*
X21452874Y60044228D01*
X21452872Y60044227D01*
X21306409Y59979017D01*
X21306407Y59979016D01*
X21300379Y59976332D01*
X21295038Y59972452D01*
X21295037Y59972451D01*
X21168589Y59880581D01*
X21159992Y59874335D01*
X21043880Y59745379D01*
X20957116Y59595101D01*
X20938486Y59537762D01*
X20911877Y59455866D01*
X20903494Y59430066D01*
X20885355Y59257490D01*
X20045449Y59257490D01*
X20027310Y59430066D01*
X20018928Y59455866D01*
X19992318Y59537762D01*
X19973688Y59595101D01*
X19886924Y59745379D01*
X19770812Y59874335D01*
X19630426Y59976332D01*
X19624398Y59979016D01*
X19624396Y59979017D01*
X19477932Y60044227D01*
X19477931Y60044227D01*
X19471901Y60046912D01*
X19387034Y60064951D01*
X19308623Y60081618D01*
X19308619Y60081618D01*
X19302166Y60082990D01*
X19128638Y60082990D01*
X19122185Y60081618D01*
X19122181Y60081618D01*
X19043770Y60064951D01*
X18958903Y60046912D01*
X18952874Y60044228D01*
X18952872Y60044227D01*
X18806409Y59979017D01*
X18806407Y59979016D01*
X18800379Y59976332D01*
X18795038Y59972452D01*
X18795037Y59972451D01*
X18668589Y59880581D01*
X18659992Y59874335D01*
X18543880Y59745379D01*
X18457116Y59595101D01*
X18438486Y59537762D01*
X18411877Y59455866D01*
X18403494Y59430066D01*
X18385355Y59257490D01*
X17545449Y59257490D01*
X17527310Y59430066D01*
X17518928Y59455866D01*
X17492318Y59537762D01*
X17473688Y59595101D01*
X17386924Y59745379D01*
X17270812Y59874335D01*
X17130426Y59976332D01*
X17124398Y59979016D01*
X17124396Y59979017D01*
X16977932Y60044227D01*
X16977931Y60044227D01*
X16971901Y60046912D01*
X16887034Y60064951D01*
X16808623Y60081618D01*
X16808619Y60081618D01*
X16802166Y60082990D01*
X16628638Y60082990D01*
X16622185Y60081618D01*
X16622181Y60081618D01*
X16543770Y60064951D01*
X16458903Y60046912D01*
X16452874Y60044228D01*
X16452872Y60044227D01*
X16306409Y59979017D01*
X16306407Y59979016D01*
X16300379Y59976332D01*
X16295038Y59972452D01*
X16295037Y59972451D01*
X16168589Y59880581D01*
X16159992Y59874335D01*
X16043880Y59745379D01*
X15957116Y59595101D01*
X15938486Y59537762D01*
X15911877Y59455866D01*
X15903494Y59430066D01*
X15885355Y59257490D01*
X15045449Y59257490D01*
X15027310Y59430066D01*
X15018928Y59455866D01*
X14992318Y59537762D01*
X14973688Y59595101D01*
X14886924Y59745379D01*
X14770812Y59874335D01*
X14630426Y59976332D01*
X14624398Y59979016D01*
X14624396Y59979017D01*
X14477932Y60044227D01*
X14477931Y60044227D01*
X14471901Y60046912D01*
X14387034Y60064951D01*
X14308623Y60081618D01*
X14308619Y60081618D01*
X14302166Y60082990D01*
X14128638Y60082990D01*
X14122185Y60081618D01*
X14122181Y60081618D01*
X14043770Y60064951D01*
X13958903Y60046912D01*
X13952874Y60044228D01*
X13952872Y60044227D01*
X13806409Y59979017D01*
X13806407Y59979016D01*
X13800379Y59976332D01*
X13795038Y59972452D01*
X13795037Y59972451D01*
X13668589Y59880581D01*
X13659992Y59874335D01*
X13543880Y59745379D01*
X13457116Y59595101D01*
X13438486Y59537762D01*
X13411877Y59455866D01*
X13403494Y59430066D01*
X13385355Y59257490D01*
X10182402Y59257490D01*
X10191686Y59267070D01*
X10325139Y59404784D01*
X10328122Y59407862D01*
X10330655Y59411310D01*
X10330659Y59411315D01*
X10495096Y59635169D01*
X10497634Y59638624D01*
X10634259Y59890258D01*
X10735471Y60158105D01*
X10799394Y60437210D01*
X10805620Y60506963D01*
X10824627Y60719943D01*
X10824847Y60722408D01*
X10825309Y60766490D01*
X10825140Y60768970D01*
X10823806Y60788532D01*
X47605610Y60788532D01*
X47622093Y60502675D01*
X47622918Y60498470D01*
X47622919Y60498462D01*
X47654721Y60336371D01*
X47677218Y60221700D01*
X47678605Y60217650D01*
X47678606Y60217645D01*
X47768577Y59954862D01*
X47769966Y59950806D01*
X47805285Y59880581D01*
X47890447Y59711256D01*
X47898620Y59695005D01*
X47901046Y59691476D01*
X47901049Y59691470D01*
X47963354Y59600816D01*
X48060800Y59459032D01*
X48102012Y59413741D01*
X48250163Y59250925D01*
X48253505Y59247252D01*
X48256793Y59244503D01*
X48469877Y59066336D01*
X48469882Y59066332D01*
X48473169Y59063584D01*
X48537236Y59023395D01*
X48712087Y58913711D01*
X48712091Y58913709D01*
X48715727Y58911428D01*
X48976690Y58793599D01*
X48980809Y58792379D01*
X49247118Y58713494D01*
X49247123Y58713493D01*
X49251231Y58712276D01*
X49255465Y58711628D01*
X49255470Y58711627D01*
X49506274Y58673249D01*
X49534268Y58668965D01*
X49680084Y58666675D01*
X49816273Y58664535D01*
X49816279Y58664535D01*
X49820564Y58664468D01*
X50104822Y58698867D01*
X50381782Y58771526D01*
X50385742Y58773166D01*
X50385747Y58773168D01*
X50528512Y58832304D01*
X50646318Y58881100D01*
X50698219Y58911428D01*
X50889827Y59023395D01*
X50889829Y59023397D01*
X50893535Y59025562D01*
X51118860Y59202239D01*
X51181686Y59267070D01*
X51315139Y59404784D01*
X51318122Y59407862D01*
X51320655Y59411310D01*
X51320659Y59411315D01*
X51485096Y59635169D01*
X51487634Y59638624D01*
X51624259Y59890258D01*
X51725471Y60158105D01*
X51789394Y60437210D01*
X51795620Y60506963D01*
X51814627Y60719943D01*
X51814847Y60722408D01*
X51815309Y60766490D01*
X51815140Y60768970D01*
X51796126Y61047882D01*
X51796125Y61047888D01*
X51795834Y61052159D01*
X51737770Y61332541D01*
X51642190Y61602449D01*
X51510864Y61856889D01*
X51497656Y61875683D01*
X51348685Y62087646D01*
X51346222Y62091151D01*
X51151310Y62300901D01*
X50929735Y62482258D01*
X50685597Y62631866D01*
X50681661Y62633594D01*
X50427342Y62745233D01*
X50427338Y62745234D01*
X50423414Y62746957D01*
X50148037Y62825400D01*
X49937080Y62855423D01*
X49868814Y62865139D01*
X49868812Y62865139D01*
X49864562Y62865744D01*
X49713567Y62866534D01*
X49582520Y62867221D01*
X49582514Y62867221D01*
X49578234Y62867243D01*
X49573990Y62866684D01*
X49573986Y62866684D01*
X49449623Y62850311D01*
X49294352Y62829870D01*
X49290212Y62828737D01*
X49290210Y62828737D01*
X49191494Y62801731D01*
X49018168Y62754314D01*
X48754794Y62641976D01*
X48751113Y62639773D01*
X48512785Y62497137D01*
X48512781Y62497134D01*
X48509103Y62494933D01*
X48285641Y62315906D01*
X48232430Y62259833D01*
X48127524Y62149285D01*
X48088543Y62108208D01*
X47921457Y61875683D01*
X47787474Y61622633D01*
X47689073Y61353740D01*
X47628076Y61073981D01*
X47627740Y61069711D01*
X47606760Y60803138D01*
X47606759Y60803138D01*
X47606760Y60803133D01*
X47605610Y60788532D01*
X10823806Y60788532D01*
X10806126Y61047882D01*
X10806125Y61047888D01*
X10805834Y61052159D01*
X10747770Y61332541D01*
X10652190Y61602449D01*
X10520864Y61856889D01*
X10507656Y61875683D01*
X10358685Y62087646D01*
X10356222Y62091151D01*
X10161310Y62300901D01*
X9939735Y62482258D01*
X9695597Y62631866D01*
X9691661Y62633594D01*
X9437342Y62745233D01*
X9437338Y62745234D01*
X9433414Y62746957D01*
X9158037Y62825400D01*
X8947080Y62855423D01*
X8878814Y62865139D01*
X8878812Y62865139D01*
X8874562Y62865744D01*
X8723567Y62866534D01*
X8592520Y62867221D01*
X8592514Y62867221D01*
X8588234Y62867243D01*
X8583990Y62866684D01*
X8583986Y62866684D01*
X8459623Y62850311D01*
X8304352Y62829870D01*
X8300212Y62828737D01*
X8300210Y62828737D01*
X8201494Y62801731D01*
X8028168Y62754314D01*
X7764794Y62641976D01*
X7761113Y62639773D01*
X7522785Y62497137D01*
X7522781Y62497134D01*
X7519103Y62494933D01*
X7295641Y62315906D01*
X7242430Y62259833D01*
X7137524Y62149285D01*
X7098543Y62108208D01*
X6931457Y61875683D01*
X6797474Y61622633D01*
X6699073Y61353740D01*
X6638076Y61073981D01*
X6637740Y61069711D01*
X6616760Y60803138D01*
X6616759Y60803138D01*
X6616760Y60803133D01*
X6615610Y60788532D01*
X2460000Y60788532D01*
X2460000Y64637726D01*
X2461914Y64659607D01*
X2462714Y64664144D01*
X2462714Y64664146D01*
X2464628Y64674998D01*
X2462714Y64685853D01*
X2462714Y64696878D01*
X2462795Y64696878D01*
X2462080Y64709386D01*
X2475582Y64932573D01*
X2477416Y64947676D01*
X2522555Y65193991D01*
X2526196Y65208765D01*
X2554328Y65299040D01*
X2600702Y65447861D01*
X2606097Y65462083D01*
X2606099Y65462086D01*
X2708874Y65690442D01*
X2715942Y65703909D01*
X2829521Y65891790D01*
X2845496Y65918216D01*
X2854138Y65930737D01*
X3008584Y66127872D01*
X3018674Y66139260D01*
X3195740Y66316326D01*
X3207128Y66326416D01*
X3404263Y66480862D01*
X3416785Y66489505D01*
X3631091Y66619058D01*
X3644564Y66626129D01*
X3644580Y66626136D01*
X3872920Y66728904D01*
X3887139Y66734298D01*
X4126241Y66808805D01*
X4141003Y66812444D01*
X4332782Y66847589D01*
X4387324Y66857584D01*
X4402427Y66859418D01*
X4583496Y66870372D01*
X4625614Y66872920D01*
X4638122Y66872205D01*
X4638122Y66872286D01*
X4649147Y66872286D01*
X4660002Y66870372D01*
X4670856Y66872286D01*
X4675393Y66873086D01*
X4697274Y66875000D01*
X53722730Y66875000D01*
X53744609Y66873086D01*
G37*
G04 #@! TD.AperFunction*
G04 #@! TD*
M02*
