G04 #@! TF.GenerationSoftware,KiCad,Pcbnew,(6.0.1)*
G04 #@! TF.CreationDate,2022-08-31T18:15:56+03:00*
G04 #@! TF.ProjectId,wideband_controller,77696465-6261-46e6-945f-636f6e74726f,rev?*
G04 #@! TF.SameCoordinates,PX5d42830PY713e7a8*
G04 #@! TF.FileFunction,Soldermask,Top*
G04 #@! TF.FilePolarity,Negative*
%FSLAX46Y46*%
G04 Gerber Fmt 4.6, Leading zero omitted, Abs format (unit mm)*
G04 Created by KiCad (PCBNEW (6.0.1)) date 2022-08-31 18:15:56*
%MOMM*%
%LPD*%
G01*
G04 APERTURE LIST*
%ADD10C,0.120000*%
%ADD11O,1.798000X1.798000*%
%ADD12C,1.148000*%
%ADD13C,1.089000*%
%ADD14C,0.885000*%
G04 APERTURE END LIST*
D10*
G04 #@! TO.C,U9*
X41731941Y2136268D02*
X41731941Y9136268D01*
X41731941Y9136268D02*
X54731941Y9136268D01*
X54731941Y9136268D02*
X54731941Y2136268D01*
X54731941Y2136268D02*
X41731941Y2136268D01*
G36*
X54731941Y2136268D02*
G01*
X41731941Y2136268D01*
X41731941Y9136268D01*
X54731941Y9136268D01*
X54731941Y2136268D01*
G37*
X54731941Y2136268D02*
X41731941Y2136268D01*
X41731941Y9136268D01*
X54731941Y9136268D01*
X54731941Y2136268D01*
X41731941Y2136268D02*
X41731941Y9136268D01*
X41731941Y9136268D02*
X54731941Y9136268D01*
X54731941Y9136268D02*
X54731941Y2136268D01*
X54731941Y2136268D02*
X41731941Y2136268D01*
G36*
X54731941Y2136268D02*
G01*
X41731941Y2136268D01*
X41731941Y9136268D01*
X54731941Y9136268D01*
X54731941Y2136268D01*
G37*
X54731941Y2136268D02*
X41731941Y2136268D01*
X41731941Y9136268D01*
X54731941Y9136268D01*
X54731941Y2136268D01*
G04 #@! TD*
G04 #@! TO.C,R9*
G36*
G01*
X23943000Y33078000D02*
X23943000Y32708000D01*
G75*
G02*
X23759000Y32524000I-184000J0D01*
G01*
X23489000Y32524000D01*
G75*
G02*
X23305000Y32708000I0J184000D01*
G01*
X23305000Y33078000D01*
G75*
G02*
X23489000Y33262000I184000J0D01*
G01*
X23759000Y33262000D01*
G75*
G02*
X23943000Y33078000I0J-184000D01*
G01*
G37*
G36*
G01*
X22923000Y33078000D02*
X22923000Y32708000D01*
G75*
G02*
X22739000Y32524000I-184000J0D01*
G01*
X22469000Y32524000D01*
G75*
G02*
X22285000Y32708000I0J184000D01*
G01*
X22285000Y33078000D01*
G75*
G02*
X22469000Y33262000I184000J0D01*
G01*
X22739000Y33262000D01*
G75*
G02*
X22923000Y33078000I0J-184000D01*
G01*
G37*
G04 #@! TD*
G04 #@! TO.C,C8*
G36*
G01*
X27893000Y35771000D02*
X27893000Y36111000D01*
G75*
G02*
X28082000Y36300000I189000J0D01*
G01*
X28362000Y36300000D01*
G75*
G02*
X28551000Y36111000I0J-189000D01*
G01*
X28551000Y35771000D01*
G75*
G02*
X28362000Y35582000I-189000J0D01*
G01*
X28082000Y35582000D01*
G75*
G02*
X27893000Y35771000I0J189000D01*
G01*
G37*
G36*
G01*
X28853000Y35771000D02*
X28853000Y36111000D01*
G75*
G02*
X29042000Y36300000I189000J0D01*
G01*
X29322000Y36300000D01*
G75*
G02*
X29511000Y36111000I0J-189000D01*
G01*
X29511000Y35771000D01*
G75*
G02*
X29322000Y35582000I-189000J0D01*
G01*
X29042000Y35582000D01*
G75*
G02*
X28853000Y35771000I0J189000D01*
G01*
G37*
G04 #@! TD*
G04 #@! TO.C,C5*
G36*
G01*
X40724000Y32940000D02*
X41064000Y32940000D01*
G75*
G02*
X41253000Y32751000I0J-189000D01*
G01*
X41253000Y32471000D01*
G75*
G02*
X41064000Y32282000I-189000J0D01*
G01*
X40724000Y32282000D01*
G75*
G02*
X40535000Y32471000I0J189000D01*
G01*
X40535000Y32751000D01*
G75*
G02*
X40724000Y32940000I189000J0D01*
G01*
G37*
G36*
G01*
X40724000Y31980000D02*
X41064000Y31980000D01*
G75*
G02*
X41253000Y31791000I0J-189000D01*
G01*
X41253000Y31511000D01*
G75*
G02*
X41064000Y31322000I-189000J0D01*
G01*
X40724000Y31322000D01*
G75*
G02*
X40535000Y31511000I0J189000D01*
G01*
X40535000Y31791000D01*
G75*
G02*
X40724000Y31980000I189000J0D01*
G01*
G37*
G04 #@! TD*
G04 #@! TO.C,R29*
G36*
G01*
X4135000Y34858000D02*
X3765000Y34858000D01*
G75*
G02*
X3581000Y35042000I0J184000D01*
G01*
X3581000Y35312000D01*
G75*
G02*
X3765000Y35496000I184000J0D01*
G01*
X4135000Y35496000D01*
G75*
G02*
X4319000Y35312000I0J-184000D01*
G01*
X4319000Y35042000D01*
G75*
G02*
X4135000Y34858000I-184000J0D01*
G01*
G37*
G36*
G01*
X4135000Y35878000D02*
X3765000Y35878000D01*
G75*
G02*
X3581000Y36062000I0J184000D01*
G01*
X3581000Y36332000D01*
G75*
G02*
X3765000Y36516000I184000J0D01*
G01*
X4135000Y36516000D01*
G75*
G02*
X4319000Y36332000I0J-184000D01*
G01*
X4319000Y36062000D01*
G75*
G02*
X4135000Y35878000I-184000J0D01*
G01*
G37*
G04 #@! TD*
G04 #@! TO.C,C4*
G36*
G01*
X9572000Y36365000D02*
X9572000Y36025000D01*
G75*
G02*
X9383000Y35836000I-189000J0D01*
G01*
X9103000Y35836000D01*
G75*
G02*
X8914000Y36025000I0J189000D01*
G01*
X8914000Y36365000D01*
G75*
G02*
X9103000Y36554000I189000J0D01*
G01*
X9383000Y36554000D01*
G75*
G02*
X9572000Y36365000I0J-189000D01*
G01*
G37*
G36*
G01*
X8612000Y36365000D02*
X8612000Y36025000D01*
G75*
G02*
X8423000Y35836000I-189000J0D01*
G01*
X8143000Y35836000D01*
G75*
G02*
X7954000Y36025000I0J189000D01*
G01*
X7954000Y36365000D01*
G75*
G02*
X8143000Y36554000I189000J0D01*
G01*
X8423000Y36554000D01*
G75*
G02*
X8612000Y36365000I0J-189000D01*
G01*
G37*
G04 #@! TD*
G04 #@! TO.C,R33*
G36*
G01*
X51500000Y45224000D02*
X52750000Y45224000D01*
G75*
G02*
X53049000Y44925000I0J-299000D01*
G01*
X53049000Y44300000D01*
G75*
G02*
X52750000Y44001000I-299000J0D01*
G01*
X51500000Y44001000D01*
G75*
G02*
X51201000Y44300000I0J299000D01*
G01*
X51201000Y44925000D01*
G75*
G02*
X51500000Y45224000I299000J0D01*
G01*
G37*
G36*
G01*
X51500000Y42299000D02*
X52750000Y42299000D01*
G75*
G02*
X53049000Y42000000I0J-299000D01*
G01*
X53049000Y41375000D01*
G75*
G02*
X52750000Y41076000I-299000J0D01*
G01*
X51500000Y41076000D01*
G75*
G02*
X51201000Y41375000I0J299000D01*
G01*
X51201000Y42000000D01*
G75*
G02*
X51500000Y42299000I299000J0D01*
G01*
G37*
G04 #@! TD*
G04 #@! TO.C,D4*
G36*
G01*
X4397000Y44695000D02*
X4397000Y47195000D01*
G75*
G02*
X4446000Y47244000I49000J0D01*
G01*
X7746000Y47244000D01*
G75*
G02*
X7795000Y47195000I0J-49000D01*
G01*
X7795000Y44695000D01*
G75*
G02*
X7746000Y44646000I-49000J0D01*
G01*
X4446000Y44646000D01*
G75*
G02*
X4397000Y44695000I0J49000D01*
G01*
G37*
G36*
G01*
X4397000Y37895000D02*
X4397000Y40395000D01*
G75*
G02*
X4446000Y40444000I49000J0D01*
G01*
X7746000Y40444000D01*
G75*
G02*
X7795000Y40395000I0J-49000D01*
G01*
X7795000Y37895000D01*
G75*
G02*
X7746000Y37846000I-49000J0D01*
G01*
X4446000Y37846000D01*
G75*
G02*
X4397000Y37895000I0J49000D01*
G01*
G37*
G04 #@! TD*
G04 #@! TO.C,D3*
G36*
G01*
X6468750Y32643000D02*
X6981250Y32643000D01*
G75*
G02*
X7249000Y32375250I0J-267750D01*
G01*
X7249000Y31937750D01*
G75*
G02*
X6981250Y31670000I-267750J0D01*
G01*
X6468750Y31670000D01*
G75*
G02*
X6201000Y31937750I0J267750D01*
G01*
X6201000Y32375250D01*
G75*
G02*
X6468750Y32643000I267750J0D01*
G01*
G37*
G36*
G01*
X6468750Y31068000D02*
X6981250Y31068000D01*
G75*
G02*
X7249000Y30800250I0J-267750D01*
G01*
X7249000Y30362750D01*
G75*
G02*
X6981250Y30095000I-267750J0D01*
G01*
X6468750Y30095000D01*
G75*
G02*
X6201000Y30362750I0J267750D01*
G01*
X6201000Y30800250D01*
G75*
G02*
X6468750Y31068000I267750J0D01*
G01*
G37*
G04 #@! TD*
G04 #@! TO.C,C22*
G36*
G01*
X16125000Y49386000D02*
X15625000Y49386000D01*
G75*
G02*
X15351000Y49660000I0J274000D01*
G01*
X15351000Y50110000D01*
G75*
G02*
X15625000Y50384000I274000J0D01*
G01*
X16125000Y50384000D01*
G75*
G02*
X16399000Y50110000I0J-274000D01*
G01*
X16399000Y49660000D01*
G75*
G02*
X16125000Y49386000I-274000J0D01*
G01*
G37*
G36*
G01*
X16125000Y50936000D02*
X15625000Y50936000D01*
G75*
G02*
X15351000Y51210000I0J274000D01*
G01*
X15351000Y51660000D01*
G75*
G02*
X15625000Y51934000I274000J0D01*
G01*
X16125000Y51934000D01*
G75*
G02*
X16399000Y51660000I0J-274000D01*
G01*
X16399000Y51210000D01*
G75*
G02*
X16125000Y50936000I-274000J0D01*
G01*
G37*
G04 #@! TD*
G04 #@! TO.C,R28*
G36*
G01*
X18740000Y20324000D02*
X19290000Y20324000D01*
G75*
G02*
X19539000Y20075000I0J-249000D01*
G01*
X19539000Y19675000D01*
G75*
G02*
X19290000Y19426000I-249000J0D01*
G01*
X18740000Y19426000D01*
G75*
G02*
X18491000Y19675000I0J249000D01*
G01*
X18491000Y20075000D01*
G75*
G02*
X18740000Y20324000I249000J0D01*
G01*
G37*
G36*
G01*
X18740000Y18674000D02*
X19290000Y18674000D01*
G75*
G02*
X19539000Y18425000I0J-249000D01*
G01*
X19539000Y18025000D01*
G75*
G02*
X19290000Y17776000I-249000J0D01*
G01*
X18740000Y17776000D01*
G75*
G02*
X18491000Y18025000I0J249000D01*
G01*
X18491000Y18425000D01*
G75*
G02*
X18740000Y18674000I249000J0D01*
G01*
G37*
G04 #@! TD*
G04 #@! TO.C,C15*
G36*
G01*
X53129000Y30433000D02*
X52789000Y30433000D01*
G75*
G02*
X52600000Y30622000I0J189000D01*
G01*
X52600000Y30902000D01*
G75*
G02*
X52789000Y31091000I189000J0D01*
G01*
X53129000Y31091000D01*
G75*
G02*
X53318000Y30902000I0J-189000D01*
G01*
X53318000Y30622000D01*
G75*
G02*
X53129000Y30433000I-189000J0D01*
G01*
G37*
G36*
G01*
X53129000Y31393000D02*
X52789000Y31393000D01*
G75*
G02*
X52600000Y31582000I0J189000D01*
G01*
X52600000Y31862000D01*
G75*
G02*
X52789000Y32051000I189000J0D01*
G01*
X53129000Y32051000D01*
G75*
G02*
X53318000Y31862000I0J-189000D01*
G01*
X53318000Y31582000D01*
G75*
G02*
X53129000Y31393000I-189000J0D01*
G01*
G37*
G04 #@! TD*
G04 #@! TO.C,R16*
G36*
G01*
X28427000Y17974000D02*
X28977000Y17974000D01*
G75*
G02*
X29226000Y17725000I0J-249000D01*
G01*
X29226000Y17325000D01*
G75*
G02*
X28977000Y17076000I-249000J0D01*
G01*
X28427000Y17076000D01*
G75*
G02*
X28178000Y17325000I0J249000D01*
G01*
X28178000Y17725000D01*
G75*
G02*
X28427000Y17974000I249000J0D01*
G01*
G37*
G36*
G01*
X28427000Y16324000D02*
X28977000Y16324000D01*
G75*
G02*
X29226000Y16075000I0J-249000D01*
G01*
X29226000Y15675000D01*
G75*
G02*
X28977000Y15426000I-249000J0D01*
G01*
X28427000Y15426000D01*
G75*
G02*
X28178000Y15675000I0J249000D01*
G01*
X28178000Y16075000D01*
G75*
G02*
X28427000Y16324000I249000J0D01*
G01*
G37*
G04 #@! TD*
G04 #@! TO.C,R13*
G36*
G01*
X16743000Y28579000D02*
X17293000Y28579000D01*
G75*
G02*
X17542000Y28330000I0J-249000D01*
G01*
X17542000Y27930000D01*
G75*
G02*
X17293000Y27681000I-249000J0D01*
G01*
X16743000Y27681000D01*
G75*
G02*
X16494000Y27930000I0J249000D01*
G01*
X16494000Y28330000D01*
G75*
G02*
X16743000Y28579000I249000J0D01*
G01*
G37*
G36*
G01*
X16743000Y26929000D02*
X17293000Y26929000D01*
G75*
G02*
X17542000Y26680000I0J-249000D01*
G01*
X17542000Y26280000D01*
G75*
G02*
X17293000Y26031000I-249000J0D01*
G01*
X16743000Y26031000D01*
G75*
G02*
X16494000Y26280000I0J249000D01*
G01*
X16494000Y26680000D01*
G75*
G02*
X16743000Y26929000I249000J0D01*
G01*
G37*
G04 #@! TD*
G04 #@! TO.C,U4*
G36*
G01*
X17384000Y50829000D02*
X17384000Y52029000D01*
G75*
G02*
X17433000Y52078000I49000J0D01*
G01*
X19633000Y52078000D01*
G75*
G02*
X19682000Y52029000I0J-49000D01*
G01*
X19682000Y50829000D01*
G75*
G02*
X19633000Y50780000I-49000J0D01*
G01*
X17433000Y50780000D01*
G75*
G02*
X17384000Y50829000I0J49000D01*
G01*
G37*
G36*
G01*
X21584000Y46249000D02*
X21584000Y52049000D01*
G75*
G02*
X21633000Y52098000I49000J0D01*
G01*
X28033000Y52098000D01*
G75*
G02*
X28082000Y52049000I0J-49000D01*
G01*
X28082000Y46249000D01*
G75*
G02*
X28033000Y46200000I-49000J0D01*
G01*
X21633000Y46200000D01*
G75*
G02*
X21584000Y46249000I0J49000D01*
G01*
G37*
G36*
G01*
X17384000Y46269000D02*
X17384000Y47469000D01*
G75*
G02*
X17433000Y47518000I49000J0D01*
G01*
X19633000Y47518000D01*
G75*
G02*
X19682000Y47469000I0J-49000D01*
G01*
X19682000Y46269000D01*
G75*
G02*
X19633000Y46220000I-49000J0D01*
G01*
X17433000Y46220000D01*
G75*
G02*
X17384000Y46269000I0J49000D01*
G01*
G37*
G04 #@! TD*
G04 #@! TO.C,C2*
G36*
G01*
X10748000Y43137000D02*
X10748000Y43477000D01*
G75*
G02*
X10937000Y43666000I189000J0D01*
G01*
X11217000Y43666000D01*
G75*
G02*
X11406000Y43477000I0J-189000D01*
G01*
X11406000Y43137000D01*
G75*
G02*
X11217000Y42948000I-189000J0D01*
G01*
X10937000Y42948000D01*
G75*
G02*
X10748000Y43137000I0J189000D01*
G01*
G37*
G36*
G01*
X11708000Y43137000D02*
X11708000Y43477000D01*
G75*
G02*
X11897000Y43666000I189000J0D01*
G01*
X12177000Y43666000D01*
G75*
G02*
X12366000Y43477000I0J-189000D01*
G01*
X12366000Y43137000D01*
G75*
G02*
X12177000Y42948000I-189000J0D01*
G01*
X11897000Y42948000D01*
G75*
G02*
X11708000Y43137000I0J189000D01*
G01*
G37*
G04 #@! TD*
G04 #@! TO.C,J3*
G36*
G01*
X34969000Y7381000D02*
X36669000Y7381000D01*
G75*
G02*
X36718000Y7332000I0J-49000D01*
G01*
X36718000Y5632000D01*
G75*
G02*
X36669000Y5583000I-49000J0D01*
G01*
X34969000Y5583000D01*
G75*
G02*
X34920000Y5632000I0J49000D01*
G01*
X34920000Y7332000D01*
G75*
G02*
X34969000Y7381000I49000J0D01*
G01*
G37*
D11*
X35819000Y3942000D03*
X33279000Y6482000D03*
X33279000Y3942000D03*
G04 #@! TD*
G04 #@! TO.C,U3*
G36*
G01*
X14999000Y28530000D02*
X15399000Y28530000D01*
G75*
G02*
X15448000Y28481000I0J-49000D01*
G01*
X15448000Y27381000D01*
G75*
G02*
X15399000Y27332000I-49000J0D01*
G01*
X14999000Y27332000D01*
G75*
G02*
X14950000Y27381000I0J49000D01*
G01*
X14950000Y28481000D01*
G75*
G02*
X14999000Y28530000I49000J0D01*
G01*
G37*
G36*
G01*
X14349000Y28530000D02*
X14749000Y28530000D01*
G75*
G02*
X14798000Y28481000I0J-49000D01*
G01*
X14798000Y27381000D01*
G75*
G02*
X14749000Y27332000I-49000J0D01*
G01*
X14349000Y27332000D01*
G75*
G02*
X14300000Y27381000I0J49000D01*
G01*
X14300000Y28481000D01*
G75*
G02*
X14349000Y28530000I49000J0D01*
G01*
G37*
G36*
G01*
X13699000Y28530000D02*
X14099000Y28530000D01*
G75*
G02*
X14148000Y28481000I0J-49000D01*
G01*
X14148000Y27381000D01*
G75*
G02*
X14099000Y27332000I-49000J0D01*
G01*
X13699000Y27332000D01*
G75*
G02*
X13650000Y27381000I0J49000D01*
G01*
X13650000Y28481000D01*
G75*
G02*
X13699000Y28530000I49000J0D01*
G01*
G37*
G36*
G01*
X13049000Y28530000D02*
X13449000Y28530000D01*
G75*
G02*
X13498000Y28481000I0J-49000D01*
G01*
X13498000Y27381000D01*
G75*
G02*
X13449000Y27332000I-49000J0D01*
G01*
X13049000Y27332000D01*
G75*
G02*
X13000000Y27381000I0J49000D01*
G01*
X13000000Y28481000D01*
G75*
G02*
X13049000Y28530000I49000J0D01*
G01*
G37*
G36*
G01*
X13049000Y24230000D02*
X13449000Y24230000D01*
G75*
G02*
X13498000Y24181000I0J-49000D01*
G01*
X13498000Y23081000D01*
G75*
G02*
X13449000Y23032000I-49000J0D01*
G01*
X13049000Y23032000D01*
G75*
G02*
X13000000Y23081000I0J49000D01*
G01*
X13000000Y24181000D01*
G75*
G02*
X13049000Y24230000I49000J0D01*
G01*
G37*
G36*
G01*
X13699000Y24230000D02*
X14099000Y24230000D01*
G75*
G02*
X14148000Y24181000I0J-49000D01*
G01*
X14148000Y23081000D01*
G75*
G02*
X14099000Y23032000I-49000J0D01*
G01*
X13699000Y23032000D01*
G75*
G02*
X13650000Y23081000I0J49000D01*
G01*
X13650000Y24181000D01*
G75*
G02*
X13699000Y24230000I49000J0D01*
G01*
G37*
G36*
G01*
X14349000Y24230000D02*
X14749000Y24230000D01*
G75*
G02*
X14798000Y24181000I0J-49000D01*
G01*
X14798000Y23081000D01*
G75*
G02*
X14749000Y23032000I-49000J0D01*
G01*
X14349000Y23032000D01*
G75*
G02*
X14300000Y23081000I0J49000D01*
G01*
X14300000Y24181000D01*
G75*
G02*
X14349000Y24230000I49000J0D01*
G01*
G37*
G36*
G01*
X14999000Y24230000D02*
X15399000Y24230000D01*
G75*
G02*
X15448000Y24181000I0J-49000D01*
G01*
X15448000Y23081000D01*
G75*
G02*
X15399000Y23032000I-49000J0D01*
G01*
X14999000Y23032000D01*
G75*
G02*
X14950000Y23081000I0J49000D01*
G01*
X14950000Y24181000D01*
G75*
G02*
X14999000Y24230000I49000J0D01*
G01*
G37*
G04 #@! TD*
G04 #@! TO.C,R39*
G36*
G01*
X40229000Y36115000D02*
X40229000Y35745000D01*
G75*
G02*
X40045000Y35561000I-184000J0D01*
G01*
X39775000Y35561000D01*
G75*
G02*
X39591000Y35745000I0J184000D01*
G01*
X39591000Y36115000D01*
G75*
G02*
X39775000Y36299000I184000J0D01*
G01*
X40045000Y36299000D01*
G75*
G02*
X40229000Y36115000I0J-184000D01*
G01*
G37*
G36*
G01*
X39209000Y36115000D02*
X39209000Y35745000D01*
G75*
G02*
X39025000Y35561000I-184000J0D01*
G01*
X38755000Y35561000D01*
G75*
G02*
X38571000Y35745000I0J184000D01*
G01*
X38571000Y36115000D01*
G75*
G02*
X38755000Y36299000I184000J0D01*
G01*
X39025000Y36299000D01*
G75*
G02*
X39209000Y36115000I0J-184000D01*
G01*
G37*
G04 #@! TD*
G04 #@! TO.C,U2*
G36*
G01*
X36949000Y35074000D02*
X37099000Y35074000D01*
G75*
G02*
X37223000Y34950000I0J-124000D01*
G01*
X37223000Y33550000D01*
G75*
G02*
X37099000Y33426000I-124000J0D01*
G01*
X36949000Y33426000D01*
G75*
G02*
X36825000Y33550000I0J124000D01*
G01*
X36825000Y34950000D01*
G75*
G02*
X36949000Y35074000I124000J0D01*
G01*
G37*
G36*
G01*
X36449000Y35074000D02*
X36599000Y35074000D01*
G75*
G02*
X36723000Y34950000I0J-124000D01*
G01*
X36723000Y33550000D01*
G75*
G02*
X36599000Y33426000I-124000J0D01*
G01*
X36449000Y33426000D01*
G75*
G02*
X36325000Y33550000I0J124000D01*
G01*
X36325000Y34950000D01*
G75*
G02*
X36449000Y35074000I124000J0D01*
G01*
G37*
G36*
G01*
X35949000Y35074000D02*
X36099000Y35074000D01*
G75*
G02*
X36223000Y34950000I0J-124000D01*
G01*
X36223000Y33550000D01*
G75*
G02*
X36099000Y33426000I-124000J0D01*
G01*
X35949000Y33426000D01*
G75*
G02*
X35825000Y33550000I0J124000D01*
G01*
X35825000Y34950000D01*
G75*
G02*
X35949000Y35074000I124000J0D01*
G01*
G37*
G36*
G01*
X35449000Y35074000D02*
X35599000Y35074000D01*
G75*
G02*
X35723000Y34950000I0J-124000D01*
G01*
X35723000Y33550000D01*
G75*
G02*
X35599000Y33426000I-124000J0D01*
G01*
X35449000Y33426000D01*
G75*
G02*
X35325000Y33550000I0J124000D01*
G01*
X35325000Y34950000D01*
G75*
G02*
X35449000Y35074000I124000J0D01*
G01*
G37*
G36*
G01*
X34949000Y35074000D02*
X35099000Y35074000D01*
G75*
G02*
X35223000Y34950000I0J-124000D01*
G01*
X35223000Y33550000D01*
G75*
G02*
X35099000Y33426000I-124000J0D01*
G01*
X34949000Y33426000D01*
G75*
G02*
X34825000Y33550000I0J124000D01*
G01*
X34825000Y34950000D01*
G75*
G02*
X34949000Y35074000I124000J0D01*
G01*
G37*
G36*
G01*
X34449000Y35074000D02*
X34599000Y35074000D01*
G75*
G02*
X34723000Y34950000I0J-124000D01*
G01*
X34723000Y33550000D01*
G75*
G02*
X34599000Y33426000I-124000J0D01*
G01*
X34449000Y33426000D01*
G75*
G02*
X34325000Y33550000I0J124000D01*
G01*
X34325000Y34950000D01*
G75*
G02*
X34449000Y35074000I124000J0D01*
G01*
G37*
G36*
G01*
X33949000Y35074000D02*
X34099000Y35074000D01*
G75*
G02*
X34223000Y34950000I0J-124000D01*
G01*
X34223000Y33550000D01*
G75*
G02*
X34099000Y33426000I-124000J0D01*
G01*
X33949000Y33426000D01*
G75*
G02*
X33825000Y33550000I0J124000D01*
G01*
X33825000Y34950000D01*
G75*
G02*
X33949000Y35074000I124000J0D01*
G01*
G37*
G36*
G01*
X33449000Y35074000D02*
X33599000Y35074000D01*
G75*
G02*
X33723000Y34950000I0J-124000D01*
G01*
X33723000Y33550000D01*
G75*
G02*
X33599000Y33426000I-124000J0D01*
G01*
X33449000Y33426000D01*
G75*
G02*
X33325000Y33550000I0J124000D01*
G01*
X33325000Y34950000D01*
G75*
G02*
X33449000Y35074000I124000J0D01*
G01*
G37*
G36*
G01*
X32949000Y35074000D02*
X33099000Y35074000D01*
G75*
G02*
X33223000Y34950000I0J-124000D01*
G01*
X33223000Y33550000D01*
G75*
G02*
X33099000Y33426000I-124000J0D01*
G01*
X32949000Y33426000D01*
G75*
G02*
X32825000Y33550000I0J124000D01*
G01*
X32825000Y34950000D01*
G75*
G02*
X32949000Y35074000I124000J0D01*
G01*
G37*
G36*
G01*
X32449000Y35074000D02*
X32599000Y35074000D01*
G75*
G02*
X32723000Y34950000I0J-124000D01*
G01*
X32723000Y33550000D01*
G75*
G02*
X32599000Y33426000I-124000J0D01*
G01*
X32449000Y33426000D01*
G75*
G02*
X32325000Y33550000I0J124000D01*
G01*
X32325000Y34950000D01*
G75*
G02*
X32449000Y35074000I124000J0D01*
G01*
G37*
G36*
G01*
X31949000Y35074000D02*
X32099000Y35074000D01*
G75*
G02*
X32223000Y34950000I0J-124000D01*
G01*
X32223000Y33550000D01*
G75*
G02*
X32099000Y33426000I-124000J0D01*
G01*
X31949000Y33426000D01*
G75*
G02*
X31825000Y33550000I0J124000D01*
G01*
X31825000Y34950000D01*
G75*
G02*
X31949000Y35074000I124000J0D01*
G01*
G37*
G36*
G01*
X31449000Y35074000D02*
X31599000Y35074000D01*
G75*
G02*
X31723000Y34950000I0J-124000D01*
G01*
X31723000Y33550000D01*
G75*
G02*
X31599000Y33426000I-124000J0D01*
G01*
X31449000Y33426000D01*
G75*
G02*
X31325000Y33550000I0J124000D01*
G01*
X31325000Y34950000D01*
G75*
G02*
X31449000Y35074000I124000J0D01*
G01*
G37*
G36*
G01*
X30949000Y35074000D02*
X31099000Y35074000D01*
G75*
G02*
X31223000Y34950000I0J-124000D01*
G01*
X31223000Y33550000D01*
G75*
G02*
X31099000Y33426000I-124000J0D01*
G01*
X30949000Y33426000D01*
G75*
G02*
X30825000Y33550000I0J124000D01*
G01*
X30825000Y34950000D01*
G75*
G02*
X30949000Y35074000I124000J0D01*
G01*
G37*
G36*
G01*
X30449000Y35074000D02*
X30599000Y35074000D01*
G75*
G02*
X30723000Y34950000I0J-124000D01*
G01*
X30723000Y33550000D01*
G75*
G02*
X30599000Y33426000I-124000J0D01*
G01*
X30449000Y33426000D01*
G75*
G02*
X30325000Y33550000I0J124000D01*
G01*
X30325000Y34950000D01*
G75*
G02*
X30449000Y35074000I124000J0D01*
G01*
G37*
G36*
G01*
X29949000Y35074000D02*
X30099000Y35074000D01*
G75*
G02*
X30223000Y34950000I0J-124000D01*
G01*
X30223000Y33550000D01*
G75*
G02*
X30099000Y33426000I-124000J0D01*
G01*
X29949000Y33426000D01*
G75*
G02*
X29825000Y33550000I0J124000D01*
G01*
X29825000Y34950000D01*
G75*
G02*
X29949000Y35074000I124000J0D01*
G01*
G37*
G36*
G01*
X29449000Y35074000D02*
X29599000Y35074000D01*
G75*
G02*
X29723000Y34950000I0J-124000D01*
G01*
X29723000Y33550000D01*
G75*
G02*
X29599000Y33426000I-124000J0D01*
G01*
X29449000Y33426000D01*
G75*
G02*
X29325000Y33550000I0J124000D01*
G01*
X29325000Y34950000D01*
G75*
G02*
X29449000Y35074000I124000J0D01*
G01*
G37*
G36*
G01*
X26899000Y32524000D02*
X28299000Y32524000D01*
G75*
G02*
X28423000Y32400000I0J-124000D01*
G01*
X28423000Y32250000D01*
G75*
G02*
X28299000Y32126000I-124000J0D01*
G01*
X26899000Y32126000D01*
G75*
G02*
X26775000Y32250000I0J124000D01*
G01*
X26775000Y32400000D01*
G75*
G02*
X26899000Y32524000I124000J0D01*
G01*
G37*
G36*
G01*
X26899000Y32024000D02*
X28299000Y32024000D01*
G75*
G02*
X28423000Y31900000I0J-124000D01*
G01*
X28423000Y31750000D01*
G75*
G02*
X28299000Y31626000I-124000J0D01*
G01*
X26899000Y31626000D01*
G75*
G02*
X26775000Y31750000I0J124000D01*
G01*
X26775000Y31900000D01*
G75*
G02*
X26899000Y32024000I124000J0D01*
G01*
G37*
G36*
G01*
X26899000Y31524000D02*
X28299000Y31524000D01*
G75*
G02*
X28423000Y31400000I0J-124000D01*
G01*
X28423000Y31250000D01*
G75*
G02*
X28299000Y31126000I-124000J0D01*
G01*
X26899000Y31126000D01*
G75*
G02*
X26775000Y31250000I0J124000D01*
G01*
X26775000Y31400000D01*
G75*
G02*
X26899000Y31524000I124000J0D01*
G01*
G37*
G36*
G01*
X26899000Y31024000D02*
X28299000Y31024000D01*
G75*
G02*
X28423000Y30900000I0J-124000D01*
G01*
X28423000Y30750000D01*
G75*
G02*
X28299000Y30626000I-124000J0D01*
G01*
X26899000Y30626000D01*
G75*
G02*
X26775000Y30750000I0J124000D01*
G01*
X26775000Y30900000D01*
G75*
G02*
X26899000Y31024000I124000J0D01*
G01*
G37*
G36*
G01*
X26899000Y30524000D02*
X28299000Y30524000D01*
G75*
G02*
X28423000Y30400000I0J-124000D01*
G01*
X28423000Y30250000D01*
G75*
G02*
X28299000Y30126000I-124000J0D01*
G01*
X26899000Y30126000D01*
G75*
G02*
X26775000Y30250000I0J124000D01*
G01*
X26775000Y30400000D01*
G75*
G02*
X26899000Y30524000I124000J0D01*
G01*
G37*
G36*
G01*
X26899000Y30024000D02*
X28299000Y30024000D01*
G75*
G02*
X28423000Y29900000I0J-124000D01*
G01*
X28423000Y29750000D01*
G75*
G02*
X28299000Y29626000I-124000J0D01*
G01*
X26899000Y29626000D01*
G75*
G02*
X26775000Y29750000I0J124000D01*
G01*
X26775000Y29900000D01*
G75*
G02*
X26899000Y30024000I124000J0D01*
G01*
G37*
G36*
G01*
X26899000Y29524000D02*
X28299000Y29524000D01*
G75*
G02*
X28423000Y29400000I0J-124000D01*
G01*
X28423000Y29250000D01*
G75*
G02*
X28299000Y29126000I-124000J0D01*
G01*
X26899000Y29126000D01*
G75*
G02*
X26775000Y29250000I0J124000D01*
G01*
X26775000Y29400000D01*
G75*
G02*
X26899000Y29524000I124000J0D01*
G01*
G37*
G36*
G01*
X26899000Y29024000D02*
X28299000Y29024000D01*
G75*
G02*
X28423000Y28900000I0J-124000D01*
G01*
X28423000Y28750000D01*
G75*
G02*
X28299000Y28626000I-124000J0D01*
G01*
X26899000Y28626000D01*
G75*
G02*
X26775000Y28750000I0J124000D01*
G01*
X26775000Y28900000D01*
G75*
G02*
X26899000Y29024000I124000J0D01*
G01*
G37*
G36*
G01*
X26899000Y28524000D02*
X28299000Y28524000D01*
G75*
G02*
X28423000Y28400000I0J-124000D01*
G01*
X28423000Y28250000D01*
G75*
G02*
X28299000Y28126000I-124000J0D01*
G01*
X26899000Y28126000D01*
G75*
G02*
X26775000Y28250000I0J124000D01*
G01*
X26775000Y28400000D01*
G75*
G02*
X26899000Y28524000I124000J0D01*
G01*
G37*
G36*
G01*
X26899000Y28024000D02*
X28299000Y28024000D01*
G75*
G02*
X28423000Y27900000I0J-124000D01*
G01*
X28423000Y27750000D01*
G75*
G02*
X28299000Y27626000I-124000J0D01*
G01*
X26899000Y27626000D01*
G75*
G02*
X26775000Y27750000I0J124000D01*
G01*
X26775000Y27900000D01*
G75*
G02*
X26899000Y28024000I124000J0D01*
G01*
G37*
G36*
G01*
X26899000Y27524000D02*
X28299000Y27524000D01*
G75*
G02*
X28423000Y27400000I0J-124000D01*
G01*
X28423000Y27250000D01*
G75*
G02*
X28299000Y27126000I-124000J0D01*
G01*
X26899000Y27126000D01*
G75*
G02*
X26775000Y27250000I0J124000D01*
G01*
X26775000Y27400000D01*
G75*
G02*
X26899000Y27524000I124000J0D01*
G01*
G37*
G36*
G01*
X26899000Y27024000D02*
X28299000Y27024000D01*
G75*
G02*
X28423000Y26900000I0J-124000D01*
G01*
X28423000Y26750000D01*
G75*
G02*
X28299000Y26626000I-124000J0D01*
G01*
X26899000Y26626000D01*
G75*
G02*
X26775000Y26750000I0J124000D01*
G01*
X26775000Y26900000D01*
G75*
G02*
X26899000Y27024000I124000J0D01*
G01*
G37*
G36*
G01*
X26899000Y26524000D02*
X28299000Y26524000D01*
G75*
G02*
X28423000Y26400000I0J-124000D01*
G01*
X28423000Y26250000D01*
G75*
G02*
X28299000Y26126000I-124000J0D01*
G01*
X26899000Y26126000D01*
G75*
G02*
X26775000Y26250000I0J124000D01*
G01*
X26775000Y26400000D01*
G75*
G02*
X26899000Y26524000I124000J0D01*
G01*
G37*
G36*
G01*
X26899000Y26024000D02*
X28299000Y26024000D01*
G75*
G02*
X28423000Y25900000I0J-124000D01*
G01*
X28423000Y25750000D01*
G75*
G02*
X28299000Y25626000I-124000J0D01*
G01*
X26899000Y25626000D01*
G75*
G02*
X26775000Y25750000I0J124000D01*
G01*
X26775000Y25900000D01*
G75*
G02*
X26899000Y26024000I124000J0D01*
G01*
G37*
G36*
G01*
X26899000Y25524000D02*
X28299000Y25524000D01*
G75*
G02*
X28423000Y25400000I0J-124000D01*
G01*
X28423000Y25250000D01*
G75*
G02*
X28299000Y25126000I-124000J0D01*
G01*
X26899000Y25126000D01*
G75*
G02*
X26775000Y25250000I0J124000D01*
G01*
X26775000Y25400000D01*
G75*
G02*
X26899000Y25524000I124000J0D01*
G01*
G37*
G36*
G01*
X26899000Y25024000D02*
X28299000Y25024000D01*
G75*
G02*
X28423000Y24900000I0J-124000D01*
G01*
X28423000Y24750000D01*
G75*
G02*
X28299000Y24626000I-124000J0D01*
G01*
X26899000Y24626000D01*
G75*
G02*
X26775000Y24750000I0J124000D01*
G01*
X26775000Y24900000D01*
G75*
G02*
X26899000Y25024000I124000J0D01*
G01*
G37*
G36*
G01*
X29449000Y23724000D02*
X29599000Y23724000D01*
G75*
G02*
X29723000Y23600000I0J-124000D01*
G01*
X29723000Y22200000D01*
G75*
G02*
X29599000Y22076000I-124000J0D01*
G01*
X29449000Y22076000D01*
G75*
G02*
X29325000Y22200000I0J124000D01*
G01*
X29325000Y23600000D01*
G75*
G02*
X29449000Y23724000I124000J0D01*
G01*
G37*
G36*
G01*
X29949000Y23724000D02*
X30099000Y23724000D01*
G75*
G02*
X30223000Y23600000I0J-124000D01*
G01*
X30223000Y22200000D01*
G75*
G02*
X30099000Y22076000I-124000J0D01*
G01*
X29949000Y22076000D01*
G75*
G02*
X29825000Y22200000I0J124000D01*
G01*
X29825000Y23600000D01*
G75*
G02*
X29949000Y23724000I124000J0D01*
G01*
G37*
G36*
G01*
X30449000Y23724000D02*
X30599000Y23724000D01*
G75*
G02*
X30723000Y23600000I0J-124000D01*
G01*
X30723000Y22200000D01*
G75*
G02*
X30599000Y22076000I-124000J0D01*
G01*
X30449000Y22076000D01*
G75*
G02*
X30325000Y22200000I0J124000D01*
G01*
X30325000Y23600000D01*
G75*
G02*
X30449000Y23724000I124000J0D01*
G01*
G37*
G36*
G01*
X30949000Y23724000D02*
X31099000Y23724000D01*
G75*
G02*
X31223000Y23600000I0J-124000D01*
G01*
X31223000Y22200000D01*
G75*
G02*
X31099000Y22076000I-124000J0D01*
G01*
X30949000Y22076000D01*
G75*
G02*
X30825000Y22200000I0J124000D01*
G01*
X30825000Y23600000D01*
G75*
G02*
X30949000Y23724000I124000J0D01*
G01*
G37*
G36*
G01*
X31449000Y23724000D02*
X31599000Y23724000D01*
G75*
G02*
X31723000Y23600000I0J-124000D01*
G01*
X31723000Y22200000D01*
G75*
G02*
X31599000Y22076000I-124000J0D01*
G01*
X31449000Y22076000D01*
G75*
G02*
X31325000Y22200000I0J124000D01*
G01*
X31325000Y23600000D01*
G75*
G02*
X31449000Y23724000I124000J0D01*
G01*
G37*
G36*
G01*
X31949000Y23724000D02*
X32099000Y23724000D01*
G75*
G02*
X32223000Y23600000I0J-124000D01*
G01*
X32223000Y22200000D01*
G75*
G02*
X32099000Y22076000I-124000J0D01*
G01*
X31949000Y22076000D01*
G75*
G02*
X31825000Y22200000I0J124000D01*
G01*
X31825000Y23600000D01*
G75*
G02*
X31949000Y23724000I124000J0D01*
G01*
G37*
G36*
G01*
X32449000Y23724000D02*
X32599000Y23724000D01*
G75*
G02*
X32723000Y23600000I0J-124000D01*
G01*
X32723000Y22200000D01*
G75*
G02*
X32599000Y22076000I-124000J0D01*
G01*
X32449000Y22076000D01*
G75*
G02*
X32325000Y22200000I0J124000D01*
G01*
X32325000Y23600000D01*
G75*
G02*
X32449000Y23724000I124000J0D01*
G01*
G37*
G36*
G01*
X32949000Y23724000D02*
X33099000Y23724000D01*
G75*
G02*
X33223000Y23600000I0J-124000D01*
G01*
X33223000Y22200000D01*
G75*
G02*
X33099000Y22076000I-124000J0D01*
G01*
X32949000Y22076000D01*
G75*
G02*
X32825000Y22200000I0J124000D01*
G01*
X32825000Y23600000D01*
G75*
G02*
X32949000Y23724000I124000J0D01*
G01*
G37*
G36*
G01*
X33449000Y23724000D02*
X33599000Y23724000D01*
G75*
G02*
X33723000Y23600000I0J-124000D01*
G01*
X33723000Y22200000D01*
G75*
G02*
X33599000Y22076000I-124000J0D01*
G01*
X33449000Y22076000D01*
G75*
G02*
X33325000Y22200000I0J124000D01*
G01*
X33325000Y23600000D01*
G75*
G02*
X33449000Y23724000I124000J0D01*
G01*
G37*
G36*
G01*
X33949000Y23724000D02*
X34099000Y23724000D01*
G75*
G02*
X34223000Y23600000I0J-124000D01*
G01*
X34223000Y22200000D01*
G75*
G02*
X34099000Y22076000I-124000J0D01*
G01*
X33949000Y22076000D01*
G75*
G02*
X33825000Y22200000I0J124000D01*
G01*
X33825000Y23600000D01*
G75*
G02*
X33949000Y23724000I124000J0D01*
G01*
G37*
G36*
G01*
X34449000Y23724000D02*
X34599000Y23724000D01*
G75*
G02*
X34723000Y23600000I0J-124000D01*
G01*
X34723000Y22200000D01*
G75*
G02*
X34599000Y22076000I-124000J0D01*
G01*
X34449000Y22076000D01*
G75*
G02*
X34325000Y22200000I0J124000D01*
G01*
X34325000Y23600000D01*
G75*
G02*
X34449000Y23724000I124000J0D01*
G01*
G37*
G36*
G01*
X34949000Y23724000D02*
X35099000Y23724000D01*
G75*
G02*
X35223000Y23600000I0J-124000D01*
G01*
X35223000Y22200000D01*
G75*
G02*
X35099000Y22076000I-124000J0D01*
G01*
X34949000Y22076000D01*
G75*
G02*
X34825000Y22200000I0J124000D01*
G01*
X34825000Y23600000D01*
G75*
G02*
X34949000Y23724000I124000J0D01*
G01*
G37*
G36*
G01*
X35449000Y23724000D02*
X35599000Y23724000D01*
G75*
G02*
X35723000Y23600000I0J-124000D01*
G01*
X35723000Y22200000D01*
G75*
G02*
X35599000Y22076000I-124000J0D01*
G01*
X35449000Y22076000D01*
G75*
G02*
X35325000Y22200000I0J124000D01*
G01*
X35325000Y23600000D01*
G75*
G02*
X35449000Y23724000I124000J0D01*
G01*
G37*
G36*
G01*
X35949000Y23724000D02*
X36099000Y23724000D01*
G75*
G02*
X36223000Y23600000I0J-124000D01*
G01*
X36223000Y22200000D01*
G75*
G02*
X36099000Y22076000I-124000J0D01*
G01*
X35949000Y22076000D01*
G75*
G02*
X35825000Y22200000I0J124000D01*
G01*
X35825000Y23600000D01*
G75*
G02*
X35949000Y23724000I124000J0D01*
G01*
G37*
G36*
G01*
X36449000Y23724000D02*
X36599000Y23724000D01*
G75*
G02*
X36723000Y23600000I0J-124000D01*
G01*
X36723000Y22200000D01*
G75*
G02*
X36599000Y22076000I-124000J0D01*
G01*
X36449000Y22076000D01*
G75*
G02*
X36325000Y22200000I0J124000D01*
G01*
X36325000Y23600000D01*
G75*
G02*
X36449000Y23724000I124000J0D01*
G01*
G37*
G36*
G01*
X36949000Y23724000D02*
X37099000Y23724000D01*
G75*
G02*
X37223000Y23600000I0J-124000D01*
G01*
X37223000Y22200000D01*
G75*
G02*
X37099000Y22076000I-124000J0D01*
G01*
X36949000Y22076000D01*
G75*
G02*
X36825000Y22200000I0J124000D01*
G01*
X36825000Y23600000D01*
G75*
G02*
X36949000Y23724000I124000J0D01*
G01*
G37*
G36*
G01*
X38249000Y25024000D02*
X39649000Y25024000D01*
G75*
G02*
X39773000Y24900000I0J-124000D01*
G01*
X39773000Y24750000D01*
G75*
G02*
X39649000Y24626000I-124000J0D01*
G01*
X38249000Y24626000D01*
G75*
G02*
X38125000Y24750000I0J124000D01*
G01*
X38125000Y24900000D01*
G75*
G02*
X38249000Y25024000I124000J0D01*
G01*
G37*
G36*
G01*
X38249000Y25524000D02*
X39649000Y25524000D01*
G75*
G02*
X39773000Y25400000I0J-124000D01*
G01*
X39773000Y25250000D01*
G75*
G02*
X39649000Y25126000I-124000J0D01*
G01*
X38249000Y25126000D01*
G75*
G02*
X38125000Y25250000I0J124000D01*
G01*
X38125000Y25400000D01*
G75*
G02*
X38249000Y25524000I124000J0D01*
G01*
G37*
G36*
G01*
X38249000Y26024000D02*
X39649000Y26024000D01*
G75*
G02*
X39773000Y25900000I0J-124000D01*
G01*
X39773000Y25750000D01*
G75*
G02*
X39649000Y25626000I-124000J0D01*
G01*
X38249000Y25626000D01*
G75*
G02*
X38125000Y25750000I0J124000D01*
G01*
X38125000Y25900000D01*
G75*
G02*
X38249000Y26024000I124000J0D01*
G01*
G37*
G36*
G01*
X38249000Y26524000D02*
X39649000Y26524000D01*
G75*
G02*
X39773000Y26400000I0J-124000D01*
G01*
X39773000Y26250000D01*
G75*
G02*
X39649000Y26126000I-124000J0D01*
G01*
X38249000Y26126000D01*
G75*
G02*
X38125000Y26250000I0J124000D01*
G01*
X38125000Y26400000D01*
G75*
G02*
X38249000Y26524000I124000J0D01*
G01*
G37*
G36*
G01*
X38249000Y27024000D02*
X39649000Y27024000D01*
G75*
G02*
X39773000Y26900000I0J-124000D01*
G01*
X39773000Y26750000D01*
G75*
G02*
X39649000Y26626000I-124000J0D01*
G01*
X38249000Y26626000D01*
G75*
G02*
X38125000Y26750000I0J124000D01*
G01*
X38125000Y26900000D01*
G75*
G02*
X38249000Y27024000I124000J0D01*
G01*
G37*
G36*
G01*
X38249000Y27524000D02*
X39649000Y27524000D01*
G75*
G02*
X39773000Y27400000I0J-124000D01*
G01*
X39773000Y27250000D01*
G75*
G02*
X39649000Y27126000I-124000J0D01*
G01*
X38249000Y27126000D01*
G75*
G02*
X38125000Y27250000I0J124000D01*
G01*
X38125000Y27400000D01*
G75*
G02*
X38249000Y27524000I124000J0D01*
G01*
G37*
G36*
G01*
X38249000Y28024000D02*
X39649000Y28024000D01*
G75*
G02*
X39773000Y27900000I0J-124000D01*
G01*
X39773000Y27750000D01*
G75*
G02*
X39649000Y27626000I-124000J0D01*
G01*
X38249000Y27626000D01*
G75*
G02*
X38125000Y27750000I0J124000D01*
G01*
X38125000Y27900000D01*
G75*
G02*
X38249000Y28024000I124000J0D01*
G01*
G37*
G36*
G01*
X38249000Y28524000D02*
X39649000Y28524000D01*
G75*
G02*
X39773000Y28400000I0J-124000D01*
G01*
X39773000Y28250000D01*
G75*
G02*
X39649000Y28126000I-124000J0D01*
G01*
X38249000Y28126000D01*
G75*
G02*
X38125000Y28250000I0J124000D01*
G01*
X38125000Y28400000D01*
G75*
G02*
X38249000Y28524000I124000J0D01*
G01*
G37*
G36*
G01*
X38249000Y29024000D02*
X39649000Y29024000D01*
G75*
G02*
X39773000Y28900000I0J-124000D01*
G01*
X39773000Y28750000D01*
G75*
G02*
X39649000Y28626000I-124000J0D01*
G01*
X38249000Y28626000D01*
G75*
G02*
X38125000Y28750000I0J124000D01*
G01*
X38125000Y28900000D01*
G75*
G02*
X38249000Y29024000I124000J0D01*
G01*
G37*
G36*
G01*
X38249000Y29524000D02*
X39649000Y29524000D01*
G75*
G02*
X39773000Y29400000I0J-124000D01*
G01*
X39773000Y29250000D01*
G75*
G02*
X39649000Y29126000I-124000J0D01*
G01*
X38249000Y29126000D01*
G75*
G02*
X38125000Y29250000I0J124000D01*
G01*
X38125000Y29400000D01*
G75*
G02*
X38249000Y29524000I124000J0D01*
G01*
G37*
G36*
G01*
X38249000Y30024000D02*
X39649000Y30024000D01*
G75*
G02*
X39773000Y29900000I0J-124000D01*
G01*
X39773000Y29750000D01*
G75*
G02*
X39649000Y29626000I-124000J0D01*
G01*
X38249000Y29626000D01*
G75*
G02*
X38125000Y29750000I0J124000D01*
G01*
X38125000Y29900000D01*
G75*
G02*
X38249000Y30024000I124000J0D01*
G01*
G37*
G36*
G01*
X38249000Y30524000D02*
X39649000Y30524000D01*
G75*
G02*
X39773000Y30400000I0J-124000D01*
G01*
X39773000Y30250000D01*
G75*
G02*
X39649000Y30126000I-124000J0D01*
G01*
X38249000Y30126000D01*
G75*
G02*
X38125000Y30250000I0J124000D01*
G01*
X38125000Y30400000D01*
G75*
G02*
X38249000Y30524000I124000J0D01*
G01*
G37*
G36*
G01*
X38249000Y31024000D02*
X39649000Y31024000D01*
G75*
G02*
X39773000Y30900000I0J-124000D01*
G01*
X39773000Y30750000D01*
G75*
G02*
X39649000Y30626000I-124000J0D01*
G01*
X38249000Y30626000D01*
G75*
G02*
X38125000Y30750000I0J124000D01*
G01*
X38125000Y30900000D01*
G75*
G02*
X38249000Y31024000I124000J0D01*
G01*
G37*
G36*
G01*
X38249000Y31524000D02*
X39649000Y31524000D01*
G75*
G02*
X39773000Y31400000I0J-124000D01*
G01*
X39773000Y31250000D01*
G75*
G02*
X39649000Y31126000I-124000J0D01*
G01*
X38249000Y31126000D01*
G75*
G02*
X38125000Y31250000I0J124000D01*
G01*
X38125000Y31400000D01*
G75*
G02*
X38249000Y31524000I124000J0D01*
G01*
G37*
G36*
G01*
X38249000Y32024000D02*
X39649000Y32024000D01*
G75*
G02*
X39773000Y31900000I0J-124000D01*
G01*
X39773000Y31750000D01*
G75*
G02*
X39649000Y31626000I-124000J0D01*
G01*
X38249000Y31626000D01*
G75*
G02*
X38125000Y31750000I0J124000D01*
G01*
X38125000Y31900000D01*
G75*
G02*
X38249000Y32024000I124000J0D01*
G01*
G37*
G36*
G01*
X38249000Y32524000D02*
X39649000Y32524000D01*
G75*
G02*
X39773000Y32400000I0J-124000D01*
G01*
X39773000Y32250000D01*
G75*
G02*
X39649000Y32126000I-124000J0D01*
G01*
X38249000Y32126000D01*
G75*
G02*
X38125000Y32250000I0J124000D01*
G01*
X38125000Y32400000D01*
G75*
G02*
X38249000Y32524000I124000J0D01*
G01*
G37*
G04 #@! TD*
G04 #@! TO.C,R47*
G36*
G01*
X31817000Y37396000D02*
X31817000Y37026000D01*
G75*
G02*
X31633000Y36842000I-184000J0D01*
G01*
X31363000Y36842000D01*
G75*
G02*
X31179000Y37026000I0J184000D01*
G01*
X31179000Y37396000D01*
G75*
G02*
X31363000Y37580000I184000J0D01*
G01*
X31633000Y37580000D01*
G75*
G02*
X31817000Y37396000I0J-184000D01*
G01*
G37*
G36*
G01*
X30797000Y37396000D02*
X30797000Y37026000D01*
G75*
G02*
X30613000Y36842000I-184000J0D01*
G01*
X30343000Y36842000D01*
G75*
G02*
X30159000Y37026000I0J184000D01*
G01*
X30159000Y37396000D01*
G75*
G02*
X30343000Y37580000I184000J0D01*
G01*
X30613000Y37580000D01*
G75*
G02*
X30797000Y37396000I0J-184000D01*
G01*
G37*
G04 #@! TD*
G04 #@! TO.C,C12*
G36*
G01*
X16934000Y22940000D02*
X16594000Y22940000D01*
G75*
G02*
X16405000Y23129000I0J189000D01*
G01*
X16405000Y23409000D01*
G75*
G02*
X16594000Y23598000I189000J0D01*
G01*
X16934000Y23598000D01*
G75*
G02*
X17123000Y23409000I0J-189000D01*
G01*
X17123000Y23129000D01*
G75*
G02*
X16934000Y22940000I-189000J0D01*
G01*
G37*
G36*
G01*
X16934000Y23900000D02*
X16594000Y23900000D01*
G75*
G02*
X16405000Y24089000I0J189000D01*
G01*
X16405000Y24369000D01*
G75*
G02*
X16594000Y24558000I189000J0D01*
G01*
X16934000Y24558000D01*
G75*
G02*
X17123000Y24369000I0J-189000D01*
G01*
X17123000Y24089000D01*
G75*
G02*
X16934000Y23900000I-189000J0D01*
G01*
G37*
G04 #@! TD*
G04 #@! TO.C,Y1*
G36*
G01*
X28503000Y39767000D02*
X28503000Y41767000D01*
G75*
G02*
X28552000Y41816000I49000J0D01*
G01*
X33052000Y41816000D01*
G75*
G02*
X33101000Y41767000I0J-49000D01*
G01*
X33101000Y39767000D01*
G75*
G02*
X33052000Y39718000I-49000J0D01*
G01*
X28552000Y39718000D01*
G75*
G02*
X28503000Y39767000I0J49000D01*
G01*
G37*
G36*
G01*
X37003000Y39767000D02*
X37003000Y41767000D01*
G75*
G02*
X37052000Y41816000I49000J0D01*
G01*
X41552000Y41816000D01*
G75*
G02*
X41601000Y41767000I0J-49000D01*
G01*
X41601000Y39767000D01*
G75*
G02*
X41552000Y39718000I-49000J0D01*
G01*
X37052000Y39718000D01*
G75*
G02*
X37003000Y39767000I0J49000D01*
G01*
G37*
G04 #@! TD*
G04 #@! TO.C,R26*
G36*
G01*
X30426000Y51806000D02*
X30796000Y51806000D01*
G75*
G02*
X30980000Y51622000I0J-184000D01*
G01*
X30980000Y51352000D01*
G75*
G02*
X30796000Y51168000I-184000J0D01*
G01*
X30426000Y51168000D01*
G75*
G02*
X30242000Y51352000I0J184000D01*
G01*
X30242000Y51622000D01*
G75*
G02*
X30426000Y51806000I184000J0D01*
G01*
G37*
G36*
G01*
X30426000Y50786000D02*
X30796000Y50786000D01*
G75*
G02*
X30980000Y50602000I0J-184000D01*
G01*
X30980000Y50332000D01*
G75*
G02*
X30796000Y50148000I-184000J0D01*
G01*
X30426000Y50148000D01*
G75*
G02*
X30242000Y50332000I0J184000D01*
G01*
X30242000Y50602000D01*
G75*
G02*
X30426000Y50786000I184000J0D01*
G01*
G37*
G04 #@! TD*
G04 #@! TO.C,D2*
G36*
G01*
X9993750Y32643000D02*
X10506250Y32643000D01*
G75*
G02*
X10774000Y32375250I0J-267750D01*
G01*
X10774000Y31937750D01*
G75*
G02*
X10506250Y31670000I-267750J0D01*
G01*
X9993750Y31670000D01*
G75*
G02*
X9726000Y31937750I0J267750D01*
G01*
X9726000Y32375250D01*
G75*
G02*
X9993750Y32643000I267750J0D01*
G01*
G37*
G36*
G01*
X9993750Y31068000D02*
X10506250Y31068000D01*
G75*
G02*
X10774000Y30800250I0J-267750D01*
G01*
X10774000Y30362750D01*
G75*
G02*
X10506250Y30095000I-267750J0D01*
G01*
X9993750Y30095000D01*
G75*
G02*
X9726000Y30362750I0J267750D01*
G01*
X9726000Y30800250D01*
G75*
G02*
X9993750Y31068000I267750J0D01*
G01*
G37*
G04 #@! TD*
G04 #@! TO.C,C26*
G36*
G01*
X14403000Y46185000D02*
X14403000Y46525000D01*
G75*
G02*
X14592000Y46714000I189000J0D01*
G01*
X14872000Y46714000D01*
G75*
G02*
X15061000Y46525000I0J-189000D01*
G01*
X15061000Y46185000D01*
G75*
G02*
X14872000Y45996000I-189000J0D01*
G01*
X14592000Y45996000D01*
G75*
G02*
X14403000Y46185000I0J189000D01*
G01*
G37*
G36*
G01*
X15363000Y46185000D02*
X15363000Y46525000D01*
G75*
G02*
X15552000Y46714000I189000J0D01*
G01*
X15832000Y46714000D01*
G75*
G02*
X16021000Y46525000I0J-189000D01*
G01*
X16021000Y46185000D01*
G75*
G02*
X15832000Y45996000I-189000J0D01*
G01*
X15552000Y45996000D01*
G75*
G02*
X15363000Y46185000I0J189000D01*
G01*
G37*
G04 #@! TD*
G04 #@! TO.C,C1*
G36*
G01*
X9572000Y34841000D02*
X9572000Y34501000D01*
G75*
G02*
X9383000Y34312000I-189000J0D01*
G01*
X9103000Y34312000D01*
G75*
G02*
X8914000Y34501000I0J189000D01*
G01*
X8914000Y34841000D01*
G75*
G02*
X9103000Y35030000I189000J0D01*
G01*
X9383000Y35030000D01*
G75*
G02*
X9572000Y34841000I0J-189000D01*
G01*
G37*
G36*
G01*
X8612000Y34841000D02*
X8612000Y34501000D01*
G75*
G02*
X8423000Y34312000I-189000J0D01*
G01*
X8143000Y34312000D01*
G75*
G02*
X7954000Y34501000I0J189000D01*
G01*
X7954000Y34841000D01*
G75*
G02*
X8143000Y35030000I189000J0D01*
G01*
X8423000Y35030000D01*
G75*
G02*
X8612000Y34841000I0J-189000D01*
G01*
G37*
G04 #@! TD*
G04 #@! TO.C,R1*
G36*
G01*
X13458000Y21442000D02*
X13458000Y21992000D01*
G75*
G02*
X13707000Y22241000I249000J0D01*
G01*
X14107000Y22241000D01*
G75*
G02*
X14356000Y21992000I0J-249000D01*
G01*
X14356000Y21442000D01*
G75*
G02*
X14107000Y21193000I-249000J0D01*
G01*
X13707000Y21193000D01*
G75*
G02*
X13458000Y21442000I0J249000D01*
G01*
G37*
G36*
G01*
X15108000Y21442000D02*
X15108000Y21992000D01*
G75*
G02*
X15357000Y22241000I249000J0D01*
G01*
X15757000Y22241000D01*
G75*
G02*
X16006000Y21992000I0J-249000D01*
G01*
X16006000Y21442000D01*
G75*
G02*
X15757000Y21193000I-249000J0D01*
G01*
X15357000Y21193000D01*
G75*
G02*
X15108000Y21442000I0J249000D01*
G01*
G37*
G04 #@! TD*
G04 #@! TO.C,C44*
G36*
G01*
X43144000Y52185000D02*
X43484000Y52185000D01*
G75*
G02*
X43673000Y51996000I0J-189000D01*
G01*
X43673000Y51716000D01*
G75*
G02*
X43484000Y51527000I-189000J0D01*
G01*
X43144000Y51527000D01*
G75*
G02*
X42955000Y51716000I0J189000D01*
G01*
X42955000Y51996000D01*
G75*
G02*
X43144000Y52185000I189000J0D01*
G01*
G37*
G36*
G01*
X43144000Y51225000D02*
X43484000Y51225000D01*
G75*
G02*
X43673000Y51036000I0J-189000D01*
G01*
X43673000Y50756000D01*
G75*
G02*
X43484000Y50567000I-189000J0D01*
G01*
X43144000Y50567000D01*
G75*
G02*
X42955000Y50756000I0J189000D01*
G01*
X42955000Y51036000D01*
G75*
G02*
X43144000Y51225000I189000J0D01*
G01*
G37*
G04 #@! TD*
G04 #@! TO.C,D1*
G36*
G01*
X8231250Y32643000D02*
X8743750Y32643000D01*
G75*
G02*
X9011500Y32375250I0J-267750D01*
G01*
X9011500Y31937750D01*
G75*
G02*
X8743750Y31670000I-267750J0D01*
G01*
X8231250Y31670000D01*
G75*
G02*
X7963500Y31937750I0J267750D01*
G01*
X7963500Y32375250D01*
G75*
G02*
X8231250Y32643000I267750J0D01*
G01*
G37*
G36*
G01*
X8231250Y31068000D02*
X8743750Y31068000D01*
G75*
G02*
X9011500Y30800250I0J-267750D01*
G01*
X9011500Y30362750D01*
G75*
G02*
X8743750Y30095000I-267750J0D01*
G01*
X8231250Y30095000D01*
G75*
G02*
X7963500Y30362750I0J267750D01*
G01*
X7963500Y30800250D01*
G75*
G02*
X8231250Y31068000I267750J0D01*
G01*
G37*
G04 #@! TD*
G04 #@! TO.C,U8*
G36*
G01*
X43845000Y43051000D02*
X43545000Y43051000D01*
G75*
G02*
X43346000Y43250000I0J199000D01*
G01*
X43346000Y44900000D01*
G75*
G02*
X43545000Y45099000I199000J0D01*
G01*
X43845000Y45099000D01*
G75*
G02*
X44044000Y44900000I0J-199000D01*
G01*
X44044000Y43250000D01*
G75*
G02*
X43845000Y43051000I-199000J0D01*
G01*
G37*
G36*
G01*
X45115000Y43051000D02*
X44815000Y43051000D01*
G75*
G02*
X44616000Y43250000I0J199000D01*
G01*
X44616000Y44900000D01*
G75*
G02*
X44815000Y45099000I199000J0D01*
G01*
X45115000Y45099000D01*
G75*
G02*
X45314000Y44900000I0J-199000D01*
G01*
X45314000Y43250000D01*
G75*
G02*
X45115000Y43051000I-199000J0D01*
G01*
G37*
G36*
G01*
X46385000Y43051000D02*
X46085000Y43051000D01*
G75*
G02*
X45886000Y43250000I0J199000D01*
G01*
X45886000Y44900000D01*
G75*
G02*
X46085000Y45099000I199000J0D01*
G01*
X46385000Y45099000D01*
G75*
G02*
X46584000Y44900000I0J-199000D01*
G01*
X46584000Y43250000D01*
G75*
G02*
X46385000Y43051000I-199000J0D01*
G01*
G37*
G36*
G01*
X47655000Y43051000D02*
X47355000Y43051000D01*
G75*
G02*
X47156000Y43250000I0J199000D01*
G01*
X47156000Y44900000D01*
G75*
G02*
X47355000Y45099000I199000J0D01*
G01*
X47655000Y45099000D01*
G75*
G02*
X47854000Y44900000I0J-199000D01*
G01*
X47854000Y43250000D01*
G75*
G02*
X47655000Y43051000I-199000J0D01*
G01*
G37*
G36*
G01*
X47655000Y48001000D02*
X47355000Y48001000D01*
G75*
G02*
X47156000Y48200000I0J199000D01*
G01*
X47156000Y49850000D01*
G75*
G02*
X47355000Y50049000I199000J0D01*
G01*
X47655000Y50049000D01*
G75*
G02*
X47854000Y49850000I0J-199000D01*
G01*
X47854000Y48200000D01*
G75*
G02*
X47655000Y48001000I-199000J0D01*
G01*
G37*
G36*
G01*
X46385000Y48001000D02*
X46085000Y48001000D01*
G75*
G02*
X45886000Y48200000I0J199000D01*
G01*
X45886000Y49850000D01*
G75*
G02*
X46085000Y50049000I199000J0D01*
G01*
X46385000Y50049000D01*
G75*
G02*
X46584000Y49850000I0J-199000D01*
G01*
X46584000Y48200000D01*
G75*
G02*
X46385000Y48001000I-199000J0D01*
G01*
G37*
G36*
G01*
X45115000Y48001000D02*
X44815000Y48001000D01*
G75*
G02*
X44616000Y48200000I0J199000D01*
G01*
X44616000Y49850000D01*
G75*
G02*
X44815000Y50049000I199000J0D01*
G01*
X45115000Y50049000D01*
G75*
G02*
X45314000Y49850000I0J-199000D01*
G01*
X45314000Y48200000D01*
G75*
G02*
X45115000Y48001000I-199000J0D01*
G01*
G37*
G36*
G01*
X43845000Y48001000D02*
X43545000Y48001000D01*
G75*
G02*
X43346000Y48200000I0J199000D01*
G01*
X43346000Y49850000D01*
G75*
G02*
X43545000Y50049000I199000J0D01*
G01*
X43845000Y50049000D01*
G75*
G02*
X44044000Y49850000I0J-199000D01*
G01*
X44044000Y48200000D01*
G75*
G02*
X43845000Y48001000I-199000J0D01*
G01*
G37*
G04 #@! TD*
G04 #@! TO.C,R59*
G36*
G01*
X49075000Y50524000D02*
X50325000Y50524000D01*
G75*
G02*
X50624000Y50225000I0J-299000D01*
G01*
X50624000Y49600000D01*
G75*
G02*
X50325000Y49301000I-299000J0D01*
G01*
X49075000Y49301000D01*
G75*
G02*
X48776000Y49600000I0J299000D01*
G01*
X48776000Y50225000D01*
G75*
G02*
X49075000Y50524000I299000J0D01*
G01*
G37*
G36*
G01*
X49075000Y47599000D02*
X50325000Y47599000D01*
G75*
G02*
X50624000Y47300000I0J-299000D01*
G01*
X50624000Y46675000D01*
G75*
G02*
X50325000Y46376000I-299000J0D01*
G01*
X49075000Y46376000D01*
G75*
G02*
X48776000Y46675000I0J299000D01*
G01*
X48776000Y47300000D01*
G75*
G02*
X49075000Y47599000I299000J0D01*
G01*
G37*
G04 #@! TD*
G04 #@! TO.C,C9*
G36*
G01*
X23923000Y31793000D02*
X23923000Y31453000D01*
G75*
G02*
X23734000Y31264000I-189000J0D01*
G01*
X23454000Y31264000D01*
G75*
G02*
X23265000Y31453000I0J189000D01*
G01*
X23265000Y31793000D01*
G75*
G02*
X23454000Y31982000I189000J0D01*
G01*
X23734000Y31982000D01*
G75*
G02*
X23923000Y31793000I0J-189000D01*
G01*
G37*
G36*
G01*
X22963000Y31793000D02*
X22963000Y31453000D01*
G75*
G02*
X22774000Y31264000I-189000J0D01*
G01*
X22494000Y31264000D01*
G75*
G02*
X22305000Y31453000I0J189000D01*
G01*
X22305000Y31793000D01*
G75*
G02*
X22494000Y31982000I189000J0D01*
G01*
X22774000Y31982000D01*
G75*
G02*
X22963000Y31793000I0J-189000D01*
G01*
G37*
G04 #@! TD*
G04 #@! TO.C,C16*
G36*
G01*
X54399000Y30433000D02*
X54059000Y30433000D01*
G75*
G02*
X53870000Y30622000I0J189000D01*
G01*
X53870000Y30902000D01*
G75*
G02*
X54059000Y31091000I189000J0D01*
G01*
X54399000Y31091000D01*
G75*
G02*
X54588000Y30902000I0J-189000D01*
G01*
X54588000Y30622000D01*
G75*
G02*
X54399000Y30433000I-189000J0D01*
G01*
G37*
G36*
G01*
X54399000Y31393000D02*
X54059000Y31393000D01*
G75*
G02*
X53870000Y31582000I0J189000D01*
G01*
X53870000Y31862000D01*
G75*
G02*
X54059000Y32051000I189000J0D01*
G01*
X54399000Y32051000D01*
G75*
G02*
X54588000Y31862000I0J-189000D01*
G01*
X54588000Y31582000D01*
G75*
G02*
X54399000Y31393000I-189000J0D01*
G01*
G37*
G04 #@! TD*
G04 #@! TO.C,R41*
G36*
G01*
X25975000Y37396000D02*
X25975000Y37026000D01*
G75*
G02*
X25791000Y36842000I-184000J0D01*
G01*
X25521000Y36842000D01*
G75*
G02*
X25337000Y37026000I0J184000D01*
G01*
X25337000Y37396000D01*
G75*
G02*
X25521000Y37580000I184000J0D01*
G01*
X25791000Y37580000D01*
G75*
G02*
X25975000Y37396000I0J-184000D01*
G01*
G37*
G36*
G01*
X24955000Y37396000D02*
X24955000Y37026000D01*
G75*
G02*
X24771000Y36842000I-184000J0D01*
G01*
X24501000Y36842000D01*
G75*
G02*
X24317000Y37026000I0J184000D01*
G01*
X24317000Y37396000D01*
G75*
G02*
X24501000Y37580000I184000J0D01*
G01*
X24771000Y37580000D01*
G75*
G02*
X24955000Y37396000I0J-184000D01*
G01*
G37*
G04 #@! TD*
G04 #@! TO.C,R22*
G36*
G01*
X21078000Y25760000D02*
X21078000Y26310000D01*
G75*
G02*
X21327000Y26559000I249000J0D01*
G01*
X21727000Y26559000D01*
G75*
G02*
X21976000Y26310000I0J-249000D01*
G01*
X21976000Y25760000D01*
G75*
G02*
X21727000Y25511000I-249000J0D01*
G01*
X21327000Y25511000D01*
G75*
G02*
X21078000Y25760000I0J249000D01*
G01*
G37*
G36*
G01*
X22728000Y25760000D02*
X22728000Y26310000D01*
G75*
G02*
X22977000Y26559000I249000J0D01*
G01*
X23377000Y26559000D01*
G75*
G02*
X23626000Y26310000I0J-249000D01*
G01*
X23626000Y25760000D01*
G75*
G02*
X23377000Y25511000I-249000J0D01*
G01*
X22977000Y25511000D01*
G75*
G02*
X22728000Y25760000I0J249000D01*
G01*
G37*
G04 #@! TD*
G04 #@! TO.C,R48*
G36*
G01*
X44176000Y51025000D02*
X44176000Y52275000D01*
G75*
G02*
X44475000Y52574000I299000J0D01*
G01*
X45100000Y52574000D01*
G75*
G02*
X45399000Y52275000I0J-299000D01*
G01*
X45399000Y51025000D01*
G75*
G02*
X45100000Y50726000I-299000J0D01*
G01*
X44475000Y50726000D01*
G75*
G02*
X44176000Y51025000I0J299000D01*
G01*
G37*
G36*
G01*
X47101000Y51025000D02*
X47101000Y52275000D01*
G75*
G02*
X47400000Y52574000I299000J0D01*
G01*
X48025000Y52574000D01*
G75*
G02*
X48324000Y52275000I0J-299000D01*
G01*
X48324000Y51025000D01*
G75*
G02*
X48025000Y50726000I-299000J0D01*
G01*
X47400000Y50726000D01*
G75*
G02*
X47101000Y51025000I0J299000D01*
G01*
G37*
G04 #@! TD*
G04 #@! TO.C,R19*
G36*
G01*
X27374000Y39547000D02*
X26474000Y39547000D01*
G75*
G02*
X26175000Y39846000I0J299000D01*
G01*
X26175000Y40371000D01*
G75*
G02*
X26474000Y40670000I299000J0D01*
G01*
X27374000Y40670000D01*
G75*
G02*
X27673000Y40371000I0J-299000D01*
G01*
X27673000Y39846000D01*
G75*
G02*
X27374000Y39547000I-299000J0D01*
G01*
G37*
G36*
G01*
X27374000Y41372000D02*
X26474000Y41372000D01*
G75*
G02*
X26175000Y41671000I0J299000D01*
G01*
X26175000Y42196000D01*
G75*
G02*
X26474000Y42495000I299000J0D01*
G01*
X27374000Y42495000D01*
G75*
G02*
X27673000Y42196000I0J-299000D01*
G01*
X27673000Y41671000D01*
G75*
G02*
X27374000Y41372000I-299000J0D01*
G01*
G37*
G04 #@! TD*
G04 #@! TO.C,J4*
G36*
G01*
X26704000Y7503000D02*
X28404000Y7503000D01*
G75*
G02*
X28453000Y7454000I0J-49000D01*
G01*
X28453000Y5754000D01*
G75*
G02*
X28404000Y5705000I-49000J0D01*
G01*
X26704000Y5705000D01*
G75*
G02*
X26655000Y5754000I0J49000D01*
G01*
X26655000Y7454000D01*
G75*
G02*
X26704000Y7503000I49000J0D01*
G01*
G37*
X25014000Y6604000D03*
X22474000Y6604000D03*
X19934000Y6604000D03*
X17394000Y6604000D03*
X14854000Y6604000D03*
X12314000Y6604000D03*
X9774000Y6604000D03*
X7234000Y6604000D03*
X4694000Y6604000D03*
G04 #@! TD*
G04 #@! TO.C,C42*
G36*
G01*
X45921000Y41935000D02*
X45921000Y42275000D01*
G75*
G02*
X46110000Y42464000I189000J0D01*
G01*
X46390000Y42464000D01*
G75*
G02*
X46579000Y42275000I0J-189000D01*
G01*
X46579000Y41935000D01*
G75*
G02*
X46390000Y41746000I-189000J0D01*
G01*
X46110000Y41746000D01*
G75*
G02*
X45921000Y41935000I0J189000D01*
G01*
G37*
G36*
G01*
X46881000Y41935000D02*
X46881000Y42275000D01*
G75*
G02*
X47070000Y42464000I189000J0D01*
G01*
X47350000Y42464000D01*
G75*
G02*
X47539000Y42275000I0J-189000D01*
G01*
X47539000Y41935000D01*
G75*
G02*
X47350000Y41746000I-189000J0D01*
G01*
X47070000Y41746000D01*
G75*
G02*
X46881000Y41935000I0J189000D01*
G01*
G37*
G04 #@! TD*
G04 #@! TO.C,U7*
G36*
G01*
X27375000Y17422000D02*
X27375000Y17122000D01*
G75*
G02*
X27176000Y16923000I-199000J0D01*
G01*
X25726000Y16923000D01*
G75*
G02*
X25527000Y17122000I0J199000D01*
G01*
X25527000Y17422000D01*
G75*
G02*
X25726000Y17621000I199000J0D01*
G01*
X27176000Y17621000D01*
G75*
G02*
X27375000Y17422000I0J-199000D01*
G01*
G37*
G36*
G01*
X27375000Y18692000D02*
X27375000Y18392000D01*
G75*
G02*
X27176000Y18193000I-199000J0D01*
G01*
X25726000Y18193000D01*
G75*
G02*
X25527000Y18392000I0J199000D01*
G01*
X25527000Y18692000D01*
G75*
G02*
X25726000Y18891000I199000J0D01*
G01*
X27176000Y18891000D01*
G75*
G02*
X27375000Y18692000I0J-199000D01*
G01*
G37*
G36*
G01*
X27375000Y19962000D02*
X27375000Y19662000D01*
G75*
G02*
X27176000Y19463000I-199000J0D01*
G01*
X25726000Y19463000D01*
G75*
G02*
X25527000Y19662000I0J199000D01*
G01*
X25527000Y19962000D01*
G75*
G02*
X25726000Y20161000I199000J0D01*
G01*
X27176000Y20161000D01*
G75*
G02*
X27375000Y19962000I0J-199000D01*
G01*
G37*
G36*
G01*
X27375000Y21232000D02*
X27375000Y20932000D01*
G75*
G02*
X27176000Y20733000I-199000J0D01*
G01*
X25726000Y20733000D01*
G75*
G02*
X25527000Y20932000I0J199000D01*
G01*
X25527000Y21232000D01*
G75*
G02*
X25726000Y21431000I199000J0D01*
G01*
X27176000Y21431000D01*
G75*
G02*
X27375000Y21232000I0J-199000D01*
G01*
G37*
G36*
G01*
X22225000Y21232000D02*
X22225000Y20932000D01*
G75*
G02*
X22026000Y20733000I-199000J0D01*
G01*
X20576000Y20733000D01*
G75*
G02*
X20377000Y20932000I0J199000D01*
G01*
X20377000Y21232000D01*
G75*
G02*
X20576000Y21431000I199000J0D01*
G01*
X22026000Y21431000D01*
G75*
G02*
X22225000Y21232000I0J-199000D01*
G01*
G37*
G36*
G01*
X22225000Y19962000D02*
X22225000Y19662000D01*
G75*
G02*
X22026000Y19463000I-199000J0D01*
G01*
X20576000Y19463000D01*
G75*
G02*
X20377000Y19662000I0J199000D01*
G01*
X20377000Y19962000D01*
G75*
G02*
X20576000Y20161000I199000J0D01*
G01*
X22026000Y20161000D01*
G75*
G02*
X22225000Y19962000I0J-199000D01*
G01*
G37*
G36*
G01*
X22225000Y18692000D02*
X22225000Y18392000D01*
G75*
G02*
X22026000Y18193000I-199000J0D01*
G01*
X20576000Y18193000D01*
G75*
G02*
X20377000Y18392000I0J199000D01*
G01*
X20377000Y18692000D01*
G75*
G02*
X20576000Y18891000I199000J0D01*
G01*
X22026000Y18891000D01*
G75*
G02*
X22225000Y18692000I0J-199000D01*
G01*
G37*
G36*
G01*
X22225000Y17422000D02*
X22225000Y17122000D01*
G75*
G02*
X22026000Y16923000I-199000J0D01*
G01*
X20576000Y16923000D01*
G75*
G02*
X20377000Y17122000I0J199000D01*
G01*
X20377000Y17422000D01*
G75*
G02*
X20576000Y17621000I199000J0D01*
G01*
X22026000Y17621000D01*
G75*
G02*
X22225000Y17422000I0J-199000D01*
G01*
G37*
G04 #@! TD*
G04 #@! TO.C,R46*
G36*
G01*
X27873000Y37026000D02*
X27873000Y37396000D01*
G75*
G02*
X28057000Y37580000I184000J0D01*
G01*
X28327000Y37580000D01*
G75*
G02*
X28511000Y37396000I0J-184000D01*
G01*
X28511000Y37026000D01*
G75*
G02*
X28327000Y36842000I-184000J0D01*
G01*
X28057000Y36842000D01*
G75*
G02*
X27873000Y37026000I0J184000D01*
G01*
G37*
G36*
G01*
X28893000Y37026000D02*
X28893000Y37396000D01*
G75*
G02*
X29077000Y37580000I184000J0D01*
G01*
X29347000Y37580000D01*
G75*
G02*
X29531000Y37396000I0J-184000D01*
G01*
X29531000Y37026000D01*
G75*
G02*
X29347000Y36842000I-184000J0D01*
G01*
X29077000Y36842000D01*
G75*
G02*
X28893000Y37026000I0J184000D01*
G01*
G37*
G04 #@! TD*
G04 #@! TO.C,C18*
G36*
G01*
X19859000Y27221000D02*
X19859000Y26881000D01*
G75*
G02*
X19670000Y26692000I-189000J0D01*
G01*
X19390000Y26692000D01*
G75*
G02*
X19201000Y26881000I0J189000D01*
G01*
X19201000Y27221000D01*
G75*
G02*
X19390000Y27410000I189000J0D01*
G01*
X19670000Y27410000D01*
G75*
G02*
X19859000Y27221000I0J-189000D01*
G01*
G37*
G36*
G01*
X18899000Y27221000D02*
X18899000Y26881000D01*
G75*
G02*
X18710000Y26692000I-189000J0D01*
G01*
X18430000Y26692000D01*
G75*
G02*
X18241000Y26881000I0J189000D01*
G01*
X18241000Y27221000D01*
G75*
G02*
X18430000Y27410000I189000J0D01*
G01*
X18710000Y27410000D01*
G75*
G02*
X18899000Y27221000I0J-189000D01*
G01*
G37*
G04 #@! TD*
G04 #@! TO.C,C27*
G36*
G01*
X11002000Y36025000D02*
X11002000Y36365000D01*
G75*
G02*
X11191000Y36554000I189000J0D01*
G01*
X11471000Y36554000D01*
G75*
G02*
X11660000Y36365000I0J-189000D01*
G01*
X11660000Y36025000D01*
G75*
G02*
X11471000Y35836000I-189000J0D01*
G01*
X11191000Y35836000D01*
G75*
G02*
X11002000Y36025000I0J189000D01*
G01*
G37*
G36*
G01*
X11962000Y36025000D02*
X11962000Y36365000D01*
G75*
G02*
X12151000Y36554000I189000J0D01*
G01*
X12431000Y36554000D01*
G75*
G02*
X12620000Y36365000I0J-189000D01*
G01*
X12620000Y36025000D01*
G75*
G02*
X12431000Y35836000I-189000J0D01*
G01*
X12151000Y35836000D01*
G75*
G02*
X11962000Y36025000I0J189000D01*
G01*
G37*
G04 #@! TD*
G04 #@! TO.C,U12*
G36*
G01*
X49950000Y35299000D02*
X50250000Y35299000D01*
G75*
G02*
X50449000Y35100000I0J-199000D01*
G01*
X50449000Y34075000D01*
G75*
G02*
X50250000Y33876000I-199000J0D01*
G01*
X49950000Y33876000D01*
G75*
G02*
X49751000Y34075000I0J199000D01*
G01*
X49751000Y35100000D01*
G75*
G02*
X49950000Y35299000I199000J0D01*
G01*
G37*
G36*
G01*
X49000000Y35299000D02*
X49300000Y35299000D01*
G75*
G02*
X49499000Y35100000I0J-199000D01*
G01*
X49499000Y34075000D01*
G75*
G02*
X49300000Y33876000I-199000J0D01*
G01*
X49000000Y33876000D01*
G75*
G02*
X48801000Y34075000I0J199000D01*
G01*
X48801000Y35100000D01*
G75*
G02*
X49000000Y35299000I199000J0D01*
G01*
G37*
G36*
G01*
X48050000Y35299000D02*
X48350000Y35299000D01*
G75*
G02*
X48549000Y35100000I0J-199000D01*
G01*
X48549000Y34075000D01*
G75*
G02*
X48350000Y33876000I-199000J0D01*
G01*
X48050000Y33876000D01*
G75*
G02*
X47851000Y34075000I0J199000D01*
G01*
X47851000Y35100000D01*
G75*
G02*
X48050000Y35299000I199000J0D01*
G01*
G37*
G36*
G01*
X48050000Y33024000D02*
X48350000Y33024000D01*
G75*
G02*
X48549000Y32825000I0J-199000D01*
G01*
X48549000Y31800000D01*
G75*
G02*
X48350000Y31601000I-199000J0D01*
G01*
X48050000Y31601000D01*
G75*
G02*
X47851000Y31800000I0J199000D01*
G01*
X47851000Y32825000D01*
G75*
G02*
X48050000Y33024000I199000J0D01*
G01*
G37*
G36*
G01*
X49000000Y33024000D02*
X49300000Y33024000D01*
G75*
G02*
X49499000Y32825000I0J-199000D01*
G01*
X49499000Y31800000D01*
G75*
G02*
X49300000Y31601000I-199000J0D01*
G01*
X49000000Y31601000D01*
G75*
G02*
X48801000Y31800000I0J199000D01*
G01*
X48801000Y32825000D01*
G75*
G02*
X49000000Y33024000I199000J0D01*
G01*
G37*
G36*
G01*
X49950000Y33024000D02*
X50250000Y33024000D01*
G75*
G02*
X50449000Y32825000I0J-199000D01*
G01*
X50449000Y31800000D01*
G75*
G02*
X50250000Y31601000I-199000J0D01*
G01*
X49950000Y31601000D01*
G75*
G02*
X49751000Y31800000I0J199000D01*
G01*
X49751000Y32825000D01*
G75*
G02*
X49950000Y33024000I199000J0D01*
G01*
G37*
G04 #@! TD*
G04 #@! TO.C,C28*
G36*
G01*
X11002000Y37295000D02*
X11002000Y37635000D01*
G75*
G02*
X11191000Y37824000I189000J0D01*
G01*
X11471000Y37824000D01*
G75*
G02*
X11660000Y37635000I0J-189000D01*
G01*
X11660000Y37295000D01*
G75*
G02*
X11471000Y37106000I-189000J0D01*
G01*
X11191000Y37106000D01*
G75*
G02*
X11002000Y37295000I0J189000D01*
G01*
G37*
G36*
G01*
X11962000Y37295000D02*
X11962000Y37635000D01*
G75*
G02*
X12151000Y37824000I189000J0D01*
G01*
X12431000Y37824000D01*
G75*
G02*
X12620000Y37635000I0J-189000D01*
G01*
X12620000Y37295000D01*
G75*
G02*
X12431000Y37106000I-189000J0D01*
G01*
X12151000Y37106000D01*
G75*
G02*
X11962000Y37295000I0J189000D01*
G01*
G37*
G04 #@! TD*
G04 #@! TO.C,U9*
G36*
G01*
X55280941Y10211268D02*
X55280941Y9211268D01*
G75*
G02*
X55231941Y9162268I-49000J0D01*
G01*
X53931941Y9162268D01*
G75*
G02*
X53882941Y9211268I0J49000D01*
G01*
X53882941Y10211268D01*
G75*
G02*
X53931941Y10260268I49000J0D01*
G01*
X55231941Y10260268D01*
G75*
G02*
X55280941Y10211268I0J-49000D01*
G01*
G37*
G36*
G01*
X55280941Y11711268D02*
X55280941Y10711268D01*
G75*
G02*
X55231941Y10662268I-49000J0D01*
G01*
X53931941Y10662268D01*
G75*
G02*
X53882941Y10711268I0J49000D01*
G01*
X53882941Y11711268D01*
G75*
G02*
X53931941Y11760268I49000J0D01*
G01*
X55231941Y11760268D01*
G75*
G02*
X55280941Y11711268I0J-49000D01*
G01*
G37*
G36*
G01*
X55280941Y13211268D02*
X55280941Y12211268D01*
G75*
G02*
X55231941Y12162268I-49000J0D01*
G01*
X53931941Y12162268D01*
G75*
G02*
X53882941Y12211268I0J49000D01*
G01*
X53882941Y13211268D01*
G75*
G02*
X53931941Y13260268I49000J0D01*
G01*
X55231941Y13260268D01*
G75*
G02*
X55280941Y13211268I0J-49000D01*
G01*
G37*
G36*
G01*
X55280941Y14711268D02*
X55280941Y13711268D01*
G75*
G02*
X55231941Y13662268I-49000J0D01*
G01*
X53931941Y13662268D01*
G75*
G02*
X53882941Y13711268I0J49000D01*
G01*
X53882941Y14711268D01*
G75*
G02*
X53931941Y14760268I49000J0D01*
G01*
X55231941Y14760268D01*
G75*
G02*
X55280941Y14711268I0J-49000D01*
G01*
G37*
G36*
G01*
X55280941Y16211268D02*
X55280941Y15211268D01*
G75*
G02*
X55231941Y15162268I-49000J0D01*
G01*
X53931941Y15162268D01*
G75*
G02*
X53882941Y15211268I0J49000D01*
G01*
X53882941Y16211268D01*
G75*
G02*
X53931941Y16260268I49000J0D01*
G01*
X55231941Y16260268D01*
G75*
G02*
X55280941Y16211268I0J-49000D01*
G01*
G37*
G36*
G01*
X55280941Y17711268D02*
X55280941Y16711268D01*
G75*
G02*
X55231941Y16662268I-49000J0D01*
G01*
X53931941Y16662268D01*
G75*
G02*
X53882941Y16711268I0J49000D01*
G01*
X53882941Y17711268D01*
G75*
G02*
X53931941Y17760268I49000J0D01*
G01*
X55231941Y17760268D01*
G75*
G02*
X55280941Y17711268I0J-49000D01*
G01*
G37*
G36*
G01*
X55280941Y19211268D02*
X55280941Y18211268D01*
G75*
G02*
X55231941Y18162268I-49000J0D01*
G01*
X53931941Y18162268D01*
G75*
G02*
X53882941Y18211268I0J49000D01*
G01*
X53882941Y19211268D01*
G75*
G02*
X53931941Y19260268I49000J0D01*
G01*
X55231941Y19260268D01*
G75*
G02*
X55280941Y19211268I0J-49000D01*
G01*
G37*
G36*
G01*
X55280941Y20711268D02*
X55280941Y19711268D01*
G75*
G02*
X55231941Y19662268I-49000J0D01*
G01*
X53931941Y19662268D01*
G75*
G02*
X53882941Y19711268I0J49000D01*
G01*
X53882941Y20711268D01*
G75*
G02*
X53931941Y20760268I49000J0D01*
G01*
X55231941Y20760268D01*
G75*
G02*
X55280941Y20711268I0J-49000D01*
G01*
G37*
G36*
G01*
X55280941Y22211268D02*
X55280941Y21211268D01*
G75*
G02*
X55231941Y21162268I-49000J0D01*
G01*
X53931941Y21162268D01*
G75*
G02*
X53882941Y21211268I0J49000D01*
G01*
X53882941Y22211268D01*
G75*
G02*
X53931941Y22260268I49000J0D01*
G01*
X55231941Y22260268D01*
G75*
G02*
X55280941Y22211268I0J-49000D01*
G01*
G37*
G36*
G01*
X55280941Y23711268D02*
X55280941Y22711268D01*
G75*
G02*
X55231941Y22662268I-49000J0D01*
G01*
X53931941Y22662268D01*
G75*
G02*
X53882941Y22711268I0J49000D01*
G01*
X53882941Y23711268D01*
G75*
G02*
X53931941Y23760268I49000J0D01*
G01*
X55231941Y23760268D01*
G75*
G02*
X55280941Y23711268I0J-49000D01*
G01*
G37*
G36*
G01*
X55280941Y25211268D02*
X55280941Y24211268D01*
G75*
G02*
X55231941Y24162268I-49000J0D01*
G01*
X53931941Y24162268D01*
G75*
G02*
X53882941Y24211268I0J49000D01*
G01*
X53882941Y25211268D01*
G75*
G02*
X53931941Y25260268I49000J0D01*
G01*
X55231941Y25260268D01*
G75*
G02*
X55280941Y25211268I0J-49000D01*
G01*
G37*
G36*
G01*
X55280941Y26711268D02*
X55280941Y25711268D01*
G75*
G02*
X55231941Y25662268I-49000J0D01*
G01*
X53931941Y25662268D01*
G75*
G02*
X53882941Y25711268I0J49000D01*
G01*
X53882941Y26711268D01*
G75*
G02*
X53931941Y26760268I49000J0D01*
G01*
X55231941Y26760268D01*
G75*
G02*
X55280941Y26711268I0J-49000D01*
G01*
G37*
G36*
G01*
X55280941Y28211268D02*
X55280941Y27211268D01*
G75*
G02*
X55231941Y27162268I-49000J0D01*
G01*
X53931941Y27162268D01*
G75*
G02*
X53882941Y27211268I0J49000D01*
G01*
X53882941Y28211268D01*
G75*
G02*
X53931941Y28260268I49000J0D01*
G01*
X55231941Y28260268D01*
G75*
G02*
X55280941Y28211268I0J-49000D01*
G01*
G37*
G36*
G01*
X41182941Y27211268D02*
X41182941Y28211268D01*
G75*
G02*
X41231941Y28260268I49000J0D01*
G01*
X42531941Y28260268D01*
G75*
G02*
X42580941Y28211268I0J-49000D01*
G01*
X42580941Y27211268D01*
G75*
G02*
X42531941Y27162268I-49000J0D01*
G01*
X41231941Y27162268D01*
G75*
G02*
X41182941Y27211268I0J49000D01*
G01*
G37*
G36*
G01*
X41182941Y25711268D02*
X41182941Y26711268D01*
G75*
G02*
X41231941Y26760268I49000J0D01*
G01*
X42531941Y26760268D01*
G75*
G02*
X42580941Y26711268I0J-49000D01*
G01*
X42580941Y25711268D01*
G75*
G02*
X42531941Y25662268I-49000J0D01*
G01*
X41231941Y25662268D01*
G75*
G02*
X41182941Y25711268I0J49000D01*
G01*
G37*
G36*
G01*
X41182941Y24211268D02*
X41182941Y25211268D01*
G75*
G02*
X41231941Y25260268I49000J0D01*
G01*
X42531941Y25260268D01*
G75*
G02*
X42580941Y25211268I0J-49000D01*
G01*
X42580941Y24211268D01*
G75*
G02*
X42531941Y24162268I-49000J0D01*
G01*
X41231941Y24162268D01*
G75*
G02*
X41182941Y24211268I0J49000D01*
G01*
G37*
G36*
G01*
X41182941Y22711268D02*
X41182941Y23711268D01*
G75*
G02*
X41231941Y23760268I49000J0D01*
G01*
X42531941Y23760268D01*
G75*
G02*
X42580941Y23711268I0J-49000D01*
G01*
X42580941Y22711268D01*
G75*
G02*
X42531941Y22662268I-49000J0D01*
G01*
X41231941Y22662268D01*
G75*
G02*
X41182941Y22711268I0J49000D01*
G01*
G37*
G36*
G01*
X41182941Y21211268D02*
X41182941Y22211268D01*
G75*
G02*
X41231941Y22260268I49000J0D01*
G01*
X42531941Y22260268D01*
G75*
G02*
X42580941Y22211268I0J-49000D01*
G01*
X42580941Y21211268D01*
G75*
G02*
X42531941Y21162268I-49000J0D01*
G01*
X41231941Y21162268D01*
G75*
G02*
X41182941Y21211268I0J49000D01*
G01*
G37*
G36*
G01*
X41182941Y19711268D02*
X41182941Y20711268D01*
G75*
G02*
X41231941Y20760268I49000J0D01*
G01*
X42531941Y20760268D01*
G75*
G02*
X42580941Y20711268I0J-49000D01*
G01*
X42580941Y19711268D01*
G75*
G02*
X42531941Y19662268I-49000J0D01*
G01*
X41231941Y19662268D01*
G75*
G02*
X41182941Y19711268I0J49000D01*
G01*
G37*
G36*
G01*
X41182941Y18211268D02*
X41182941Y19211268D01*
G75*
G02*
X41231941Y19260268I49000J0D01*
G01*
X42531941Y19260268D01*
G75*
G02*
X42580941Y19211268I0J-49000D01*
G01*
X42580941Y18211268D01*
G75*
G02*
X42531941Y18162268I-49000J0D01*
G01*
X41231941Y18162268D01*
G75*
G02*
X41182941Y18211268I0J49000D01*
G01*
G37*
G36*
G01*
X41182941Y16711268D02*
X41182941Y17711268D01*
G75*
G02*
X41231941Y17760268I49000J0D01*
G01*
X42531941Y17760268D01*
G75*
G02*
X42580941Y17711268I0J-49000D01*
G01*
X42580941Y16711268D01*
G75*
G02*
X42531941Y16662268I-49000J0D01*
G01*
X41231941Y16662268D01*
G75*
G02*
X41182941Y16711268I0J49000D01*
G01*
G37*
G36*
G01*
X41182941Y15211268D02*
X41182941Y16211268D01*
G75*
G02*
X41231941Y16260268I49000J0D01*
G01*
X42531941Y16260268D01*
G75*
G02*
X42580941Y16211268I0J-49000D01*
G01*
X42580941Y15211268D01*
G75*
G02*
X42531941Y15162268I-49000J0D01*
G01*
X41231941Y15162268D01*
G75*
G02*
X41182941Y15211268I0J49000D01*
G01*
G37*
G36*
G01*
X41182941Y13711268D02*
X41182941Y14711268D01*
G75*
G02*
X41231941Y14760268I49000J0D01*
G01*
X42531941Y14760268D01*
G75*
G02*
X42580941Y14711268I0J-49000D01*
G01*
X42580941Y13711268D01*
G75*
G02*
X42531941Y13662268I-49000J0D01*
G01*
X41231941Y13662268D01*
G75*
G02*
X41182941Y13711268I0J49000D01*
G01*
G37*
G36*
G01*
X41182941Y12211268D02*
X41182941Y13211268D01*
G75*
G02*
X41231941Y13260268I49000J0D01*
G01*
X42531941Y13260268D01*
G75*
G02*
X42580941Y13211268I0J-49000D01*
G01*
X42580941Y12211268D01*
G75*
G02*
X42531941Y12162268I-49000J0D01*
G01*
X41231941Y12162268D01*
G75*
G02*
X41182941Y12211268I0J49000D01*
G01*
G37*
G36*
G01*
X41182941Y10711268D02*
X41182941Y11711268D01*
G75*
G02*
X41231941Y11760268I49000J0D01*
G01*
X42531941Y11760268D01*
G75*
G02*
X42580941Y11711268I0J-49000D01*
G01*
X42580941Y10711268D01*
G75*
G02*
X42531941Y10662268I-49000J0D01*
G01*
X41231941Y10662268D01*
G75*
G02*
X41182941Y10711268I0J49000D01*
G01*
G37*
G36*
G01*
X41182941Y9211268D02*
X41182941Y10211268D01*
G75*
G02*
X41231941Y10260268I49000J0D01*
G01*
X42531941Y10260268D01*
G75*
G02*
X42580941Y10211268I0J-49000D01*
G01*
X42580941Y9211268D01*
G75*
G02*
X42531941Y9162268I-49000J0D01*
G01*
X41231941Y9162268D01*
G75*
G02*
X41182941Y9211268I0J49000D01*
G01*
G37*
G04 #@! TD*
G04 #@! TO.C,R10*
G36*
G01*
X7115000Y36516000D02*
X7485000Y36516000D01*
G75*
G02*
X7669000Y36332000I0J-184000D01*
G01*
X7669000Y36062000D01*
G75*
G02*
X7485000Y35878000I-184000J0D01*
G01*
X7115000Y35878000D01*
G75*
G02*
X6931000Y36062000I0J184000D01*
G01*
X6931000Y36332000D01*
G75*
G02*
X7115000Y36516000I184000J0D01*
G01*
G37*
G36*
G01*
X7115000Y35496000D02*
X7485000Y35496000D01*
G75*
G02*
X7669000Y35312000I0J-184000D01*
G01*
X7669000Y35042000D01*
G75*
G02*
X7485000Y34858000I-184000J0D01*
G01*
X7115000Y34858000D01*
G75*
G02*
X6931000Y35042000I0J184000D01*
G01*
X6931000Y35312000D01*
G75*
G02*
X7115000Y35496000I184000J0D01*
G01*
G37*
G04 #@! TD*
G04 #@! TO.C,R24*
G36*
G01*
X20324000Y24278000D02*
X20324000Y23728000D01*
G75*
G02*
X20075000Y23479000I-249000J0D01*
G01*
X19675000Y23479000D01*
G75*
G02*
X19426000Y23728000I0J249000D01*
G01*
X19426000Y24278000D01*
G75*
G02*
X19675000Y24527000I249000J0D01*
G01*
X20075000Y24527000D01*
G75*
G02*
X20324000Y24278000I0J-249000D01*
G01*
G37*
G36*
G01*
X18674000Y24278000D02*
X18674000Y23728000D01*
G75*
G02*
X18425000Y23479000I-249000J0D01*
G01*
X18025000Y23479000D01*
G75*
G02*
X17776000Y23728000I0J249000D01*
G01*
X17776000Y24278000D01*
G75*
G02*
X18025000Y24527000I249000J0D01*
G01*
X18425000Y24527000D01*
G75*
G02*
X18674000Y24278000I0J-249000D01*
G01*
G37*
G04 #@! TD*
G04 #@! TO.C,L1*
G36*
G01*
X10029000Y34414750D02*
X10029000Y34927250D01*
G75*
G02*
X10296750Y35195000I267750J0D01*
G01*
X10734250Y35195000D01*
G75*
G02*
X11002000Y34927250I0J-267750D01*
G01*
X11002000Y34414750D01*
G75*
G02*
X10734250Y34147000I-267750J0D01*
G01*
X10296750Y34147000D01*
G75*
G02*
X10029000Y34414750I0J267750D01*
G01*
G37*
G36*
G01*
X11604000Y34414750D02*
X11604000Y34927250D01*
G75*
G02*
X11871750Y35195000I267750J0D01*
G01*
X12309250Y35195000D01*
G75*
G02*
X12577000Y34927250I0J-267750D01*
G01*
X12577000Y34414750D01*
G75*
G02*
X12309250Y34147000I-267750J0D01*
G01*
X11871750Y34147000D01*
G75*
G02*
X11604000Y34414750I0J267750D01*
G01*
G37*
G04 #@! TD*
G04 #@! TO.C,R32*
G36*
G01*
X51600000Y50524000D02*
X52850000Y50524000D01*
G75*
G02*
X53149000Y50225000I0J-299000D01*
G01*
X53149000Y49600000D01*
G75*
G02*
X52850000Y49301000I-299000J0D01*
G01*
X51600000Y49301000D01*
G75*
G02*
X51301000Y49600000I0J299000D01*
G01*
X51301000Y50225000D01*
G75*
G02*
X51600000Y50524000I299000J0D01*
G01*
G37*
G36*
G01*
X51600000Y47599000D02*
X52850000Y47599000D01*
G75*
G02*
X53149000Y47300000I0J-299000D01*
G01*
X53149000Y46675000D01*
G75*
G02*
X52850000Y46376000I-299000J0D01*
G01*
X51600000Y46376000D01*
G75*
G02*
X51301000Y46675000I0J299000D01*
G01*
X51301000Y47300000D01*
G75*
G02*
X51600000Y47599000I299000J0D01*
G01*
G37*
G04 #@! TD*
G04 #@! TO.C,R18*
G36*
G01*
X19881000Y28506000D02*
X19881000Y28136000D01*
G75*
G02*
X19697000Y27952000I-184000J0D01*
G01*
X19427000Y27952000D01*
G75*
G02*
X19243000Y28136000I0J184000D01*
G01*
X19243000Y28506000D01*
G75*
G02*
X19427000Y28690000I184000J0D01*
G01*
X19697000Y28690000D01*
G75*
G02*
X19881000Y28506000I0J-184000D01*
G01*
G37*
G36*
G01*
X18861000Y28506000D02*
X18861000Y28136000D01*
G75*
G02*
X18677000Y27952000I-184000J0D01*
G01*
X18407000Y27952000D01*
G75*
G02*
X18223000Y28136000I0J184000D01*
G01*
X18223000Y28506000D01*
G75*
G02*
X18407000Y28690000I184000J0D01*
G01*
X18677000Y28690000D01*
G75*
G02*
X18861000Y28506000I0J-184000D01*
G01*
G37*
G04 #@! TD*
G04 #@! TO.C,R57*
G36*
G01*
X34477000Y12007000D02*
X34477000Y12377000D01*
G75*
G02*
X34661000Y12561000I184000J0D01*
G01*
X34931000Y12561000D01*
G75*
G02*
X35115000Y12377000I0J-184000D01*
G01*
X35115000Y12007000D01*
G75*
G02*
X34931000Y11823000I-184000J0D01*
G01*
X34661000Y11823000D01*
G75*
G02*
X34477000Y12007000I0J184000D01*
G01*
G37*
G36*
G01*
X35497000Y12007000D02*
X35497000Y12377000D01*
G75*
G02*
X35681000Y12561000I184000J0D01*
G01*
X35951000Y12561000D01*
G75*
G02*
X36135000Y12377000I0J-184000D01*
G01*
X36135000Y12007000D01*
G75*
G02*
X35951000Y11823000I-184000J0D01*
G01*
X35681000Y11823000D01*
G75*
G02*
X35497000Y12007000I0J184000D01*
G01*
G37*
G04 #@! TD*
G04 #@! TO.C,C3*
G36*
G01*
X30179000Y35771000D02*
X30179000Y36111000D01*
G75*
G02*
X30368000Y36300000I189000J0D01*
G01*
X30648000Y36300000D01*
G75*
G02*
X30837000Y36111000I0J-189000D01*
G01*
X30837000Y35771000D01*
G75*
G02*
X30648000Y35582000I-189000J0D01*
G01*
X30368000Y35582000D01*
G75*
G02*
X30179000Y35771000I0J189000D01*
G01*
G37*
G36*
G01*
X31139000Y35771000D02*
X31139000Y36111000D01*
G75*
G02*
X31328000Y36300000I189000J0D01*
G01*
X31608000Y36300000D01*
G75*
G02*
X31797000Y36111000I0J-189000D01*
G01*
X31797000Y35771000D01*
G75*
G02*
X31608000Y35582000I-189000J0D01*
G01*
X31328000Y35582000D01*
G75*
G02*
X31139000Y35771000I0J189000D01*
G01*
G37*
G04 #@! TD*
G04 #@! TO.C,C30*
G36*
G01*
X46809000Y36420000D02*
X46809000Y36080000D01*
G75*
G02*
X46620000Y35891000I-189000J0D01*
G01*
X46340000Y35891000D01*
G75*
G02*
X46151000Y36080000I0J189000D01*
G01*
X46151000Y36420000D01*
G75*
G02*
X46340000Y36609000I189000J0D01*
G01*
X46620000Y36609000D01*
G75*
G02*
X46809000Y36420000I0J-189000D01*
G01*
G37*
G36*
G01*
X45849000Y36420000D02*
X45849000Y36080000D01*
G75*
G02*
X45660000Y35891000I-189000J0D01*
G01*
X45380000Y35891000D01*
G75*
G02*
X45191000Y36080000I0J189000D01*
G01*
X45191000Y36420000D01*
G75*
G02*
X45380000Y36609000I189000J0D01*
G01*
X45660000Y36609000D01*
G75*
G02*
X45849000Y36420000I0J-189000D01*
G01*
G37*
G04 #@! TD*
G04 #@! TO.C,C21*
G36*
G01*
X14093000Y49386000D02*
X13593000Y49386000D01*
G75*
G02*
X13319000Y49660000I0J274000D01*
G01*
X13319000Y50110000D01*
G75*
G02*
X13593000Y50384000I274000J0D01*
G01*
X14093000Y50384000D01*
G75*
G02*
X14367000Y50110000I0J-274000D01*
G01*
X14367000Y49660000D01*
G75*
G02*
X14093000Y49386000I-274000J0D01*
G01*
G37*
G36*
G01*
X14093000Y50936000D02*
X13593000Y50936000D01*
G75*
G02*
X13319000Y51210000I0J274000D01*
G01*
X13319000Y51660000D01*
G75*
G02*
X13593000Y51934000I274000J0D01*
G01*
X14093000Y51934000D01*
G75*
G02*
X14367000Y51660000I0J-274000D01*
G01*
X14367000Y51210000D01*
G75*
G02*
X14093000Y50936000I-274000J0D01*
G01*
G37*
G04 #@! TD*
G04 #@! TO.C,R3*
G36*
G01*
X13712000Y31348000D02*
X13712000Y31898000D01*
G75*
G02*
X13961000Y32147000I249000J0D01*
G01*
X14361000Y32147000D01*
G75*
G02*
X14610000Y31898000I0J-249000D01*
G01*
X14610000Y31348000D01*
G75*
G02*
X14361000Y31099000I-249000J0D01*
G01*
X13961000Y31099000D01*
G75*
G02*
X13712000Y31348000I0J249000D01*
G01*
G37*
G36*
G01*
X15362000Y31348000D02*
X15362000Y31898000D01*
G75*
G02*
X15611000Y32147000I249000J0D01*
G01*
X16011000Y32147000D01*
G75*
G02*
X16260000Y31898000I0J-249000D01*
G01*
X16260000Y31348000D01*
G75*
G02*
X16011000Y31099000I-249000J0D01*
G01*
X15611000Y31099000D01*
G75*
G02*
X15362000Y31348000I0J249000D01*
G01*
G37*
G04 #@! TD*
G04 #@! TO.C,R56*
G36*
G01*
X34477000Y13277000D02*
X34477000Y13647000D01*
G75*
G02*
X34661000Y13831000I184000J0D01*
G01*
X34931000Y13831000D01*
G75*
G02*
X35115000Y13647000I0J-184000D01*
G01*
X35115000Y13277000D01*
G75*
G02*
X34931000Y13093000I-184000J0D01*
G01*
X34661000Y13093000D01*
G75*
G02*
X34477000Y13277000I0J184000D01*
G01*
G37*
G36*
G01*
X35497000Y13277000D02*
X35497000Y13647000D01*
G75*
G02*
X35681000Y13831000I184000J0D01*
G01*
X35951000Y13831000D01*
G75*
G02*
X36135000Y13647000I0J-184000D01*
G01*
X36135000Y13277000D01*
G75*
G02*
X35951000Y13093000I-184000J0D01*
G01*
X35681000Y13093000D01*
G75*
G02*
X35497000Y13277000I0J184000D01*
G01*
G37*
G04 #@! TD*
G04 #@! TO.C,R52*
G36*
G01*
X30426000Y48252000D02*
X30796000Y48252000D01*
G75*
G02*
X30980000Y48068000I0J-184000D01*
G01*
X30980000Y47798000D01*
G75*
G02*
X30796000Y47614000I-184000J0D01*
G01*
X30426000Y47614000D01*
G75*
G02*
X30242000Y47798000I0J184000D01*
G01*
X30242000Y48068000D01*
G75*
G02*
X30426000Y48252000I184000J0D01*
G01*
G37*
G36*
G01*
X30426000Y47232000D02*
X30796000Y47232000D01*
G75*
G02*
X30980000Y47048000I0J-184000D01*
G01*
X30980000Y46778000D01*
G75*
G02*
X30796000Y46594000I-184000J0D01*
G01*
X30426000Y46594000D01*
G75*
G02*
X30242000Y46778000I0J184000D01*
G01*
X30242000Y47048000D01*
G75*
G02*
X30426000Y47232000I184000J0D01*
G01*
G37*
G04 #@! TD*
G04 #@! TO.C,R25*
G36*
G01*
X17214000Y37786000D02*
X17584000Y37786000D01*
G75*
G02*
X17768000Y37602000I0J-184000D01*
G01*
X17768000Y37332000D01*
G75*
G02*
X17584000Y37148000I-184000J0D01*
G01*
X17214000Y37148000D01*
G75*
G02*
X17030000Y37332000I0J184000D01*
G01*
X17030000Y37602000D01*
G75*
G02*
X17214000Y37786000I184000J0D01*
G01*
G37*
G36*
G01*
X17214000Y36766000D02*
X17584000Y36766000D01*
G75*
G02*
X17768000Y36582000I0J-184000D01*
G01*
X17768000Y36312000D01*
G75*
G02*
X17584000Y36128000I-184000J0D01*
G01*
X17214000Y36128000D01*
G75*
G02*
X17030000Y36312000I0J184000D01*
G01*
X17030000Y36582000D01*
G75*
G02*
X17214000Y36766000I184000J0D01*
G01*
G37*
G04 #@! TD*
G04 #@! TO.C,C13*
G36*
G01*
X30439000Y44493000D02*
X30439000Y44153000D01*
G75*
G02*
X30250000Y43964000I-189000J0D01*
G01*
X29970000Y43964000D01*
G75*
G02*
X29781000Y44153000I0J189000D01*
G01*
X29781000Y44493000D01*
G75*
G02*
X29970000Y44682000I189000J0D01*
G01*
X30250000Y44682000D01*
G75*
G02*
X30439000Y44493000I0J-189000D01*
G01*
G37*
G36*
G01*
X29479000Y44493000D02*
X29479000Y44153000D01*
G75*
G02*
X29290000Y43964000I-189000J0D01*
G01*
X29010000Y43964000D01*
G75*
G02*
X28821000Y44153000I0J189000D01*
G01*
X28821000Y44493000D01*
G75*
G02*
X29010000Y44682000I189000J0D01*
G01*
X29290000Y44682000D01*
G75*
G02*
X29479000Y44493000I0J-189000D01*
G01*
G37*
G04 #@! TD*
D12*
G04 #@! TO.C,J2*
X14215402Y56257490D03*
X14215402Y59257490D03*
X16715402Y56257490D03*
X16715402Y59257490D03*
X19215402Y56257490D03*
X19215402Y59257490D03*
X21715402Y56257490D03*
X21715402Y59257490D03*
X24215402Y56257490D03*
X24215402Y59257490D03*
X26715402Y56257490D03*
X26715402Y59257490D03*
X29215402Y56257490D03*
X29215402Y59257490D03*
X31715402Y56257490D03*
X31715402Y59257490D03*
X34215402Y56257490D03*
X34215402Y59257490D03*
X36715402Y56257490D03*
X36715402Y59257490D03*
X39215402Y56257490D03*
X39215402Y59257490D03*
X41715402Y56257490D03*
X41715402Y59257490D03*
X44215402Y56257490D03*
X44215402Y59257490D03*
G04 #@! TD*
G04 #@! TO.C,R2*
G36*
G01*
X17293000Y38731000D02*
X16743000Y38731000D01*
G75*
G02*
X16494000Y38980000I0J249000D01*
G01*
X16494000Y39380000D01*
G75*
G02*
X16743000Y39629000I249000J0D01*
G01*
X17293000Y39629000D01*
G75*
G02*
X17542000Y39380000I0J-249000D01*
G01*
X17542000Y38980000D01*
G75*
G02*
X17293000Y38731000I-249000J0D01*
G01*
G37*
G36*
G01*
X17293000Y40381000D02*
X16743000Y40381000D01*
G75*
G02*
X16494000Y40630000I0J249000D01*
G01*
X16494000Y41030000D01*
G75*
G02*
X16743000Y41279000I249000J0D01*
G01*
X17293000Y41279000D01*
G75*
G02*
X17542000Y41030000I0J-249000D01*
G01*
X17542000Y40630000D01*
G75*
G02*
X17293000Y40381000I-249000J0D01*
G01*
G37*
G04 #@! TD*
G04 #@! TO.C,C10*
G36*
G01*
X29257000Y46584000D02*
X28917000Y46584000D01*
G75*
G02*
X28728000Y46773000I0J189000D01*
G01*
X28728000Y47053000D01*
G75*
G02*
X28917000Y47242000I189000J0D01*
G01*
X29257000Y47242000D01*
G75*
G02*
X29446000Y47053000I0J-189000D01*
G01*
X29446000Y46773000D01*
G75*
G02*
X29257000Y46584000I-189000J0D01*
G01*
G37*
G36*
G01*
X29257000Y47544000D02*
X28917000Y47544000D01*
G75*
G02*
X28728000Y47733000I0J189000D01*
G01*
X28728000Y48013000D01*
G75*
G02*
X28917000Y48202000I189000J0D01*
G01*
X29257000Y48202000D01*
G75*
G02*
X29446000Y48013000I0J-189000D01*
G01*
X29446000Y47733000D01*
G75*
G02*
X29257000Y47544000I-189000J0D01*
G01*
G37*
G04 #@! TD*
G04 #@! TO.C,C19*
G36*
G01*
X25824000Y30814000D02*
X25484000Y30814000D01*
G75*
G02*
X25295000Y31003000I0J189000D01*
G01*
X25295000Y31283000D01*
G75*
G02*
X25484000Y31472000I189000J0D01*
G01*
X25824000Y31472000D01*
G75*
G02*
X26013000Y31283000I0J-189000D01*
G01*
X26013000Y31003000D01*
G75*
G02*
X25824000Y30814000I-189000J0D01*
G01*
G37*
G36*
G01*
X25824000Y31774000D02*
X25484000Y31774000D01*
G75*
G02*
X25295000Y31963000I0J189000D01*
G01*
X25295000Y32243000D01*
G75*
G02*
X25484000Y32432000I189000J0D01*
G01*
X25824000Y32432000D01*
G75*
G02*
X26013000Y32243000I0J-189000D01*
G01*
X26013000Y31963000D01*
G75*
G02*
X25824000Y31774000I-189000J0D01*
G01*
G37*
G04 #@! TD*
G04 #@! TO.C,R17*
G36*
G01*
X13712000Y29570000D02*
X13712000Y30120000D01*
G75*
G02*
X13961000Y30369000I249000J0D01*
G01*
X14361000Y30369000D01*
G75*
G02*
X14610000Y30120000I0J-249000D01*
G01*
X14610000Y29570000D01*
G75*
G02*
X14361000Y29321000I-249000J0D01*
G01*
X13961000Y29321000D01*
G75*
G02*
X13712000Y29570000I0J249000D01*
G01*
G37*
G36*
G01*
X15362000Y29570000D02*
X15362000Y30120000D01*
G75*
G02*
X15611000Y30369000I249000J0D01*
G01*
X16011000Y30369000D01*
G75*
G02*
X16260000Y30120000I0J-249000D01*
G01*
X16260000Y29570000D01*
G75*
G02*
X16011000Y29321000I-249000J0D01*
G01*
X15611000Y29321000D01*
G75*
G02*
X15362000Y29570000I0J249000D01*
G01*
G37*
G04 #@! TD*
G04 #@! TO.C,D9*
G36*
G01*
X43742000Y39304250D02*
X43742000Y39604250D01*
G75*
G02*
X43941000Y39803250I199000J0D01*
G01*
X45116000Y39803250D01*
G75*
G02*
X45315000Y39604250I0J-199000D01*
G01*
X45315000Y39304250D01*
G75*
G02*
X45116000Y39105250I-199000J0D01*
G01*
X43941000Y39105250D01*
G75*
G02*
X43742000Y39304250I0J199000D01*
G01*
G37*
G36*
G01*
X43742000Y37404250D02*
X43742000Y37704250D01*
G75*
G02*
X43941000Y37903250I199000J0D01*
G01*
X45116000Y37903250D01*
G75*
G02*
X45315000Y37704250I0J-199000D01*
G01*
X45315000Y37404250D01*
G75*
G02*
X45116000Y37205250I-199000J0D01*
G01*
X43941000Y37205250D01*
G75*
G02*
X43742000Y37404250I0J199000D01*
G01*
G37*
G36*
G01*
X45617000Y38354250D02*
X45617000Y38654250D01*
G75*
G02*
X45816000Y38853250I199000J0D01*
G01*
X46991000Y38853250D01*
G75*
G02*
X47190000Y38654250I0J-199000D01*
G01*
X47190000Y38354250D01*
G75*
G02*
X46991000Y38155250I-199000J0D01*
G01*
X45816000Y38155250D01*
G75*
G02*
X45617000Y38354250I0J199000D01*
G01*
G37*
G04 #@! TD*
G04 #@! TO.C,R53*
G36*
G01*
X30479000Y45635000D02*
X30479000Y45265000D01*
G75*
G02*
X30295000Y45081000I-184000J0D01*
G01*
X30025000Y45081000D01*
G75*
G02*
X29841000Y45265000I0J184000D01*
G01*
X29841000Y45635000D01*
G75*
G02*
X30025000Y45819000I184000J0D01*
G01*
X30295000Y45819000D01*
G75*
G02*
X30479000Y45635000I0J-184000D01*
G01*
G37*
G36*
G01*
X29459000Y45635000D02*
X29459000Y45265000D01*
G75*
G02*
X29275000Y45081000I-184000J0D01*
G01*
X29005000Y45081000D01*
G75*
G02*
X28821000Y45265000I0J184000D01*
G01*
X28821000Y45635000D01*
G75*
G02*
X29005000Y45819000I184000J0D01*
G01*
X29275000Y45819000D01*
G75*
G02*
X29459000Y45635000I0J-184000D01*
G01*
G37*
G04 #@! TD*
G04 #@! TO.C,C32*
G36*
G01*
X14403000Y44661000D02*
X14403000Y45001000D01*
G75*
G02*
X14592000Y45190000I189000J0D01*
G01*
X14872000Y45190000D01*
G75*
G02*
X15061000Y45001000I0J-189000D01*
G01*
X15061000Y44661000D01*
G75*
G02*
X14872000Y44472000I-189000J0D01*
G01*
X14592000Y44472000D01*
G75*
G02*
X14403000Y44661000I0J189000D01*
G01*
G37*
G36*
G01*
X15363000Y44661000D02*
X15363000Y45001000D01*
G75*
G02*
X15552000Y45190000I189000J0D01*
G01*
X15832000Y45190000D01*
G75*
G02*
X16021000Y45001000I0J-189000D01*
G01*
X16021000Y44661000D01*
G75*
G02*
X15832000Y44472000I-189000J0D01*
G01*
X15552000Y44472000D01*
G75*
G02*
X15363000Y44661000I0J189000D01*
G01*
G37*
G04 #@! TD*
G04 #@! TO.C,U5*
G36*
G01*
X10849000Y41059000D02*
X10849000Y41359000D01*
G75*
G02*
X11048000Y41558000I199000J0D01*
G01*
X12223000Y41558000D01*
G75*
G02*
X12422000Y41359000I0J-199000D01*
G01*
X12422000Y41059000D01*
G75*
G02*
X12223000Y40860000I-199000J0D01*
G01*
X11048000Y40860000D01*
G75*
G02*
X10849000Y41059000I0J199000D01*
G01*
G37*
G36*
G01*
X10849000Y39159000D02*
X10849000Y39459000D01*
G75*
G02*
X11048000Y39658000I199000J0D01*
G01*
X12223000Y39658000D01*
G75*
G02*
X12422000Y39459000I0J-199000D01*
G01*
X12422000Y39159000D01*
G75*
G02*
X12223000Y38960000I-199000J0D01*
G01*
X11048000Y38960000D01*
G75*
G02*
X10849000Y39159000I0J199000D01*
G01*
G37*
G36*
G01*
X12724000Y40109000D02*
X12724000Y40409000D01*
G75*
G02*
X12923000Y40608000I199000J0D01*
G01*
X14098000Y40608000D01*
G75*
G02*
X14297000Y40409000I0J-199000D01*
G01*
X14297000Y40109000D01*
G75*
G02*
X14098000Y39910000I-199000J0D01*
G01*
X12923000Y39910000D01*
G75*
G02*
X12724000Y40109000I0J199000D01*
G01*
G37*
G04 #@! TD*
G04 #@! TO.C,R8*
G36*
G01*
X6065000Y36516000D02*
X6435000Y36516000D01*
G75*
G02*
X6619000Y36332000I0J-184000D01*
G01*
X6619000Y36062000D01*
G75*
G02*
X6435000Y35878000I-184000J0D01*
G01*
X6065000Y35878000D01*
G75*
G02*
X5881000Y36062000I0J184000D01*
G01*
X5881000Y36332000D01*
G75*
G02*
X6065000Y36516000I184000J0D01*
G01*
G37*
G36*
G01*
X6065000Y35496000D02*
X6435000Y35496000D01*
G75*
G02*
X6619000Y35312000I0J-184000D01*
G01*
X6619000Y35042000D01*
G75*
G02*
X6435000Y34858000I-184000J0D01*
G01*
X6065000Y34858000D01*
G75*
G02*
X5881000Y35042000I0J184000D01*
G01*
X5881000Y35312000D01*
G75*
G02*
X6065000Y35496000I184000J0D01*
G01*
G37*
G04 #@! TD*
G04 #@! TO.C,D11*
G36*
G01*
X47806000Y39304250D02*
X47806000Y39604250D01*
G75*
G02*
X48005000Y39803250I199000J0D01*
G01*
X49180000Y39803250D01*
G75*
G02*
X49379000Y39604250I0J-199000D01*
G01*
X49379000Y39304250D01*
G75*
G02*
X49180000Y39105250I-199000J0D01*
G01*
X48005000Y39105250D01*
G75*
G02*
X47806000Y39304250I0J199000D01*
G01*
G37*
G36*
G01*
X47806000Y37404250D02*
X47806000Y37704250D01*
G75*
G02*
X48005000Y37903250I199000J0D01*
G01*
X49180000Y37903250D01*
G75*
G02*
X49379000Y37704250I0J-199000D01*
G01*
X49379000Y37404250D01*
G75*
G02*
X49180000Y37205250I-199000J0D01*
G01*
X48005000Y37205250D01*
G75*
G02*
X47806000Y37404250I0J199000D01*
G01*
G37*
G36*
G01*
X49681000Y38354250D02*
X49681000Y38654250D01*
G75*
G02*
X49880000Y38853250I199000J0D01*
G01*
X51055000Y38853250D01*
G75*
G02*
X51254000Y38654250I0J-199000D01*
G01*
X51254000Y38354250D01*
G75*
G02*
X51055000Y38155250I-199000J0D01*
G01*
X49880000Y38155250D01*
G75*
G02*
X49681000Y38354250I0J199000D01*
G01*
G37*
G04 #@! TD*
G04 #@! TO.C,TP1*
G36*
G01*
X21707000Y10199000D02*
X21707000Y11899000D01*
G75*
G02*
X21756000Y11948000I49000J0D01*
G01*
X23456000Y11948000D01*
G75*
G02*
X23505000Y11899000I0J-49000D01*
G01*
X23505000Y10199000D01*
G75*
G02*
X23456000Y10150000I-49000J0D01*
G01*
X21756000Y10150000D01*
G75*
G02*
X21707000Y10199000I0J49000D01*
G01*
G37*
G04 #@! TD*
G04 #@! TO.C,D6*
G36*
G01*
X10830000Y51934000D02*
X12030000Y51934000D01*
G75*
G02*
X12079000Y51885000I0J-49000D01*
G01*
X12079000Y50985000D01*
G75*
G02*
X12030000Y50936000I-49000J0D01*
G01*
X10830000Y50936000D01*
G75*
G02*
X10781000Y50985000I0J49000D01*
G01*
X10781000Y51885000D01*
G75*
G02*
X10830000Y51934000I49000J0D01*
G01*
G37*
G36*
G01*
X10830000Y48634000D02*
X12030000Y48634000D01*
G75*
G02*
X12079000Y48585000I0J-49000D01*
G01*
X12079000Y47685000D01*
G75*
G02*
X12030000Y47636000I-49000J0D01*
G01*
X10830000Y47636000D01*
G75*
G02*
X10781000Y47685000I0J49000D01*
G01*
X10781000Y48585000D01*
G75*
G02*
X10830000Y48634000I49000J0D01*
G01*
G37*
G04 #@! TD*
G04 #@! TO.C,U11*
G36*
G01*
X45400000Y35299000D02*
X45700000Y35299000D01*
G75*
G02*
X45899000Y35100000I0J-199000D01*
G01*
X45899000Y34075000D01*
G75*
G02*
X45700000Y33876000I-199000J0D01*
G01*
X45400000Y33876000D01*
G75*
G02*
X45201000Y34075000I0J199000D01*
G01*
X45201000Y35100000D01*
G75*
G02*
X45400000Y35299000I199000J0D01*
G01*
G37*
G36*
G01*
X44450000Y35299000D02*
X44750000Y35299000D01*
G75*
G02*
X44949000Y35100000I0J-199000D01*
G01*
X44949000Y34075000D01*
G75*
G02*
X44750000Y33876000I-199000J0D01*
G01*
X44450000Y33876000D01*
G75*
G02*
X44251000Y34075000I0J199000D01*
G01*
X44251000Y35100000D01*
G75*
G02*
X44450000Y35299000I199000J0D01*
G01*
G37*
G36*
G01*
X43500000Y35299000D02*
X43800000Y35299000D01*
G75*
G02*
X43999000Y35100000I0J-199000D01*
G01*
X43999000Y34075000D01*
G75*
G02*
X43800000Y33876000I-199000J0D01*
G01*
X43500000Y33876000D01*
G75*
G02*
X43301000Y34075000I0J199000D01*
G01*
X43301000Y35100000D01*
G75*
G02*
X43500000Y35299000I199000J0D01*
G01*
G37*
G36*
G01*
X43500000Y33024000D02*
X43800000Y33024000D01*
G75*
G02*
X43999000Y32825000I0J-199000D01*
G01*
X43999000Y31800000D01*
G75*
G02*
X43800000Y31601000I-199000J0D01*
G01*
X43500000Y31601000D01*
G75*
G02*
X43301000Y31800000I0J199000D01*
G01*
X43301000Y32825000D01*
G75*
G02*
X43500000Y33024000I199000J0D01*
G01*
G37*
G36*
G01*
X44450000Y33024000D02*
X44750000Y33024000D01*
G75*
G02*
X44949000Y32825000I0J-199000D01*
G01*
X44949000Y31800000D01*
G75*
G02*
X44750000Y31601000I-199000J0D01*
G01*
X44450000Y31601000D01*
G75*
G02*
X44251000Y31800000I0J199000D01*
G01*
X44251000Y32825000D01*
G75*
G02*
X44450000Y33024000I199000J0D01*
G01*
G37*
G36*
G01*
X45400000Y33024000D02*
X45700000Y33024000D01*
G75*
G02*
X45899000Y32825000I0J-199000D01*
G01*
X45899000Y31800000D01*
G75*
G02*
X45700000Y31601000I-199000J0D01*
G01*
X45400000Y31601000D01*
G75*
G02*
X45201000Y31800000I0J199000D01*
G01*
X45201000Y32825000D01*
G75*
G02*
X45400000Y33024000I199000J0D01*
G01*
G37*
G04 #@! TD*
G04 #@! TO.C,R38*
G36*
G01*
X53925000Y45224000D02*
X55175000Y45224000D01*
G75*
G02*
X55474000Y44925000I0J-299000D01*
G01*
X55474000Y44300000D01*
G75*
G02*
X55175000Y44001000I-299000J0D01*
G01*
X53925000Y44001000D01*
G75*
G02*
X53626000Y44300000I0J299000D01*
G01*
X53626000Y44925000D01*
G75*
G02*
X53925000Y45224000I299000J0D01*
G01*
G37*
G36*
G01*
X53925000Y42299000D02*
X55175000Y42299000D01*
G75*
G02*
X55474000Y42000000I0J-299000D01*
G01*
X55474000Y41375000D01*
G75*
G02*
X55175000Y41076000I-299000J0D01*
G01*
X53925000Y41076000D01*
G75*
G02*
X53626000Y41375000I0J299000D01*
G01*
X53626000Y42000000D01*
G75*
G02*
X53925000Y42299000I299000J0D01*
G01*
G37*
G04 #@! TD*
G04 #@! TO.C,C14*
G36*
G01*
X40113000Y44153000D02*
X40113000Y44493000D01*
G75*
G02*
X40302000Y44682000I189000J0D01*
G01*
X40582000Y44682000D01*
G75*
G02*
X40771000Y44493000I0J-189000D01*
G01*
X40771000Y44153000D01*
G75*
G02*
X40582000Y43964000I-189000J0D01*
G01*
X40302000Y43964000D01*
G75*
G02*
X40113000Y44153000I0J189000D01*
G01*
G37*
G36*
G01*
X41073000Y44153000D02*
X41073000Y44493000D01*
G75*
G02*
X41262000Y44682000I189000J0D01*
G01*
X41542000Y44682000D01*
G75*
G02*
X41731000Y44493000I0J-189000D01*
G01*
X41731000Y44153000D01*
G75*
G02*
X41542000Y43964000I-189000J0D01*
G01*
X41262000Y43964000D01*
G75*
G02*
X41073000Y44153000I0J189000D01*
G01*
G37*
G04 #@! TD*
G04 #@! TO.C,R11*
G36*
G01*
X21521000Y31556000D02*
X21151000Y31556000D01*
G75*
G02*
X20967000Y31740000I0J184000D01*
G01*
X20967000Y32010000D01*
G75*
G02*
X21151000Y32194000I184000J0D01*
G01*
X21521000Y32194000D01*
G75*
G02*
X21705000Y32010000I0J-184000D01*
G01*
X21705000Y31740000D01*
G75*
G02*
X21521000Y31556000I-184000J0D01*
G01*
G37*
G36*
G01*
X21521000Y32576000D02*
X21151000Y32576000D01*
G75*
G02*
X20967000Y32760000I0J184000D01*
G01*
X20967000Y33030000D01*
G75*
G02*
X21151000Y33214000I184000J0D01*
G01*
X21521000Y33214000D01*
G75*
G02*
X21705000Y33030000I0J-184000D01*
G01*
X21705000Y32760000D01*
G75*
G02*
X21521000Y32576000I-184000J0D01*
G01*
G37*
G04 #@! TD*
G04 #@! TO.C,C34*
G36*
G01*
X19605000Y15537000D02*
X19605000Y15197000D01*
G75*
G02*
X19416000Y15008000I-189000J0D01*
G01*
X19136000Y15008000D01*
G75*
G02*
X18947000Y15197000I0J189000D01*
G01*
X18947000Y15537000D01*
G75*
G02*
X19136000Y15726000I189000J0D01*
G01*
X19416000Y15726000D01*
G75*
G02*
X19605000Y15537000I0J-189000D01*
G01*
G37*
G36*
G01*
X18645000Y15537000D02*
X18645000Y15197000D01*
G75*
G02*
X18456000Y15008000I-189000J0D01*
G01*
X18176000Y15008000D01*
G75*
G02*
X17987000Y15197000I0J189000D01*
G01*
X17987000Y15537000D01*
G75*
G02*
X18176000Y15726000I189000J0D01*
G01*
X18456000Y15726000D01*
G75*
G02*
X18645000Y15537000I0J-189000D01*
G01*
G37*
G04 #@! TD*
G04 #@! TO.C,C6*
G36*
G01*
X37639000Y21125000D02*
X37639000Y20785000D01*
G75*
G02*
X37450000Y20596000I-189000J0D01*
G01*
X37170000Y20596000D01*
G75*
G02*
X36981000Y20785000I0J189000D01*
G01*
X36981000Y21125000D01*
G75*
G02*
X37170000Y21314000I189000J0D01*
G01*
X37450000Y21314000D01*
G75*
G02*
X37639000Y21125000I0J-189000D01*
G01*
G37*
G36*
G01*
X36679000Y21125000D02*
X36679000Y20785000D01*
G75*
G02*
X36490000Y20596000I-189000J0D01*
G01*
X36210000Y20596000D01*
G75*
G02*
X36021000Y20785000I0J189000D01*
G01*
X36021000Y21125000D01*
G75*
G02*
X36210000Y21314000I189000J0D01*
G01*
X36490000Y21314000D01*
G75*
G02*
X36679000Y21125000I0J-189000D01*
G01*
G37*
G04 #@! TD*
G04 #@! TO.C,R45*
G36*
G01*
X21078000Y23728000D02*
X21078000Y24278000D01*
G75*
G02*
X21327000Y24527000I249000J0D01*
G01*
X21727000Y24527000D01*
G75*
G02*
X21976000Y24278000I0J-249000D01*
G01*
X21976000Y23728000D01*
G75*
G02*
X21727000Y23479000I-249000J0D01*
G01*
X21327000Y23479000D01*
G75*
G02*
X21078000Y23728000I0J249000D01*
G01*
G37*
G36*
G01*
X22728000Y23728000D02*
X22728000Y24278000D01*
G75*
G02*
X22977000Y24527000I249000J0D01*
G01*
X23377000Y24527000D01*
G75*
G02*
X23626000Y24278000I0J-249000D01*
G01*
X23626000Y23728000D01*
G75*
G02*
X23377000Y23479000I-249000J0D01*
G01*
X22977000Y23479000D01*
G75*
G02*
X22728000Y23728000I0J249000D01*
G01*
G37*
G04 #@! TD*
G04 #@! TO.C,R6*
G36*
G01*
X17467000Y43074000D02*
X17467000Y42524000D01*
G75*
G02*
X17218000Y42275000I-249000J0D01*
G01*
X16818000Y42275000D01*
G75*
G02*
X16569000Y42524000I0J249000D01*
G01*
X16569000Y43074000D01*
G75*
G02*
X16818000Y43323000I249000J0D01*
G01*
X17218000Y43323000D01*
G75*
G02*
X17467000Y43074000I0J-249000D01*
G01*
G37*
G36*
G01*
X15817000Y43074000D02*
X15817000Y42524000D01*
G75*
G02*
X15568000Y42275000I-249000J0D01*
G01*
X15168000Y42275000D01*
G75*
G02*
X14919000Y42524000I0J249000D01*
G01*
X14919000Y43074000D01*
G75*
G02*
X15168000Y43323000I249000J0D01*
G01*
X15568000Y43323000D01*
G75*
G02*
X15817000Y43074000I0J-249000D01*
G01*
G37*
G04 #@! TD*
G04 #@! TO.C,R44*
G36*
G01*
X10728000Y44646000D02*
X10728000Y45016000D01*
G75*
G02*
X10912000Y45200000I184000J0D01*
G01*
X11182000Y45200000D01*
G75*
G02*
X11366000Y45016000I0J-184000D01*
G01*
X11366000Y44646000D01*
G75*
G02*
X11182000Y44462000I-184000J0D01*
G01*
X10912000Y44462000D01*
G75*
G02*
X10728000Y44646000I0J184000D01*
G01*
G37*
G36*
G01*
X11748000Y44646000D02*
X11748000Y45016000D01*
G75*
G02*
X11932000Y45200000I184000J0D01*
G01*
X12202000Y45200000D01*
G75*
G02*
X12386000Y45016000I0J-184000D01*
G01*
X12386000Y44646000D01*
G75*
G02*
X12202000Y44462000I-184000J0D01*
G01*
X11932000Y44462000D01*
G75*
G02*
X11748000Y44646000I0J184000D01*
G01*
G37*
G04 #@! TD*
G04 #@! TO.C,R40*
G36*
G01*
X40229000Y37385000D02*
X40229000Y37015000D01*
G75*
G02*
X40045000Y36831000I-184000J0D01*
G01*
X39775000Y36831000D01*
G75*
G02*
X39591000Y37015000I0J184000D01*
G01*
X39591000Y37385000D01*
G75*
G02*
X39775000Y37569000I184000J0D01*
G01*
X40045000Y37569000D01*
G75*
G02*
X40229000Y37385000I0J-184000D01*
G01*
G37*
G36*
G01*
X39209000Y37385000D02*
X39209000Y37015000D01*
G75*
G02*
X39025000Y36831000I-184000J0D01*
G01*
X38755000Y36831000D01*
G75*
G02*
X38571000Y37015000I0J184000D01*
G01*
X38571000Y37385000D01*
G75*
G02*
X38755000Y37569000I184000J0D01*
G01*
X39025000Y37569000D01*
G75*
G02*
X39209000Y37385000I0J-184000D01*
G01*
G37*
G04 #@! TD*
G04 #@! TO.C,R60*
G36*
G01*
X49075000Y45224000D02*
X50325000Y45224000D01*
G75*
G02*
X50624000Y44925000I0J-299000D01*
G01*
X50624000Y44300000D01*
G75*
G02*
X50325000Y44001000I-299000J0D01*
G01*
X49075000Y44001000D01*
G75*
G02*
X48776000Y44300000I0J299000D01*
G01*
X48776000Y44925000D01*
G75*
G02*
X49075000Y45224000I299000J0D01*
G01*
G37*
G36*
G01*
X49075000Y42299000D02*
X50325000Y42299000D01*
G75*
G02*
X50624000Y42000000I0J-299000D01*
G01*
X50624000Y41375000D01*
G75*
G02*
X50325000Y41076000I-299000J0D01*
G01*
X49075000Y41076000D01*
G75*
G02*
X48776000Y41375000I0J299000D01*
G01*
X48776000Y42000000D01*
G75*
G02*
X49075000Y42299000I299000J0D01*
G01*
G37*
G04 #@! TD*
G04 #@! TO.C,R43*
G36*
G01*
X10730000Y46170000D02*
X10730000Y46540000D01*
G75*
G02*
X10914000Y46724000I184000J0D01*
G01*
X11184000Y46724000D01*
G75*
G02*
X11368000Y46540000I0J-184000D01*
G01*
X11368000Y46170000D01*
G75*
G02*
X11184000Y45986000I-184000J0D01*
G01*
X10914000Y45986000D01*
G75*
G02*
X10730000Y46170000I0J184000D01*
G01*
G37*
G36*
G01*
X11750000Y46170000D02*
X11750000Y46540000D01*
G75*
G02*
X11934000Y46724000I184000J0D01*
G01*
X12204000Y46724000D01*
G75*
G02*
X12388000Y46540000I0J-184000D01*
G01*
X12388000Y46170000D01*
G75*
G02*
X12204000Y45986000I-184000J0D01*
G01*
X11934000Y45986000D01*
G75*
G02*
X11750000Y46170000I0J184000D01*
G01*
G37*
G04 #@! TD*
G04 #@! TO.C,R7*
G36*
G01*
X11625000Y32643000D02*
X12175000Y32643000D01*
G75*
G02*
X12424000Y32394000I0J-249000D01*
G01*
X12424000Y31994000D01*
G75*
G02*
X12175000Y31745000I-249000J0D01*
G01*
X11625000Y31745000D01*
G75*
G02*
X11376000Y31994000I0J249000D01*
G01*
X11376000Y32394000D01*
G75*
G02*
X11625000Y32643000I249000J0D01*
G01*
G37*
G36*
G01*
X11625000Y30993000D02*
X12175000Y30993000D01*
G75*
G02*
X12424000Y30744000I0J-249000D01*
G01*
X12424000Y30344000D01*
G75*
G02*
X12175000Y30095000I-249000J0D01*
G01*
X11625000Y30095000D01*
G75*
G02*
X11376000Y30344000I0J249000D01*
G01*
X11376000Y30744000D01*
G75*
G02*
X11625000Y30993000I249000J0D01*
G01*
G37*
G04 #@! TD*
G04 #@! TO.C,C11*
G36*
G01*
X19859000Y31793000D02*
X19859000Y31453000D01*
G75*
G02*
X19670000Y31264000I-189000J0D01*
G01*
X19390000Y31264000D01*
G75*
G02*
X19201000Y31453000I0J189000D01*
G01*
X19201000Y31793000D01*
G75*
G02*
X19390000Y31982000I189000J0D01*
G01*
X19670000Y31982000D01*
G75*
G02*
X19859000Y31793000I0J-189000D01*
G01*
G37*
G36*
G01*
X18899000Y31793000D02*
X18899000Y31453000D01*
G75*
G02*
X18710000Y31264000I-189000J0D01*
G01*
X18430000Y31264000D01*
G75*
G02*
X18241000Y31453000I0J189000D01*
G01*
X18241000Y31793000D01*
G75*
G02*
X18430000Y31982000I189000J0D01*
G01*
X18710000Y31982000D01*
G75*
G02*
X18899000Y31793000I0J-189000D01*
G01*
G37*
G04 #@! TD*
D13*
G04 #@! TO.C,J5*
X9144000Y19177000D03*
X4064000Y20193000D03*
X9144000Y21209000D03*
D14*
X5334000Y19558000D03*
X5334000Y20828000D03*
X6604000Y19558000D03*
X6604000Y20828000D03*
X7874000Y19558000D03*
X7874000Y20828000D03*
G04 #@! TD*
G04 #@! TO.C,R31*
G36*
G01*
X16743000Y20324000D02*
X17293000Y20324000D01*
G75*
G02*
X17542000Y20075000I0J-249000D01*
G01*
X17542000Y19675000D01*
G75*
G02*
X17293000Y19426000I-249000J0D01*
G01*
X16743000Y19426000D01*
G75*
G02*
X16494000Y19675000I0J249000D01*
G01*
X16494000Y20075000D01*
G75*
G02*
X16743000Y20324000I249000J0D01*
G01*
G37*
G36*
G01*
X16743000Y18674000D02*
X17293000Y18674000D01*
G75*
G02*
X17542000Y18425000I0J-249000D01*
G01*
X17542000Y18025000D01*
G75*
G02*
X17293000Y17776000I-249000J0D01*
G01*
X16743000Y17776000D01*
G75*
G02*
X16494000Y18025000I0J249000D01*
G01*
X16494000Y18425000D01*
G75*
G02*
X16743000Y18674000I249000J0D01*
G01*
G37*
G04 #@! TD*
G04 #@! TO.C,R14*
G36*
G01*
X21078000Y29824000D02*
X21078000Y30374000D01*
G75*
G02*
X21327000Y30623000I249000J0D01*
G01*
X21727000Y30623000D01*
G75*
G02*
X21976000Y30374000I0J-249000D01*
G01*
X21976000Y29824000D01*
G75*
G02*
X21727000Y29575000I-249000J0D01*
G01*
X21327000Y29575000D01*
G75*
G02*
X21078000Y29824000I0J249000D01*
G01*
G37*
G36*
G01*
X22728000Y29824000D02*
X22728000Y30374000D01*
G75*
G02*
X22977000Y30623000I249000J0D01*
G01*
X23377000Y30623000D01*
G75*
G02*
X23626000Y30374000I0J-249000D01*
G01*
X23626000Y29824000D01*
G75*
G02*
X23377000Y29575000I-249000J0D01*
G01*
X22977000Y29575000D01*
G75*
G02*
X22728000Y29824000I0J249000D01*
G01*
G37*
G04 #@! TD*
G04 #@! TO.C,R36*
G36*
G01*
X30549000Y20768000D02*
X30919000Y20768000D01*
G75*
G02*
X31103000Y20584000I0J-184000D01*
G01*
X31103000Y20314000D01*
G75*
G02*
X30919000Y20130000I-184000J0D01*
G01*
X30549000Y20130000D01*
G75*
G02*
X30365000Y20314000I0J184000D01*
G01*
X30365000Y20584000D01*
G75*
G02*
X30549000Y20768000I184000J0D01*
G01*
G37*
G36*
G01*
X30549000Y19748000D02*
X30919000Y19748000D01*
G75*
G02*
X31103000Y19564000I0J-184000D01*
G01*
X31103000Y19294000D01*
G75*
G02*
X30919000Y19110000I-184000J0D01*
G01*
X30549000Y19110000D01*
G75*
G02*
X30365000Y19294000I0J184000D01*
G01*
X30365000Y19564000D01*
G75*
G02*
X30549000Y19748000I184000J0D01*
G01*
G37*
G04 #@! TD*
G04 #@! TO.C,C45*
G36*
G01*
X49580000Y51291000D02*
X49240000Y51291000D01*
G75*
G02*
X49051000Y51480000I0J189000D01*
G01*
X49051000Y51760000D01*
G75*
G02*
X49240000Y51949000I189000J0D01*
G01*
X49580000Y51949000D01*
G75*
G02*
X49769000Y51760000I0J-189000D01*
G01*
X49769000Y51480000D01*
G75*
G02*
X49580000Y51291000I-189000J0D01*
G01*
G37*
G36*
G01*
X49580000Y52251000D02*
X49240000Y52251000D01*
G75*
G02*
X49051000Y52440000I0J189000D01*
G01*
X49051000Y52720000D01*
G75*
G02*
X49240000Y52909000I189000J0D01*
G01*
X49580000Y52909000D01*
G75*
G02*
X49769000Y52720000I0J-189000D01*
G01*
X49769000Y52440000D01*
G75*
G02*
X49580000Y52251000I-189000J0D01*
G01*
G37*
G04 #@! TD*
G04 #@! TO.C,R34*
G36*
G01*
X28427000Y21467000D02*
X28977000Y21467000D01*
G75*
G02*
X29226000Y21218000I0J-249000D01*
G01*
X29226000Y20818000D01*
G75*
G02*
X28977000Y20569000I-249000J0D01*
G01*
X28427000Y20569000D01*
G75*
G02*
X28178000Y20818000I0J249000D01*
G01*
X28178000Y21218000D01*
G75*
G02*
X28427000Y21467000I249000J0D01*
G01*
G37*
G36*
G01*
X28427000Y19817000D02*
X28977000Y19817000D01*
G75*
G02*
X29226000Y19568000I0J-249000D01*
G01*
X29226000Y19168000D01*
G75*
G02*
X28977000Y18919000I-249000J0D01*
G01*
X28427000Y18919000D01*
G75*
G02*
X28178000Y19168000I0J249000D01*
G01*
X28178000Y19568000D01*
G75*
G02*
X28427000Y19817000I249000J0D01*
G01*
G37*
G04 #@! TD*
G04 #@! TO.C,R35*
G36*
G01*
X31009000Y15426000D02*
X30459000Y15426000D01*
G75*
G02*
X30210000Y15675000I0J249000D01*
G01*
X30210000Y16075000D01*
G75*
G02*
X30459000Y16324000I249000J0D01*
G01*
X31009000Y16324000D01*
G75*
G02*
X31258000Y16075000I0J-249000D01*
G01*
X31258000Y15675000D01*
G75*
G02*
X31009000Y15426000I-249000J0D01*
G01*
G37*
G36*
G01*
X31009000Y17076000D02*
X30459000Y17076000D01*
G75*
G02*
X30210000Y17325000I0J249000D01*
G01*
X30210000Y17725000D01*
G75*
G02*
X30459000Y17974000I249000J0D01*
G01*
X31009000Y17974000D01*
G75*
G02*
X31258000Y17725000I0J-249000D01*
G01*
X31258000Y17325000D01*
G75*
G02*
X31009000Y17076000I-249000J0D01*
G01*
G37*
G04 #@! TD*
G04 #@! TO.C,C25*
G36*
G01*
X14403000Y47709000D02*
X14403000Y48049000D01*
G75*
G02*
X14592000Y48238000I189000J0D01*
G01*
X14872000Y48238000D01*
G75*
G02*
X15061000Y48049000I0J-189000D01*
G01*
X15061000Y47709000D01*
G75*
G02*
X14872000Y47520000I-189000J0D01*
G01*
X14592000Y47520000D01*
G75*
G02*
X14403000Y47709000I0J189000D01*
G01*
G37*
G36*
G01*
X15363000Y47709000D02*
X15363000Y48049000D01*
G75*
G02*
X15552000Y48238000I189000J0D01*
G01*
X15832000Y48238000D01*
G75*
G02*
X16021000Y48049000I0J-189000D01*
G01*
X16021000Y47709000D01*
G75*
G02*
X15832000Y47520000I-189000J0D01*
G01*
X15552000Y47520000D01*
G75*
G02*
X15363000Y47709000I0J189000D01*
G01*
G37*
G04 #@! TD*
G04 #@! TO.C,C7*
G36*
G01*
X15324000Y41322000D02*
X15664000Y41322000D01*
G75*
G02*
X15853000Y41133000I0J-189000D01*
G01*
X15853000Y40853000D01*
G75*
G02*
X15664000Y40664000I-189000J0D01*
G01*
X15324000Y40664000D01*
G75*
G02*
X15135000Y40853000I0J189000D01*
G01*
X15135000Y41133000D01*
G75*
G02*
X15324000Y41322000I189000J0D01*
G01*
G37*
G36*
G01*
X15324000Y40362000D02*
X15664000Y40362000D01*
G75*
G02*
X15853000Y40173000I0J-189000D01*
G01*
X15853000Y39893000D01*
G75*
G02*
X15664000Y39704000I-189000J0D01*
G01*
X15324000Y39704000D01*
G75*
G02*
X15135000Y39893000I0J189000D01*
G01*
X15135000Y40173000D01*
G75*
G02*
X15324000Y40362000I189000J0D01*
G01*
G37*
G04 #@! TD*
G04 #@! TO.C,R23*
G36*
G01*
X2765000Y36516000D02*
X3135000Y36516000D01*
G75*
G02*
X3319000Y36332000I0J-184000D01*
G01*
X3319000Y36062000D01*
G75*
G02*
X3135000Y35878000I-184000J0D01*
G01*
X2765000Y35878000D01*
G75*
G02*
X2581000Y36062000I0J184000D01*
G01*
X2581000Y36332000D01*
G75*
G02*
X2765000Y36516000I184000J0D01*
G01*
G37*
G36*
G01*
X2765000Y35496000D02*
X3135000Y35496000D01*
G75*
G02*
X3319000Y35312000I0J-184000D01*
G01*
X3319000Y35042000D01*
G75*
G02*
X3135000Y34858000I-184000J0D01*
G01*
X2765000Y34858000D01*
G75*
G02*
X2581000Y35042000I0J184000D01*
G01*
X2581000Y35312000D01*
G75*
G02*
X2765000Y35496000I184000J0D01*
G01*
G37*
G04 #@! TD*
G04 #@! TO.C,U1*
G36*
G01*
X18978000Y34324000D02*
X18778000Y34324000D01*
G75*
G02*
X18629000Y34473000I0J149000D01*
G01*
X18629000Y35748000D01*
G75*
G02*
X18778000Y35897000I149000J0D01*
G01*
X18978000Y35897000D01*
G75*
G02*
X19127000Y35748000I0J-149000D01*
G01*
X19127000Y34473000D01*
G75*
G02*
X18978000Y34324000I-149000J0D01*
G01*
G37*
G36*
G01*
X19628000Y34324000D02*
X19428000Y34324000D01*
G75*
G02*
X19279000Y34473000I0J149000D01*
G01*
X19279000Y35748000D01*
G75*
G02*
X19428000Y35897000I149000J0D01*
G01*
X19628000Y35897000D01*
G75*
G02*
X19777000Y35748000I0J-149000D01*
G01*
X19777000Y34473000D01*
G75*
G02*
X19628000Y34324000I-149000J0D01*
G01*
G37*
G36*
G01*
X20278000Y34324000D02*
X20078000Y34324000D01*
G75*
G02*
X19929000Y34473000I0J149000D01*
G01*
X19929000Y35748000D01*
G75*
G02*
X20078000Y35897000I149000J0D01*
G01*
X20278000Y35897000D01*
G75*
G02*
X20427000Y35748000I0J-149000D01*
G01*
X20427000Y34473000D01*
G75*
G02*
X20278000Y34324000I-149000J0D01*
G01*
G37*
G36*
G01*
X20928000Y34324000D02*
X20728000Y34324000D01*
G75*
G02*
X20579000Y34473000I0J149000D01*
G01*
X20579000Y35748000D01*
G75*
G02*
X20728000Y35897000I149000J0D01*
G01*
X20928000Y35897000D01*
G75*
G02*
X21077000Y35748000I0J-149000D01*
G01*
X21077000Y34473000D01*
G75*
G02*
X20928000Y34324000I-149000J0D01*
G01*
G37*
G36*
G01*
X21578000Y34324000D02*
X21378000Y34324000D01*
G75*
G02*
X21229000Y34473000I0J149000D01*
G01*
X21229000Y35748000D01*
G75*
G02*
X21378000Y35897000I149000J0D01*
G01*
X21578000Y35897000D01*
G75*
G02*
X21727000Y35748000I0J-149000D01*
G01*
X21727000Y34473000D01*
G75*
G02*
X21578000Y34324000I-149000J0D01*
G01*
G37*
G36*
G01*
X22228000Y34324000D02*
X22028000Y34324000D01*
G75*
G02*
X21879000Y34473000I0J149000D01*
G01*
X21879000Y35748000D01*
G75*
G02*
X22028000Y35897000I149000J0D01*
G01*
X22228000Y35897000D01*
G75*
G02*
X22377000Y35748000I0J-149000D01*
G01*
X22377000Y34473000D01*
G75*
G02*
X22228000Y34324000I-149000J0D01*
G01*
G37*
G36*
G01*
X22878000Y34324000D02*
X22678000Y34324000D01*
G75*
G02*
X22529000Y34473000I0J149000D01*
G01*
X22529000Y35748000D01*
G75*
G02*
X22678000Y35897000I149000J0D01*
G01*
X22878000Y35897000D01*
G75*
G02*
X23027000Y35748000I0J-149000D01*
G01*
X23027000Y34473000D01*
G75*
G02*
X22878000Y34324000I-149000J0D01*
G01*
G37*
G36*
G01*
X22878000Y40049000D02*
X22678000Y40049000D01*
G75*
G02*
X22529000Y40198000I0J149000D01*
G01*
X22529000Y41473000D01*
G75*
G02*
X22678000Y41622000I149000J0D01*
G01*
X22878000Y41622000D01*
G75*
G02*
X23027000Y41473000I0J-149000D01*
G01*
X23027000Y40198000D01*
G75*
G02*
X22878000Y40049000I-149000J0D01*
G01*
G37*
G36*
G01*
X22228000Y40049000D02*
X22028000Y40049000D01*
G75*
G02*
X21879000Y40198000I0J149000D01*
G01*
X21879000Y41473000D01*
G75*
G02*
X22028000Y41622000I149000J0D01*
G01*
X22228000Y41622000D01*
G75*
G02*
X22377000Y41473000I0J-149000D01*
G01*
X22377000Y40198000D01*
G75*
G02*
X22228000Y40049000I-149000J0D01*
G01*
G37*
G36*
G01*
X21578000Y40049000D02*
X21378000Y40049000D01*
G75*
G02*
X21229000Y40198000I0J149000D01*
G01*
X21229000Y41473000D01*
G75*
G02*
X21378000Y41622000I149000J0D01*
G01*
X21578000Y41622000D01*
G75*
G02*
X21727000Y41473000I0J-149000D01*
G01*
X21727000Y40198000D01*
G75*
G02*
X21578000Y40049000I-149000J0D01*
G01*
G37*
G36*
G01*
X20928000Y40049000D02*
X20728000Y40049000D01*
G75*
G02*
X20579000Y40198000I0J149000D01*
G01*
X20579000Y41473000D01*
G75*
G02*
X20728000Y41622000I149000J0D01*
G01*
X20928000Y41622000D01*
G75*
G02*
X21077000Y41473000I0J-149000D01*
G01*
X21077000Y40198000D01*
G75*
G02*
X20928000Y40049000I-149000J0D01*
G01*
G37*
G36*
G01*
X20278000Y40049000D02*
X20078000Y40049000D01*
G75*
G02*
X19929000Y40198000I0J149000D01*
G01*
X19929000Y41473000D01*
G75*
G02*
X20078000Y41622000I149000J0D01*
G01*
X20278000Y41622000D01*
G75*
G02*
X20427000Y41473000I0J-149000D01*
G01*
X20427000Y40198000D01*
G75*
G02*
X20278000Y40049000I-149000J0D01*
G01*
G37*
G36*
G01*
X19628000Y40049000D02*
X19428000Y40049000D01*
G75*
G02*
X19279000Y40198000I0J149000D01*
G01*
X19279000Y41473000D01*
G75*
G02*
X19428000Y41622000I149000J0D01*
G01*
X19628000Y41622000D01*
G75*
G02*
X19777000Y41473000I0J-149000D01*
G01*
X19777000Y40198000D01*
G75*
G02*
X19628000Y40049000I-149000J0D01*
G01*
G37*
G36*
G01*
X18978000Y40049000D02*
X18778000Y40049000D01*
G75*
G02*
X18629000Y40198000I0J149000D01*
G01*
X18629000Y41473000D01*
G75*
G02*
X18778000Y41622000I149000J0D01*
G01*
X18978000Y41622000D01*
G75*
G02*
X19127000Y41473000I0J-149000D01*
G01*
X19127000Y40198000D01*
G75*
G02*
X18978000Y40049000I-149000J0D01*
G01*
G37*
G04 #@! TD*
G04 #@! TO.C,R30*
G36*
G01*
X28902000Y51806000D02*
X29272000Y51806000D01*
G75*
G02*
X29456000Y51622000I0J-184000D01*
G01*
X29456000Y51352000D01*
G75*
G02*
X29272000Y51168000I-184000J0D01*
G01*
X28902000Y51168000D01*
G75*
G02*
X28718000Y51352000I0J184000D01*
G01*
X28718000Y51622000D01*
G75*
G02*
X28902000Y51806000I184000J0D01*
G01*
G37*
G36*
G01*
X28902000Y50786000D02*
X29272000Y50786000D01*
G75*
G02*
X29456000Y50602000I0J-184000D01*
G01*
X29456000Y50332000D01*
G75*
G02*
X29272000Y50148000I-184000J0D01*
G01*
X28902000Y50148000D01*
G75*
G02*
X28718000Y50332000I0J184000D01*
G01*
X28718000Y50602000D01*
G75*
G02*
X28902000Y50786000I184000J0D01*
G01*
G37*
G04 #@! TD*
G04 #@! TO.C,C20*
G36*
G01*
X36529000Y35771000D02*
X36529000Y36111000D01*
G75*
G02*
X36718000Y36300000I189000J0D01*
G01*
X36998000Y36300000D01*
G75*
G02*
X37187000Y36111000I0J-189000D01*
G01*
X37187000Y35771000D01*
G75*
G02*
X36998000Y35582000I-189000J0D01*
G01*
X36718000Y35582000D01*
G75*
G02*
X36529000Y35771000I0J189000D01*
G01*
G37*
G36*
G01*
X37489000Y35771000D02*
X37489000Y36111000D01*
G75*
G02*
X37678000Y36300000I189000J0D01*
G01*
X37958000Y36300000D01*
G75*
G02*
X38147000Y36111000I0J-189000D01*
G01*
X38147000Y35771000D01*
G75*
G02*
X37958000Y35582000I-189000J0D01*
G01*
X37678000Y35582000D01*
G75*
G02*
X37489000Y35771000I0J189000D01*
G01*
G37*
G04 #@! TD*
G04 #@! TO.C,R12*
G36*
G01*
X24317000Y38550000D02*
X24317000Y38920000D01*
G75*
G02*
X24501000Y39104000I184000J0D01*
G01*
X24771000Y39104000D01*
G75*
G02*
X24955000Y38920000I0J-184000D01*
G01*
X24955000Y38550000D01*
G75*
G02*
X24771000Y38366000I-184000J0D01*
G01*
X24501000Y38366000D01*
G75*
G02*
X24317000Y38550000I0J184000D01*
G01*
G37*
G36*
G01*
X25337000Y38550000D02*
X25337000Y38920000D01*
G75*
G02*
X25521000Y39104000I184000J0D01*
G01*
X25791000Y39104000D01*
G75*
G02*
X25975000Y38920000I0J-184000D01*
G01*
X25975000Y38550000D01*
G75*
G02*
X25791000Y38366000I-184000J0D01*
G01*
X25521000Y38366000D01*
G75*
G02*
X25337000Y38550000I0J184000D01*
G01*
G37*
G04 #@! TD*
G04 #@! TO.C,R20*
G36*
G01*
X24617000Y42295000D02*
X25167000Y42295000D01*
G75*
G02*
X25416000Y42046000I0J-249000D01*
G01*
X25416000Y41646000D01*
G75*
G02*
X25167000Y41397000I-249000J0D01*
G01*
X24617000Y41397000D01*
G75*
G02*
X24368000Y41646000I0J249000D01*
G01*
X24368000Y42046000D01*
G75*
G02*
X24617000Y42295000I249000J0D01*
G01*
G37*
G36*
G01*
X24617000Y40645000D02*
X25167000Y40645000D01*
G75*
G02*
X25416000Y40396000I0J-249000D01*
G01*
X25416000Y39996000D01*
G75*
G02*
X25167000Y39747000I-249000J0D01*
G01*
X24617000Y39747000D01*
G75*
G02*
X24368000Y39996000I0J249000D01*
G01*
X24368000Y40396000D01*
G75*
G02*
X24617000Y40645000I249000J0D01*
G01*
G37*
G04 #@! TD*
G04 #@! TO.C,TP2*
G36*
G01*
X17135000Y10199000D02*
X17135000Y11899000D01*
G75*
G02*
X17184000Y11948000I49000J0D01*
G01*
X18884000Y11948000D01*
G75*
G02*
X18933000Y11899000I0J-49000D01*
G01*
X18933000Y10199000D01*
G75*
G02*
X18884000Y10150000I-49000J0D01*
G01*
X17184000Y10150000D01*
G75*
G02*
X17135000Y10199000I0J49000D01*
G01*
G37*
G04 #@! TD*
G04 #@! TO.C,C29*
G36*
G01*
X47070000Y33541000D02*
X46730000Y33541000D01*
G75*
G02*
X46541000Y33730000I0J189000D01*
G01*
X46541000Y34010000D01*
G75*
G02*
X46730000Y34199000I189000J0D01*
G01*
X47070000Y34199000D01*
G75*
G02*
X47259000Y34010000I0J-189000D01*
G01*
X47259000Y33730000D01*
G75*
G02*
X47070000Y33541000I-189000J0D01*
G01*
G37*
G36*
G01*
X47070000Y34501000D02*
X46730000Y34501000D01*
G75*
G02*
X46541000Y34690000I0J189000D01*
G01*
X46541000Y34970000D01*
G75*
G02*
X46730000Y35159000I189000J0D01*
G01*
X47070000Y35159000D01*
G75*
G02*
X47259000Y34970000I0J-189000D01*
G01*
X47259000Y34690000D01*
G75*
G02*
X47070000Y34501000I-189000J0D01*
G01*
G37*
G04 #@! TD*
G04 #@! TO.C,R55*
G36*
G01*
X5015000Y36516000D02*
X5385000Y36516000D01*
G75*
G02*
X5569000Y36332000I0J-184000D01*
G01*
X5569000Y36062000D01*
G75*
G02*
X5385000Y35878000I-184000J0D01*
G01*
X5015000Y35878000D01*
G75*
G02*
X4831000Y36062000I0J184000D01*
G01*
X4831000Y36332000D01*
G75*
G02*
X5015000Y36516000I184000J0D01*
G01*
G37*
G36*
G01*
X5015000Y35496000D02*
X5385000Y35496000D01*
G75*
G02*
X5569000Y35312000I0J-184000D01*
G01*
X5569000Y35042000D01*
G75*
G02*
X5385000Y34858000I-184000J0D01*
G01*
X5015000Y34858000D01*
G75*
G02*
X4831000Y35042000I0J184000D01*
G01*
X4831000Y35312000D01*
G75*
G02*
X5015000Y35496000I184000J0D01*
G01*
G37*
G04 #@! TD*
G04 #@! TO.C,C23*
G36*
G01*
X24337000Y34501000D02*
X24337000Y34841000D01*
G75*
G02*
X24526000Y35030000I189000J0D01*
G01*
X24806000Y35030000D01*
G75*
G02*
X24995000Y34841000I0J-189000D01*
G01*
X24995000Y34501000D01*
G75*
G02*
X24806000Y34312000I-189000J0D01*
G01*
X24526000Y34312000D01*
G75*
G02*
X24337000Y34501000I0J189000D01*
G01*
G37*
G36*
G01*
X25297000Y34501000D02*
X25297000Y34841000D01*
G75*
G02*
X25486000Y35030000I189000J0D01*
G01*
X25766000Y35030000D01*
G75*
G02*
X25955000Y34841000I0J-189000D01*
G01*
X25955000Y34501000D01*
G75*
G02*
X25766000Y34312000I-189000J0D01*
G01*
X25486000Y34312000D01*
G75*
G02*
X25297000Y34501000I0J189000D01*
G01*
G37*
G04 #@! TD*
G04 #@! TO.C,C31*
G36*
G01*
X18241000Y25611000D02*
X18241000Y25951000D01*
G75*
G02*
X18430000Y26140000I189000J0D01*
G01*
X18710000Y26140000D01*
G75*
G02*
X18899000Y25951000I0J-189000D01*
G01*
X18899000Y25611000D01*
G75*
G02*
X18710000Y25422000I-189000J0D01*
G01*
X18430000Y25422000D01*
G75*
G02*
X18241000Y25611000I0J189000D01*
G01*
G37*
G36*
G01*
X19201000Y25611000D02*
X19201000Y25951000D01*
G75*
G02*
X19390000Y26140000I189000J0D01*
G01*
X19670000Y26140000D01*
G75*
G02*
X19859000Y25951000I0J-189000D01*
G01*
X19859000Y25611000D01*
G75*
G02*
X19670000Y25422000I-189000J0D01*
G01*
X19390000Y25422000D01*
G75*
G02*
X19201000Y25611000I0J189000D01*
G01*
G37*
G04 #@! TD*
G04 #@! TO.C,R58*
G36*
G01*
X41815000Y32940000D02*
X42185000Y32940000D01*
G75*
G02*
X42369000Y32756000I0J-184000D01*
G01*
X42369000Y32486000D01*
G75*
G02*
X42185000Y32302000I-184000J0D01*
G01*
X41815000Y32302000D01*
G75*
G02*
X41631000Y32486000I0J184000D01*
G01*
X41631000Y32756000D01*
G75*
G02*
X41815000Y32940000I184000J0D01*
G01*
G37*
G36*
G01*
X41815000Y31920000D02*
X42185000Y31920000D01*
G75*
G02*
X42369000Y31736000I0J-184000D01*
G01*
X42369000Y31466000D01*
G75*
G02*
X42185000Y31282000I-184000J0D01*
G01*
X41815000Y31282000D01*
G75*
G02*
X41631000Y31466000I0J184000D01*
G01*
X41631000Y31736000D01*
G75*
G02*
X41815000Y31920000I184000J0D01*
G01*
G37*
G04 #@! TD*
G04 #@! TO.C,R49*
G36*
G01*
X40721000Y35765000D02*
X40721000Y36135000D01*
G75*
G02*
X40905000Y36319000I184000J0D01*
G01*
X41175000Y36319000D01*
G75*
G02*
X41359000Y36135000I0J-184000D01*
G01*
X41359000Y35765000D01*
G75*
G02*
X41175000Y35581000I-184000J0D01*
G01*
X40905000Y35581000D01*
G75*
G02*
X40721000Y35765000I0J184000D01*
G01*
G37*
G36*
G01*
X41741000Y35765000D02*
X41741000Y36135000D01*
G75*
G02*
X41925000Y36319000I184000J0D01*
G01*
X42195000Y36319000D01*
G75*
G02*
X42379000Y36135000I0J-184000D01*
G01*
X42379000Y35765000D01*
G75*
G02*
X42195000Y35581000I-184000J0D01*
G01*
X41925000Y35581000D01*
G75*
G02*
X41741000Y35765000I0J184000D01*
G01*
G37*
G04 #@! TD*
G04 #@! TO.C,C24*
G36*
G01*
X24337000Y35771000D02*
X24337000Y36111000D01*
G75*
G02*
X24526000Y36300000I189000J0D01*
G01*
X24806000Y36300000D01*
G75*
G02*
X24995000Y36111000I0J-189000D01*
G01*
X24995000Y35771000D01*
G75*
G02*
X24806000Y35582000I-189000J0D01*
G01*
X24526000Y35582000D01*
G75*
G02*
X24337000Y35771000I0J189000D01*
G01*
G37*
G36*
G01*
X25297000Y35771000D02*
X25297000Y36111000D01*
G75*
G02*
X25486000Y36300000I189000J0D01*
G01*
X25766000Y36300000D01*
G75*
G02*
X25955000Y36111000I0J-189000D01*
G01*
X25955000Y35771000D01*
G75*
G02*
X25766000Y35582000I-189000J0D01*
G01*
X25486000Y35582000D01*
G75*
G02*
X25297000Y35771000I0J189000D01*
G01*
G37*
G04 #@! TD*
G04 #@! TO.C,D5*
G36*
G01*
X2943750Y32674000D02*
X3456250Y32674000D01*
G75*
G02*
X3724000Y32406250I0J-267750D01*
G01*
X3724000Y31968750D01*
G75*
G02*
X3456250Y31701000I-267750J0D01*
G01*
X2943750Y31701000D01*
G75*
G02*
X2676000Y31968750I0J267750D01*
G01*
X2676000Y32406250D01*
G75*
G02*
X2943750Y32674000I267750J0D01*
G01*
G37*
G36*
G01*
X2943750Y31099000D02*
X3456250Y31099000D01*
G75*
G02*
X3724000Y30831250I0J-267750D01*
G01*
X3724000Y30393750D01*
G75*
G02*
X3456250Y30126000I-267750J0D01*
G01*
X2943750Y30126000D01*
G75*
G02*
X2676000Y30393750I0J267750D01*
G01*
X2676000Y30831250D01*
G75*
G02*
X2943750Y31099000I267750J0D01*
G01*
G37*
G04 #@! TD*
G04 #@! TO.C,R27*
G36*
G01*
X17932000Y16516000D02*
X17932000Y16886000D01*
G75*
G02*
X18116000Y17070000I184000J0D01*
G01*
X18386000Y17070000D01*
G75*
G02*
X18570000Y16886000I0J-184000D01*
G01*
X18570000Y16516000D01*
G75*
G02*
X18386000Y16332000I-184000J0D01*
G01*
X18116000Y16332000D01*
G75*
G02*
X17932000Y16516000I0J184000D01*
G01*
G37*
G36*
G01*
X18952000Y16516000D02*
X18952000Y16886000D01*
G75*
G02*
X19136000Y17070000I184000J0D01*
G01*
X19406000Y17070000D01*
G75*
G02*
X19590000Y16886000I0J-184000D01*
G01*
X19590000Y16516000D01*
G75*
G02*
X19406000Y16332000I-184000J0D01*
G01*
X19136000Y16332000D01*
G75*
G02*
X18952000Y16516000I0J184000D01*
G01*
G37*
G04 #@! TD*
G04 #@! TO.C,R42*
G36*
G01*
X19879000Y33078000D02*
X19879000Y32708000D01*
G75*
G02*
X19695000Y32524000I-184000J0D01*
G01*
X19425000Y32524000D01*
G75*
G02*
X19241000Y32708000I0J184000D01*
G01*
X19241000Y33078000D01*
G75*
G02*
X19425000Y33262000I184000J0D01*
G01*
X19695000Y33262000D01*
G75*
G02*
X19879000Y33078000I0J-184000D01*
G01*
G37*
G36*
G01*
X18859000Y33078000D02*
X18859000Y32708000D01*
G75*
G02*
X18675000Y32524000I-184000J0D01*
G01*
X18405000Y32524000D01*
G75*
G02*
X18221000Y32708000I0J184000D01*
G01*
X18221000Y33078000D01*
G75*
G02*
X18405000Y33262000I184000J0D01*
G01*
X18675000Y33262000D01*
G75*
G02*
X18859000Y33078000I0J-184000D01*
G01*
G37*
G04 #@! TD*
G04 #@! TO.C,D8*
G36*
G01*
X4706250Y32643000D02*
X5218750Y32643000D01*
G75*
G02*
X5486500Y32375250I0J-267750D01*
G01*
X5486500Y31937750D01*
G75*
G02*
X5218750Y31670000I-267750J0D01*
G01*
X4706250Y31670000D01*
G75*
G02*
X4438500Y31937750I0J267750D01*
G01*
X4438500Y32375250D01*
G75*
G02*
X4706250Y32643000I267750J0D01*
G01*
G37*
G36*
G01*
X4706250Y31068000D02*
X5218750Y31068000D01*
G75*
G02*
X5486500Y30800250I0J-267750D01*
G01*
X5486500Y30362750D01*
G75*
G02*
X5218750Y30095000I-267750J0D01*
G01*
X4706250Y30095000D01*
G75*
G02*
X4438500Y30362750I0J267750D01*
G01*
X4438500Y30800250D01*
G75*
G02*
X4706250Y31068000I267750J0D01*
G01*
G37*
G04 #@! TD*
G04 #@! TO.C,J1*
G36*
G01*
X4434000Y9755000D02*
X3694000Y9755000D01*
G75*
G02*
X3645000Y9804000I0J49000D01*
G01*
X3645000Y12204000D01*
G75*
G02*
X3694000Y12253000I49000J0D01*
G01*
X4434000Y12253000D01*
G75*
G02*
X4483000Y12204000I0J-49000D01*
G01*
X4483000Y9804000D01*
G75*
G02*
X4434000Y9755000I-49000J0D01*
G01*
G37*
G36*
G01*
X4434000Y13655000D02*
X3694000Y13655000D01*
G75*
G02*
X3645000Y13704000I0J49000D01*
G01*
X3645000Y16104000D01*
G75*
G02*
X3694000Y16153000I49000J0D01*
G01*
X4434000Y16153000D01*
G75*
G02*
X4483000Y16104000I0J-49000D01*
G01*
X4483000Y13704000D01*
G75*
G02*
X4434000Y13655000I-49000J0D01*
G01*
G37*
G36*
G01*
X5704000Y9755000D02*
X4964000Y9755000D01*
G75*
G02*
X4915000Y9804000I0J49000D01*
G01*
X4915000Y12204000D01*
G75*
G02*
X4964000Y12253000I49000J0D01*
G01*
X5704000Y12253000D01*
G75*
G02*
X5753000Y12204000I0J-49000D01*
G01*
X5753000Y9804000D01*
G75*
G02*
X5704000Y9755000I-49000J0D01*
G01*
G37*
G36*
G01*
X5704000Y13655000D02*
X4964000Y13655000D01*
G75*
G02*
X4915000Y13704000I0J49000D01*
G01*
X4915000Y16104000D01*
G75*
G02*
X4964000Y16153000I49000J0D01*
G01*
X5704000Y16153000D01*
G75*
G02*
X5753000Y16104000I0J-49000D01*
G01*
X5753000Y13704000D01*
G75*
G02*
X5704000Y13655000I-49000J0D01*
G01*
G37*
G36*
G01*
X6974000Y9755000D02*
X6234000Y9755000D01*
G75*
G02*
X6185000Y9804000I0J49000D01*
G01*
X6185000Y12204000D01*
G75*
G02*
X6234000Y12253000I49000J0D01*
G01*
X6974000Y12253000D01*
G75*
G02*
X7023000Y12204000I0J-49000D01*
G01*
X7023000Y9804000D01*
G75*
G02*
X6974000Y9755000I-49000J0D01*
G01*
G37*
G36*
G01*
X6974000Y13655000D02*
X6234000Y13655000D01*
G75*
G02*
X6185000Y13704000I0J49000D01*
G01*
X6185000Y16104000D01*
G75*
G02*
X6234000Y16153000I49000J0D01*
G01*
X6974000Y16153000D01*
G75*
G02*
X7023000Y16104000I0J-49000D01*
G01*
X7023000Y13704000D01*
G75*
G02*
X6974000Y13655000I-49000J0D01*
G01*
G37*
G36*
G01*
X8244000Y9755000D02*
X7504000Y9755000D01*
G75*
G02*
X7455000Y9804000I0J49000D01*
G01*
X7455000Y12204000D01*
G75*
G02*
X7504000Y12253000I49000J0D01*
G01*
X8244000Y12253000D01*
G75*
G02*
X8293000Y12204000I0J-49000D01*
G01*
X8293000Y9804000D01*
G75*
G02*
X8244000Y9755000I-49000J0D01*
G01*
G37*
G36*
G01*
X8244000Y13655000D02*
X7504000Y13655000D01*
G75*
G02*
X7455000Y13704000I0J49000D01*
G01*
X7455000Y16104000D01*
G75*
G02*
X7504000Y16153000I49000J0D01*
G01*
X8244000Y16153000D01*
G75*
G02*
X8293000Y16104000I0J-49000D01*
G01*
X8293000Y13704000D01*
G75*
G02*
X8244000Y13655000I-49000J0D01*
G01*
G37*
G36*
G01*
X9514000Y9755000D02*
X8774000Y9755000D01*
G75*
G02*
X8725000Y9804000I0J49000D01*
G01*
X8725000Y12204000D01*
G75*
G02*
X8774000Y12253000I49000J0D01*
G01*
X9514000Y12253000D01*
G75*
G02*
X9563000Y12204000I0J-49000D01*
G01*
X9563000Y9804000D01*
G75*
G02*
X9514000Y9755000I-49000J0D01*
G01*
G37*
G36*
G01*
X9514000Y13655000D02*
X8774000Y13655000D01*
G75*
G02*
X8725000Y13704000I0J49000D01*
G01*
X8725000Y16104000D01*
G75*
G02*
X8774000Y16153000I49000J0D01*
G01*
X9514000Y16153000D01*
G75*
G02*
X9563000Y16104000I0J-49000D01*
G01*
X9563000Y13704000D01*
G75*
G02*
X9514000Y13655000I-49000J0D01*
G01*
G37*
G36*
G01*
X10784000Y9755000D02*
X10044000Y9755000D01*
G75*
G02*
X9995000Y9804000I0J49000D01*
G01*
X9995000Y12204000D01*
G75*
G02*
X10044000Y12253000I49000J0D01*
G01*
X10784000Y12253000D01*
G75*
G02*
X10833000Y12204000I0J-49000D01*
G01*
X10833000Y9804000D01*
G75*
G02*
X10784000Y9755000I-49000J0D01*
G01*
G37*
G36*
G01*
X10784000Y13655000D02*
X10044000Y13655000D01*
G75*
G02*
X9995000Y13704000I0J49000D01*
G01*
X9995000Y16104000D01*
G75*
G02*
X10044000Y16153000I49000J0D01*
G01*
X10784000Y16153000D01*
G75*
G02*
X10833000Y16104000I0J-49000D01*
G01*
X10833000Y13704000D01*
G75*
G02*
X10784000Y13655000I-49000J0D01*
G01*
G37*
G36*
G01*
X12054000Y9755000D02*
X11314000Y9755000D01*
G75*
G02*
X11265000Y9804000I0J49000D01*
G01*
X11265000Y12204000D01*
G75*
G02*
X11314000Y12253000I49000J0D01*
G01*
X12054000Y12253000D01*
G75*
G02*
X12103000Y12204000I0J-49000D01*
G01*
X12103000Y9804000D01*
G75*
G02*
X12054000Y9755000I-49000J0D01*
G01*
G37*
G36*
G01*
X12054000Y13655000D02*
X11314000Y13655000D01*
G75*
G02*
X11265000Y13704000I0J49000D01*
G01*
X11265000Y16104000D01*
G75*
G02*
X11314000Y16153000I49000J0D01*
G01*
X12054000Y16153000D01*
G75*
G02*
X12103000Y16104000I0J-49000D01*
G01*
X12103000Y13704000D01*
G75*
G02*
X12054000Y13655000I-49000J0D01*
G01*
G37*
G04 #@! TD*
G04 #@! TO.C,C17*
G36*
G01*
X25824000Y24210000D02*
X25484000Y24210000D01*
G75*
G02*
X25295000Y24399000I0J189000D01*
G01*
X25295000Y24679000D01*
G75*
G02*
X25484000Y24868000I189000J0D01*
G01*
X25824000Y24868000D01*
G75*
G02*
X26013000Y24679000I0J-189000D01*
G01*
X26013000Y24399000D01*
G75*
G02*
X25824000Y24210000I-189000J0D01*
G01*
G37*
G36*
G01*
X25824000Y25170000D02*
X25484000Y25170000D01*
G75*
G02*
X25295000Y25359000I0J189000D01*
G01*
X25295000Y25639000D01*
G75*
G02*
X25484000Y25828000I189000J0D01*
G01*
X25824000Y25828000D01*
G75*
G02*
X26013000Y25639000I0J-189000D01*
G01*
X26013000Y25359000D01*
G75*
G02*
X25824000Y25170000I-189000J0D01*
G01*
G37*
G04 #@! TD*
G04 #@! TO.C,C33*
G36*
G01*
X51280000Y35309000D02*
X51620000Y35309000D01*
G75*
G02*
X51809000Y35120000I0J-189000D01*
G01*
X51809000Y34840000D01*
G75*
G02*
X51620000Y34651000I-189000J0D01*
G01*
X51280000Y34651000D01*
G75*
G02*
X51091000Y34840000I0J189000D01*
G01*
X51091000Y35120000D01*
G75*
G02*
X51280000Y35309000I189000J0D01*
G01*
G37*
G36*
G01*
X51280000Y34349000D02*
X51620000Y34349000D01*
G75*
G02*
X51809000Y34160000I0J-189000D01*
G01*
X51809000Y33880000D01*
G75*
G02*
X51620000Y33691000I-189000J0D01*
G01*
X51280000Y33691000D01*
G75*
G02*
X51091000Y33880000I0J189000D01*
G01*
X51091000Y34160000D01*
G75*
G02*
X51280000Y34349000I189000J0D01*
G01*
G37*
G04 #@! TD*
G04 #@! TO.C,F1*
G36*
G01*
X9274000Y51615000D02*
X9274000Y48715000D01*
G75*
G02*
X8975000Y48416000I-299000J0D01*
G01*
X8175000Y48416000D01*
G75*
G02*
X7876000Y48715000I0J299000D01*
G01*
X7876000Y51615000D01*
G75*
G02*
X8175000Y51914000I299000J0D01*
G01*
X8975000Y51914000D01*
G75*
G02*
X9274000Y51615000I0J-299000D01*
G01*
G37*
G36*
G01*
X4824000Y51615000D02*
X4824000Y48715000D01*
G75*
G02*
X4525000Y48416000I-299000J0D01*
G01*
X3725000Y48416000D01*
G75*
G02*
X3426000Y48715000I0J299000D01*
G01*
X3426000Y51615000D01*
G75*
G02*
X3725000Y51914000I299000J0D01*
G01*
X4525000Y51914000D01*
G75*
G02*
X4824000Y51615000I0J-299000D01*
G01*
G37*
G04 #@! TD*
G04 #@! TO.C,R51*
G36*
G01*
X21078000Y27792000D02*
X21078000Y28342000D01*
G75*
G02*
X21327000Y28591000I249000J0D01*
G01*
X21727000Y28591000D01*
G75*
G02*
X21976000Y28342000I0J-249000D01*
G01*
X21976000Y27792000D01*
G75*
G02*
X21727000Y27543000I-249000J0D01*
G01*
X21327000Y27543000D01*
G75*
G02*
X21078000Y27792000I0J249000D01*
G01*
G37*
G36*
G01*
X22728000Y27792000D02*
X22728000Y28342000D01*
G75*
G02*
X22977000Y28591000I249000J0D01*
G01*
X23377000Y28591000D01*
G75*
G02*
X23626000Y28342000I0J-249000D01*
G01*
X23626000Y27792000D01*
G75*
G02*
X23377000Y27543000I-249000J0D01*
G01*
X22977000Y27543000D01*
G75*
G02*
X22728000Y27792000I0J249000D01*
G01*
G37*
G04 #@! TD*
G04 #@! TO.C,R5*
G36*
G01*
X22140000Y44440000D02*
X22140000Y43190000D01*
G75*
G02*
X21841000Y42891000I-299000J0D01*
G01*
X21216000Y42891000D01*
G75*
G02*
X20917000Y43190000I0J299000D01*
G01*
X20917000Y44440000D01*
G75*
G02*
X21216000Y44739000I299000J0D01*
G01*
X21841000Y44739000D01*
G75*
G02*
X22140000Y44440000I0J-299000D01*
G01*
G37*
G36*
G01*
X19215000Y44440000D02*
X19215000Y43190000D01*
G75*
G02*
X18916000Y42891000I-299000J0D01*
G01*
X18291000Y42891000D01*
G75*
G02*
X17992000Y43190000I0J299000D01*
G01*
X17992000Y44440000D01*
G75*
G02*
X18291000Y44739000I299000J0D01*
G01*
X18916000Y44739000D01*
G75*
G02*
X19215000Y44440000I0J-299000D01*
G01*
G37*
G04 #@! TD*
G04 #@! TO.C,R37*
G36*
G01*
X54125000Y50524000D02*
X55375000Y50524000D01*
G75*
G02*
X55674000Y50225000I0J-299000D01*
G01*
X55674000Y49600000D01*
G75*
G02*
X55375000Y49301000I-299000J0D01*
G01*
X54125000Y49301000D01*
G75*
G02*
X53826000Y49600000I0J299000D01*
G01*
X53826000Y50225000D01*
G75*
G02*
X54125000Y50524000I299000J0D01*
G01*
G37*
G36*
G01*
X54125000Y47599000D02*
X55375000Y47599000D01*
G75*
G02*
X55674000Y47300000I0J-299000D01*
G01*
X55674000Y46675000D01*
G75*
G02*
X55375000Y46376000I-299000J0D01*
G01*
X54125000Y46376000D01*
G75*
G02*
X53826000Y46675000I0J299000D01*
G01*
X53826000Y47300000D01*
G75*
G02*
X54125000Y47599000I299000J0D01*
G01*
G37*
G04 #@! TD*
G04 #@! TO.C,C35*
G36*
G01*
X51009000Y36420000D02*
X51009000Y36080000D01*
G75*
G02*
X50820000Y35891000I-189000J0D01*
G01*
X50540000Y35891000D01*
G75*
G02*
X50351000Y36080000I0J189000D01*
G01*
X50351000Y36420000D01*
G75*
G02*
X50540000Y36609000I189000J0D01*
G01*
X50820000Y36609000D01*
G75*
G02*
X51009000Y36420000I0J-189000D01*
G01*
G37*
G36*
G01*
X50049000Y36420000D02*
X50049000Y36080000D01*
G75*
G02*
X49860000Y35891000I-189000J0D01*
G01*
X49580000Y35891000D01*
G75*
G02*
X49391000Y36080000I0J189000D01*
G01*
X49391000Y36420000D01*
G75*
G02*
X49580000Y36609000I189000J0D01*
G01*
X49860000Y36609000D01*
G75*
G02*
X50049000Y36420000I0J-189000D01*
G01*
G37*
G04 #@! TD*
G04 #@! TO.C,U6*
G36*
G01*
X13135000Y36995000D02*
X13135000Y37295000D01*
G75*
G02*
X13334000Y37494000I199000J0D01*
G01*
X14509000Y37494000D01*
G75*
G02*
X14708000Y37295000I0J-199000D01*
G01*
X14708000Y36995000D01*
G75*
G02*
X14509000Y36796000I-199000J0D01*
G01*
X13334000Y36796000D01*
G75*
G02*
X13135000Y36995000I0J199000D01*
G01*
G37*
G36*
G01*
X13135000Y35095000D02*
X13135000Y35395000D01*
G75*
G02*
X13334000Y35594000I199000J0D01*
G01*
X14509000Y35594000D01*
G75*
G02*
X14708000Y35395000I0J-199000D01*
G01*
X14708000Y35095000D01*
G75*
G02*
X14509000Y34896000I-199000J0D01*
G01*
X13334000Y34896000D01*
G75*
G02*
X13135000Y35095000I0J199000D01*
G01*
G37*
G36*
G01*
X15010000Y36045000D02*
X15010000Y36345000D01*
G75*
G02*
X15209000Y36544000I199000J0D01*
G01*
X16384000Y36544000D01*
G75*
G02*
X16583000Y36345000I0J-199000D01*
G01*
X16583000Y36045000D01*
G75*
G02*
X16384000Y35846000I-199000J0D01*
G01*
X15209000Y35846000D01*
G75*
G02*
X15010000Y36045000I0J199000D01*
G01*
G37*
G04 #@! TD*
G04 #@! TO.C,R21*
G36*
G01*
X25327562Y43705427D02*
X25327562Y43155427D01*
G75*
G02*
X25078562Y42906427I-249000J0D01*
G01*
X24678562Y42906427D01*
G75*
G02*
X24429562Y43155427I0J249000D01*
G01*
X24429562Y43705427D01*
G75*
G02*
X24678562Y43954427I249000J0D01*
G01*
X25078562Y43954427D01*
G75*
G02*
X25327562Y43705427I0J-249000D01*
G01*
G37*
G36*
G01*
X23677562Y43705427D02*
X23677562Y43155427D01*
G75*
G02*
X23428562Y42906427I-249000J0D01*
G01*
X23028562Y42906427D01*
G75*
G02*
X22779562Y43155427I0J249000D01*
G01*
X22779562Y43705427D01*
G75*
G02*
X23028562Y43954427I249000J0D01*
G01*
X23428562Y43954427D01*
G75*
G02*
X23677562Y43705427I0J-249000D01*
G01*
G37*
G04 #@! TD*
G04 #@! TO.C,R54*
G36*
G01*
X16951000Y21442000D02*
X16951000Y21992000D01*
G75*
G02*
X17200000Y22241000I249000J0D01*
G01*
X17600000Y22241000D01*
G75*
G02*
X17849000Y21992000I0J-249000D01*
G01*
X17849000Y21442000D01*
G75*
G02*
X17600000Y21193000I-249000J0D01*
G01*
X17200000Y21193000D01*
G75*
G02*
X16951000Y21442000I0J249000D01*
G01*
G37*
G36*
G01*
X18601000Y21442000D02*
X18601000Y21992000D01*
G75*
G02*
X18850000Y22241000I249000J0D01*
G01*
X19250000Y22241000D01*
G75*
G02*
X19499000Y21992000I0J-249000D01*
G01*
X19499000Y21442000D01*
G75*
G02*
X19250000Y21193000I-249000J0D01*
G01*
X18850000Y21193000D01*
G75*
G02*
X18601000Y21442000I0J249000D01*
G01*
G37*
G04 #@! TD*
G04 #@! TO.C,Q2*
G36*
G01*
X31695000Y50879000D02*
X31695000Y52079000D01*
G75*
G02*
X31744000Y52128000I49000J0D01*
G01*
X33944000Y52128000D01*
G75*
G02*
X33993000Y52079000I0J-49000D01*
G01*
X33993000Y50879000D01*
G75*
G02*
X33944000Y50830000I-49000J0D01*
G01*
X31744000Y50830000D01*
G75*
G02*
X31695000Y50879000I0J49000D01*
G01*
G37*
G36*
G01*
X35895000Y46299000D02*
X35895000Y52099000D01*
G75*
G02*
X35944000Y52148000I49000J0D01*
G01*
X42344000Y52148000D01*
G75*
G02*
X42393000Y52099000I0J-49000D01*
G01*
X42393000Y46299000D01*
G75*
G02*
X42344000Y46250000I-49000J0D01*
G01*
X35944000Y46250000D01*
G75*
G02*
X35895000Y46299000I0J49000D01*
G01*
G37*
G36*
G01*
X31695000Y46319000D02*
X31695000Y47519000D01*
G75*
G02*
X31744000Y47568000I49000J0D01*
G01*
X33944000Y47568000D01*
G75*
G02*
X33993000Y47519000I0J-49000D01*
G01*
X33993000Y46319000D01*
G75*
G02*
X33944000Y46270000I-49000J0D01*
G01*
X31744000Y46270000D01*
G75*
G02*
X31695000Y46319000I0J49000D01*
G01*
G37*
G04 #@! TD*
G04 #@! TO.C,R4*
G36*
G01*
X13712000Y33126000D02*
X13712000Y33676000D01*
G75*
G02*
X13961000Y33925000I249000J0D01*
G01*
X14361000Y33925000D01*
G75*
G02*
X14610000Y33676000I0J-249000D01*
G01*
X14610000Y33126000D01*
G75*
G02*
X14361000Y32877000I-249000J0D01*
G01*
X13961000Y32877000D01*
G75*
G02*
X13712000Y33126000I0J249000D01*
G01*
G37*
G36*
G01*
X15362000Y33126000D02*
X15362000Y33676000D01*
G75*
G02*
X15611000Y33925000I249000J0D01*
G01*
X16011000Y33925000D01*
G75*
G02*
X16260000Y33676000I0J-249000D01*
G01*
X16260000Y33126000D01*
G75*
G02*
X16011000Y32877000I-249000J0D01*
G01*
X15611000Y32877000D01*
G75*
G02*
X15362000Y33126000I0J249000D01*
G01*
G37*
G04 #@! TD*
G04 #@! TO.C,D7*
G36*
G01*
X51870000Y39304250D02*
X51870000Y39604250D01*
G75*
G02*
X52069000Y39803250I199000J0D01*
G01*
X53244000Y39803250D01*
G75*
G02*
X53443000Y39604250I0J-199000D01*
G01*
X53443000Y39304250D01*
G75*
G02*
X53244000Y39105250I-199000J0D01*
G01*
X52069000Y39105250D01*
G75*
G02*
X51870000Y39304250I0J199000D01*
G01*
G37*
G36*
G01*
X51870000Y37404250D02*
X51870000Y37704250D01*
G75*
G02*
X52069000Y37903250I199000J0D01*
G01*
X53244000Y37903250D01*
G75*
G02*
X53443000Y37704250I0J-199000D01*
G01*
X53443000Y37404250D01*
G75*
G02*
X53244000Y37205250I-199000J0D01*
G01*
X52069000Y37205250D01*
G75*
G02*
X51870000Y37404250I0J199000D01*
G01*
G37*
G36*
G01*
X53745000Y38354250D02*
X53745000Y38654250D01*
G75*
G02*
X53944000Y38853250I199000J0D01*
G01*
X55119000Y38853250D01*
G75*
G02*
X55318000Y38654250I0J-199000D01*
G01*
X55318000Y38354250D01*
G75*
G02*
X55119000Y38155250I-199000J0D01*
G01*
X53944000Y38155250D01*
G75*
G02*
X53745000Y38354250I0J199000D01*
G01*
G37*
G04 #@! TD*
G04 #@! TO.C,D10*
G36*
G01*
X52226000Y34836000D02*
X52226000Y35136000D01*
G75*
G02*
X52425000Y35335000I199000J0D01*
G01*
X53600000Y35335000D01*
G75*
G02*
X53799000Y35136000I0J-199000D01*
G01*
X53799000Y34836000D01*
G75*
G02*
X53600000Y34637000I-199000J0D01*
G01*
X52425000Y34637000D01*
G75*
G02*
X52226000Y34836000I0J199000D01*
G01*
G37*
G36*
G01*
X52226000Y32936000D02*
X52226000Y33236000D01*
G75*
G02*
X52425000Y33435000I199000J0D01*
G01*
X53600000Y33435000D01*
G75*
G02*
X53799000Y33236000I0J-199000D01*
G01*
X53799000Y32936000D01*
G75*
G02*
X53600000Y32737000I-199000J0D01*
G01*
X52425000Y32737000D01*
G75*
G02*
X52226000Y32936000I0J199000D01*
G01*
G37*
G36*
G01*
X54101000Y33886000D02*
X54101000Y34186000D01*
G75*
G02*
X54300000Y34385000I199000J0D01*
G01*
X55475000Y34385000D01*
G75*
G02*
X55674000Y34186000I0J-199000D01*
G01*
X55674000Y33886000D01*
G75*
G02*
X55475000Y33687000I-199000J0D01*
G01*
X54300000Y33687000D01*
G75*
G02*
X54101000Y33886000I0J199000D01*
G01*
G37*
G04 #@! TD*
G04 #@! TO.C,R50*
G36*
G01*
X40721000Y37035000D02*
X40721000Y37405000D01*
G75*
G02*
X40905000Y37589000I184000J0D01*
G01*
X41175000Y37589000D01*
G75*
G02*
X41359000Y37405000I0J-184000D01*
G01*
X41359000Y37035000D01*
G75*
G02*
X41175000Y36851000I-184000J0D01*
G01*
X40905000Y36851000D01*
G75*
G02*
X40721000Y37035000I0J184000D01*
G01*
G37*
G36*
G01*
X41741000Y37035000D02*
X41741000Y37405000D01*
G75*
G02*
X41925000Y37589000I184000J0D01*
G01*
X42195000Y37589000D01*
G75*
G02*
X42379000Y37405000I0J-184000D01*
G01*
X42379000Y37035000D01*
G75*
G02*
X42195000Y36851000I-184000J0D01*
G01*
X41925000Y36851000D01*
G75*
G02*
X41741000Y37035000I0J184000D01*
G01*
G37*
G04 #@! TD*
G04 #@! TO.C,R15*
G36*
G01*
X18221000Y29660000D02*
X18221000Y30030000D01*
G75*
G02*
X18405000Y30214000I184000J0D01*
G01*
X18675000Y30214000D01*
G75*
G02*
X18859000Y30030000I0J-184000D01*
G01*
X18859000Y29660000D01*
G75*
G02*
X18675000Y29476000I-184000J0D01*
G01*
X18405000Y29476000D01*
G75*
G02*
X18221000Y29660000I0J184000D01*
G01*
G37*
G36*
G01*
X19241000Y29660000D02*
X19241000Y30030000D01*
G75*
G02*
X19425000Y30214000I184000J0D01*
G01*
X19695000Y30214000D01*
G75*
G02*
X19879000Y30030000I0J-184000D01*
G01*
X19879000Y29660000D01*
G75*
G02*
X19695000Y29476000I-184000J0D01*
G01*
X19425000Y29476000D01*
G75*
G02*
X19241000Y29660000I0J184000D01*
G01*
G37*
G04 #@! TD*
G36*
X31196975Y23675698D02*
G01*
X31240118Y23641688D01*
X31300573Y23639314D01*
X31347914Y23670946D01*
X31349910Y23671077D01*
X31351021Y23669414D01*
X31350688Y23668172D01*
X31336324Y23646674D01*
X31327000Y23599801D01*
X31327000Y22200199D01*
X31336324Y22153326D01*
X31353926Y22126984D01*
X31354057Y22124988D01*
X31352394Y22123877D01*
X31351025Y22124302D01*
X31307882Y22158312D01*
X31247427Y22160686D01*
X31200086Y22129054D01*
X31198090Y22128923D01*
X31196979Y22130586D01*
X31197312Y22131828D01*
X31211676Y22153326D01*
X31221000Y22200199D01*
X31221000Y23599801D01*
X31211676Y23646674D01*
X31194074Y23673016D01*
X31193943Y23675012D01*
X31195606Y23676123D01*
X31196975Y23675698D01*
G37*
G36*
X36196975Y23675698D02*
G01*
X36240118Y23641688D01*
X36300573Y23639314D01*
X36347914Y23670946D01*
X36349910Y23671077D01*
X36351021Y23669414D01*
X36350688Y23668172D01*
X36336324Y23646674D01*
X36327000Y23599801D01*
X36327000Y22200199D01*
X36336324Y22153326D01*
X36353926Y22126984D01*
X36354057Y22124988D01*
X36352394Y22123877D01*
X36351025Y22124302D01*
X36307882Y22158312D01*
X36247427Y22160686D01*
X36200086Y22129054D01*
X36198090Y22128923D01*
X36196979Y22130586D01*
X36197312Y22131828D01*
X36211676Y22153326D01*
X36221000Y22200199D01*
X36221000Y23599801D01*
X36211676Y23646674D01*
X36194074Y23673016D01*
X36193943Y23675012D01*
X36195606Y23676123D01*
X36196975Y23675698D01*
G37*
G36*
X30696975Y23675698D02*
G01*
X30740118Y23641688D01*
X30800573Y23639314D01*
X30847914Y23670946D01*
X30849910Y23671077D01*
X30851021Y23669414D01*
X30850688Y23668172D01*
X30836324Y23646674D01*
X30827000Y23599801D01*
X30827000Y22200199D01*
X30836324Y22153326D01*
X30853926Y22126984D01*
X30854057Y22124988D01*
X30852394Y22123877D01*
X30851025Y22124302D01*
X30807882Y22158312D01*
X30747427Y22160686D01*
X30700086Y22129054D01*
X30698090Y22128923D01*
X30696979Y22130586D01*
X30697312Y22131828D01*
X30711676Y22153326D01*
X30721000Y22200199D01*
X30721000Y23599801D01*
X30711676Y23646674D01*
X30694074Y23673016D01*
X30693943Y23675012D01*
X30695606Y23676123D01*
X30696975Y23675698D01*
G37*
G36*
X30196975Y23675698D02*
G01*
X30240118Y23641688D01*
X30300573Y23639314D01*
X30347914Y23670946D01*
X30349910Y23671077D01*
X30351021Y23669414D01*
X30350688Y23668172D01*
X30336324Y23646674D01*
X30327000Y23599801D01*
X30327000Y22200199D01*
X30336324Y22153326D01*
X30353926Y22126984D01*
X30354057Y22124988D01*
X30352394Y22123877D01*
X30351025Y22124302D01*
X30307882Y22158312D01*
X30247427Y22160686D01*
X30200086Y22129054D01*
X30198090Y22128923D01*
X30196979Y22130586D01*
X30197312Y22131828D01*
X30211676Y22153326D01*
X30221000Y22200199D01*
X30221000Y23599801D01*
X30211676Y23646674D01*
X30194074Y23673016D01*
X30193943Y23675012D01*
X30195606Y23676123D01*
X30196975Y23675698D01*
G37*
G36*
X36696975Y23675698D02*
G01*
X36740118Y23641688D01*
X36800573Y23639314D01*
X36847914Y23670946D01*
X36849910Y23671077D01*
X36851021Y23669414D01*
X36850688Y23668172D01*
X36836324Y23646674D01*
X36827000Y23599801D01*
X36827000Y22200199D01*
X36836324Y22153326D01*
X36853926Y22126984D01*
X36854057Y22124988D01*
X36852394Y22123877D01*
X36851025Y22124302D01*
X36807882Y22158312D01*
X36747427Y22160686D01*
X36700086Y22129054D01*
X36698090Y22128923D01*
X36696979Y22130586D01*
X36697312Y22131828D01*
X36711676Y22153326D01*
X36721000Y22200199D01*
X36721000Y23599801D01*
X36711676Y23646674D01*
X36694074Y23673016D01*
X36693943Y23675012D01*
X36695606Y23676123D01*
X36696975Y23675698D01*
G37*
G36*
X34196975Y23675698D02*
G01*
X34240118Y23641688D01*
X34300573Y23639314D01*
X34347914Y23670946D01*
X34349910Y23671077D01*
X34351021Y23669414D01*
X34350688Y23668172D01*
X34336324Y23646674D01*
X34327000Y23599801D01*
X34327000Y22200199D01*
X34336324Y22153326D01*
X34353926Y22126984D01*
X34354057Y22124988D01*
X34352394Y22123877D01*
X34351025Y22124302D01*
X34307882Y22158312D01*
X34247427Y22160686D01*
X34200086Y22129054D01*
X34198090Y22128923D01*
X34196979Y22130586D01*
X34197312Y22131828D01*
X34211676Y22153326D01*
X34221000Y22200199D01*
X34221000Y23599801D01*
X34211676Y23646674D01*
X34194074Y23673016D01*
X34193943Y23675012D01*
X34195606Y23676123D01*
X34196975Y23675698D01*
G37*
G36*
X29696975Y23675698D02*
G01*
X29740118Y23641688D01*
X29800573Y23639314D01*
X29847914Y23670946D01*
X29849910Y23671077D01*
X29851021Y23669414D01*
X29850688Y23668172D01*
X29836324Y23646674D01*
X29827000Y23599801D01*
X29827000Y22200199D01*
X29836324Y22153326D01*
X29853926Y22126984D01*
X29854057Y22124988D01*
X29852394Y22123877D01*
X29851025Y22124302D01*
X29807882Y22158312D01*
X29747427Y22160686D01*
X29700086Y22129054D01*
X29698090Y22128923D01*
X29696979Y22130586D01*
X29697312Y22131828D01*
X29711676Y22153326D01*
X29721000Y22200199D01*
X29721000Y23599801D01*
X29711676Y23646674D01*
X29694074Y23673016D01*
X29693943Y23675012D01*
X29695606Y23676123D01*
X29696975Y23675698D01*
G37*
G36*
X31696975Y23675698D02*
G01*
X31740118Y23641688D01*
X31800573Y23639314D01*
X31847914Y23670946D01*
X31849910Y23671077D01*
X31851021Y23669414D01*
X31850688Y23668172D01*
X31836324Y23646674D01*
X31827000Y23599801D01*
X31827000Y22200199D01*
X31836324Y22153326D01*
X31853926Y22126984D01*
X31854057Y22124988D01*
X31852394Y22123877D01*
X31851025Y22124302D01*
X31807882Y22158312D01*
X31747427Y22160686D01*
X31700086Y22129054D01*
X31698090Y22128923D01*
X31696979Y22130586D01*
X31697312Y22131828D01*
X31711676Y22153326D01*
X31721000Y22200199D01*
X31721000Y23599801D01*
X31711676Y23646674D01*
X31694074Y23673016D01*
X31693943Y23675012D01*
X31695606Y23676123D01*
X31696975Y23675698D01*
G37*
G36*
X32196975Y23675698D02*
G01*
X32240118Y23641688D01*
X32300573Y23639314D01*
X32347914Y23670946D01*
X32349910Y23671077D01*
X32351021Y23669414D01*
X32350688Y23668172D01*
X32336324Y23646674D01*
X32327000Y23599801D01*
X32327000Y22200199D01*
X32336324Y22153326D01*
X32353926Y22126984D01*
X32354057Y22124988D01*
X32352394Y22123877D01*
X32351025Y22124302D01*
X32307882Y22158312D01*
X32247427Y22160686D01*
X32200086Y22129054D01*
X32198090Y22128923D01*
X32196979Y22130586D01*
X32197312Y22131828D01*
X32211676Y22153326D01*
X32221000Y22200199D01*
X32221000Y23599801D01*
X32211676Y23646674D01*
X32194074Y23673016D01*
X32193943Y23675012D01*
X32195606Y23676123D01*
X32196975Y23675698D01*
G37*
G36*
X32696975Y23675698D02*
G01*
X32740118Y23641688D01*
X32800573Y23639314D01*
X32847914Y23670946D01*
X32849910Y23671077D01*
X32851021Y23669414D01*
X32850688Y23668172D01*
X32836324Y23646674D01*
X32827000Y23599801D01*
X32827000Y22200199D01*
X32836324Y22153326D01*
X32853926Y22126984D01*
X32854057Y22124988D01*
X32852394Y22123877D01*
X32851025Y22124302D01*
X32807882Y22158312D01*
X32747427Y22160686D01*
X32700086Y22129054D01*
X32698090Y22128923D01*
X32696979Y22130586D01*
X32697312Y22131828D01*
X32711676Y22153326D01*
X32721000Y22200199D01*
X32721000Y23599801D01*
X32711676Y23646674D01*
X32694074Y23673016D01*
X32693943Y23675012D01*
X32695606Y23676123D01*
X32696975Y23675698D01*
G37*
G36*
X33196975Y23675698D02*
G01*
X33240118Y23641688D01*
X33300573Y23639314D01*
X33347914Y23670946D01*
X33349910Y23671077D01*
X33351021Y23669414D01*
X33350688Y23668172D01*
X33336324Y23646674D01*
X33327000Y23599801D01*
X33327000Y22200199D01*
X33336324Y22153326D01*
X33353926Y22126984D01*
X33354057Y22124988D01*
X33352394Y22123877D01*
X33351025Y22124302D01*
X33307882Y22158312D01*
X33247427Y22160686D01*
X33200086Y22129054D01*
X33198090Y22128923D01*
X33196979Y22130586D01*
X33197312Y22131828D01*
X33211676Y22153326D01*
X33221000Y22200199D01*
X33221000Y23599801D01*
X33211676Y23646674D01*
X33194074Y23673016D01*
X33193943Y23675012D01*
X33195606Y23676123D01*
X33196975Y23675698D01*
G37*
G36*
X33696975Y23675698D02*
G01*
X33740118Y23641688D01*
X33800573Y23639314D01*
X33847914Y23670946D01*
X33849910Y23671077D01*
X33851021Y23669414D01*
X33850688Y23668172D01*
X33836324Y23646674D01*
X33827000Y23599801D01*
X33827000Y22200199D01*
X33836324Y22153326D01*
X33853926Y22126984D01*
X33854057Y22124988D01*
X33852394Y22123877D01*
X33851025Y22124302D01*
X33807882Y22158312D01*
X33747427Y22160686D01*
X33700086Y22129054D01*
X33698090Y22128923D01*
X33696979Y22130586D01*
X33697312Y22131828D01*
X33711676Y22153326D01*
X33721000Y22200199D01*
X33721000Y23599801D01*
X33711676Y23646674D01*
X33694074Y23673016D01*
X33693943Y23675012D01*
X33695606Y23676123D01*
X33696975Y23675698D01*
G37*
G36*
X34696975Y23675698D02*
G01*
X34740118Y23641688D01*
X34800573Y23639314D01*
X34847914Y23670946D01*
X34849910Y23671077D01*
X34851021Y23669414D01*
X34850688Y23668172D01*
X34836324Y23646674D01*
X34827000Y23599801D01*
X34827000Y22200199D01*
X34836324Y22153326D01*
X34853926Y22126984D01*
X34854057Y22124988D01*
X34852394Y22123877D01*
X34851025Y22124302D01*
X34807882Y22158312D01*
X34747427Y22160686D01*
X34700086Y22129054D01*
X34698090Y22128923D01*
X34696979Y22130586D01*
X34697312Y22131828D01*
X34711676Y22153326D01*
X34721000Y22200199D01*
X34721000Y23599801D01*
X34711676Y23646674D01*
X34694074Y23673016D01*
X34693943Y23675012D01*
X34695606Y23676123D01*
X34696975Y23675698D01*
G37*
G36*
X35196975Y23675698D02*
G01*
X35240118Y23641688D01*
X35300573Y23639314D01*
X35347914Y23670946D01*
X35349910Y23671077D01*
X35351021Y23669414D01*
X35350688Y23668172D01*
X35336324Y23646674D01*
X35327000Y23599801D01*
X35327000Y22200199D01*
X35336324Y22153326D01*
X35353926Y22126984D01*
X35354057Y22124988D01*
X35352394Y22123877D01*
X35351025Y22124302D01*
X35307882Y22158312D01*
X35247427Y22160686D01*
X35200086Y22129054D01*
X35198090Y22128923D01*
X35196979Y22130586D01*
X35197312Y22131828D01*
X35211676Y22153326D01*
X35221000Y22200199D01*
X35221000Y23599801D01*
X35211676Y23646674D01*
X35194074Y23673016D01*
X35193943Y23675012D01*
X35195606Y23676123D01*
X35196975Y23675698D01*
G37*
G36*
X35696975Y23675698D02*
G01*
X35740118Y23641688D01*
X35800573Y23639314D01*
X35847914Y23670946D01*
X35849910Y23671077D01*
X35851021Y23669414D01*
X35850688Y23668172D01*
X35836324Y23646674D01*
X35827000Y23599801D01*
X35827000Y22200199D01*
X35836324Y22153326D01*
X35853926Y22126984D01*
X35854057Y22124988D01*
X35852394Y22123877D01*
X35851025Y22124302D01*
X35807882Y22158312D01*
X35747427Y22160686D01*
X35700086Y22129054D01*
X35698090Y22128923D01*
X35696979Y22130586D01*
X35697312Y22131828D01*
X35711676Y22153326D01*
X35721000Y22200199D01*
X35721000Y23599801D01*
X35711676Y23646674D01*
X35694074Y23673016D01*
X35693943Y23675012D01*
X35695606Y23676123D01*
X35696975Y23675698D01*
G37*
G36*
X14145753Y24200090D02*
G01*
X14190118Y24165116D01*
X14250573Y24162742D01*
X14301122Y24196518D01*
X14301276Y24196730D01*
X14303102Y24197545D01*
X14304721Y24196371D01*
X14304857Y24195166D01*
X14302000Y24180801D01*
X14302000Y23081199D01*
X14305447Y23063871D01*
X14304804Y23061977D01*
X14302842Y23061587D01*
X14302247Y23061910D01*
X14257882Y23096884D01*
X14197427Y23099258D01*
X14146878Y23065482D01*
X14146724Y23065270D01*
X14144898Y23064455D01*
X14143279Y23065629D01*
X14143143Y23066834D01*
X14146000Y23081199D01*
X14146000Y24180801D01*
X14142553Y24198129D01*
X14143196Y24200023D01*
X14145158Y24200413D01*
X14145753Y24200090D01*
G37*
G36*
X14795753Y24200090D02*
G01*
X14840118Y24165116D01*
X14900573Y24162742D01*
X14951122Y24196518D01*
X14951276Y24196730D01*
X14953102Y24197545D01*
X14954721Y24196371D01*
X14954857Y24195166D01*
X14952000Y24180801D01*
X14952000Y23081199D01*
X14955447Y23063871D01*
X14954804Y23061977D01*
X14952842Y23061587D01*
X14952247Y23061910D01*
X14907882Y23096884D01*
X14847427Y23099258D01*
X14796878Y23065482D01*
X14796724Y23065270D01*
X14794898Y23064455D01*
X14793279Y23065629D01*
X14793143Y23066834D01*
X14796000Y23081199D01*
X14796000Y24180801D01*
X14792553Y24198129D01*
X14793196Y24200023D01*
X14795158Y24200413D01*
X14795753Y24200090D01*
G37*
G36*
X13495753Y24200090D02*
G01*
X13540118Y24165116D01*
X13600573Y24162742D01*
X13651122Y24196518D01*
X13651276Y24196730D01*
X13653102Y24197545D01*
X13654721Y24196371D01*
X13654857Y24195166D01*
X13652000Y24180801D01*
X13652000Y23081199D01*
X13655447Y23063871D01*
X13654804Y23061977D01*
X13652842Y23061587D01*
X13652247Y23061910D01*
X13607882Y23096884D01*
X13547427Y23099258D01*
X13496878Y23065482D01*
X13496724Y23065270D01*
X13494898Y23064455D01*
X13493279Y23065629D01*
X13493143Y23066834D01*
X13496000Y23081199D01*
X13496000Y24180801D01*
X13492553Y24198129D01*
X13493196Y24200023D01*
X13495158Y24200413D01*
X13495753Y24200090D01*
G37*
G36*
X28375123Y25153394D02*
G01*
X28374698Y25152025D01*
X28340688Y25108882D01*
X28338314Y25048427D01*
X28369946Y25001086D01*
X28370077Y24999090D01*
X28368414Y24997979D01*
X28367172Y24998312D01*
X28345674Y25012676D01*
X28298801Y25022000D01*
X26899199Y25022000D01*
X26852326Y25012676D01*
X26825984Y24995074D01*
X26823988Y24994943D01*
X26822877Y24996606D01*
X26823302Y24997975D01*
X26857312Y25041118D01*
X26859686Y25101573D01*
X26828054Y25148914D01*
X26827923Y25150910D01*
X26829586Y25152021D01*
X26830828Y25151688D01*
X26852326Y25137324D01*
X26899199Y25128000D01*
X28298801Y25128000D01*
X28345674Y25137324D01*
X28372016Y25154926D01*
X28374012Y25155057D01*
X28375123Y25153394D01*
G37*
G36*
X39725123Y25153394D02*
G01*
X39724698Y25152025D01*
X39690688Y25108882D01*
X39688314Y25048427D01*
X39719946Y25001086D01*
X39720077Y24999090D01*
X39718414Y24997979D01*
X39717172Y24998312D01*
X39695674Y25012676D01*
X39648801Y25022000D01*
X38249199Y25022000D01*
X38202326Y25012676D01*
X38175984Y24995074D01*
X38173988Y24994943D01*
X38172877Y24996606D01*
X38173302Y24997975D01*
X38207312Y25041118D01*
X38209686Y25101573D01*
X38178054Y25148914D01*
X38177923Y25150910D01*
X38179586Y25152021D01*
X38180828Y25151688D01*
X38202326Y25137324D01*
X38249199Y25128000D01*
X39648801Y25128000D01*
X39695674Y25137324D01*
X39722016Y25154926D01*
X39724012Y25155057D01*
X39725123Y25153394D01*
G37*
G36*
X28375123Y25653394D02*
G01*
X28374698Y25652025D01*
X28340688Y25608882D01*
X28338314Y25548427D01*
X28369946Y25501086D01*
X28370077Y25499090D01*
X28368414Y25497979D01*
X28367172Y25498312D01*
X28345674Y25512676D01*
X28298801Y25522000D01*
X26899199Y25522000D01*
X26852326Y25512676D01*
X26825984Y25495074D01*
X26823988Y25494943D01*
X26822877Y25496606D01*
X26823302Y25497975D01*
X26857312Y25541118D01*
X26859686Y25601573D01*
X26828054Y25648914D01*
X26827923Y25650910D01*
X26829586Y25652021D01*
X26830828Y25651688D01*
X26852326Y25637324D01*
X26899199Y25628000D01*
X28298801Y25628000D01*
X28345674Y25637324D01*
X28372016Y25654926D01*
X28374012Y25655057D01*
X28375123Y25653394D01*
G37*
G36*
X39725123Y25653394D02*
G01*
X39724698Y25652025D01*
X39690688Y25608882D01*
X39688314Y25548427D01*
X39719946Y25501086D01*
X39720077Y25499090D01*
X39718414Y25497979D01*
X39717172Y25498312D01*
X39695674Y25512676D01*
X39648801Y25522000D01*
X38249199Y25522000D01*
X38202326Y25512676D01*
X38175984Y25495074D01*
X38173988Y25494943D01*
X38172877Y25496606D01*
X38173302Y25497975D01*
X38207312Y25541118D01*
X38209686Y25601573D01*
X38178054Y25648914D01*
X38177923Y25650910D01*
X38179586Y25652021D01*
X38180828Y25651688D01*
X38202326Y25637324D01*
X38249199Y25628000D01*
X39648801Y25628000D01*
X39695674Y25637324D01*
X39722016Y25654926D01*
X39724012Y25655057D01*
X39725123Y25653394D01*
G37*
G36*
X39725123Y26153394D02*
G01*
X39724698Y26152025D01*
X39690688Y26108882D01*
X39688314Y26048427D01*
X39719946Y26001086D01*
X39720077Y25999090D01*
X39718414Y25997979D01*
X39717172Y25998312D01*
X39695674Y26012676D01*
X39648801Y26022000D01*
X38249199Y26022000D01*
X38202326Y26012676D01*
X38175984Y25995074D01*
X38173988Y25994943D01*
X38172877Y25996606D01*
X38173302Y25997975D01*
X38207312Y26041118D01*
X38209686Y26101573D01*
X38178054Y26148914D01*
X38177923Y26150910D01*
X38179586Y26152021D01*
X38180828Y26151688D01*
X38202326Y26137324D01*
X38249199Y26128000D01*
X39648801Y26128000D01*
X39695674Y26137324D01*
X39722016Y26154926D01*
X39724012Y26155057D01*
X39725123Y26153394D01*
G37*
G36*
X28375123Y26153394D02*
G01*
X28374698Y26152025D01*
X28340688Y26108882D01*
X28338314Y26048427D01*
X28369946Y26001086D01*
X28370077Y25999090D01*
X28368414Y25997979D01*
X28367172Y25998312D01*
X28345674Y26012676D01*
X28298801Y26022000D01*
X26899199Y26022000D01*
X26852326Y26012676D01*
X26825984Y25995074D01*
X26823988Y25994943D01*
X26822877Y25996606D01*
X26823302Y25997975D01*
X26857312Y26041118D01*
X26859686Y26101573D01*
X26828054Y26148914D01*
X26827923Y26150910D01*
X26829586Y26152021D01*
X26830828Y26151688D01*
X26852326Y26137324D01*
X26899199Y26128000D01*
X28298801Y26128000D01*
X28345674Y26137324D01*
X28372016Y26154926D01*
X28374012Y26155057D01*
X28375123Y26153394D01*
G37*
G36*
X28375123Y26653394D02*
G01*
X28374698Y26652025D01*
X28340688Y26608882D01*
X28338314Y26548427D01*
X28369946Y26501086D01*
X28370077Y26499090D01*
X28368414Y26497979D01*
X28367172Y26498312D01*
X28345674Y26512676D01*
X28298801Y26522000D01*
X26899199Y26522000D01*
X26852326Y26512676D01*
X26825984Y26495074D01*
X26823988Y26494943D01*
X26822877Y26496606D01*
X26823302Y26497975D01*
X26857312Y26541118D01*
X26859686Y26601573D01*
X26828054Y26648914D01*
X26827923Y26650910D01*
X26829586Y26652021D01*
X26830828Y26651688D01*
X26852326Y26637324D01*
X26899199Y26628000D01*
X28298801Y26628000D01*
X28345674Y26637324D01*
X28372016Y26654926D01*
X28374012Y26655057D01*
X28375123Y26653394D01*
G37*
G36*
X39725123Y26653394D02*
G01*
X39724698Y26652025D01*
X39690688Y26608882D01*
X39688314Y26548427D01*
X39719946Y26501086D01*
X39720077Y26499090D01*
X39718414Y26497979D01*
X39717172Y26498312D01*
X39695674Y26512676D01*
X39648801Y26522000D01*
X38249199Y26522000D01*
X38202326Y26512676D01*
X38175984Y26495074D01*
X38173988Y26494943D01*
X38172877Y26496606D01*
X38173302Y26497975D01*
X38207312Y26541118D01*
X38209686Y26601573D01*
X38178054Y26648914D01*
X38177923Y26650910D01*
X38179586Y26652021D01*
X38180828Y26651688D01*
X38202326Y26637324D01*
X38249199Y26628000D01*
X39648801Y26628000D01*
X39695674Y26637324D01*
X39722016Y26654926D01*
X39724012Y26655057D01*
X39725123Y26653394D01*
G37*
G36*
X39725123Y27153394D02*
G01*
X39724698Y27152025D01*
X39690688Y27108882D01*
X39688314Y27048427D01*
X39719946Y27001086D01*
X39720077Y26999090D01*
X39718414Y26997979D01*
X39717172Y26998312D01*
X39695674Y27012676D01*
X39648801Y27022000D01*
X38249199Y27022000D01*
X38202326Y27012676D01*
X38175984Y26995074D01*
X38173988Y26994943D01*
X38172877Y26996606D01*
X38173302Y26997975D01*
X38207312Y27041118D01*
X38209686Y27101573D01*
X38178054Y27148914D01*
X38177923Y27150910D01*
X38179586Y27152021D01*
X38180828Y27151688D01*
X38202326Y27137324D01*
X38249199Y27128000D01*
X39648801Y27128000D01*
X39695674Y27137324D01*
X39722016Y27154926D01*
X39724012Y27155057D01*
X39725123Y27153394D01*
G37*
G36*
X28375123Y27153394D02*
G01*
X28374698Y27152025D01*
X28340688Y27108882D01*
X28338314Y27048427D01*
X28369946Y27001086D01*
X28370077Y26999090D01*
X28368414Y26997979D01*
X28367172Y26998312D01*
X28345674Y27012676D01*
X28298801Y27022000D01*
X26899199Y27022000D01*
X26852326Y27012676D01*
X26825984Y26995074D01*
X26823988Y26994943D01*
X26822877Y26996606D01*
X26823302Y26997975D01*
X26857312Y27041118D01*
X26859686Y27101573D01*
X26828054Y27148914D01*
X26827923Y27150910D01*
X26829586Y27152021D01*
X26830828Y27151688D01*
X26852326Y27137324D01*
X26899199Y27128000D01*
X28298801Y27128000D01*
X28345674Y27137324D01*
X28372016Y27154926D01*
X28374012Y27155057D01*
X28375123Y27153394D01*
G37*
G36*
X13495753Y28500090D02*
G01*
X13540118Y28465116D01*
X13600573Y28462742D01*
X13651122Y28496518D01*
X13651276Y28496730D01*
X13653102Y28497545D01*
X13654721Y28496371D01*
X13654857Y28495166D01*
X13652000Y28480801D01*
X13652000Y27381199D01*
X13655447Y27363871D01*
X13654804Y27361977D01*
X13652842Y27361587D01*
X13652247Y27361910D01*
X13607882Y27396884D01*
X13547427Y27399258D01*
X13496878Y27365482D01*
X13496724Y27365270D01*
X13494898Y27364455D01*
X13493279Y27365629D01*
X13493143Y27366834D01*
X13496000Y27381199D01*
X13496000Y28480801D01*
X13492553Y28498129D01*
X13493196Y28500023D01*
X13495158Y28500413D01*
X13495753Y28500090D01*
G37*
G36*
X14795753Y28500090D02*
G01*
X14840118Y28465116D01*
X14900573Y28462742D01*
X14951122Y28496518D01*
X14951276Y28496730D01*
X14953102Y28497545D01*
X14954721Y28496371D01*
X14954857Y28495166D01*
X14952000Y28480801D01*
X14952000Y27381199D01*
X14955447Y27363871D01*
X14954804Y27361977D01*
X14952842Y27361587D01*
X14952247Y27361910D01*
X14907882Y27396884D01*
X14847427Y27399258D01*
X14796878Y27365482D01*
X14796724Y27365270D01*
X14794898Y27364455D01*
X14793279Y27365629D01*
X14793143Y27366834D01*
X14796000Y27381199D01*
X14796000Y28480801D01*
X14792553Y28498129D01*
X14793196Y28500023D01*
X14795158Y28500413D01*
X14795753Y28500090D01*
G37*
G36*
X14145753Y28500090D02*
G01*
X14190118Y28465116D01*
X14250573Y28462742D01*
X14301122Y28496518D01*
X14301276Y28496730D01*
X14303102Y28497545D01*
X14304721Y28496371D01*
X14304857Y28495166D01*
X14302000Y28480801D01*
X14302000Y27381199D01*
X14305447Y27363871D01*
X14304804Y27361977D01*
X14302842Y27361587D01*
X14302247Y27361910D01*
X14257882Y27396884D01*
X14197427Y27399258D01*
X14146878Y27365482D01*
X14146724Y27365270D01*
X14144898Y27364455D01*
X14143279Y27365629D01*
X14143143Y27366834D01*
X14146000Y27381199D01*
X14146000Y28480801D01*
X14142553Y28498129D01*
X14143196Y28500023D01*
X14145158Y28500413D01*
X14145753Y28500090D01*
G37*
G36*
X39725123Y27653394D02*
G01*
X39724698Y27652025D01*
X39690688Y27608882D01*
X39688314Y27548427D01*
X39719946Y27501086D01*
X39720077Y27499090D01*
X39718414Y27497979D01*
X39717172Y27498312D01*
X39695674Y27512676D01*
X39648801Y27522000D01*
X38249199Y27522000D01*
X38202326Y27512676D01*
X38175984Y27495074D01*
X38173988Y27494943D01*
X38172877Y27496606D01*
X38173302Y27497975D01*
X38207312Y27541118D01*
X38209686Y27601573D01*
X38178054Y27648914D01*
X38177923Y27650910D01*
X38179586Y27652021D01*
X38180828Y27651688D01*
X38202326Y27637324D01*
X38249199Y27628000D01*
X39648801Y27628000D01*
X39695674Y27637324D01*
X39722016Y27654926D01*
X39724012Y27655057D01*
X39725123Y27653394D01*
G37*
G36*
X28375123Y27653394D02*
G01*
X28374698Y27652025D01*
X28340688Y27608882D01*
X28338314Y27548427D01*
X28369946Y27501086D01*
X28370077Y27499090D01*
X28368414Y27497979D01*
X28367172Y27498312D01*
X28345674Y27512676D01*
X28298801Y27522000D01*
X26899199Y27522000D01*
X26852326Y27512676D01*
X26825984Y27495074D01*
X26823988Y27494943D01*
X26822877Y27496606D01*
X26823302Y27497975D01*
X26857312Y27541118D01*
X26859686Y27601573D01*
X26828054Y27648914D01*
X26827923Y27650910D01*
X26829586Y27652021D01*
X26830828Y27651688D01*
X26852326Y27637324D01*
X26899199Y27628000D01*
X28298801Y27628000D01*
X28345674Y27637324D01*
X28372016Y27654926D01*
X28374012Y27655057D01*
X28375123Y27653394D01*
G37*
G36*
X39725123Y28153394D02*
G01*
X39724698Y28152025D01*
X39690688Y28108882D01*
X39688314Y28048427D01*
X39719946Y28001086D01*
X39720077Y27999090D01*
X39718414Y27997979D01*
X39717172Y27998312D01*
X39695674Y28012676D01*
X39648801Y28022000D01*
X38249199Y28022000D01*
X38202326Y28012676D01*
X38175984Y27995074D01*
X38173988Y27994943D01*
X38172877Y27996606D01*
X38173302Y27997975D01*
X38207312Y28041118D01*
X38209686Y28101573D01*
X38178054Y28148914D01*
X38177923Y28150910D01*
X38179586Y28152021D01*
X38180828Y28151688D01*
X38202326Y28137324D01*
X38249199Y28128000D01*
X39648801Y28128000D01*
X39695674Y28137324D01*
X39722016Y28154926D01*
X39724012Y28155057D01*
X39725123Y28153394D01*
G37*
G36*
X28375123Y28153394D02*
G01*
X28374698Y28152025D01*
X28340688Y28108882D01*
X28338314Y28048427D01*
X28369946Y28001086D01*
X28370077Y27999090D01*
X28368414Y27997979D01*
X28367172Y27998312D01*
X28345674Y28012676D01*
X28298801Y28022000D01*
X26899199Y28022000D01*
X26852326Y28012676D01*
X26825984Y27995074D01*
X26823988Y27994943D01*
X26822877Y27996606D01*
X26823302Y27997975D01*
X26857312Y28041118D01*
X26859686Y28101573D01*
X26828054Y28148914D01*
X26827923Y28150910D01*
X26829586Y28152021D01*
X26830828Y28151688D01*
X26852326Y28137324D01*
X26899199Y28128000D01*
X28298801Y28128000D01*
X28345674Y28137324D01*
X28372016Y28154926D01*
X28374012Y28155057D01*
X28375123Y28153394D01*
G37*
G36*
X28375123Y28653394D02*
G01*
X28374698Y28652025D01*
X28340688Y28608882D01*
X28338314Y28548427D01*
X28369946Y28501086D01*
X28370077Y28499090D01*
X28368414Y28497979D01*
X28367172Y28498312D01*
X28345674Y28512676D01*
X28298801Y28522000D01*
X26899199Y28522000D01*
X26852326Y28512676D01*
X26825984Y28495074D01*
X26823988Y28494943D01*
X26822877Y28496606D01*
X26823302Y28497975D01*
X26857312Y28541118D01*
X26859686Y28601573D01*
X26828054Y28648914D01*
X26827923Y28650910D01*
X26829586Y28652021D01*
X26830828Y28651688D01*
X26852326Y28637324D01*
X26899199Y28628000D01*
X28298801Y28628000D01*
X28345674Y28637324D01*
X28372016Y28654926D01*
X28374012Y28655057D01*
X28375123Y28653394D01*
G37*
G36*
X39725123Y28653394D02*
G01*
X39724698Y28652025D01*
X39690688Y28608882D01*
X39688314Y28548427D01*
X39719946Y28501086D01*
X39720077Y28499090D01*
X39718414Y28497979D01*
X39717172Y28498312D01*
X39695674Y28512676D01*
X39648801Y28522000D01*
X38249199Y28522000D01*
X38202326Y28512676D01*
X38175984Y28495074D01*
X38173988Y28494943D01*
X38172877Y28496606D01*
X38173302Y28497975D01*
X38207312Y28541118D01*
X38209686Y28601573D01*
X38178054Y28648914D01*
X38177923Y28650910D01*
X38179586Y28652021D01*
X38180828Y28651688D01*
X38202326Y28637324D01*
X38249199Y28628000D01*
X39648801Y28628000D01*
X39695674Y28637324D01*
X39722016Y28654926D01*
X39724012Y28655057D01*
X39725123Y28653394D01*
G37*
G36*
X28375123Y29153394D02*
G01*
X28374698Y29152025D01*
X28340688Y29108882D01*
X28338314Y29048427D01*
X28369946Y29001086D01*
X28370077Y28999090D01*
X28368414Y28997979D01*
X28367172Y28998312D01*
X28345674Y29012676D01*
X28298801Y29022000D01*
X26899199Y29022000D01*
X26852326Y29012676D01*
X26825984Y28995074D01*
X26823988Y28994943D01*
X26822877Y28996606D01*
X26823302Y28997975D01*
X26857312Y29041118D01*
X26859686Y29101573D01*
X26828054Y29148914D01*
X26827923Y29150910D01*
X26829586Y29152021D01*
X26830828Y29151688D01*
X26852326Y29137324D01*
X26899199Y29128000D01*
X28298801Y29128000D01*
X28345674Y29137324D01*
X28372016Y29154926D01*
X28374012Y29155057D01*
X28375123Y29153394D01*
G37*
G36*
X39725123Y29153394D02*
G01*
X39724698Y29152025D01*
X39690688Y29108882D01*
X39688314Y29048427D01*
X39719946Y29001086D01*
X39720077Y28999090D01*
X39718414Y28997979D01*
X39717172Y28998312D01*
X39695674Y29012676D01*
X39648801Y29022000D01*
X38249199Y29022000D01*
X38202326Y29012676D01*
X38175984Y28995074D01*
X38173988Y28994943D01*
X38172877Y28996606D01*
X38173302Y28997975D01*
X38207312Y29041118D01*
X38209686Y29101573D01*
X38178054Y29148914D01*
X38177923Y29150910D01*
X38179586Y29152021D01*
X38180828Y29151688D01*
X38202326Y29137324D01*
X38249199Y29128000D01*
X39648801Y29128000D01*
X39695674Y29137324D01*
X39722016Y29154926D01*
X39724012Y29155057D01*
X39725123Y29153394D01*
G37*
G36*
X28375123Y29653394D02*
G01*
X28374698Y29652025D01*
X28340688Y29608882D01*
X28338314Y29548427D01*
X28369946Y29501086D01*
X28370077Y29499090D01*
X28368414Y29497979D01*
X28367172Y29498312D01*
X28345674Y29512676D01*
X28298801Y29522000D01*
X26899199Y29522000D01*
X26852326Y29512676D01*
X26825984Y29495074D01*
X26823988Y29494943D01*
X26822877Y29496606D01*
X26823302Y29497975D01*
X26857312Y29541118D01*
X26859686Y29601573D01*
X26828054Y29648914D01*
X26827923Y29650910D01*
X26829586Y29652021D01*
X26830828Y29651688D01*
X26852326Y29637324D01*
X26899199Y29628000D01*
X28298801Y29628000D01*
X28345674Y29637324D01*
X28372016Y29654926D01*
X28374012Y29655057D01*
X28375123Y29653394D01*
G37*
G36*
X39725123Y29653394D02*
G01*
X39724698Y29652025D01*
X39690688Y29608882D01*
X39688314Y29548427D01*
X39719946Y29501086D01*
X39720077Y29499090D01*
X39718414Y29497979D01*
X39717172Y29498312D01*
X39695674Y29512676D01*
X39648801Y29522000D01*
X38249199Y29522000D01*
X38202326Y29512676D01*
X38175984Y29495074D01*
X38173988Y29494943D01*
X38172877Y29496606D01*
X38173302Y29497975D01*
X38207312Y29541118D01*
X38209686Y29601573D01*
X38178054Y29648914D01*
X38177923Y29650910D01*
X38179586Y29652021D01*
X38180828Y29651688D01*
X38202326Y29637324D01*
X38249199Y29628000D01*
X39648801Y29628000D01*
X39695674Y29637324D01*
X39722016Y29654926D01*
X39724012Y29655057D01*
X39725123Y29653394D01*
G37*
G36*
X28375123Y30153394D02*
G01*
X28374698Y30152025D01*
X28340688Y30108882D01*
X28338314Y30048427D01*
X28369946Y30001086D01*
X28370077Y29999090D01*
X28368414Y29997979D01*
X28367172Y29998312D01*
X28345674Y30012676D01*
X28298801Y30022000D01*
X26899199Y30022000D01*
X26852326Y30012676D01*
X26825984Y29995074D01*
X26823988Y29994943D01*
X26822877Y29996606D01*
X26823302Y29997975D01*
X26857312Y30041118D01*
X26859686Y30101573D01*
X26828054Y30148914D01*
X26827923Y30150910D01*
X26829586Y30152021D01*
X26830828Y30151688D01*
X26852326Y30137324D01*
X26899199Y30128000D01*
X28298801Y30128000D01*
X28345674Y30137324D01*
X28372016Y30154926D01*
X28374012Y30155057D01*
X28375123Y30153394D01*
G37*
G36*
X39725123Y30153394D02*
G01*
X39724698Y30152025D01*
X39690688Y30108882D01*
X39688314Y30048427D01*
X39719946Y30001086D01*
X39720077Y29999090D01*
X39718414Y29997979D01*
X39717172Y29998312D01*
X39695674Y30012676D01*
X39648801Y30022000D01*
X38249199Y30022000D01*
X38202326Y30012676D01*
X38175984Y29995074D01*
X38173988Y29994943D01*
X38172877Y29996606D01*
X38173302Y29997975D01*
X38207312Y30041118D01*
X38209686Y30101573D01*
X38178054Y30148914D01*
X38177923Y30150910D01*
X38179586Y30152021D01*
X38180828Y30151688D01*
X38202326Y30137324D01*
X38249199Y30128000D01*
X39648801Y30128000D01*
X39695674Y30137324D01*
X39722016Y30154926D01*
X39724012Y30155057D01*
X39725123Y30153394D01*
G37*
G36*
X28375123Y30653394D02*
G01*
X28374698Y30652025D01*
X28340688Y30608882D01*
X28338314Y30548427D01*
X28369946Y30501086D01*
X28370077Y30499090D01*
X28368414Y30497979D01*
X28367172Y30498312D01*
X28345674Y30512676D01*
X28298801Y30522000D01*
X26899199Y30522000D01*
X26852326Y30512676D01*
X26825984Y30495074D01*
X26823988Y30494943D01*
X26822877Y30496606D01*
X26823302Y30497975D01*
X26857312Y30541118D01*
X26859686Y30601573D01*
X26828054Y30648914D01*
X26827923Y30650910D01*
X26829586Y30652021D01*
X26830828Y30651688D01*
X26852326Y30637324D01*
X26899199Y30628000D01*
X28298801Y30628000D01*
X28345674Y30637324D01*
X28372016Y30654926D01*
X28374012Y30655057D01*
X28375123Y30653394D01*
G37*
G36*
X39725123Y30653394D02*
G01*
X39724698Y30652025D01*
X39690688Y30608882D01*
X39688314Y30548427D01*
X39719946Y30501086D01*
X39720077Y30499090D01*
X39718414Y30497979D01*
X39717172Y30498312D01*
X39695674Y30512676D01*
X39648801Y30522000D01*
X38249199Y30522000D01*
X38202326Y30512676D01*
X38175984Y30495074D01*
X38173988Y30494943D01*
X38172877Y30496606D01*
X38173302Y30497975D01*
X38207312Y30541118D01*
X38209686Y30601573D01*
X38178054Y30648914D01*
X38177923Y30650910D01*
X38179586Y30652021D01*
X38180828Y30651688D01*
X38202326Y30637324D01*
X38249199Y30628000D01*
X39648801Y30628000D01*
X39695674Y30637324D01*
X39722016Y30654926D01*
X39724012Y30655057D01*
X39725123Y30653394D01*
G37*
G36*
X28375123Y31153394D02*
G01*
X28374698Y31152025D01*
X28340688Y31108882D01*
X28338314Y31048427D01*
X28369946Y31001086D01*
X28370077Y30999090D01*
X28368414Y30997979D01*
X28367172Y30998312D01*
X28345674Y31012676D01*
X28298801Y31022000D01*
X26899199Y31022000D01*
X26852326Y31012676D01*
X26825984Y30995074D01*
X26823988Y30994943D01*
X26822877Y30996606D01*
X26823302Y30997975D01*
X26857312Y31041118D01*
X26859686Y31101573D01*
X26828054Y31148914D01*
X26827923Y31150910D01*
X26829586Y31152021D01*
X26830828Y31151688D01*
X26852326Y31137324D01*
X26899199Y31128000D01*
X28298801Y31128000D01*
X28345674Y31137324D01*
X28372016Y31154926D01*
X28374012Y31155057D01*
X28375123Y31153394D01*
G37*
G36*
X39725123Y31153394D02*
G01*
X39724698Y31152025D01*
X39690688Y31108882D01*
X39688314Y31048427D01*
X39719946Y31001086D01*
X39720077Y30999090D01*
X39718414Y30997979D01*
X39717172Y30998312D01*
X39695674Y31012676D01*
X39648801Y31022000D01*
X38249199Y31022000D01*
X38202326Y31012676D01*
X38175984Y30995074D01*
X38173988Y30994943D01*
X38172877Y30996606D01*
X38173302Y30997975D01*
X38207312Y31041118D01*
X38209686Y31101573D01*
X38178054Y31148914D01*
X38177923Y31150910D01*
X38179586Y31152021D01*
X38180828Y31151688D01*
X38202326Y31137324D01*
X38249199Y31128000D01*
X39648801Y31128000D01*
X39695674Y31137324D01*
X39722016Y31154926D01*
X39724012Y31155057D01*
X39725123Y31153394D01*
G37*
G36*
X28375123Y31653394D02*
G01*
X28374698Y31652025D01*
X28340688Y31608882D01*
X28338314Y31548427D01*
X28369946Y31501086D01*
X28370077Y31499090D01*
X28368414Y31497979D01*
X28367172Y31498312D01*
X28345674Y31512676D01*
X28298801Y31522000D01*
X26899199Y31522000D01*
X26852326Y31512676D01*
X26825984Y31495074D01*
X26823988Y31494943D01*
X26822877Y31496606D01*
X26823302Y31497975D01*
X26857312Y31541118D01*
X26859686Y31601573D01*
X26828054Y31648914D01*
X26827923Y31650910D01*
X26829586Y31652021D01*
X26830828Y31651688D01*
X26852326Y31637324D01*
X26899199Y31628000D01*
X28298801Y31628000D01*
X28345674Y31637324D01*
X28372016Y31654926D01*
X28374012Y31655057D01*
X28375123Y31653394D01*
G37*
G36*
X39725123Y31653394D02*
G01*
X39724698Y31652025D01*
X39690688Y31608882D01*
X39688314Y31548427D01*
X39719946Y31501086D01*
X39720077Y31499090D01*
X39718414Y31497979D01*
X39717172Y31498312D01*
X39695674Y31512676D01*
X39648801Y31522000D01*
X38249199Y31522000D01*
X38202326Y31512676D01*
X38175984Y31495074D01*
X38173988Y31494943D01*
X38172877Y31496606D01*
X38173302Y31497975D01*
X38207312Y31541118D01*
X38209686Y31601573D01*
X38178054Y31648914D01*
X38177923Y31650910D01*
X38179586Y31652021D01*
X38180828Y31651688D01*
X38202326Y31637324D01*
X38249199Y31628000D01*
X39648801Y31628000D01*
X39695674Y31637324D01*
X39722016Y31654926D01*
X39724012Y31655057D01*
X39725123Y31653394D01*
G37*
G36*
X28375123Y32153394D02*
G01*
X28374698Y32152025D01*
X28340688Y32108882D01*
X28338314Y32048427D01*
X28369946Y32001086D01*
X28370077Y31999090D01*
X28368414Y31997979D01*
X28367172Y31998312D01*
X28345674Y32012676D01*
X28298801Y32022000D01*
X26899199Y32022000D01*
X26852326Y32012676D01*
X26825984Y31995074D01*
X26823988Y31994943D01*
X26822877Y31996606D01*
X26823302Y31997975D01*
X26857312Y32041118D01*
X26859686Y32101573D01*
X26828054Y32148914D01*
X26827923Y32150910D01*
X26829586Y32152021D01*
X26830828Y32151688D01*
X26852326Y32137324D01*
X26899199Y32128000D01*
X28298801Y32128000D01*
X28345674Y32137324D01*
X28372016Y32154926D01*
X28374012Y32155057D01*
X28375123Y32153394D01*
G37*
G36*
X39725123Y32153394D02*
G01*
X39724698Y32152025D01*
X39690688Y32108882D01*
X39688314Y32048427D01*
X39719946Y32001086D01*
X39720077Y31999090D01*
X39718414Y31997979D01*
X39717172Y31998312D01*
X39695674Y32012676D01*
X39648801Y32022000D01*
X38249199Y32022000D01*
X38202326Y32012676D01*
X38175984Y31995074D01*
X38173988Y31994943D01*
X38172877Y31996606D01*
X38173302Y31997975D01*
X38207312Y32041118D01*
X38209686Y32101573D01*
X38178054Y32148914D01*
X38177923Y32150910D01*
X38179586Y32152021D01*
X38180828Y32151688D01*
X38202326Y32137324D01*
X38249199Y32128000D01*
X39648801Y32128000D01*
X39695674Y32137324D01*
X39722016Y32154926D01*
X39724012Y32155057D01*
X39725123Y32153394D01*
G37*
G36*
X32696975Y35025698D02*
G01*
X32740118Y34991688D01*
X32800573Y34989314D01*
X32847914Y35020946D01*
X32849910Y35021077D01*
X32851021Y35019414D01*
X32850688Y35018172D01*
X32836324Y34996674D01*
X32827000Y34949801D01*
X32827000Y33550199D01*
X32836324Y33503326D01*
X32853926Y33476984D01*
X32854057Y33474988D01*
X32852394Y33473877D01*
X32851025Y33474302D01*
X32807882Y33508312D01*
X32747427Y33510686D01*
X32700086Y33479054D01*
X32698090Y33478923D01*
X32696979Y33480586D01*
X32697312Y33481828D01*
X32711676Y33503326D01*
X32721000Y33550199D01*
X32721000Y34949801D01*
X32711676Y34996674D01*
X32694074Y35023016D01*
X32693943Y35025012D01*
X32695606Y35026123D01*
X32696975Y35025698D01*
G37*
G36*
X30696975Y35025698D02*
G01*
X30740118Y34991688D01*
X30800573Y34989314D01*
X30847914Y35020946D01*
X30849910Y35021077D01*
X30851021Y35019414D01*
X30850688Y35018172D01*
X30836324Y34996674D01*
X30827000Y34949801D01*
X30827000Y33550199D01*
X30836324Y33503326D01*
X30853926Y33476984D01*
X30854057Y33474988D01*
X30852394Y33473877D01*
X30851025Y33474302D01*
X30807882Y33508312D01*
X30747427Y33510686D01*
X30700086Y33479054D01*
X30698090Y33478923D01*
X30696979Y33480586D01*
X30697312Y33481828D01*
X30711676Y33503326D01*
X30721000Y33550199D01*
X30721000Y34949801D01*
X30711676Y34996674D01*
X30694074Y35023016D01*
X30693943Y35025012D01*
X30695606Y35026123D01*
X30696975Y35025698D01*
G37*
G36*
X36196975Y35025698D02*
G01*
X36240118Y34991688D01*
X36300573Y34989314D01*
X36347914Y35020946D01*
X36349910Y35021077D01*
X36351021Y35019414D01*
X36350688Y35018172D01*
X36336324Y34996674D01*
X36327000Y34949801D01*
X36327000Y33550199D01*
X36336324Y33503326D01*
X36353926Y33476984D01*
X36354057Y33474988D01*
X36352394Y33473877D01*
X36351025Y33474302D01*
X36307882Y33508312D01*
X36247427Y33510686D01*
X36200086Y33479054D01*
X36198090Y33478923D01*
X36196979Y33480586D01*
X36197312Y33481828D01*
X36211676Y33503326D01*
X36221000Y33550199D01*
X36221000Y34949801D01*
X36211676Y34996674D01*
X36194074Y35023016D01*
X36193943Y35025012D01*
X36195606Y35026123D01*
X36196975Y35025698D01*
G37*
G36*
X31196975Y35025698D02*
G01*
X31240118Y34991688D01*
X31300573Y34989314D01*
X31347914Y35020946D01*
X31349910Y35021077D01*
X31351021Y35019414D01*
X31350688Y35018172D01*
X31336324Y34996674D01*
X31327000Y34949801D01*
X31327000Y33550199D01*
X31336324Y33503326D01*
X31353926Y33476984D01*
X31354057Y33474988D01*
X31352394Y33473877D01*
X31351025Y33474302D01*
X31307882Y33508312D01*
X31247427Y33510686D01*
X31200086Y33479054D01*
X31198090Y33478923D01*
X31196979Y33480586D01*
X31197312Y33481828D01*
X31211676Y33503326D01*
X31221000Y33550199D01*
X31221000Y34949801D01*
X31211676Y34996674D01*
X31194074Y35023016D01*
X31193943Y35025012D01*
X31195606Y35026123D01*
X31196975Y35025698D01*
G37*
G36*
X33196975Y35025698D02*
G01*
X33240118Y34991688D01*
X33300573Y34989314D01*
X33347914Y35020946D01*
X33349910Y35021077D01*
X33351021Y35019414D01*
X33350688Y35018172D01*
X33336324Y34996674D01*
X33327000Y34949801D01*
X33327000Y33550199D01*
X33336324Y33503326D01*
X33353926Y33476984D01*
X33354057Y33474988D01*
X33352394Y33473877D01*
X33351025Y33474302D01*
X33307882Y33508312D01*
X33247427Y33510686D01*
X33200086Y33479054D01*
X33198090Y33478923D01*
X33196979Y33480586D01*
X33197312Y33481828D01*
X33211676Y33503326D01*
X33221000Y33550199D01*
X33221000Y34949801D01*
X33211676Y34996674D01*
X33194074Y35023016D01*
X33193943Y35025012D01*
X33195606Y35026123D01*
X33196975Y35025698D01*
G37*
G36*
X36696975Y35025698D02*
G01*
X36740118Y34991688D01*
X36800573Y34989314D01*
X36847914Y35020946D01*
X36849910Y35021077D01*
X36851021Y35019414D01*
X36850688Y35018172D01*
X36836324Y34996674D01*
X36827000Y34949801D01*
X36827000Y33550199D01*
X36836324Y33503326D01*
X36853926Y33476984D01*
X36854057Y33474988D01*
X36852394Y33473877D01*
X36851025Y33474302D01*
X36807882Y33508312D01*
X36747427Y33510686D01*
X36700086Y33479054D01*
X36698090Y33478923D01*
X36696979Y33480586D01*
X36697312Y33481828D01*
X36711676Y33503326D01*
X36721000Y33550199D01*
X36721000Y34949801D01*
X36711676Y34996674D01*
X36694074Y35023016D01*
X36693943Y35025012D01*
X36695606Y35026123D01*
X36696975Y35025698D01*
G37*
G36*
X29696975Y35025698D02*
G01*
X29740118Y34991688D01*
X29800573Y34989314D01*
X29847914Y35020946D01*
X29849910Y35021077D01*
X29851021Y35019414D01*
X29850688Y35018172D01*
X29836324Y34996674D01*
X29827000Y34949801D01*
X29827000Y33550199D01*
X29836324Y33503326D01*
X29853926Y33476984D01*
X29854057Y33474988D01*
X29852394Y33473877D01*
X29851025Y33474302D01*
X29807882Y33508312D01*
X29747427Y33510686D01*
X29700086Y33479054D01*
X29698090Y33478923D01*
X29696979Y33480586D01*
X29697312Y33481828D01*
X29711676Y33503326D01*
X29721000Y33550199D01*
X29721000Y34949801D01*
X29711676Y34996674D01*
X29694074Y35023016D01*
X29693943Y35025012D01*
X29695606Y35026123D01*
X29696975Y35025698D01*
G37*
G36*
X33696975Y35025698D02*
G01*
X33740118Y34991688D01*
X33800573Y34989314D01*
X33847914Y35020946D01*
X33849910Y35021077D01*
X33851021Y35019414D01*
X33850688Y35018172D01*
X33836324Y34996674D01*
X33827000Y34949801D01*
X33827000Y33550199D01*
X33836324Y33503326D01*
X33853926Y33476984D01*
X33854057Y33474988D01*
X33852394Y33473877D01*
X33851025Y33474302D01*
X33807882Y33508312D01*
X33747427Y33510686D01*
X33700086Y33479054D01*
X33698090Y33478923D01*
X33696979Y33480586D01*
X33697312Y33481828D01*
X33711676Y33503326D01*
X33721000Y33550199D01*
X33721000Y34949801D01*
X33711676Y34996674D01*
X33694074Y35023016D01*
X33693943Y35025012D01*
X33695606Y35026123D01*
X33696975Y35025698D01*
G37*
G36*
X35696975Y35025698D02*
G01*
X35740118Y34991688D01*
X35800573Y34989314D01*
X35847914Y35020946D01*
X35849910Y35021077D01*
X35851021Y35019414D01*
X35850688Y35018172D01*
X35836324Y34996674D01*
X35827000Y34949801D01*
X35827000Y33550199D01*
X35836324Y33503326D01*
X35853926Y33476984D01*
X35854057Y33474988D01*
X35852394Y33473877D01*
X35851025Y33474302D01*
X35807882Y33508312D01*
X35747427Y33510686D01*
X35700086Y33479054D01*
X35698090Y33478923D01*
X35696979Y33480586D01*
X35697312Y33481828D01*
X35711676Y33503326D01*
X35721000Y33550199D01*
X35721000Y34949801D01*
X35711676Y34996674D01*
X35694074Y35023016D01*
X35693943Y35025012D01*
X35695606Y35026123D01*
X35696975Y35025698D01*
G37*
G36*
X32196975Y35025698D02*
G01*
X32240118Y34991688D01*
X32300573Y34989314D01*
X32347914Y35020946D01*
X32349910Y35021077D01*
X32351021Y35019414D01*
X32350688Y35018172D01*
X32336324Y34996674D01*
X32327000Y34949801D01*
X32327000Y33550199D01*
X32336324Y33503326D01*
X32353926Y33476984D01*
X32354057Y33474988D01*
X32352394Y33473877D01*
X32351025Y33474302D01*
X32307882Y33508312D01*
X32247427Y33510686D01*
X32200086Y33479054D01*
X32198090Y33478923D01*
X32196979Y33480586D01*
X32197312Y33481828D01*
X32211676Y33503326D01*
X32221000Y33550199D01*
X32221000Y34949801D01*
X32211676Y34996674D01*
X32194074Y35023016D01*
X32193943Y35025012D01*
X32195606Y35026123D01*
X32196975Y35025698D01*
G37*
G36*
X34196975Y35025698D02*
G01*
X34240118Y34991688D01*
X34300573Y34989314D01*
X34347914Y35020946D01*
X34349910Y35021077D01*
X34351021Y35019414D01*
X34350688Y35018172D01*
X34336324Y34996674D01*
X34327000Y34949801D01*
X34327000Y33550199D01*
X34336324Y33503326D01*
X34353926Y33476984D01*
X34354057Y33474988D01*
X34352394Y33473877D01*
X34351025Y33474302D01*
X34307882Y33508312D01*
X34247427Y33510686D01*
X34200086Y33479054D01*
X34198090Y33478923D01*
X34196979Y33480586D01*
X34197312Y33481828D01*
X34211676Y33503326D01*
X34221000Y33550199D01*
X34221000Y34949801D01*
X34211676Y34996674D01*
X34194074Y35023016D01*
X34193943Y35025012D01*
X34195606Y35026123D01*
X34196975Y35025698D01*
G37*
G36*
X30196975Y35025698D02*
G01*
X30240118Y34991688D01*
X30300573Y34989314D01*
X30347914Y35020946D01*
X30349910Y35021077D01*
X30351021Y35019414D01*
X30350688Y35018172D01*
X30336324Y34996674D01*
X30327000Y34949801D01*
X30327000Y33550199D01*
X30336324Y33503326D01*
X30353926Y33476984D01*
X30354057Y33474988D01*
X30352394Y33473877D01*
X30351025Y33474302D01*
X30307882Y33508312D01*
X30247427Y33510686D01*
X30200086Y33479054D01*
X30198090Y33478923D01*
X30196979Y33480586D01*
X30197312Y33481828D01*
X30211676Y33503326D01*
X30221000Y33550199D01*
X30221000Y34949801D01*
X30211676Y34996674D01*
X30194074Y35023016D01*
X30193943Y35025012D01*
X30195606Y35026123D01*
X30196975Y35025698D01*
G37*
G36*
X35196975Y35025698D02*
G01*
X35240118Y34991688D01*
X35300573Y34989314D01*
X35347914Y35020946D01*
X35349910Y35021077D01*
X35351021Y35019414D01*
X35350688Y35018172D01*
X35336324Y34996674D01*
X35327000Y34949801D01*
X35327000Y33550199D01*
X35336324Y33503326D01*
X35353926Y33476984D01*
X35354057Y33474988D01*
X35352394Y33473877D01*
X35351025Y33474302D01*
X35307882Y33508312D01*
X35247427Y33510686D01*
X35200086Y33479054D01*
X35198090Y33478923D01*
X35196979Y33480586D01*
X35197312Y33481828D01*
X35211676Y33503326D01*
X35221000Y33550199D01*
X35221000Y34949801D01*
X35211676Y34996674D01*
X35194074Y35023016D01*
X35193943Y35025012D01*
X35195606Y35026123D01*
X35196975Y35025698D01*
G37*
G36*
X34696975Y35025698D02*
G01*
X34740118Y34991688D01*
X34800573Y34989314D01*
X34847914Y35020946D01*
X34849910Y35021077D01*
X34851021Y35019414D01*
X34850688Y35018172D01*
X34836324Y34996674D01*
X34827000Y34949801D01*
X34827000Y33550199D01*
X34836324Y33503326D01*
X34853926Y33476984D01*
X34854057Y33474988D01*
X34852394Y33473877D01*
X34851025Y33474302D01*
X34807882Y33508312D01*
X34747427Y33510686D01*
X34700086Y33479054D01*
X34698090Y33478923D01*
X34696979Y33480586D01*
X34697312Y33481828D01*
X34711676Y33503326D01*
X34721000Y33550199D01*
X34721000Y34949801D01*
X34711676Y34996674D01*
X34694074Y35023016D01*
X34693943Y35025012D01*
X34695606Y35026123D01*
X34696975Y35025698D01*
G37*
G36*
X31696975Y35025698D02*
G01*
X31740118Y34991688D01*
X31800573Y34989314D01*
X31847914Y35020946D01*
X31849910Y35021077D01*
X31851021Y35019414D01*
X31850688Y35018172D01*
X31836324Y34996674D01*
X31827000Y34949801D01*
X31827000Y33550199D01*
X31836324Y33503326D01*
X31853926Y33476984D01*
X31854057Y33474988D01*
X31852394Y33473877D01*
X31851025Y33474302D01*
X31807882Y33508312D01*
X31747427Y33510686D01*
X31700086Y33479054D01*
X31698090Y33478923D01*
X31696979Y33480586D01*
X31697312Y33481828D01*
X31711676Y33503326D01*
X31721000Y33550199D01*
X31721000Y34949801D01*
X31711676Y34996674D01*
X31694074Y35023016D01*
X31693943Y35025012D01*
X31695606Y35026123D01*
X31696975Y35025698D01*
G37*
G36*
X21241157Y35800980D02*
G01*
X21241325Y35799706D01*
X21231000Y35747801D01*
X21231000Y34473199D01*
X21241325Y34421294D01*
X21240682Y34419400D01*
X21238720Y34419010D01*
X21237700Y34419793D01*
X21234659Y34424343D01*
X21186883Y34462008D01*
X21126428Y34464383D01*
X21075876Y34430606D01*
X21071500Y34424581D01*
X21068300Y34419793D01*
X21066506Y34418908D01*
X21064843Y34420020D01*
X21064675Y34421294D01*
X21075000Y34473199D01*
X21075000Y35747801D01*
X21064675Y35799706D01*
X21065318Y35801600D01*
X21067280Y35801990D01*
X21068300Y35801207D01*
X21071341Y35796657D01*
X21119117Y35758992D01*
X21179572Y35756617D01*
X21230124Y35790394D01*
X21234500Y35796419D01*
X21237700Y35801207D01*
X21239494Y35802092D01*
X21241157Y35800980D01*
G37*
G36*
X19291157Y35800980D02*
G01*
X19291325Y35799706D01*
X19281000Y35747801D01*
X19281000Y34473199D01*
X19291325Y34421294D01*
X19290682Y34419400D01*
X19288720Y34419010D01*
X19287700Y34419793D01*
X19284659Y34424343D01*
X19236883Y34462008D01*
X19176428Y34464383D01*
X19125876Y34430606D01*
X19121500Y34424581D01*
X19118300Y34419793D01*
X19116506Y34418908D01*
X19114843Y34420020D01*
X19114675Y34421294D01*
X19125000Y34473199D01*
X19125000Y35747801D01*
X19114675Y35799706D01*
X19115318Y35801600D01*
X19117280Y35801990D01*
X19118300Y35801207D01*
X19121341Y35796657D01*
X19169117Y35758992D01*
X19229572Y35756617D01*
X19280124Y35790394D01*
X19284500Y35796419D01*
X19287700Y35801207D01*
X19289494Y35802092D01*
X19291157Y35800980D01*
G37*
G36*
X20591157Y35800980D02*
G01*
X20591325Y35799706D01*
X20581000Y35747801D01*
X20581000Y34473199D01*
X20591325Y34421294D01*
X20590682Y34419400D01*
X20588720Y34419010D01*
X20587700Y34419793D01*
X20584659Y34424343D01*
X20536883Y34462008D01*
X20476428Y34464383D01*
X20425876Y34430606D01*
X20421500Y34424581D01*
X20418300Y34419793D01*
X20416506Y34418908D01*
X20414843Y34420020D01*
X20414675Y34421294D01*
X20425000Y34473199D01*
X20425000Y35747801D01*
X20414675Y35799706D01*
X20415318Y35801600D01*
X20417280Y35801990D01*
X20418300Y35801207D01*
X20421341Y35796657D01*
X20469117Y35758992D01*
X20529572Y35756617D01*
X20580124Y35790394D01*
X20584500Y35796419D01*
X20587700Y35801207D01*
X20589494Y35802092D01*
X20591157Y35800980D01*
G37*
G36*
X22541157Y35800980D02*
G01*
X22541325Y35799706D01*
X22531000Y35747801D01*
X22531000Y34473199D01*
X22541325Y34421294D01*
X22540682Y34419400D01*
X22538720Y34419010D01*
X22537700Y34419793D01*
X22534659Y34424343D01*
X22486883Y34462008D01*
X22426428Y34464383D01*
X22375876Y34430606D01*
X22371500Y34424581D01*
X22368300Y34419793D01*
X22366506Y34418908D01*
X22364843Y34420020D01*
X22364675Y34421294D01*
X22375000Y34473199D01*
X22375000Y35747801D01*
X22364675Y35799706D01*
X22365318Y35801600D01*
X22367280Y35801990D01*
X22368300Y35801207D01*
X22371341Y35796657D01*
X22419117Y35758992D01*
X22479572Y35756617D01*
X22530124Y35790394D01*
X22534500Y35796419D01*
X22537700Y35801207D01*
X22539494Y35802092D01*
X22541157Y35800980D01*
G37*
G36*
X19941157Y35800980D02*
G01*
X19941325Y35799706D01*
X19931000Y35747801D01*
X19931000Y34473199D01*
X19941325Y34421294D01*
X19940682Y34419400D01*
X19938720Y34419010D01*
X19937700Y34419793D01*
X19934659Y34424343D01*
X19886883Y34462008D01*
X19826428Y34464383D01*
X19775876Y34430606D01*
X19771500Y34424581D01*
X19768300Y34419793D01*
X19766506Y34418908D01*
X19764843Y34420020D01*
X19764675Y34421294D01*
X19775000Y34473199D01*
X19775000Y35747801D01*
X19764675Y35799706D01*
X19765318Y35801600D01*
X19767280Y35801990D01*
X19768300Y35801207D01*
X19771341Y35796657D01*
X19819117Y35758992D01*
X19879572Y35756617D01*
X19930124Y35790394D01*
X19934500Y35796419D01*
X19937700Y35801207D01*
X19939494Y35802092D01*
X19941157Y35800980D01*
G37*
G36*
X21891157Y35800980D02*
G01*
X21891325Y35799706D01*
X21881000Y35747801D01*
X21881000Y34473199D01*
X21891325Y34421294D01*
X21890682Y34419400D01*
X21888720Y34419010D01*
X21887700Y34419793D01*
X21884659Y34424343D01*
X21836883Y34462008D01*
X21776428Y34464383D01*
X21725876Y34430606D01*
X21721500Y34424581D01*
X21718300Y34419793D01*
X21716506Y34418908D01*
X21714843Y34420020D01*
X21714675Y34421294D01*
X21725000Y34473199D01*
X21725000Y35747801D01*
X21714675Y35799706D01*
X21715318Y35801600D01*
X21717280Y35801990D01*
X21718300Y35801207D01*
X21721341Y35796657D01*
X21769117Y35758992D01*
X21829572Y35756617D01*
X21880124Y35790394D01*
X21884500Y35796419D01*
X21887700Y35801207D01*
X21889494Y35802092D01*
X21891157Y35800980D01*
G37*
G36*
X19941157Y41525980D02*
G01*
X19941325Y41524706D01*
X19931000Y41472801D01*
X19931000Y40198199D01*
X19941325Y40146294D01*
X19940682Y40144400D01*
X19938720Y40144010D01*
X19937700Y40144793D01*
X19934659Y40149343D01*
X19886883Y40187008D01*
X19826428Y40189383D01*
X19775876Y40155606D01*
X19771500Y40149581D01*
X19768300Y40144793D01*
X19766506Y40143908D01*
X19764843Y40145020D01*
X19764675Y40146294D01*
X19775000Y40198199D01*
X19775000Y41472801D01*
X19764675Y41524706D01*
X19765318Y41526600D01*
X19767280Y41526990D01*
X19768300Y41526207D01*
X19771341Y41521657D01*
X19819117Y41483992D01*
X19879572Y41481617D01*
X19930124Y41515394D01*
X19934500Y41521419D01*
X19937700Y41526207D01*
X19939494Y41527092D01*
X19941157Y41525980D01*
G37*
G36*
X19291157Y41525980D02*
G01*
X19291325Y41524706D01*
X19281000Y41472801D01*
X19281000Y40198199D01*
X19291325Y40146294D01*
X19290682Y40144400D01*
X19288720Y40144010D01*
X19287700Y40144793D01*
X19284659Y40149343D01*
X19236883Y40187008D01*
X19176428Y40189383D01*
X19125876Y40155606D01*
X19121500Y40149581D01*
X19118300Y40144793D01*
X19116506Y40143908D01*
X19114843Y40145020D01*
X19114675Y40146294D01*
X19125000Y40198199D01*
X19125000Y41472801D01*
X19114675Y41524706D01*
X19115318Y41526600D01*
X19117280Y41526990D01*
X19118300Y41526207D01*
X19121341Y41521657D01*
X19169117Y41483992D01*
X19229572Y41481617D01*
X19280124Y41515394D01*
X19284500Y41521419D01*
X19287700Y41526207D01*
X19289494Y41527092D01*
X19291157Y41525980D01*
G37*
G36*
X20591157Y41525980D02*
G01*
X20591325Y41524706D01*
X20581000Y41472801D01*
X20581000Y40198199D01*
X20591325Y40146294D01*
X20590682Y40144400D01*
X20588720Y40144010D01*
X20587700Y40144793D01*
X20584659Y40149343D01*
X20536883Y40187008D01*
X20476428Y40189383D01*
X20425876Y40155606D01*
X20421500Y40149581D01*
X20418300Y40144793D01*
X20416506Y40143908D01*
X20414843Y40145020D01*
X20414675Y40146294D01*
X20425000Y40198199D01*
X20425000Y41472801D01*
X20414675Y41524706D01*
X20415318Y41526600D01*
X20417280Y41526990D01*
X20418300Y41526207D01*
X20421341Y41521657D01*
X20469117Y41483992D01*
X20529572Y41481617D01*
X20580124Y41515394D01*
X20584500Y41521419D01*
X20587700Y41526207D01*
X20589494Y41527092D01*
X20591157Y41525980D01*
G37*
G36*
X22541157Y41525980D02*
G01*
X22541325Y41524706D01*
X22531000Y41472801D01*
X22531000Y40198199D01*
X22541325Y40146294D01*
X22540682Y40144400D01*
X22538720Y40144010D01*
X22537700Y40144793D01*
X22534659Y40149343D01*
X22486883Y40187008D01*
X22426428Y40189383D01*
X22375876Y40155606D01*
X22371500Y40149581D01*
X22368300Y40144793D01*
X22366506Y40143908D01*
X22364843Y40145020D01*
X22364675Y40146294D01*
X22375000Y40198199D01*
X22375000Y41472801D01*
X22364675Y41524706D01*
X22365318Y41526600D01*
X22367280Y41526990D01*
X22368300Y41526207D01*
X22371341Y41521657D01*
X22419117Y41483992D01*
X22479572Y41481617D01*
X22530124Y41515394D01*
X22534500Y41521419D01*
X22537700Y41526207D01*
X22539494Y41527092D01*
X22541157Y41525980D01*
G37*
G36*
X21241157Y41525980D02*
G01*
X21241325Y41524706D01*
X21231000Y41472801D01*
X21231000Y40198199D01*
X21241325Y40146294D01*
X21240682Y40144400D01*
X21238720Y40144010D01*
X21237700Y40144793D01*
X21234659Y40149343D01*
X21186883Y40187008D01*
X21126428Y40189383D01*
X21075876Y40155606D01*
X21071500Y40149581D01*
X21068300Y40144793D01*
X21066506Y40143908D01*
X21064843Y40145020D01*
X21064675Y40146294D01*
X21075000Y40198199D01*
X21075000Y41472801D01*
X21064675Y41524706D01*
X21065318Y41526600D01*
X21067280Y41526990D01*
X21068300Y41526207D01*
X21071341Y41521657D01*
X21119117Y41483992D01*
X21179572Y41481617D01*
X21230124Y41515394D01*
X21234500Y41521419D01*
X21237700Y41526207D01*
X21239494Y41527092D01*
X21241157Y41525980D01*
G37*
G36*
X21891157Y41525980D02*
G01*
X21891325Y41524706D01*
X21881000Y41472801D01*
X21881000Y40198199D01*
X21891325Y40146294D01*
X21890682Y40144400D01*
X21888720Y40144010D01*
X21887700Y40144793D01*
X21884659Y40149343D01*
X21836883Y40187008D01*
X21776428Y40189383D01*
X21725876Y40155606D01*
X21721500Y40149581D01*
X21718300Y40144793D01*
X21716506Y40143908D01*
X21714843Y40145020D01*
X21714675Y40146294D01*
X21725000Y40198199D01*
X21725000Y41472801D01*
X21714675Y41524706D01*
X21715318Y41526600D01*
X21717280Y41526990D01*
X21718300Y41526207D01*
X21721341Y41521657D01*
X21769117Y41483992D01*
X21829572Y41481617D01*
X21880124Y41515394D01*
X21884500Y41521419D01*
X21887700Y41526207D01*
X21889494Y41527092D01*
X21891157Y41525980D01*
G37*
M02*
