M48
; DRILL file {KiCad (6.0.1)} date Wed Aug 31 18:16:26 2022
; FORMAT={2:4/ absolute / inch / suppress leading zeros}
; #@! TF.CreationDate,2022-08-31T18:16:26+03:00
; #@! TF.GenerationSoftware,Kicad,Pcbnew,(6.0.1)
; #@! TF.FileFunction,MixedPlating,1,4
FMAT,2
INCH,TZ
; #@! TA.AperFunction,Plated,PTH,ViaDrill
T1C0.0118
; #@! TA.AperFunction,Plated,PTH,ComponentDrill
T2C0.0315
; #@! TA.AperFunction,Plated,PTH,ComponentDrill
T3C0.0394
; #@! TA.AperFunction,NonPlated,NPTH,ComponentDrill
T4C0.0390
%
G90
G05
T1
X1260Y11594
X1600Y17350
X1600Y16600
X1909Y8878
X1911Y13122
X2100Y7050
X2100Y6500
X2100Y4968
X2600Y6500
X2642Y11610
X2786Y8692
X2950Y5200
X3000Y9350
X3359Y9050
X3700Y17650
X3700Y17050
X3800Y15250
X3800Y14750
X4100Y15250
X4100Y14750
X4100Y14250
X4100Y7600
X4152Y15841
X4368Y12374
X4600Y6900
X4781Y13150
X5100Y13568
X5100Y5250
X5240Y11409
X5250Y14250
X5319Y16969
X5319Y16669
X5350Y13563
X5700Y16250
X5800Y10250
X5900Y4350
X6100Y13850
X6100Y6900
X6300Y9650
X6600Y8900
X6825Y15075
X6900Y13450
X6900Y9850
X7000Y12950
X7000Y10750
X7169Y8950
X7200Y5750
X7320Y12106
X7589Y6339
X7700Y12112
X7900Y6350
X8050Y10900
X8200Y15550
X8400Y12250
X8461Y14337
X8784Y11850
X9000Y6150
X9000Y5849
X9200Y8882
X9400Y15250
X9400Y14150
X9400Y13650
X9472Y20900
X9548Y9218
X9564Y16781
X9700Y12650
X9700Y12250
X9700Y10050
X9700Y9682
X9943Y8870
X9972Y20900
X9991Y11415
X10148Y10956
X10472Y20900
X10600Y16850
X10600Y15350
X10600Y14650
X10600Y14150
X10600Y13650
X10700Y8950
X11100Y13480
X11147Y17900
X11153Y17456
X11457Y19566
X11500Y12250
X11500Y11850
X11535Y20906
X11718Y14150
X11818Y12982
X12150Y20900
X12185Y17874
X12250Y4250
X12250Y2500
X12611Y10716
X12643Y10416
X12689Y7900
X12700Y20900
X12844Y10192
X12900Y14650
X12900Y14150
X12900Y7150
X13000Y4250
X13145Y10107
X13400Y12950
X13400Y5300
X13400Y4800
X13800Y12950
X13824Y8189
X13985Y9762
X14217Y9987
X14218Y11581
X14218Y11280
X14218Y10979
X14270Y11877
X14313Y7687
X14450Y5300
X14450Y4800
X14500Y14550
X14518Y9993
X14700Y11974
X14730Y12337
X14750Y7916
X14900Y14550
X15000Y5250
X15000Y4250
X15531Y1024
X15750Y5250
X15750Y4250
X15886Y11555
X15900Y9600
X15906Y11909
X16102Y13168
X16104Y12182
X16299Y17815
X16535Y13164
X16547Y13848
X16555Y14975
X17053Y20927
X17165Y11815
X17203Y18677
X17539Y12283
X17550Y15159
X17559Y13189
X17703Y16577
X17933Y12283
X17971Y14784
X18203Y16177
X18457Y13990
X18465Y12953
X18650Y14786
X18661Y14272
X18703Y18677
X18996Y11815
X19003Y16577
X19100Y15159
X19350Y13169
X19350Y12283
X19469Y21171
X19567Y18051
X19744Y12283
X20183Y14787
X20188Y13035
X20200Y12100
X20453Y12480
X20500Y12100
X20551Y18071
X20551Y14272
X20700Y15159
X21350Y13800
X21400Y14709
X21575Y11713
X21772Y12500
X21870Y3819
X21890Y4390
T2
X5597Y23330
X5597Y22149
X6581Y23330
X6581Y22149
X7565Y23330
X7565Y22149
X8549Y23330
X8549Y22149
X9534Y23330
X9534Y22149
X10518Y23330
X10518Y22149
X11502Y23330
X11502Y22149
X12486Y23330
X12486Y22149
X13471Y23330
X13471Y22149
X14455Y23330
X14455Y22149
X15439Y23330
X15439Y22149
X16423Y23330
X16423Y22149
X17408Y23330
X17408Y22149
T3
X1848Y2600
X2848Y2600
X3848Y2600
X4848Y2600
X5848Y2600
X6848Y2600
X7100Y4350
X7848Y2600
X8848Y2600
X8900Y4350
X9848Y2600
X10848Y2600
X13102Y2552
X13102Y1552
X14102Y2552
X14102Y1552
T4
X1600Y7950
X3600Y8350
X3600Y7550
T0
M30
